<?xml version="1.0" encoding="utf-8" standalone="no"?>
<!DOCTYPE svg PUBLIC "-//W3C//DTD SVG 1.1//EN"
  "http://www.w3.org/Graphics/SVG/1.1/DTD/svg11.dtd">
<svg xmlns:xlink="http://www.w3.org/1999/xlink" width="158.4pt" height="144pt" viewBox="0 0 158.4 144" xmlns="http://www.w3.org/2000/svg" version="1.1">
 <metadata>
  <rdf:RDF xmlns:dc="http://purl.org/dc/elements/1.1/" xmlns:cc="http://creativecommons.org/ns#" xmlns:rdf="http://www.w3.org/1999/02/22-rdf-syntax-ns#">
   <cc:Work>
    <dc:type rdf:resource="http://purl.org/dc/dcmitype/StillImage"/>
    <dc:date>2024-09-14T02:31:40.089236</dc:date>
    <dc:format>image/svg+xml</dc:format>
    <dc:creator>
     <cc:Agent>
      <dc:title>Matplotlib v3.7.1, https://matplotlib.org/</dc:title>
     </cc:Agent>
    </dc:creator>
   </cc:Work>
  </rdf:RDF>
 </metadata>
 <defs>
  <style type="text/css">*{stroke-linejoin: round; stroke-linecap: butt}</style>
 </defs>
 <g id="figure_1">
  <g id="patch_1">
   <path d="M 0 144 
L 158.4 144 
L 158.4 0 
L 0 0 
L 0 144 
z
" style="fill: none"/>
  </g>
  <g id="axes_1">
   <g id="patch_2">
    <path d="M 19.8 128.16 
L 142.56 128.16 
L 142.56 17.28 
L 19.8 17.28 
L 19.8 128.16 
z
" style="fill: none"/>
   </g>
   <g id="PolyCollection_1">
    <path d="M 38.272349 107.821395 
L 38.155651 107.821395 
L 38.134837 107.001256 
L 38.109026 106.181117 
L 38.077887 105.360977 
L 38.041327 104.540838 
L 37.999521 103.720699 
L 37.952902 102.90056 
L 37.90208 102.080421 
L 37.847708 101.260281 
L 37.790271 100.440142 
L 37.729836 99.620003 
L 37.665766 98.799864 
L 37.59646 97.979724 
L 37.519131 97.159585 
L 37.42968 96.339446 
L 37.322705 95.519307 
L 37.191659 94.699168 
L 37.029172 93.879028 
L 36.827548 93.058889 
L 36.579387 92.23875 
L 36.278316 91.418611 
L 35.919735 90.598471 
L 35.501514 89.778332 
L 35.024536 88.958193 
L 34.492995 88.138054 
L 33.91438 87.317915 
L 33.299102 86.497775 
L 32.659784 85.677636 
L 32.01028 84.857497 
L 31.364545 84.037358 
L 30.735521 83.217218 
L 30.13418 82.397079 
L 29.568875 81.57694 
L 29.04508 80.756801 
L 28.565514 79.936661 
L 28.13061 79.116522 
L 27.739201 78.296383 
L 27.389283 77.476244 
L 27.078718 76.656105 
L 26.805766 75.835965 
L 26.569391 75.015826 
L 26.369335 74.195687 
L 26.206006 73.375548 
L 26.080256 72.555408 
L 25.993101 71.735269 
L 25.945473 70.91513 
L 25.938 70.094991 
L 25.970847 69.274852 
L 26.043571 68.454712 
L 26.154989 67.634573 
L 26.303037 66.814434 
L 26.484637 65.994295 
L 26.695615 65.174155 
L 26.930719 64.354016 
L 27.183806 63.533877 
L 27.448224 62.713738 
L 27.717384 61.893599 
L 27.985482 61.073459 
L 28.248237 60.25332 
L 28.503542 59.433181 
L 28.751865 58.613042 
L 28.996312 57.792902 
L 29.242284 56.972763 
L 29.496758 56.152624 
L 29.767282 55.332485 
L 30.060828 54.512346 
L 30.382682 53.692206 
L 30.735541 52.872067 
L 31.118949 52.051928 
L 31.529166 51.231789 
L 31.959459 50.411649 
L 32.40079 49.59151 
L 32.842777 48.771371 
L 33.274802 47.951232 
L 33.687108 47.131093 
L 34.071753 46.310953 
L 34.423311 45.490814 
L 34.73923 44.670675 
L 35.019848 43.850536 
L 35.268068 43.030396 
L 35.488765 42.210257 
L 35.688012 41.390118 
L 35.872251 40.569979 
L 36.047496 39.74984 
L 36.218686 38.9297 
L 36.389237 38.109561 
L 36.560843 37.289422 
L 36.733515 36.469283 
L 36.905822 35.649143 
L 37.075286 34.829004 
L 37.238847 34.008865 
L 37.393336 33.188726 
L 37.535891 32.368586 
L 37.664268 31.548447 
L 37.777031 30.728308 
L 37.873613 29.908169 
L 37.954267 29.08803 
L 38.019933 28.26789 
L 38.072059 27.447751 
L 38.112405 26.627612 
L 38.315595 26.627612 
L 38.315595 26.627612 
L 38.355941 27.447751 
L 38.408067 28.26789 
L 38.473733 29.08803 
L 38.554387 29.908169 
L 38.650969 30.728308 
L 38.763732 31.548447 
L 38.892109 32.368586 
L 39.034664 33.188726 
L 39.189153 34.008865 
L 39.352714 34.829004 
L 39.522178 35.649143 
L 39.694485 36.469283 
L 39.867157 37.289422 
L 40.038763 38.109561 
L 40.209314 38.9297 
L 40.380504 39.74984 
L 40.555749 40.569979 
L 40.739988 41.390118 
L 40.939235 42.210257 
L 41.159932 43.030396 
L 41.408152 43.850536 
L 41.68877 44.670675 
L 42.004689 45.490814 
L 42.356247 46.310953 
L 42.740892 47.131093 
L 43.153198 47.951232 
L 43.585223 48.771371 
L 44.02721 49.59151 
L 44.468541 50.411649 
L 44.898834 51.231789 
L 45.309051 52.051928 
L 45.692459 52.872067 
L 46.045318 53.692206 
L 46.367172 54.512346 
L 46.660718 55.332485 
L 46.931242 56.152624 
L 47.185716 56.972763 
L 47.431688 57.792902 
L 47.676135 58.613042 
L 47.924458 59.433181 
L 48.179763 60.25332 
L 48.442518 61.073459 
L 48.710616 61.893599 
L 48.979776 62.713738 
L 49.244194 63.533877 
L 49.497281 64.354016 
L 49.732385 65.174155 
L 49.943363 65.994295 
L 50.124963 66.814434 
L 50.273011 67.634573 
L 50.384429 68.454712 
L 50.457153 69.274852 
L 50.49 70.094991 
L 50.482527 70.91513 
L 50.434899 71.735269 
L 50.347744 72.555408 
L 50.221994 73.375548 
L 50.058665 74.195687 
L 49.858609 75.015826 
L 49.622234 75.835965 
L 49.349282 76.656105 
L 49.038717 77.476244 
L 48.688799 78.296383 
L 48.29739 79.116522 
L 47.862486 79.936661 
L 47.38292 80.756801 
L 46.859125 81.57694 
L 46.29382 82.397079 
L 45.692479 83.217218 
L 45.063455 84.037358 
L 44.41772 84.857497 
L 43.768216 85.677636 
L 43.128898 86.497775 
L 42.51362 87.317915 
L 41.935005 88.138054 
L 41.403464 88.958193 
L 40.926486 89.778332 
L 40.508265 90.598471 
L 40.149684 91.418611 
L 39.848613 92.23875 
L 39.600452 93.058889 
L 39.398828 93.879028 
L 39.236341 94.699168 
L 39.105295 95.519307 
L 38.99832 96.339446 
L 38.908869 97.159585 
L 38.83154 97.979724 
L 38.762234 98.799864 
L 38.698164 99.620003 
L 38.637729 100.440142 
L 38.580292 101.260281 
L 38.52592 102.080421 
L 38.475098 102.90056 
L 38.428479 103.720699 
L 38.386673 104.540838 
L 38.350113 105.360977 
L 38.318974 106.181117 
L 38.293163 107.001256 
L 38.272349 107.821395 
z
" clip-path="url(#pcd74773ee9)" style="fill: #b69595; fill-opacity: 0.35"/>
   </g>
   <g id="PolyCollection_2">
    <path d="M 62.815015 123.784601 
L 62.716985 123.784601 
L 62.696705 122.922458 
L 62.671204 122.060315 
L 62.640514 121.198173 
L 62.605262 120.33603 
L 62.566767 119.473888 
L 62.52704 118.611745 
L 62.488663 117.749602 
L 62.454534 116.88746 
L 62.427518 116.025317 
L 62.410051 115.163174 
L 62.403776 114.301032 
L 62.409284 113.438889 
L 62.426006 112.576747 
L 62.452297 111.714604 
L 62.485664 110.852461 
L 62.523108 109.990319 
L 62.56149 109.128176 
L 62.597843 108.266033 
L 62.629593 107.403891 
L 62.654643 106.541748 
L 62.671342 105.679606 
L 62.678365 104.817463 
L 62.67457 103.95532 
L 62.658867 103.093178 
L 62.630139 102.231035 
L 62.587248 101.368892 
L 62.529095 100.50675 
L 62.454731 99.644607 
L 62.363456 98.782465 
L 62.254888 97.920322 
L 62.128948 97.058179 
L 61.985764 96.196037 
L 61.825486 95.333894 
L 61.648056 94.471751 
L 61.452941 93.609609 
L 61.238903 92.747466 
L 61.003812 91.885324 
L 60.744553 91.023181 
L 60.457029 90.161038 
L 60.136291 89.298896 
L 59.776811 88.436753 
L 59.372923 87.57461 
L 58.919447 86.712468 
L 58.412472 85.850325 
L 57.85027 84.988183 
L 57.234222 84.12604 
L 56.569605 83.263897 
L 55.866077 82.401755 
L 55.137679 81.539612 
L 54.402272 80.677469 
L 53.680389 79.815327 
L 52.993642 78.953184 
L 52.362903 78.091042 
L 51.806568 77.228899 
L 51.339198 76.366756 
L 50.97073 75.504614 
L 50.706363 74.642471 
L 50.546995 73.780328 
L 50.49 72.918186 
L 50.53005 72.056043 
L 50.659715 71.1939 
L 50.869707 70.331758 
L 51.148773 69.469615 
L 51.483458 68.607473 
L 51.857996 67.74533 
L 52.254634 66.883187 
L 52.65456 66.021045 
L 53.039425 65.158902 
L 53.393275 64.296759 
L 53.704537 63.434617 
L 53.967667 62.572474 
L 54.18409 61.710332 
L 54.362228 60.848189 
L 54.516515 59.986046 
L 54.665568 59.123904 
L 54.82973 58.261761 
L 55.028389 57.399618 
L 55.277454 56.537476 
L 55.587367 55.675333 
L 55.961945 54.813191 
L 56.398184 53.951048 
L 56.887009 53.088905 
L 57.414772 52.226763 
L 57.965192 51.36462 
L 58.521353 50.502477 
L 59.067451 49.640335 
L 59.590029 48.778192 
L 60.07865 47.91605 
L 60.52602 47.053907 
L 60.927741 46.191764 
L 61.281853 45.329622 
L 61.588332 44.467479 
L 61.848652 43.605336 
L 62.065435 42.743194 
L 62.242181 41.881051 
L 62.383044 41.018909 
L 62.492603 40.156766 
L 62.575632 39.294623 
L 62.636854 38.432481 
L 62.895146 38.432481 
L 62.895146 38.432481 
L 62.956368 39.294623 
L 63.039397 40.156766 
L 63.148956 41.018909 
L 63.289819 41.881051 
L 63.466565 42.743194 
L 63.683348 43.605336 
L 63.943668 44.467479 
L 64.250147 45.329622 
L 64.604259 46.191764 
L 65.00598 47.053907 
L 65.45335 47.91605 
L 65.941971 48.778192 
L 66.464549 49.640335 
L 67.010647 50.502477 
L 67.566808 51.36462 
L 68.117228 52.226763 
L 68.644991 53.088905 
L 69.133816 53.951048 
L 69.570055 54.813191 
L 69.944633 55.675333 
L 70.254546 56.537476 
L 70.503611 57.399618 
L 70.70227 58.261761 
L 70.866432 59.123904 
L 71.015485 59.986046 
L 71.169772 60.848189 
L 71.34791 61.710332 
L 71.564333 62.572474 
L 71.827463 63.434617 
L 72.138725 64.296759 
L 72.492575 65.158902 
L 72.87744 66.021045 
L 73.277366 66.883187 
L 73.674004 67.74533 
L 74.048542 68.607473 
L 74.383227 69.469615 
L 74.662293 70.331758 
L 74.872285 71.1939 
L 75.00195 72.056043 
L 75.042 72.918186 
L 74.985005 73.780328 
L 74.825637 74.642471 
L 74.56127 75.504614 
L 74.192802 76.366756 
L 73.725432 77.228899 
L 73.169097 78.091042 
L 72.538358 78.953184 
L 71.851611 79.815327 
L 71.129728 80.677469 
L 70.394321 81.539612 
L 69.665923 82.401755 
L 68.962395 83.263897 
L 68.297778 84.12604 
L 67.68173 84.988183 
L 67.119528 85.850325 
L 66.612553 86.712468 
L 66.159077 87.57461 
L 65.755189 88.436753 
L 65.395709 89.298896 
L 65.074971 90.161038 
L 64.787447 91.023181 
L 64.528188 91.885324 
L 64.293097 92.747466 
L 64.079059 93.609609 
L 63.883944 94.471751 
L 63.706514 95.333894 
L 63.546236 96.196037 
L 63.403052 97.058179 
L 63.277112 97.920322 
L 63.168544 98.782465 
L 63.077269 99.644607 
L 63.002905 100.50675 
L 62.944752 101.368892 
L 62.901861 102.231035 
L 62.873133 103.093178 
L 62.85743 103.95532 
L 62.853635 104.817463 
L 62.860658 105.679606 
L 62.877357 106.541748 
L 62.902407 107.403891 
L 62.934157 108.266033 
L 62.97051 109.128176 
L 63.008892 109.990319 
L 63.046336 110.852461 
L 63.079703 111.714604 
L 63.105994 112.576747 
L 63.122716 113.438889 
L 63.128224 114.301032 
L 63.121949 115.163174 
L 63.104482 116.025317 
L 63.077466 116.88746 
L 63.043337 117.749602 
L 63.00496 118.611745 
L 62.965233 119.473888 
L 62.926738 120.33603 
L 62.891486 121.198173 
L 62.860796 122.060315 
L 62.835295 122.922458 
L 62.815015 123.784601 
z
" clip-path="url(#pcd74773ee9)" style="fill: #74808c; fill-opacity: 0.35"/>
   </g>
   <g id="PolyCollection_3">
    <path d="M 99.752487 99.547641 
L 99.435513 99.547641 
L 99.372498 98.769988 
L 99.290604 97.992335 
L 99.186477 97.214682 
L 99.056854 96.437029 
L 98.898736 95.659376 
L 98.709543 94.881723 
L 98.487238 94.10407 
L 98.230394 93.326417 
L 97.938203 92.548764 
L 97.610434 91.771111 
L 97.247348 90.993458 
L 96.849619 90.215805 
L 96.418259 89.438152 
L 95.954595 88.6605 
L 95.460301 87.882847 
L 94.937487 87.105194 
L 94.388835 86.327541 
L 93.817759 85.549888 
L 93.228575 84.772235 
L 92.626643 83.994582 
L 92.018465 83.216929 
L 91.411718 82.439276 
L 90.815187 81.661623 
L 90.238586 80.88397 
L 89.692223 80.106317 
L 89.186512 79.328664 
L 88.731314 78.551011 
L 88.335145 77.773358 
L 88.004332 76.995706 
L 87.742206 76.218053 
L 87.548489 75.4404 
L 87.419002 74.662747 
L 87.345832 73.885094 
L 87.318 73.107441 
L 87.322629 72.329788 
L 87.346496 71.552135 
L 87.377761 70.774482 
L 87.407641 69.996829 
L 87.431734 69.219176 
L 87.450783 68.441523 
L 87.470716 67.66387 
L 87.501926 66.886217 
L 87.557874 66.108564 
L 87.653224 65.330911 
L 87.801758 64.553259 
L 88.014401 63.775606 
L 88.297618 62.997953 
L 88.652405 62.2203 
L 89.073996 61.442647 
L 89.552305 60.664994 
L 90.073014 59.887341 
L 90.619135 59.109688 
L 91.172825 58.332035 
L 91.717216 57.554382 
L 92.238011 56.776729 
L 92.724671 55.999076 
L 93.171064 55.221423 
L 93.575529 54.44377 
L 93.940403 53.666117 
L 94.271121 52.888465 
L 94.575058 52.110812 
L 94.860293 51.333159 
L 95.134485 50.555506 
L 95.403977 49.777853 
L 95.673218 49.0002 
L 95.944519 48.222547 
L 96.218093 47.444894 
L 96.492319 46.667241 
L 96.764141 45.889588 
L 97.029532 45.111935 
L 97.283964 44.334282 
L 97.522858 43.556629 
L 97.741997 42.778976 
L 97.937898 42.001323 
L 98.108127 41.22367 
L 98.251545 40.446018 
L 98.368454 39.668365 
L 98.460624 38.890712 
L 98.531179 38.113059 
L 98.584336 37.335406 
L 98.625028 36.557753 
L 98.658445 35.7801 
L 98.689549 35.002447 
L 98.722626 34.224794 
L 98.760934 33.447141 
L 98.806486 32.669488 
L 98.859989 31.891835 
L 98.920937 31.114182 
L 98.987828 30.336529 
L 99.058466 29.558876 
L 99.130307 28.781223 
L 99.200784 28.003571 
L 99.267586 27.225918 
L 99.32886 26.448265 
L 99.383321 25.670612 
L 99.430279 24.892959 
L 99.469594 24.115306 
L 99.501581 23.337653 
L 99.526888 22.56 
L 99.661112 22.56 
L 99.661112 22.56 
L 99.686419 23.337653 
L 99.718406 24.115306 
L 99.757721 24.892959 
L 99.804679 25.670612 
L 99.85914 26.448265 
L 99.920414 27.225918 
L 99.987216 28.003571 
L 100.057693 28.781223 
L 100.129534 29.558876 
L 100.200172 30.336529 
L 100.267063 31.114182 
L 100.328011 31.891835 
L 100.381514 32.669488 
L 100.427066 33.447141 
L 100.465374 34.224794 
L 100.498451 35.002447 
L 100.529555 35.7801 
L 100.562972 36.557753 
L 100.603664 37.335406 
L 100.656821 38.113059 
L 100.727376 38.890712 
L 100.819546 39.668365 
L 100.936455 40.446018 
L 101.079873 41.22367 
L 101.250102 42.001323 
L 101.446003 42.778976 
L 101.665142 43.556629 
L 101.904036 44.334282 
L 102.158468 45.111935 
L 102.423859 45.889588 
L 102.695681 46.667241 
L 102.969907 47.444894 
L 103.243481 48.222547 
L 103.514782 49.0002 
L 103.784023 49.777853 
L 104.053515 50.555506 
L 104.327707 51.333159 
L 104.612942 52.110812 
L 104.916879 52.888465 
L 105.247597 53.666117 
L 105.612471 54.44377 
L 106.016936 55.221423 
L 106.463329 55.999076 
L 106.949989 56.776729 
L 107.470784 57.554382 
L 108.015175 58.332035 
L 108.568865 59.109688 
L 109.114986 59.887341 
L 109.635695 60.664994 
L 110.114004 61.442647 
L 110.535595 62.2203 
L 110.890382 62.997953 
L 111.173599 63.775606 
L 111.386242 64.553259 
L 111.534776 65.330911 
L 111.630126 66.108564 
L 111.686074 66.886217 
L 111.717284 67.66387 
L 111.737217 68.441523 
L 111.756266 69.219176 
L 111.780359 69.996829 
L 111.810239 70.774482 
L 111.841504 71.552135 
L 111.865371 72.329788 
L 111.87 73.107441 
L 111.842168 73.885094 
L 111.768998 74.662747 
L 111.639511 75.4404 
L 111.445794 76.218053 
L 111.183668 76.995706 
L 110.852855 77.773358 
L 110.456686 78.551011 
L 110.001488 79.328664 
L 109.495777 80.106317 
L 108.949414 80.88397 
L 108.372813 81.661623 
L 107.776282 82.439276 
L 107.169535 83.216929 
L 106.561357 83.994582 
L 105.959425 84.772235 
L 105.370241 85.549888 
L 104.799165 86.327541 
L 104.250513 87.105194 
L 103.727699 87.882847 
L 103.233405 88.6605 
L 102.769741 89.438152 
L 102.338381 90.215805 
L 101.940652 90.993458 
L 101.577566 91.771111 
L 101.249797 92.548764 
L 100.957606 93.326417 
L 100.700762 94.10407 
L 100.478457 94.881723 
L 100.289264 95.659376 
L 100.131146 96.437029 
L 100.001523 97.214682 
L 99.897396 97.992335 
L 99.815502 98.769988 
L 99.752487 99.547641 
z
" clip-path="url(#pcd74773ee9)" style="fill: #b69595; fill-opacity: 0.35"/>
   </g>
   <g id="PolyCollection_4">
    <path d="M 124.194491 104.518999 
L 124.097509 104.518999 
L 124.079872 103.85907 
L 124.057435 103.199141 
L 124.029392 102.539212 
L 123.994901 101.879284 
L 123.953066 101.219355 
L 123.902914 100.559426 
L 123.843352 99.899497 
L 123.773123 99.239568 
L 123.690766 98.579639 
L 123.594598 97.91971 
L 123.482733 97.259781 
L 123.353168 96.599852 
L 123.203906 95.939923 
L 123.033151 95.279994 
L 122.839528 94.620065 
L 122.622296 93.960136 
L 122.38154 93.300207 
L 122.118279 92.640278 
L 121.834477 91.980349 
L 121.532949 91.32042 
L 121.217166 90.660491 
L 120.890984 90.000562 
L 120.558349 89.340633 
L 120.223007 88.680704 
L 119.888266 88.020775 
L 119.556819 87.360846 
L 119.230648 86.700917 
L 118.91098 86.040989 
L 118.598283 85.38106 
L 118.292271 84.721131 
L 117.991912 84.061202 
L 117.695425 83.401273 
L 117.400287 82.741344 
L 117.103286 82.081415 
L 116.800645 81.421486 
L 116.488252 80.761557 
L 116.16203 80.101628 
L 115.818432 79.441699 
L 115.455041 78.78177 
L 115.071217 78.121841 
L 114.668722 77.461912 
L 114.252221 76.801983 
L 113.829567 76.142054 
L 113.411799 75.482125 
L 113.012793 74.822196 
L 112.648554 74.162267 
L 112.336179 73.502338 
L 112.092584 72.842409 
L 111.933084 72.18248 
L 111.87 71.522551 
L 111.91142 70.862622 
L 112.060272 70.202694 
L 112.313815 69.542765 
L 112.663625 68.882836 
L 113.096085 68.222907 
L 113.593357 67.562978 
L 114.134726 66.903049 
L 114.698189 66.24312 
L 115.262132 65.583191 
L 115.806906 64.923262 
L 116.316154 64.263333 
L 116.777757 63.603404 
L 117.184328 62.943475 
L 117.533214 62.283546 
L 117.826069 61.623617 
L 118.068067 60.963688 
L 118.266904 60.303759 
L 118.431702 59.64383 
L 118.571995 58.983901 
L 118.696877 58.323972 
L 118.8144 57.664043 
L 118.93126 57.004114 
L 119.052728 56.344185 
L 119.182788 55.684256 
L 119.324395 55.024327 
L 119.47975 54.364399 
L 119.650529 53.70447 
L 119.83801 53.044541 
L 120.043062 52.384612 
L 120.266035 51.724683 
L 120.506566 51.064754 
L 120.763387 50.404825 
L 121.034179 49.744896 
L 121.315535 49.084967 
L 121.603055 48.425038 
L 121.891582 47.765109 
L 122.175546 47.10518 
L 122.449377 46.445251 
L 122.70792 45.785322 
L 122.946813 45.125393 
L 123.16276 44.465464 
L 123.353692 43.805535 
L 123.51879 43.145606 
L 123.658404 42.485677 
L 123.773864 41.825748 
L 123.867246 41.165819 
L 123.941114 40.50589 
L 123.998264 39.845961 
L 124.041513 39.186032 
L 124.250487 39.186032 
L 124.250487 39.186032 
L 124.293736 39.845961 
L 124.350886 40.50589 
L 124.424754 41.165819 
L 124.518136 41.825748 
L 124.633596 42.485677 
L 124.77321 43.145606 
L 124.938308 43.805535 
L 125.12924 44.465464 
L 125.345187 45.125393 
L 125.58408 45.785322 
L 125.842623 46.445251 
L 126.116454 47.10518 
L 126.400418 47.765109 
L 126.688945 48.425038 
L 126.976465 49.084967 
L 127.257821 49.744896 
L 127.528613 50.404825 
L 127.785434 51.064754 
L 128.025965 51.724683 
L 128.248938 52.384612 
L 128.45399 53.044541 
L 128.641471 53.70447 
L 128.81225 54.364399 
L 128.967605 55.024327 
L 129.109212 55.684256 
L 129.239272 56.344185 
L 129.36074 57.004114 
L 129.4776 57.664043 
L 129.595123 58.323972 
L 129.720005 58.983901 
L 129.860298 59.64383 
L 130.025096 60.303759 
L 130.223933 60.963688 
L 130.465931 61.623617 
L 130.758786 62.283546 
L 131.107672 62.943475 
L 131.514243 63.603404 
L 131.975846 64.263333 
L 132.485094 64.923262 
L 133.029868 65.583191 
L 133.593811 66.24312 
L 134.157274 66.903049 
L 134.698643 67.562978 
L 135.195915 68.222907 
L 135.628375 68.882836 
L 135.978185 69.542765 
L 136.231728 70.202694 
L 136.38058 70.862622 
L 136.422 71.522551 
L 136.358916 72.18248 
L 136.199416 72.842409 
L 135.955821 73.502338 
L 135.643446 74.162267 
L 135.279207 74.822196 
L 134.880201 75.482125 
L 134.462433 76.142054 
L 134.039779 76.801983 
L 133.623278 77.461912 
L 133.220783 78.121841 
L 132.836959 78.78177 
L 132.473568 79.441699 
L 132.12997 80.101628 
L 131.803748 80.761557 
L 131.491355 81.421486 
L 131.188714 82.081415 
L 130.891713 82.741344 
L 130.596575 83.401273 
L 130.300088 84.061202 
L 129.999729 84.721131 
L 129.693717 85.38106 
L 129.38102 86.040989 
L 129.061352 86.700917 
L 128.735181 87.360846 
L 128.403734 88.020775 
L 128.068993 88.680704 
L 127.733651 89.340633 
L 127.401016 90.000562 
L 127.074834 90.660491 
L 126.759051 91.32042 
L 126.457523 91.980349 
L 126.173721 92.640278 
L 125.91046 93.300207 
L 125.669704 93.960136 
L 125.452472 94.620065 
L 125.258849 95.279994 
L 125.088094 95.939923 
L 124.938832 96.599852 
L 124.809267 97.259781 
L 124.697402 97.91971 
L 124.601234 98.579639 
L 124.518877 99.239568 
L 124.448648 99.899497 
L 124.389086 100.559426 
L 124.338934 101.219355 
L 124.297099 101.879284 
L 124.262608 102.539212 
L 124.234565 103.199141 
L 124.212128 103.85907 
L 124.194491 104.518999 
z
" clip-path="url(#pcd74773ee9)" style="fill: #74808c; fill-opacity: 0.35"/>
   </g>
   <g id="patch_3">
    <path d="M 25.938 128.16 
L 50.49 128.16 
L 50.49 66.848725 
L 25.938 66.848725 
L 25.938 128.16 
z
" clip-path="url(#pcd74773ee9)" style="fill: none"/>
   </g>
   <g id="patch_4">
    <path d="M 87.318 128.16 
L 111.87 128.16 
L 111.87 67.995839 
L 87.318 67.995839 
L 87.318 128.16 
z
" clip-path="url(#pcd74773ee9)" style="fill: none"/>
   </g>
   <g id="patch_5">
    <path d="M 50.49 128.16 
L 75.042 128.16 
L 75.042 69.832352 
L 50.49 69.832352 
L 50.49 128.16 
z
" clip-path="url(#pcd74773ee9)" style="fill: none"/>
   </g>
   <g id="patch_6">
    <path d="M 111.87 128.16 
L 136.422 128.16 
L 136.422 70.85835 
L 111.87 70.85835 
L 111.87 128.16 
z
" clip-path="url(#pcd74773ee9)" style="fill: none"/>
   </g>
   <g id="patch_7">
    <path d="M 50.49 128.16 
L 50.49 128.16 
L 50.49 128.16 
L 50.49 128.16 
z
" clip-path="url(#pcd74773ee9)" style="fill: #3274a1"/>
   </g>
   <g id="patch_8">
    <path d="M 50.49 128.16 
L 50.49 128.16 
L 50.49 128.16 
L 50.49 128.16 
z
" clip-path="url(#pcd74773ee9)" style="fill: #e1812c"/>
   </g>
   <g id="matplotlib.axis_1">
    <g id="xtick_1">
     <g id="line2d_1">
      <defs>
       <path id="m0eab3ceeec" d="M 0 0 
L 0 3.5 
" style="stroke: #000000; stroke-width: 1.5"/>
      </defs>
      <g>
       <use xlink:href="#m0eab3ceeec" x="50.49" y="128.16" style="stroke: #000000; stroke-width: 1.5"/>
      </g>
     </g>
     <g id="text_1">
      <!-- HC -->
      <g transform="translate(43.268125 142.317813) scale(0.1 -0.1)">
       <defs>
        <path id="Arial-BoldMT-48" d="M 469 0 
L 469 4581 
L 1394 4581 
L 1394 2778 
L 3206 2778 
L 3206 4581 
L 4131 4581 
L 4131 0 
L 3206 0 
L 3206 2003 
L 1394 2003 
L 1394 0 
L 469 0 
z
" transform="scale(0.015625)"/>
        <path id="Arial-BoldMT-43" d="M 3397 1684 
L 4294 1400 
Q 4088 650 3608 286 
Q 3128 -78 2391 -78 
Q 1478 -78 890 545 
Q 303 1169 303 2250 
Q 303 3394 893 4026 
Q 1484 4659 2447 4659 
Q 3288 4659 3813 4163 
Q 4125 3869 4281 3319 
L 3366 3100 
Q 3284 3456 3026 3662 
Q 2769 3869 2400 3869 
Q 1891 3869 1573 3503 
Q 1256 3138 1256 2319 
Q 1256 1450 1568 1081 
Q 1881 713 2381 713 
Q 2750 713 3015 947 
Q 3281 1181 3397 1684 
z
" transform="scale(0.015625)"/>
       </defs>
       <use xlink:href="#Arial-BoldMT-48"/>
       <use xlink:href="#Arial-BoldMT-43" x="72.216797"/>
      </g>
     </g>
    </g>
    <g id="xtick_2">
     <g id="line2d_2">
      <g>
       <use xlink:href="#m0eab3ceeec" x="111.87" y="128.16" style="stroke: #000000; stroke-width: 1.5"/>
      </g>
     </g>
     <g id="text_2">
      <!-- ND -->
      <g transform="translate(104.648125 142.317813) scale(0.1 -0.1)">
       <defs>
        <path id="Arial-BoldMT-4e" d="M 475 0 
L 475 4581 
L 1375 4581 
L 3250 1522 
L 3250 4581 
L 4109 4581 
L 4109 0 
L 3181 0 
L 1334 2988 
L 1334 0 
L 475 0 
z
" transform="scale(0.015625)"/>
        <path id="Arial-BoldMT-44" d="M 463 4581 
L 2153 4581 
Q 2725 4581 3025 4494 
Q 3428 4375 3715 4072 
Q 4003 3769 4153 3330 
Q 4303 2891 4303 2247 
Q 4303 1681 4163 1272 
Q 3991 772 3672 463 
Q 3431 228 3022 97 
Q 2716 0 2203 0 
L 463 0 
L 463 4581 
z
M 1388 3806 
L 1388 772 
L 2078 772 
Q 2466 772 2638 816 
Q 2863 872 3011 1006 
Q 3159 1141 3253 1448 
Q 3347 1756 3347 2288 
Q 3347 2819 3253 3103 
Q 3159 3388 2990 3547 
Q 2822 3706 2563 3763 
Q 2369 3806 1803 3806 
L 1388 3806 
z
" transform="scale(0.015625)"/>
       </defs>
       <use xlink:href="#Arial-BoldMT-4e"/>
       <use xlink:href="#Arial-BoldMT-44" x="72.216797"/>
      </g>
     </g>
    </g>
   </g>
   <g id="matplotlib.axis_2">
    <g id="ytick_1">
     <g id="line2d_3">
      <defs>
       <path id="m797202fbf0" d="M 0 0 
L -3.5 0 
" style="stroke: #000000; stroke-width: 1.5"/>
      </defs>
      <g>
       <use xlink:href="#m797202fbf0" x="19.8" y="128.16" style="stroke: #000000; stroke-width: 1.5"/>
      </g>
     </g>
     <g id="text_3">
      <!-- 0.0 -->
      <g transform="translate(-1.1 131.738906) scale(0.1 -0.1)">
       <defs>
        <path id="Arial-BoldMT-30" d="M 1756 4600 
Q 2422 4600 2797 4125 
Q 3244 3563 3244 2259 
Q 3244 959 2794 391 
Q 2422 -78 1756 -78 
Q 1088 -78 678 436 
Q 269 950 269 2269 
Q 269 3563 719 4131 
Q 1091 4600 1756 4600 
z
M 1756 3872 
Q 1597 3872 1472 3770 
Q 1347 3669 1278 3406 
Q 1188 3066 1188 2259 
Q 1188 1453 1269 1151 
Q 1350 850 1473 750 
Q 1597 650 1756 650 
Q 1916 650 2041 751 
Q 2166 853 2234 1116 
Q 2325 1453 2325 2259 
Q 2325 3066 2244 3367 
Q 2163 3669 2039 3770 
Q 1916 3872 1756 3872 
z
" transform="scale(0.015625)"/>
        <path id="Arial-BoldMT-2e" d="M 459 0 
L 459 878 
L 1338 878 
L 1338 0 
L 459 0 
z
" transform="scale(0.015625)"/>
       </defs>
       <use xlink:href="#Arial-BoldMT-30"/>
       <use xlink:href="#Arial-BoldMT-2e" x="55.615234"/>
       <use xlink:href="#Arial-BoldMT-30" x="83.398438"/>
      </g>
     </g>
    </g>
    <g id="ytick_2">
     <g id="line2d_4">
      <g>
       <use xlink:href="#m797202fbf0" x="19.8" y="97.306584" style="stroke: #000000; stroke-width: 1.5"/>
      </g>
     </g>
     <g id="text_4">
      <!-- 0.2 -->
      <g transform="translate(-1.1 100.88549) scale(0.1 -0.1)">
       <defs>
        <path id="Arial-BoldMT-32" d="M 3238 816 
L 3238 0 
L 159 0 
Q 209 463 459 877 
Q 709 1291 1447 1975 
Q 2041 2528 2175 2725 
Q 2356 2997 2356 3263 
Q 2356 3556 2198 3714 
Q 2041 3872 1763 3872 
Q 1488 3872 1325 3706 
Q 1163 3541 1138 3156 
L 263 3244 
Q 341 3969 753 4284 
Q 1166 4600 1784 4600 
Q 2463 4600 2850 4234 
Q 3238 3869 3238 3325 
Q 3238 3016 3127 2736 
Q 3016 2456 2775 2150 
Q 2616 1947 2200 1565 
Q 1784 1184 1673 1059 
Q 1563 934 1494 816 
L 3238 816 
z
" transform="scale(0.015625)"/>
       </defs>
       <use xlink:href="#Arial-BoldMT-30"/>
       <use xlink:href="#Arial-BoldMT-2e" x="55.615234"/>
       <use xlink:href="#Arial-BoldMT-32" x="83.398438"/>
      </g>
     </g>
    </g>
    <g id="ytick_3">
     <g id="line2d_5">
      <g>
       <use xlink:href="#m797202fbf0" x="19.8" y="66.453168" style="stroke: #000000; stroke-width: 1.5"/>
      </g>
     </g>
     <g id="text_5">
      <!-- 0.4 -->
      <g transform="translate(-1.1 70.032074) scale(0.1 -0.1)">
       <defs>
        <path id="Arial-BoldMT-34" d="M 1994 0 
L 1994 922 
L 119 922 
L 119 1691 
L 2106 4600 
L 2844 4600 
L 2844 1694 
L 3413 1694 
L 3413 922 
L 2844 922 
L 2844 0 
L 1994 0 
z
M 1994 1694 
L 1994 3259 
L 941 1694 
L 1994 1694 
z
" transform="scale(0.015625)"/>
       </defs>
       <use xlink:href="#Arial-BoldMT-30"/>
       <use xlink:href="#Arial-BoldMT-2e" x="55.615234"/>
       <use xlink:href="#Arial-BoldMT-34" x="83.398438"/>
      </g>
     </g>
    </g>
    <g id="ytick_4">
     <g id="line2d_6">
      <g>
       <use xlink:href="#m797202fbf0" x="19.8" y="35.599752" style="stroke: #000000; stroke-width: 1.5"/>
      </g>
     </g>
     <g id="text_6">
      <!-- 0.6 -->
      <g transform="translate(-1.1 39.178658) scale(0.1 -0.1)">
       <defs>
        <path id="Arial-BoldMT-36" d="M 3247 3459 
L 2397 3366 
Q 2366 3628 2234 3753 
Q 2103 3878 1894 3878 
Q 1616 3878 1423 3628 
Q 1231 3378 1181 2588 
Q 1509 2975 1997 2975 
Q 2547 2975 2939 2556 
Q 3331 2138 3331 1475 
Q 3331 772 2918 347 
Q 2506 -78 1859 -78 
Q 1166 -78 719 461 
Q 272 1000 272 2228 
Q 272 3488 737 4044 
Q 1203 4600 1947 4600 
Q 2469 4600 2811 4308 
Q 3153 4016 3247 3459 
z
M 1256 1544 
Q 1256 1116 1453 883 
Q 1650 650 1903 650 
Q 2147 650 2309 840 
Q 2472 1031 2472 1466 
Q 2472 1913 2297 2120 
Q 2122 2328 1859 2328 
Q 1606 2328 1431 2129 
Q 1256 1931 1256 1544 
z
" transform="scale(0.015625)"/>
       </defs>
       <use xlink:href="#Arial-BoldMT-30"/>
       <use xlink:href="#Arial-BoldMT-2e" x="55.615234"/>
       <use xlink:href="#Arial-BoldMT-36" x="83.398438"/>
      </g>
     </g>
    </g>
    <g id="text_7">
     <!-- best choice rate (a.u.) -->
     <g transform="translate(-7.204688 124.119219) rotate(-90) scale(0.1 -0.1)">
      <defs>
       <path id="Arial-BoldMT-62" d="M 422 0 
L 422 4581 
L 1300 4581 
L 1300 2931 
Q 1706 3394 2263 3394 
Q 2869 3394 3266 2955 
Q 3663 2516 3663 1694 
Q 3663 844 3258 384 
Q 2853 -75 2275 -75 
Q 1991 -75 1714 67 
Q 1438 209 1238 488 
L 1238 0 
L 422 0 
z
M 1294 1731 
Q 1294 1216 1456 969 
Q 1684 619 2063 619 
Q 2353 619 2558 867 
Q 2763 1116 2763 1650 
Q 2763 2219 2556 2470 
Q 2350 2722 2028 2722 
Q 1713 2722 1503 2476 
Q 1294 2231 1294 1731 
z
" transform="scale(0.015625)"/>
       <path id="Arial-BoldMT-65" d="M 2381 1056 
L 3256 909 
Q 3088 428 2723 176 
Q 2359 -75 1813 -75 
Q 947 -75 531 491 
Q 203 944 203 1634 
Q 203 2459 634 2926 
Q 1066 3394 1725 3394 
Q 2466 3394 2894 2905 
Q 3322 2416 3303 1406 
L 1103 1406 
Q 1113 1016 1316 798 
Q 1519 581 1822 581 
Q 2028 581 2168 693 
Q 2309 806 2381 1056 
z
M 2431 1944 
Q 2422 2325 2234 2523 
Q 2047 2722 1778 2722 
Q 1491 2722 1303 2513 
Q 1116 2303 1119 1944 
L 2431 1944 
z
" transform="scale(0.015625)"/>
       <path id="Arial-BoldMT-73" d="M 150 947 
L 1031 1081 
Q 1088 825 1259 692 
Q 1431 559 1741 559 
Q 2081 559 2253 684 
Q 2369 772 2369 919 
Q 2369 1019 2306 1084 
Q 2241 1147 2013 1200 
Q 950 1434 666 1628 
Q 272 1897 272 2375 
Q 272 2806 612 3100 
Q 953 3394 1669 3394 
Q 2350 3394 2681 3172 
Q 3013 2950 3138 2516 
L 2309 2363 
Q 2256 2556 2107 2659 
Q 1959 2763 1684 2763 
Q 1338 2763 1188 2666 
Q 1088 2597 1088 2488 
Q 1088 2394 1175 2328 
Q 1294 2241 1995 2081 
Q 2697 1922 2975 1691 
Q 3250 1456 3250 1038 
Q 3250 581 2869 253 
Q 2488 -75 1741 -75 
Q 1063 -75 667 200 
Q 272 475 150 947 
z
" transform="scale(0.015625)"/>
       <path id="Arial-BoldMT-74" d="M 1981 3319 
L 1981 2619 
L 1381 2619 
L 1381 1281 
Q 1381 875 1398 808 
Q 1416 741 1477 697 
Q 1538 653 1625 653 
Q 1747 653 1978 738 
L 2053 56 
Q 1747 -75 1359 -75 
Q 1122 -75 931 4 
Q 741 84 652 211 
Q 563 338 528 553 
Q 500 706 500 1172 
L 500 2619 
L 97 2619 
L 97 3319 
L 500 3319 
L 500 3978 
L 1381 4491 
L 1381 3319 
L 1981 3319 
z
" transform="scale(0.015625)"/>
       <path id="Arial-BoldMT-20" transform="scale(0.015625)"/>
       <path id="Arial-BoldMT-63" d="M 3353 2338 
L 2488 2181 
Q 2444 2441 2289 2572 
Q 2134 2703 1888 2703 
Q 1559 2703 1364 2476 
Q 1169 2250 1169 1719 
Q 1169 1128 1367 884 
Q 1566 641 1900 641 
Q 2150 641 2309 783 
Q 2469 925 2534 1272 
L 3397 1125 
Q 3263 531 2881 228 
Q 2500 -75 1859 -75 
Q 1131 -75 698 384 
Q 266 844 266 1656 
Q 266 2478 700 2936 
Q 1134 3394 1875 3394 
Q 2481 3394 2839 3133 
Q 3197 2872 3353 2338 
z
" transform="scale(0.015625)"/>
       <path id="Arial-BoldMT-68" d="M 1334 4581 
L 1334 2897 
Q 1759 3394 2350 3394 
Q 2653 3394 2897 3281 
Q 3141 3169 3264 2994 
Q 3388 2819 3433 2606 
Q 3478 2394 3478 1947 
L 3478 0 
L 2600 0 
L 2600 1753 
Q 2600 2275 2550 2415 
Q 2500 2556 2373 2639 
Q 2247 2722 2056 2722 
Q 1838 2722 1666 2615 
Q 1494 2509 1414 2295 
Q 1334 2081 1334 1663 
L 1334 0 
L 456 0 
L 456 4581 
L 1334 4581 
z
" transform="scale(0.015625)"/>
       <path id="Arial-BoldMT-6f" d="M 256 1706 
Q 256 2144 472 2553 
Q 688 2963 1083 3178 
Q 1478 3394 1966 3394 
Q 2719 3394 3200 2905 
Q 3681 2416 3681 1669 
Q 3681 916 3195 420 
Q 2709 -75 1972 -75 
Q 1516 -75 1102 131 
Q 688 338 472 736 
Q 256 1134 256 1706 
z
M 1156 1659 
Q 1156 1166 1390 903 
Q 1625 641 1969 641 
Q 2313 641 2545 903 
Q 2778 1166 2778 1666 
Q 2778 2153 2545 2415 
Q 2313 2678 1969 2678 
Q 1625 2678 1390 2415 
Q 1156 2153 1156 1659 
z
" transform="scale(0.015625)"/>
       <path id="Arial-BoldMT-69" d="M 459 3769 
L 459 4581 
L 1338 4581 
L 1338 3769 
L 459 3769 
z
M 459 0 
L 459 3319 
L 1338 3319 
L 1338 0 
L 459 0 
z
" transform="scale(0.015625)"/>
       <path id="Arial-BoldMT-72" d="M 1300 0 
L 422 0 
L 422 3319 
L 1238 3319 
L 1238 2847 
Q 1447 3181 1614 3287 
Q 1781 3394 1994 3394 
Q 2294 3394 2572 3228 
L 2300 2463 
Q 2078 2606 1888 2606 
Q 1703 2606 1575 2504 
Q 1447 2403 1373 2137 
Q 1300 1872 1300 1025 
L 1300 0 
z
" transform="scale(0.015625)"/>
       <path id="Arial-BoldMT-61" d="M 1116 2306 
L 319 2450 
Q 453 2931 781 3162 
Q 1109 3394 1756 3394 
Q 2344 3394 2631 3255 
Q 2919 3116 3036 2902 
Q 3153 2688 3153 2116 
L 3144 1091 
Q 3144 653 3186 445 
Q 3228 238 3344 0 
L 2475 0 
Q 2441 88 2391 259 
Q 2369 338 2359 363 
Q 2134 144 1878 34 
Q 1622 -75 1331 -75 
Q 819 -75 523 203 
Q 228 481 228 906 
Q 228 1188 362 1408 
Q 497 1628 739 1745 
Q 981 1863 1438 1950 
Q 2053 2066 2291 2166 
L 2291 2253 
Q 2291 2506 2166 2614 
Q 2041 2722 1694 2722 
Q 1459 2722 1328 2630 
Q 1197 2538 1116 2306 
z
M 2291 1594 
Q 2122 1538 1756 1459 
Q 1391 1381 1278 1306 
Q 1106 1184 1106 997 
Q 1106 813 1243 678 
Q 1381 544 1594 544 
Q 1831 544 2047 700 
Q 2206 819 2256 991 
Q 2291 1103 2291 1419 
L 2291 1594 
z
" transform="scale(0.015625)"/>
       <path id="Arial-BoldMT-28" d="M 1916 -1347 
L 1313 -1347 
Q 834 -625 584 153 
Q 334 931 334 1659 
Q 334 2563 644 3369 
Q 913 4069 1325 4659 
L 1925 4659 
Q 1497 3713 1336 3048 
Q 1175 2384 1175 1641 
Q 1175 1128 1270 590 
Q 1366 53 1531 -431 
Q 1641 -750 1916 -1347 
z
" transform="scale(0.015625)"/>
       <path id="Arial-BoldMT-75" d="M 2644 0 
L 2644 497 
Q 2463 231 2167 78 
Q 1872 -75 1544 -75 
Q 1209 -75 943 72 
Q 678 219 559 484 
Q 441 750 441 1219 
L 441 3319 
L 1319 3319 
L 1319 1794 
Q 1319 1094 1367 936 
Q 1416 778 1544 686 
Q 1672 594 1869 594 
Q 2094 594 2272 717 
Q 2450 841 2515 1023 
Q 2581 1206 2581 1919 
L 2581 3319 
L 3459 3319 
L 3459 0 
L 2644 0 
z
" transform="scale(0.015625)"/>
       <path id="Arial-BoldMT-29" d="M 216 -1347 
Q 475 -791 581 -494 
Q 688 -197 778 190 
Q 869 578 912 926 
Q 956 1275 956 1641 
Q 956 2384 797 3048 
Q 638 3713 209 4659 
L 806 4659 
Q 1278 3988 1539 3234 
Q 1800 2481 1800 1706 
Q 1800 1053 1594 306 
Q 1359 -531 822 -1347 
L 216 -1347 
z
" transform="scale(0.015625)"/>
      </defs>
      <use xlink:href="#Arial-BoldMT-62"/>
      <use xlink:href="#Arial-BoldMT-65" x="61.083984"/>
      <use xlink:href="#Arial-BoldMT-73" x="116.699219"/>
      <use xlink:href="#Arial-BoldMT-74" x="172.314453"/>
      <use xlink:href="#Arial-BoldMT-20" x="205.615234"/>
      <use xlink:href="#Arial-BoldMT-63" x="233.398438"/>
      <use xlink:href="#Arial-BoldMT-68" x="289.013672"/>
      <use xlink:href="#Arial-BoldMT-6f" x="350.097656"/>
      <use xlink:href="#Arial-BoldMT-69" x="411.181641"/>
      <use xlink:href="#Arial-BoldMT-63" x="438.964844"/>
      <use xlink:href="#Arial-BoldMT-65" x="494.580078"/>
      <use xlink:href="#Arial-BoldMT-20" x="550.195312"/>
      <use xlink:href="#Arial-BoldMT-72" x="577.978516"/>
      <use xlink:href="#Arial-BoldMT-61" x="616.894531"/>
      <use xlink:href="#Arial-BoldMT-74" x="672.509766"/>
      <use xlink:href="#Arial-BoldMT-65" x="705.810547"/>
      <use xlink:href="#Arial-BoldMT-20" x="761.425781"/>
      <use xlink:href="#Arial-BoldMT-28" x="789.208984"/>
      <use xlink:href="#Arial-BoldMT-61" x="822.509766"/>
      <use xlink:href="#Arial-BoldMT-2e" x="878.125"/>
      <use xlink:href="#Arial-BoldMT-75" x="905.908203"/>
      <use xlink:href="#Arial-BoldMT-2e" x="966.992188"/>
      <use xlink:href="#Arial-BoldMT-29" x="994.775391"/>
     </g>
    </g>
   </g>
   <g id="PathCollection_1">
    <defs>
     <path id="C0_0_64de9ecaa7" d="M 0 3.5 
C 0.928211 3.5 1.81853 3.131218 2.474874 2.474874 
C 3.131218 1.81853 3.5 0.928211 3.5 -0 
C 3.5 -0.928211 3.131218 -1.81853 2.474874 -2.474874 
C 1.81853 -3.131218 0.928211 -3.5 0 -3.5 
C -0.928211 -3.5 -1.81853 -3.131218 -2.474874 -2.474874 
C -3.131218 -1.81853 -3.5 -0.928211 -3.5 0 
C -3.5 0.928211 -3.131218 1.81853 -2.474874 2.474874 
C -1.81853 3.131218 -0.928211 3.5 0 3.5 
z
"/>
    </defs>
    <g clip-path="url(#pcd74773ee9)">
     <use xlink:href="#C0_0_64de9ecaa7" x="36.813078" y="71.081181" style="fill: #bc8f8f; fill-opacity: 0.7"/>
    </g>
    <g clip-path="url(#pcd74773ee9)">
     <use xlink:href="#C0_0_64de9ecaa7" x="35.30545" y="41.770435" style="fill: #bc8f8f; fill-opacity: 0.7"/>
    </g>
    <g clip-path="url(#pcd74773ee9)">
     <use xlink:href="#C0_0_64de9ecaa7" x="38.685623" y="61.825156" style="fill: #bc8f8f; fill-opacity: 0.7"/>
    </g>
    <g clip-path="url(#pcd74773ee9)">
     <use xlink:href="#C0_0_64de9ecaa7" x="39.215957" y="51.02646" style="fill: #bc8f8f; fill-opacity: 0.7"/>
    </g>
    <g clip-path="url(#pcd74773ee9)">
     <use xlink:href="#C0_0_64de9ecaa7" x="38.084161" y="77.251864" style="fill: #bc8f8f; fill-opacity: 0.7"/>
    </g>
    <g clip-path="url(#pcd74773ee9)">
     <use xlink:href="#C0_0_64de9ecaa7" x="39.701667" y="55.654473" style="fill: #bc8f8f; fill-opacity: 0.7"/>
    </g>
    <g clip-path="url(#pcd74773ee9)">
     <use xlink:href="#C0_0_64de9ecaa7" x="37.690471" y="67.995839" style="fill: #bc8f8f; fill-opacity: 0.7"/>
    </g>
    <g clip-path="url(#pcd74773ee9)">
     <use xlink:href="#C0_0_64de9ecaa7" x="39.813585" y="58.739814" style="fill: #bc8f8f; fill-opacity: 0.7"/>
    </g>
    <g clip-path="url(#pcd74773ee9)">
     <use xlink:href="#C0_0_64de9ecaa7" x="35.739245" y="38.685094" style="fill: #bc8f8f; fill-opacity: 0.7"/>
    </g>
    <g clip-path="url(#pcd74773ee9)">
     <use xlink:href="#C0_0_64de9ecaa7" x="37.349247" y="71.081181" style="fill: #bc8f8f; fill-opacity: 0.7"/>
    </g>
    <g clip-path="url(#pcd74773ee9)">
     <use xlink:href="#C0_0_64de9ecaa7" x="36.228132" y="66.453168" style="fill: #bc8f8f; fill-opacity: 0.7"/>
    </g>
    <g clip-path="url(#pcd74773ee9)">
     <use xlink:href="#C0_0_64de9ecaa7" x="36.575261" y="71.081181" style="fill: #bc8f8f; fill-opacity: 0.7"/>
    </g>
    <g clip-path="url(#pcd74773ee9)">
     <use xlink:href="#C0_0_64de9ecaa7" x="35.368375" y="55.654473" style="fill: #bc8f8f; fill-opacity: 0.7"/>
    </g>
    <g clip-path="url(#pcd74773ee9)">
     <use xlink:href="#C0_0_64de9ecaa7" x="35.986073" y="64.910497" style="fill: #bc8f8f; fill-opacity: 0.7"/>
    </g>
    <g clip-path="url(#pcd74773ee9)">
     <use xlink:href="#C0_0_64de9ecaa7" x="37.971832" y="52.569131" style="fill: #bc8f8f; fill-opacity: 0.7"/>
    </g>
    <g clip-path="url(#pcd74773ee9)">
     <use xlink:href="#C0_0_64de9ecaa7" x="37.790403" y="77.251864" style="fill: #bc8f8f; fill-opacity: 0.7"/>
    </g>
    <g clip-path="url(#pcd74773ee9)">
     <use xlink:href="#C0_0_64de9ecaa7" x="37.583149" y="37.142423" style="fill: #bc8f8f; fill-opacity: 0.7"/>
    </g>
    <g clip-path="url(#pcd74773ee9)">
     <use xlink:href="#C0_0_64de9ecaa7" x="41.14326" y="41.770435" style="fill: #bc8f8f; fill-opacity: 0.7"/>
    </g>
    <g clip-path="url(#pcd74773ee9)">
     <use xlink:href="#C0_0_64de9ecaa7" x="40.703489" y="51.02646" style="fill: #bc8f8f; fill-opacity: 0.7"/>
    </g>
    <g clip-path="url(#pcd74773ee9)">
     <use xlink:href="#C0_0_64de9ecaa7" x="40.263089" y="63.367827" style="fill: #bc8f8f; fill-opacity: 0.7"/>
    </g>
    <g clip-path="url(#pcd74773ee9)">
     <use xlink:href="#C0_0_64de9ecaa7" x="36.210631" y="64.910497" style="fill: #bc8f8f; fill-opacity: 0.7"/>
    </g>
    <g clip-path="url(#pcd74773ee9)">
     <use xlink:href="#C0_0_64de9ecaa7" x="40.188191" y="75.709193" style="fill: #bc8f8f; fill-opacity: 0.7"/>
    </g>
    <g clip-path="url(#pcd74773ee9)">
     <use xlink:href="#C0_0_64de9ecaa7" x="37.241896" y="57.197143" style="fill: #bc8f8f; fill-opacity: 0.7"/>
    </g>
    <g clip-path="url(#pcd74773ee9)">
     <use xlink:href="#C0_0_64de9ecaa7" x="40.741256" y="61.825156" style="fill: #bc8f8f; fill-opacity: 0.7"/>
    </g>
    <g clip-path="url(#pcd74773ee9)">
     <use xlink:href="#C0_0_64de9ecaa7" x="40.667095" y="55.654473" style="fill: #bc8f8f; fill-opacity: 0.7"/>
    </g>
    <g clip-path="url(#pcd74773ee9)">
     <use xlink:href="#C0_0_64de9ecaa7" x="38.544981" y="51.02646" style="fill: #bc8f8f; fill-opacity: 0.7"/>
    </g>
    <g clip-path="url(#pcd74773ee9)">
     <use xlink:href="#C0_0_64de9ecaa7" x="38.221084" y="51.02646" style="fill: #bc8f8f; fill-opacity: 0.7"/>
    </g>
    <g clip-path="url(#pcd74773ee9)">
     <use xlink:href="#C0_0_64de9ecaa7" x="35.300735" y="78.794534" style="fill: #bc8f8f; fill-opacity: 0.7"/>
    </g>
    <g clip-path="url(#pcd74773ee9)">
     <use xlink:href="#C0_0_64de9ecaa7" x="36.902493" y="55.654473" style="fill: #bc8f8f; fill-opacity: 0.7"/>
    </g>
    <g clip-path="url(#pcd74773ee9)">
     <use xlink:href="#C0_0_64de9ecaa7" x="40.551398" y="69.53851" style="fill: #bc8f8f; fill-opacity: 0.7"/>
    </g>
    <g clip-path="url(#pcd74773ee9)">
     <use xlink:href="#C0_0_64de9ecaa7" x="39.306605" y="97.306584" style="fill: #bc8f8f; fill-opacity: 0.7"/>
    </g>
    <g clip-path="url(#pcd74773ee9)">
     <use xlink:href="#C0_0_64de9ecaa7" x="40.923911" y="71.081181" style="fill: #bc8f8f; fill-opacity: 0.7"/>
    </g>
    <g clip-path="url(#pcd74773ee9)">
     <use xlink:href="#C0_0_64de9ecaa7" x="41.149416" y="80.337205" style="fill: #bc8f8f; fill-opacity: 0.7"/>
    </g>
    <g clip-path="url(#pcd74773ee9)">
     <use xlink:href="#C0_0_64de9ecaa7" x="36.364065" y="83.422547" style="fill: #bc8f8f; fill-opacity: 0.7"/>
    </g>
    <g clip-path="url(#pcd74773ee9)">
     <use xlink:href="#C0_0_64de9ecaa7" x="40.465258" y="81.879876" style="fill: #bc8f8f; fill-opacity: 0.7"/>
    </g>
    <g clip-path="url(#pcd74773ee9)">
     <use xlink:href="#C0_0_64de9ecaa7" x="35.457634" y="81.879876" style="fill: #bc8f8f; fill-opacity: 0.7"/>
    </g>
    <g clip-path="url(#pcd74773ee9)">
     <use xlink:href="#C0_0_64de9ecaa7" x="39.112799" y="83.422547" style="fill: #bc8f8f; fill-opacity: 0.7"/>
    </g>
    <g clip-path="url(#pcd74773ee9)">
     <use xlink:href="#C0_0_64de9ecaa7" x="37.958526" y="66.453168" style="fill: #bc8f8f; fill-opacity: 0.7"/>
    </g>
    <g clip-path="url(#pcd74773ee9)">
     <use xlink:href="#C0_0_64de9ecaa7" x="39.919545" y="81.879876" style="fill: #bc8f8f; fill-opacity: 0.7"/>
    </g>
    <g clip-path="url(#pcd74773ee9)">
     <use xlink:href="#C0_0_64de9ecaa7" x="36.103947" y="75.709193" style="fill: #bc8f8f; fill-opacity: 0.7"/>
    </g>
    <g clip-path="url(#pcd74773ee9)">
     <use xlink:href="#C0_0_64de9ecaa7" x="38.81056" y="55.654473" style="fill: #bc8f8f; fill-opacity: 0.7"/>
    </g>
    <g clip-path="url(#pcd74773ee9)">
     <use xlink:href="#C0_0_64de9ecaa7" x="39.434116" y="61.825156" style="fill: #bc8f8f; fill-opacity: 0.7"/>
    </g>
    <g clip-path="url(#pcd74773ee9)">
     <use xlink:href="#C0_0_64de9ecaa7" x="36.022796" y="51.02646" style="fill: #bc8f8f; fill-opacity: 0.7"/>
    </g>
    <g clip-path="url(#pcd74773ee9)">
     <use xlink:href="#C0_0_64de9ecaa7" x="38.708127" y="84.965218" style="fill: #bc8f8f; fill-opacity: 0.7"/>
    </g>
    <g clip-path="url(#pcd74773ee9)">
     <use xlink:href="#C0_0_64de9ecaa7" x="39.437927" y="64.910497" style="fill: #bc8f8f; fill-opacity: 0.7"/>
    </g>
    <g clip-path="url(#pcd74773ee9)">
     <use xlink:href="#C0_0_64de9ecaa7" x="36.099115" y="75.709193" style="fill: #bc8f8f; fill-opacity: 0.7"/>
    </g>
    <g clip-path="url(#pcd74773ee9)">
     <use xlink:href="#C0_0_64de9ecaa7" x="39.235067" y="78.794534" style="fill: #bc8f8f; fill-opacity: 0.7"/>
    </g>
    <g clip-path="url(#pcd74773ee9)">
     <use xlink:href="#C0_0_64de9ecaa7" x="39.900005" y="71.081181" style="fill: #bc8f8f; fill-opacity: 0.7"/>
    </g>
    <g clip-path="url(#pcd74773ee9)">
     <use xlink:href="#C0_0_64de9ecaa7" x="36.941008" y="74.166522" style="fill: #bc8f8f; fill-opacity: 0.7"/>
    </g>
    <g clip-path="url(#pcd74773ee9)">
     <use xlink:href="#C0_0_64de9ecaa7" x="35.166408" y="75.709193" style="fill: #bc8f8f; fill-opacity: 0.7"/>
    </g>
    <g clip-path="url(#pcd74773ee9)">
     <use xlink:href="#C0_0_64de9ecaa7" x="41.205883" y="83.422547" style="fill: #bc8f8f; fill-opacity: 0.7"/>
    </g>
    <g clip-path="url(#pcd74773ee9)">
     <use xlink:href="#C0_0_64de9ecaa7" x="36.188301" y="67.995839" style="fill: #bc8f8f; fill-opacity: 0.7"/>
    </g>
    <g clip-path="url(#pcd74773ee9)">
     <use xlink:href="#C0_0_64de9ecaa7" x="36.20834" y="74.166522" style="fill: #bc8f8f; fill-opacity: 0.7"/>
    </g>
    <g clip-path="url(#pcd74773ee9)">
     <use xlink:href="#C0_0_64de9ecaa7" x="38.497445" y="71.081181" style="fill: #bc8f8f; fill-opacity: 0.7"/>
    </g>
    <g clip-path="url(#pcd74773ee9)">
     <use xlink:href="#C0_0_64de9ecaa7" x="37.4067" y="66.453168" style="fill: #bc8f8f; fill-opacity: 0.7"/>
    </g>
    <g clip-path="url(#pcd74773ee9)">
     <use xlink:href="#C0_0_64de9ecaa7" x="40.397627" y="61.825156" style="fill: #bc8f8f; fill-opacity: 0.7"/>
    </g>
    <g clip-path="url(#pcd74773ee9)">
     <use xlink:href="#C0_0_64de9ecaa7" x="36.266371" y="55.654473" style="fill: #bc8f8f; fill-opacity: 0.7"/>
    </g>
    <g clip-path="url(#pcd74773ee9)">
     <use xlink:href="#C0_0_64de9ecaa7" x="38.036305" y="71.081181" style="fill: #bc8f8f; fill-opacity: 0.7"/>
    </g>
    <g clip-path="url(#pcd74773ee9)">
     <use xlink:href="#C0_0_64de9ecaa7" x="38.621781" y="78.794534" style="fill: #bc8f8f; fill-opacity: 0.7"/>
    </g>
    <g clip-path="url(#pcd74773ee9)">
     <use xlink:href="#C0_0_64de9ecaa7" x="39.24" y="81.879876" style="fill: #bc8f8f; fill-opacity: 0.7"/>
    </g>
    <g clip-path="url(#pcd74773ee9)">
     <use xlink:href="#C0_0_64de9ecaa7" x="36.7022" y="72.623851" style="fill: #bc8f8f; fill-opacity: 0.7"/>
    </g>
    <g clip-path="url(#pcd74773ee9)">
     <use xlink:href="#C0_0_64de9ecaa7" x="37.123844" y="72.623851" style="fill: #bc8f8f; fill-opacity: 0.7"/>
    </g>
    <g clip-path="url(#pcd74773ee9)">
     <use xlink:href="#C0_0_64de9ecaa7" x="39.905884" y="75.709193" style="fill: #bc8f8f; fill-opacity: 0.7"/>
    </g>
    <g clip-path="url(#pcd74773ee9)">
     <use xlink:href="#C0_0_64de9ecaa7" x="39.101267" y="83.422547" style="fill: #bc8f8f; fill-opacity: 0.7"/>
    </g>
    <g clip-path="url(#pcd74773ee9)">
     <use xlink:href="#C0_0_64de9ecaa7" x="39.764436" y="61.825156" style="fill: #bc8f8f; fill-opacity: 0.7"/>
    </g>
    <g clip-path="url(#pcd74773ee9)">
     <use xlink:href="#C0_0_64de9ecaa7" x="40.750199" y="69.53851" style="fill: #bc8f8f; fill-opacity: 0.7"/>
    </g>
    <g clip-path="url(#pcd74773ee9)">
     <use xlink:href="#C0_0_64de9ecaa7" x="36.89874" y="55.654473" style="fill: #bc8f8f; fill-opacity: 0.7"/>
    </g>
    <g clip-path="url(#pcd74773ee9)">
     <use xlink:href="#C0_0_64de9ecaa7" x="36.816641" y="74.166522" style="fill: #bc8f8f; fill-opacity: 0.7"/>
    </g>
    <g clip-path="url(#pcd74773ee9)">
     <use xlink:href="#C0_0_64de9ecaa7" x="37.593725" y="47.941119" style="fill: #bc8f8f; fill-opacity: 0.7"/>
    </g>
    <g clip-path="url(#pcd74773ee9)">
     <use xlink:href="#C0_0_64de9ecaa7" x="39.849247" y="64.910497" style="fill: #bc8f8f; fill-opacity: 0.7"/>
    </g>
    <g clip-path="url(#pcd74773ee9)">
     <use xlink:href="#C0_0_64de9ecaa7" x="38.482604" y="46.398448" style="fill: #bc8f8f; fill-opacity: 0.7"/>
    </g>
    <g clip-path="url(#pcd74773ee9)">
     <use xlink:href="#C0_0_64de9ecaa7" x="37.051952" y="81.879876" style="fill: #bc8f8f; fill-opacity: 0.7"/>
    </g>
    <g clip-path="url(#pcd74773ee9)">
     <use xlink:href="#C0_0_64de9ecaa7" x="37.952435" y="61.825156" style="fill: #bc8f8f; fill-opacity: 0.7"/>
    </g>
    <g clip-path="url(#pcd74773ee9)">
     <use xlink:href="#C0_0_64de9ecaa7" x="36.888739" y="61.825156" style="fill: #bc8f8f; fill-opacity: 0.7"/>
    </g>
    <g clip-path="url(#pcd74773ee9)">
     <use xlink:href="#C0_0_64de9ecaa7" x="41.149174" y="66.453168" style="fill: #bc8f8f; fill-opacity: 0.7"/>
    </g>
    <g clip-path="url(#pcd74773ee9)">
     <use xlink:href="#C0_0_64de9ecaa7" x="36.488904" y="54.111802" style="fill: #bc8f8f; fill-opacity: 0.7"/>
    </g>
    <g clip-path="url(#pcd74773ee9)">
     <use xlink:href="#C0_0_64de9ecaa7" x="36.922306" y="89.59323" style="fill: #bc8f8f; fill-opacity: 0.7"/>
    </g>
    <g clip-path="url(#pcd74773ee9)">
     <use xlink:href="#C0_0_64de9ecaa7" x="35.909491" y="66.453168" style="fill: #bc8f8f; fill-opacity: 0.7"/>
    </g>
   </g>
   <g id="PathCollection_2">
    <defs>
     <path id="C1_0_a569f14173" d="M 0 3.5 
C 0.928211 3.5 1.81853 3.131218 2.474874 2.474874 
C 3.131218 1.81853 3.5 0.928211 3.5 -0 
C 3.5 -0.928211 3.131218 -1.81853 2.474874 -2.474874 
C 1.81853 -3.131218 0.928211 -3.5 0 -3.5 
C -0.928211 -3.5 -1.81853 -3.131218 -2.474874 -2.474874 
C -3.131218 -1.81853 -3.5 -0.928211 -3.5 0 
C -3.5 0.928211 -3.131218 1.81853 -2.474874 2.474874 
C -1.81853 3.131218 -0.928211 3.5 0 3.5 
z
"/>
    </defs>
    <g clip-path="url(#pcd74773ee9)">
     <use xlink:href="#C1_0_a569f14173" x="64.063772" y="67.995839" style="fill: #708090; fill-opacity: 0.7"/>
    </g>
    <g clip-path="url(#pcd74773ee9)">
     <use xlink:href="#C1_0_a569f14173" x="63.526608" y="69.53851" style="fill: #708090; fill-opacity: 0.7"/>
    </g>
    <g clip-path="url(#pcd74773ee9)">
     <use xlink:href="#C1_0_a569f14173" x="64.860319" y="55.654473" style="fill: #708090; fill-opacity: 0.7"/>
    </g>
    <g clip-path="url(#pcd74773ee9)">
     <use xlink:href="#C1_0_a569f14173" x="60.511884" y="72.623851" style="fill: #708090; fill-opacity: 0.7"/>
    </g>
    <g clip-path="url(#pcd74773ee9)">
     <use xlink:href="#C1_0_a569f14173" x="60.26463" y="83.422547" style="fill: #708090; fill-opacity: 0.7"/>
    </g>
    <g clip-path="url(#pcd74773ee9)">
     <use xlink:href="#C1_0_a569f14173" x="65.046399" y="80.337205" style="fill: #708090; fill-opacity: 0.7"/>
    </g>
    <g clip-path="url(#pcd74773ee9)">
     <use xlink:href="#C1_0_a569f14173" x="64.348744" y="71.081181" style="fill: #708090; fill-opacity: 0.7"/>
    </g>
    <g clip-path="url(#pcd74773ee9)">
     <use xlink:href="#C1_0_a569f14173" x="61.933912" y="77.251864" style="fill: #708090; fill-opacity: 0.7"/>
    </g>
    <g clip-path="url(#pcd74773ee9)">
     <use xlink:href="#C1_0_a569f14173" x="61.189599" y="84.965218" style="fill: #708090; fill-opacity: 0.7"/>
    </g>
    <g clip-path="url(#pcd74773ee9)">
     <use xlink:href="#C1_0_a569f14173" x="61.812925" y="78.794534" style="fill: #708090; fill-opacity: 0.7"/>
    </g>
    <g clip-path="url(#pcd74773ee9)">
     <use xlink:href="#C1_0_a569f14173" x="60.745792" y="78.794534" style="fill: #708090; fill-opacity: 0.7"/>
    </g>
    <g clip-path="url(#pcd74773ee9)">
     <use xlink:href="#C1_0_a569f14173" x="61.823368" y="74.166522" style="fill: #708090; fill-opacity: 0.7"/>
    </g>
    <g clip-path="url(#pcd74773ee9)">
     <use xlink:href="#C1_0_a569f14173" x="64.85163" y="91.135901" style="fill: #708090; fill-opacity: 0.7"/>
    </g>
    <g clip-path="url(#pcd74773ee9)">
     <use xlink:href="#C1_0_a569f14173" x="65.547616" y="66.453168" style="fill: #708090; fill-opacity: 0.7"/>
    </g>
    <g clip-path="url(#pcd74773ee9)">
     <use xlink:href="#C1_0_a569f14173" x="62.535293" y="60.282485" style="fill: #708090; fill-opacity: 0.7"/>
    </g>
    <g clip-path="url(#pcd74773ee9)">
     <use xlink:href="#C1_0_a569f14173" x="59.873766" y="80.337205" style="fill: #708090; fill-opacity: 0.7"/>
    </g>
    <g clip-path="url(#pcd74773ee9)">
     <use xlink:href="#C1_0_a569f14173" x="61.589844" y="74.166522" style="fill: #708090; fill-opacity: 0.7"/>
    </g>
    <g clip-path="url(#pcd74773ee9)">
     <use xlink:href="#C1_0_a569f14173" x="64.793421" y="77.251864" style="fill: #708090; fill-opacity: 0.7"/>
    </g>
    <g clip-path="url(#pcd74773ee9)">
     <use xlink:href="#C1_0_a569f14173" x="60.789363" y="77.251864" style="fill: #708090; fill-opacity: 0.7"/>
    </g>
    <g clip-path="url(#pcd74773ee9)">
     <use xlink:href="#C1_0_a569f14173" x="64.021017" y="58.739814" style="fill: #708090; fill-opacity: 0.7"/>
    </g>
    <g clip-path="url(#pcd74773ee9)">
     <use xlink:href="#C1_0_a569f14173" x="64.16295" y="74.166522" style="fill: #708090; fill-opacity: 0.7"/>
    </g>
    <g clip-path="url(#pcd74773ee9)">
     <use xlink:href="#C1_0_a569f14173" x="61.47371" y="69.53851" style="fill: #708090; fill-opacity: 0.7"/>
    </g>
    <g clip-path="url(#pcd74773ee9)">
     <use xlink:href="#C1_0_a569f14173" x="61.469744" y="67.995839" style="fill: #708090; fill-opacity: 0.7"/>
    </g>
    <g clip-path="url(#pcd74773ee9)">
     <use xlink:href="#C1_0_a569f14173" x="63.876605" y="54.111802" style="fill: #708090; fill-opacity: 0.7"/>
    </g>
    <g clip-path="url(#pcd74773ee9)">
     <use xlink:href="#C1_0_a569f14173" x="64.721619" y="66.453168" style="fill: #708090; fill-opacity: 0.7"/>
    </g>
    <g clip-path="url(#pcd74773ee9)">
     <use xlink:href="#C1_0_a569f14173" x="59.975615" y="88.050559" style="fill: #708090; fill-opacity: 0.7"/>
    </g>
    <g clip-path="url(#pcd74773ee9)">
     <use xlink:href="#C1_0_a569f14173" x="63.49691" y="80.337205" style="fill: #708090; fill-opacity: 0.7"/>
    </g>
    <g clip-path="url(#pcd74773ee9)">
     <use xlink:href="#C1_0_a569f14173" x="64.775469" y="66.453168" style="fill: #708090; fill-opacity: 0.7"/>
    </g>
    <g clip-path="url(#pcd74773ee9)">
     <use xlink:href="#C1_0_a569f14173" x="60.493756" y="47.941119" style="fill: #708090; fill-opacity: 0.7"/>
    </g>
    <g clip-path="url(#pcd74773ee9)">
     <use xlink:href="#C1_0_a569f14173" x="63.614781" y="54.111802" style="fill: #708090; fill-opacity: 0.7"/>
    </g>
    <g clip-path="url(#pcd74773ee9)">
     <use xlink:href="#C1_0_a569f14173" x="64.836971" y="75.709193" style="fill: #708090; fill-opacity: 0.7"/>
    </g>
    <g clip-path="url(#pcd74773ee9)">
     <use xlink:href="#C1_0_a569f14173" x="65.069423" y="88.050559" style="fill: #708090; fill-opacity: 0.7"/>
    </g>
    <g clip-path="url(#pcd74773ee9)">
     <use xlink:href="#C1_0_a569f14173" x="59.89804" y="84.965218" style="fill: #708090; fill-opacity: 0.7"/>
    </g>
    <g clip-path="url(#pcd74773ee9)">
     <use xlink:href="#C1_0_a569f14173" x="61.346214" y="74.166522" style="fill: #708090; fill-opacity: 0.7"/>
    </g>
    <g clip-path="url(#pcd74773ee9)">
     <use xlink:href="#C1_0_a569f14173" x="62.672231" y="72.623851" style="fill: #708090; fill-opacity: 0.7"/>
    </g>
    <g clip-path="url(#pcd74773ee9)">
     <use xlink:href="#C1_0_a569f14173" x="65.302706" y="78.794534" style="fill: #708090; fill-opacity: 0.7"/>
    </g>
    <g clip-path="url(#pcd74773ee9)">
     <use xlink:href="#C1_0_a569f14173" x="59.84402" y="94.221242" style="fill: #708090; fill-opacity: 0.7"/>
    </g>
    <g clip-path="url(#pcd74773ee9)">
     <use xlink:href="#C1_0_a569f14173" x="61.793055" y="74.166522" style="fill: #708090; fill-opacity: 0.7"/>
    </g>
    <g clip-path="url(#pcd74773ee9)">
     <use xlink:href="#C1_0_a569f14173" x="60.750611" y="69.53851" style="fill: #708090; fill-opacity: 0.7"/>
    </g>
    <g clip-path="url(#pcd74773ee9)">
     <use xlink:href="#C1_0_a569f14173" x="64.220972" y="51.02646" style="fill: #708090; fill-opacity: 0.7"/>
    </g>
    <g clip-path="url(#pcd74773ee9)">
     <use xlink:href="#C1_0_a569f14173" x="63.71355" y="61.825156" style="fill: #708090; fill-opacity: 0.7"/>
    </g>
    <g clip-path="url(#pcd74773ee9)">
     <use xlink:href="#C1_0_a569f14173" x="60.468338" y="69.53851" style="fill: #708090; fill-opacity: 0.7"/>
    </g>
    <g clip-path="url(#pcd74773ee9)">
     <use xlink:href="#C1_0_a569f14173" x="65.303598" y="60.282485" style="fill: #708090; fill-opacity: 0.7"/>
    </g>
    <g clip-path="url(#pcd74773ee9)">
     <use xlink:href="#C1_0_a569f14173" x="63.895109" y="57.197143" style="fill: #708090; fill-opacity: 0.7"/>
    </g>
    <g clip-path="url(#pcd74773ee9)">
     <use xlink:href="#C1_0_a569f14173" x="60.657739" y="61.825156" style="fill: #708090; fill-opacity: 0.7"/>
    </g>
    <g clip-path="url(#pcd74773ee9)">
     <use xlink:href="#C1_0_a569f14173" x="64.491512" y="63.367827" style="fill: #708090; fill-opacity: 0.7"/>
    </g>
    <g clip-path="url(#pcd74773ee9)">
     <use xlink:href="#C1_0_a569f14173" x="63.198609" y="75.709193" style="fill: #708090; fill-opacity: 0.7"/>
    </g>
    <g clip-path="url(#pcd74773ee9)">
     <use xlink:href="#C1_0_a569f14173" x="60.72096" y="72.623851" style="fill: #708090; fill-opacity: 0.7"/>
    </g>
    <g clip-path="url(#pcd74773ee9)">
     <use xlink:href="#C1_0_a569f14173" x="65.109163" y="57.197143" style="fill: #708090; fill-opacity: 0.7"/>
    </g>
    <g clip-path="url(#pcd74773ee9)">
     <use xlink:href="#C1_0_a569f14173" x="60.356322" y="61.825156" style="fill: #708090; fill-opacity: 0.7"/>
    </g>
    <g clip-path="url(#pcd74773ee9)">
     <use xlink:href="#C1_0_a569f14173" x="64.770088" y="67.995839" style="fill: #708090; fill-opacity: 0.7"/>
    </g>
    <g clip-path="url(#pcd74773ee9)">
     <use xlink:href="#C1_0_a569f14173" x="60.380956" y="54.111802" style="fill: #708090; fill-opacity: 0.7"/>
    </g>
    <g clip-path="url(#pcd74773ee9)">
     <use xlink:href="#C1_0_a569f14173" x="65.033184" y="75.709193" style="fill: #708090; fill-opacity: 0.7"/>
    </g>
    <g clip-path="url(#pcd74773ee9)">
     <use xlink:href="#C1_0_a569f14173" x="65.430445" y="69.53851" style="fill: #708090; fill-opacity: 0.7"/>
    </g>
    <g clip-path="url(#pcd74773ee9)">
     <use xlink:href="#C1_0_a569f14173" x="64.994453" y="47.941119" style="fill: #708090; fill-opacity: 0.7"/>
    </g>
    <g clip-path="url(#pcd74773ee9)">
     <use xlink:href="#C1_0_a569f14173" x="63.305141" y="55.654473" style="fill: #708090; fill-opacity: 0.7"/>
    </g>
    <g clip-path="url(#pcd74773ee9)">
     <use xlink:href="#C1_0_a569f14173" x="65.572009" y="74.166522" style="fill: #708090; fill-opacity: 0.7"/>
    </g>
    <g clip-path="url(#pcd74773ee9)">
     <use xlink:href="#C1_0_a569f14173" x="59.700317" y="66.453168" style="fill: #708090; fill-opacity: 0.7"/>
    </g>
    <g clip-path="url(#pcd74773ee9)">
     <use xlink:href="#C1_0_a569f14173" x="64.11194" y="58.739814" style="fill: #708090; fill-opacity: 0.7"/>
    </g>
    <g clip-path="url(#pcd74773ee9)">
     <use xlink:href="#C1_0_a569f14173" x="62.692481" y="69.53851" style="fill: #708090; fill-opacity: 0.7"/>
    </g>
    <g clip-path="url(#pcd74773ee9)">
     <use xlink:href="#C1_0_a569f14173" x="64.786605" y="55.654473" style="fill: #708090; fill-opacity: 0.7"/>
    </g>
    <g clip-path="url(#pcd74773ee9)">
     <use xlink:href="#C1_0_a569f14173" x="64.293383" y="64.910497" style="fill: #708090; fill-opacity: 0.7"/>
    </g>
    <g clip-path="url(#pcd74773ee9)">
     <use xlink:href="#C1_0_a569f14173" x="61.337732" y="55.654473" style="fill: #708090; fill-opacity: 0.7"/>
    </g>
    <g clip-path="url(#pcd74773ee9)">
     <use xlink:href="#C1_0_a569f14173" x="62.201561" y="54.111802" style="fill: #708090; fill-opacity: 0.7"/>
    </g>
    <g clip-path="url(#pcd74773ee9)">
     <use xlink:href="#C1_0_a569f14173" x="63.253533" y="64.910497" style="fill: #708090; fill-opacity: 0.7"/>
    </g>
    <g clip-path="url(#pcd74773ee9)">
     <use xlink:href="#C1_0_a569f14173" x="61.549652" y="57.197143" style="fill: #708090; fill-opacity: 0.7"/>
    </g>
    <g clip-path="url(#pcd74773ee9)">
     <use xlink:href="#C1_0_a569f14173" x="60.703294" y="81.879876" style="fill: #708090; fill-opacity: 0.7"/>
    </g>
    <g clip-path="url(#pcd74773ee9)">
     <use xlink:href="#C1_0_a569f14173" x="62.607811" y="114.275963" style="fill: #708090; fill-opacity: 0.7"/>
    </g>
    <g clip-path="url(#pcd74773ee9)">
     <use xlink:href="#C1_0_a569f14173" x="60.863817" y="83.422547" style="fill: #708090; fill-opacity: 0.7"/>
    </g>
    <g clip-path="url(#pcd74773ee9)">
     <use xlink:href="#C1_0_a569f14173" x="63.995285" y="75.709193" style="fill: #708090; fill-opacity: 0.7"/>
    </g>
    <g clip-path="url(#pcd74773ee9)">
     <use xlink:href="#C1_0_a569f14173" x="61.646085" y="61.825156" style="fill: #708090; fill-opacity: 0.7"/>
    </g>
    <g clip-path="url(#pcd74773ee9)">
     <use xlink:href="#C1_0_a569f14173" x="62.90056" y="77.251864" style="fill: #708090; fill-opacity: 0.7"/>
    </g>
    <g clip-path="url(#pcd74773ee9)">
     <use xlink:href="#C1_0_a569f14173" x="65.277004" y="51.02646" style="fill: #708090; fill-opacity: 0.7"/>
    </g>
    <g clip-path="url(#pcd74773ee9)">
     <use xlink:href="#C1_0_a569f14173" x="61.9869" y="74.166522" style="fill: #708090; fill-opacity: 0.7"/>
    </g>
    <g clip-path="url(#pcd74773ee9)">
     <use xlink:href="#C1_0_a569f14173" x="63.226534" y="67.995839" style="fill: #708090; fill-opacity: 0.7"/>
    </g>
    <g clip-path="url(#pcd74773ee9)">
     <use xlink:href="#C1_0_a569f14173" x="61.180082" y="69.53851" style="fill: #708090; fill-opacity: 0.7"/>
    </g>
    <g clip-path="url(#pcd74773ee9)">
     <use xlink:href="#C1_0_a569f14173" x="64.038477" y="78.794534" style="fill: #708090; fill-opacity: 0.7"/>
    </g>
    <g clip-path="url(#pcd74773ee9)">
     <use xlink:href="#C1_0_a569f14173" x="64.208728" y="72.623851" style="fill: #708090; fill-opacity: 0.7"/>
    </g>
    <g clip-path="url(#pcd74773ee9)">
     <use xlink:href="#C1_0_a569f14173" x="60.152011" y="60.282485" style="fill: #708090; fill-opacity: 0.7"/>
    </g>
    <g clip-path="url(#pcd74773ee9)">
     <use xlink:href="#C1_0_a569f14173" x="61.499821" y="55.654473" style="fill: #708090; fill-opacity: 0.7"/>
    </g>
    <g clip-path="url(#pcd74773ee9)">
     <use xlink:href="#C1_0_a569f14173" x="61.194056" y="78.794534" style="fill: #708090; fill-opacity: 0.7"/>
    </g>
    <g clip-path="url(#pcd74773ee9)">
     <use xlink:href="#C1_0_a569f14173" x="59.832154" y="77.251864" style="fill: #708090; fill-opacity: 0.7"/>
    </g>
    <g clip-path="url(#pcd74773ee9)">
     <use xlink:href="#C1_0_a569f14173" x="62.91318" y="71.081181" style="fill: #708090; fill-opacity: 0.7"/>
    </g>
    <g clip-path="url(#pcd74773ee9)">
     <use xlink:href="#C1_0_a569f14173" x="63.505685" y="67.995839" style="fill: #708090; fill-opacity: 0.7"/>
    </g>
   </g>
   <g id="PathCollection_3">
    <defs>
     <path id="C2_0_2ffaca4487" d="M 0 3.5 
C 0.928211 3.5 1.81853 3.131218 2.474874 2.474874 
C 3.131218 1.81853 3.5 0.928211 3.5 -0 
C 3.5 -0.928211 3.131218 -1.81853 2.474874 -2.474874 
C 1.81853 -3.131218 0.928211 -3.5 0 -3.5 
C -0.928211 -3.5 -1.81853 -3.131218 -2.474874 -2.474874 
C -3.131218 -1.81853 -3.5 -0.928211 -3.5 0 
C -3.5 0.928211 -3.131218 1.81853 -2.474874 2.474874 
C -1.81853 3.131218 -0.928211 3.5 0 3.5 
z
"/>
    </defs>
    <g clip-path="url(#pcd74773ee9)">
     <use xlink:href="#C2_0_2ffaca4487" x="99.84474" y="63.367827" style="fill: #bc8f8f; fill-opacity: 0.7"/>
    </g>
    <g clip-path="url(#pcd74773ee9)">
     <use xlink:href="#C2_0_2ffaca4487" x="100.807159" y="52.569131" style="fill: #bc8f8f; fill-opacity: 0.7"/>
    </g>
    <g clip-path="url(#pcd74773ee9)">
     <use xlink:href="#C2_0_2ffaca4487" x="100.188117" y="66.453168" style="fill: #bc8f8f; fill-opacity: 0.7"/>
    </g>
    <g clip-path="url(#pcd74773ee9)">
     <use xlink:href="#C2_0_2ffaca4487" x="98.927487" y="67.995839" style="fill: #bc8f8f; fill-opacity: 0.7"/>
    </g>
    <g clip-path="url(#pcd74773ee9)">
     <use xlink:href="#C2_0_2ffaca4487" x="101.349225" y="66.453168" style="fill: #bc8f8f; fill-opacity: 0.7"/>
    </g>
    <g clip-path="url(#pcd74773ee9)">
     <use xlink:href="#C2_0_2ffaca4487" x="97.297163" y="44.855777" style="fill: #bc8f8f; fill-opacity: 0.7"/>
    </g>
    <g clip-path="url(#pcd74773ee9)">
     <use xlink:href="#C2_0_2ffaca4487" x="99.001852" y="63.367827" style="fill: #bc8f8f; fill-opacity: 0.7"/>
    </g>
    <g clip-path="url(#pcd74773ee9)">
     <use xlink:href="#C2_0_2ffaca4487" x="101.798128" y="51.02646" style="fill: #bc8f8f; fill-opacity: 0.7"/>
    </g>
    <g clip-path="url(#pcd74773ee9)">
     <use xlink:href="#C2_0_2ffaca4487" x="101.480946" y="60.282485" style="fill: #bc8f8f; fill-opacity: 0.7"/>
    </g>
    <g clip-path="url(#pcd74773ee9)">
     <use xlink:href="#C2_0_2ffaca4487" x="102.535588" y="60.282485" style="fill: #bc8f8f; fill-opacity: 0.7"/>
    </g>
    <g clip-path="url(#pcd74773ee9)">
     <use xlink:href="#C2_0_2ffaca4487" x="97.27363" y="51.02646" style="fill: #bc8f8f; fill-opacity: 0.7"/>
    </g>
    <g clip-path="url(#pcd74773ee9)">
     <use xlink:href="#C2_0_2ffaca4487" x="97.123717" y="46.398448" style="fill: #bc8f8f; fill-opacity: 0.7"/>
    </g>
    <g clip-path="url(#pcd74773ee9)">
     <use xlink:href="#C2_0_2ffaca4487" x="101.415197" y="66.453168" style="fill: #bc8f8f; fill-opacity: 0.7"/>
    </g>
    <g clip-path="url(#pcd74773ee9)">
     <use xlink:href="#C2_0_2ffaca4487" x="102.104936" y="75.709193" style="fill: #bc8f8f; fill-opacity: 0.7"/>
    </g>
    <g clip-path="url(#pcd74773ee9)">
     <use xlink:href="#C2_0_2ffaca4487" x="97.934401" y="32.514411" style="fill: #bc8f8f; fill-opacity: 0.7"/>
    </g>
    <g clip-path="url(#pcd74773ee9)">
     <use xlink:href="#C2_0_2ffaca4487" x="97.495461" y="51.02646" style="fill: #bc8f8f; fill-opacity: 0.7"/>
    </g>
    <g clip-path="url(#pcd74773ee9)">
     <use xlink:href="#C2_0_2ffaca4487" x="97.858349" y="64.910497" style="fill: #bc8f8f; fill-opacity: 0.7"/>
    </g>
    <g clip-path="url(#pcd74773ee9)">
     <use xlink:href="#C2_0_2ffaca4487" x="98.097765" y="54.111802" style="fill: #bc8f8f; fill-opacity: 0.7"/>
    </g>
    <g clip-path="url(#pcd74773ee9)">
     <use xlink:href="#C2_0_2ffaca4487" x="101.26344" y="64.910497" style="fill: #bc8f8f; fill-opacity: 0.7"/>
    </g>
    <g clip-path="url(#pcd74773ee9)">
     <use xlink:href="#C2_0_2ffaca4487" x="101.761212" y="60.282485" style="fill: #bc8f8f; fill-opacity: 0.7"/>
    </g>
    <g clip-path="url(#pcd74773ee9)">
     <use xlink:href="#C2_0_2ffaca4487" x="97.778028" y="74.166522" style="fill: #bc8f8f; fill-opacity: 0.7"/>
    </g>
    <g clip-path="url(#pcd74773ee9)">
     <use xlink:href="#C2_0_2ffaca4487" x="101.693048" y="58.739814" style="fill: #bc8f8f; fill-opacity: 0.7"/>
    </g>
    <g clip-path="url(#pcd74773ee9)">
     <use xlink:href="#C2_0_2ffaca4487" x="99.449828" y="63.367827" style="fill: #bc8f8f; fill-opacity: 0.7"/>
    </g>
    <g clip-path="url(#pcd74773ee9)">
     <use xlink:href="#C2_0_2ffaca4487" x="102.116801" y="75.709193" style="fill: #bc8f8f; fill-opacity: 0.7"/>
    </g>
    <g clip-path="url(#pcd74773ee9)">
     <use xlink:href="#C2_0_2ffaca4487" x="101.931646" y="75.709193" style="fill: #bc8f8f; fill-opacity: 0.7"/>
    </g>
    <g clip-path="url(#pcd74773ee9)">
     <use xlink:href="#C2_0_2ffaca4487" x="99.104737" y="71.081181" style="fill: #bc8f8f; fill-opacity: 0.7"/>
    </g>
    <g clip-path="url(#pcd74773ee9)">
     <use xlink:href="#C2_0_2ffaca4487" x="99.395724" y="80.337205" style="fill: #bc8f8f; fill-opacity: 0.7"/>
    </g>
    <g clip-path="url(#pcd74773ee9)">
     <use xlink:href="#C2_0_2ffaca4487" x="99.628524" y="74.166522" style="fill: #bc8f8f; fill-opacity: 0.7"/>
    </g>
    <g clip-path="url(#pcd74773ee9)">
     <use xlink:href="#C2_0_2ffaca4487" x="98.553241" y="77.251864" style="fill: #bc8f8f; fill-opacity: 0.7"/>
    </g>
    <g clip-path="url(#pcd74773ee9)">
     <use xlink:href="#C2_0_2ffaca4487" x="100.721197" y="77.251864" style="fill: #bc8f8f; fill-opacity: 0.7"/>
    </g>
    <g clip-path="url(#pcd74773ee9)">
     <use xlink:href="#C2_0_2ffaca4487" x="99.83016" y="81.879876" style="fill: #bc8f8f; fill-opacity: 0.7"/>
    </g>
    <g clip-path="url(#pcd74773ee9)">
     <use xlink:href="#C2_0_2ffaca4487" x="101.676021" y="66.453168" style="fill: #bc8f8f; fill-opacity: 0.7"/>
    </g>
    <g clip-path="url(#pcd74773ee9)">
     <use xlink:href="#C2_0_2ffaca4487" x="98.022239" y="63.367827" style="fill: #bc8f8f; fill-opacity: 0.7"/>
    </g>
    <g clip-path="url(#pcd74773ee9)">
     <use xlink:href="#C2_0_2ffaca4487" x="101.260316" y="77.251864" style="fill: #bc8f8f; fill-opacity: 0.7"/>
    </g>
    <g clip-path="url(#pcd74773ee9)">
     <use xlink:href="#C2_0_2ffaca4487" x="100.515387" y="63.367827" style="fill: #bc8f8f; fill-opacity: 0.7"/>
    </g>
    <g clip-path="url(#pcd74773ee9)">
     <use xlink:href="#C2_0_2ffaca4487" x="97.380685" y="80.337205" style="fill: #bc8f8f; fill-opacity: 0.7"/>
    </g>
    <g clip-path="url(#pcd74773ee9)">
     <use xlink:href="#C2_0_2ffaca4487" x="99.341949" y="84.965218" style="fill: #bc8f8f; fill-opacity: 0.7"/>
    </g>
    <g clip-path="url(#pcd74773ee9)">
     <use xlink:href="#C2_0_2ffaca4487" x="101.573979" y="83.422547" style="fill: #bc8f8f; fill-opacity: 0.7"/>
    </g>
    <g clip-path="url(#pcd74773ee9)">
     <use xlink:href="#C2_0_2ffaca4487" x="97.992683" y="64.910497" style="fill: #bc8f8f; fill-opacity: 0.7"/>
    </g>
    <g clip-path="url(#pcd74773ee9)">
     <use xlink:href="#C2_0_2ffaca4487" x="101.348383" y="64.910497" style="fill: #bc8f8f; fill-opacity: 0.7"/>
    </g>
    <g clip-path="url(#pcd74773ee9)">
     <use xlink:href="#C2_0_2ffaca4487" x="101.160794" y="75.709193" style="fill: #bc8f8f; fill-opacity: 0.7"/>
    </g>
    <g clip-path="url(#pcd74773ee9)">
     <use xlink:href="#C2_0_2ffaca4487" x="99.775741" y="75.709193" style="fill: #bc8f8f; fill-opacity: 0.7"/>
    </g>
    <g clip-path="url(#pcd74773ee9)">
     <use xlink:href="#C2_0_2ffaca4487" x="97.830485" y="74.166522" style="fill: #bc8f8f; fill-opacity: 0.7"/>
    </g>
    <g clip-path="url(#pcd74773ee9)">
     <use xlink:href="#C2_0_2ffaca4487" x="100.579267" y="81.879876" style="fill: #bc8f8f; fill-opacity: 0.7"/>
    </g>
    <g clip-path="url(#pcd74773ee9)">
     <use xlink:href="#C2_0_2ffaca4487" x="100.963897" y="81.879876" style="fill: #bc8f8f; fill-opacity: 0.7"/>
    </g>
    <g clip-path="url(#pcd74773ee9)">
     <use xlink:href="#C2_0_2ffaca4487" x="102.597896" y="84.965218" style="fill: #bc8f8f; fill-opacity: 0.7"/>
    </g>
    <g clip-path="url(#pcd74773ee9)">
     <use xlink:href="#C2_0_2ffaca4487" x="102.134696" y="78.794534" style="fill: #bc8f8f; fill-opacity: 0.7"/>
    </g>
    <g clip-path="url(#pcd74773ee9)">
     <use xlink:href="#C2_0_2ffaca4487" x="100.402699" y="61.825156" style="fill: #bc8f8f; fill-opacity: 0.7"/>
    </g>
    <g clip-path="url(#pcd74773ee9)">
     <use xlink:href="#C2_0_2ffaca4487" x="99.833731" y="71.081181" style="fill: #bc8f8f; fill-opacity: 0.7"/>
    </g>
    <g clip-path="url(#pcd74773ee9)">
     <use xlink:href="#C2_0_2ffaca4487" x="99.104603" y="71.081181" style="fill: #bc8f8f; fill-opacity: 0.7"/>
    </g>
    <g clip-path="url(#pcd74773ee9)">
     <use xlink:href="#C2_0_2ffaca4487" x="102.375032" y="72.623851" style="fill: #bc8f8f; fill-opacity: 0.7"/>
    </g>
    <g clip-path="url(#pcd74773ee9)">
     <use xlink:href="#C2_0_2ffaca4487" x="99.537807" y="89.59323" style="fill: #bc8f8f; fill-opacity: 0.7"/>
    </g>
    <g clip-path="url(#pcd74773ee9)">
     <use xlink:href="#C2_0_2ffaca4487" x="97.828334" y="67.995839" style="fill: #bc8f8f; fill-opacity: 0.7"/>
    </g>
    <g clip-path="url(#pcd74773ee9)">
     <use xlink:href="#C2_0_2ffaca4487" x="97.308535" y="61.825156" style="fill: #bc8f8f; fill-opacity: 0.7"/>
    </g>
    <g clip-path="url(#pcd74773ee9)">
     <use xlink:href="#C2_0_2ffaca4487" x="102.231308" y="75.709193" style="fill: #bc8f8f; fill-opacity: 0.7"/>
    </g>
    <g clip-path="url(#pcd74773ee9)">
     <use xlink:href="#C2_0_2ffaca4487" x="98.113762" y="72.623851" style="fill: #bc8f8f; fill-opacity: 0.7"/>
    </g>
    <g clip-path="url(#pcd74773ee9)">
     <use xlink:href="#C2_0_2ffaca4487" x="99.547268" y="51.02646" style="fill: #bc8f8f; fill-opacity: 0.7"/>
    </g>
    <g clip-path="url(#pcd74773ee9)">
     <use xlink:href="#C2_0_2ffaca4487" x="98.019058" y="67.995839" style="fill: #bc8f8f; fill-opacity: 0.7"/>
    </g>
    <g clip-path="url(#pcd74773ee9)">
     <use xlink:href="#C2_0_2ffaca4487" x="98.268089" y="84.965218" style="fill: #bc8f8f; fill-opacity: 0.7"/>
    </g>
    <g clip-path="url(#pcd74773ee9)">
     <use xlink:href="#C2_0_2ffaca4487" x="98.244061" y="74.166522" style="fill: #bc8f8f; fill-opacity: 0.7"/>
    </g>
    <g clip-path="url(#pcd74773ee9)">
     <use xlink:href="#C2_0_2ffaca4487" x="98.030214" y="60.282485" style="fill: #bc8f8f; fill-opacity: 0.7"/>
    </g>
    <g clip-path="url(#pcd74773ee9)">
     <use xlink:href="#C2_0_2ffaca4487" x="101.987898" y="80.337205" style="fill: #bc8f8f; fill-opacity: 0.7"/>
    </g>
    <g clip-path="url(#pcd74773ee9)">
     <use xlink:href="#C2_0_2ffaca4487" x="98.156055" y="89.59323" style="fill: #bc8f8f; fill-opacity: 0.7"/>
    </g>
    <g clip-path="url(#pcd74773ee9)">
     <use xlink:href="#C2_0_2ffaca4487" x="96.874466" y="75.709193" style="fill: #bc8f8f; fill-opacity: 0.7"/>
    </g>
    <g clip-path="url(#pcd74773ee9)">
     <use xlink:href="#C2_0_2ffaca4487" x="98.20659" y="71.081181" style="fill: #bc8f8f; fill-opacity: 0.7"/>
    </g>
    <g clip-path="url(#pcd74773ee9)">
     <use xlink:href="#C2_0_2ffaca4487" x="98.843985" y="58.739814" style="fill: #bc8f8f; fill-opacity: 0.7"/>
    </g>
    <g clip-path="url(#pcd74773ee9)">
     <use xlink:href="#C2_0_2ffaca4487" x="102.086765" y="35.599752" style="fill: #bc8f8f; fill-opacity: 0.7"/>
    </g>
    <g clip-path="url(#pcd74773ee9)">
     <use xlink:href="#C2_0_2ffaca4487" x="101.0391" y="44.855777" style="fill: #bc8f8f; fill-opacity: 0.7"/>
    </g>
    <g clip-path="url(#pcd74773ee9)">
     <use xlink:href="#C2_0_2ffaca4487" x="100.48192" y="81.879876" style="fill: #bc8f8f; fill-opacity: 0.7"/>
    </g>
    <g clip-path="url(#pcd74773ee9)">
     <use xlink:href="#C2_0_2ffaca4487" x="101.482609" y="72.623851" style="fill: #bc8f8f; fill-opacity: 0.7"/>
    </g>
    <g clip-path="url(#pcd74773ee9)">
     <use xlink:href="#C2_0_2ffaca4487" x="96.820926" y="64.910497" style="fill: #bc8f8f; fill-opacity: 0.7"/>
    </g>
    <g clip-path="url(#pcd74773ee9)">
     <use xlink:href="#C2_0_2ffaca4487" x="102.427447" y="63.367827" style="fill: #bc8f8f; fill-opacity: 0.7"/>
    </g>
    <g clip-path="url(#pcd74773ee9)">
     <use xlink:href="#C2_0_2ffaca4487" x="100.21044" y="71.081181" style="fill: #bc8f8f; fill-opacity: 0.7"/>
    </g>
    <g clip-path="url(#pcd74773ee9)">
     <use xlink:href="#C2_0_2ffaca4487" x="101.872702" y="78.794534" style="fill: #bc8f8f; fill-opacity: 0.7"/>
    </g>
    <g clip-path="url(#pcd74773ee9)">
     <use xlink:href="#C2_0_2ffaca4487" x="99.591243" y="58.739814" style="fill: #bc8f8f; fill-opacity: 0.7"/>
    </g>
    <g clip-path="url(#pcd74773ee9)">
     <use xlink:href="#C2_0_2ffaca4487" x="99.107136" y="58.739814" style="fill: #bc8f8f; fill-opacity: 0.7"/>
    </g>
    <g clip-path="url(#pcd74773ee9)">
     <use xlink:href="#C2_0_2ffaca4487" x="99.918398" y="55.654473" style="fill: #bc8f8f; fill-opacity: 0.7"/>
    </g>
    <g clip-path="url(#pcd74773ee9)">
     <use xlink:href="#C2_0_2ffaca4487" x="100.384949" y="78.794534" style="fill: #bc8f8f; fill-opacity: 0.7"/>
    </g>
    <g clip-path="url(#pcd74773ee9)">
     <use xlink:href="#C2_0_2ffaca4487" x="101.454493" y="51.02646" style="fill: #bc8f8f; fill-opacity: 0.7"/>
    </g>
    <g clip-path="url(#pcd74773ee9)">
     <use xlink:href="#C2_0_2ffaca4487" x="99.199133" y="88.050559" style="fill: #bc8f8f; fill-opacity: 0.7"/>
    </g>
    <g clip-path="url(#pcd74773ee9)">
     <use xlink:href="#C2_0_2ffaca4487" x="97.597384" y="72.623851" style="fill: #bc8f8f; fill-opacity: 0.7"/>
    </g>
    <g clip-path="url(#pcd74773ee9)">
     <use xlink:href="#C2_0_2ffaca4487" x="97.072967" y="64.910497" style="fill: #bc8f8f; fill-opacity: 0.7"/>
    </g>
   </g>
   <g id="PathCollection_4">
    <defs>
     <path id="C3_0_a5c329483e" d="M 0 3.5 
C 0.928211 3.5 1.81853 3.131218 2.474874 2.474874 
C 3.131218 1.81853 3.5 0.928211 3.5 -0 
C 3.5 -0.928211 3.131218 -1.81853 2.474874 -2.474874 
C 1.81853 -3.131218 0.928211 -3.5 0 -3.5 
C -0.928211 -3.5 -1.81853 -3.131218 -2.474874 -2.474874 
C -3.131218 -1.81853 -3.5 -0.928211 -3.5 0 
C -3.5 0.928211 -3.131218 1.81853 -2.474874 2.474874 
C -1.81853 3.131218 -0.928211 3.5 0 3.5 
z
"/>
    </defs>
    <g clip-path="url(#pcd74773ee9)">
     <use xlink:href="#C3_0_a5c329483e" x="121.23086" y="75.709193" style="fill: #708090; fill-opacity: 0.7"/>
    </g>
    <g clip-path="url(#pcd74773ee9)">
     <use xlink:href="#C3_0_a5c329483e" x="124.244154" y="72.623851" style="fill: #708090; fill-opacity: 0.7"/>
    </g>
    <g clip-path="url(#pcd74773ee9)">
     <use xlink:href="#C3_0_a5c329483e" x="126.176806" y="67.995839" style="fill: #708090; fill-opacity: 0.7"/>
    </g>
    <g clip-path="url(#pcd74773ee9)">
     <use xlink:href="#C3_0_a5c329483e" x="124.704582" y="66.453168" style="fill: #708090; fill-opacity: 0.7"/>
    </g>
    <g clip-path="url(#pcd74773ee9)">
     <use xlink:href="#C3_0_a5c329483e" x="126.933575" y="69.53851" style="fill: #708090; fill-opacity: 0.7"/>
    </g>
    <g clip-path="url(#pcd74773ee9)">
     <use xlink:href="#C3_0_a5c329483e" x="122.17577" y="84.965218" style="fill: #708090; fill-opacity: 0.7"/>
    </g>
    <g clip-path="url(#pcd74773ee9)">
     <use xlink:href="#C3_0_a5c329483e" x="125.010979" y="69.53851" style="fill: #708090; fill-opacity: 0.7"/>
    </g>
    <g clip-path="url(#pcd74773ee9)">
     <use xlink:href="#C3_0_a5c329483e" x="122.896085" y="51.02646" style="fill: #708090; fill-opacity: 0.7"/>
    </g>
    <g clip-path="url(#pcd74773ee9)">
     <use xlink:href="#C3_0_a5c329483e" x="124.148611" y="72.623851" style="fill: #708090; fill-opacity: 0.7"/>
    </g>
    <g clip-path="url(#pcd74773ee9)">
     <use xlink:href="#C3_0_a5c329483e" x="121.973033" y="63.367827" style="fill: #708090; fill-opacity: 0.7"/>
    </g>
    <g clip-path="url(#pcd74773ee9)">
     <use xlink:href="#C3_0_a5c329483e" x="121.482789" y="69.53851" style="fill: #708090; fill-opacity: 0.7"/>
    </g>
    <g clip-path="url(#pcd74773ee9)">
     <use xlink:href="#C3_0_a5c329483e" x="122.576518" y="72.623851" style="fill: #708090; fill-opacity: 0.7"/>
    </g>
    <g clip-path="url(#pcd74773ee9)">
     <use xlink:href="#C3_0_a5c329483e" x="125.595866" y="69.53851" style="fill: #708090; fill-opacity: 0.7"/>
    </g>
    <g clip-path="url(#pcd74773ee9)">
     <use xlink:href="#C3_0_a5c329483e" x="126.814138" y="57.197143" style="fill: #708090; fill-opacity: 0.7"/>
    </g>
    <g clip-path="url(#pcd74773ee9)">
     <use xlink:href="#C3_0_a5c329483e" x="124.53292" y="69.53851" style="fill: #708090; fill-opacity: 0.7"/>
    </g>
    <g clip-path="url(#pcd74773ee9)">
     <use xlink:href="#C3_0_a5c329483e" x="122.291501" y="95.763913" style="fill: #708090; fill-opacity: 0.7"/>
    </g>
    <g clip-path="url(#pcd74773ee9)">
     <use xlink:href="#C3_0_a5c329483e" x="124.470251" y="75.709193" style="fill: #708090; fill-opacity: 0.7"/>
    </g>
    <g clip-path="url(#pcd74773ee9)">
     <use xlink:href="#C3_0_a5c329483e" x="121.20552" y="72.623851" style="fill: #708090; fill-opacity: 0.7"/>
    </g>
    <g clip-path="url(#pcd74773ee9)">
     <use xlink:href="#C3_0_a5c329483e" x="127.181457" y="78.794534" style="fill: #708090; fill-opacity: 0.7"/>
    </g>
    <g clip-path="url(#pcd74773ee9)">
     <use xlink:href="#C3_0_a5c329483e" x="121.567627" y="88.050559" style="fill: #708090; fill-opacity: 0.7"/>
    </g>
    <g clip-path="url(#pcd74773ee9)">
     <use xlink:href="#C3_0_a5c329483e" x="126.243267" y="72.623851" style="fill: #708090; fill-opacity: 0.7"/>
    </g>
    <g clip-path="url(#pcd74773ee9)">
     <use xlink:href="#C3_0_a5c329483e" x="122.740483" y="78.794534" style="fill: #708090; fill-opacity: 0.7"/>
    </g>
    <g clip-path="url(#pcd74773ee9)">
     <use xlink:href="#C3_0_a5c329483e" x="122.610186" y="74.166522" style="fill: #708090; fill-opacity: 0.7"/>
    </g>
    <g clip-path="url(#pcd74773ee9)">
     <use xlink:href="#C3_0_a5c329483e" x="126.465941" y="72.623851" style="fill: #708090; fill-opacity: 0.7"/>
    </g>
    <g clip-path="url(#pcd74773ee9)">
     <use xlink:href="#C3_0_a5c329483e" x="127.019338" y="83.422547" style="fill: #708090; fill-opacity: 0.7"/>
    </g>
    <g clip-path="url(#pcd74773ee9)">
     <use xlink:href="#C3_0_a5c329483e" x="121.636108" y="88.050559" style="fill: #708090; fill-opacity: 0.7"/>
    </g>
    <g clip-path="url(#pcd74773ee9)">
     <use xlink:href="#C3_0_a5c329483e" x="122.079734" y="80.337205" style="fill: #708090; fill-opacity: 0.7"/>
    </g>
    <g clip-path="url(#pcd74773ee9)">
     <use xlink:href="#C3_0_a5c329483e" x="122.822904" y="83.422547" style="fill: #708090; fill-opacity: 0.7"/>
    </g>
    <g clip-path="url(#pcd74773ee9)">
     <use xlink:href="#C3_0_a5c329483e" x="121.124312" y="80.337205" style="fill: #708090; fill-opacity: 0.7"/>
    </g>
    <g clip-path="url(#pcd74773ee9)">
     <use xlink:href="#C3_0_a5c329483e" x="122.57794" y="71.081181" style="fill: #708090; fill-opacity: 0.7"/>
    </g>
    <g clip-path="url(#pcd74773ee9)">
     <use xlink:href="#C3_0_a5c329483e" x="126.606451" y="55.654473" style="fill: #708090; fill-opacity: 0.7"/>
    </g>
    <g clip-path="url(#pcd74773ee9)">
     <use xlink:href="#C3_0_a5c329483e" x="124.196472" y="84.965218" style="fill: #708090; fill-opacity: 0.7"/>
    </g>
    <g clip-path="url(#pcd74773ee9)">
     <use xlink:href="#C3_0_a5c329483e" x="126.818243" y="71.081181" style="fill: #708090; fill-opacity: 0.7"/>
    </g>
    <g clip-path="url(#pcd74773ee9)">
     <use xlink:href="#C3_0_a5c329483e" x="126.610803" y="74.166522" style="fill: #708090; fill-opacity: 0.7"/>
    </g>
    <g clip-path="url(#pcd74773ee9)">
     <use xlink:href="#C3_0_a5c329483e" x="122.078355" y="77.251864" style="fill: #708090; fill-opacity: 0.7"/>
    </g>
    <g clip-path="url(#pcd74773ee9)">
     <use xlink:href="#C3_0_a5c329483e" x="123.642469" y="61.825156" style="fill: #708090; fill-opacity: 0.7"/>
    </g>
    <g clip-path="url(#pcd74773ee9)">
     <use xlink:href="#C3_0_a5c329483e" x="121.235721" y="81.879876" style="fill: #708090; fill-opacity: 0.7"/>
    </g>
    <g clip-path="url(#pcd74773ee9)">
     <use xlink:href="#C3_0_a5c329483e" x="122.275352" y="71.081181" style="fill: #708090; fill-opacity: 0.7"/>
    </g>
    <g clip-path="url(#pcd74773ee9)">
     <use xlink:href="#C3_0_a5c329483e" x="125.144241" y="64.910497" style="fill: #708090; fill-opacity: 0.7"/>
    </g>
    <g clip-path="url(#pcd74773ee9)">
     <use xlink:href="#C3_0_a5c329483e" x="125.665719" y="60.282485" style="fill: #708090; fill-opacity: 0.7"/>
    </g>
    <g clip-path="url(#pcd74773ee9)">
     <use xlink:href="#C3_0_a5c329483e" x="122.586798" y="77.251864" style="fill: #708090; fill-opacity: 0.7"/>
    </g>
    <g clip-path="url(#pcd74773ee9)">
     <use xlink:href="#C3_0_a5c329483e" x="126.353796" y="64.910497" style="fill: #708090; fill-opacity: 0.7"/>
    </g>
    <g clip-path="url(#pcd74773ee9)">
     <use xlink:href="#C3_0_a5c329483e" x="127.148502" y="66.453168" style="fill: #708090; fill-opacity: 0.7"/>
    </g>
    <g clip-path="url(#pcd74773ee9)">
     <use xlink:href="#C3_0_a5c329483e" x="127.027665" y="88.050559" style="fill: #708090; fill-opacity: 0.7"/>
    </g>
    <g clip-path="url(#pcd74773ee9)">
     <use xlink:href="#C3_0_a5c329483e" x="126.655775" y="54.111802" style="fill: #708090; fill-opacity: 0.7"/>
    </g>
    <g clip-path="url(#pcd74773ee9)">
     <use xlink:href="#C3_0_a5c329483e" x="125.095804" y="51.02646" style="fill: #708090; fill-opacity: 0.7"/>
    </g>
    <g clip-path="url(#pcd74773ee9)">
     <use xlink:href="#C3_0_a5c329483e" x="124.497192" y="47.941119" style="fill: #708090; fill-opacity: 0.7"/>
    </g>
    <g clip-path="url(#pcd74773ee9)">
     <use xlink:href="#C3_0_a5c329483e" x="124.190943" y="67.995839" style="fill: #708090; fill-opacity: 0.7"/>
    </g>
    <g clip-path="url(#pcd74773ee9)">
     <use xlink:href="#C3_0_a5c329483e" x="121.126261" y="72.623851" style="fill: #708090; fill-opacity: 0.7"/>
    </g>
    <g clip-path="url(#pcd74773ee9)">
     <use xlink:href="#C3_0_a5c329483e" x="126.515965" y="57.197143" style="fill: #708090; fill-opacity: 0.7"/>
    </g>
    <g clip-path="url(#pcd74773ee9)">
     <use xlink:href="#C3_0_a5c329483e" x="126.135746" y="89.59323" style="fill: #708090; fill-opacity: 0.7"/>
    </g>
    <g clip-path="url(#pcd74773ee9)">
     <use xlink:href="#C3_0_a5c329483e" x="121.536483" y="77.251864" style="fill: #708090; fill-opacity: 0.7"/>
    </g>
    <g clip-path="url(#pcd74773ee9)">
     <use xlink:href="#C3_0_a5c329483e" x="127.130193" y="67.995839" style="fill: #708090; fill-opacity: 0.7"/>
    </g>
    <g clip-path="url(#pcd74773ee9)">
     <use xlink:href="#C3_0_a5c329483e" x="123.372946" y="81.879876" style="fill: #708090; fill-opacity: 0.7"/>
    </g>
    <g clip-path="url(#pcd74773ee9)">
     <use xlink:href="#C3_0_a5c329483e" x="123.883056" y="51.02646" style="fill: #708090; fill-opacity: 0.7"/>
    </g>
    <g clip-path="url(#pcd74773ee9)">
     <use xlink:href="#C3_0_a5c329483e" x="122.852698" y="51.02646" style="fill: #708090; fill-opacity: 0.7"/>
    </g>
    <g clip-path="url(#pcd74773ee9)">
     <use xlink:href="#C3_0_a5c329483e" x="124.396596" y="60.282485" style="fill: #708090; fill-opacity: 0.7"/>
    </g>
    <g clip-path="url(#pcd74773ee9)">
     <use xlink:href="#C3_0_a5c329483e" x="121.472461" y="71.081181" style="fill: #708090; fill-opacity: 0.7"/>
    </g>
    <g clip-path="url(#pcd74773ee9)">
     <use xlink:href="#C3_0_a5c329483e" x="122.993138" y="75.709193" style="fill: #708090; fill-opacity: 0.7"/>
    </g>
    <g clip-path="url(#pcd74773ee9)">
     <use xlink:href="#C3_0_a5c329483e" x="124.30907" y="58.739814" style="fill: #708090; fill-opacity: 0.7"/>
    </g>
    <g clip-path="url(#pcd74773ee9)">
     <use xlink:href="#C3_0_a5c329483e" x="124.887553" y="67.995839" style="fill: #708090; fill-opacity: 0.7"/>
    </g>
    <g clip-path="url(#pcd74773ee9)">
     <use xlink:href="#C3_0_a5c329483e" x="124.22748" y="80.337205" style="fill: #708090; fill-opacity: 0.7"/>
    </g>
    <g clip-path="url(#pcd74773ee9)">
     <use xlink:href="#C3_0_a5c329483e" x="122.95852" y="78.794534" style="fill: #708090; fill-opacity: 0.7"/>
    </g>
    <g clip-path="url(#pcd74773ee9)">
     <use xlink:href="#C3_0_a5c329483e" x="126.271552" y="61.825156" style="fill: #708090; fill-opacity: 0.7"/>
    </g>
    <g clip-path="url(#pcd74773ee9)">
     <use xlink:href="#C3_0_a5c329483e" x="125.046018" y="74.166522" style="fill: #708090; fill-opacity: 0.7"/>
    </g>
    <g clip-path="url(#pcd74773ee9)">
     <use xlink:href="#C3_0_a5c329483e" x="125.678126" y="58.739814" style="fill: #708090; fill-opacity: 0.7"/>
    </g>
    <g clip-path="url(#pcd74773ee9)">
     <use xlink:href="#C3_0_a5c329483e" x="122.209553" y="89.59323" style="fill: #708090; fill-opacity: 0.7"/>
    </g>
    <g clip-path="url(#pcd74773ee9)">
     <use xlink:href="#C3_0_a5c329483e" x="126.202724" y="72.623851" style="fill: #708090; fill-opacity: 0.7"/>
    </g>
    <g clip-path="url(#pcd74773ee9)">
     <use xlink:href="#C3_0_a5c329483e" x="123.83102" y="80.337205" style="fill: #708090; fill-opacity: 0.7"/>
    </g>
    <g clip-path="url(#pcd74773ee9)">
     <use xlink:href="#C3_0_a5c329483e" x="126.500261" y="55.654473" style="fill: #708090; fill-opacity: 0.7"/>
    </g>
    <g clip-path="url(#pcd74773ee9)">
     <use xlink:href="#C3_0_a5c329483e" x="125.559389" y="60.282485" style="fill: #708090; fill-opacity: 0.7"/>
    </g>
    <g clip-path="url(#pcd74773ee9)">
     <use xlink:href="#C3_0_a5c329483e" x="126.947445" y="55.654473" style="fill: #708090; fill-opacity: 0.7"/>
    </g>
    <g clip-path="url(#pcd74773ee9)">
     <use xlink:href="#C3_0_a5c329483e" x="121.413397" y="74.166522" style="fill: #708090; fill-opacity: 0.7"/>
    </g>
    <g clip-path="url(#pcd74773ee9)">
     <use xlink:href="#C3_0_a5c329483e" x="124.188152" y="67.995839" style="fill: #708090; fill-opacity: 0.7"/>
    </g>
    <g clip-path="url(#pcd74773ee9)">
     <use xlink:href="#C3_0_a5c329483e" x="124.114923" y="67.995839" style="fill: #708090; fill-opacity: 0.7"/>
    </g>
    <g clip-path="url(#pcd74773ee9)">
     <use xlink:href="#C3_0_a5c329483e" x="124.686757" y="89.59323" style="fill: #708090; fill-opacity: 0.7"/>
    </g>
    <g clip-path="url(#pcd74773ee9)">
     <use xlink:href="#C3_0_a5c329483e" x="122.328739" y="67.995839" style="fill: #708090; fill-opacity: 0.7"/>
    </g>
    <g clip-path="url(#pcd74773ee9)">
     <use xlink:href="#C3_0_a5c329483e" x="126.677357" y="49.483789" style="fill: #708090; fill-opacity: 0.7"/>
    </g>
    <g clip-path="url(#pcd74773ee9)">
     <use xlink:href="#C3_0_a5c329483e" x="124.205703" y="52.569131" style="fill: #708090; fill-opacity: 0.7"/>
    </g>
    <g clip-path="url(#pcd74773ee9)">
     <use xlink:href="#C3_0_a5c329483e" x="121.183074" y="77.251864" style="fill: #708090; fill-opacity: 0.7"/>
    </g>
    <g clip-path="url(#pcd74773ee9)">
     <use xlink:href="#C3_0_a5c329483e" x="124.463693" y="69.53851" style="fill: #708090; fill-opacity: 0.7"/>
    </g>
    <g clip-path="url(#pcd74773ee9)">
     <use xlink:href="#C3_0_a5c329483e" x="121.842761" y="58.739814" style="fill: #708090; fill-opacity: 0.7"/>
    </g>
    <g clip-path="url(#pcd74773ee9)">
     <use xlink:href="#C3_0_a5c329483e" x="126.56076" y="66.453168" style="fill: #708090; fill-opacity: 0.7"/>
    </g>
    <g clip-path="url(#pcd74773ee9)">
     <use xlink:href="#C3_0_a5c329483e" x="126.272811" y="71.081181" style="fill: #708090; fill-opacity: 0.7"/>
    </g>
    <g clip-path="url(#pcd74773ee9)">
     <use xlink:href="#C3_0_a5c329483e" x="122.198345" y="72.623851" style="fill: #708090; fill-opacity: 0.7"/>
    </g>
    <g clip-path="url(#pcd74773ee9)">
     <use xlink:href="#C3_0_a5c329483e" x="122.139424" y="69.53851" style="fill: #708090; fill-opacity: 0.7"/>
    </g>
    <g clip-path="url(#pcd74773ee9)">
     <use xlink:href="#C3_0_a5c329483e" x="124.079207" y="83.422547" style="fill: #708090; fill-opacity: 0.7"/>
    </g>
    <g clip-path="url(#pcd74773ee9)">
     <use xlink:href="#C3_0_a5c329483e" x="122.316589" y="71.081181" style="fill: #708090; fill-opacity: 0.7"/>
    </g>
    <g clip-path="url(#pcd74773ee9)">
     <use xlink:href="#C3_0_a5c329483e" x="122.029416" y="84.965218" style="fill: #708090; fill-opacity: 0.7"/>
    </g>
    <g clip-path="url(#pcd74773ee9)">
     <use xlink:href="#C3_0_a5c329483e" x="125.574269" y="83.422547" style="fill: #708090; fill-opacity: 0.7"/>
    </g>
   </g>
   <g id="line2d_7">
    <path d="M 36.52605 79.414532 
L 39.90195 79.414532 
M 38.214 79.414532 
L 38.214 54.282917 
M 36.52605 54.282917 
L 39.90195 54.282917 
" clip-path="url(#pcd74773ee9)" style="fill: none; stroke: #333333; stroke-width: 2.5; stroke-linecap: square"/>
   </g>
   <g id="line2d_8">
    <path d="M 97.90605 80.011518 
L 101.28195 80.011518 
M 99.594 80.011518 
L 99.594 55.98016 
M 97.90605 55.98016 
L 101.28195 55.98016 
" clip-path="url(#pcd74773ee9)" style="fill: none; stroke: #333333; stroke-width: 2.5; stroke-linecap: square"/>
   </g>
   <g id="line2d_9">
    <path d="M 61.07805 81.365402 
L 64.45395 81.365402 
M 62.766 81.365402 
L 62.766 58.299302 
M 61.07805 58.299302 
L 64.45395 58.299302 
" clip-path="url(#pcd74773ee9)" style="fill: none; stroke: #333333; stroke-width: 2.5; stroke-linecap: square"/>
   </g>
   <g id="line2d_10">
    <path d="M 122.45805 81.624959 
L 125.83395 81.624959 
M 124.146 81.624959 
L 124.146 60.091742 
M 122.45805 60.091742 
L 125.83395 60.091742 
" clip-path="url(#pcd74773ee9)" style="fill: none; stroke: #333333; stroke-width: 2.5; stroke-linecap: square"/>
   </g>
   <g id="patch_9">
    <path d="M 19.8 128.16 
L 19.8 17.28 
" style="fill: none; stroke: #000000; stroke-width: 1.5; stroke-linejoin: miter; stroke-linecap: square"/>
   </g>
   <g id="patch_10">
    <path d="M 19.8 128.16 
L 142.56 128.16 
" style="fill: none; stroke: #000000; stroke-width: 1.5; stroke-linejoin: miter; stroke-linecap: square"/>
   </g>
   <g id="PathCollection_5">
    <defs>
     <path id="m4b017cf941" d="M 0 3 
C 0.795609 3 1.55874 2.683901 2.12132 2.12132 
C 2.683901 1.55874 3 0.795609 3 0 
C 3 -0.795609 2.683901 -1.55874 2.12132 -2.12132 
C 1.55874 -2.683901 0.795609 -3 0 -3 
C -0.795609 -3 -1.55874 -2.683901 -2.12132 -2.12132 
C -2.683901 -1.55874 -3 -0.795609 -3 0 
C -3 0.795609 -2.683901 1.55874 -2.12132 2.12132 
C -1.55874 2.683901 -0.795609 3 0 3 
z
"/>
    </defs>
    <g clip-path="url(#pcd74773ee9)">
     <use xlink:href="#m4b017cf941" x="38.214" y="66.848725" style="fill: #333333"/>
    </g>
   </g>
   <g id="PathCollection_6">
    <g clip-path="url(#pcd74773ee9)">
     <use xlink:href="#m4b017cf941" x="62.766" y="69.832352" style="fill: #333333"/>
    </g>
   </g>
   <g id="PathCollection_7">
    <g clip-path="url(#pcd74773ee9)">
     <use xlink:href="#m4b017cf941" x="99.594" y="67.995839" style="fill: #333333"/>
    </g>
   </g>
   <g id="PathCollection_8">
    <g clip-path="url(#pcd74773ee9)">
     <use xlink:href="#m4b017cf941" x="124.146" y="70.85835" style="fill: #333333"/>
    </g>
   </g>
   <g id="line2d_11"/>
   <g id="line2d_12"/>
  </g>
 </g>
 <defs>
  <clipPath id="pcd74773ee9">
   <rect x="19.8" y="17.28" width="122.76" height="110.88"/>
  </clipPath>
 </defs>
</svg>
