<?xml version="1.0" encoding="utf-8" standalone="no"?>
<!DOCTYPE svg PUBLIC "-//W3C//DTD SVG 1.1//EN"
  "http://www.w3.org/Graphics/SVG/1.1/DTD/svg11.dtd">
<svg xmlns:xlink="http://www.w3.org/1999/xlink" width="158.4pt" height="144pt" viewBox="0 0 158.4 144" xmlns="http://www.w3.org/2000/svg" version="1.1">
 <metadata>
  <rdf:RDF xmlns:dc="http://purl.org/dc/elements/1.1/" xmlns:cc="http://creativecommons.org/ns#" xmlns:rdf="http://www.w3.org/1999/02/22-rdf-syntax-ns#">
   <cc:Work>
    <dc:type rdf:resource="http://purl.org/dc/dcmitype/StillImage"/>
    <dc:date>2024-09-14T02:31:28.234650</dc:date>
    <dc:format>image/svg+xml</dc:format>
    <dc:creator>
     <cc:Agent>
      <dc:title>Matplotlib v3.7.1, https://matplotlib.org/</dc:title>
     </cc:Agent>
    </dc:creator>
   </cc:Work>
  </rdf:RDF>
 </metadata>
 <defs>
  <style type="text/css">*{stroke-linejoin: round; stroke-linecap: butt}</style>
 </defs>
 <g id="figure_1">
  <g id="patch_1">
   <path d="M 0 144 
L 158.4 144 
L 158.4 0 
L 0 0 
L 0 144 
z
" style="fill: none"/>
  </g>
  <g id="axes_1">
   <g id="patch_2">
    <path d="M 19.8 128.16 
L 142.56 128.16 
L 142.56 17.28 
L 19.8 17.28 
L 19.8 128.16 
z
" style="fill: none"/>
   </g>
   <g id="PolyCollection_1">
    <path d="M 38.938127 123.12 
L 37.489873 123.12 
L 37.322965 122.107302 
L 37.128231 121.094604 
L 36.903706 120.081907 
L 36.647916 119.069209 
L 36.360014 118.056511 
L 36.039925 117.043813 
L 35.688458 116.031115 
L 35.307407 115.018417 
L 34.899601 114.00572 
L 34.468922 112.993022 
L 34.020271 111.980324 
L 33.559475 110.967626 
L 33.093151 109.954928 
L 32.628519 108.94223 
L 32.173177 107.929533 
L 31.734846 106.916835 
L 31.321102 105.904137 
L 30.9391 104.891439 
L 30.595322 103.878741 
L 30.29534 102.866043 
L 30.043626 101.853346 
L 29.843405 100.840648 
L 29.696563 99.82795 
L 29.603606 98.815252 
L 29.563679 97.802554 
L 29.574626 96.789857 
L 29.633097 95.777159 
L 29.734691 94.764461 
L 29.874116 93.751763 
L 30.045371 92.739065 
L 30.241933 91.726367 
L 30.456937 90.71367 
L 30.68336 89.700972 
L 30.914176 88.688274 
L 31.142514 87.675576 
L 31.361777 86.662878 
L 31.565758 85.65018 
L 31.748722 84.637483 
L 31.905474 83.624785 
L 32.031413 82.612087 
L 32.122556 81.599389 
L 32.17556 80.586691 
L 32.187731 79.573993 
L 32.157023 78.561296 
L 32.082043 77.548598 
L 31.962057 76.5359 
L 31.797006 75.523202 
L 31.587527 74.510504 
L 31.334999 73.497807 
L 31.041596 72.485109 
L 30.710341 71.472411 
L 30.34518 70.459713 
L 29.951036 69.447015 
L 29.533852 68.434317 
L 29.100607 67.42162 
L 28.659286 66.408922 
L 28.218807 65.396224 
L 27.788878 64.383526 
L 27.379798 63.370828 
L 27.002194 62.35813 
L 26.666702 61.345433 
L 26.383603 60.332735 
L 26.162435 59.320037 
L 26.011602 58.307339 
L 25.938 57.294641 
L 25.946694 56.281943 
L 26.040658 55.269246 
L 26.220601 54.256548 
L 26.484905 53.24385 
L 26.829659 52.231152 
L 27.248805 51.218454 
L 27.73439 50.205757 
L 28.27689 49.193059 
L 28.865607 48.180361 
L 29.489102 47.167663 
L 30.13564 46.154965 
L 30.793622 45.142267 
L 31.451986 44.12957 
L 32.100543 43.116872 
L 32.730257 42.104174 
L 33.333432 41.091476 
L 33.903834 40.078778 
L 34.436728 39.06608 
L 34.928847 38.053383 
L 35.378304 37.040685 
L 35.784458 36.027987 
L 36.147749 35.015289 
L 36.469517 34.002591 
L 36.751809 32.989893 
L 36.997197 31.977196 
L 37.208608 30.964498 
L 37.389169 29.9518 
L 37.542079 28.939102 
L 37.670503 27.926404 
L 37.777486 26.913707 
L 37.865896 25.901009 
L 37.938378 24.888311 
L 37.997336 23.875613 
L 38.044918 22.862915 
L 38.383082 22.862915 
L 38.383082 22.862915 
L 38.430664 23.875613 
L 38.489622 24.888311 
L 38.562104 25.901009 
L 38.650514 26.913707 
L 38.757497 27.926404 
L 38.885921 28.939102 
L 39.038831 29.9518 
L 39.219392 30.964498 
L 39.430803 31.977196 
L 39.676191 32.989893 
L 39.958483 34.002591 
L 40.280251 35.015289 
L 40.643542 36.027987 
L 41.049696 37.040685 
L 41.499153 38.053383 
L 41.991272 39.06608 
L 42.524166 40.078778 
L 43.094568 41.091476 
L 43.697743 42.104174 
L 44.327457 43.116872 
L 44.976014 44.12957 
L 45.634378 45.142267 
L 46.29236 46.154965 
L 46.938898 47.167663 
L 47.562393 48.180361 
L 48.15111 49.193059 
L 48.69361 50.205757 
L 49.179195 51.218454 
L 49.598341 52.231152 
L 49.943095 53.24385 
L 50.207399 54.256548 
L 50.387342 55.269246 
L 50.481306 56.281943 
L 50.49 57.294641 
L 50.416398 58.307339 
L 50.265565 59.320037 
L 50.044397 60.332735 
L 49.761298 61.345433 
L 49.425806 62.35813 
L 49.048202 63.370828 
L 48.639122 64.383526 
L 48.209193 65.396224 
L 47.768714 66.408922 
L 47.327393 67.42162 
L 46.894148 68.434317 
L 46.476964 69.447015 
L 46.08282 70.459713 
L 45.717659 71.472411 
L 45.386404 72.485109 
L 45.093001 73.497807 
L 44.840473 74.510504 
L 44.630994 75.523202 
L 44.465943 76.5359 
L 44.345957 77.548598 
L 44.270977 78.561296 
L 44.240269 79.573993 
L 44.25244 80.586691 
L 44.305444 81.599389 
L 44.396587 82.612087 
L 44.522526 83.624785 
L 44.679278 84.637483 
L 44.862242 85.65018 
L 45.066223 86.662878 
L 45.285486 87.675576 
L 45.513824 88.688274 
L 45.74464 89.700972 
L 45.971063 90.71367 
L 46.186067 91.726367 
L 46.382629 92.739065 
L 46.553884 93.751763 
L 46.693309 94.764461 
L 46.794903 95.777159 
L 46.853374 96.789857 
L 46.864321 97.802554 
L 46.824394 98.815252 
L 46.731437 99.82795 
L 46.584595 100.840648 
L 46.384374 101.853346 
L 46.13266 102.866043 
L 45.832678 103.878741 
L 45.4889 104.891439 
L 45.106898 105.904137 
L 44.693154 106.916835 
L 44.254823 107.929533 
L 43.799481 108.94223 
L 43.334849 109.954928 
L 42.868525 110.967626 
L 42.407729 111.980324 
L 41.959078 112.993022 
L 41.528399 114.00572 
L 41.120593 115.018417 
L 40.739542 116.031115 
L 40.388075 117.043813 
L 40.067986 118.056511 
L 39.780084 119.069209 
L 39.524294 120.081907 
L 39.299769 121.094604 
L 39.105035 122.107302 
L 38.938127 123.12 
z
" clip-path="url(#pda1d5f71ea)" style="fill: #b69595; fill-opacity: 0.35"/>
   </g>
   <g id="PolyCollection_2">
    <path d="M 63.172707 123.051285 
L 62.359293 123.051285 
L 62.262401 122.033797 
L 62.148364 121.016309 
L 62.01564 119.998822 
L 61.862873 118.981334 
L 61.688967 117.963846 
L 61.493155 116.946358 
L 61.275058 115.928871 
L 61.034725 114.911383 
L 60.772659 113.893895 
L 60.489818 112.876408 
L 60.187592 111.85892 
L 59.867755 110.841432 
L 59.53239 109.823944 
L 59.183801 108.806457 
L 58.82441 107.788969 
L 58.456648 106.771481 
L 58.082851 105.753993 
L 57.705168 104.736506 
L 57.325491 103.719018 
L 56.945409 102.70153 
L 56.56619 101.684043 
L 56.188803 100.666555 
L 55.813958 99.649067 
L 55.442177 98.631579 
L 55.073883 97.614092 
L 54.709491 96.596604 
L 54.349509 95.579116 
L 53.994616 94.561628 
L 53.645742 93.544141 
L 53.304104 92.526653 
L 52.971237 91.509165 
L 52.648989 90.491678 
L 52.33949 89.47419 
L 52.045114 88.456702 
L 51.76841 87.439214 
L 51.51204 86.421727 
L 51.278699 85.404239 
L 51.07104 84.386751 
L 50.891607 83.369264 
L 50.742754 82.351776 
L 50.626588 81.334288 
L 50.54489 80.3168 
L 50.499051 79.299313 
L 50.49 78.281825 
L 50.518123 77.264337 
L 50.583187 76.246849 
L 50.684253 75.229362 
L 50.819605 74.211874 
L 50.986676 73.194386 
L 51.181998 72.176899 
L 51.401175 71.159411 
L 51.638888 70.141923 
L 51.888944 69.124435 
L 52.144369 68.106948 
L 52.397552 67.08946 
L 52.640448 66.071972 
L 52.864822 65.054484 
L 53.062547 64.036997 
L 53.225937 63.019509 
L 53.348096 62.002021 
L 53.423286 60.984534 
L 53.447277 59.967046 
L 53.417665 58.949558 
L 53.334139 57.93207 
L 53.198674 56.914583 
L 53.01563 55.897095 
L 52.791746 54.879607 
L 52.53601 53.862119 
L 52.259418 52.844632 
L 51.974604 51.827144 
L 51.695377 50.809656 
L 51.436161 49.792169 
L 51.211389 48.774681 
L 51.034858 47.757193 
L 50.919099 46.739705 
L 50.874799 45.722218 
L 50.910296 44.70473 
L 51.031188 43.687242 
L 51.240085 42.669755 
L 51.536505 41.652267 
L 51.916931 40.634779 
L 52.375021 39.617291 
L 52.90195 38.599804 
L 53.486866 37.582316 
L 54.11743 36.564828 
L 54.7804 35.54734 
L 55.462221 34.529853 
L 56.149595 33.512365 
L 56.829996 32.494877 
L 57.492096 31.47739 
L 58.126105 30.459902 
L 58.723988 29.442414 
L 59.279589 28.424926 
L 59.788637 27.407439 
L 60.248674 26.389951 
L 60.658897 25.372463 
L 61.019952 24.354975 
L 61.333689 23.337488 
L 61.6029 22.32 
L 63.9291 22.32 
L 63.9291 22.32 
L 64.198311 23.337488 
L 64.512048 24.354975 
L 64.873103 25.372463 
L 65.283326 26.389951 
L 65.743363 27.407439 
L 66.252411 28.424926 
L 66.808012 29.442414 
L 67.405895 30.459902 
L 68.039904 31.47739 
L 68.702004 32.494877 
L 69.382405 33.512365 
L 70.069779 34.529853 
L 70.7516 35.54734 
L 71.41457 36.564828 
L 72.045134 37.582316 
L 72.63005 38.599804 
L 73.156979 39.617291 
L 73.615069 40.634779 
L 73.995495 41.652267 
L 74.291915 42.669755 
L 74.500812 43.687242 
L 74.621704 44.70473 
L 74.657201 45.722218 
L 74.612901 46.739705 
L 74.497142 47.757193 
L 74.320611 48.774681 
L 74.095839 49.792169 
L 73.836623 50.809656 
L 73.557396 51.827144 
L 73.272582 52.844632 
L 72.99599 53.862119 
L 72.740254 54.879607 
L 72.51637 55.897095 
L 72.333326 56.914583 
L 72.197861 57.93207 
L 72.114335 58.949558 
L 72.084723 59.967046 
L 72.108714 60.984534 
L 72.183904 62.002021 
L 72.306063 63.019509 
L 72.469453 64.036997 
L 72.667178 65.054484 
L 72.891552 66.071972 
L 73.134448 67.08946 
L 73.387631 68.106948 
L 73.643056 69.124435 
L 73.893112 70.141923 
L 74.130825 71.159411 
L 74.350002 72.176899 
L 74.545324 73.194386 
L 74.712395 74.211874 
L 74.847747 75.229362 
L 74.948813 76.246849 
L 75.013877 77.264337 
L 75.042 78.281825 
L 75.032949 79.299313 
L 74.98711 80.3168 
L 74.905412 81.334288 
L 74.789246 82.351776 
L 74.640393 83.369264 
L 74.46096 84.386751 
L 74.253301 85.404239 
L 74.01996 86.421727 
L 73.76359 87.439214 
L 73.486886 88.456702 
L 73.19251 89.47419 
L 72.883011 90.491678 
L 72.560763 91.509165 
L 72.227896 92.526653 
L 71.886258 93.544141 
L 71.537384 94.561628 
L 71.182491 95.579116 
L 70.822509 96.596604 
L 70.458117 97.614092 
L 70.089823 98.631579 
L 69.718042 99.649067 
L 69.343197 100.666555 
L 68.96581 101.684043 
L 68.586591 102.70153 
L 68.206509 103.719018 
L 67.826832 104.736506 
L 67.449149 105.753993 
L 67.075352 106.771481 
L 66.70759 107.788969 
L 66.348199 108.806457 
L 65.99961 109.823944 
L 65.664245 110.841432 
L 65.344408 111.85892 
L 65.042182 112.876408 
L 64.759341 113.893895 
L 64.497275 114.911383 
L 64.256942 115.928871 
L 64.038845 116.946358 
L 63.843033 117.963846 
L 63.669127 118.981334 
L 63.51636 119.998822 
L 63.383636 121.016309 
L 63.269599 122.033797 
L 63.172707 123.051285 
z
" clip-path="url(#pda1d5f71ea)" style="fill: #74808c; fill-opacity: 0.35"/>
   </g>
   <g id="PolyCollection_3">
    <path d="M 99.847624 114.209738 
L 99.340376 114.209738 
L 99.258581 113.339977 
L 99.156291 112.470216 
L 99.030287 111.600455 
L 98.877378 110.730694 
L 98.69455 109.860933 
L 98.479134 108.991172 
L 98.22897 108.121411 
L 97.942562 107.25165 
L 97.619211 106.381889 
L 97.25911 105.512128 
L 96.863387 104.642367 
L 96.434107 103.772606 
L 95.974213 102.902845 
L 95.487429 102.033084 
L 94.978125 101.163323 
L 94.451168 100.293562 
L 93.911767 99.423801 
L 93.36533 98.55404 
L 92.817347 97.684278 
L 92.273294 96.814517 
L 91.738567 95.944756 
L 91.218437 95.074995 
L 90.718011 94.205234 
L 90.242182 93.335473 
L 89.795568 92.465712 
L 89.382417 91.595951 
L 89.006482 90.72619 
L 88.670869 89.856429 
L 88.37787 88.986668 
L 88.128798 88.116907 
L 87.923845 87.247146 
L 87.761989 86.377385 
L 87.640964 85.507624 
L 87.557314 84.637863 
L 87.506525 83.768102 
L 87.483247 82.898341 
L 87.481567 82.02858 
L 87.495338 81.158818 
L 87.518509 80.289057 
L 87.545446 79.419296 
L 87.571211 78.549535 
L 87.591763 77.679774 
L 87.604099 76.810013 
L 87.606305 75.940252 
L 87.597547 75.070491 
L 87.578 74.20073 
L 87.548763 73.330969 
L 87.511752 72.461208 
L 87.469613 71.591447 
L 87.42565 70.721686 
L 87.383775 69.851925 
L 87.348467 68.982164 
L 87.324727 68.112403 
L 87.318 67.242642 
L 87.334055 66.372881 
L 87.378803 65.50312 
L 87.458051 64.633358 
L 87.577201 63.763597 
L 87.740916 62.893836 
L 87.952785 62.024075 
L 88.215018 61.154314 
L 88.528203 60.284553 
L 88.891173 59.414792 
L 89.300978 58.545031 
L 89.752983 57.67527 
L 90.24108 56.805509 
L 90.758002 55.935748 
L 91.295695 55.065987 
L 91.845724 54.196226 
L 92.399684 53.326465 
L 92.949573 52.456704 
L 93.48811 51.586943 
L 94.008984 50.717182 
L 94.507017 49.847421 
L 94.978253 48.97766 
L 95.419969 48.107898 
L 95.830619 47.238137 
L 96.209725 46.368376 
L 96.557725 45.498615 
L 96.875795 44.628854 
L 97.165659 43.759093 
L 97.42939 42.889332 
L 97.669231 42.019571 
L 97.887428 41.14981 
L 98.086105 40.280049 
L 98.267164 39.410288 
L 98.432231 38.540527 
L 98.582635 37.670766 
L 98.719426 36.801005 
L 98.843416 35.931244 
L 98.955236 35.061483 
L 99.055404 34.191722 
L 99.144393 33.321961 
L 99.222681 32.4522 
L 99.2908 31.582438 
L 99.349355 30.712677 
L 99.399038 29.842916 
L 99.440616 28.973155 
L 99.474913 28.103394 
L 99.713087 28.103394 
L 99.713087 28.103394 
L 99.747384 28.973155 
L 99.788962 29.842916 
L 99.838645 30.712677 
L 99.8972 31.582438 
L 99.965319 32.4522 
L 100.043607 33.321961 
L 100.132596 34.191722 
L 100.232764 35.061483 
L 100.344584 35.931244 
L 100.468574 36.801005 
L 100.605365 37.670766 
L 100.755769 38.540527 
L 100.920836 39.410288 
L 101.101895 40.280049 
L 101.300572 41.14981 
L 101.518769 42.019571 
L 101.75861 42.889332 
L 102.022341 43.759093 
L 102.312205 44.628854 
L 102.630275 45.498615 
L 102.978275 46.368376 
L 103.357381 47.238137 
L 103.768031 48.107898 
L 104.209747 48.97766 
L 104.680983 49.847421 
L 105.179016 50.717182 
L 105.69989 51.586943 
L 106.238427 52.456704 
L 106.788316 53.326465 
L 107.342276 54.196226 
L 107.892305 55.065987 
L 108.429998 55.935748 
L 108.94692 56.805509 
L 109.435017 57.67527 
L 109.887022 58.545031 
L 110.296827 59.414792 
L 110.659797 60.284553 
L 110.972982 61.154314 
L 111.235215 62.024075 
L 111.447084 62.893836 
L 111.610799 63.763597 
L 111.729949 64.633358 
L 111.809197 65.50312 
L 111.853945 66.372881 
L 111.87 67.242642 
L 111.863273 68.112403 
L 111.839533 68.982164 
L 111.804225 69.851925 
L 111.76235 70.721686 
L 111.718387 71.591447 
L 111.676248 72.461208 
L 111.639237 73.330969 
L 111.61 74.20073 
L 111.590453 75.070491 
L 111.581695 75.940252 
L 111.583901 76.810013 
L 111.596237 77.679774 
L 111.616789 78.549535 
L 111.642554 79.419296 
L 111.669491 80.289057 
L 111.692662 81.158818 
L 111.706433 82.02858 
L 111.704753 82.898341 
L 111.681475 83.768102 
L 111.630686 84.637863 
L 111.547036 85.507624 
L 111.426011 86.377385 
L 111.264155 87.247146 
L 111.059202 88.116907 
L 110.81013 88.986668 
L 110.517131 89.856429 
L 110.181518 90.72619 
L 109.805583 91.595951 
L 109.392432 92.465712 
L 108.945818 93.335473 
L 108.469989 94.205234 
L 107.969563 95.074995 
L 107.449433 95.944756 
L 106.914706 96.814517 
L 106.370653 97.684278 
L 105.82267 98.55404 
L 105.276233 99.423801 
L 104.736832 100.293562 
L 104.209875 101.163323 
L 103.700571 102.033084 
L 103.213787 102.902845 
L 102.753893 103.772606 
L 102.324613 104.642367 
L 101.92889 105.512128 
L 101.568789 106.381889 
L 101.245438 107.25165 
L 100.95903 108.121411 
L 100.708866 108.991172 
L 100.49345 109.860933 
L 100.310622 110.730694 
L 100.157713 111.600455 
L 100.031709 112.470216 
L 99.929419 113.339977 
L 99.847624 114.209738 
z
" clip-path="url(#pda1d5f71ea)" style="fill: #b69595; fill-opacity: 0.35"/>
   </g>
   <g id="PolyCollection_4">
    <path d="M 124.280905 112.707471 
L 124.011095 112.707471 
L 123.965976 111.868059 
L 123.909724 111.028647 
L 123.84098 110.189234 
L 123.758658 109.349822 
L 123.66209 108.51041 
L 123.551176 107.670998 
L 123.426509 106.831585 
L 123.289466 105.992173 
L 123.142242 105.152761 
L 122.987821 104.313349 
L 122.82986 103.473937 
L 122.672499 102.634524 
L 122.520105 101.795112 
L 122.376954 100.9557 
L 122.246901 100.116288 
L 122.133045 99.276876 
L 122.037436 98.437463 
L 121.960851 97.598051 
L 121.902661 96.758639 
L 121.860798 95.919227 
L 121.831838 95.079814 
L 121.811168 94.240402 
L 121.793249 93.40099 
L 121.77192 92.561578 
L 121.740735 91.722166 
L 121.693304 90.882753 
L 121.623597 90.043341 
L 121.526216 89.203929 
L 121.396597 88.364517 
L 121.231163 87.525105 
L 121.027401 86.685692 
L 120.783894 85.84628 
L 120.500296 85.006868 
L 120.177279 84.167456 
L 119.816452 83.328043 
L 119.420268 82.488631 
L 118.991933 81.649219 
L 118.535313 80.809807 
L 118.054853 79.970395 
L 117.555507 79.130982 
L 117.042676 78.29157 
L 116.522146 77.452158 
L 116.000031 76.612746 
L 115.482709 75.773334 
L 114.97675 74.933921 
L 114.488824 74.094509 
L 114.025592 73.255097 
L 113.593581 72.415685 
L 113.199026 71.576272 
L 112.847711 70.73686 
L 112.544782 69.897448 
L 112.294567 69.058036 
L 112.100405 68.218624 
L 111.964499 67.379211 
L 111.887809 66.539799 
L 111.87 65.700387 
L 111.909455 64.860975 
L 112.003356 64.021563 
L 112.147834 63.18215 
L 112.338188 62.342738 
L 112.569146 61.503326 
L 112.835164 60.663914 
L 113.130741 59.824501 
L 113.450714 58.985089 
L 113.790522 58.145677 
L 114.146405 57.306265 
L 114.515527 56.466853 
L 114.895991 55.62744 
L 115.286756 54.788028 
L 115.687462 53.948616 
L 116.098164 53.109204 
L 116.51902 52.269792 
L 116.949975 51.430379 
L 117.390462 50.590967 
L 117.839179 49.751555 
L 118.293967 48.912143 
L 118.751792 48.07273 
L 119.208854 47.233318 
L 119.660787 46.393906 
L 120.102928 45.554494 
L 120.530619 44.715082 
L 120.939502 43.875669 
L 121.32577 43.036257 
L 121.686356 42.196845 
L 122.019044 41.357433 
L 122.322494 40.518021 
L 122.596213 39.678608 
L 122.840458 38.839196 
L 123.056119 37.999784 
L 123.244581 37.160372 
L 123.407591 36.320959 
L 123.547138 35.481547 
L 123.665349 34.642135 
L 123.764406 33.802723 
L 123.846481 32.963311 
L 123.913689 32.123898 
L 123.968044 31.284486 
L 124.011436 30.445074 
L 124.045609 29.605662 
L 124.246391 29.605662 
L 124.246391 29.605662 
L 124.280564 30.445074 
L 124.323956 31.284486 
L 124.378311 32.123898 
L 124.445519 32.963311 
L 124.527594 33.802723 
L 124.626651 34.642135 
L 124.744862 35.481547 
L 124.884409 36.320959 
L 125.047419 37.160372 
L 125.235881 37.999784 
L 125.451542 38.839196 
L 125.695787 39.678608 
L 125.969506 40.518021 
L 126.272956 41.357433 
L 126.605644 42.196845 
L 126.96623 43.036257 
L 127.352498 43.875669 
L 127.761381 44.715082 
L 128.189072 45.554494 
L 128.631213 46.393906 
L 129.083146 47.233318 
L 129.540208 48.07273 
L 129.998033 48.912143 
L 130.452821 49.751555 
L 130.901538 50.590967 
L 131.342025 51.430379 
L 131.77298 52.269792 
L 132.193836 53.109204 
L 132.604538 53.948616 
L 133.005244 54.788028 
L 133.396009 55.62744 
L 133.776473 56.466853 
L 134.145595 57.306265 
L 134.501478 58.145677 
L 134.841286 58.985089 
L 135.161259 59.824501 
L 135.456836 60.663914 
L 135.722854 61.503326 
L 135.953812 62.342738 
L 136.144166 63.18215 
L 136.288644 64.021563 
L 136.382545 64.860975 
L 136.422 65.700387 
L 136.404191 66.539799 
L 136.327501 67.379211 
L 136.191595 68.218624 
L 135.997433 69.058036 
L 135.747218 69.897448 
L 135.444289 70.73686 
L 135.092974 71.576272 
L 134.698419 72.415685 
L 134.266408 73.255097 
L 133.803176 74.094509 
L 133.31525 74.933921 
L 132.809291 75.773334 
L 132.291969 76.612746 
L 131.769854 77.452158 
L 131.249324 78.29157 
L 130.736493 79.130982 
L 130.237147 79.970395 
L 129.756687 80.809807 
L 129.300067 81.649219 
L 128.871732 82.488631 
L 128.475548 83.328043 
L 128.114721 84.167456 
L 127.791704 85.006868 
L 127.508106 85.84628 
L 127.264599 86.685692 
L 127.060837 87.525105 
L 126.895403 88.364517 
L 126.765784 89.203929 
L 126.668403 90.043341 
L 126.598696 90.882753 
L 126.551265 91.722166 
L 126.52008 92.561578 
L 126.498751 93.40099 
L 126.480832 94.240402 
L 126.460162 95.079814 
L 126.431202 95.919227 
L 126.389339 96.758639 
L 126.331149 97.598051 
L 126.254564 98.437463 
L 126.158955 99.276876 
L 126.045099 100.116288 
L 125.915046 100.9557 
L 125.771895 101.795112 
L 125.619501 102.634524 
L 125.46214 103.473937 
L 125.304179 104.313349 
L 125.149758 105.152761 
L 125.002534 105.992173 
L 124.865491 106.831585 
L 124.740824 107.670998 
L 124.62991 108.51041 
L 124.533342 109.349822 
L 124.45102 110.189234 
L 124.382276 111.028647 
L 124.326024 111.868059 
L 124.280905 112.707471 
z
" clip-path="url(#pda1d5f71ea)" style="fill: #74808c; fill-opacity: 0.35"/>
   </g>
   <g id="patch_3">
    <path d="M 25.938 103.267163 
L 50.49 103.267163 
L 50.49 73.955952 
L 25.938 73.955952 
L 25.938 103.267163 
z
" clip-path="url(#pda1d5f71ea)" style="fill: none"/>
   </g>
   <g id="patch_4">
    <path d="M 87.318 103.267163 
L 111.87 103.267163 
L 111.87 74.550369 
L 87.318 74.550369 
L 87.318 103.267163 
z
" clip-path="url(#pda1d5f71ea)" style="fill: none"/>
   </g>
   <g id="patch_5">
    <path d="M 50.49 103.267163 
L 75.042 103.267163 
L 75.042 68.18579 
L 50.49 68.18579 
L 50.49 103.267163 
z
" clip-path="url(#pda1d5f71ea)" style="fill: none"/>
   </g>
   <g id="patch_6">
    <path d="M 111.87 103.267163 
L 136.422 103.267163 
L 136.422 67.316887 
L 111.87 67.316887 
L 111.87 103.267163 
z
" clip-path="url(#pda1d5f71ea)" style="fill: none"/>
   </g>
   <g id="patch_7">
    <path d="M 50.49 103.267163 
L 50.49 103.267163 
L 50.49 103.267163 
L 50.49 103.267163 
z
" clip-path="url(#pda1d5f71ea)" style="fill: #3274a1"/>
   </g>
   <g id="patch_8">
    <path d="M 50.49 103.267163 
L 50.49 103.267163 
L 50.49 103.267163 
L 50.49 103.267163 
z
" clip-path="url(#pda1d5f71ea)" style="fill: #e1812c"/>
   </g>
   <g id="matplotlib.axis_1">
    <g id="xtick_1">
     <g id="line2d_1">
      <defs>
       <path id="ma8510432c3" d="M 0 0 
L 0 3.5 
" style="stroke: #000000; stroke-width: 1.5"/>
      </defs>
      <g>
       <use xlink:href="#ma8510432c3" x="50.49" y="128.16" style="stroke: #000000; stroke-width: 1.5"/>
      </g>
     </g>
     <g id="text_1">
      <!-- HC -->
      <g transform="translate(43.268125 142.317813) scale(0.1 -0.1)">
       <defs>
        <path id="Arial-BoldMT-48" d="M 469 0 
L 469 4581 
L 1394 4581 
L 1394 2778 
L 3206 2778 
L 3206 4581 
L 4131 4581 
L 4131 0 
L 3206 0 
L 3206 2003 
L 1394 2003 
L 1394 0 
L 469 0 
z
" transform="scale(0.015625)"/>
        <path id="Arial-BoldMT-43" d="M 3397 1684 
L 4294 1400 
Q 4088 650 3608 286 
Q 3128 -78 2391 -78 
Q 1478 -78 890 545 
Q 303 1169 303 2250 
Q 303 3394 893 4026 
Q 1484 4659 2447 4659 
Q 3288 4659 3813 4163 
Q 4125 3869 4281 3319 
L 3366 3100 
Q 3284 3456 3026 3662 
Q 2769 3869 2400 3869 
Q 1891 3869 1573 3503 
Q 1256 3138 1256 2319 
Q 1256 1450 1568 1081 
Q 1881 713 2381 713 
Q 2750 713 3015 947 
Q 3281 1181 3397 1684 
z
" transform="scale(0.015625)"/>
       </defs>
       <use xlink:href="#Arial-BoldMT-48"/>
       <use xlink:href="#Arial-BoldMT-43" x="72.216797"/>
      </g>
     </g>
    </g>
    <g id="xtick_2">
     <g id="line2d_2">
      <g>
       <use xlink:href="#ma8510432c3" x="111.87" y="128.16" style="stroke: #000000; stroke-width: 1.5"/>
      </g>
     </g>
     <g id="text_2">
      <!-- ND -->
      <g transform="translate(104.648125 142.317813) scale(0.1 -0.1)">
       <defs>
        <path id="Arial-BoldMT-4e" d="M 475 0 
L 475 4581 
L 1375 4581 
L 3250 1522 
L 3250 4581 
L 4109 4581 
L 4109 0 
L 3181 0 
L 1334 2988 
L 1334 0 
L 475 0 
z
" transform="scale(0.015625)"/>
        <path id="Arial-BoldMT-44" d="M 463 4581 
L 2153 4581 
Q 2725 4581 3025 4494 
Q 3428 4375 3715 4072 
Q 4003 3769 4153 3330 
Q 4303 2891 4303 2247 
Q 4303 1681 4163 1272 
Q 3991 772 3672 463 
Q 3431 228 3022 97 
Q 2716 0 2203 0 
L 463 0 
L 463 4581 
z
M 1388 3806 
L 1388 772 
L 2078 772 
Q 2466 772 2638 816 
Q 2863 872 3011 1006 
Q 3159 1141 3253 1448 
Q 3347 1756 3347 2288 
Q 3347 2819 3253 3103 
Q 3159 3388 2990 3547 
Q 2822 3706 2563 3763 
Q 2369 3806 1803 3806 
L 1388 3806 
z
" transform="scale(0.015625)"/>
       </defs>
       <use xlink:href="#Arial-BoldMT-4e"/>
       <use xlink:href="#Arial-BoldMT-44" x="72.216797"/>
      </g>
     </g>
    </g>
   </g>
   <g id="matplotlib.axis_2">
    <g id="ytick_1">
     <g id="line2d_3">
      <defs>
       <path id="m2fc679c0bf" d="M 0 0 
L -3.5 0 
" style="stroke: #000000; stroke-width: 1.5"/>
      </defs>
      <g>
       <use xlink:href="#m2fc679c0bf" x="19.8" y="103.267163" style="stroke: #000000; stroke-width: 1.5"/>
      </g>
     </g>
     <g id="text_3">
      <!-- 0 -->
      <g transform="translate(7.239063 106.846069) scale(0.1 -0.1)">
       <defs>
        <path id="Arial-BoldMT-30" d="M 1756 4600 
Q 2422 4600 2797 4125 
Q 3244 3563 3244 2259 
Q 3244 959 2794 391 
Q 2422 -78 1756 -78 
Q 1088 -78 678 436 
Q 269 950 269 2269 
Q 269 3563 719 4131 
Q 1091 4600 1756 4600 
z
M 1756 3872 
Q 1597 3872 1472 3770 
Q 1347 3669 1278 3406 
Q 1188 3066 1188 2259 
Q 1188 1453 1269 1151 
Q 1350 850 1473 750 
Q 1597 650 1756 650 
Q 1916 650 2041 751 
Q 2166 853 2234 1116 
Q 2325 1453 2325 2259 
Q 2325 3066 2244 3367 
Q 2163 3669 2039 3770 
Q 1916 3872 1756 3872 
z
" transform="scale(0.015625)"/>
       </defs>
       <use xlink:href="#Arial-BoldMT-30"/>
      </g>
     </g>
    </g>
    <g id="ytick_2">
     <g id="line2d_4">
      <g>
       <use xlink:href="#m2fc679c0bf" x="19.8" y="72.685642" style="stroke: #000000; stroke-width: 1.5"/>
      </g>
     </g>
     <g id="text_4">
      <!-- 50 -->
      <g transform="translate(1.678125 76.264549) scale(0.1 -0.1)">
       <defs>
        <path id="Arial-BoldMT-35" d="M 284 1178 
L 1159 1269 
Q 1197 972 1381 798 
Q 1566 625 1806 625 
Q 2081 625 2272 848 
Q 2463 1072 2463 1522 
Q 2463 1944 2273 2155 
Q 2084 2366 1781 2366 
Q 1403 2366 1103 2031 
L 391 2134 
L 841 4519 
L 3163 4519 
L 3163 3697 
L 1506 3697 
L 1369 2919 
Q 1663 3066 1969 3066 
Q 2553 3066 2959 2641 
Q 3366 2216 3366 1538 
Q 3366 972 3038 528 
Q 2591 -78 1797 -78 
Q 1163 -78 763 262 
Q 363 603 284 1178 
z
" transform="scale(0.015625)"/>
       </defs>
       <use xlink:href="#Arial-BoldMT-35"/>
       <use xlink:href="#Arial-BoldMT-30" x="55.615234"/>
      </g>
     </g>
    </g>
    <g id="ytick_3">
     <g id="line2d_5">
      <g>
       <use xlink:href="#m2fc679c0bf" x="19.8" y="42.104122" style="stroke: #000000; stroke-width: 1.5"/>
      </g>
     </g>
     <g id="text_5">
      <!-- 100 -->
      <g transform="translate(-3.882812 45.683028) scale(0.1 -0.1)">
       <defs>
        <path id="Arial-BoldMT-31" d="M 2519 0 
L 1641 0 
L 1641 3309 
Q 1159 2859 506 2644 
L 506 3441 
Q 850 3553 1253 3867 
Q 1656 4181 1806 4600 
L 2519 4600 
L 2519 0 
z
" transform="scale(0.015625)"/>
       </defs>
       <use xlink:href="#Arial-BoldMT-31"/>
       <use xlink:href="#Arial-BoldMT-30" x="55.615234"/>
       <use xlink:href="#Arial-BoldMT-30" x="111.230469"/>
      </g>
     </g>
    </g>
    <g id="text_6">
     <!-- adversion score (a.u.) -->
     <g transform="translate(-9.9875 124.400469) rotate(-90) scale(0.1 -0.1)">
      <defs>
       <path id="Arial-BoldMT-61" d="M 1116 2306 
L 319 2450 
Q 453 2931 781 3162 
Q 1109 3394 1756 3394 
Q 2344 3394 2631 3255 
Q 2919 3116 3036 2902 
Q 3153 2688 3153 2116 
L 3144 1091 
Q 3144 653 3186 445 
Q 3228 238 3344 0 
L 2475 0 
Q 2441 88 2391 259 
Q 2369 338 2359 363 
Q 2134 144 1878 34 
Q 1622 -75 1331 -75 
Q 819 -75 523 203 
Q 228 481 228 906 
Q 228 1188 362 1408 
Q 497 1628 739 1745 
Q 981 1863 1438 1950 
Q 2053 2066 2291 2166 
L 2291 2253 
Q 2291 2506 2166 2614 
Q 2041 2722 1694 2722 
Q 1459 2722 1328 2630 
Q 1197 2538 1116 2306 
z
M 2291 1594 
Q 2122 1538 1756 1459 
Q 1391 1381 1278 1306 
Q 1106 1184 1106 997 
Q 1106 813 1243 678 
Q 1381 544 1594 544 
Q 1831 544 2047 700 
Q 2206 819 2256 991 
Q 2291 1103 2291 1419 
L 2291 1594 
z
" transform="scale(0.015625)"/>
       <path id="Arial-BoldMT-64" d="M 3503 0 
L 2688 0 
L 2688 488 
Q 2484 203 2207 64 
Q 1931 -75 1650 -75 
Q 1078 -75 670 386 
Q 263 847 263 1672 
Q 263 2516 659 2955 
Q 1056 3394 1663 3394 
Q 2219 3394 2625 2931 
L 2625 4581 
L 3503 4581 
L 3503 0 
z
M 1159 1731 
Q 1159 1200 1306 963 
Q 1519 619 1900 619 
Q 2203 619 2415 876 
Q 2628 1134 2628 1647 
Q 2628 2219 2422 2470 
Q 2216 2722 1894 2722 
Q 1581 2722 1370 2473 
Q 1159 2225 1159 1731 
z
" transform="scale(0.015625)"/>
       <path id="Arial-BoldMT-76" d="M 1372 0 
L 34 3319 
L 956 3319 
L 1581 1625 
L 1763 1059 
Q 1834 1275 1853 1344 
Q 1897 1484 1947 1625 
L 2578 3319 
L 3481 3319 
L 2163 0 
L 1372 0 
z
" transform="scale(0.015625)"/>
       <path id="Arial-BoldMT-65" d="M 2381 1056 
L 3256 909 
Q 3088 428 2723 176 
Q 2359 -75 1813 -75 
Q 947 -75 531 491 
Q 203 944 203 1634 
Q 203 2459 634 2926 
Q 1066 3394 1725 3394 
Q 2466 3394 2894 2905 
Q 3322 2416 3303 1406 
L 1103 1406 
Q 1113 1016 1316 798 
Q 1519 581 1822 581 
Q 2028 581 2168 693 
Q 2309 806 2381 1056 
z
M 2431 1944 
Q 2422 2325 2234 2523 
Q 2047 2722 1778 2722 
Q 1491 2722 1303 2513 
Q 1116 2303 1119 1944 
L 2431 1944 
z
" transform="scale(0.015625)"/>
       <path id="Arial-BoldMT-72" d="M 1300 0 
L 422 0 
L 422 3319 
L 1238 3319 
L 1238 2847 
Q 1447 3181 1614 3287 
Q 1781 3394 1994 3394 
Q 2294 3394 2572 3228 
L 2300 2463 
Q 2078 2606 1888 2606 
Q 1703 2606 1575 2504 
Q 1447 2403 1373 2137 
Q 1300 1872 1300 1025 
L 1300 0 
z
" transform="scale(0.015625)"/>
       <path id="Arial-BoldMT-73" d="M 150 947 
L 1031 1081 
Q 1088 825 1259 692 
Q 1431 559 1741 559 
Q 2081 559 2253 684 
Q 2369 772 2369 919 
Q 2369 1019 2306 1084 
Q 2241 1147 2013 1200 
Q 950 1434 666 1628 
Q 272 1897 272 2375 
Q 272 2806 612 3100 
Q 953 3394 1669 3394 
Q 2350 3394 2681 3172 
Q 3013 2950 3138 2516 
L 2309 2363 
Q 2256 2556 2107 2659 
Q 1959 2763 1684 2763 
Q 1338 2763 1188 2666 
Q 1088 2597 1088 2488 
Q 1088 2394 1175 2328 
Q 1294 2241 1995 2081 
Q 2697 1922 2975 1691 
Q 3250 1456 3250 1038 
Q 3250 581 2869 253 
Q 2488 -75 1741 -75 
Q 1063 -75 667 200 
Q 272 475 150 947 
z
" transform="scale(0.015625)"/>
       <path id="Arial-BoldMT-69" d="M 459 3769 
L 459 4581 
L 1338 4581 
L 1338 3769 
L 459 3769 
z
M 459 0 
L 459 3319 
L 1338 3319 
L 1338 0 
L 459 0 
z
" transform="scale(0.015625)"/>
       <path id="Arial-BoldMT-6f" d="M 256 1706 
Q 256 2144 472 2553 
Q 688 2963 1083 3178 
Q 1478 3394 1966 3394 
Q 2719 3394 3200 2905 
Q 3681 2416 3681 1669 
Q 3681 916 3195 420 
Q 2709 -75 1972 -75 
Q 1516 -75 1102 131 
Q 688 338 472 736 
Q 256 1134 256 1706 
z
M 1156 1659 
Q 1156 1166 1390 903 
Q 1625 641 1969 641 
Q 2313 641 2545 903 
Q 2778 1166 2778 1666 
Q 2778 2153 2545 2415 
Q 2313 2678 1969 2678 
Q 1625 2678 1390 2415 
Q 1156 2153 1156 1659 
z
" transform="scale(0.015625)"/>
       <path id="Arial-BoldMT-6e" d="M 3478 0 
L 2600 0 
L 2600 1694 
Q 2600 2231 2544 2389 
Q 2488 2547 2361 2634 
Q 2234 2722 2056 2722 
Q 1828 2722 1647 2597 
Q 1466 2472 1398 2265 
Q 1331 2059 1331 1503 
L 1331 0 
L 453 0 
L 453 3319 
L 1269 3319 
L 1269 2831 
Q 1703 3394 2363 3394 
Q 2653 3394 2893 3289 
Q 3134 3184 3257 3021 
Q 3381 2859 3429 2653 
Q 3478 2447 3478 2063 
L 3478 0 
z
" transform="scale(0.015625)"/>
       <path id="Arial-BoldMT-20" transform="scale(0.015625)"/>
       <path id="Arial-BoldMT-63" d="M 3353 2338 
L 2488 2181 
Q 2444 2441 2289 2572 
Q 2134 2703 1888 2703 
Q 1559 2703 1364 2476 
Q 1169 2250 1169 1719 
Q 1169 1128 1367 884 
Q 1566 641 1900 641 
Q 2150 641 2309 783 
Q 2469 925 2534 1272 
L 3397 1125 
Q 3263 531 2881 228 
Q 2500 -75 1859 -75 
Q 1131 -75 698 384 
Q 266 844 266 1656 
Q 266 2478 700 2936 
Q 1134 3394 1875 3394 
Q 2481 3394 2839 3133 
Q 3197 2872 3353 2338 
z
" transform="scale(0.015625)"/>
       <path id="Arial-BoldMT-28" d="M 1916 -1347 
L 1313 -1347 
Q 834 -625 584 153 
Q 334 931 334 1659 
Q 334 2563 644 3369 
Q 913 4069 1325 4659 
L 1925 4659 
Q 1497 3713 1336 3048 
Q 1175 2384 1175 1641 
Q 1175 1128 1270 590 
Q 1366 53 1531 -431 
Q 1641 -750 1916 -1347 
z
" transform="scale(0.015625)"/>
       <path id="Arial-BoldMT-2e" d="M 459 0 
L 459 878 
L 1338 878 
L 1338 0 
L 459 0 
z
" transform="scale(0.015625)"/>
       <path id="Arial-BoldMT-75" d="M 2644 0 
L 2644 497 
Q 2463 231 2167 78 
Q 1872 -75 1544 -75 
Q 1209 -75 943 72 
Q 678 219 559 484 
Q 441 750 441 1219 
L 441 3319 
L 1319 3319 
L 1319 1794 
Q 1319 1094 1367 936 
Q 1416 778 1544 686 
Q 1672 594 1869 594 
Q 2094 594 2272 717 
Q 2450 841 2515 1023 
Q 2581 1206 2581 1919 
L 2581 3319 
L 3459 3319 
L 3459 0 
L 2644 0 
z
" transform="scale(0.015625)"/>
       <path id="Arial-BoldMT-29" d="M 216 -1347 
Q 475 -791 581 -494 
Q 688 -197 778 190 
Q 869 578 912 926 
Q 956 1275 956 1641 
Q 956 2384 797 3048 
Q 638 3713 209 4659 
L 806 4659 
Q 1278 3988 1539 3234 
Q 1800 2481 1800 1706 
Q 1800 1053 1594 306 
Q 1359 -531 822 -1347 
L 216 -1347 
z
" transform="scale(0.015625)"/>
      </defs>
      <use xlink:href="#Arial-BoldMT-61"/>
      <use xlink:href="#Arial-BoldMT-64" x="55.615234"/>
      <use xlink:href="#Arial-BoldMT-76" x="116.699219"/>
      <use xlink:href="#Arial-BoldMT-65" x="172.314453"/>
      <use xlink:href="#Arial-BoldMT-72" x="227.929688"/>
      <use xlink:href="#Arial-BoldMT-73" x="266.845703"/>
      <use xlink:href="#Arial-BoldMT-69" x="322.460938"/>
      <use xlink:href="#Arial-BoldMT-6f" x="350.244141"/>
      <use xlink:href="#Arial-BoldMT-6e" x="411.328125"/>
      <use xlink:href="#Arial-BoldMT-20" x="472.412109"/>
      <use xlink:href="#Arial-BoldMT-73" x="500.195312"/>
      <use xlink:href="#Arial-BoldMT-63" x="555.810547"/>
      <use xlink:href="#Arial-BoldMT-6f" x="611.425781"/>
      <use xlink:href="#Arial-BoldMT-72" x="672.509766"/>
      <use xlink:href="#Arial-BoldMT-65" x="711.425781"/>
      <use xlink:href="#Arial-BoldMT-20" x="767.041016"/>
      <use xlink:href="#Arial-BoldMT-28" x="794.824219"/>
      <use xlink:href="#Arial-BoldMT-61" x="828.125"/>
      <use xlink:href="#Arial-BoldMT-2e" x="883.740234"/>
      <use xlink:href="#Arial-BoldMT-75" x="911.523438"/>
      <use xlink:href="#Arial-BoldMT-2e" x="972.607422"/>
      <use xlink:href="#Arial-BoldMT-29" x="1000.390625"/>
     </g>
    </g>
   </g>
   <g id="PathCollection_1">
    <defs>
     <path id="C0_0_b4165a65b4" d="M 0 3.5 
C 0.928211 3.5 1.81853 3.131218 2.474874 2.474874 
C 3.131218 1.81853 3.5 0.928211 3.5 -0 
C 3.5 -0.928211 3.131218 -1.81853 2.474874 -2.474874 
C 1.81853 -3.131218 0.928211 -3.5 0 -3.5 
C -0.928211 -3.5 -1.81853 -3.131218 -2.474874 -2.474874 
C -3.131218 -1.81853 -3.5 -0.928211 -3.5 0 
C -3.5 0.928211 -3.131218 1.81853 -2.474874 2.474874 
C -1.81853 3.131218 -0.928211 3.5 0 3.5 
z
"/>
    </defs>
    <g clip-path="url(#pda1d5f71ea)">
     <use xlink:href="#C0_0_b4165a65b4" x="35.230475" y="60.453034" style="fill: #bc8f8f; fill-opacity: 0.7"/>
    </g>
    <g clip-path="url(#pda1d5f71ea)">
     <use xlink:href="#C0_0_b4165a65b4" x="35.534147" y="54.33673" style="fill: #bc8f8f; fill-opacity: 0.7"/>
    </g>
    <g clip-path="url(#pda1d5f71ea)">
     <use xlink:href="#C0_0_b4165a65b4" x="35.583508" y="54.33673" style="fill: #bc8f8f; fill-opacity: 0.7"/>
    </g>
    <g clip-path="url(#pda1d5f71ea)">
     <use xlink:href="#C0_0_b4165a65b4" x="39.741485" y="66.569338" style="fill: #bc8f8f; fill-opacity: 0.7"/>
    </g>
    <g clip-path="url(#pda1d5f71ea)">
     <use xlink:href="#C0_0_b4165a65b4" x="37.723457" y="54.33673" style="fill: #bc8f8f; fill-opacity: 0.7"/>
    </g>
    <g clip-path="url(#pda1d5f71ea)">
     <use xlink:href="#C0_0_b4165a65b4" x="38.113376" y="103.267163" style="fill: #bc8f8f; fill-opacity: 0.7"/>
    </g>
    <g clip-path="url(#pda1d5f71ea)">
     <use xlink:href="#C0_0_b4165a65b4" x="36.004186" y="66.569338" style="fill: #bc8f8f; fill-opacity: 0.7"/>
    </g>
    <g clip-path="url(#pda1d5f71ea)">
     <use xlink:href="#C0_0_b4165a65b4" x="35.283523" y="60.453034" style="fill: #bc8f8f; fill-opacity: 0.7"/>
    </g>
    <g clip-path="url(#pda1d5f71ea)">
     <use xlink:href="#C0_0_b4165a65b4" x="39.31767" y="60.453034" style="fill: #bc8f8f; fill-opacity: 0.7"/>
    </g>
    <g clip-path="url(#pda1d5f71ea)">
     <use xlink:href="#C0_0_b4165a65b4" x="39.984989" y="72.685642" style="fill: #bc8f8f; fill-opacity: 0.7"/>
    </g>
    <g clip-path="url(#pda1d5f71ea)">
     <use xlink:href="#C0_0_b4165a65b4" x="38.058661" y="100.209011" style="fill: #bc8f8f; fill-opacity: 0.7"/>
    </g>
    <g clip-path="url(#pda1d5f71ea)">
     <use xlink:href="#C0_0_b4165a65b4" x="38.236021" y="54.33673" style="fill: #bc8f8f; fill-opacity: 0.7"/>
    </g>
    <g clip-path="url(#pda1d5f71ea)">
     <use xlink:href="#C0_0_b4165a65b4" x="36.885776" y="54.33673" style="fill: #bc8f8f; fill-opacity: 0.7"/>
    </g>
    <g clip-path="url(#pda1d5f71ea)">
     <use xlink:href="#C0_0_b4165a65b4" x="36.810852" y="42.715752" style="fill: #bc8f8f; fill-opacity: 0.7"/>
    </g>
    <g clip-path="url(#pda1d5f71ea)">
     <use xlink:href="#C0_0_b4165a65b4" x="40.091339" y="54.33673" style="fill: #bc8f8f; fill-opacity: 0.7"/>
    </g>
    <g clip-path="url(#pda1d5f71ea)">
     <use xlink:href="#C0_0_b4165a65b4" x="36.677642" y="97.150859" style="fill: #bc8f8f; fill-opacity: 0.7"/>
    </g>
    <g clip-path="url(#pda1d5f71ea)">
     <use xlink:href="#C0_0_b4165a65b4" x="39.502372" y="54.33673" style="fill: #bc8f8f; fill-opacity: 0.7"/>
    </g>
    <g clip-path="url(#pda1d5f71ea)">
     <use xlink:href="#C0_0_b4165a65b4" x="36.403966" y="54.33673" style="fill: #bc8f8f; fill-opacity: 0.7"/>
    </g>
    <g clip-path="url(#pda1d5f71ea)">
     <use xlink:href="#C0_0_b4165a65b4" x="39.023555" y="54.33673" style="fill: #bc8f8f; fill-opacity: 0.7"/>
    </g>
    <g clip-path="url(#pda1d5f71ea)">
     <use xlink:href="#C0_0_b4165a65b4" x="38.835909" y="48.220426" style="fill: #bc8f8f; fill-opacity: 0.7"/>
    </g>
    <g clip-path="url(#pda1d5f71ea)">
     <use xlink:href="#C0_0_b4165a65b4" x="36.047597" y="54.33673" style="fill: #bc8f8f; fill-opacity: 0.7"/>
    </g>
    <g clip-path="url(#pda1d5f71ea)">
     <use xlink:href="#C0_0_b4165a65b4" x="38.883094" y="54.33673" style="fill: #bc8f8f; fill-opacity: 0.7"/>
    </g>
    <g clip-path="url(#pda1d5f71ea)">
     <use xlink:href="#C0_0_b4165a65b4" x="40.354409" y="60.453034" style="fill: #bc8f8f; fill-opacity: 0.7"/>
    </g>
    <g clip-path="url(#pda1d5f71ea)">
     <use xlink:href="#C0_0_b4165a65b4" x="38.201366" y="103.267163" style="fill: #bc8f8f; fill-opacity: 0.7"/>
    </g>
    <g clip-path="url(#pda1d5f71ea)">
     <use xlink:href="#C0_0_b4165a65b4" x="37.69911" y="72.685642" style="fill: #bc8f8f; fill-opacity: 0.7"/>
    </g>
    <g clip-path="url(#pda1d5f71ea)">
     <use xlink:href="#C0_0_b4165a65b4" x="39.782225" y="72.685642" style="fill: #bc8f8f; fill-opacity: 0.7"/>
    </g>
    <g clip-path="url(#pda1d5f71ea)">
     <use xlink:href="#C0_0_b4165a65b4" x="38.337849" y="54.33673" style="fill: #bc8f8f; fill-opacity: 0.7"/>
    </g>
    <g clip-path="url(#pda1d5f71ea)">
     <use xlink:href="#C0_0_b4165a65b4" x="41.206701" y="103.267163" style="fill: #bc8f8f; fill-opacity: 0.7"/>
    </g>
    <g clip-path="url(#pda1d5f71ea)">
     <use xlink:href="#C0_0_b4165a65b4" x="38.090683" y="91.034555" style="fill: #bc8f8f; fill-opacity: 0.7"/>
    </g>
    <g clip-path="url(#pda1d5f71ea)">
     <use xlink:href="#C0_0_b4165a65b4" x="37.577454" y="103.267163" style="fill: #bc8f8f; fill-opacity: 0.7"/>
    </g>
    <g clip-path="url(#pda1d5f71ea)">
     <use xlink:href="#C0_0_b4165a65b4" x="38.005169" y="84.918251" style="fill: #bc8f8f; fill-opacity: 0.7"/>
    </g>
    <g clip-path="url(#pda1d5f71ea)">
     <use xlink:href="#C0_0_b4165a65b4" x="39.161225" y="94.092707" style="fill: #bc8f8f; fill-opacity: 0.7"/>
    </g>
    <g clip-path="url(#pda1d5f71ea)">
     <use xlink:href="#C0_0_b4165a65b4" x="40.380834" y="103.267163" style="fill: #bc8f8f; fill-opacity: 0.7"/>
    </g>
    <g clip-path="url(#pda1d5f71ea)">
     <use xlink:href="#C0_0_b4165a65b4" x="40.262392" y="91.034555" style="fill: #bc8f8f; fill-opacity: 0.7"/>
    </g>
    <g clip-path="url(#pda1d5f71ea)">
     <use xlink:href="#C0_0_b4165a65b4" x="35.898008" y="103.267163" style="fill: #bc8f8f; fill-opacity: 0.7"/>
    </g>
    <g clip-path="url(#pda1d5f71ea)">
     <use xlink:href="#C0_0_b4165a65b4" x="36.444953" y="91.034555" style="fill: #bc8f8f; fill-opacity: 0.7"/>
    </g>
    <g clip-path="url(#pda1d5f71ea)">
     <use xlink:href="#C0_0_b4165a65b4" x="40.581745" y="81.860099" style="fill: #bc8f8f; fill-opacity: 0.7"/>
    </g>
    <g clip-path="url(#pda1d5f71ea)">
     <use xlink:href="#C0_0_b4165a65b4" x="38.307776" y="103.267163" style="fill: #bc8f8f; fill-opacity: 0.7"/>
    </g>
    <g clip-path="url(#pda1d5f71ea)">
     <use xlink:href="#C0_0_b4165a65b4" x="40.827553" y="94.092707" style="fill: #bc8f8f; fill-opacity: 0.7"/>
    </g>
   </g>
   <g id="PathCollection_2">
    <defs>
     <path id="C1_0_9f4f7e0b22" d="M 0 3.5 
C 0.928211 3.5 1.81853 3.131218 2.474874 2.474874 
C 3.131218 1.81853 3.5 0.928211 3.5 -0 
C 3.5 -0.928211 3.131218 -1.81853 2.474874 -2.474874 
C 1.81853 -3.131218 0.928211 -3.5 0 -3.5 
C -0.928211 -3.5 -1.81853 -3.131218 -2.474874 -2.474874 
C -3.131218 -1.81853 -3.5 -0.928211 -3.5 0 
C -3.5 0.928211 -3.131218 1.81853 -2.474874 2.474874 
C -1.81853 3.131218 -0.928211 3.5 0 3.5 
z
"/>
    </defs>
    <g clip-path="url(#pda1d5f71ea)">
     <use xlink:href="#C1_0_9f4f7e0b22" x="60.780578" y="48.220426" style="fill: #708090; fill-opacity: 0.7"/>
    </g>
    <g clip-path="url(#pda1d5f71ea)">
     <use xlink:href="#C1_0_9f4f7e0b22" x="61.803727" y="42.104122" style="fill: #708090; fill-opacity: 0.7"/>
    </g>
    <g clip-path="url(#pda1d5f71ea)">
     <use xlink:href="#C1_0_9f4f7e0b22" x="64.854383" y="66.569338" style="fill: #708090; fill-opacity: 0.7"/>
    </g>
    <g clip-path="url(#pda1d5f71ea)">
     <use xlink:href="#C1_0_9f4f7e0b22" x="63.646584" y="42.104122" style="fill: #708090; fill-opacity: 0.7"/>
    </g>
    <g clip-path="url(#pda1d5f71ea)">
     <use xlink:href="#C1_0_9f4f7e0b22" x="65.569954" y="103.267163" style="fill: #708090; fill-opacity: 0.7"/>
    </g>
    <g clip-path="url(#pda1d5f71ea)">
     <use xlink:href="#C1_0_9f4f7e0b22" x="64.699527" y="66.569338" style="fill: #708090; fill-opacity: 0.7"/>
    </g>
    <g clip-path="url(#pda1d5f71ea)">
     <use xlink:href="#C1_0_9f4f7e0b22" x="64.625124" y="48.220426" style="fill: #708090; fill-opacity: 0.7"/>
    </g>
    <g clip-path="url(#pda1d5f71ea)">
     <use xlink:href="#C1_0_9f4f7e0b22" x="63.885019" y="72.685642" style="fill: #708090; fill-opacity: 0.7"/>
    </g>
    <g clip-path="url(#pda1d5f71ea)">
     <use xlink:href="#C1_0_9f4f7e0b22" x="65.13377" y="100.209011" style="fill: #708090; fill-opacity: 0.7"/>
    </g>
    <g clip-path="url(#pda1d5f71ea)">
     <use xlink:href="#C1_0_9f4f7e0b22" x="63.638493" y="42.104122" style="fill: #708090; fill-opacity: 0.7"/>
    </g>
    <g clip-path="url(#pda1d5f71ea)">
     <use xlink:href="#C1_0_9f4f7e0b22" x="60.232608" y="42.104122" style="fill: #708090; fill-opacity: 0.7"/>
    </g>
    <g clip-path="url(#pda1d5f71ea)">
     <use xlink:href="#C1_0_9f4f7e0b22" x="65.228383" y="42.715752" style="fill: #708090; fill-opacity: 0.7"/>
    </g>
    <g clip-path="url(#pda1d5f71ea)">
     <use xlink:href="#C1_0_9f4f7e0b22" x="64.66496" y="42.104122" style="fill: #708090; fill-opacity: 0.7"/>
    </g>
    <g clip-path="url(#pda1d5f71ea)">
     <use xlink:href="#C1_0_9f4f7e0b22" x="62.427887" y="48.220426" style="fill: #708090; fill-opacity: 0.7"/>
    </g>
    <g clip-path="url(#pda1d5f71ea)">
     <use xlink:href="#C1_0_9f4f7e0b22" x="63.211456" y="42.104122" style="fill: #708090; fill-opacity: 0.7"/>
    </g>
    <g clip-path="url(#pda1d5f71ea)">
     <use xlink:href="#C1_0_9f4f7e0b22" x="63.768597" y="42.104122" style="fill: #708090; fill-opacity: 0.7"/>
    </g>
    <g clip-path="url(#pda1d5f71ea)">
     <use xlink:href="#C1_0_9f4f7e0b22" x="61.907927" y="60.453034" style="fill: #708090; fill-opacity: 0.7"/>
    </g>
    <g clip-path="url(#pda1d5f71ea)">
     <use xlink:href="#C1_0_9f4f7e0b22" x="62.297633" y="42.104122" style="fill: #708090; fill-opacity: 0.7"/>
    </g>
    <g clip-path="url(#pda1d5f71ea)">
     <use xlink:href="#C1_0_9f4f7e0b22" x="62.322623" y="48.220426" style="fill: #708090; fill-opacity: 0.7"/>
    </g>
    <g clip-path="url(#pda1d5f71ea)">
     <use xlink:href="#C1_0_9f4f7e0b22" x="61.281117" y="103.267163" style="fill: #708090; fill-opacity: 0.7"/>
    </g>
    <g clip-path="url(#pda1d5f71ea)">
     <use xlink:href="#C1_0_9f4f7e0b22" x="64.388312" y="72.685642" style="fill: #708090; fill-opacity: 0.7"/>
    </g>
    <g clip-path="url(#pda1d5f71ea)">
     <use xlink:href="#C1_0_9f4f7e0b22" x="63.332514" y="72.685642" style="fill: #708090; fill-opacity: 0.7"/>
    </g>
    <g clip-path="url(#pda1d5f71ea)">
     <use xlink:href="#C1_0_9f4f7e0b22" x="64.023939" y="42.104122" style="fill: #708090; fill-opacity: 0.7"/>
    </g>
    <g clip-path="url(#pda1d5f71ea)">
     <use xlink:href="#C1_0_9f4f7e0b22" x="61.56285" y="48.220426" style="fill: #708090; fill-opacity: 0.7"/>
    </g>
    <g clip-path="url(#pda1d5f71ea)">
     <use xlink:href="#C1_0_9f4f7e0b22" x="62.141911" y="78.801947" style="fill: #708090; fill-opacity: 0.7"/>
    </g>
    <g clip-path="url(#pda1d5f71ea)">
     <use xlink:href="#C1_0_9f4f7e0b22" x="63.563251" y="84.918251" style="fill: #708090; fill-opacity: 0.7"/>
    </g>
    <g clip-path="url(#pda1d5f71ea)">
     <use xlink:href="#C1_0_9f4f7e0b22" x="64.196833" y="103.267163" style="fill: #708090; fill-opacity: 0.7"/>
    </g>
    <g clip-path="url(#pda1d5f71ea)">
     <use xlink:href="#C1_0_9f4f7e0b22" x="62.68006" y="66.569338" style="fill: #708090; fill-opacity: 0.7"/>
    </g>
    <g clip-path="url(#pda1d5f71ea)">
     <use xlink:href="#C1_0_9f4f7e0b22" x="63.418281" y="84.918251" style="fill: #708090; fill-opacity: 0.7"/>
    </g>
    <g clip-path="url(#pda1d5f71ea)">
     <use xlink:href="#C1_0_9f4f7e0b22" x="59.780267" y="91.034555" style="fill: #708090; fill-opacity: 0.7"/>
    </g>
    <g clip-path="url(#pda1d5f71ea)">
     <use xlink:href="#C1_0_9f4f7e0b22" x="61.029699" y="97.150859" style="fill: #708090; fill-opacity: 0.7"/>
    </g>
    <g clip-path="url(#pda1d5f71ea)">
     <use xlink:href="#C1_0_9f4f7e0b22" x="61.597082" y="72.685642" style="fill: #708090; fill-opacity: 0.7"/>
    </g>
    <g clip-path="url(#pda1d5f71ea)">
     <use xlink:href="#C1_0_9f4f7e0b22" x="65.054807" y="87.976403" style="fill: #708090; fill-opacity: 0.7"/>
    </g>
    <g clip-path="url(#pda1d5f71ea)">
     <use xlink:href="#C1_0_9f4f7e0b22" x="61.177981" y="75.743794" style="fill: #708090; fill-opacity: 0.7"/>
    </g>
    <g clip-path="url(#pda1d5f71ea)">
     <use xlink:href="#C1_0_9f4f7e0b22" x="64.570388" y="78.801947" style="fill: #708090; fill-opacity: 0.7"/>
    </g>
    <g clip-path="url(#pda1d5f71ea)">
     <use xlink:href="#C1_0_9f4f7e0b22" x="62.223809" y="84.918251" style="fill: #708090; fill-opacity: 0.7"/>
    </g>
    <g clip-path="url(#pda1d5f71ea)">
     <use xlink:href="#C1_0_9f4f7e0b22" x="64.665109" y="60.453034" style="fill: #708090; fill-opacity: 0.7"/>
    </g>
    <g clip-path="url(#pda1d5f71ea)">
     <use xlink:href="#C1_0_9f4f7e0b22" x="61.845166" y="91.034555" style="fill: #708090; fill-opacity: 0.7"/>
    </g>
    <g clip-path="url(#pda1d5f71ea)">
     <use xlink:href="#C1_0_9f4f7e0b22" x="63.397592" y="72.685642" style="fill: #708090; fill-opacity: 0.7"/>
    </g>
    <g clip-path="url(#pda1d5f71ea)">
     <use xlink:href="#C1_0_9f4f7e0b22" x="64.336279" y="87.976403" style="fill: #708090; fill-opacity: 0.7"/>
    </g>
    <g clip-path="url(#pda1d5f71ea)">
     <use xlink:href="#C1_0_9f4f7e0b22" x="64.385858" y="84.918251" style="fill: #708090; fill-opacity: 0.7"/>
    </g>
    <g clip-path="url(#pda1d5f71ea)">
     <use xlink:href="#C1_0_9f4f7e0b22" x="61.264769" y="78.801947" style="fill: #708090; fill-opacity: 0.7"/>
    </g>
   </g>
   <g id="PathCollection_3">
    <defs>
     <path id="C2_0_3b9dea5ae8" d="M 0 3.5 
C 0.928211 3.5 1.81853 3.131218 2.474874 2.474874 
C 3.131218 1.81853 3.5 0.928211 3.5 -0 
C 3.5 -0.928211 3.131218 -1.81853 2.474874 -2.474874 
C 1.81853 -3.131218 0.928211 -3.5 0 -3.5 
C -0.928211 -3.5 -1.81853 -3.131218 -2.474874 -2.474874 
C -3.131218 -1.81853 -3.5 -0.928211 -3.5 0 
C -3.5 0.928211 -3.131218 1.81853 -2.474874 2.474874 
C -1.81853 3.131218 -0.928211 3.5 0 3.5 
z
"/>
    </defs>
    <g clip-path="url(#pda1d5f71ea)">
     <use xlink:href="#C2_0_3b9dea5ae8" x="96.821143" y="72.685642" style="fill: #bc8f8f; fill-opacity: 0.7"/>
    </g>
    <g clip-path="url(#pda1d5f71ea)">
     <use xlink:href="#C2_0_3b9dea5ae8" x="97.566407" y="60.453034" style="fill: #bc8f8f; fill-opacity: 0.7"/>
    </g>
    <g clip-path="url(#pda1d5f71ea)">
     <use xlink:href="#C2_0_3b9dea5ae8" x="97.325928" y="87.976403" style="fill: #bc8f8f; fill-opacity: 0.7"/>
    </g>
    <g clip-path="url(#pda1d5f71ea)">
     <use xlink:href="#C2_0_3b9dea5ae8" x="101.749102" y="72.685642" style="fill: #bc8f8f; fill-opacity: 0.7"/>
    </g>
    <g clip-path="url(#pda1d5f71ea)">
     <use xlink:href="#C2_0_3b9dea5ae8" x="99.885814" y="54.33673" style="fill: #bc8f8f; fill-opacity: 0.7"/>
    </g>
    <g clip-path="url(#pda1d5f71ea)">
     <use xlink:href="#C2_0_3b9dea5ae8" x="100.640067" y="81.860099" style="fill: #bc8f8f; fill-opacity: 0.7"/>
    </g>
    <g clip-path="url(#pda1d5f71ea)">
     <use xlink:href="#C2_0_3b9dea5ae8" x="98.34639" y="60.453034" style="fill: #bc8f8f; fill-opacity: 0.7"/>
    </g>
    <g clip-path="url(#pda1d5f71ea)">
     <use xlink:href="#C2_0_3b9dea5ae8" x="98.66445" y="66.569338" style="fill: #bc8f8f; fill-opacity: 0.7"/>
    </g>
    <g clip-path="url(#pda1d5f71ea)">
     <use xlink:href="#C2_0_3b9dea5ae8" x="98.514856" y="100.209011" style="fill: #bc8f8f; fill-opacity: 0.7"/>
    </g>
    <g clip-path="url(#pda1d5f71ea)">
     <use xlink:href="#C2_0_3b9dea5ae8" x="100.635916" y="97.150859" style="fill: #bc8f8f; fill-opacity: 0.7"/>
    </g>
    <g clip-path="url(#pda1d5f71ea)">
     <use xlink:href="#C2_0_3b9dea5ae8" x="99.346597" y="60.453034" style="fill: #bc8f8f; fill-opacity: 0.7"/>
    </g>
    <g clip-path="url(#pda1d5f71ea)">
     <use xlink:href="#C2_0_3b9dea5ae8" x="101.643608" y="51.278578" style="fill: #bc8f8f; fill-opacity: 0.7"/>
    </g>
    <g clip-path="url(#pda1d5f71ea)">
     <use xlink:href="#C2_0_3b9dea5ae8" x="102.147123" y="60.453034" style="fill: #bc8f8f; fill-opacity: 0.7"/>
    </g>
    <g clip-path="url(#pda1d5f71ea)">
     <use xlink:href="#C2_0_3b9dea5ae8" x="98.825005" y="72.685642" style="fill: #bc8f8f; fill-opacity: 0.7"/>
    </g>
    <g clip-path="url(#pda1d5f71ea)">
     <use xlink:href="#C2_0_3b9dea5ae8" x="98.314122" y="91.034555" style="fill: #bc8f8f; fill-opacity: 0.7"/>
    </g>
    <g clip-path="url(#pda1d5f71ea)">
     <use xlink:href="#C2_0_3b9dea5ae8" x="102.116792" y="66.569338" style="fill: #bc8f8f; fill-opacity: 0.7"/>
    </g>
    <g clip-path="url(#pda1d5f71ea)">
     <use xlink:href="#C2_0_3b9dea5ae8" x="98.528213" y="72.685642" style="fill: #bc8f8f; fill-opacity: 0.7"/>
    </g>
    <g clip-path="url(#pda1d5f71ea)">
     <use xlink:href="#C2_0_3b9dea5ae8" x="100.260197" y="57.394882" style="fill: #bc8f8f; fill-opacity: 0.7"/>
    </g>
    <g clip-path="url(#pda1d5f71ea)">
     <use xlink:href="#C2_0_3b9dea5ae8" x="101.442598" y="78.801947" style="fill: #bc8f8f; fill-opacity: 0.7"/>
    </g>
    <g clip-path="url(#pda1d5f71ea)">
     <use xlink:href="#C2_0_3b9dea5ae8" x="99.120932" y="78.801947" style="fill: #bc8f8f; fill-opacity: 0.7"/>
    </g>
    <g clip-path="url(#pda1d5f71ea)">
     <use xlink:href="#C2_0_3b9dea5ae8" x="101.320745" y="42.104122" style="fill: #bc8f8f; fill-opacity: 0.7"/>
    </g>
    <g clip-path="url(#pda1d5f71ea)">
     <use xlink:href="#C2_0_3b9dea5ae8" x="96.783926" y="66.569338" style="fill: #bc8f8f; fill-opacity: 0.7"/>
    </g>
    <g clip-path="url(#pda1d5f71ea)">
     <use xlink:href="#C2_0_3b9dea5ae8" x="97.518571" y="60.453034" style="fill: #bc8f8f; fill-opacity: 0.7"/>
    </g>
    <g clip-path="url(#pda1d5f71ea)">
     <use xlink:href="#C2_0_3b9dea5ae8" x="101.723048" y="84.918251" style="fill: #bc8f8f; fill-opacity: 0.7"/>
    </g>
    <g clip-path="url(#pda1d5f71ea)">
     <use xlink:href="#C2_0_3b9dea5ae8" x="96.976864" y="72.685642" style="fill: #bc8f8f; fill-opacity: 0.7"/>
    </g>
    <g clip-path="url(#pda1d5f71ea)">
     <use xlink:href="#C2_0_3b9dea5ae8" x="96.533952" y="81.860099" style="fill: #bc8f8f; fill-opacity: 0.7"/>
    </g>
    <g clip-path="url(#pda1d5f71ea)">
     <use xlink:href="#C2_0_3b9dea5ae8" x="97.610117" y="91.034555" style="fill: #bc8f8f; fill-opacity: 0.7"/>
    </g>
    <g clip-path="url(#pda1d5f71ea)">
     <use xlink:href="#C2_0_3b9dea5ae8" x="100.071261" y="60.453034" style="fill: #bc8f8f; fill-opacity: 0.7"/>
    </g>
    <g clip-path="url(#pda1d5f71ea)">
     <use xlink:href="#C2_0_3b9dea5ae8" x="97.207559" y="63.511186" style="fill: #bc8f8f; fill-opacity: 0.7"/>
    </g>
    <g clip-path="url(#pda1d5f71ea)">
     <use xlink:href="#C2_0_3b9dea5ae8" x="102.347367" y="97.150859" style="fill: #bc8f8f; fill-opacity: 0.7"/>
    </g>
    <g clip-path="url(#pda1d5f71ea)">
     <use xlink:href="#C2_0_3b9dea5ae8" x="100.860482" y="84.918251" style="fill: #bc8f8f; fill-opacity: 0.7"/>
    </g>
    <g clip-path="url(#pda1d5f71ea)">
     <use xlink:href="#C2_0_3b9dea5ae8" x="98.864422" y="66.569338" style="fill: #bc8f8f; fill-opacity: 0.7"/>
    </g>
    <g clip-path="url(#pda1d5f71ea)">
     <use xlink:href="#C2_0_3b9dea5ae8" x="98.706059" y="51.278578" style="fill: #bc8f8f; fill-opacity: 0.7"/>
    </g>
    <g clip-path="url(#pda1d5f71ea)">
     <use xlink:href="#C2_0_3b9dea5ae8" x="100.393114" y="78.801947" style="fill: #bc8f8f; fill-opacity: 0.7"/>
    </g>
    <g clip-path="url(#pda1d5f71ea)">
     <use xlink:href="#C2_0_3b9dea5ae8" x="97.817319" y="84.918251" style="fill: #bc8f8f; fill-opacity: 0.7"/>
    </g>
    <g clip-path="url(#pda1d5f71ea)">
     <use xlink:href="#C2_0_3b9dea5ae8" x="102.299069" y="91.034555" style="fill: #bc8f8f; fill-opacity: 0.7"/>
    </g>
    <g clip-path="url(#pda1d5f71ea)">
     <use xlink:href="#C2_0_3b9dea5ae8" x="101.198324" y="91.034555" style="fill: #bc8f8f; fill-opacity: 0.7"/>
    </g>
    <g clip-path="url(#pda1d5f71ea)">
     <use xlink:href="#C2_0_3b9dea5ae8" x="102.195663" y="72.685642" style="fill: #bc8f8f; fill-opacity: 0.7"/>
    </g>
    <g clip-path="url(#pda1d5f71ea)">
     <use xlink:href="#C2_0_3b9dea5ae8" x="102.019326" y="87.976403" style="fill: #bc8f8f; fill-opacity: 0.7"/>
    </g>
    <g clip-path="url(#pda1d5f71ea)">
     <use xlink:href="#C2_0_3b9dea5ae8" x="97.877443" y="97.150859" style="fill: #bc8f8f; fill-opacity: 0.7"/>
    </g>
    <g clip-path="url(#pda1d5f71ea)">
     <use xlink:href="#C2_0_3b9dea5ae8" x="99.236233" y="84.918251" style="fill: #bc8f8f; fill-opacity: 0.7"/>
    </g>
   </g>
   <g id="PathCollection_4">
    <defs>
     <path id="C3_0_ca02f4d5a0" d="M 0 3.5 
C 0.928211 3.5 1.81853 3.131218 2.474874 2.474874 
C 3.131218 1.81853 3.5 0.928211 3.5 -0 
C 3.5 -0.928211 3.131218 -1.81853 2.474874 -2.474874 
C 1.81853 -3.131218 0.928211 -3.5 0 -3.5 
C -0.928211 -3.5 -1.81853 -3.131218 -2.474874 -2.474874 
C -3.131218 -1.81853 -3.5 -0.928211 -3.5 0 
C -3.5 0.928211 -3.131218 1.81853 -2.474874 2.474874 
C -1.81853 3.131218 -0.928211 3.5 0 3.5 
z
"/>
    </defs>
    <g clip-path="url(#pda1d5f71ea)">
     <use xlink:href="#C3_0_ca02f4d5a0" x="123.639748" y="72.685642" style="fill: #708090; fill-opacity: 0.7"/>
    </g>
    <g clip-path="url(#pda1d5f71ea)">
     <use xlink:href="#C3_0_ca02f4d5a0" x="125.506077" y="60.453034" style="fill: #708090; fill-opacity: 0.7"/>
    </g>
    <g clip-path="url(#pda1d5f71ea)">
     <use xlink:href="#C3_0_ca02f4d5a0" x="124.073033" y="72.685642" style="fill: #708090; fill-opacity: 0.7"/>
    </g>
    <g clip-path="url(#pda1d5f71ea)">
     <use xlink:href="#C3_0_ca02f4d5a0" x="123.16217" y="54.33673" style="fill: #708090; fill-opacity: 0.7"/>
    </g>
    <g clip-path="url(#pda1d5f71ea)">
     <use xlink:href="#C3_0_ca02f4d5a0" x="124.331176" y="81.860099" style="fill: #708090; fill-opacity: 0.7"/>
    </g>
    <g clip-path="url(#pda1d5f71ea)">
     <use xlink:href="#C3_0_ca02f4d5a0" x="125.913792" y="97.150859" style="fill: #708090; fill-opacity: 0.7"/>
    </g>
    <g clip-path="url(#pda1d5f71ea)">
     <use xlink:href="#C3_0_ca02f4d5a0" x="122.285736" y="66.569338" style="fill: #708090; fill-opacity: 0.7"/>
    </g>
    <g clip-path="url(#pda1d5f71ea)">
     <use xlink:href="#C3_0_ca02f4d5a0" x="121.286153" y="100.209011" style="fill: #708090; fill-opacity: 0.7"/>
    </g>
    <g clip-path="url(#pda1d5f71ea)">
     <use xlink:href="#C3_0_ca02f4d5a0" x="125.959886" y="97.150859" style="fill: #708090; fill-opacity: 0.7"/>
    </g>
    <g clip-path="url(#pda1d5f71ea)">
     <use xlink:href="#C3_0_ca02f4d5a0" x="123.539534" y="60.453034" style="fill: #708090; fill-opacity: 0.7"/>
    </g>
    <g clip-path="url(#pda1d5f71ea)">
     <use xlink:href="#C3_0_ca02f4d5a0" x="123.805822" y="51.278578" style="fill: #708090; fill-opacity: 0.7"/>
    </g>
    <g clip-path="url(#pda1d5f71ea)">
     <use xlink:href="#C3_0_ca02f4d5a0" x="127.003112" y="60.453034" style="fill: #708090; fill-opacity: 0.7"/>
    </g>
    <g clip-path="url(#pda1d5f71ea)">
     <use xlink:href="#C3_0_ca02f4d5a0" x="123.972136" y="72.685642" style="fill: #708090; fill-opacity: 0.7"/>
    </g>
    <g clip-path="url(#pda1d5f71ea)">
     <use xlink:href="#C3_0_ca02f4d5a0" x="124.252765" y="91.034555" style="fill: #708090; fill-opacity: 0.7"/>
    </g>
    <g clip-path="url(#pda1d5f71ea)">
     <use xlink:href="#C3_0_ca02f4d5a0" x="124.029823" y="66.569338" style="fill: #708090; fill-opacity: 0.7"/>
    </g>
    <g clip-path="url(#pda1d5f71ea)">
     <use xlink:href="#C3_0_ca02f4d5a0" x="123.018957" y="72.685642" style="fill: #708090; fill-opacity: 0.7"/>
    </g>
    <g clip-path="url(#pda1d5f71ea)">
     <use xlink:href="#C3_0_ca02f4d5a0" x="123.620591" y="60.453034" style="fill: #708090; fill-opacity: 0.7"/>
    </g>
    <g clip-path="url(#pda1d5f71ea)">
     <use xlink:href="#C3_0_ca02f4d5a0" x="121.291817" y="57.394882" style="fill: #708090; fill-opacity: 0.7"/>
    </g>
    <g clip-path="url(#pda1d5f71ea)">
     <use xlink:href="#C3_0_ca02f4d5a0" x="123.461432" y="78.801947" style="fill: #708090; fill-opacity: 0.7"/>
    </g>
    <g clip-path="url(#pda1d5f71ea)">
     <use xlink:href="#C3_0_ca02f4d5a0" x="122.927061" y="78.801947" style="fill: #708090; fill-opacity: 0.7"/>
    </g>
    <g clip-path="url(#pda1d5f71ea)">
     <use xlink:href="#C3_0_ca02f4d5a0" x="124.340985" y="42.104122" style="fill: #708090; fill-opacity: 0.7"/>
    </g>
    <g clip-path="url(#pda1d5f71ea)">
     <use xlink:href="#C3_0_ca02f4d5a0" x="122.790465" y="66.569338" style="fill: #708090; fill-opacity: 0.7"/>
    </g>
    <g clip-path="url(#pda1d5f71ea)">
     <use xlink:href="#C3_0_ca02f4d5a0" x="122.901646" y="66.569338" style="fill: #708090; fill-opacity: 0.7"/>
    </g>
    <g clip-path="url(#pda1d5f71ea)">
     <use xlink:href="#C3_0_ca02f4d5a0" x="121.228561" y="60.453034" style="fill: #708090; fill-opacity: 0.7"/>
    </g>
    <g clip-path="url(#pda1d5f71ea)">
     <use xlink:href="#C3_0_ca02f4d5a0" x="121.970097" y="84.918251" style="fill: #708090; fill-opacity: 0.7"/>
    </g>
    <g clip-path="url(#pda1d5f71ea)">
     <use xlink:href="#C3_0_ca02f4d5a0" x="122.567522" y="72.685642" style="fill: #708090; fill-opacity: 0.7"/>
    </g>
    <g clip-path="url(#pda1d5f71ea)">
     <use xlink:href="#C3_0_ca02f4d5a0" x="122.434915" y="66.569338" style="fill: #708090; fill-opacity: 0.7"/>
    </g>
    <g clip-path="url(#pda1d5f71ea)">
     <use xlink:href="#C3_0_ca02f4d5a0" x="125.215662" y="60.453034" style="fill: #708090; fill-opacity: 0.7"/>
    </g>
    <g clip-path="url(#pda1d5f71ea)">
     <use xlink:href="#C3_0_ca02f4d5a0" x="125.916544" y="51.278578" style="fill: #708090; fill-opacity: 0.7"/>
    </g>
    <g clip-path="url(#pda1d5f71ea)">
     <use xlink:href="#C3_0_ca02f4d5a0" x="126.578242" y="54.33673" style="fill: #708090; fill-opacity: 0.7"/>
    </g>
    <g clip-path="url(#pda1d5f71ea)">
     <use xlink:href="#C3_0_ca02f4d5a0" x="121.290078" y="66.569338" style="fill: #708090; fill-opacity: 0.7"/>
    </g>
    <g clip-path="url(#pda1d5f71ea)">
     <use xlink:href="#C3_0_ca02f4d5a0" x="122.804473" y="48.220426" style="fill: #708090; fill-opacity: 0.7"/>
    </g>
    <g clip-path="url(#pda1d5f71ea)">
     <use xlink:href="#C3_0_ca02f4d5a0" x="126.148008" y="75.743794" style="fill: #708090; fill-opacity: 0.7"/>
    </g>
    <g clip-path="url(#pda1d5f71ea)">
     <use xlink:href="#C3_0_ca02f4d5a0" x="125.587766" y="66.569338" style="fill: #708090; fill-opacity: 0.7"/>
    </g>
    <g clip-path="url(#pda1d5f71ea)">
     <use xlink:href="#C3_0_ca02f4d5a0" x="123.122863" y="60.453034" style="fill: #708090; fill-opacity: 0.7"/>
    </g>
    <g clip-path="url(#pda1d5f71ea)">
     <use xlink:href="#C3_0_ca02f4d5a0" x="123.157517" y="72.685642" style="fill: #708090; fill-opacity: 0.7"/>
    </g>
    <g clip-path="url(#pda1d5f71ea)">
     <use xlink:href="#C3_0_ca02f4d5a0" x="126.855231" y="48.220426" style="fill: #708090; fill-opacity: 0.7"/>
    </g>
    <g clip-path="url(#pda1d5f71ea)">
     <use xlink:href="#C3_0_ca02f4d5a0" x="121.454918" y="78.801947" style="fill: #708090; fill-opacity: 0.7"/>
    </g>
    <g clip-path="url(#pda1d5f71ea)">
     <use xlink:href="#C3_0_ca02f4d5a0" x="122.962769" y="51.278578" style="fill: #708090; fill-opacity: 0.7"/>
    </g>
    <g clip-path="url(#pda1d5f71ea)">
     <use xlink:href="#C3_0_ca02f4d5a0" x="122.082863" y="72.685642" style="fill: #708090; fill-opacity: 0.7"/>
    </g>
    <g clip-path="url(#pda1d5f71ea)">
     <use xlink:href="#C3_0_ca02f4d5a0" x="124.685657" y="66.569338" style="fill: #708090; fill-opacity: 0.7"/>
    </g>
    <g clip-path="url(#pda1d5f71ea)">
     <use xlink:href="#C3_0_ca02f4d5a0" x="127.050215" y="51.278578" style="fill: #708090; fill-opacity: 0.7"/>
    </g>
    <g clip-path="url(#pda1d5f71ea)">
     <use xlink:href="#C3_0_ca02f4d5a0" x="123.402158" y="66.569338" style="fill: #708090; fill-opacity: 0.7"/>
    </g>
    <g clip-path="url(#pda1d5f71ea)">
     <use xlink:href="#C3_0_ca02f4d5a0" x="124.850166" y="57.394882" style="fill: #708090; fill-opacity: 0.7"/>
    </g>
    <g clip-path="url(#pda1d5f71ea)">
     <use xlink:href="#C3_0_ca02f4d5a0" x="124.395552" y="66.569338" style="fill: #708090; fill-opacity: 0.7"/>
    </g>
   </g>
   <g id="line2d_6">
    <path d="M 36.52605 94.610015 
L 39.90195 94.610015 
M 38.214 94.610015 
L 38.214 53.301889 
M 36.52605 53.301889 
L 39.90195 53.301889 
" clip-path="url(#pda1d5f71ea)" style="fill: none; stroke: #333333; stroke-width: 2.5; stroke-linecap: square"/>
   </g>
   <g id="line2d_7">
    <path d="M 97.90605 89.262561 
L 101.28195 89.262561 
M 99.594 89.262561 
L 99.594 59.838178 
M 97.90605 59.838178 
L 101.28195 59.838178 
" clip-path="url(#pda1d5f71ea)" style="fill: none; stroke: #333333; stroke-width: 2.5; stroke-linecap: square"/>
   </g>
   <g id="line2d_8">
    <path d="M 61.07805 89.075703 
L 64.45395 89.075703 
M 62.766 89.075703 
L 62.766 47.295877 
M 61.07805 47.295877 
L 64.45395 47.295877 
" clip-path="url(#pda1d5f71ea)" style="fill: none; stroke: #333333; stroke-width: 2.5; stroke-linecap: square"/>
   </g>
   <g id="line2d_9">
    <path d="M 122.45805 80.697284 
L 125.83395 80.697284 
M 124.146 80.697284 
L 124.146 53.936489 
M 122.45805 53.936489 
L 125.83395 53.936489 
" clip-path="url(#pda1d5f71ea)" style="fill: none; stroke: #333333; stroke-width: 2.5; stroke-linecap: square"/>
   </g>
   <g id="patch_9">
    <path d="M 19.8 128.16 
L 19.8 17.28 
" style="fill: none; stroke: #000000; stroke-width: 1.5; stroke-linejoin: miter; stroke-linecap: square"/>
   </g>
   <g id="patch_10">
    <path d="M 19.8 128.16 
L 142.56 128.16 
" style="fill: none; stroke: #000000; stroke-width: 1.5; stroke-linejoin: miter; stroke-linecap: square"/>
   </g>
   <g id="PathCollection_5">
    <defs>
     <path id="m733a3c71fc" d="M 0 3 
C 0.795609 3 1.55874 2.683901 2.12132 2.12132 
C 2.683901 1.55874 3 0.795609 3 0 
C 3 -0.795609 2.683901 -1.55874 2.12132 -2.12132 
C 1.55874 -2.683901 0.795609 -3 0 -3 
C -0.795609 -3 -1.55874 -2.683901 -2.12132 -2.12132 
C -2.683901 -1.55874 -3 -0.795609 -3 0 
C -3 0.795609 -2.683901 1.55874 -2.12132 2.12132 
C -1.55874 2.683901 -0.795609 3 0 3 
z
"/>
    </defs>
    <g clip-path="url(#pda1d5f71ea)">
     <use xlink:href="#m733a3c71fc" x="38.214" y="73.955952" style="fill: #333333"/>
    </g>
   </g>
   <g id="PathCollection_6">
    <g clip-path="url(#pda1d5f71ea)">
     <use xlink:href="#m733a3c71fc" x="62.766" y="68.18579" style="fill: #333333"/>
    </g>
   </g>
   <g id="PathCollection_7">
    <g clip-path="url(#pda1d5f71ea)">
     <use xlink:href="#m733a3c71fc" x="99.594" y="74.550369" style="fill: #333333"/>
    </g>
   </g>
   <g id="PathCollection_8">
    <g clip-path="url(#pda1d5f71ea)">
     <use xlink:href="#m733a3c71fc" x="124.146" y="67.316887" style="fill: #333333"/>
    </g>
   </g>
   <g id="line2d_10"/>
   <g id="line2d_11"/>
  </g>
 </g>
 <defs>
  <clipPath id="pda1d5f71ea">
   <rect x="19.8" y="17.28" width="122.76" height="110.88"/>
  </clipPath>
 </defs>
</svg>
