<?xml version="1.0" encoding="utf-8" standalone="no"?>
<!DOCTYPE svg PUBLIC "-//W3C//DTD SVG 1.1//EN"
  "http://www.w3.org/Graphics/SVG/1.1/DTD/svg11.dtd">
<svg xmlns:xlink="http://www.w3.org/1999/xlink" width="144pt" height="129.6pt" viewBox="0 0 144 129.6" xmlns="http://www.w3.org/2000/svg" version="1.1">
 <metadata>
  <rdf:RDF xmlns:dc="http://purl.org/dc/elements/1.1/" xmlns:cc="http://creativecommons.org/ns#" xmlns:rdf="http://www.w3.org/1999/02/22-rdf-syntax-ns#">
   <cc:Work>
    <dc:type rdf:resource="http://purl.org/dc/dcmitype/StillImage"/>
    <dc:date>2024-09-14T14:16:24.854690</dc:date>
    <dc:format>image/svg+xml</dc:format>
    <dc:creator>
     <cc:Agent>
      <dc:title>Matplotlib v3.7.1, https://matplotlib.org/</dc:title>
     </cc:Agent>
    </dc:creator>
   </cc:Work>
  </rdf:RDF>
 </metadata>
 <defs>
  <style type="text/css">*{stroke-linejoin: round; stroke-linecap: butt}</style>
 </defs>
 <g id="figure_1">
  <g id="patch_1">
   <path d="M 0 129.6 
L 144 129.6 
L 144 0 
L 0 0 
L 0 129.6 
z
" style="fill: none"/>
  </g>
  <g id="axes_1">
   <g id="patch_2">
    <path d="M 18 115.344 
L 129.6 115.344 
L 129.6 15.552 
L 18 15.552 
L 18 115.344 
z
" style="fill: none"/>
   </g>
   <g id="PolyCollection_1">
    <path d="M 36.249707 98.868578 
L 33.230293 98.868578 
L 32.650263 98.601081 
L 31.929555 98.333584 
L 31.067657 98.066086 
L 30.077735 97.798589 
L 28.989083 97.531092 
L 27.847682 97.263594 
L 26.714281 96.996097 
L 25.65977 96.7286 
L 24.758181 96.461102 
L 24.078177 96.193605 
L 23.674377 95.926107 
L 23.58 95.65861 
L 23.80222 95.391113 
L 24.321113 95.123615 
L 25.092419 94.856118 
L 26.053596 94.588621 
L 27.132021 94.321123 
L 28.253866 94.053626 
L 29.352168 93.786129 
L 30.372926 93.518631 
L 31.278555 93.251134 
L 32.048611 92.983637 
L 32.678191 92.716139 
L 33.174723 92.448642 
L 33.55399 92.181145 
L 33.83615 91.913647 
L 34.042332 91.64615 
L 34.19212 91.378653 
L 34.302028 91.111155 
L 34.38487 90.843658 
L 34.449809 90.576161 
L 34.502866 90.308663 
L 34.547637 90.041166 
L 34.586045 89.773669 
L 34.619009 89.506171 
L 34.646952 89.238674 
L 34.670141 88.971177 
L 34.68888 88.703679 
L 34.70358 88.436182 
L 34.714756 88.168685 
L 34.722985 87.901187 
L 34.728851 87.63369 
L 34.732899 87.366193 
L 34.735605 87.098695 
L 34.737357 86.831198 
L 34.738455 86.563701 
L 34.739123 86.296203 
L 34.739516 86.028706 
L 34.739741 85.761209 
L 34.739865 85.493711 
L 34.739932 85.226214 
L 34.739966 84.958717 
L 34.739984 84.691219 
L 34.739993 84.423722 
L 34.739997 84.156225 
L 34.739998 83.888727 
L 34.739999 83.62123 
L 34.739998 83.353732 
L 34.739997 83.086235 
L 34.739993 82.818738 
L 34.739985 82.55124 
L 34.739968 82.283743 
L 34.739936 82.016246 
L 34.739873 81.748748 
L 34.739755 81.481251 
L 34.739541 81.213754 
L 34.739167 80.946256 
L 34.738529 80.678759 
L 34.737477 80.411262 
L 34.735795 80.143764 
L 34.733192 79.876267 
L 34.729291 79.60877 
L 34.723632 79.341272 
L 34.715694 79.073775 
L 34.704933 78.806278 
L 34.690843 78.53878 
L 34.673051 78.271283 
L 34.651408 78.003786 
L 34.6261 77.736288 
L 34.597722 77.468791 
L 34.567322 77.201294 
L 34.536382 76.933796 
L 34.506718 76.666299 
L 34.480325 76.398802 
L 34.459158 76.131304 
L 34.444894 75.863807 
L 34.438715 75.59631 
L 34.441145 75.328812 
L 34.451978 75.061315 
L 34.470303 74.793818 
L 34.494637 74.52632 
L 34.523116 74.258823 
L 34.553736 73.991326 
L 34.584578 73.723828 
L 34.613997 73.456331 
L 34.64075 73.188834 
L 34.664043 72.921336 
L 34.683521 72.653839 
L 34.699197 72.386342 
L 34.780803 72.386342 
L 34.780803 72.386342 
L 34.796479 72.653839 
L 34.815957 72.921336 
L 34.83925 73.188834 
L 34.866003 73.456331 
L 34.895422 73.723828 
L 34.926264 73.991326 
L 34.956884 74.258823 
L 34.985363 74.52632 
L 35.009697 74.793818 
L 35.028022 75.061315 
L 35.038855 75.328812 
L 35.041285 75.59631 
L 35.035106 75.863807 
L 35.020842 76.131304 
L 34.999675 76.398802 
L 34.973282 76.666299 
L 34.943618 76.933796 
L 34.912678 77.201294 
L 34.882278 77.468791 
L 34.8539 77.736288 
L 34.828592 78.003786 
L 34.806949 78.271283 
L 34.789157 78.53878 
L 34.775067 78.806278 
L 34.764306 79.073775 
L 34.756368 79.341272 
L 34.750709 79.60877 
L 34.746808 79.876267 
L 34.744205 80.143764 
L 34.742523 80.411262 
L 34.741471 80.678759 
L 34.740833 80.946256 
L 34.740459 81.213754 
L 34.740245 81.481251 
L 34.740127 81.748748 
L 34.740064 82.016246 
L 34.740032 82.283743 
L 34.740015 82.55124 
L 34.740007 82.818738 
L 34.740003 83.086235 
L 34.740002 83.353732 
L 34.740001 83.62123 
L 34.740002 83.888727 
L 34.740003 84.156225 
L 34.740007 84.423722 
L 34.740016 84.691219 
L 34.740034 84.958717 
L 34.740068 85.226214 
L 34.740135 85.493711 
L 34.740259 85.761209 
L 34.740484 86.028706 
L 34.740877 86.296203 
L 34.741545 86.563701 
L 34.742643 86.831198 
L 34.744395 87.098695 
L 34.747101 87.366193 
L 34.751149 87.63369 
L 34.757015 87.901187 
L 34.765244 88.168685 
L 34.77642 88.436182 
L 34.79112 88.703679 
L 34.809859 88.971177 
L 34.833048 89.238674 
L 34.860991 89.506171 
L 34.893955 89.773669 
L 34.932363 90.041166 
L 34.977134 90.308663 
L 35.030191 90.576161 
L 35.09513 90.843658 
L 35.177972 91.111155 
L 35.28788 91.378653 
L 35.437668 91.64615 
L 35.64385 91.913647 
L 35.92601 92.181145 
L 36.305277 92.448642 
L 36.801809 92.716139 
L 37.431389 92.983637 
L 38.201445 93.251134 
L 39.107074 93.518631 
L 40.127832 93.786129 
L 41.226134 94.053626 
L 42.347979 94.321123 
L 43.426404 94.588621 
L 44.387581 94.856118 
L 45.158887 95.123615 
L 45.67778 95.391113 
L 45.9 95.65861 
L 45.805623 95.926107 
L 45.401823 96.193605 
L 44.721819 96.461102 
L 43.82023 96.7286 
L 42.765719 96.996097 
L 41.632318 97.263594 
L 40.490917 97.531092 
L 39.402265 97.798589 
L 38.412343 98.066086 
L 37.550445 98.333584 
L 36.829737 98.601081 
L 36.249707 98.868578 
z
" clip-path="url(#p0d03da191b)" style="fill: #9da6a4; fill-opacity: 0.35"/>
   </g>
   <g id="PolyCollection_2">
    <path d="M 58.573053 97.270164 
L 55.546947 97.270164 
L 54.958375 97.136875 
L 54.225612 97.003585 
L 53.348356 96.870295 
L 52.340713 96.737006 
L 51.233746 96.603716 
L 50.075981 96.470426 
L 48.931238 96.337136 
L 47.873577 96.203847 
L 46.979748 96.070557 
L 46.320122 95.937267 
L 45.949585 95.803978 
L 45.9 95.670688 
L 46.175685 95.537398 
L 46.752793 95.404109 
L 47.582717 95.270819 
L 48.598844 95.137529 
L 49.725365 95.00424 
L 50.886516 94.87095 
L 52.014722 94.73766 
L 53.056472 94.604371 
L 53.975366 94.471081 
L 54.752363 94.337791 
L 55.383768 94.204502 
L 55.877765 94.071212 
L 56.250389 93.937922 
L 56.521666 93.804632 
L 56.712439 93.671343 
L 56.842122 93.538053 
L 56.927384 93.404763 
L 56.981624 93.271474 
L 57.015025 93.138184 
L 57.034941 93.004894 
L 57.046443 92.871605 
L 57.052879 92.738315 
L 57.056368 92.605025 
L 57.058201 92.471736 
L 57.059135 92.338446 
L 57.059596 92.205156 
L 57.059817 92.071867 
L 57.059919 91.938577 
L 57.059966 91.805287 
L 57.059986 91.671997 
L 57.059994 91.538708 
L 57.059998 91.405418 
L 57.059999 91.272128 
L 57.06 91.138839 
L 57.06 91.005549 
L 57.06 90.872259 
L 57.06 90.73897 
L 57.06 90.60568 
L 57.06 90.47239 
L 57.06 90.339101 
L 57.06 90.205811 
L 57.06 90.072521 
L 57.06 89.939232 
L 57.06 89.805942 
L 57.06 89.672652 
L 57.059999 89.539363 
L 57.059998 89.406073 
L 57.059995 89.272783 
L 57.059989 89.139493 
L 57.059977 89.006204 
L 57.059953 88.872914 
L 57.059904 88.739624 
L 57.059813 88.606335 
L 57.059643 88.473045 
L 57.059341 88.339755 
L 57.058816 88.206466 
L 57.057937 88.073176 
L 57.05651 87.939886 
L 57.054266 87.806597 
L 57.050854 87.673307 
L 57.045833 87.540017 
L 57.038694 87.406728 
L 57.028889 87.273438 
L 57.015889 87.140148 
L 56.999273 87.006859 
L 56.978825 86.873569 
L 56.954644 86.740279 
L 56.92723 86.606989 
L 56.89754 86.4737 
L 56.866983 86.34041 
L 56.837338 86.20712 
L 56.810598 86.073831 
L 56.788758 85.940541 
L 56.773571 85.807251 
L 56.766316 85.673962 
L 56.767621 85.540672 
L 56.777372 85.407382 
L 56.79473 85.274093 
L 56.818252 85.140803 
L 56.846085 85.007513 
L 56.87621 84.874224 
L 56.906678 84.740934 
L 56.935808 84.607644 
L 56.962325 84.474354 
L 56.985411 84.341065 
L 57.004694 84.207775 
L 57.020183 84.074485 
L 57.099817 84.074485 
L 57.099817 84.074485 
L 57.115306 84.207775 
L 57.134589 84.341065 
L 57.157675 84.474354 
L 57.184192 84.607644 
L 57.213322 84.740934 
L 57.24379 84.874224 
L 57.273915 85.007513 
L 57.301748 85.140803 
L 57.32527 85.274093 
L 57.342628 85.407382 
L 57.352379 85.540672 
L 57.353684 85.673962 
L 57.346429 85.807251 
L 57.331242 85.940541 
L 57.309402 86.073831 
L 57.282662 86.20712 
L 57.253017 86.34041 
L 57.22246 86.4737 
L 57.19277 86.606989 
L 57.165356 86.740279 
L 57.141175 86.873569 
L 57.120727 87.006859 
L 57.104111 87.140148 
L 57.091111 87.273438 
L 57.081306 87.406728 
L 57.074167 87.540017 
L 57.069146 87.673307 
L 57.065734 87.806597 
L 57.06349 87.939886 
L 57.062063 88.073176 
L 57.061184 88.206466 
L 57.060659 88.339755 
L 57.060357 88.473045 
L 57.060187 88.606335 
L 57.060096 88.739624 
L 57.060047 88.872914 
L 57.060023 89.006204 
L 57.060011 89.139493 
L 57.060005 89.272783 
L 57.060002 89.406073 
L 57.060001 89.539363 
L 57.06 89.672652 
L 57.06 89.805942 
L 57.06 89.939232 
L 57.06 90.072521 
L 57.06 90.205811 
L 57.06 90.339101 
L 57.06 90.47239 
L 57.06 90.60568 
L 57.06 90.73897 
L 57.06 90.872259 
L 57.06 91.005549 
L 57.06 91.138839 
L 57.060001 91.272128 
L 57.060002 91.405418 
L 57.060006 91.538708 
L 57.060014 91.671997 
L 57.060034 91.805287 
L 57.060081 91.938577 
L 57.060183 92.071867 
L 57.060404 92.205156 
L 57.060865 92.338446 
L 57.061799 92.471736 
L 57.063632 92.605025 
L 57.067121 92.738315 
L 57.073557 92.871605 
L 57.085059 93.004894 
L 57.104975 93.138184 
L 57.138376 93.271474 
L 57.192616 93.404763 
L 57.277878 93.538053 
L 57.407561 93.671343 
L 57.598334 93.804632 
L 57.869611 93.937922 
L 58.242235 94.071212 
L 58.736232 94.204502 
L 59.367637 94.337791 
L 60.144634 94.471081 
L 61.063528 94.604371 
L 62.105278 94.73766 
L 63.233484 94.87095 
L 64.394635 95.00424 
L 65.521156 95.137529 
L 66.537283 95.270819 
L 67.367207 95.404109 
L 67.944315 95.537398 
L 68.22 95.670688 
L 68.170415 95.803978 
L 67.799878 95.937267 
L 67.140252 96.070557 
L 66.246423 96.203847 
L 65.188762 96.337136 
L 64.044019 96.470426 
L 62.886254 96.603716 
L 61.779287 96.737006 
L 60.771644 96.870295 
L 59.894388 97.003585 
L 59.161625 97.136875 
L 58.573053 97.270164 
z
" clip-path="url(#p0d03da191b)" style="fill: #b67f65; fill-opacity: 0.35"/>
   </g>
   <g id="PolyCollection_3">
    <path d="M 92.029541 110.808 
L 89.050459 110.808 
L 88.653881 109.891636 
L 88.1866 108.975273 
L 87.646434 108.058909 
L 87.034233 107.142545 
L 86.354515 106.226182 
L 85.615943 105.309818 
L 84.831579 104.393455 
L 84.018822 103.477091 
L 83.199009 102.560727 
L 82.396643 101.644364 
L 81.638276 100.728 
L 80.951109 99.811636 
L 80.361398 98.895273 
L 79.8928 97.978909 
L 79.564804 97.062545 
L 79.39138 96.146182 
L 79.38 95.229818 
L 79.531095 94.313455 
L 79.838032 93.397091 
L 80.2876 92.480727 
L 80.860945 91.564364 
L 81.53489 90.648 
L 82.283475 89.731636 
L 83.079612 88.815273 
L 83.896677 87.898909 
L 84.709932 86.982545 
L 85.497673 86.066182 
L 86.24203 85.149818 
L 86.929412 84.233455 
L 87.550596 83.317091 
L 88.100516 82.400727 
L 88.577811 81.484364 
L 88.984203 80.568 
L 89.323803 79.651636 
L 89.602389 78.735273 
L 89.826743 77.818909 
L 90.004055 76.902545 
L 90.14146 75.986182 
L 90.245671 75.069818 
L 90.322749 74.153455 
L 90.377968 73.237091 
L 90.415766 72.320727 
L 90.439771 71.404364 
L 90.452862 70.488 
L 90.457275 69.571636 
L 90.454709 68.655273 
L 90.446441 67.738909 
L 90.43344 66.822545 
L 90.416455 65.906182 
L 90.396102 64.989818 
L 90.372924 64.073455 
L 90.347433 63.157091 
L 90.320142 62.240727 
L 90.291568 61.324364 
L 90.262237 60.408 
L 90.232661 59.491636 
L 90.203324 58.575273 
L 90.174654 57.658909 
L 90.147002 56.742545 
L 90.12062 55.826182 
L 90.095647 54.909818 
L 90.072111 53.993455 
L 90.049927 53.077091 
L 90.028916 52.160727 
L 90.00883 51.244364 
L 89.989376 50.328 
L 89.970259 49.411636 
L 89.951212 48.495273 
L 89.932038 47.578909 
L 89.91264 46.662545 
L 89.893055 45.746182 
L 89.873466 44.829818 
L 89.854221 43.913455 
L 89.835826 42.997091 
L 89.818933 42.080727 
L 89.804313 41.164364 
L 89.792811 40.248 
L 89.785297 39.331636 
L 89.782604 38.415273 
L 89.785468 37.498909 
L 89.79446 36.582545 
L 89.809938 35.666182 
L 89.832004 34.749818 
L 89.860481 33.833455 
L 89.894909 32.917091 
L 89.934569 32.000727 
L 89.978518 31.084364 
L 90.025644 30.168 
L 90.074738 29.251636 
L 90.12456 28.335273 
L 90.173914 27.418909 
L 90.221708 26.502545 
L 90.267007 25.586182 
L 90.309064 24.669818 
L 90.347345 23.753455 
L 90.381521 22.837091 
L 90.411467 21.920727 
L 90.437229 21.004364 
L 90.458995 20.088 
L 90.621005 20.088 
L 90.621005 20.088 
L 90.642771 21.004364 
L 90.668533 21.920727 
L 90.698479 22.837091 
L 90.732655 23.753455 
L 90.770936 24.669818 
L 90.812993 25.586182 
L 90.858292 26.502545 
L 90.906086 27.418909 
L 90.95544 28.335273 
L 91.005262 29.251636 
L 91.054356 30.168 
L 91.101482 31.084364 
L 91.145431 32.000727 
L 91.185091 32.917091 
L 91.219519 33.833455 
L 91.247996 34.749818 
L 91.270062 35.666182 
L 91.28554 36.582545 
L 91.294532 37.498909 
L 91.297396 38.415273 
L 91.294703 39.331636 
L 91.287189 40.248 
L 91.275687 41.164364 
L 91.261067 42.080727 
L 91.244174 42.997091 
L 91.225779 43.913455 
L 91.206534 44.829818 
L 91.186945 45.746182 
L 91.16736 46.662545 
L 91.147962 47.578909 
L 91.128788 48.495273 
L 91.109741 49.411636 
L 91.090624 50.328 
L 91.07117 51.244364 
L 91.051084 52.160727 
L 91.030073 53.077091 
L 91.007889 53.993455 
L 90.984353 54.909818 
L 90.95938 55.826182 
L 90.932998 56.742545 
L 90.905346 57.658909 
L 90.876676 58.575273 
L 90.847339 59.491636 
L 90.817763 60.408 
L 90.788432 61.324364 
L 90.759858 62.240727 
L 90.732567 63.157091 
L 90.707076 64.073455 
L 90.683898 64.989818 
L 90.663545 65.906182 
L 90.64656 66.822545 
L 90.633559 67.738909 
L 90.625291 68.655273 
L 90.622725 69.571636 
L 90.627138 70.488 
L 90.640229 71.404364 
L 90.664234 72.320727 
L 90.702032 73.237091 
L 90.757251 74.153455 
L 90.834329 75.069818 
L 90.93854 75.986182 
L 91.075945 76.902545 
L 91.253257 77.818909 
L 91.477611 78.735273 
L 91.756197 79.651636 
L 92.095797 80.568 
L 92.502189 81.484364 
L 92.979484 82.400727 
L 93.529404 83.317091 
L 94.150588 84.233455 
L 94.83797 85.149818 
L 95.582327 86.066182 
L 96.370068 86.982545 
L 97.183323 87.898909 
L 98.000388 88.815273 
L 98.796525 89.731636 
L 99.54511 90.648 
L 100.219055 91.564364 
L 100.7924 92.480727 
L 101.241968 93.397091 
L 101.548905 94.313455 
L 101.7 95.229818 
L 101.68862 96.146182 
L 101.515196 97.062545 
L 101.1872 97.978909 
L 100.718602 98.895273 
L 100.128891 99.811636 
L 99.441724 100.728 
L 98.683357 101.644364 
L 97.880991 102.560727 
L 97.061178 103.477091 
L 96.248421 104.393455 
L 95.464057 105.309818 
L 94.725485 106.226182 
L 94.045767 107.142545 
L 93.433566 108.058909 
L 92.8934 108.975273 
L 92.426119 109.891636 
L 92.029541 110.808 
z
" clip-path="url(#p0d03da191b)" style="fill: #9da6a4; fill-opacity: 0.35"/>
   </g>
   <g id="PolyCollection_4">
    <path d="M 114.370552 98.981874 
L 111.349448 98.981874 
L 110.78623 98.712088 
L 110.089728 98.442301 
L 109.259019 98.172515 
L 108.305338 97.902729 
L 107.25432 97.632943 
L 106.146681 97.363157 
L 105.036824 97.093371 
L 103.989141 96.823585 
L 103.0722 96.553798 
L 102.351486 96.284012 
L 101.881719 96.014226 
L 101.7 95.74444 
L 101.820971 95.474654 
L 102.234868 95.204868 
L 102.908818 94.935082 
L 103.791159 94.665296 
L 104.81797 94.395509 
L 105.920687 94.125723 
L 107.033549 93.855937 
L 108.099763 93.586151 
L 109.075661 93.316365 
L 109.932554 93.046579 
L 110.656434 92.776793 
L 111.245997 92.507006 
L 111.709646 92.23722 
L 112.062137 91.967434 
L 112.321416 91.697648 
L 112.506028 91.427862 
L 112.633261 91.158076 
L 112.718041 90.88829 
L 112.772454 90.618503 
L 112.80574 90.348717 
L 112.824585 90.078931 
L 112.83355 89.809145 
L 112.835546 89.539359 
L 112.832277 89.269573 
L 112.824628 88.999787 
L 112.812991 88.73 
L 112.797528 88.460214 
L 112.778384 88.190428 
L 112.755858 87.920642 
L 112.730521 87.650856 
L 112.703281 87.38107 
L 112.675389 87.111284 
L 112.648379 86.841498 
L 112.623949 86.571711 
L 112.603792 86.301925 
L 112.589405 86.032139 
L 112.581912 85.762353 
L 112.581912 85.492567 
L 112.589406 85.222781 
L 112.603792 84.952995 
L 112.623951 84.683208 
L 112.648383 84.413422 
L 112.675399 84.143636 
L 112.703304 83.87385 
L 112.730575 83.604064 
L 112.755979 83.334278 
L 112.778647 83.064492 
L 112.798083 82.794705 
L 112.814134 82.524919 
L 112.826916 82.255133 
L 112.836731 81.985347 
L 112.843988 81.715561 
L 112.849115 81.445775 
L 112.852511 81.175989 
L 112.854493 80.906202 
L 112.855273 80.636416 
L 112.85494 80.36663 
L 112.853457 80.096844 
L 112.850658 79.827058 
L 112.846265 79.557272 
L 112.839909 79.287486 
L 112.831166 79.0177 
L 112.819612 78.747913 
L 112.804892 78.478127 
L 112.786805 78.208341 
L 112.765387 77.938555 
L 112.740992 77.668769 
L 112.714338 77.398983 
L 112.686517 77.129197 
L 112.658949 76.85941 
L 112.633279 76.589624 
L 112.61122 76.319838 
L 112.594372 76.050052 
L 112.584024 75.780266 
L 112.581 75.51048 
L 112.585543 75.240694 
L 112.597287 74.970907 
L 112.615305 74.701121 
L 112.638229 74.431335 
L 112.664421 74.161549 
L 112.692167 73.891763 
L 112.719858 73.621977 
L 112.746133 73.352191 
L 112.769975 73.082404 
L 112.790743 72.812618 
L 112.808156 72.542832 
L 112.822236 72.273046 
L 112.897764 72.273046 
L 112.897764 72.273046 
L 112.911844 72.542832 
L 112.929257 72.812618 
L 112.950025 73.082404 
L 112.973867 73.352191 
L 113.000142 73.621977 
L 113.027833 73.891763 
L 113.055579 74.161549 
L 113.081771 74.431335 
L 113.104695 74.701121 
L 113.122713 74.970907 
L 113.134457 75.240694 
L 113.139 75.51048 
L 113.135976 75.780266 
L 113.125628 76.050052 
L 113.10878 76.319838 
L 113.086721 76.589624 
L 113.061051 76.85941 
L 113.033483 77.129197 
L 113.005662 77.398983 
L 112.979008 77.668769 
L 112.954613 77.938555 
L 112.933195 78.208341 
L 112.915108 78.478127 
L 112.900388 78.747913 
L 112.888834 79.0177 
L 112.880091 79.287486 
L 112.873735 79.557272 
L 112.869342 79.827058 
L 112.866543 80.096844 
L 112.86506 80.36663 
L 112.864727 80.636416 
L 112.865507 80.906202 
L 112.867489 81.175989 
L 112.870885 81.445775 
L 112.876012 81.715561 
L 112.883269 81.985347 
L 112.893084 82.255133 
L 112.905866 82.524919 
L 112.921917 82.794705 
L 112.941353 83.064492 
L 112.964021 83.334278 
L 112.989425 83.604064 
L 113.016696 83.87385 
L 113.044601 84.143636 
L 113.071617 84.413422 
L 113.096049 84.683208 
L 113.116208 84.952995 
L 113.130594 85.222781 
L 113.138088 85.492567 
L 113.138088 85.762353 
L 113.130595 86.032139 
L 113.116208 86.301925 
L 113.096051 86.571711 
L 113.071621 86.841498 
L 113.044611 87.111284 
L 113.016719 87.38107 
L 112.989479 87.650856 
L 112.964142 87.920642 
L 112.941616 88.190428 
L 112.922472 88.460214 
L 112.907009 88.73 
L 112.895372 88.999787 
L 112.887723 89.269573 
L 112.884454 89.539359 
L 112.88645 89.809145 
L 112.895415 90.078931 
L 112.91426 90.348717 
L 112.947546 90.618503 
L 113.001959 90.88829 
L 113.086739 91.158076 
L 113.213972 91.427862 
L 113.398584 91.697648 
L 113.657863 91.967434 
L 114.010354 92.23722 
L 114.474003 92.507006 
L 115.063566 92.776793 
L 115.787446 93.046579 
L 116.644339 93.316365 
L 117.620237 93.586151 
L 118.686451 93.855937 
L 119.799313 94.125723 
L 120.90203 94.395509 
L 121.928841 94.665296 
L 122.811182 94.935082 
L 123.485132 95.204868 
L 123.899029 95.474654 
L 124.02 95.74444 
L 123.838281 96.014226 
L 123.368514 96.284012 
L 122.6478 96.553798 
L 121.730859 96.823585 
L 120.683176 97.093371 
L 119.573319 97.363157 
L 118.46568 97.632943 
L 117.414662 97.902729 
L 116.460981 98.172515 
L 115.630272 98.442301 
L 114.93377 98.712088 
L 114.370552 98.981874 
z
" clip-path="url(#p0d03da191b)" style="fill: #b67f65; fill-opacity: 0.35"/>
   </g>
   <g id="patch_3">
    <path d="M 23.58 95.71719 
L 45.9 95.71719 
L 45.9 95.096283 
L 23.58 95.096283 
L 23.58 95.71719 
z
" clip-path="url(#p0d03da191b)" style="fill: none"/>
   </g>
   <g id="patch_4">
    <path d="M 79.38 95.71719 
L 101.7 95.71719 
L 101.7 90.576232 
L 79.38 90.576232 
L 79.38 95.71719 
z
" clip-path="url(#p0d03da191b)" style="fill: none"/>
   </g>
   <g id="patch_5">
    <path d="M 45.9 95.71719 
L 68.22 95.71719 
L 68.22 95.458479 
L 45.9 95.458479 
L 45.9 95.71719 
z
" clip-path="url(#p0d03da191b)" style="fill: none"/>
   </g>
   <g id="patch_6">
    <path d="M 101.7 95.71719 
L 124.02 95.71719 
L 124.02 94.996495 
L 101.7 94.996495 
L 101.7 95.71719 
z
" clip-path="url(#p0d03da191b)" style="fill: none"/>
   </g>
   <g id="patch_7">
    <path d="M 45.9 95.71719 
L 45.9 95.71719 
L 45.9 95.71719 
L 45.9 95.71719 
z
" clip-path="url(#p0d03da191b)" style="fill: #3274a1"/>
   </g>
   <g id="patch_8">
    <path d="M 45.9 95.71719 
L 45.9 95.71719 
L 45.9 95.71719 
L 45.9 95.71719 
z
" clip-path="url(#p0d03da191b)" style="fill: #e1812c"/>
   </g>
   <g id="matplotlib.axis_1">
    <g id="xtick_1">
     <g id="line2d_1">
      <defs>
       <path id="m6d8ea08095" d="M 0 0 
L 0 3.5 
" style="stroke: #000000; stroke-width: 1.5"/>
      </defs>
      <g>
       <use xlink:href="#m6d8ea08095" x="45.9" y="115.344" style="stroke: #000000; stroke-width: 1.5"/>
      </g>
     </g>
     <g id="text_1">
      <!-- neutral -->
      <g transform="translate(29.23125 129.501812) scale(0.1 -0.1)">
       <defs>
        <path id="Arial-BoldMT-6e" d="M 3478 0 
L 2600 0 
L 2600 1694 
Q 2600 2231 2544 2389 
Q 2488 2547 2361 2634 
Q 2234 2722 2056 2722 
Q 1828 2722 1647 2597 
Q 1466 2472 1398 2265 
Q 1331 2059 1331 1503 
L 1331 0 
L 453 0 
L 453 3319 
L 1269 3319 
L 1269 2831 
Q 1703 3394 2363 3394 
Q 2653 3394 2893 3289 
Q 3134 3184 3257 3021 
Q 3381 2859 3429 2653 
Q 3478 2447 3478 2063 
L 3478 0 
z
" transform="scale(0.015625)"/>
        <path id="Arial-BoldMT-65" d="M 2381 1056 
L 3256 909 
Q 3088 428 2723 176 
Q 2359 -75 1813 -75 
Q 947 -75 531 491 
Q 203 944 203 1634 
Q 203 2459 634 2926 
Q 1066 3394 1725 3394 
Q 2466 3394 2894 2905 
Q 3322 2416 3303 1406 
L 1103 1406 
Q 1113 1016 1316 798 
Q 1519 581 1822 581 
Q 2028 581 2168 693 
Q 2309 806 2381 1056 
z
M 2431 1944 
Q 2422 2325 2234 2523 
Q 2047 2722 1778 2722 
Q 1491 2722 1303 2513 
Q 1116 2303 1119 1944 
L 2431 1944 
z
" transform="scale(0.015625)"/>
        <path id="Arial-BoldMT-75" d="M 2644 0 
L 2644 497 
Q 2463 231 2167 78 
Q 1872 -75 1544 -75 
Q 1209 -75 943 72 
Q 678 219 559 484 
Q 441 750 441 1219 
L 441 3319 
L 1319 3319 
L 1319 1794 
Q 1319 1094 1367 936 
Q 1416 778 1544 686 
Q 1672 594 1869 594 
Q 2094 594 2272 717 
Q 2450 841 2515 1023 
Q 2581 1206 2581 1919 
L 2581 3319 
L 3459 3319 
L 3459 0 
L 2644 0 
z
" transform="scale(0.015625)"/>
        <path id="Arial-BoldMT-74" d="M 1981 3319 
L 1981 2619 
L 1381 2619 
L 1381 1281 
Q 1381 875 1398 808 
Q 1416 741 1477 697 
Q 1538 653 1625 653 
Q 1747 653 1978 738 
L 2053 56 
Q 1747 -75 1359 -75 
Q 1122 -75 931 4 
Q 741 84 652 211 
Q 563 338 528 553 
Q 500 706 500 1172 
L 500 2619 
L 97 2619 
L 97 3319 
L 500 3319 
L 500 3978 
L 1381 4491 
L 1381 3319 
L 1981 3319 
z
" transform="scale(0.015625)"/>
        <path id="Arial-BoldMT-72" d="M 1300 0 
L 422 0 
L 422 3319 
L 1238 3319 
L 1238 2847 
Q 1447 3181 1614 3287 
Q 1781 3394 1994 3394 
Q 2294 3394 2572 3228 
L 2300 2463 
Q 2078 2606 1888 2606 
Q 1703 2606 1575 2504 
Q 1447 2403 1373 2137 
Q 1300 1872 1300 1025 
L 1300 0 
z
" transform="scale(0.015625)"/>
        <path id="Arial-BoldMT-61" d="M 1116 2306 
L 319 2450 
Q 453 2931 781 3162 
Q 1109 3394 1756 3394 
Q 2344 3394 2631 3255 
Q 2919 3116 3036 2902 
Q 3153 2688 3153 2116 
L 3144 1091 
Q 3144 653 3186 445 
Q 3228 238 3344 0 
L 2475 0 
Q 2441 88 2391 259 
Q 2369 338 2359 363 
Q 2134 144 1878 34 
Q 1622 -75 1331 -75 
Q 819 -75 523 203 
Q 228 481 228 906 
Q 228 1188 362 1408 
Q 497 1628 739 1745 
Q 981 1863 1438 1950 
Q 2053 2066 2291 2166 
L 2291 2253 
Q 2291 2506 2166 2614 
Q 2041 2722 1694 2722 
Q 1459 2722 1328 2630 
Q 1197 2538 1116 2306 
z
M 2291 1594 
Q 2122 1538 1756 1459 
Q 1391 1381 1278 1306 
Q 1106 1184 1106 997 
Q 1106 813 1243 678 
Q 1381 544 1594 544 
Q 1831 544 2047 700 
Q 2206 819 2256 991 
Q 2291 1103 2291 1419 
L 2291 1594 
z
" transform="scale(0.015625)"/>
        <path id="Arial-BoldMT-6c" d="M 459 0 
L 459 4581 
L 1338 4581 
L 1338 0 
L 459 0 
z
" transform="scale(0.015625)"/>
       </defs>
       <use xlink:href="#Arial-BoldMT-6e"/>
       <use xlink:href="#Arial-BoldMT-65" x="61.083984"/>
       <use xlink:href="#Arial-BoldMT-75" x="116.699219"/>
       <use xlink:href="#Arial-BoldMT-74" x="177.783203"/>
       <use xlink:href="#Arial-BoldMT-72" x="211.083984"/>
       <use xlink:href="#Arial-BoldMT-61" x="250"/>
       <use xlink:href="#Arial-BoldMT-6c" x="305.615234"/>
      </g>
     </g>
    </g>
    <g id="xtick_2">
     <g id="line2d_2">
      <g>
       <use xlink:href="#m6d8ea08095" x="101.7" y="115.344" style="stroke: #000000; stroke-width: 1.5"/>
      </g>
     </g>
     <g id="text_2">
      <!-- adversive -->
      <g transform="translate(78.628125 129.501812) scale(0.1 -0.1)">
       <defs>
        <path id="Arial-BoldMT-64" d="M 3503 0 
L 2688 0 
L 2688 488 
Q 2484 203 2207 64 
Q 1931 -75 1650 -75 
Q 1078 -75 670 386 
Q 263 847 263 1672 
Q 263 2516 659 2955 
Q 1056 3394 1663 3394 
Q 2219 3394 2625 2931 
L 2625 4581 
L 3503 4581 
L 3503 0 
z
M 1159 1731 
Q 1159 1200 1306 963 
Q 1519 619 1900 619 
Q 2203 619 2415 876 
Q 2628 1134 2628 1647 
Q 2628 2219 2422 2470 
Q 2216 2722 1894 2722 
Q 1581 2722 1370 2473 
Q 1159 2225 1159 1731 
z
" transform="scale(0.015625)"/>
        <path id="Arial-BoldMT-76" d="M 1372 0 
L 34 3319 
L 956 3319 
L 1581 1625 
L 1763 1059 
Q 1834 1275 1853 1344 
Q 1897 1484 1947 1625 
L 2578 3319 
L 3481 3319 
L 2163 0 
L 1372 0 
z
" transform="scale(0.015625)"/>
        <path id="Arial-BoldMT-73" d="M 150 947 
L 1031 1081 
Q 1088 825 1259 692 
Q 1431 559 1741 559 
Q 2081 559 2253 684 
Q 2369 772 2369 919 
Q 2369 1019 2306 1084 
Q 2241 1147 2013 1200 
Q 950 1434 666 1628 
Q 272 1897 272 2375 
Q 272 2806 612 3100 
Q 953 3394 1669 3394 
Q 2350 3394 2681 3172 
Q 3013 2950 3138 2516 
L 2309 2363 
Q 2256 2556 2107 2659 
Q 1959 2763 1684 2763 
Q 1338 2763 1188 2666 
Q 1088 2597 1088 2488 
Q 1088 2394 1175 2328 
Q 1294 2241 1995 2081 
Q 2697 1922 2975 1691 
Q 3250 1456 3250 1038 
Q 3250 581 2869 253 
Q 2488 -75 1741 -75 
Q 1063 -75 667 200 
Q 272 475 150 947 
z
" transform="scale(0.015625)"/>
        <path id="Arial-BoldMT-69" d="M 459 3769 
L 459 4581 
L 1338 4581 
L 1338 3769 
L 459 3769 
z
M 459 0 
L 459 3319 
L 1338 3319 
L 1338 0 
L 459 0 
z
" transform="scale(0.015625)"/>
       </defs>
       <use xlink:href="#Arial-BoldMT-61"/>
       <use xlink:href="#Arial-BoldMT-64" x="55.615234"/>
       <use xlink:href="#Arial-BoldMT-76" x="116.699219"/>
       <use xlink:href="#Arial-BoldMT-65" x="172.314453"/>
       <use xlink:href="#Arial-BoldMT-72" x="227.929688"/>
       <use xlink:href="#Arial-BoldMT-73" x="266.845703"/>
       <use xlink:href="#Arial-BoldMT-69" x="322.460938"/>
       <use xlink:href="#Arial-BoldMT-76" x="350.244141"/>
       <use xlink:href="#Arial-BoldMT-65" x="405.859375"/>
      </g>
     </g>
    </g>
   </g>
   <g id="matplotlib.axis_2">
    <g id="ytick_1">
     <g id="line2d_3">
      <defs>
       <path id="m8c2daa6dec" d="M 0 0 
L -3.5 0 
" style="stroke: #000000; stroke-width: 1.5"/>
      </defs>
      <g>
       <use xlink:href="#m8c2daa6dec" x="18" y="95.71719" style="stroke: #000000; stroke-width: 1.5"/>
      </g>
     </g>
     <g id="text_3">
      <!-- 0 -->
      <g transform="translate(5.439062 99.296096) scale(0.1 -0.1)">
       <defs>
        <path id="Arial-BoldMT-30" d="M 1756 4600 
Q 2422 4600 2797 4125 
Q 3244 3563 3244 2259 
Q 3244 959 2794 391 
Q 2422 -78 1756 -78 
Q 1088 -78 678 436 
Q 269 950 269 2269 
Q 269 3563 719 4131 
Q 1091 4600 1756 4600 
z
M 1756 3872 
Q 1597 3872 1472 3770 
Q 1347 3669 1278 3406 
Q 1188 3066 1188 2259 
Q 1188 1453 1269 1151 
Q 1350 850 1473 750 
Q 1597 650 1756 650 
Q 1916 650 2041 751 
Q 2166 853 2234 1116 
Q 2325 1453 2325 2259 
Q 2325 3066 2244 3367 
Q 2163 3669 2039 3770 
Q 1916 3872 1756 3872 
z
" transform="scale(0.015625)"/>
       </defs>
       <use xlink:href="#Arial-BoldMT-30"/>
      </g>
     </g>
    </g>
    <g id="ytick_2">
     <g id="line2d_4">
      <g>
       <use xlink:href="#m8c2daa6dec" x="18" y="55.35827" style="stroke: #000000; stroke-width: 1.5"/>
      </g>
     </g>
     <g id="text_4">
      <!-- 20 -->
      <g transform="translate(-0.121875 58.937176) scale(0.1 -0.1)">
       <defs>
        <path id="Arial-BoldMT-32" d="M 3238 816 
L 3238 0 
L 159 0 
Q 209 463 459 877 
Q 709 1291 1447 1975 
Q 2041 2528 2175 2725 
Q 2356 2997 2356 3263 
Q 2356 3556 2198 3714 
Q 2041 3872 1763 3872 
Q 1488 3872 1325 3706 
Q 1163 3541 1138 3156 
L 263 3244 
Q 341 3969 753 4284 
Q 1166 4600 1784 4600 
Q 2463 4600 2850 4234 
Q 3238 3869 3238 3325 
Q 3238 3016 3127 2736 
Q 3016 2456 2775 2150 
Q 2616 1947 2200 1565 
Q 1784 1184 1673 1059 
Q 1563 934 1494 816 
L 3238 816 
z
" transform="scale(0.015625)"/>
       </defs>
       <use xlink:href="#Arial-BoldMT-32"/>
       <use xlink:href="#Arial-BoldMT-30" x="55.615234"/>
      </g>
     </g>
    </g>
    <g id="text_5">
     <!-- craving score (a.u.) -->
     <g transform="translate(-6.226563 111.294094) rotate(-90) scale(0.1 -0.1)">
      <defs>
       <path id="Arial-BoldMT-63" d="M 3353 2338 
L 2488 2181 
Q 2444 2441 2289 2572 
Q 2134 2703 1888 2703 
Q 1559 2703 1364 2476 
Q 1169 2250 1169 1719 
Q 1169 1128 1367 884 
Q 1566 641 1900 641 
Q 2150 641 2309 783 
Q 2469 925 2534 1272 
L 3397 1125 
Q 3263 531 2881 228 
Q 2500 -75 1859 -75 
Q 1131 -75 698 384 
Q 266 844 266 1656 
Q 266 2478 700 2936 
Q 1134 3394 1875 3394 
Q 2481 3394 2839 3133 
Q 3197 2872 3353 2338 
z
" transform="scale(0.015625)"/>
       <path id="Arial-BoldMT-67" d="M 378 -219 
L 1381 -341 
Q 1406 -516 1497 -581 
Q 1622 -675 1891 -675 
Q 2234 -675 2406 -572 
Q 2522 -503 2581 -350 
Q 2622 -241 2622 53 
L 2622 538 
Q 2228 0 1628 0 
Q 959 0 569 566 
Q 263 1013 263 1678 
Q 263 2513 664 2953 
Q 1066 3394 1663 3394 
Q 2278 3394 2678 2853 
L 2678 3319 
L 3500 3319 
L 3500 341 
Q 3500 -247 3403 -537 
Q 3306 -828 3131 -993 
Q 2956 -1159 2664 -1253 
Q 2372 -1347 1925 -1347 
Q 1081 -1347 728 -1058 
Q 375 -769 375 -325 
Q 375 -281 378 -219 
z
M 1163 1728 
Q 1163 1200 1367 954 
Q 1572 709 1872 709 
Q 2194 709 2416 961 
Q 2638 1213 2638 1706 
Q 2638 2222 2425 2472 
Q 2213 2722 1888 2722 
Q 1572 2722 1367 2476 
Q 1163 2231 1163 1728 
z
" transform="scale(0.015625)"/>
       <path id="Arial-BoldMT-20" transform="scale(0.015625)"/>
       <path id="Arial-BoldMT-6f" d="M 256 1706 
Q 256 2144 472 2553 
Q 688 2963 1083 3178 
Q 1478 3394 1966 3394 
Q 2719 3394 3200 2905 
Q 3681 2416 3681 1669 
Q 3681 916 3195 420 
Q 2709 -75 1972 -75 
Q 1516 -75 1102 131 
Q 688 338 472 736 
Q 256 1134 256 1706 
z
M 1156 1659 
Q 1156 1166 1390 903 
Q 1625 641 1969 641 
Q 2313 641 2545 903 
Q 2778 1166 2778 1666 
Q 2778 2153 2545 2415 
Q 2313 2678 1969 2678 
Q 1625 2678 1390 2415 
Q 1156 2153 1156 1659 
z
" transform="scale(0.015625)"/>
       <path id="Arial-BoldMT-28" d="M 1916 -1347 
L 1313 -1347 
Q 834 -625 584 153 
Q 334 931 334 1659 
Q 334 2563 644 3369 
Q 913 4069 1325 4659 
L 1925 4659 
Q 1497 3713 1336 3048 
Q 1175 2384 1175 1641 
Q 1175 1128 1270 590 
Q 1366 53 1531 -431 
Q 1641 -750 1916 -1347 
z
" transform="scale(0.015625)"/>
       <path id="Arial-BoldMT-2e" d="M 459 0 
L 459 878 
L 1338 878 
L 1338 0 
L 459 0 
z
" transform="scale(0.015625)"/>
       <path id="Arial-BoldMT-29" d="M 216 -1347 
Q 475 -791 581 -494 
Q 688 -197 778 190 
Q 869 578 912 926 
Q 956 1275 956 1641 
Q 956 2384 797 3048 
Q 638 3713 209 4659 
L 806 4659 
Q 1278 3988 1539 3234 
Q 1800 2481 1800 1706 
Q 1800 1053 1594 306 
Q 1359 -531 822 -1347 
L 216 -1347 
z
" transform="scale(0.015625)"/>
      </defs>
      <use xlink:href="#Arial-BoldMT-63"/>
      <use xlink:href="#Arial-BoldMT-72" x="55.615234"/>
      <use xlink:href="#Arial-BoldMT-61" x="94.53125"/>
      <use xlink:href="#Arial-BoldMT-76" x="150.146484"/>
      <use xlink:href="#Arial-BoldMT-69" x="205.761719"/>
      <use xlink:href="#Arial-BoldMT-6e" x="233.544922"/>
      <use xlink:href="#Arial-BoldMT-67" x="294.628906"/>
      <use xlink:href="#Arial-BoldMT-20" x="355.712891"/>
      <use xlink:href="#Arial-BoldMT-73" x="383.496094"/>
      <use xlink:href="#Arial-BoldMT-63" x="439.111328"/>
      <use xlink:href="#Arial-BoldMT-6f" x="494.726562"/>
      <use xlink:href="#Arial-BoldMT-72" x="555.810547"/>
      <use xlink:href="#Arial-BoldMT-65" x="594.726562"/>
      <use xlink:href="#Arial-BoldMT-20" x="650.341797"/>
      <use xlink:href="#Arial-BoldMT-28" x="678.125"/>
      <use xlink:href="#Arial-BoldMT-61" x="711.425781"/>
      <use xlink:href="#Arial-BoldMT-2e" x="767.041016"/>
      <use xlink:href="#Arial-BoldMT-75" x="794.824219"/>
      <use xlink:href="#Arial-BoldMT-2e" x="855.908203"/>
      <use xlink:href="#Arial-BoldMT-29" x="883.691406"/>
     </g>
    </g>
   </g>
   <g id="PathCollection_1">
    <defs>
     <path id="C0_0_06c23ccb79" d="M 0 2.5 
C 0.663008 2.5 1.29895 2.236584 1.767767 1.767767 
C 2.236584 1.29895 2.5 0.663008 2.5 -0 
C 2.5 -0.663008 2.236584 -1.29895 1.767767 -1.767767 
C 1.29895 -2.236584 0.663008 -2.5 0 -2.5 
C -0.663008 -2.5 -1.29895 -2.236584 -1.767767 -1.767767 
C -2.236584 -1.29895 -2.5 -0.663008 -2.5 0 
C -2.5 0.663008 -2.236584 1.29895 -1.767767 1.767767 
C -1.29895 2.236584 -0.663008 2.5 0 2.5 
z
"/>
    </defs>
    <g clip-path="url(#p0d03da191b)">
     <use xlink:href="#C0_0_06c23ccb79" x="36.332605" y="95.71719" style="fill: #9ca8a4; fill-opacity: 0.7"/>
    </g>
    <g clip-path="url(#p0d03da191b)">
     <use xlink:href="#C0_0_06c23ccb79" x="37.331674" y="95.71719" style="fill: #9ca8a4; fill-opacity: 0.7"/>
    </g>
    <g clip-path="url(#p0d03da191b)">
     <use xlink:href="#C0_0_06c23ccb79" x="36.422498" y="95.71719" style="fill: #9ca8a4; fill-opacity: 0.7"/>
    </g>
    <g clip-path="url(#p0d03da191b)">
     <use xlink:href="#C0_0_06c23ccb79" x="35.905007" y="95.71719" style="fill: #9ca8a4; fill-opacity: 0.7"/>
    </g>
    <g clip-path="url(#p0d03da191b)">
     <use xlink:href="#C0_0_06c23ccb79" x="33.74192" y="95.71719" style="fill: #9ca8a4; fill-opacity: 0.7"/>
    </g>
    <g clip-path="url(#p0d03da191b)">
     <use xlink:href="#C0_0_06c23ccb79" x="35.708209" y="95.71719" style="fill: #9ca8a4; fill-opacity: 0.7"/>
    </g>
    <g clip-path="url(#p0d03da191b)">
     <use xlink:href="#C0_0_06c23ccb79" x="35.335279" y="95.71719" style="fill: #9ca8a4; fill-opacity: 0.7"/>
    </g>
    <g clip-path="url(#p0d03da191b)">
     <use xlink:href="#C0_0_06c23ccb79" x="33.619675" y="95.71719" style="fill: #9ca8a4; fill-opacity: 0.7"/>
    </g>
    <g clip-path="url(#p0d03da191b)">
     <use xlink:href="#C0_0_06c23ccb79" x="37.133432" y="95.71719" style="fill: #9ca8a4; fill-opacity: 0.7"/>
    </g>
    <g clip-path="url(#p0d03da191b)">
     <use xlink:href="#C0_0_06c23ccb79" x="37.348524" y="95.71719" style="fill: #9ca8a4; fill-opacity: 0.7"/>
    </g>
    <g clip-path="url(#p0d03da191b)">
     <use xlink:href="#C0_0_06c23ccb79" x="34.035949" y="95.71719" style="fill: #9ca8a4; fill-opacity: 0.7"/>
    </g>
    <g clip-path="url(#p0d03da191b)">
     <use xlink:href="#C0_0_06c23ccb79" x="33.312314" y="95.71719" style="fill: #9ca8a4; fill-opacity: 0.7"/>
    </g>
    <g clip-path="url(#p0d03da191b)">
     <use xlink:href="#C0_0_06c23ccb79" x="36.88365" y="91.681298" style="fill: #9ca8a4; fill-opacity: 0.7"/>
    </g>
    <g clip-path="url(#p0d03da191b)">
     <use xlink:href="#C0_0_06c23ccb79" x="33.020808" y="95.71719" style="fill: #9ca8a4; fill-opacity: 0.7"/>
    </g>
    <g clip-path="url(#p0d03da191b)">
     <use xlink:href="#C0_0_06c23ccb79" x="35.917773" y="95.71719" style="fill: #9ca8a4; fill-opacity: 0.7"/>
    </g>
    <g clip-path="url(#p0d03da191b)">
     <use xlink:href="#C0_0_06c23ccb79" x="35.623539" y="95.71719" style="fill: #9ca8a4; fill-opacity: 0.7"/>
    </g>
    <g clip-path="url(#p0d03da191b)">
     <use xlink:href="#C0_0_06c23ccb79" x="34.084127" y="95.71719" style="fill: #9ca8a4; fill-opacity: 0.7"/>
    </g>
    <g clip-path="url(#p0d03da191b)">
     <use xlink:href="#C0_0_06c23ccb79" x="34.919553" y="95.71719" style="fill: #9ca8a4; fill-opacity: 0.7"/>
    </g>
    <g clip-path="url(#p0d03da191b)">
     <use xlink:href="#C0_0_06c23ccb79" x="33.942663" y="95.71719" style="fill: #9ca8a4; fill-opacity: 0.7"/>
    </g>
    <g clip-path="url(#p0d03da191b)">
     <use xlink:href="#C0_0_06c23ccb79" x="35.887543" y="95.71719" style="fill: #9ca8a4; fill-opacity: 0.7"/>
    </g>
    <g clip-path="url(#p0d03da191b)">
     <use xlink:href="#C0_0_06c23ccb79" x="36.553362" y="95.71719" style="fill: #9ca8a4; fill-opacity: 0.7"/>
    </g>
    <g clip-path="url(#p0d03da191b)">
     <use xlink:href="#C0_0_06c23ccb79" x="34.545566" y="95.71719" style="fill: #9ca8a4; fill-opacity: 0.7"/>
    </g>
    <g clip-path="url(#p0d03da191b)">
     <use xlink:href="#C0_0_06c23ccb79" x="35.903595" y="95.71719" style="fill: #9ca8a4; fill-opacity: 0.7"/>
    </g>
    <g clip-path="url(#p0d03da191b)">
     <use xlink:href="#C0_0_06c23ccb79" x="35.083243" y="95.71719" style="fill: #9ca8a4; fill-opacity: 0.7"/>
    </g>
    <g clip-path="url(#p0d03da191b)">
     <use xlink:href="#C0_0_06c23ccb79" x="33.131031" y="95.71719" style="fill: #9ca8a4; fill-opacity: 0.7"/>
    </g>
    <g clip-path="url(#p0d03da191b)">
     <use xlink:href="#C0_0_06c23ccb79" x="36.367714" y="95.71719" style="fill: #9ca8a4; fill-opacity: 0.7"/>
    </g>
    <g clip-path="url(#p0d03da191b)">
     <use xlink:href="#C0_0_06c23ccb79" x="32.787701" y="95.71719" style="fill: #9ca8a4; fill-opacity: 0.7"/>
    </g>
    <g clip-path="url(#p0d03da191b)">
     <use xlink:href="#C0_0_06c23ccb79" x="34.899549" y="95.71719" style="fill: #9ca8a4; fill-opacity: 0.7"/>
    </g>
    <g clip-path="url(#p0d03da191b)">
     <use xlink:href="#C0_0_06c23ccb79" x="32.55625" y="95.71719" style="fill: #9ca8a4; fill-opacity: 0.7"/>
    </g>
    <g clip-path="url(#p0d03da191b)">
     <use xlink:href="#C0_0_06c23ccb79" x="34.380894" y="95.71719" style="fill: #9ca8a4; fill-opacity: 0.7"/>
    </g>
    <g clip-path="url(#p0d03da191b)">
     <use xlink:href="#C0_0_06c23ccb79" x="36.7743" y="75.53773" style="fill: #9ca8a4; fill-opacity: 0.7"/>
    </g>
    <g clip-path="url(#p0d03da191b)">
     <use xlink:href="#C0_0_06c23ccb79" x="36.736532" y="95.71719" style="fill: #9ca8a4; fill-opacity: 0.7"/>
    </g>
    <g clip-path="url(#p0d03da191b)">
     <use xlink:href="#C0_0_06c23ccb79" x="33.344788" y="95.71719" style="fill: #9ca8a4; fill-opacity: 0.7"/>
    </g>
    <g clip-path="url(#p0d03da191b)">
     <use xlink:href="#C0_0_06c23ccb79" x="34.216937" y="95.71719" style="fill: #9ca8a4; fill-opacity: 0.7"/>
    </g>
    <g clip-path="url(#p0d03da191b)">
     <use xlink:href="#C0_0_06c23ccb79" x="36.699764" y="95.71719" style="fill: #9ca8a4; fill-opacity: 0.7"/>
    </g>
    <g clip-path="url(#p0d03da191b)">
     <use xlink:href="#C0_0_06c23ccb79" x="32.80885" y="95.71719" style="fill: #9ca8a4; fill-opacity: 0.7"/>
    </g>
    <g clip-path="url(#p0d03da191b)">
     <use xlink:href="#C0_0_06c23ccb79" x="36.023086" y="95.71719" style="fill: #9ca8a4; fill-opacity: 0.7"/>
    </g>
    <g clip-path="url(#p0d03da191b)">
     <use xlink:href="#C0_0_06c23ccb79" x="32.797646" y="95.71719" style="fill: #9ca8a4; fill-opacity: 0.7"/>
    </g>
    <g clip-path="url(#p0d03da191b)">
     <use xlink:href="#C0_0_06c23ccb79" x="33.427229" y="95.71719" style="fill: #9ca8a4; fill-opacity: 0.7"/>
    </g>
   </g>
   <g id="PathCollection_2">
    <defs>
     <path id="C1_0_c30b1fb197" d="M 0 2.5 
C 0.663008 2.5 1.29895 2.236584 1.767767 1.767767 
C 2.236584 1.29895 2.5 0.663008 2.5 -0 
C 2.5 -0.663008 2.236584 -1.29895 1.767767 -1.767767 
C 1.29895 -2.236584 0.663008 -2.5 0 -2.5 
C -0.663008 -2.5 -1.29895 -2.236584 -1.767767 -1.767767 
C -2.236584 -1.29895 -2.5 -0.663008 -2.5 0 
C -2.5 0.663008 -2.236584 1.29895 -1.767767 1.767767 
C -1.29895 2.236584 -0.663008 2.5 0 2.5 
z
"/>
    </defs>
    <g clip-path="url(#p0d03da191b)">
     <use xlink:href="#C1_0_c30b1fb197" x="56.947126" y="95.71719" style="fill: #c37a57; fill-opacity: 0.7"/>
    </g>
    <g clip-path="url(#p0d03da191b)">
     <use xlink:href="#C1_0_c30b1fb197" x="56.200721" y="95.71719" style="fill: #c37a57; fill-opacity: 0.7"/>
    </g>
    <g clip-path="url(#p0d03da191b)">
     <use xlink:href="#C1_0_c30b1fb197" x="56.128649" y="95.71719" style="fill: #c37a57; fill-opacity: 0.7"/>
    </g>
    <g clip-path="url(#p0d03da191b)">
     <use xlink:href="#C1_0_c30b1fb197" x="57.069786" y="95.71719" style="fill: #c37a57; fill-opacity: 0.7"/>
    </g>
    <g clip-path="url(#p0d03da191b)">
     <use xlink:href="#C1_0_c30b1fb197" x="55.607777" y="95.71719" style="fill: #c37a57; fill-opacity: 0.7"/>
    </g>
    <g clip-path="url(#p0d03da191b)">
     <use xlink:href="#C1_0_c30b1fb197" x="58.697908" y="95.71719" style="fill: #c37a57; fill-opacity: 0.7"/>
    </g>
    <g clip-path="url(#p0d03da191b)">
     <use xlink:href="#C1_0_c30b1fb197" x="56.809673" y="95.71719" style="fill: #c37a57; fill-opacity: 0.7"/>
    </g>
    <g clip-path="url(#p0d03da191b)">
     <use xlink:href="#C1_0_c30b1fb197" x="56.485428" y="95.71719" style="fill: #c37a57; fill-opacity: 0.7"/>
    </g>
    <g clip-path="url(#p0d03da191b)">
     <use xlink:href="#C1_0_c30b1fb197" x="59.177842" y="95.71719" style="fill: #c37a57; fill-opacity: 0.7"/>
    </g>
    <g clip-path="url(#p0d03da191b)">
     <use xlink:href="#C1_0_c30b1fb197" x="57.240277" y="95.71719" style="fill: #c37a57; fill-opacity: 0.7"/>
    </g>
    <g clip-path="url(#p0d03da191b)">
     <use xlink:href="#C1_0_c30b1fb197" x="55.462317" y="95.71719" style="fill: #c37a57; fill-opacity: 0.7"/>
    </g>
    <g clip-path="url(#p0d03da191b)">
     <use xlink:href="#C1_0_c30b1fb197" x="57.408836" y="95.71719" style="fill: #c37a57; fill-opacity: 0.7"/>
    </g>
    <g clip-path="url(#p0d03da191b)">
     <use xlink:href="#C1_0_c30b1fb197" x="54.920832" y="95.71719" style="fill: #c37a57; fill-opacity: 0.7"/>
    </g>
    <g clip-path="url(#p0d03da191b)">
     <use xlink:href="#C1_0_c30b1fb197" x="57.085343" y="95.71719" style="fill: #c37a57; fill-opacity: 0.7"/>
    </g>
    <g clip-path="url(#p0d03da191b)">
     <use xlink:href="#C1_0_c30b1fb197" x="56.149276" y="95.71719" style="fill: #c37a57; fill-opacity: 0.7"/>
    </g>
    <g clip-path="url(#p0d03da191b)">
     <use xlink:href="#C1_0_c30b1fb197" x="56.06446" y="95.71719" style="fill: #c37a57; fill-opacity: 0.7"/>
    </g>
    <g clip-path="url(#p0d03da191b)">
     <use xlink:href="#C1_0_c30b1fb197" x="57.283095" y="95.71719" style="fill: #c37a57; fill-opacity: 0.7"/>
    </g>
    <g clip-path="url(#p0d03da191b)">
     <use xlink:href="#C1_0_c30b1fb197" x="58.202189" y="95.71719" style="fill: #c37a57; fill-opacity: 0.7"/>
    </g>
    <g clip-path="url(#p0d03da191b)">
     <use xlink:href="#C1_0_c30b1fb197" x="56.065431" y="95.71719" style="fill: #c37a57; fill-opacity: 0.7"/>
    </g>
    <g clip-path="url(#p0d03da191b)">
     <use xlink:href="#C1_0_c30b1fb197" x="59.843635" y="95.71719" style="fill: #c37a57; fill-opacity: 0.7"/>
    </g>
    <g clip-path="url(#p0d03da191b)">
     <use xlink:href="#C1_0_c30b1fb197" x="57.268929" y="95.71719" style="fill: #c37a57; fill-opacity: 0.7"/>
    </g>
    <g clip-path="url(#p0d03da191b)">
     <use xlink:href="#C1_0_c30b1fb197" x="55.712957" y="95.71719" style="fill: #c37a57; fill-opacity: 0.7"/>
    </g>
    <g clip-path="url(#p0d03da191b)">
     <use xlink:href="#C1_0_c30b1fb197" x="55.686649" y="95.71719" style="fill: #c37a57; fill-opacity: 0.7"/>
    </g>
    <g clip-path="url(#p0d03da191b)">
     <use xlink:href="#C1_0_c30b1fb197" x="58.647456" y="95.71719" style="fill: #c37a57; fill-opacity: 0.7"/>
    </g>
    <g clip-path="url(#p0d03da191b)">
     <use xlink:href="#C1_0_c30b1fb197" x="54.673446" y="95.71719" style="fill: #c37a57; fill-opacity: 0.7"/>
    </g>
    <g clip-path="url(#p0d03da191b)">
     <use xlink:href="#C1_0_c30b1fb197" x="58.723916" y="95.71719" style="fill: #c37a57; fill-opacity: 0.7"/>
    </g>
    <g clip-path="url(#p0d03da191b)">
     <use xlink:href="#C1_0_c30b1fb197" x="54.821054" y="95.71719" style="fill: #c37a57; fill-opacity: 0.7"/>
    </g>
    <g clip-path="url(#p0d03da191b)">
     <use xlink:href="#C1_0_c30b1fb197" x="58.754652" y="95.71719" style="fill: #c37a57; fill-opacity: 0.7"/>
    </g>
    <g clip-path="url(#p0d03da191b)">
     <use xlink:href="#C1_0_c30b1fb197" x="57.90716" y="95.71719" style="fill: #c37a57; fill-opacity: 0.7"/>
    </g>
    <g clip-path="url(#p0d03da191b)">
     <use xlink:href="#C1_0_c30b1fb197" x="56.461748" y="95.71719" style="fill: #c37a57; fill-opacity: 0.7"/>
    </g>
    <g clip-path="url(#p0d03da191b)">
     <use xlink:href="#C1_0_c30b1fb197" x="58.246321" y="85.62746" style="fill: #c37a57; fill-opacity: 0.7"/>
    </g>
    <g clip-path="url(#p0d03da191b)">
     <use xlink:href="#C1_0_c30b1fb197" x="55.669352" y="95.71719" style="fill: #c37a57; fill-opacity: 0.7"/>
    </g>
    <g clip-path="url(#p0d03da191b)">
     <use xlink:href="#C1_0_c30b1fb197" x="57.420403" y="95.71719" style="fill: #c37a57; fill-opacity: 0.7"/>
    </g>
    <g clip-path="url(#p0d03da191b)">
     <use xlink:href="#C1_0_c30b1fb197" x="54.548707" y="95.71719" style="fill: #c37a57; fill-opacity: 0.7"/>
    </g>
    <g clip-path="url(#p0d03da191b)">
     <use xlink:href="#C1_0_c30b1fb197" x="56.794621" y="95.71719" style="fill: #c37a57; fill-opacity: 0.7"/>
    </g>
    <g clip-path="url(#p0d03da191b)">
     <use xlink:href="#C1_0_c30b1fb197" x="56.734544" y="95.71719" style="fill: #c37a57; fill-opacity: 0.7"/>
    </g>
    <g clip-path="url(#p0d03da191b)">
     <use xlink:href="#C1_0_c30b1fb197" x="54.422972" y="95.71719" style="fill: #c37a57; fill-opacity: 0.7"/>
    </g>
    <g clip-path="url(#p0d03da191b)">
     <use xlink:href="#C1_0_c30b1fb197" x="57.207155" y="95.71719" style="fill: #c37a57; fill-opacity: 0.7"/>
    </g>
    <g clip-path="url(#p0d03da191b)">
     <use xlink:href="#C1_0_c30b1fb197" x="58.572398" y="95.71719" style="fill: #c37a57; fill-opacity: 0.7"/>
    </g>
   </g>
   <g id="PathCollection_3">
    <defs>
     <path id="C2_0_80e055d0ac" d="M 0 2.5 
C 0.663008 2.5 1.29895 2.236584 1.767767 1.767767 
C 2.236584 1.29895 2.5 0.663008 2.5 -0 
C 2.5 -0.663008 2.236584 -1.29895 1.767767 -1.767767 
C 1.29895 -2.236584 0.663008 -2.5 0 -2.5 
C -0.663008 -2.5 -1.29895 -2.236584 -1.767767 -1.767767 
C -2.236584 -1.29895 -2.5 -0.663008 -2.5 0 
C -2.5 0.663008 -2.236584 1.29895 -1.767767 1.767767 
C -1.29895 2.236584 -0.663008 2.5 0 2.5 
z
"/>
    </defs>
    <g clip-path="url(#p0d03da191b)">
     <use xlink:href="#C2_0_80e055d0ac" x="89.331933" y="95.71719" style="fill: #9ca8a4; fill-opacity: 0.7"/>
    </g>
    <g clip-path="url(#p0d03da191b)">
     <use xlink:href="#C2_0_80e055d0ac" x="92.617153" y="95.71719" style="fill: #9ca8a4; fill-opacity: 0.7"/>
    </g>
    <g clip-path="url(#p0d03da191b)">
     <use xlink:href="#C2_0_80e055d0ac" x="92.387401" y="95.71719" style="fill: #9ca8a4; fill-opacity: 0.7"/>
    </g>
    <g clip-path="url(#p0d03da191b)">
     <use xlink:href="#C2_0_80e055d0ac" x="90.70565" y="95.71719" style="fill: #9ca8a4; fill-opacity: 0.7"/>
    </g>
    <g clip-path="url(#p0d03da191b)">
     <use xlink:href="#C2_0_80e055d0ac" x="91.936018" y="95.71719" style="fill: #9ca8a4; fill-opacity: 0.7"/>
    </g>
    <g clip-path="url(#p0d03da191b)">
     <use xlink:href="#C2_0_80e055d0ac" x="91.538473" y="95.71719" style="fill: #9ca8a4; fill-opacity: 0.7"/>
    </g>
    <g clip-path="url(#p0d03da191b)">
     <use xlink:href="#C2_0_80e055d0ac" x="88.923517" y="95.71719" style="fill: #9ca8a4; fill-opacity: 0.7"/>
    </g>
    <g clip-path="url(#p0d03da191b)">
     <use xlink:href="#C2_0_80e055d0ac" x="89.661632" y="95.71719" style="fill: #9ca8a4; fill-opacity: 0.7"/>
    </g>
    <g clip-path="url(#p0d03da191b)">
     <use xlink:href="#C2_0_80e055d0ac" x="92.667258" y="95.71719" style="fill: #9ca8a4; fill-opacity: 0.7"/>
    </g>
    <g clip-path="url(#p0d03da191b)">
     <use xlink:href="#C2_0_80e055d0ac" x="89.985353" y="95.71719" style="fill: #9ca8a4; fill-opacity: 0.7"/>
    </g>
    <g clip-path="url(#p0d03da191b)">
     <use xlink:href="#C2_0_80e055d0ac" x="92.794539" y="91.681298" style="fill: #9ca8a4; fill-opacity: 0.7"/>
    </g>
    <g clip-path="url(#p0d03da191b)">
     <use xlink:href="#C2_0_80e055d0ac" x="92.667731" y="95.71719" style="fill: #9ca8a4; fill-opacity: 0.7"/>
    </g>
    <g clip-path="url(#p0d03da191b)">
     <use xlink:href="#C2_0_80e055d0ac" x="89.233722" y="95.71719" style="fill: #9ca8a4; fill-opacity: 0.7"/>
    </g>
    <g clip-path="url(#p0d03da191b)">
     <use xlink:href="#C2_0_80e055d0ac" x="90.183629" y="95.71719" style="fill: #9ca8a4; fill-opacity: 0.7"/>
    </g>
    <g clip-path="url(#p0d03da191b)">
     <use xlink:href="#C2_0_80e055d0ac" x="92.247354" y="95.71719" style="fill: #9ca8a4; fill-opacity: 0.7"/>
    </g>
    <g clip-path="url(#p0d03da191b)">
     <use xlink:href="#C2_0_80e055d0ac" x="90.165549" y="95.71719" style="fill: #9ca8a4; fill-opacity: 0.7"/>
    </g>
    <g clip-path="url(#p0d03da191b)">
     <use xlink:href="#C2_0_80e055d0ac" x="88.996004" y="95.71719" style="fill: #9ca8a4; fill-opacity: 0.7"/>
    </g>
    <g clip-path="url(#p0d03da191b)">
     <use xlink:href="#C2_0_80e055d0ac" x="91.29986" y="95.71719" style="fill: #9ca8a4; fill-opacity: 0.7"/>
    </g>
    <g clip-path="url(#p0d03da191b)">
     <use xlink:href="#C2_0_80e055d0ac" x="92.282309" y="95.71719" style="fill: #9ca8a4; fill-opacity: 0.7"/>
    </g>
    <g clip-path="url(#p0d03da191b)">
     <use xlink:href="#C2_0_80e055d0ac" x="91.551718" y="95.71719" style="fill: #9ca8a4; fill-opacity: 0.7"/>
    </g>
    <g clip-path="url(#p0d03da191b)">
     <use xlink:href="#C2_0_80e055d0ac" x="89.848175" y="95.71719" style="fill: #9ca8a4; fill-opacity: 0.7"/>
    </g>
    <g clip-path="url(#p0d03da191b)">
     <use xlink:href="#C2_0_80e055d0ac" x="91.288164" y="95.71719" style="fill: #9ca8a4; fill-opacity: 0.7"/>
    </g>
    <g clip-path="url(#p0d03da191b)">
     <use xlink:href="#C2_0_80e055d0ac" x="87.819421" y="95.71719" style="fill: #9ca8a4; fill-opacity: 0.7"/>
    </g>
    <g clip-path="url(#p0d03da191b)">
     <use xlink:href="#C2_0_80e055d0ac" x="92.938266" y="95.71719" style="fill: #9ca8a4; fill-opacity: 0.7"/>
    </g>
    <g clip-path="url(#p0d03da191b)">
     <use xlink:href="#C2_0_80e055d0ac" x="91.561008" y="95.71719" style="fill: #9ca8a4; fill-opacity: 0.7"/>
    </g>
    <g clip-path="url(#p0d03da191b)">
     <use xlink:href="#C2_0_80e055d0ac" x="87.95479" y="95.71719" style="fill: #9ca8a4; fill-opacity: 0.7"/>
    </g>
    <g clip-path="url(#p0d03da191b)">
     <use xlink:href="#C2_0_80e055d0ac" x="92.239237" y="95.71719" style="fill: #9ca8a4; fill-opacity: 0.7"/>
    </g>
    <g clip-path="url(#p0d03da191b)">
     <use xlink:href="#C2_0_80e055d0ac" x="90.473244" y="35.17881" style="fill: #9ca8a4; fill-opacity: 0.7"/>
    </g>
    <g clip-path="url(#p0d03da191b)">
     <use xlink:href="#C2_0_80e055d0ac" x="91.163939" y="95.71719" style="fill: #9ca8a4; fill-opacity: 0.7"/>
    </g>
    <g clip-path="url(#p0d03da191b)">
     <use xlink:href="#C2_0_80e055d0ac" x="92.902673" y="95.71719" style="fill: #9ca8a4; fill-opacity: 0.7"/>
    </g>
    <g clip-path="url(#p0d03da191b)">
     <use xlink:href="#C2_0_80e055d0ac" x="91.380992" y="95.71719" style="fill: #9ca8a4; fill-opacity: 0.7"/>
    </g>
    <g clip-path="url(#p0d03da191b)">
     <use xlink:href="#C2_0_80e055d0ac" x="91.458088" y="55.35827" style="fill: #9ca8a4; fill-opacity: 0.7"/>
    </g>
    <g clip-path="url(#p0d03da191b)">
     <use xlink:href="#C2_0_80e055d0ac" x="88.578169" y="95.71719" style="fill: #9ca8a4; fill-opacity: 0.7"/>
    </g>
    <g clip-path="url(#p0d03da191b)">
     <use xlink:href="#C2_0_80e055d0ac" x="87.809315" y="95.71719" style="fill: #9ca8a4; fill-opacity: 0.7"/>
    </g>
    <g clip-path="url(#p0d03da191b)">
     <use xlink:href="#C2_0_80e055d0ac" x="87.915254" y="45.26854" style="fill: #9ca8a4; fill-opacity: 0.7"/>
    </g>
    <g clip-path="url(#p0d03da191b)">
     <use xlink:href="#C2_0_80e055d0ac" x="88.755976" y="95.71719" style="fill: #9ca8a4; fill-opacity: 0.7"/>
    </g>
    <g clip-path="url(#p0d03da191b)">
     <use xlink:href="#C2_0_80e055d0ac" x="90.118395" y="35.17881" style="fill: #9ca8a4; fill-opacity: 0.7"/>
    </g>
    <g clip-path="url(#p0d03da191b)">
     <use xlink:href="#C2_0_80e055d0ac" x="88.769817" y="95.71719" style="fill: #9ca8a4; fill-opacity: 0.7"/>
    </g>
    <g clip-path="url(#p0d03da191b)">
     <use xlink:href="#C2_0_80e055d0ac" x="87.764563" y="95.71719" style="fill: #9ca8a4; fill-opacity: 0.7"/>
    </g>
    <g clip-path="url(#p0d03da191b)">
     <use xlink:href="#C2_0_80e055d0ac" x="91.827606" y="95.71719" style="fill: #9ca8a4; fill-opacity: 0.7"/>
    </g>
    <g clip-path="url(#p0d03da191b)">
     <use xlink:href="#C2_0_80e055d0ac" x="90.388039" y="95.71719" style="fill: #9ca8a4; fill-opacity: 0.7"/>
    </g>
    <g clip-path="url(#p0d03da191b)">
     <use xlink:href="#C2_0_80e055d0ac" x="91.900053" y="95.71719" style="fill: #9ca8a4; fill-opacity: 0.7"/>
    </g>
   </g>
   <g id="PathCollection_4">
    <defs>
     <path id="C3_0_bdee10fc89" d="M 0 2.5 
C 0.663008 2.5 1.29895 2.236584 1.767767 1.767767 
C 2.236584 1.29895 2.5 0.663008 2.5 -0 
C 2.5 -0.663008 2.236584 -1.29895 1.767767 -1.767767 
C 1.29895 -2.236584 0.663008 -2.5 0 -2.5 
C -0.663008 -2.5 -1.29895 -2.236584 -1.767767 -1.767767 
C -2.236584 -1.29895 -2.5 -0.663008 -2.5 0 
C -2.5 0.663008 -2.236584 1.29895 -1.767767 1.767767 
C -1.29895 2.236584 -0.663008 2.5 0 2.5 
z
"/>
    </defs>
    <g clip-path="url(#p0d03da191b)">
     <use xlink:href="#C3_0_bdee10fc89" x="115.26789" y="95.71719" style="fill: #c37a57; fill-opacity: 0.7"/>
    </g>
    <g clip-path="url(#p0d03da191b)">
     <use xlink:href="#C3_0_bdee10fc89" x="112.530796" y="95.71719" style="fill: #c37a57; fill-opacity: 0.7"/>
    </g>
    <g clip-path="url(#p0d03da191b)">
     <use xlink:href="#C3_0_bdee10fc89" x="111.830689" y="95.71719" style="fill: #c37a57; fill-opacity: 0.7"/>
    </g>
    <g clip-path="url(#p0d03da191b)">
     <use xlink:href="#C3_0_bdee10fc89" x="110.850341" y="95.71719" style="fill: #c37a57; fill-opacity: 0.7"/>
    </g>
    <g clip-path="url(#p0d03da191b)">
     <use xlink:href="#C3_0_bdee10fc89" x="114.671761" y="95.71719" style="fill: #c37a57; fill-opacity: 0.7"/>
    </g>
    <g clip-path="url(#p0d03da191b)">
     <use xlink:href="#C3_0_bdee10fc89" x="111.447513" y="95.71719" style="fill: #c37a57; fill-opacity: 0.7"/>
    </g>
    <g clip-path="url(#p0d03da191b)">
     <use xlink:href="#C3_0_bdee10fc89" x="114.754548" y="95.71719" style="fill: #c37a57; fill-opacity: 0.7"/>
    </g>
    <g clip-path="url(#p0d03da191b)">
     <use xlink:href="#C3_0_bdee10fc89" x="113.286379" y="95.71719" style="fill: #c37a57; fill-opacity: 0.7"/>
    </g>
    <g clip-path="url(#p0d03da191b)">
     <use xlink:href="#C3_0_bdee10fc89" x="110.072666" y="95.71719" style="fill: #c37a57; fill-opacity: 0.7"/>
    </g>
    <g clip-path="url(#p0d03da191b)">
     <use xlink:href="#C3_0_bdee10fc89" x="113.01765" y="95.71719" style="fill: #c37a57; fill-opacity: 0.7"/>
    </g>
    <g clip-path="url(#p0d03da191b)">
     <use xlink:href="#C3_0_bdee10fc89" x="113.031055" y="95.71719" style="fill: #c37a57; fill-opacity: 0.7"/>
    </g>
    <g clip-path="url(#p0d03da191b)">
     <use xlink:href="#C3_0_bdee10fc89" x="111.760827" y="95.71719" style="fill: #c37a57; fill-opacity: 0.7"/>
    </g>
    <g clip-path="url(#p0d03da191b)">
     <use xlink:href="#C3_0_bdee10fc89" x="113.431035" y="95.71719" style="fill: #c37a57; fill-opacity: 0.7"/>
    </g>
    <g clip-path="url(#p0d03da191b)">
     <use xlink:href="#C3_0_bdee10fc89" x="113.375218" y="95.71719" style="fill: #c37a57; fill-opacity: 0.7"/>
    </g>
    <g clip-path="url(#p0d03da191b)">
     <use xlink:href="#C3_0_bdee10fc89" x="112.370209" y="95.71719" style="fill: #c37a57; fill-opacity: 0.7"/>
    </g>
    <g clip-path="url(#p0d03da191b)">
     <use xlink:href="#C3_0_bdee10fc89" x="115.187017" y="95.71719" style="fill: #c37a57; fill-opacity: 0.7"/>
    </g>
    <g clip-path="url(#p0d03da191b)">
     <use xlink:href="#C3_0_bdee10fc89" x="113.307175" y="95.71719" style="fill: #c37a57; fill-opacity: 0.7"/>
    </g>
    <g clip-path="url(#p0d03da191b)">
     <use xlink:href="#C3_0_bdee10fc89" x="112.893653" y="95.71719" style="fill: #c37a57; fill-opacity: 0.7"/>
    </g>
    <g clip-path="url(#p0d03da191b)">
     <use xlink:href="#C3_0_bdee10fc89" x="111.484869" y="95.71719" style="fill: #c37a57; fill-opacity: 0.7"/>
    </g>
    <g clip-path="url(#p0d03da191b)">
     <use xlink:href="#C3_0_bdee10fc89" x="110.321093" y="95.71719" style="fill: #c37a57; fill-opacity: 0.7"/>
    </g>
    <g clip-path="url(#p0d03da191b)">
     <use xlink:href="#C3_0_bdee10fc89" x="112.920392" y="95.71719" style="fill: #c37a57; fill-opacity: 0.7"/>
    </g>
    <g clip-path="url(#p0d03da191b)">
     <use xlink:href="#C3_0_bdee10fc89" x="110.489875" y="95.71719" style="fill: #c37a57; fill-opacity: 0.7"/>
    </g>
    <g clip-path="url(#p0d03da191b)">
     <use xlink:href="#C3_0_bdee10fc89" x="114.277356" y="95.71719" style="fill: #c37a57; fill-opacity: 0.7"/>
    </g>
    <g clip-path="url(#p0d03da191b)">
     <use xlink:href="#C3_0_bdee10fc89" x="111.877172" y="95.71719" style="fill: #c37a57; fill-opacity: 0.7"/>
    </g>
    <g clip-path="url(#p0d03da191b)">
     <use xlink:href="#C3_0_bdee10fc89" x="112.312169" y="95.71719" style="fill: #c37a57; fill-opacity: 0.7"/>
    </g>
    <g clip-path="url(#p0d03da191b)">
     <use xlink:href="#C3_0_bdee10fc89" x="111.179095" y="95.71719" style="fill: #c37a57; fill-opacity: 0.7"/>
    </g>
    <g clip-path="url(#p0d03da191b)">
     <use xlink:href="#C3_0_bdee10fc89" x="112.223513" y="95.71719" style="fill: #c37a57; fill-opacity: 0.7"/>
    </g>
    <g clip-path="url(#p0d03da191b)">
     <use xlink:href="#C3_0_bdee10fc89" x="112.946199" y="95.71719" style="fill: #c37a57; fill-opacity: 0.7"/>
    </g>
    <g clip-path="url(#p0d03da191b)">
     <use xlink:href="#C3_0_bdee10fc89" x="112.317214" y="95.71719" style="fill: #c37a57; fill-opacity: 0.7"/>
    </g>
    <g clip-path="url(#p0d03da191b)">
     <use xlink:href="#C3_0_bdee10fc89" x="110.870119" y="95.71719" style="fill: #c37a57; fill-opacity: 0.7"/>
    </g>
    <g clip-path="url(#p0d03da191b)">
     <use xlink:href="#C3_0_bdee10fc89" x="114.608964" y="95.71719" style="fill: #c37a57; fill-opacity: 0.7"/>
    </g>
    <g clip-path="url(#p0d03da191b)">
     <use xlink:href="#C3_0_bdee10fc89" x="112.237801" y="95.71719" style="fill: #c37a57; fill-opacity: 0.7"/>
    </g>
    <g clip-path="url(#p0d03da191b)">
     <use xlink:href="#C3_0_bdee10fc89" x="115.163825" y="95.71719" style="fill: #c37a57; fill-opacity: 0.7"/>
    </g>
    <g clip-path="url(#p0d03da191b)">
     <use xlink:href="#C3_0_bdee10fc89" x="110.254819" y="95.71719" style="fill: #c37a57; fill-opacity: 0.7"/>
    </g>
    <g clip-path="url(#p0d03da191b)">
     <use xlink:href="#C3_0_bdee10fc89" x="114.655399" y="75.53773" style="fill: #c37a57; fill-opacity: 0.7"/>
    </g>
    <g clip-path="url(#p0d03da191b)">
     <use xlink:href="#C3_0_bdee10fc89" x="114.397086" y="95.71719" style="fill: #c37a57; fill-opacity: 0.7"/>
    </g>
    <g clip-path="url(#p0d03da191b)">
     <use xlink:href="#C3_0_bdee10fc89" x="111.44254" y="85.62746" style="fill: #c37a57; fill-opacity: 0.7"/>
    </g>
    <g clip-path="url(#p0d03da191b)">
     <use xlink:href="#C3_0_bdee10fc89" x="115.062677" y="95.71719" style="fill: #c37a57; fill-opacity: 0.7"/>
    </g>
    <g clip-path="url(#p0d03da191b)">
     <use xlink:href="#C3_0_bdee10fc89" x="110.863306" y="95.71719" style="fill: #c37a57; fill-opacity: 0.7"/>
    </g>
    <g clip-path="url(#p0d03da191b)">
     <use xlink:href="#C3_0_bdee10fc89" x="110.079594" y="95.71719" style="fill: #c37a57; fill-opacity: 0.7"/>
    </g>
    <g clip-path="url(#p0d03da191b)">
     <use xlink:href="#C3_0_bdee10fc89" x="113.885467" y="95.71719" style="fill: #c37a57; fill-opacity: 0.7"/>
    </g>
    <g clip-path="url(#p0d03da191b)">
     <use xlink:href="#C3_0_bdee10fc89" x="110.560224" y="95.71719" style="fill: #c37a57; fill-opacity: 0.7"/>
    </g>
   </g>
   <g id="line2d_5">
    <path d="M 33.2055 98.374856 
L 36.2745 98.374856 
M 34.74 98.374856 
L 34.74 91.81771 
M 33.2055 91.81771 
L 36.2745 91.81771 
" clip-path="url(#p0d03da191b)" style="fill: none; stroke: #333333; stroke-width: 2.5; stroke-linecap: square"/>
   </g>
   <g id="line2d_6">
    <path d="M 89.0055 106.510511 
L 92.0745 106.510511 
M 90.54 106.510511 
L 90.54 74.641953 
M 89.0055 74.641953 
L 92.0745 74.641953 
" clip-path="url(#p0d03da191b)" style="fill: none; stroke: #333333; stroke-width: 2.5; stroke-linecap: square"/>
   </g>
   <g id="line2d_7">
    <path d="M 55.5255 97.074129 
L 58.5945 97.074129 
M 57.06 97.074129 
L 57.06 93.842829 
M 55.5255 93.842829 
L 58.5945 93.842829 
" clip-path="url(#p0d03da191b)" style="fill: none; stroke: #333333; stroke-width: 2.5; stroke-linecap: square"/>
   </g>
   <g id="line2d_8">
    <path d="M 111.3255 98.443651 
L 114.3945 98.443651 
M 112.86 98.443651 
L 112.86 91.549338 
M 111.3255 91.549338 
L 114.3945 91.549338 
" clip-path="url(#p0d03da191b)" style="fill: none; stroke: #333333; stroke-width: 2.5; stroke-linecap: square"/>
   </g>
   <g id="patch_9">
    <path d="M 18 115.344 
L 18 15.552 
" style="fill: none; stroke: #000000; stroke-width: 1.5; stroke-linejoin: miter; stroke-linecap: square"/>
   </g>
   <g id="patch_10">
    <path d="M 18 115.344 
L 129.6 115.344 
" style="fill: none; stroke: #000000; stroke-width: 1.5; stroke-linejoin: miter; stroke-linecap: square"/>
   </g>
   <g id="PathCollection_5">
    <defs>
     <path id="m061f90fdb7" d="M 0 3 
C 0.795609 3 1.55874 2.683901 2.12132 2.12132 
C 2.683901 1.55874 3 0.795609 3 0 
C 3 -0.795609 2.683901 -1.55874 2.12132 -2.12132 
C 1.55874 -2.683901 0.795609 -3 0 -3 
C -0.795609 -3 -1.55874 -2.683901 -2.12132 -2.12132 
C -2.683901 -1.55874 -3 -0.795609 -3 0 
C -3 0.795609 -2.683901 1.55874 -2.12132 2.12132 
C -1.55874 2.683901 -0.795609 3 0 3 
z
"/>
    </defs>
    <g clip-path="url(#p0d03da191b)">
     <use xlink:href="#m061f90fdb7" x="34.74" y="95.096283" style="fill: #333333"/>
    </g>
   </g>
   <g id="PathCollection_6">
    <g clip-path="url(#p0d03da191b)">
     <use xlink:href="#m061f90fdb7" x="57.06" y="95.458479" style="fill: #333333"/>
    </g>
   </g>
   <g id="PathCollection_7">
    <g clip-path="url(#p0d03da191b)">
     <use xlink:href="#m061f90fdb7" x="90.54" y="90.576232" style="fill: #333333"/>
    </g>
   </g>
   <g id="PathCollection_8">
    <g clip-path="url(#p0d03da191b)">
     <use xlink:href="#m061f90fdb7" x="112.86" y="94.996495" style="fill: #333333"/>
    </g>
   </g>
   <g id="line2d_9"/>
   <g id="line2d_10"/>
  </g>
 </g>
 <defs>
  <clipPath id="p0d03da191b">
   <rect x="18" y="15.552" width="111.6" height="99.792"/>
  </clipPath>
 </defs>
</svg>
