<?xml version="1.0" encoding="utf-8" standalone="no"?>
<!DOCTYPE svg PUBLIC "-//W3C//DTD SVG 1.1//EN"
  "http://www.w3.org/Graphics/SVG/1.1/DTD/svg11.dtd">
<svg xmlns:xlink="http://www.w3.org/1999/xlink" width="144pt" height="108pt" viewBox="0 0 144 108" xmlns="http://www.w3.org/2000/svg" version="1.1">
 <metadata>
  <rdf:RDF xmlns:dc="http://purl.org/dc/elements/1.1/" xmlns:cc="http://creativecommons.org/ns#" xmlns:rdf="http://www.w3.org/1999/02/22-rdf-syntax-ns#">
   <cc:Work>
    <dc:type rdf:resource="http://purl.org/dc/dcmitype/StillImage"/>
    <dc:date>2024-09-14T23:25:05.961708</dc:date>
    <dc:format>image/svg+xml</dc:format>
    <dc:creator>
     <cc:Agent>
      <dc:title>Matplotlib v3.7.1, https://matplotlib.org/</dc:title>
     </cc:Agent>
    </dc:creator>
   </cc:Work>
  </rdf:RDF>
 </metadata>
 <defs>
  <style type="text/css">*{stroke-linejoin: round; stroke-linecap: butt}</style>
 </defs>
 <g id="figure_1">
  <g id="patch_1">
   <path d="M 0 108 
L 144 108 
L 144 0 
L 0 0 
L 0 108 
z
" style="fill: none"/>
  </g>
  <g id="axes_1">
   <g id="patch_2">
    <path d="M 18 96.12 
L 129.6 96.12 
L 129.6 12.96 
L 18 12.96 
L 18 96.12 
z
" style="fill: none"/>
   </g>
   <g id="patch_3">
    <path d="M 23.58 96.12 
L 45.9 96.12 
L 45.9 27.297231 
L 23.58 27.297231 
z
" clip-path="url(#pdea1fd559c)" style="fill: #9f9f9f; opacity: 0.8"/>
   </g>
   <g id="patch_4">
    <path d="M 79.38 96.12 
L 101.7 96.12 
L 101.7 75 
L 79.38 75 
z
" clip-path="url(#pdea1fd559c)" style="fill: #9f9f9f; opacity: 0.8"/>
   </g>
   <g id="patch_5">
    <path d="M 45.9 96.12 
L 68.22 96.12 
L 68.22 64.338462 
L 45.9 64.338462 
z
" clip-path="url(#pdea1fd559c)" style="fill: #cfcece; opacity: 0.8"/>
   </g>
   <g id="patch_6">
    <path d="M 101.7 96.12 
L 124.02 96.12 
L 124.02 40.944 
L 101.7 40.944 
z
" clip-path="url(#pdea1fd559c)" style="fill: #cfcece; opacity: 0.8"/>
   </g>
   <g id="patch_7">
    <path d="M 45.9 96.12 
L 45.9 96.12 
L 45.9 96.12 
L 45.9 96.12 
z
" clip-path="url(#pdea1fd559c)" style="fill: #9f9f9f; opacity: 0.8"/>
   </g>
   <g id="patch_8">
    <path d="M 45.9 96.12 
L 45.9 96.12 
L 45.9 96.12 
L 45.9 96.12 
z
" clip-path="url(#pdea1fd559c)" style="fill: #cfcece; opacity: 0.8"/>
   </g>
   <g id="matplotlib.axis_1">
    <g id="xtick_1">
     <g id="line2d_1">
      <defs>
       <path id="m1467e29263" d="M 0 0 
L 0 3.5 
" style="stroke: #000000; stroke-width: 1.5"/>
      </defs>
      <g>
       <use xlink:href="#m1467e29263" x="45.9" y="96.12" style="stroke: #000000; stroke-width: 1.5"/>
      </g>
     </g>
     <g id="text_1">
      <!-- unpunished -->
      <g transform="translate(17.572656 110.277812) scale(0.1 -0.1)">
       <defs>
        <path id="Arial-BoldMT-75" d="M 2644 0 
L 2644 497 
Q 2463 231 2167 78 
Q 1872 -75 1544 -75 
Q 1209 -75 943 72 
Q 678 219 559 484 
Q 441 750 441 1219 
L 441 3319 
L 1319 3319 
L 1319 1794 
Q 1319 1094 1367 936 
Q 1416 778 1544 686 
Q 1672 594 1869 594 
Q 2094 594 2272 717 
Q 2450 841 2515 1023 
Q 2581 1206 2581 1919 
L 2581 3319 
L 3459 3319 
L 3459 0 
L 2644 0 
z
" transform="scale(0.015625)"/>
        <path id="Arial-BoldMT-6e" d="M 3478 0 
L 2600 0 
L 2600 1694 
Q 2600 2231 2544 2389 
Q 2488 2547 2361 2634 
Q 2234 2722 2056 2722 
Q 1828 2722 1647 2597 
Q 1466 2472 1398 2265 
Q 1331 2059 1331 1503 
L 1331 0 
L 453 0 
L 453 3319 
L 1269 3319 
L 1269 2831 
Q 1703 3394 2363 3394 
Q 2653 3394 2893 3289 
Q 3134 3184 3257 3021 
Q 3381 2859 3429 2653 
Q 3478 2447 3478 2063 
L 3478 0 
z
" transform="scale(0.015625)"/>
        <path id="Arial-BoldMT-70" d="M 434 3319 
L 1253 3319 
L 1253 2831 
Q 1413 3081 1684 3237 
Q 1956 3394 2288 3394 
Q 2866 3394 3269 2941 
Q 3672 2488 3672 1678 
Q 3672 847 3265 386 
Q 2859 -75 2281 -75 
Q 2006 -75 1782 34 
Q 1559 144 1313 409 
L 1313 -1263 
L 434 -1263 
L 434 3319 
z
M 1303 1716 
Q 1303 1156 1525 889 
Q 1747 622 2066 622 
Q 2372 622 2575 867 
Q 2778 1113 2778 1672 
Q 2778 2194 2568 2447 
Q 2359 2700 2050 2700 
Q 1728 2700 1515 2451 
Q 1303 2203 1303 1716 
z
" transform="scale(0.015625)"/>
        <path id="Arial-BoldMT-69" d="M 459 3769 
L 459 4581 
L 1338 4581 
L 1338 3769 
L 459 3769 
z
M 459 0 
L 459 3319 
L 1338 3319 
L 1338 0 
L 459 0 
z
" transform="scale(0.015625)"/>
        <path id="Arial-BoldMT-73" d="M 150 947 
L 1031 1081 
Q 1088 825 1259 692 
Q 1431 559 1741 559 
Q 2081 559 2253 684 
Q 2369 772 2369 919 
Q 2369 1019 2306 1084 
Q 2241 1147 2013 1200 
Q 950 1434 666 1628 
Q 272 1897 272 2375 
Q 272 2806 612 3100 
Q 953 3394 1669 3394 
Q 2350 3394 2681 3172 
Q 3013 2950 3138 2516 
L 2309 2363 
Q 2256 2556 2107 2659 
Q 1959 2763 1684 2763 
Q 1338 2763 1188 2666 
Q 1088 2597 1088 2488 
Q 1088 2394 1175 2328 
Q 1294 2241 1995 2081 
Q 2697 1922 2975 1691 
Q 3250 1456 3250 1038 
Q 3250 581 2869 253 
Q 2488 -75 1741 -75 
Q 1063 -75 667 200 
Q 272 475 150 947 
z
" transform="scale(0.015625)"/>
        <path id="Arial-BoldMT-68" d="M 1334 4581 
L 1334 2897 
Q 1759 3394 2350 3394 
Q 2653 3394 2897 3281 
Q 3141 3169 3264 2994 
Q 3388 2819 3433 2606 
Q 3478 2394 3478 1947 
L 3478 0 
L 2600 0 
L 2600 1753 
Q 2600 2275 2550 2415 
Q 2500 2556 2373 2639 
Q 2247 2722 2056 2722 
Q 1838 2722 1666 2615 
Q 1494 2509 1414 2295 
Q 1334 2081 1334 1663 
L 1334 0 
L 456 0 
L 456 4581 
L 1334 4581 
z
" transform="scale(0.015625)"/>
        <path id="Arial-BoldMT-65" d="M 2381 1056 
L 3256 909 
Q 3088 428 2723 176 
Q 2359 -75 1813 -75 
Q 947 -75 531 491 
Q 203 944 203 1634 
Q 203 2459 634 2926 
Q 1066 3394 1725 3394 
Q 2466 3394 2894 2905 
Q 3322 2416 3303 1406 
L 1103 1406 
Q 1113 1016 1316 798 
Q 1519 581 1822 581 
Q 2028 581 2168 693 
Q 2309 806 2381 1056 
z
M 2431 1944 
Q 2422 2325 2234 2523 
Q 2047 2722 1778 2722 
Q 1491 2722 1303 2513 
Q 1116 2303 1119 1944 
L 2431 1944 
z
" transform="scale(0.015625)"/>
        <path id="Arial-BoldMT-64" d="M 3503 0 
L 2688 0 
L 2688 488 
Q 2484 203 2207 64 
Q 1931 -75 1650 -75 
Q 1078 -75 670 386 
Q 263 847 263 1672 
Q 263 2516 659 2955 
Q 1056 3394 1663 3394 
Q 2219 3394 2625 2931 
L 2625 4581 
L 3503 4581 
L 3503 0 
z
M 1159 1731 
Q 1159 1200 1306 963 
Q 1519 619 1900 619 
Q 2203 619 2415 876 
Q 2628 1134 2628 1647 
Q 2628 2219 2422 2470 
Q 2216 2722 1894 2722 
Q 1581 2722 1370 2473 
Q 1159 2225 1159 1731 
z
" transform="scale(0.015625)"/>
       </defs>
       <use xlink:href="#Arial-BoldMT-75"/>
       <use xlink:href="#Arial-BoldMT-6e" x="61.083984"/>
       <use xlink:href="#Arial-BoldMT-70" x="122.167969"/>
       <use xlink:href="#Arial-BoldMT-75" x="183.251953"/>
       <use xlink:href="#Arial-BoldMT-6e" x="244.335938"/>
       <use xlink:href="#Arial-BoldMT-69" x="305.419922"/>
       <use xlink:href="#Arial-BoldMT-73" x="333.203125"/>
       <use xlink:href="#Arial-BoldMT-68" x="388.818359"/>
       <use xlink:href="#Arial-BoldMT-65" x="449.902344"/>
       <use xlink:href="#Arial-BoldMT-64" x="505.517578"/>
      </g>
     </g>
    </g>
    <g id="xtick_2">
     <g id="line2d_2">
      <g>
       <use xlink:href="#m1467e29263" x="101.7" y="96.12" style="stroke: #000000; stroke-width: 1.5"/>
      </g>
     </g>
     <g id="text_2">
      <!-- punished -->
      <g transform="translate(79.480469 110.277812) scale(0.1 -0.1)">
       <use xlink:href="#Arial-BoldMT-70"/>
       <use xlink:href="#Arial-BoldMT-75" x="61.083984"/>
       <use xlink:href="#Arial-BoldMT-6e" x="122.167969"/>
       <use xlink:href="#Arial-BoldMT-69" x="183.251953"/>
       <use xlink:href="#Arial-BoldMT-73" x="211.035156"/>
       <use xlink:href="#Arial-BoldMT-68" x="266.650391"/>
       <use xlink:href="#Arial-BoldMT-65" x="327.734375"/>
       <use xlink:href="#Arial-BoldMT-64" x="383.349609"/>
      </g>
     </g>
    </g>
    <g id="text_3">
     <!--   -->
     <g transform="translate(72.410938 123.409063) scale(0.1 -0.1)">
      <defs>
       <path id="Arial-BoldMT-20" transform="scale(0.015625)"/>
      </defs>
      <use xlink:href="#Arial-BoldMT-20"/>
     </g>
    </g>
   </g>
   <g id="matplotlib.axis_2">
    <g id="ytick_1">
     <g id="line2d_3">
      <defs>
       <path id="m996192e3bc" d="M 0 0 
L -3.5 0 
" style="stroke: #000000; stroke-width: 1.5"/>
      </defs>
      <g>
       <use xlink:href="#m996192e3bc" x="18" y="96.12" style="stroke: #000000; stroke-width: 1.5"/>
      </g>
     </g>
     <g id="text_4">
      <!-- 0.0 -->
      <g transform="translate(-2.9 99.698906) scale(0.1 -0.1)">
       <defs>
        <path id="Arial-BoldMT-30" d="M 1756 4600 
Q 2422 4600 2797 4125 
Q 3244 3563 3244 2259 
Q 3244 959 2794 391 
Q 2422 -78 1756 -78 
Q 1088 -78 678 436 
Q 269 950 269 2269 
Q 269 3563 719 4131 
Q 1091 4600 1756 4600 
z
M 1756 3872 
Q 1597 3872 1472 3770 
Q 1347 3669 1278 3406 
Q 1188 3066 1188 2259 
Q 1188 1453 1269 1151 
Q 1350 850 1473 750 
Q 1597 650 1756 650 
Q 1916 650 2041 751 
Q 2166 853 2234 1116 
Q 2325 1453 2325 2259 
Q 2325 3066 2244 3367 
Q 2163 3669 2039 3770 
Q 1916 3872 1756 3872 
z
" transform="scale(0.015625)"/>
        <path id="Arial-BoldMT-2e" d="M 459 0 
L 459 878 
L 1338 878 
L 1338 0 
L 459 0 
z
" transform="scale(0.015625)"/>
       </defs>
       <use xlink:href="#Arial-BoldMT-30"/>
       <use xlink:href="#Arial-BoldMT-2e" x="55.615234"/>
       <use xlink:href="#Arial-BoldMT-30" x="83.398438"/>
      </g>
     </g>
    </g>
    <g id="ytick_2">
     <g id="line2d_4">
      <g>
       <use xlink:href="#m996192e3bc" x="18" y="56.52" style="stroke: #000000; stroke-width: 1.5"/>
      </g>
     </g>
     <g id="text_5">
      <!-- 0.5 -->
      <g transform="translate(-2.9 60.098906) scale(0.1 -0.1)">
       <defs>
        <path id="Arial-BoldMT-35" d="M 284 1178 
L 1159 1269 
Q 1197 972 1381 798 
Q 1566 625 1806 625 
Q 2081 625 2272 848 
Q 2463 1072 2463 1522 
Q 2463 1944 2273 2155 
Q 2084 2366 1781 2366 
Q 1403 2366 1103 2031 
L 391 2134 
L 841 4519 
L 3163 4519 
L 3163 3697 
L 1506 3697 
L 1369 2919 
Q 1663 3066 1969 3066 
Q 2553 3066 2959 2641 
Q 3366 2216 3366 1538 
Q 3366 972 3038 528 
Q 2591 -78 1797 -78 
Q 1163 -78 763 262 
Q 363 603 284 1178 
z
" transform="scale(0.015625)"/>
       </defs>
       <use xlink:href="#Arial-BoldMT-30"/>
       <use xlink:href="#Arial-BoldMT-2e" x="55.615234"/>
       <use xlink:href="#Arial-BoldMT-35" x="83.398438"/>
      </g>
     </g>
    </g>
    <g id="ytick_3">
     <g id="line2d_5">
      <g>
       <use xlink:href="#m996192e3bc" x="18" y="16.92" style="stroke: #000000; stroke-width: 1.5"/>
      </g>
     </g>
     <g id="text_6">
      <!-- 1.0 -->
      <g transform="translate(-2.9 20.498906) scale(0.1 -0.1)">
       <defs>
        <path id="Arial-BoldMT-31" d="M 2519 0 
L 1641 0 
L 1641 3309 
Q 1159 2859 506 2644 
L 506 3441 
Q 850 3553 1253 3867 
Q 1656 4181 1806 4600 
L 2519 4600 
L 2519 0 
z
" transform="scale(0.015625)"/>
       </defs>
       <use xlink:href="#Arial-BoldMT-31"/>
       <use xlink:href="#Arial-BoldMT-2e" x="55.615234"/>
       <use xlink:href="#Arial-BoldMT-30" x="83.398438"/>
      </g>
     </g>
    </g>
    <g id="text_7">
     <!-- stay probability -->
     <g transform="translate(-9.004688 91.49) rotate(-90) scale(0.1 -0.1)">
      <defs>
       <path id="Arial-BoldMT-74" d="M 1981 3319 
L 1981 2619 
L 1381 2619 
L 1381 1281 
Q 1381 875 1398 808 
Q 1416 741 1477 697 
Q 1538 653 1625 653 
Q 1747 653 1978 738 
L 2053 56 
Q 1747 -75 1359 -75 
Q 1122 -75 931 4 
Q 741 84 652 211 
Q 563 338 528 553 
Q 500 706 500 1172 
L 500 2619 
L 97 2619 
L 97 3319 
L 500 3319 
L 500 3978 
L 1381 4491 
L 1381 3319 
L 1981 3319 
z
" transform="scale(0.015625)"/>
       <path id="Arial-BoldMT-61" d="M 1116 2306 
L 319 2450 
Q 453 2931 781 3162 
Q 1109 3394 1756 3394 
Q 2344 3394 2631 3255 
Q 2919 3116 3036 2902 
Q 3153 2688 3153 2116 
L 3144 1091 
Q 3144 653 3186 445 
Q 3228 238 3344 0 
L 2475 0 
Q 2441 88 2391 259 
Q 2369 338 2359 363 
Q 2134 144 1878 34 
Q 1622 -75 1331 -75 
Q 819 -75 523 203 
Q 228 481 228 906 
Q 228 1188 362 1408 
Q 497 1628 739 1745 
Q 981 1863 1438 1950 
Q 2053 2066 2291 2166 
L 2291 2253 
Q 2291 2506 2166 2614 
Q 2041 2722 1694 2722 
Q 1459 2722 1328 2630 
Q 1197 2538 1116 2306 
z
M 2291 1594 
Q 2122 1538 1756 1459 
Q 1391 1381 1278 1306 
Q 1106 1184 1106 997 
Q 1106 813 1243 678 
Q 1381 544 1594 544 
Q 1831 544 2047 700 
Q 2206 819 2256 991 
Q 2291 1103 2291 1419 
L 2291 1594 
z
" transform="scale(0.015625)"/>
       <path id="Arial-BoldMT-79" d="M 44 3319 
L 978 3319 
L 1772 963 
L 2547 3319 
L 3456 3319 
L 2284 125 
L 2075 -453 
Q 1959 -744 1854 -897 
Q 1750 -1050 1614 -1145 
Q 1478 -1241 1279 -1294 
Q 1081 -1347 831 -1347 
Q 578 -1347 334 -1294 
L 256 -606 
Q 463 -647 628 -647 
Q 934 -647 1081 -467 
Q 1228 -288 1306 -9 
L 44 3319 
z
" transform="scale(0.015625)"/>
       <path id="Arial-BoldMT-72" d="M 1300 0 
L 422 0 
L 422 3319 
L 1238 3319 
L 1238 2847 
Q 1447 3181 1614 3287 
Q 1781 3394 1994 3394 
Q 2294 3394 2572 3228 
L 2300 2463 
Q 2078 2606 1888 2606 
Q 1703 2606 1575 2504 
Q 1447 2403 1373 2137 
Q 1300 1872 1300 1025 
L 1300 0 
z
" transform="scale(0.015625)"/>
       <path id="Arial-BoldMT-6f" d="M 256 1706 
Q 256 2144 472 2553 
Q 688 2963 1083 3178 
Q 1478 3394 1966 3394 
Q 2719 3394 3200 2905 
Q 3681 2416 3681 1669 
Q 3681 916 3195 420 
Q 2709 -75 1972 -75 
Q 1516 -75 1102 131 
Q 688 338 472 736 
Q 256 1134 256 1706 
z
M 1156 1659 
Q 1156 1166 1390 903 
Q 1625 641 1969 641 
Q 2313 641 2545 903 
Q 2778 1166 2778 1666 
Q 2778 2153 2545 2415 
Q 2313 2678 1969 2678 
Q 1625 2678 1390 2415 
Q 1156 2153 1156 1659 
z
" transform="scale(0.015625)"/>
       <path id="Arial-BoldMT-62" d="M 422 0 
L 422 4581 
L 1300 4581 
L 1300 2931 
Q 1706 3394 2263 3394 
Q 2869 3394 3266 2955 
Q 3663 2516 3663 1694 
Q 3663 844 3258 384 
Q 2853 -75 2275 -75 
Q 1991 -75 1714 67 
Q 1438 209 1238 488 
L 1238 0 
L 422 0 
z
M 1294 1731 
Q 1294 1216 1456 969 
Q 1684 619 2063 619 
Q 2353 619 2558 867 
Q 2763 1116 2763 1650 
Q 2763 2219 2556 2470 
Q 2350 2722 2028 2722 
Q 1713 2722 1503 2476 
Q 1294 2231 1294 1731 
z
" transform="scale(0.015625)"/>
       <path id="Arial-BoldMT-6c" d="M 459 0 
L 459 4581 
L 1338 4581 
L 1338 0 
L 459 0 
z
" transform="scale(0.015625)"/>
      </defs>
      <use xlink:href="#Arial-BoldMT-73"/>
      <use xlink:href="#Arial-BoldMT-74" x="55.615234"/>
      <use xlink:href="#Arial-BoldMT-61" x="88.916016"/>
      <use xlink:href="#Arial-BoldMT-79" x="144.53125"/>
      <use xlink:href="#Arial-BoldMT-20" x="200.146484"/>
      <use xlink:href="#Arial-BoldMT-70" x="227.929688"/>
      <use xlink:href="#Arial-BoldMT-72" x="289.013672"/>
      <use xlink:href="#Arial-BoldMT-6f" x="327.929688"/>
      <use xlink:href="#Arial-BoldMT-62" x="389.013672"/>
      <use xlink:href="#Arial-BoldMT-61" x="450.097656"/>
      <use xlink:href="#Arial-BoldMT-62" x="505.712891"/>
      <use xlink:href="#Arial-BoldMT-69" x="566.796875"/>
      <use xlink:href="#Arial-BoldMT-6c" x="594.580078"/>
      <use xlink:href="#Arial-BoldMT-69" x="622.363281"/>
      <use xlink:href="#Arial-BoldMT-74" x="650.146484"/>
      <use xlink:href="#Arial-BoldMT-79" x="683.447266"/>
     </g>
    </g>
   </g>
   <g id="PathCollection_1">
    <defs>
     <path id="C0_0_ec9aee029d" d="M 0 2.5 
C 0.663008 2.5 1.29895 2.236584 1.767767 1.767767 
C 2.236584 1.29895 2.5 0.663008 2.5 -0 
C 2.5 -0.663008 2.236584 -1.29895 1.767767 -1.767767 
C 1.29895 -2.236584 0.663008 -2.5 0 -2.5 
C -0.663008 -2.5 -1.29895 -2.236584 -1.767767 -1.767767 
C -2.236584 -1.29895 -2.5 -0.663008 -2.5 0 
C -2.5 0.663008 -2.236584 1.29895 -1.767767 1.767767 
C -1.29895 2.236584 -0.663008 2.5 0 2.5 
z
"/>
    </defs>
    <g clip-path="url(#pdea1fd559c)">
     <use xlink:href="#C0_0_ec9aee029d" x="34.74" y="16.92" style="fill: #9f9f9f"/>
    </g>
    <g clip-path="url(#pdea1fd559c)">
     <use xlink:href="#C0_0_ec9aee029d" x="34.74" y="16.92" style="fill: #9f9f9f"/>
    </g>
    <g clip-path="url(#pdea1fd559c)">
     <use xlink:href="#C0_0_ec9aee029d" x="34.74" y="18.504" style="fill: #9f9f9f"/>
    </g>
    <g clip-path="url(#pdea1fd559c)">
     <use xlink:href="#C0_0_ec9aee029d" x="34.74" y="20.88" style="fill: #9f9f9f"/>
    </g>
    <g clip-path="url(#pdea1fd559c)">
     <use xlink:href="#C0_0_ec9aee029d" x="34.74" y="16.92" style="fill: #9f9f9f"/>
    </g>
    <g clip-path="url(#pdea1fd559c)">
     <use xlink:href="#C0_0_ec9aee029d" x="34.74" y="19.296" style="fill: #9f9f9f"/>
    </g>
    <g clip-path="url(#pdea1fd559c)">
     <use xlink:href="#C0_0_ec9aee029d" x="34.74" y="16.92" style="fill: #9f9f9f"/>
    </g>
    <g clip-path="url(#pdea1fd559c)">
     <use xlink:href="#C0_0_ec9aee029d" x="34.74" y="51.768" style="fill: #9f9f9f"/>
    </g>
    <g clip-path="url(#pdea1fd559c)">
     <use xlink:href="#C0_0_ec9aee029d" x="34.74" y="30.384" style="fill: #9f9f9f"/>
    </g>
    <g clip-path="url(#pdea1fd559c)">
     <use xlink:href="#C0_0_ec9aee029d" x="34.74" y="16.92" style="fill: #9f9f9f"/>
    </g>
    <g clip-path="url(#pdea1fd559c)">
     <use xlink:href="#C0_0_ec9aee029d" x="34.74" y="18.504" style="fill: #9f9f9f"/>
    </g>
    <g clip-path="url(#pdea1fd559c)">
     <use xlink:href="#C0_0_ec9aee029d" x="34.74" y="18.504" style="fill: #9f9f9f"/>
    </g>
    <g clip-path="url(#pdea1fd559c)">
     <use xlink:href="#C0_0_ec9aee029d" x="34.74" y="20.88" style="fill: #9f9f9f"/>
    </g>
    <g clip-path="url(#pdea1fd559c)">
     <use xlink:href="#C0_0_ec9aee029d" x="34.74" y="18.504" style="fill: #9f9f9f"/>
    </g>
    <g clip-path="url(#pdea1fd559c)">
     <use xlink:href="#C0_0_ec9aee029d" x="34.74" y="18.504" style="fill: #9f9f9f"/>
    </g>
    <g clip-path="url(#pdea1fd559c)">
     <use xlink:href="#C0_0_ec9aee029d" x="34.74" y="80.28" style="fill: #9f9f9f"/>
    </g>
    <g clip-path="url(#pdea1fd559c)">
     <use xlink:href="#C0_0_ec9aee029d" x="34.74" y="24.048" style="fill: #9f9f9f"/>
    </g>
    <g clip-path="url(#pdea1fd559c)">
     <use xlink:href="#C0_0_ec9aee029d" x="34.74" y="45.432" style="fill: #9f9f9f"/>
    </g>
    <g clip-path="url(#pdea1fd559c)">
     <use xlink:href="#C0_0_ec9aee029d" x="34.74" y="44.64" style="fill: #9f9f9f"/>
    </g>
    <g clip-path="url(#pdea1fd559c)">
     <use xlink:href="#C0_0_ec9aee029d" x="34.74" y="21.672" style="fill: #9f9f9f"/>
    </g>
    <g clip-path="url(#pdea1fd559c)">
     <use xlink:href="#C0_0_ec9aee029d" x="34.74" y="80.28" style="fill: #9f9f9f"/>
    </g>
    <g clip-path="url(#pdea1fd559c)">
     <use xlink:href="#C0_0_ec9aee029d" x="34.74" y="26.424" style="fill: #9f9f9f"/>
    </g>
    <g clip-path="url(#pdea1fd559c)">
     <use xlink:href="#C0_0_ec9aee029d" x="34.74" y="57.312" style="fill: #9f9f9f"/>
    </g>
    <g clip-path="url(#pdea1fd559c)">
     <use xlink:href="#C0_0_ec9aee029d" x="34.74" y="18.504" style="fill: #9f9f9f"/>
    </g>
    <g clip-path="url(#pdea1fd559c)">
     <use xlink:href="#C0_0_ec9aee029d" x="34.74" y="22.464" style="fill: #9f9f9f"/>
    </g>
    <g clip-path="url(#pdea1fd559c)">
     <use xlink:href="#C0_0_ec9aee029d" x="34.74" y="20.088" style="fill: #9f9f9f"/>
    </g>
    <g clip-path="url(#pdea1fd559c)">
     <use xlink:href="#C0_0_ec9aee029d" x="34.74" y="16.92" style="fill: #9f9f9f"/>
    </g>
    <g clip-path="url(#pdea1fd559c)">
     <use xlink:href="#C0_0_ec9aee029d" x="34.74" y="23.256" style="fill: #9f9f9f"/>
    </g>
    <g clip-path="url(#pdea1fd559c)">
     <use xlink:href="#C0_0_ec9aee029d" x="34.74" y="38.304" style="fill: #9f9f9f"/>
    </g>
    <g clip-path="url(#pdea1fd559c)">
     <use xlink:href="#C0_0_ec9aee029d" x="34.74" y="35.136" style="fill: #9f9f9f"/>
    </g>
    <g clip-path="url(#pdea1fd559c)">
     <use xlink:href="#C0_0_ec9aee029d" x="34.74" y="16.92" style="fill: #9f9f9f"/>
    </g>
    <g clip-path="url(#pdea1fd559c)">
     <use xlink:href="#C0_0_ec9aee029d" x="34.74" y="16.92" style="fill: #9f9f9f"/>
    </g>
    <g clip-path="url(#pdea1fd559c)">
     <use xlink:href="#C0_0_ec9aee029d" x="34.74" y="18.504" style="fill: #9f9f9f"/>
    </g>
    <g clip-path="url(#pdea1fd559c)">
     <use xlink:href="#C0_0_ec9aee029d" x="34.74" y="19.296" style="fill: #9f9f9f"/>
    </g>
    <g clip-path="url(#pdea1fd559c)">
     <use xlink:href="#C0_0_ec9aee029d" x="34.74" y="19.296" style="fill: #9f9f9f"/>
    </g>
    <g clip-path="url(#pdea1fd559c)">
     <use xlink:href="#C0_0_ec9aee029d" x="34.74" y="44.64" style="fill: #9f9f9f"/>
    </g>
    <g clip-path="url(#pdea1fd559c)">
     <use xlink:href="#C0_0_ec9aee029d" x="34.74" y="16.92" style="fill: #9f9f9f"/>
    </g>
    <g clip-path="url(#pdea1fd559c)">
     <use xlink:href="#C0_0_ec9aee029d" x="34.74" y="20.088" style="fill: #9f9f9f"/>
    </g>
    <g clip-path="url(#pdea1fd559c)">
     <use xlink:href="#C0_0_ec9aee029d" x="34.74" y="16.92" style="fill: #9f9f9f"/>
    </g>
   </g>
   <g id="PathCollection_2">
    <defs>
     <path id="C1_0_a05b6f6829" d="M 0 2.5 
C 0.663008 2.5 1.29895 2.236584 1.767767 1.767767 
C 2.236584 1.29895 2.5 0.663008 2.5 -0 
C 2.5 -0.663008 2.236584 -1.29895 1.767767 -1.767767 
C 1.29895 -2.236584 0.663008 -2.5 0 -2.5 
C -0.663008 -2.5 -1.29895 -2.236584 -1.767767 -1.767767 
C -2.236584 -1.29895 -2.5 -0.663008 -2.5 0 
C -2.5 0.663008 -2.236584 1.29895 -1.767767 1.767767 
C -1.29895 2.236584 -0.663008 2.5 0 2.5 
z
"/>
    </defs>
    <g clip-path="url(#pdea1fd559c)">
     <use xlink:href="#C1_0_a05b6f6829" x="57.06" y="16.92" style="fill: #cfcece"/>
    </g>
    <g clip-path="url(#pdea1fd559c)">
     <use xlink:href="#C1_0_a05b6f6829" x="57.06" y="96.12" style="fill: #cfcece"/>
    </g>
    <g clip-path="url(#pdea1fd559c)">
     <use xlink:href="#C1_0_a05b6f6829" x="57.06" y="20.088" style="fill: #cfcece"/>
    </g>
    <g clip-path="url(#pdea1fd559c)">
     <use xlink:href="#C1_0_a05b6f6829" x="57.06" y="31.176" style="fill: #cfcece"/>
    </g>
    <g clip-path="url(#pdea1fd559c)">
     <use xlink:href="#C1_0_a05b6f6829" x="57.06" y="56.52" style="fill: #cfcece"/>
    </g>
    <g clip-path="url(#pdea1fd559c)">
     <use xlink:href="#C1_0_a05b6f6829" x="57.06" y="91.368" style="fill: #cfcece"/>
    </g>
    <g clip-path="url(#pdea1fd559c)">
     <use xlink:href="#C1_0_a05b6f6829" x="57.06" y="96.12" style="fill: #cfcece"/>
    </g>
    <g clip-path="url(#pdea1fd559c)">
     <use xlink:href="#C1_0_a05b6f6829" x="57.06" y="62.856" style="fill: #cfcece"/>
    </g>
    <g clip-path="url(#pdea1fd559c)">
     <use xlink:href="#C1_0_a05b6f6829" x="57.06" y="36.72" style="fill: #cfcece"/>
    </g>
    <g clip-path="url(#pdea1fd559c)">
     <use xlink:href="#C1_0_a05b6f6829" x="57.06" y="82.656" style="fill: #cfcece"/>
    </g>
    <g clip-path="url(#pdea1fd559c)">
     <use xlink:href="#C1_0_a05b6f6829" x="57.06" y="96.12" style="fill: #cfcece"/>
    </g>
    <g clip-path="url(#pdea1fd559c)">
     <use xlink:href="#C1_0_a05b6f6829" x="57.06" y="67.608" style="fill: #cfcece"/>
    </g>
    <g clip-path="url(#pdea1fd559c)">
     <use xlink:href="#C1_0_a05b6f6829" x="57.06" y="16.92" style="fill: #cfcece"/>
    </g>
    <g clip-path="url(#pdea1fd559c)">
     <use xlink:href="#C1_0_a05b6f6829" x="57.06" y="31.176" style="fill: #cfcece"/>
    </g>
    <g clip-path="url(#pdea1fd559c)">
     <use xlink:href="#C1_0_a05b6f6829" x="57.06" y="96.12" style="fill: #cfcece"/>
    </g>
    <g clip-path="url(#pdea1fd559c)">
     <use xlink:href="#C1_0_a05b6f6829" x="57.06" y="96.12" style="fill: #cfcece"/>
    </g>
    <g clip-path="url(#pdea1fd559c)">
     <use xlink:href="#C1_0_a05b6f6829" x="57.06" y="85.032" style="fill: #cfcece"/>
    </g>
    <g clip-path="url(#pdea1fd559c)">
     <use xlink:href="#C1_0_a05b6f6829" x="57.06" y="23.256" style="fill: #cfcece"/>
    </g>
    <g clip-path="url(#pdea1fd559c)">
     <use xlink:href="#C1_0_a05b6f6829" x="57.06" y="89.784" style="fill: #cfcece"/>
    </g>
    <g clip-path="url(#pdea1fd559c)">
     <use xlink:href="#C1_0_a05b6f6829" x="57.06" y="27.216" style="fill: #cfcece"/>
    </g>
    <g clip-path="url(#pdea1fd559c)">
     <use xlink:href="#C1_0_a05b6f6829" x="57.06" y="24.84" style="fill: #cfcece"/>
    </g>
    <g clip-path="url(#pdea1fd559c)">
     <use xlink:href="#C1_0_a05b6f6829" x="57.06" y="31.176" style="fill: #cfcece"/>
    </g>
    <g clip-path="url(#pdea1fd559c)">
     <use xlink:href="#C1_0_a05b6f6829" x="57.06" y="74.736" style="fill: #cfcece"/>
    </g>
    <g clip-path="url(#pdea1fd559c)">
     <use xlink:href="#C1_0_a05b6f6829" x="57.06" y="96.12" style="fill: #cfcece"/>
    </g>
    <g clip-path="url(#pdea1fd559c)">
     <use xlink:href="#C1_0_a05b6f6829" x="57.06" y="80.28" style="fill: #cfcece"/>
    </g>
    <g clip-path="url(#pdea1fd559c)">
     <use xlink:href="#C1_0_a05b6f6829" x="57.06" y="21.672" style="fill: #cfcece"/>
    </g>
    <g clip-path="url(#pdea1fd559c)">
     <use xlink:href="#C1_0_a05b6f6829" x="57.06" y="28.008" style="fill: #cfcece"/>
    </g>
    <g clip-path="url(#pdea1fd559c)">
     <use xlink:href="#C1_0_a05b6f6829" x="57.06" y="75.528" style="fill: #cfcece"/>
    </g>
    <g clip-path="url(#pdea1fd559c)">
     <use xlink:href="#C1_0_a05b6f6829" x="57.06" y="51.768" style="fill: #cfcece"/>
    </g>
    <g clip-path="url(#pdea1fd559c)">
     <use xlink:href="#C1_0_a05b6f6829" x="57.06" y="47.016" style="fill: #cfcece"/>
    </g>
    <g clip-path="url(#pdea1fd559c)">
     <use xlink:href="#C1_0_a05b6f6829" x="57.06" y="96.12" style="fill: #cfcece"/>
    </g>
    <g clip-path="url(#pdea1fd559c)">
     <use xlink:href="#C1_0_a05b6f6829" x="57.06" y="77.112" style="fill: #cfcece"/>
    </g>
    <g clip-path="url(#pdea1fd559c)">
     <use xlink:href="#C1_0_a05b6f6829" x="57.06" y="89.784" style="fill: #cfcece"/>
    </g>
    <g clip-path="url(#pdea1fd559c)">
     <use xlink:href="#C1_0_a05b6f6829" x="57.06" y="96.12" style="fill: #cfcece"/>
    </g>
    <g clip-path="url(#pdea1fd559c)">
     <use xlink:href="#C1_0_a05b6f6829" x="57.06" y="96.12" style="fill: #cfcece"/>
    </g>
    <g clip-path="url(#pdea1fd559c)">
     <use xlink:href="#C1_0_a05b6f6829" x="57.06" y="96.12" style="fill: #cfcece"/>
    </g>
    <g clip-path="url(#pdea1fd559c)">
     <use xlink:href="#C1_0_a05b6f6829" x="57.06" y="85.824" style="fill: #cfcece"/>
    </g>
    <g clip-path="url(#pdea1fd559c)">
     <use xlink:href="#C1_0_a05b6f6829" x="57.06" y="39.888" style="fill: #cfcece"/>
    </g>
    <g clip-path="url(#pdea1fd559c)">
     <use xlink:href="#C1_0_a05b6f6829" x="57.06" y="81.072" style="fill: #cfcece"/>
    </g>
   </g>
   <g id="PathCollection_3">
    <defs>
     <path id="C2_0_361db95e35" d="M 0 2.5 
C 0.663008 2.5 1.29895 2.236584 1.767767 1.767767 
C 2.236584 1.29895 2.5 0.663008 2.5 -0 
C 2.5 -0.663008 2.236584 -1.29895 1.767767 -1.767767 
C 1.29895 -2.236584 0.663008 -2.5 0 -2.5 
C -0.663008 -2.5 -1.29895 -2.236584 -1.767767 -1.767767 
C -2.236584 -1.29895 -2.5 -0.663008 -2.5 0 
C -2.5 0.663008 -2.236584 1.29895 -1.767767 1.767767 
C -1.29895 2.236584 -0.663008 2.5 0 2.5 
z
"/>
    </defs>
    <g clip-path="url(#pdea1fd559c)">
     <use xlink:href="#C2_0_361db95e35" x="90.54" y="22.464" style="fill: #9f9f9f"/>
    </g>
    <g clip-path="url(#pdea1fd559c)">
     <use xlink:href="#C2_0_361db95e35" x="90.54" y="18.504" style="fill: #9f9f9f"/>
    </g>
    <g clip-path="url(#pdea1fd559c)">
     <use xlink:href="#C2_0_361db95e35" x="90.54" y="27.216" style="fill: #9f9f9f"/>
    </g>
    <g clip-path="url(#pdea1fd559c)">
     <use xlink:href="#C2_0_361db95e35" x="90.54" y="93.744" style="fill: #9f9f9f"/>
    </g>
    <g clip-path="url(#pdea1fd559c)">
     <use xlink:href="#C2_0_361db95e35" x="90.54" y="67.608" style="fill: #9f9f9f"/>
    </g>
    <g clip-path="url(#pdea1fd559c)">
     <use xlink:href="#C2_0_361db95e35" x="90.54" y="93.744" style="fill: #9f9f9f"/>
    </g>
    <g clip-path="url(#pdea1fd559c)">
     <use xlink:href="#C2_0_361db95e35" x="90.54" y="96.12" style="fill: #9f9f9f"/>
    </g>
    <g clip-path="url(#pdea1fd559c)">
     <use xlink:href="#C2_0_361db95e35" x="90.54" y="67.608" style="fill: #9f9f9f"/>
    </g>
    <g clip-path="url(#pdea1fd559c)">
     <use xlink:href="#C2_0_361db95e35" x="90.54" y="72.36" style="fill: #9f9f9f"/>
    </g>
    <g clip-path="url(#pdea1fd559c)">
     <use xlink:href="#C2_0_361db95e35" x="90.54" y="96.12" style="fill: #9f9f9f"/>
    </g>
    <g clip-path="url(#pdea1fd559c)">
     <use xlink:href="#C2_0_361db95e35" x="90.54" y="96.12" style="fill: #9f9f9f"/>
    </g>
    <g clip-path="url(#pdea1fd559c)">
     <use xlink:href="#C2_0_361db95e35" x="90.54" y="73.152" style="fill: #9f9f9f"/>
    </g>
    <g clip-path="url(#pdea1fd559c)">
     <use xlink:href="#C2_0_361db95e35" x="90.54" y="67.608" style="fill: #9f9f9f"/>
    </g>
    <g clip-path="url(#pdea1fd559c)">
     <use xlink:href="#C2_0_361db95e35" x="90.54" y="67.608" style="fill: #9f9f9f"/>
    </g>
    <g clip-path="url(#pdea1fd559c)">
     <use xlink:href="#C2_0_361db95e35" x="90.54" y="93.744" style="fill: #9f9f9f"/>
    </g>
    <g clip-path="url(#pdea1fd559c)">
     <use xlink:href="#C2_0_361db95e35" x="90.54" y="68.4" style="fill: #9f9f9f"/>
    </g>
    <g clip-path="url(#pdea1fd559c)">
     <use xlink:href="#C2_0_361db95e35" x="90.54" y="69.192" style="fill: #9f9f9f"/>
    </g>
    <g clip-path="url(#pdea1fd559c)">
     <use xlink:href="#C2_0_361db95e35" x="90.54" y="24.84" style="fill: #9f9f9f"/>
    </g>
    <g clip-path="url(#pdea1fd559c)">
     <use xlink:href="#C2_0_361db95e35" x="90.54" y="92.16" style="fill: #9f9f9f"/>
    </g>
    <g clip-path="url(#pdea1fd559c)">
     <use xlink:href="#C2_0_361db95e35" x="90.54" y="54.144" style="fill: #9f9f9f"/>
    </g>
    <g clip-path="url(#pdea1fd559c)">
     <use xlink:href="#C2_0_361db95e35" x="90.54" y="21.672" style="fill: #9f9f9f"/>
    </g>
    <g clip-path="url(#pdea1fd559c)">
     <use xlink:href="#C2_0_361db95e35" x="90.54" y="91.368" style="fill: #9f9f9f"/>
    </g>
    <g clip-path="url(#pdea1fd559c)">
     <use xlink:href="#C2_0_361db95e35" x="90.54" y="91.368" style="fill: #9f9f9f"/>
    </g>
    <g clip-path="url(#pdea1fd559c)">
     <use xlink:href="#C2_0_361db95e35" x="90.54" y="96.12" style="fill: #9f9f9f"/>
    </g>
    <g clip-path="url(#pdea1fd559c)">
     <use xlink:href="#C2_0_361db95e35" x="90.54" y="74.736" style="fill: #9f9f9f"/>
    </g>
    <g clip-path="url(#pdea1fd559c)">
     <use xlink:href="#C2_0_361db95e35" x="90.54" y="66.024" style="fill: #9f9f9f"/>
    </g>
    <g clip-path="url(#pdea1fd559c)">
     <use xlink:href="#C2_0_361db95e35" x="90.54" y="90.576" style="fill: #9f9f9f"/>
    </g>
    <g clip-path="url(#pdea1fd559c)">
     <use xlink:href="#C2_0_361db95e35" x="90.54" y="91.368" style="fill: #9f9f9f"/>
    </g>
    <g clip-path="url(#pdea1fd559c)">
     <use xlink:href="#C2_0_361db95e35" x="90.54" y="62.064" style="fill: #9f9f9f"/>
    </g>
    <g clip-path="url(#pdea1fd559c)">
     <use xlink:href="#C2_0_361db95e35" x="90.54" y="72.36" style="fill: #9f9f9f"/>
    </g>
    <g clip-path="url(#pdea1fd559c)">
     <use xlink:href="#C2_0_361db95e35" x="90.54" y="94.536" style="fill: #9f9f9f"/>
    </g>
    <g clip-path="url(#pdea1fd559c)">
     <use xlink:href="#C2_0_361db95e35" x="90.54" y="96.12" style="fill: #9f9f9f"/>
    </g>
    <g clip-path="url(#pdea1fd559c)">
     <use xlink:href="#C2_0_361db95e35" x="90.54" y="96.12" style="fill: #9f9f9f"/>
    </g>
    <g clip-path="url(#pdea1fd559c)">
     <use xlink:href="#C2_0_361db95e35" x="90.54" y="96.12" style="fill: #9f9f9f"/>
    </g>
    <g clip-path="url(#pdea1fd559c)">
     <use xlink:href="#C2_0_361db95e35" x="90.54" y="94.536" style="fill: #9f9f9f"/>
    </g>
    <g clip-path="url(#pdea1fd559c)">
     <use xlink:href="#C2_0_361db95e35" x="90.54" y="96.12" style="fill: #9f9f9f"/>
    </g>
    <g clip-path="url(#pdea1fd559c)">
     <use xlink:href="#C2_0_361db95e35" x="90.54" y="85.824" style="fill: #9f9f9f"/>
    </g>
    <g clip-path="url(#pdea1fd559c)">
     <use xlink:href="#C2_0_361db95e35" x="90.54" y="51.768" style="fill: #9f9f9f"/>
    </g>
    <g clip-path="url(#pdea1fd559c)">
     <use xlink:href="#C2_0_361db95e35" x="90.54" y="93.744" style="fill: #9f9f9f"/>
    </g>
   </g>
   <g id="PathCollection_4">
    <defs>
     <path id="C3_0_4d7918bd19" d="M 0 2.5 
C 0.663008 2.5 1.29895 2.236584 1.767767 1.767767 
C 2.236584 1.29895 2.5 0.663008 2.5 -0 
C 2.5 -0.663008 2.236584 -1.29895 1.767767 -1.767767 
C 1.29895 -2.236584 0.663008 -2.5 0 -2.5 
C -0.663008 -2.5 -1.29895 -2.236584 -1.767767 -1.767767 
C -2.236584 -1.29895 -2.5 -0.663008 -2.5 0 
C -2.5 0.663008 -2.236584 1.29895 -1.767767 1.767767 
C -1.29895 2.236584 -0.663008 2.5 0 2.5 
z
"/>
    </defs>
    <g clip-path="url(#pdea1fd559c)">
     <use xlink:href="#C3_0_4d7918bd19" x="112.86" y="16.92" style="fill: #cfcece"/>
    </g>
    <g clip-path="url(#pdea1fd559c)">
     <use xlink:href="#C3_0_4d7918bd19" x="112.86" y="96.12" style="fill: #cfcece"/>
    </g>
    <g clip-path="url(#pdea1fd559c)">
     <use xlink:href="#C3_0_4d7918bd19" x="112.86" y="27.216" style="fill: #cfcece"/>
    </g>
    <g clip-path="url(#pdea1fd559c)">
     <use xlink:href="#C3_0_4d7918bd19" x="112.86" y="84.24" style="fill: #cfcece"/>
    </g>
    <g clip-path="url(#pdea1fd559c)">
     <use xlink:href="#C3_0_4d7918bd19" x="112.86" y="23.256" style="fill: #cfcece"/>
    </g>
    <g clip-path="url(#pdea1fd559c)">
     <use xlink:href="#C3_0_4d7918bd19" x="112.86" y="16.92" style="fill: #cfcece"/>
    </g>
    <g clip-path="url(#pdea1fd559c)">
     <use xlink:href="#C3_0_4d7918bd19" x="112.86" y="16.92" style="fill: #cfcece"/>
    </g>
    <g clip-path="url(#pdea1fd559c)">
     <use xlink:href="#C3_0_4d7918bd19" x="112.86" y="30.384" style="fill: #cfcece"/>
    </g>
    <g clip-path="url(#pdea1fd559c)">
     <use xlink:href="#C3_0_4d7918bd19" x="112.86" y="62.856" style="fill: #cfcece"/>
    </g>
    <g clip-path="url(#pdea1fd559c)">
     <use xlink:href="#C3_0_4d7918bd19" x="112.86" y="22.464" style="fill: #cfcece"/>
    </g>
    <g clip-path="url(#pdea1fd559c)">
     <use xlink:href="#C3_0_4d7918bd19" x="112.86" y="22.464" style="fill: #cfcece"/>
    </g>
    <g clip-path="url(#pdea1fd559c)">
     <use xlink:href="#C3_0_4d7918bd19" x="112.86" y="21.672" style="fill: #cfcece"/>
    </g>
    <g clip-path="url(#pdea1fd559c)">
     <use xlink:href="#C3_0_4d7918bd19" x="112.86" y="69.984" style="fill: #cfcece"/>
    </g>
    <g clip-path="url(#pdea1fd559c)">
     <use xlink:href="#C3_0_4d7918bd19" x="112.86" y="23.256" style="fill: #cfcece"/>
    </g>
    <g clip-path="url(#pdea1fd559c)">
     <use xlink:href="#C3_0_4d7918bd19" x="112.86" y="32.76" style="fill: #cfcece"/>
    </g>
    <g clip-path="url(#pdea1fd559c)">
     <use xlink:href="#C3_0_4d7918bd19" x="112.86" y="67.608" style="fill: #cfcece"/>
    </g>
    <g clip-path="url(#pdea1fd559c)">
     <use xlink:href="#C3_0_4d7918bd19" x="112.86" y="32.76" style="fill: #cfcece"/>
    </g>
    <g clip-path="url(#pdea1fd559c)">
     <use xlink:href="#C3_0_4d7918bd19" x="112.86" y="38.304" style="fill: #cfcece"/>
    </g>
    <g clip-path="url(#pdea1fd559c)">
     <use xlink:href="#C3_0_4d7918bd19" x="112.86" y="43.056" style="fill: #cfcece"/>
    </g>
    <g clip-path="url(#pdea1fd559c)">
     <use xlink:href="#C3_0_4d7918bd19" x="112.86" y="16.92" style="fill: #cfcece"/>
    </g>
    <g clip-path="url(#pdea1fd559c)">
     <use xlink:href="#C3_0_4d7918bd19" x="112.86" y="92.16" style="fill: #cfcece"/>
    </g>
    <g clip-path="url(#pdea1fd559c)">
     <use xlink:href="#C3_0_4d7918bd19" x="112.86" y="96.12" style="fill: #cfcece"/>
    </g>
    <g clip-path="url(#pdea1fd559c)">
     <use xlink:href="#C3_0_4d7918bd19" x="112.86" y="89.784" style="fill: #cfcece"/>
    </g>
    <g clip-path="url(#pdea1fd559c)">
     <use xlink:href="#C3_0_4d7918bd19" x="112.86" y="16.92" style="fill: #cfcece"/>
    </g>
    <g clip-path="url(#pdea1fd559c)">
     <use xlink:href="#C3_0_4d7918bd19" x="112.86" y="43.056" style="fill: #cfcece"/>
    </g>
    <g clip-path="url(#pdea1fd559c)">
     <use xlink:href="#C3_0_4d7918bd19" x="112.86" y="43.056" style="fill: #cfcece"/>
    </g>
    <g clip-path="url(#pdea1fd559c)">
     <use xlink:href="#C3_0_4d7918bd19" x="112.86" y="88.2" style="fill: #cfcece"/>
    </g>
    <g clip-path="url(#pdea1fd559c)">
     <use xlink:href="#C3_0_4d7918bd19" x="112.86" y="62.064" style="fill: #cfcece"/>
    </g>
    <g clip-path="url(#pdea1fd559c)">
     <use xlink:href="#C3_0_4d7918bd19" x="112.86" y="48.6" style="fill: #cfcece"/>
    </g>
    <g clip-path="url(#pdea1fd559c)">
     <use xlink:href="#C3_0_4d7918bd19" x="112.86" y="50.184" style="fill: #cfcece"/>
    </g>
    <g clip-path="url(#pdea1fd559c)">
     <use xlink:href="#C3_0_4d7918bd19" x="112.86" y="16.92" style="fill: #cfcece"/>
    </g>
    <g clip-path="url(#pdea1fd559c)">
     <use xlink:href="#C3_0_4d7918bd19" x="112.86" y="16.92" style="fill: #cfcece"/>
    </g>
    <g clip-path="url(#pdea1fd559c)">
     <use xlink:href="#C3_0_4d7918bd19" x="112.86" y="16.92" style="fill: #cfcece"/>
    </g>
    <g clip-path="url(#pdea1fd559c)">
     <use xlink:href="#C3_0_4d7918bd19" x="112.86" y="16.92" style="fill: #cfcece"/>
    </g>
    <g clip-path="url(#pdea1fd559c)">
     <use xlink:href="#C3_0_4d7918bd19" x="112.86" y="16.92" style="fill: #cfcece"/>
    </g>
    <g clip-path="url(#pdea1fd559c)">
     <use xlink:href="#C3_0_4d7918bd19" x="112.86" y="16.92" style="fill: #cfcece"/>
    </g>
    <g clip-path="url(#pdea1fd559c)">
     <use xlink:href="#C3_0_4d7918bd19" x="112.86" y="24.84" style="fill: #cfcece"/>
    </g>
    <g clip-path="url(#pdea1fd559c)">
     <use xlink:href="#C3_0_4d7918bd19" x="112.86" y="22.464" style="fill: #cfcece"/>
    </g>
    <g clip-path="url(#pdea1fd559c)">
     <use xlink:href="#C3_0_4d7918bd19" x="112.86" y="51.768" style="fill: #cfcece"/>
    </g>
   </g>
   <g id="line2d_6"/>
   <g id="line2d_7"/>
   <g id="line2d_8">
    <path d="M 34.74 32.781831 
L 34.74 22.686877 
" clip-path="url(#pdea1fd559c)" style="fill: none; stroke: #424242; stroke-width: 2.25; stroke-linecap: square"/>
   </g>
   <g id="line2d_9">
    <path d="M 90.54 81.884815 
L 90.54 67.037862 
" clip-path="url(#pdea1fd559c)" style="fill: none; stroke: #424242; stroke-width: 2.25; stroke-linecap: square"/>
   </g>
   <g id="line2d_10">
    <path d="M 57.06 72.990046 
L 57.06 55.278692 
" clip-path="url(#pdea1fd559c)" style="fill: none; stroke: #424242; stroke-width: 2.25; stroke-linecap: square"/>
   </g>
   <g id="line2d_11">
    <path d="M 112.86 50.531262 
L 112.86 33.246369 
" clip-path="url(#pdea1fd559c)" style="fill: none; stroke: #424242; stroke-width: 2.25; stroke-linecap: square"/>
   </g>
   <g id="patch_9">
    <path d="M 18 96.12 
L 18 12.96 
" style="fill: none; stroke: #000000; stroke-width: 1.5; stroke-linejoin: miter; stroke-linecap: square"/>
   </g>
   <g id="patch_10">
    <path d="M 18 96.12 
L 129.6 96.12 
" style="fill: none; stroke: #000000; stroke-width: 1.5; stroke-linejoin: miter; stroke-linecap: square"/>
   </g>
   <g id="legend_1">
    <g id="patch_11">
     <path d="M 48.93125 49.2225 
L 122.6 49.2225 
Q 124.6 49.2225 124.6 47.2225 
L 124.6 19.96 
Q 124.6 17.96 122.6 17.96 
L 48.93125 17.96 
Q 46.93125 17.96 46.93125 19.96 
L 46.93125 47.2225 
Q 46.93125 49.2225 48.93125 49.2225 
z
" style="fill: #ffffff; opacity: 0.8; stroke: #cccccc; stroke-linejoin: miter"/>
    </g>
    <g id="line2d_12">
     <defs>
      <path id="mbf73a3989a" d="M 0 2.5 
C 0.663008 2.5 1.29895 2.236584 1.767767 1.767767 
C 2.236584 1.29895 2.5 0.663008 2.5 0 
C 2.5 -0.663008 2.236584 -1.29895 1.767767 -1.767767 
C 1.29895 -2.236584 0.663008 -2.5 0 -2.5 
C -0.663008 -2.5 -1.29895 -2.236584 -1.767767 -1.767767 
C -2.236584 -1.29895 -2.5 -0.663008 -2.5 0 
C -2.5 0.663008 -2.236584 1.29895 -1.767767 1.767767 
C -1.29895 2.236584 -0.663008 2.5 0 2.5 
z
"/>
     </defs>
     <g>
      <use xlink:href="#mbf73a3989a" x="60.93125" y="25.617812" style="fill: #9f9f9f"/>
     </g>
    </g>
    <g id="text_8">
     <!-- common -->
     <g transform="translate(78.93125 29.117812) scale(0.1 -0.1)">
      <defs>
       <path id="Arial-BoldMT-63" d="M 3353 2338 
L 2488 2181 
Q 2444 2441 2289 2572 
Q 2134 2703 1888 2703 
Q 1559 2703 1364 2476 
Q 1169 2250 1169 1719 
Q 1169 1128 1367 884 
Q 1566 641 1900 641 
Q 2150 641 2309 783 
Q 2469 925 2534 1272 
L 3397 1125 
Q 3263 531 2881 228 
Q 2500 -75 1859 -75 
Q 1131 -75 698 384 
Q 266 844 266 1656 
Q 266 2478 700 2936 
Q 1134 3394 1875 3394 
Q 2481 3394 2839 3133 
Q 3197 2872 3353 2338 
z
" transform="scale(0.015625)"/>
       <path id="Arial-BoldMT-6d" d="M 394 3319 
L 1203 3319 
L 1203 2866 
Q 1638 3394 2238 3394 
Q 2556 3394 2790 3262 
Q 3025 3131 3175 2866 
Q 3394 3131 3647 3262 
Q 3900 3394 4188 3394 
Q 4553 3394 4806 3245 
Q 5059 3097 5184 2809 
Q 5275 2597 5275 2122 
L 5275 0 
L 4397 0 
L 4397 1897 
Q 4397 2391 4306 2534 
Q 4184 2722 3931 2722 
Q 3747 2722 3584 2609 
Q 3422 2497 3350 2280 
Q 3278 2063 3278 1594 
L 3278 0 
L 2400 0 
L 2400 1819 
Q 2400 2303 2353 2443 
Q 2306 2584 2207 2653 
Q 2109 2722 1941 2722 
Q 1738 2722 1575 2612 
Q 1413 2503 1342 2297 
Q 1272 2091 1272 1613 
L 1272 0 
L 394 0 
L 394 3319 
z
" transform="scale(0.015625)"/>
      </defs>
      <use xlink:href="#Arial-BoldMT-63"/>
      <use xlink:href="#Arial-BoldMT-6f" x="55.615234"/>
      <use xlink:href="#Arial-BoldMT-6d" x="116.699219"/>
      <use xlink:href="#Arial-BoldMT-6d" x="205.615234"/>
      <use xlink:href="#Arial-BoldMT-6f" x="294.53125"/>
      <use xlink:href="#Arial-BoldMT-6e" x="355.615234"/>
     </g>
    </g>
    <g id="line2d_13">
     <defs>
      <path id="m47f4593fd1" d="M 0 2.5 
C 0.663008 2.5 1.29895 2.236584 1.767767 1.767767 
C 2.236584 1.29895 2.5 0.663008 2.5 0 
C 2.5 -0.663008 2.236584 -1.29895 1.767767 -1.767767 
C 1.29895 -2.236584 0.663008 -2.5 0 -2.5 
C -0.663008 -2.5 -1.29895 -2.236584 -1.767767 -1.767767 
C -2.236584 -1.29895 -2.5 -0.663008 -2.5 0 
C -2.5 0.663008 -2.236584 1.29895 -1.767767 1.767767 
C -1.29895 2.236584 -0.663008 2.5 0 2.5 
z
"/>
     </defs>
     <g>
      <use xlink:href="#m47f4593fd1" x="60.93125" y="39.749063" style="fill: #cfcece"/>
     </g>
    </g>
    <g id="text_9">
     <!-- rare -->
     <g transform="translate(78.93125 43.249063) scale(0.1 -0.1)">
      <use xlink:href="#Arial-BoldMT-72"/>
      <use xlink:href="#Arial-BoldMT-61" x="38.916016"/>
      <use xlink:href="#Arial-BoldMT-72" x="94.53125"/>
      <use xlink:href="#Arial-BoldMT-65" x="133.447266"/>
     </g>
    </g>
   </g>
  </g>
 </g>
 <defs>
  <clipPath id="pdea1fd559c">
   <rect x="18" y="12.96" width="111.6" height="83.16"/>
  </clipPath>
 </defs>
</svg>
