<?xml version="1.0" encoding="utf-8" standalone="no"?>
<!DOCTYPE svg PUBLIC "-//W3C//DTD SVG 1.1//EN"
  "http://www.w3.org/Graphics/SVG/1.1/DTD/svg11.dtd">
<svg xmlns:xlink="http://www.w3.org/1999/xlink" width="158.4pt" height="144pt" viewBox="0 0 158.4 144" xmlns="http://www.w3.org/2000/svg" version="1.1">
 <metadata>
  <rdf:RDF xmlns:dc="http://purl.org/dc/elements/1.1/" xmlns:cc="http://creativecommons.org/ns#" xmlns:rdf="http://www.w3.org/1999/02/22-rdf-syntax-ns#">
   <cc:Work>
    <dc:type rdf:resource="http://purl.org/dc/dcmitype/StillImage"/>
    <dc:date>2024-09-14T02:30:44.043573</dc:date>
    <dc:format>image/svg+xml</dc:format>
    <dc:creator>
     <cc:Agent>
      <dc:title>Matplotlib v3.7.1, https://matplotlib.org/</dc:title>
     </cc:Agent>
    </dc:creator>
   </cc:Work>
  </rdf:RDF>
 </metadata>
 <defs>
  <style type="text/css">*{stroke-linejoin: round; stroke-linecap: butt}</style>
 </defs>
 <g id="figure_1">
  <g id="patch_1">
   <path d="M 0 144 
L 158.4 144 
L 158.4 0 
L 0 0 
L 0 144 
z
" style="fill: none"/>
  </g>
  <g id="axes_1">
   <g id="patch_2">
    <path d="M 19.8 128.16 
L 142.56 128.16 
L 142.56 17.28 
L 19.8 17.28 
L 19.8 128.16 
z
" style="fill: none"/>
   </g>
   <g id="PolyCollection_1">
    <path d="M 38.469758 117.696414 
L 37.958242 117.696414 
L 37.89029 116.817963 
L 37.808502 115.939512 
L 37.71116 115.061061 
L 37.596563 114.182611 
L 37.463072 113.30416 
L 37.309155 112.425709 
L 37.133429 111.547259 
L 36.934698 110.668808 
L 36.711994 109.790357 
L 36.464606 108.911907 
L 36.192122 108.033456 
L 35.894467 107.155005 
L 35.57195 106.276555 
L 35.22532 105.398104 
L 34.855836 104.519653 
L 34.465336 103.641203 
L 34.056319 102.762752 
L 33.632015 101.884301 
L 33.196437 101.00585 
L 32.754402 100.1274 
L 32.311508 99.248949 
L 31.874038 98.370498 
L 31.448801 97.492048 
L 31.042897 96.613597 
L 30.663398 95.735146 
L 30.316986 94.856696 
L 30.009533 93.978245 
L 29.745688 93.099794 
L 29.528486 92.221344 
L 29.359019 91.342893 
L 29.236213 90.464442 
L 29.156741 89.585992 
L 29.115084 88.707541 
L 29.103755 87.82909 
L 29.113686 86.950639 
L 29.134739 86.072189 
L 29.156321 85.193738 
L 29.168052 84.315287 
L 29.160432 83.436837 
L 29.125458 82.558386 
L 29.057135 81.679935 
L 28.951844 80.801485 
L 28.808541 79.923034 
L 28.628764 79.044583 
L 28.416459 78.166133 
L 28.177636 77.287682 
L 27.919897 76.409231 
L 27.651863 75.530781 
L 27.382559 74.65233 
L 27.120806 73.773879 
L 26.874658 72.895428 
L 26.650944 72.016978 
L 26.454923 71.138527 
L 26.290085 70.260076 
L 26.158111 69.381626 
L 26.058968 68.503175 
L 25.991139 67.624724 
L 25.951956 66.746274 
L 25.938 65.867823 
L 25.945538 64.989372 
L 25.970962 64.110922 
L 26.011186 63.232471 
L 26.063979 62.35402 
L 26.128211 61.47557 
L 26.203992 60.597119 
L 26.292695 59.718668 
L 26.396874 58.840217 
L 26.520074 57.961767 
L 26.666559 57.083316 
L 26.840969 56.204865 
L 27.047942 55.326415 
L 27.291729 54.447964 
L 27.575814 53.569513 
L 27.902593 52.691063 
L 28.273105 51.812612 
L 28.686856 50.934161 
L 29.14174 50.055711 
L 29.634056 49.17726 
L 30.158624 48.298809 
L 30.708992 47.420359 
L 31.277715 46.541908 
L 31.85669 45.663457 
L 32.437509 44.785006 
L 33.011831 43.906556 
L 33.571727 43.028105 
L 34.109987 42.149654 
L 34.620368 41.271204 
L 35.097782 40.392753 
L 35.5384 39.514302 
L 35.939691 38.635852 
L 36.300385 37.757401 
L 36.620387 36.87895 
L 36.900636 36.0005 
L 37.142934 35.122049 
L 37.349759 34.243598 
L 37.524074 33.365148 
L 37.669142 32.486697 
L 37.788358 31.608246 
L 37.885106 30.729795 
L 38.542894 30.729795 
L 38.542894 30.729795 
L 38.639642 31.608246 
L 38.758858 32.486697 
L 38.903926 33.365148 
L 39.078241 34.243598 
L 39.285066 35.122049 
L 39.527364 36.0005 
L 39.807613 36.87895 
L 40.127615 37.757401 
L 40.488309 38.635852 
L 40.8896 39.514302 
L 41.330218 40.392753 
L 41.807632 41.271204 
L 42.318013 42.149654 
L 42.856273 43.028105 
L 43.416169 43.906556 
L 43.990491 44.785006 
L 44.57131 45.663457 
L 45.150285 46.541908 
L 45.719008 47.420359 
L 46.269376 48.298809 
L 46.793944 49.17726 
L 47.28626 50.055711 
L 47.741144 50.934161 
L 48.154895 51.812612 
L 48.525407 52.691063 
L 48.852186 53.569513 
L 49.136271 54.447964 
L 49.380058 55.326415 
L 49.587031 56.204865 
L 49.761441 57.083316 
L 49.907926 57.961767 
L 50.031126 58.840217 
L 50.135305 59.718668 
L 50.224008 60.597119 
L 50.299789 61.47557 
L 50.364021 62.35402 
L 50.416814 63.232471 
L 50.457038 64.110922 
L 50.482462 64.989372 
L 50.49 65.867823 
L 50.476044 66.746274 
L 50.436861 67.624724 
L 50.369032 68.503175 
L 50.269889 69.381626 
L 50.137915 70.260076 
L 49.973077 71.138527 
L 49.777056 72.016978 
L 49.553342 72.895428 
L 49.307194 73.773879 
L 49.045441 74.65233 
L 48.776137 75.530781 
L 48.508103 76.409231 
L 48.250364 77.287682 
L 48.011541 78.166133 
L 47.799236 79.044583 
L 47.619459 79.923034 
L 47.476156 80.801485 
L 47.370865 81.679935 
L 47.302542 82.558386 
L 47.267568 83.436837 
L 47.259948 84.315287 
L 47.271679 85.193738 
L 47.293261 86.072189 
L 47.314314 86.950639 
L 47.324245 87.82909 
L 47.312916 88.707541 
L 47.271259 89.585992 
L 47.191787 90.464442 
L 47.068981 91.342893 
L 46.899514 92.221344 
L 46.682312 93.099794 
L 46.418467 93.978245 
L 46.111014 94.856696 
L 45.764602 95.735146 
L 45.385103 96.613597 
L 44.979199 97.492048 
L 44.553962 98.370498 
L 44.116492 99.248949 
L 43.673598 100.1274 
L 43.231563 101.00585 
L 42.795985 101.884301 
L 42.371681 102.762752 
L 41.962664 103.641203 
L 41.572164 104.519653 
L 41.20268 105.398104 
L 40.85605 106.276555 
L 40.533533 107.155005 
L 40.235878 108.033456 
L 39.963394 108.911907 
L 39.716006 109.790357 
L 39.493302 110.668808 
L 39.294571 111.547259 
L 39.118845 112.425709 
L 38.964928 113.30416 
L 38.831437 114.182611 
L 38.71684 115.061061 
L 38.619498 115.939512 
L 38.53771 116.817963 
L 38.469758 117.696414 
z
" clip-path="url(#p661b9a3dc6)" style="fill: #b69595; fill-opacity: 0.35"/>
   </g>
   <g id="PolyCollection_2">
    <path d="M 62.863854 123.12 
L 62.668146 123.12 
L 62.63938 122.244186 
L 62.604524 121.368372 
L 62.562985 120.492558 
L 62.514282 119.616744 
L 62.458073 118.74093 
L 62.394178 117.865116 
L 62.322571 116.989302 
L 62.243358 116.113489 
L 62.156735 115.237675 
L 62.062907 114.361861 
L 61.961999 113.486047 
L 61.853949 112.610233 
L 61.7384 111.734419 
L 61.614596 110.858605 
L 61.481309 109.982791 
L 61.336794 109.106977 
L 61.178801 108.231163 
L 61.004629 107.355349 
L 60.811249 106.479535 
L 60.595474 105.603721 
L 60.354172 104.727907 
L 60.084511 103.852094 
L 59.784208 102.97628 
L 59.451773 102.100466 
L 59.086701 101.224652 
L 58.689618 100.348838 
L 58.262348 99.473024 
L 57.807891 98.59721 
L 57.330326 97.721396 
L 56.834632 96.845582 
L 56.326447 95.969768 
L 55.811803 95.093954 
L 55.296844 94.21814 
L 54.787572 93.342326 
L 54.289633 92.466512 
L 53.808168 91.590699 
L 53.347731 90.714885 
L 52.912275 89.839071 
L 52.505191 88.963257 
L 52.129387 88.087443 
L 51.787381 87.211629 
L 51.481393 86.335815 
L 51.213412 85.460001 
L 50.985237 84.584187 
L 50.798488 83.708373 
L 50.654578 82.832559 
L 50.554674 81.956745 
L 50.499645 81.080931 
L 50.49 80.205117 
L 50.525844 79.329304 
L 50.606828 78.45349 
L 50.732101 77.577676 
L 50.900274 76.701862 
L 51.109356 75.826048 
L 51.356701 74.950234 
L 51.638934 74.07442 
L 51.951888 73.198606 
L 52.290562 72.322792 
L 52.649114 71.446978 
L 53.020923 70.571164 
L 53.398727 69.69535 
L 53.774854 68.819536 
L 54.141551 67.943722 
L 54.491383 67.067909 
L 54.817688 66.192095 
L 55.115045 65.316281 
L 55.379702 64.440467 
L 55.609926 63.564653 
L 55.806213 62.688839 
L 55.971351 61.813025 
L 56.110283 60.937211 
L 56.229809 60.061397 
L 56.338111 59.185583 
L 56.444168 58.309769 
L 56.557098 57.433955 
L 56.685488 56.558141 
L 56.836773 55.682327 
L 57.016715 54.806514 
L 57.229036 53.9307 
L 57.475207 53.054886 
L 57.754429 52.179072 
L 58.063777 51.303258 
L 58.398495 50.427444 
L 58.752399 49.55163 
L 59.118354 48.675816 
L 59.488773 47.800002 
L 59.856103 46.924188 
L 60.213258 46.048374 
L 60.553977 45.17256 
L 60.873078 44.296746 
L 61.166623 43.420932 
L 61.431972 42.545118 
L 61.667752 41.669305 
L 61.873751 40.793491 
L 62.050757 39.917677 
L 62.200365 39.041863 
L 62.324765 38.166049 
L 62.426538 37.290235 
L 62.508464 36.414421 
L 63.023536 36.414421 
L 63.023536 36.414421 
L 63.105462 37.290235 
L 63.207235 38.166049 
L 63.331635 39.041863 
L 63.481243 39.917677 
L 63.658249 40.793491 
L 63.864248 41.669305 
L 64.100028 42.545118 
L 64.365377 43.420932 
L 64.658922 44.296746 
L 64.978023 45.17256 
L 65.318742 46.048374 
L 65.675897 46.924188 
L 66.043227 47.800002 
L 66.413646 48.675816 
L 66.779601 49.55163 
L 67.133505 50.427444 
L 67.468223 51.303258 
L 67.777571 52.179072 
L 68.056793 53.054886 
L 68.302964 53.9307 
L 68.515285 54.806514 
L 68.695227 55.682327 
L 68.846512 56.558141 
L 68.974902 57.433955 
L 69.087832 58.309769 
L 69.193889 59.185583 
L 69.302191 60.061397 
L 69.421717 60.937211 
L 69.560649 61.813025 
L 69.725787 62.688839 
L 69.922074 63.564653 
L 70.152298 64.440467 
L 70.416955 65.316281 
L 70.714312 66.192095 
L 71.040617 67.067909 
L 71.390449 67.943722 
L 71.757146 68.819536 
L 72.133273 69.69535 
L 72.511077 70.571164 
L 72.882886 71.446978 
L 73.241438 72.322792 
L 73.580112 73.198606 
L 73.893066 74.07442 
L 74.175299 74.950234 
L 74.422644 75.826048 
L 74.631726 76.701862 
L 74.799899 77.577676 
L 74.925172 78.45349 
L 75.006156 79.329304 
L 75.042 80.205117 
L 75.032355 81.080931 
L 74.977326 81.956745 
L 74.877422 82.832559 
L 74.733512 83.708373 
L 74.546763 84.584187 
L 74.318588 85.460001 
L 74.050607 86.335815 
L 73.744619 87.211629 
L 73.402613 88.087443 
L 73.026809 88.963257 
L 72.619725 89.839071 
L 72.184269 90.714885 
L 71.723832 91.590699 
L 71.242367 92.466512 
L 70.744428 93.342326 
L 70.235156 94.21814 
L 69.720197 95.093954 
L 69.205553 95.969768 
L 68.697368 96.845582 
L 68.201674 97.721396 
L 67.724109 98.59721 
L 67.269652 99.473024 
L 66.842382 100.348838 
L 66.445299 101.224652 
L 66.080227 102.100466 
L 65.747792 102.97628 
L 65.447489 103.852094 
L 65.177828 104.727907 
L 64.936526 105.603721 
L 64.720751 106.479535 
L 64.527371 107.355349 
L 64.353199 108.231163 
L 64.195206 109.106977 
L 64.050691 109.982791 
L 63.917404 110.858605 
L 63.7936 111.734419 
L 63.678051 112.610233 
L 63.570001 113.486047 
L 63.469093 114.361861 
L 63.375265 115.237675 
L 63.288642 116.113489 
L 63.209429 116.989302 
L 63.137822 117.865116 
L 63.073927 118.74093 
L 63.017718 119.616744 
L 62.969015 120.492558 
L 62.927476 121.368372 
L 62.89262 122.244186 
L 62.863854 123.12 
z
" clip-path="url(#p661b9a3dc6)" style="fill: #74808c; fill-opacity: 0.35"/>
   </g>
   <g id="PolyCollection_3">
    <path d="M 99.739404 120.552103 
L 99.448596 120.552103 
L 99.404732 119.55986 
L 99.350291 118.567616 
L 99.283504 117.575373 
L 99.202496 116.583129 
L 99.105335 115.590886 
L 98.990078 114.598642 
L 98.854833 113.606399 
L 98.697829 112.614155 
L 98.517489 111.621912 
L 98.312517 110.629668 
L 98.081968 109.637425 
L 97.825331 108.645181 
L 97.542583 107.652938 
L 97.234241 106.660694 
L 96.901374 105.668451 
L 96.545593 104.676208 
L 96.169005 103.683964 
L 95.774132 102.691721 
L 95.363797 101.699477 
L 94.940989 100.707234 
L 94.508714 99.71499 
L 94.069856 98.722747 
L 93.627056 97.730503 
L 93.182642 96.73826 
L 92.738605 95.746016 
L 92.296652 94.753773 
L 91.858318 93.761529 
L 91.425142 92.769286 
L 90.998878 91.777043 
L 90.581719 90.784799 
L 90.176499 89.792556 
L 89.786832 88.800312 
L 89.417163 87.808069 
L 89.072705 86.815825 
L 88.759238 85.823582 
L 88.482794 84.831338 
L 88.249223 83.839095 
L 88.063698 82.846851 
L 87.930183 81.854608 
L 87.850931 80.862364 
L 87.82607 79.870121 
L 87.853306 78.877877 
L 87.927807 77.885634 
L 88.042279 76.893391 
L 88.18723 75.901147 
L 88.351436 74.908904 
L 88.522551 73.91666 
L 88.687832 72.924417 
L 88.834922 71.932173 
L 88.952632 70.93993 
L 89.03166 69.947686 
L 89.0652 68.955443 
L 89.049398 67.963199 
L 88.983612 66.970956 
L 88.87048 65.978712 
L 88.715779 64.986469 
L 88.52809 63.994226 
L 88.318305 63.001982 
L 88.098999 62.009739 
L 87.883717 61.017495 
L 87.686229 60.025252 
L 87.519788 59.033008 
L 87.396451 58.040765 
L 87.326502 57.048521 
L 87.318 56.056278 
L 87.376482 55.064034 
L 87.504836 54.071791 
L 87.703325 53.079547 
L 87.96977 52.087304 
L 88.299849 51.09506 
L 88.687494 50.102817 
L 89.125337 49.110574 
L 89.60518 48.11833 
L 90.118446 47.126087 
L 90.656576 46.133843 
L 91.211364 45.1416 
L 91.775195 44.149356 
L 92.341207 43.157113 
L 92.903363 42.164869 
L 93.456453 41.172626 
L 93.996041 40.180382 
L 94.518389 39.188139 
L 95.020354 38.195895 
L 95.499301 37.203652 
L 95.953027 36.211409 
L 96.379711 35.219165 
L 96.777889 34.226922 
L 97.146453 33.234678 
L 97.484665 32.242435 
L 97.792183 31.250191 
L 98.069075 30.257948 
L 98.315834 29.265704 
L 98.53337 28.273461 
L 98.722988 27.281217 
L 98.88634 26.288974 
L 99.025367 25.29673 
L 99.142224 24.304487 
L 99.239198 23.312243 
L 99.318629 22.32 
L 99.869371 22.32 
L 99.869371 22.32 
L 99.948802 23.312243 
L 100.045776 24.304487 
L 100.162633 25.29673 
L 100.30166 26.288974 
L 100.465012 27.281217 
L 100.65463 28.273461 
L 100.872166 29.265704 
L 101.118925 30.257948 
L 101.395817 31.250191 
L 101.703335 32.242435 
L 102.041547 33.234678 
L 102.410111 34.226922 
L 102.808289 35.219165 
L 103.234973 36.211409 
L 103.688699 37.203652 
L 104.167646 38.195895 
L 104.669611 39.188139 
L 105.191959 40.180382 
L 105.731547 41.172626 
L 106.284637 42.164869 
L 106.846793 43.157113 
L 107.412805 44.149356 
L 107.976636 45.1416 
L 108.531424 46.133843 
L 109.069554 47.126087 
L 109.58282 48.11833 
L 110.062663 49.110574 
L 110.500506 50.102817 
L 110.888151 51.09506 
L 111.21823 52.087304 
L 111.484675 53.079547 
L 111.683164 54.071791 
L 111.811518 55.064034 
L 111.87 56.056278 
L 111.861498 57.048521 
L 111.791549 58.040765 
L 111.668212 59.033008 
L 111.501771 60.025252 
L 111.304283 61.017495 
L 111.089001 62.009739 
L 110.869695 63.001982 
L 110.65991 63.994226 
L 110.472221 64.986469 
L 110.31752 65.978712 
L 110.204388 66.970956 
L 110.138602 67.963199 
L 110.1228 68.955443 
L 110.15634 69.947686 
L 110.235368 70.93993 
L 110.353078 71.932173 
L 110.500168 72.924417 
L 110.665449 73.91666 
L 110.836564 74.908904 
L 111.00077 75.901147 
L 111.145721 76.893391 
L 111.260193 77.885634 
L 111.334694 78.877877 
L 111.36193 79.870121 
L 111.337069 80.862364 
L 111.257817 81.854608 
L 111.124302 82.846851 
L 110.938777 83.839095 
L 110.705206 84.831338 
L 110.428762 85.823582 
L 110.115295 86.815825 
L 109.770837 87.808069 
L 109.401168 88.800312 
L 109.011501 89.792556 
L 108.606281 90.784799 
L 108.189122 91.777043 
L 107.762858 92.769286 
L 107.329682 93.761529 
L 106.891348 94.753773 
L 106.449395 95.746016 
L 106.005358 96.73826 
L 105.560944 97.730503 
L 105.118144 98.722747 
L 104.679286 99.71499 
L 104.247011 100.707234 
L 103.824203 101.699477 
L 103.413868 102.691721 
L 103.018995 103.683964 
L 102.642407 104.676208 
L 102.286626 105.668451 
L 101.953759 106.660694 
L 101.645417 107.652938 
L 101.362669 108.645181 
L 101.106032 109.637425 
L 100.875483 110.629668 
L 100.670511 111.621912 
L 100.490171 112.614155 
L 100.333167 113.606399 
L 100.197922 114.598642 
L 100.082665 115.590886 
L 99.985504 116.583129 
L 99.904496 117.575373 
L 99.837709 118.567616 
L 99.783268 119.55986 
L 99.739404 120.552103 
z
" clip-path="url(#p661b9a3dc6)" style="fill: #b69595; fill-opacity: 0.35"/>
   </g>
   <g id="PolyCollection_4">
    <path d="M 124.266719 119.684221 
L 124.025281 119.684221 
L 123.986448 118.784314 
L 123.937708 117.884406 
L 123.877285 116.984498 
L 123.803249 116.08459 
L 123.713533 115.184683 
L 123.605944 114.284775 
L 123.47819 113.384867 
L 123.327901 112.48496 
L 123.152674 111.585052 
L 122.950125 110.685144 
L 122.717969 109.785236 
L 122.454116 108.885329 
L 122.156794 107.985421 
L 121.824697 107.085513 
L 121.457136 106.185605 
L 121.054202 105.285698 
L 120.616912 104.38579 
L 120.147326 103.485882 
L 119.648617 102.585975 
L 119.125092 101.686067 
L 118.582139 100.786159 
L 118.026119 99.886251 
L 117.464186 98.986344 
L 116.904074 98.086436 
L 116.353829 97.186528 
L 115.821543 96.28662 
L 115.315065 95.386713 
L 114.841729 94.486805 
L 114.408092 93.586897 
L 114.019689 92.68699 
L 113.680817 91.787082 
L 113.39434 90.887174 
L 113.161528 89.987266 
L 112.981942 89.087359 
L 112.853374 88.187451 
L 112.771856 87.287543 
L 112.731758 86.387635 
L 112.725974 85.487728 
L 112.746215 84.58782 
L 112.783391 83.687912 
L 112.828072 82.788005 
L 112.871006 81.888097 
L 112.903657 80.988189 
L 112.918728 80.088281 
L 112.910635 79.188374 
L 112.875889 78.288466 
L 112.813355 77.388558 
L 112.724374 76.48865 
L 112.612718 75.588743 
L 112.484392 74.688835 
L 112.347277 73.788927 
L 112.210653 72.88902 
L 112.084618 71.989112 
L 111.979456 71.089204 
L 111.904992 70.189296 
L 111.87 69.289389 
L 111.881688 68.389481 
L 111.945321 67.489573 
L 112.06399 66.589665 
L 112.238552 65.689758 
L 112.467731 64.78985 
L 112.748359 63.889942 
L 113.07572 62.990034 
L 113.443971 62.090127 
L 113.846575 61.190219 
L 114.276725 60.290311 
L 114.727715 59.390404 
L 115.193229 58.490496 
L 115.667553 57.590588 
L 116.145688 56.69068 
L 116.623398 55.790773 
L 117.097174 54.890865 
L 117.564169 53.990957 
L 118.022099 53.091049 
L 118.469127 52.191142 
L 118.903767 51.291234 
L 119.324779 50.391326 
L 119.7311 49.491419 
L 120.121786 48.591511 
L 120.495972 47.691603 
L 120.852855 46.791695 
L 121.191681 45.891788 
L 121.511755 44.99188 
L 121.812449 44.091972 
L 122.093225 43.192064 
L 122.353657 42.292157 
L 122.593458 41.392249 
L 122.812509 40.492341 
L 123.010878 39.592434 
L 123.188849 38.692526 
L 123.346926 37.792618 
L 123.48584 36.89271 
L 123.60654 35.992803 
L 123.710167 35.092895 
L 123.798031 34.192987 
L 123.871564 33.293079 
L 123.932277 32.393172 
L 123.981708 31.493264 
L 124.021381 30.593356 
L 124.270619 30.593356 
L 124.270619 30.593356 
L 124.310292 31.493264 
L 124.359723 32.393172 
L 124.420436 33.293079 
L 124.493969 34.192987 
L 124.581833 35.092895 
L 124.68546 35.992803 
L 124.80616 36.89271 
L 124.945074 37.792618 
L 125.103151 38.692526 
L 125.281122 39.592434 
L 125.479491 40.492341 
L 125.698542 41.392249 
L 125.938343 42.292157 
L 126.198775 43.192064 
L 126.479551 44.091972 
L 126.780245 44.99188 
L 127.100319 45.891788 
L 127.439145 46.791695 
L 127.796028 47.691603 
L 128.170214 48.591511 
L 128.5609 49.491419 
L 128.967221 50.391326 
L 129.388233 51.291234 
L 129.822873 52.191142 
L 130.269901 53.091049 
L 130.727831 53.990957 
L 131.194826 54.890865 
L 131.668602 55.790773 
L 132.146312 56.69068 
L 132.624447 57.590588 
L 133.098771 58.490496 
L 133.564285 59.390404 
L 134.015275 60.290311 
L 134.445425 61.190219 
L 134.848029 62.090127 
L 135.21628 62.990034 
L 135.543641 63.889942 
L 135.824269 64.78985 
L 136.053448 65.689758 
L 136.22801 66.589665 
L 136.346679 67.489573 
L 136.410312 68.389481 
L 136.422 69.289389 
L 136.387008 70.189296 
L 136.312544 71.089204 
L 136.207382 71.989112 
L 136.081347 72.88902 
L 135.944723 73.788927 
L 135.807608 74.688835 
L 135.679282 75.588743 
L 135.567626 76.48865 
L 135.478645 77.388558 
L 135.416111 78.288466 
L 135.381365 79.188374 
L 135.373272 80.088281 
L 135.388343 80.988189 
L 135.420994 81.888097 
L 135.463928 82.788005 
L 135.508609 83.687912 
L 135.545785 84.58782 
L 135.566026 85.487728 
L 135.560242 86.387635 
L 135.520144 87.287543 
L 135.438626 88.187451 
L 135.310058 89.087359 
L 135.130472 89.987266 
L 134.89766 90.887174 
L 134.611183 91.787082 
L 134.272311 92.68699 
L 133.883908 93.586897 
L 133.450271 94.486805 
L 132.976935 95.386713 
L 132.470457 96.28662 
L 131.938171 97.186528 
L 131.387926 98.086436 
L 130.827814 98.986344 
L 130.265881 99.886251 
L 129.709861 100.786159 
L 129.166908 101.686067 
L 128.643383 102.585975 
L 128.144674 103.485882 
L 127.675088 104.38579 
L 127.237798 105.285698 
L 126.834864 106.185605 
L 126.467303 107.085513 
L 126.135206 107.985421 
L 125.837884 108.885329 
L 125.574031 109.785236 
L 125.341875 110.685144 
L 125.139326 111.585052 
L 124.964099 112.48496 
L 124.81381 113.384867 
L 124.686056 114.284775 
L 124.578467 115.184683 
L 124.488751 116.08459 
L 124.414715 116.984498 
L 124.354292 117.884406 
L 124.305552 118.784314 
L 124.266719 119.684221 
z
" clip-path="url(#p661b9a3dc6)" style="fill: #74808c; fill-opacity: 0.35"/>
   </g>
   <g id="patch_3">
    <path d="M 25.938 81.618579 
L 50.49 81.618579 
L 50.49 71.720877 
L 25.938 71.720877 
L 25.938 81.618579 
z
" clip-path="url(#p661b9a3dc6)" style="fill: none"/>
   </g>
   <g id="patch_4">
    <path d="M 87.318 81.618579 
L 111.87 81.618579 
L 111.87 69.291173 
L 87.318 69.291173 
L 87.318 81.618579 
z
" clip-path="url(#p661b9a3dc6)" style="fill: none"/>
   </g>
   <g id="patch_5">
    <path d="M 50.49 81.618579 
L 75.042 81.618579 
L 75.042 76.901997 
L 50.49 76.901997 
L 50.49 81.618579 
z
" clip-path="url(#p661b9a3dc6)" style="fill: none"/>
   </g>
   <g id="patch_6">
    <path d="M 111.87 81.618579 
L 136.422 81.618579 
L 136.422 75.941049 
L 111.87 75.941049 
L 111.87 81.618579 
z
" clip-path="url(#p661b9a3dc6)" style="fill: none"/>
   </g>
   <g id="patch_7">
    <path d="M 50.49 81.618579 
L 50.49 81.618579 
L 50.49 81.618579 
L 50.49 81.618579 
z
" clip-path="url(#p661b9a3dc6)" style="fill: #3274a1"/>
   </g>
   <g id="patch_8">
    <path d="M 50.49 81.618579 
L 50.49 81.618579 
L 50.49 81.618579 
L 50.49 81.618579 
z
" clip-path="url(#p661b9a3dc6)" style="fill: #e1812c"/>
   </g>
   <g id="matplotlib.axis_1">
    <g id="xtick_1">
     <g id="line2d_1">
      <defs>
       <path id="m6bcc6c68e6" d="M 0 0 
L 0 3.5 
" style="stroke: #000000; stroke-width: 1.5"/>
      </defs>
      <g>
       <use xlink:href="#m6bcc6c68e6" x="50.49" y="128.16" style="stroke: #000000; stroke-width: 1.5"/>
      </g>
     </g>
     <g id="text_1">
      <!-- HC -->
      <g transform="translate(43.268125 142.317813) scale(0.1 -0.1)">
       <defs>
        <path id="Arial-BoldMT-48" d="M 469 0 
L 469 4581 
L 1394 4581 
L 1394 2778 
L 3206 2778 
L 3206 4581 
L 4131 4581 
L 4131 0 
L 3206 0 
L 3206 2003 
L 1394 2003 
L 1394 0 
L 469 0 
z
" transform="scale(0.015625)"/>
        <path id="Arial-BoldMT-43" d="M 3397 1684 
L 4294 1400 
Q 4088 650 3608 286 
Q 3128 -78 2391 -78 
Q 1478 -78 890 545 
Q 303 1169 303 2250 
Q 303 3394 893 4026 
Q 1484 4659 2447 4659 
Q 3288 4659 3813 4163 
Q 4125 3869 4281 3319 
L 3366 3100 
Q 3284 3456 3026 3662 
Q 2769 3869 2400 3869 
Q 1891 3869 1573 3503 
Q 1256 3138 1256 2319 
Q 1256 1450 1568 1081 
Q 1881 713 2381 713 
Q 2750 713 3015 947 
Q 3281 1181 3397 1684 
z
" transform="scale(0.015625)"/>
       </defs>
       <use xlink:href="#Arial-BoldMT-48"/>
       <use xlink:href="#Arial-BoldMT-43" x="72.216797"/>
      </g>
     </g>
    </g>
    <g id="xtick_2">
     <g id="line2d_2">
      <g>
       <use xlink:href="#m6bcc6c68e6" x="111.87" y="128.16" style="stroke: #000000; stroke-width: 1.5"/>
      </g>
     </g>
     <g id="text_2">
      <!-- ND -->
      <g transform="translate(104.648125 142.317813) scale(0.1 -0.1)">
       <defs>
        <path id="Arial-BoldMT-4e" d="M 475 0 
L 475 4581 
L 1375 4581 
L 3250 1522 
L 3250 4581 
L 4109 4581 
L 4109 0 
L 3181 0 
L 1334 2988 
L 1334 0 
L 475 0 
z
" transform="scale(0.015625)"/>
        <path id="Arial-BoldMT-44" d="M 463 4581 
L 2153 4581 
Q 2725 4581 3025 4494 
Q 3428 4375 3715 4072 
Q 4003 3769 4153 3330 
Q 4303 2891 4303 2247 
Q 4303 1681 4163 1272 
Q 3991 772 3672 463 
Q 3431 228 3022 97 
Q 2716 0 2203 0 
L 463 0 
L 463 4581 
z
M 1388 3806 
L 1388 772 
L 2078 772 
Q 2466 772 2638 816 
Q 2863 872 3011 1006 
Q 3159 1141 3253 1448 
Q 3347 1756 3347 2288 
Q 3347 2819 3253 3103 
Q 3159 3388 2990 3547 
Q 2822 3706 2563 3763 
Q 2369 3806 1803 3806 
L 1388 3806 
z
" transform="scale(0.015625)"/>
       </defs>
       <use xlink:href="#Arial-BoldMT-4e"/>
       <use xlink:href="#Arial-BoldMT-44" x="72.216797"/>
      </g>
     </g>
    </g>
   </g>
   <g id="matplotlib.axis_2">
    <g id="ytick_1">
     <g id="line2d_3">
      <defs>
       <path id="m15488f8ae9" d="M 0 0 
L -3.5 0 
" style="stroke: #000000; stroke-width: 1.5"/>
      </defs>
      <g>
       <use xlink:href="#m15488f8ae9" x="19.8" y="127.902796" style="stroke: #000000; stroke-width: 1.5"/>
      </g>
     </g>
     <g id="text_3">
      <!-- −0.50 -->
      <g transform="translate(-12.501563 131.481702) scale(0.1 -0.1)">
       <defs>
        <path id="Arial-BoldMT-2212" d="M 266 1850 
L 266 2672 
L 3469 2672 
L 3469 1850 
L 266 1850 
z
" transform="scale(0.015625)"/>
        <path id="Arial-BoldMT-30" d="M 1756 4600 
Q 2422 4600 2797 4125 
Q 3244 3563 3244 2259 
Q 3244 959 2794 391 
Q 2422 -78 1756 -78 
Q 1088 -78 678 436 
Q 269 950 269 2269 
Q 269 3563 719 4131 
Q 1091 4600 1756 4600 
z
M 1756 3872 
Q 1597 3872 1472 3770 
Q 1347 3669 1278 3406 
Q 1188 3066 1188 2259 
Q 1188 1453 1269 1151 
Q 1350 850 1473 750 
Q 1597 650 1756 650 
Q 1916 650 2041 751 
Q 2166 853 2234 1116 
Q 2325 1453 2325 2259 
Q 2325 3066 2244 3367 
Q 2163 3669 2039 3770 
Q 1916 3872 1756 3872 
z
" transform="scale(0.015625)"/>
        <path id="Arial-BoldMT-2e" d="M 459 0 
L 459 878 
L 1338 878 
L 1338 0 
L 459 0 
z
" transform="scale(0.015625)"/>
        <path id="Arial-BoldMT-35" d="M 284 1178 
L 1159 1269 
Q 1197 972 1381 798 
Q 1566 625 1806 625 
Q 2081 625 2272 848 
Q 2463 1072 2463 1522 
Q 2463 1944 2273 2155 
Q 2084 2366 1781 2366 
Q 1403 2366 1103 2031 
L 391 2134 
L 841 4519 
L 3163 4519 
L 3163 3697 
L 1506 3697 
L 1369 2919 
Q 1663 3066 1969 3066 
Q 2553 3066 2959 2641 
Q 3366 2216 3366 1538 
Q 3366 972 3038 528 
Q 2591 -78 1797 -78 
Q 1163 -78 763 262 
Q 363 603 284 1178 
z
" transform="scale(0.015625)"/>
       </defs>
       <use xlink:href="#Arial-BoldMT-2212"/>
       <use xlink:href="#Arial-BoldMT-30" x="58.398438"/>
       <use xlink:href="#Arial-BoldMT-2e" x="114.013672"/>
       <use xlink:href="#Arial-BoldMT-35" x="141.796875"/>
       <use xlink:href="#Arial-BoldMT-30" x="197.412109"/>
      </g>
     </g>
    </g>
    <g id="ytick_2">
     <g id="line2d_4">
      <g>
       <use xlink:href="#m15488f8ae9" x="19.8" y="104.760688" style="stroke: #000000; stroke-width: 1.5"/>
      </g>
     </g>
     <g id="text_4">
      <!-- −0.25 -->
      <g transform="translate(-12.501563 108.339594) scale(0.1 -0.1)">
       <defs>
        <path id="Arial-BoldMT-32" d="M 3238 816 
L 3238 0 
L 159 0 
Q 209 463 459 877 
Q 709 1291 1447 1975 
Q 2041 2528 2175 2725 
Q 2356 2997 2356 3263 
Q 2356 3556 2198 3714 
Q 2041 3872 1763 3872 
Q 1488 3872 1325 3706 
Q 1163 3541 1138 3156 
L 263 3244 
Q 341 3969 753 4284 
Q 1166 4600 1784 4600 
Q 2463 4600 2850 4234 
Q 3238 3869 3238 3325 
Q 3238 3016 3127 2736 
Q 3016 2456 2775 2150 
Q 2616 1947 2200 1565 
Q 1784 1184 1673 1059 
Q 1563 934 1494 816 
L 3238 816 
z
" transform="scale(0.015625)"/>
       </defs>
       <use xlink:href="#Arial-BoldMT-2212"/>
       <use xlink:href="#Arial-BoldMT-30" x="58.398438"/>
       <use xlink:href="#Arial-BoldMT-2e" x="114.013672"/>
       <use xlink:href="#Arial-BoldMT-32" x="141.796875"/>
       <use xlink:href="#Arial-BoldMT-35" x="197.412109"/>
      </g>
     </g>
    </g>
    <g id="ytick_3">
     <g id="line2d_5">
      <g>
       <use xlink:href="#m15488f8ae9" x="19.8" y="81.618579" style="stroke: #000000; stroke-width: 1.5"/>
      </g>
     </g>
     <g id="text_5">
      <!-- 0.00 -->
      <g transform="translate(-6.660937 85.197485) scale(0.1 -0.1)">
       <use xlink:href="#Arial-BoldMT-30"/>
       <use xlink:href="#Arial-BoldMT-2e" x="55.615234"/>
       <use xlink:href="#Arial-BoldMT-30" x="83.398438"/>
       <use xlink:href="#Arial-BoldMT-30" x="139.013672"/>
      </g>
     </g>
    </g>
    <g id="ytick_4">
     <g id="line2d_6">
      <g>
       <use xlink:href="#m15488f8ae9" x="19.8" y="58.476471" style="stroke: #000000; stroke-width: 1.5"/>
      </g>
     </g>
     <g id="text_6">
      <!-- 0.25 -->
      <g transform="translate(-6.660937 62.055377) scale(0.1 -0.1)">
       <use xlink:href="#Arial-BoldMT-30"/>
       <use xlink:href="#Arial-BoldMT-2e" x="55.615234"/>
       <use xlink:href="#Arial-BoldMT-32" x="83.398438"/>
       <use xlink:href="#Arial-BoldMT-35" x="139.013672"/>
      </g>
     </g>
    </g>
    <g id="ytick_5">
     <g id="line2d_7">
      <g>
       <use xlink:href="#m15488f8ae9" x="19.8" y="35.334362" style="stroke: #000000; stroke-width: 1.5"/>
      </g>
     </g>
     <g id="text_7">
      <!-- 0.50 -->
      <g transform="translate(-6.660937 38.913269) scale(0.1 -0.1)">
       <use xlink:href="#Arial-BoldMT-30"/>
       <use xlink:href="#Arial-BoldMT-2e" x="55.615234"/>
       <use xlink:href="#Arial-BoldMT-35" x="83.398438"/>
       <use xlink:href="#Arial-BoldMT-30" x="139.013672"/>
      </g>
     </g>
    </g>
    <g id="text_8">
     <!--  MB score (a.u.) -->
     <g transform="translate(-18.60625 109.946562) rotate(-90) scale(0.1 -0.1)">
      <defs>
       <path id="Arial-BoldMT-20" transform="scale(0.015625)"/>
       <path id="Arial-BoldMT-4d" d="M 453 0 
L 453 4581 
L 1838 4581 
L 2669 1456 
L 3491 4581 
L 4878 4581 
L 4878 0 
L 4019 0 
L 4019 3606 
L 3109 0 
L 2219 0 
L 1313 3606 
L 1313 0 
L 453 0 
z
" transform="scale(0.015625)"/>
       <path id="Arial-BoldMT-42" d="M 469 4581 
L 2300 4581 
Q 2844 4581 3111 4536 
Q 3378 4491 3589 4347 
Q 3800 4203 3940 3964 
Q 4081 3725 4081 3428 
Q 4081 3106 3907 2837 
Q 3734 2569 3438 2434 
Q 3856 2313 4081 2019 
Q 4306 1725 4306 1328 
Q 4306 1016 4161 720 
Q 4016 425 3764 248 
Q 3513 72 3144 31 
Q 2913 6 2028 0 
L 469 0 
L 469 4581 
z
M 1394 3819 
L 1394 2759 
L 2000 2759 
Q 2541 2759 2672 2775 
Q 2909 2803 3045 2939 
Q 3181 3075 3181 3297 
Q 3181 3509 3064 3642 
Q 2947 3775 2716 3803 
Q 2578 3819 1925 3819 
L 1394 3819 
z
M 1394 1997 
L 1394 772 
L 2250 772 
Q 2750 772 2884 800 
Q 3091 838 3220 983 
Q 3350 1128 3350 1372 
Q 3350 1578 3250 1722 
Q 3150 1866 2961 1931 
Q 2772 1997 2141 1997 
L 1394 1997 
z
" transform="scale(0.015625)"/>
       <path id="Arial-BoldMT-73" d="M 150 947 
L 1031 1081 
Q 1088 825 1259 692 
Q 1431 559 1741 559 
Q 2081 559 2253 684 
Q 2369 772 2369 919 
Q 2369 1019 2306 1084 
Q 2241 1147 2013 1200 
Q 950 1434 666 1628 
Q 272 1897 272 2375 
Q 272 2806 612 3100 
Q 953 3394 1669 3394 
Q 2350 3394 2681 3172 
Q 3013 2950 3138 2516 
L 2309 2363 
Q 2256 2556 2107 2659 
Q 1959 2763 1684 2763 
Q 1338 2763 1188 2666 
Q 1088 2597 1088 2488 
Q 1088 2394 1175 2328 
Q 1294 2241 1995 2081 
Q 2697 1922 2975 1691 
Q 3250 1456 3250 1038 
Q 3250 581 2869 253 
Q 2488 -75 1741 -75 
Q 1063 -75 667 200 
Q 272 475 150 947 
z
" transform="scale(0.015625)"/>
       <path id="Arial-BoldMT-63" d="M 3353 2338 
L 2488 2181 
Q 2444 2441 2289 2572 
Q 2134 2703 1888 2703 
Q 1559 2703 1364 2476 
Q 1169 2250 1169 1719 
Q 1169 1128 1367 884 
Q 1566 641 1900 641 
Q 2150 641 2309 783 
Q 2469 925 2534 1272 
L 3397 1125 
Q 3263 531 2881 228 
Q 2500 -75 1859 -75 
Q 1131 -75 698 384 
Q 266 844 266 1656 
Q 266 2478 700 2936 
Q 1134 3394 1875 3394 
Q 2481 3394 2839 3133 
Q 3197 2872 3353 2338 
z
" transform="scale(0.015625)"/>
       <path id="Arial-BoldMT-6f" d="M 256 1706 
Q 256 2144 472 2553 
Q 688 2963 1083 3178 
Q 1478 3394 1966 3394 
Q 2719 3394 3200 2905 
Q 3681 2416 3681 1669 
Q 3681 916 3195 420 
Q 2709 -75 1972 -75 
Q 1516 -75 1102 131 
Q 688 338 472 736 
Q 256 1134 256 1706 
z
M 1156 1659 
Q 1156 1166 1390 903 
Q 1625 641 1969 641 
Q 2313 641 2545 903 
Q 2778 1166 2778 1666 
Q 2778 2153 2545 2415 
Q 2313 2678 1969 2678 
Q 1625 2678 1390 2415 
Q 1156 2153 1156 1659 
z
" transform="scale(0.015625)"/>
       <path id="Arial-BoldMT-72" d="M 1300 0 
L 422 0 
L 422 3319 
L 1238 3319 
L 1238 2847 
Q 1447 3181 1614 3287 
Q 1781 3394 1994 3394 
Q 2294 3394 2572 3228 
L 2300 2463 
Q 2078 2606 1888 2606 
Q 1703 2606 1575 2504 
Q 1447 2403 1373 2137 
Q 1300 1872 1300 1025 
L 1300 0 
z
" transform="scale(0.015625)"/>
       <path id="Arial-BoldMT-65" d="M 2381 1056 
L 3256 909 
Q 3088 428 2723 176 
Q 2359 -75 1813 -75 
Q 947 -75 531 491 
Q 203 944 203 1634 
Q 203 2459 634 2926 
Q 1066 3394 1725 3394 
Q 2466 3394 2894 2905 
Q 3322 2416 3303 1406 
L 1103 1406 
Q 1113 1016 1316 798 
Q 1519 581 1822 581 
Q 2028 581 2168 693 
Q 2309 806 2381 1056 
z
M 2431 1944 
Q 2422 2325 2234 2523 
Q 2047 2722 1778 2722 
Q 1491 2722 1303 2513 
Q 1116 2303 1119 1944 
L 2431 1944 
z
" transform="scale(0.015625)"/>
       <path id="Arial-BoldMT-28" d="M 1916 -1347 
L 1313 -1347 
Q 834 -625 584 153 
Q 334 931 334 1659 
Q 334 2563 644 3369 
Q 913 4069 1325 4659 
L 1925 4659 
Q 1497 3713 1336 3048 
Q 1175 2384 1175 1641 
Q 1175 1128 1270 590 
Q 1366 53 1531 -431 
Q 1641 -750 1916 -1347 
z
" transform="scale(0.015625)"/>
       <path id="Arial-BoldMT-61" d="M 1116 2306 
L 319 2450 
Q 453 2931 781 3162 
Q 1109 3394 1756 3394 
Q 2344 3394 2631 3255 
Q 2919 3116 3036 2902 
Q 3153 2688 3153 2116 
L 3144 1091 
Q 3144 653 3186 445 
Q 3228 238 3344 0 
L 2475 0 
Q 2441 88 2391 259 
Q 2369 338 2359 363 
Q 2134 144 1878 34 
Q 1622 -75 1331 -75 
Q 819 -75 523 203 
Q 228 481 228 906 
Q 228 1188 362 1408 
Q 497 1628 739 1745 
Q 981 1863 1438 1950 
Q 2053 2066 2291 2166 
L 2291 2253 
Q 2291 2506 2166 2614 
Q 2041 2722 1694 2722 
Q 1459 2722 1328 2630 
Q 1197 2538 1116 2306 
z
M 2291 1594 
Q 2122 1538 1756 1459 
Q 1391 1381 1278 1306 
Q 1106 1184 1106 997 
Q 1106 813 1243 678 
Q 1381 544 1594 544 
Q 1831 544 2047 700 
Q 2206 819 2256 991 
Q 2291 1103 2291 1419 
L 2291 1594 
z
" transform="scale(0.015625)"/>
       <path id="Arial-BoldMT-75" d="M 2644 0 
L 2644 497 
Q 2463 231 2167 78 
Q 1872 -75 1544 -75 
Q 1209 -75 943 72 
Q 678 219 559 484 
Q 441 750 441 1219 
L 441 3319 
L 1319 3319 
L 1319 1794 
Q 1319 1094 1367 936 
Q 1416 778 1544 686 
Q 1672 594 1869 594 
Q 2094 594 2272 717 
Q 2450 841 2515 1023 
Q 2581 1206 2581 1919 
L 2581 3319 
L 3459 3319 
L 3459 0 
L 2644 0 
z
" transform="scale(0.015625)"/>
       <path id="Arial-BoldMT-29" d="M 216 -1347 
Q 475 -791 581 -494 
Q 688 -197 778 190 
Q 869 578 912 926 
Q 956 1275 956 1641 
Q 956 2384 797 3048 
Q 638 3713 209 4659 
L 806 4659 
Q 1278 3988 1539 3234 
Q 1800 2481 1800 1706 
Q 1800 1053 1594 306 
Q 1359 -531 822 -1347 
L 216 -1347 
z
" transform="scale(0.015625)"/>
      </defs>
      <use xlink:href="#Arial-BoldMT-20"/>
      <use xlink:href="#Arial-BoldMT-4d" x="27.783203"/>
      <use xlink:href="#Arial-BoldMT-42" x="111.083984"/>
      <use xlink:href="#Arial-BoldMT-20" x="183.300781"/>
      <use xlink:href="#Arial-BoldMT-73" x="211.083984"/>
      <use xlink:href="#Arial-BoldMT-63" x="266.699219"/>
      <use xlink:href="#Arial-BoldMT-6f" x="322.314453"/>
      <use xlink:href="#Arial-BoldMT-72" x="383.398438"/>
      <use xlink:href="#Arial-BoldMT-65" x="422.314453"/>
      <use xlink:href="#Arial-BoldMT-20" x="477.929688"/>
      <use xlink:href="#Arial-BoldMT-28" x="505.712891"/>
      <use xlink:href="#Arial-BoldMT-61" x="539.013672"/>
      <use xlink:href="#Arial-BoldMT-2e" x="594.628906"/>
      <use xlink:href="#Arial-BoldMT-75" x="622.412109"/>
      <use xlink:href="#Arial-BoldMT-2e" x="683.496094"/>
      <use xlink:href="#Arial-BoldMT-29" x="711.279297"/>
     </g>
    </g>
   </g>
   <g id="PathCollection_1">
    <defs>
     <path id="C0_0_2aca5669a1" d="M 0 3.5 
C 0.928211 3.5 1.81853 3.131218 2.474874 2.474874 
C 3.131218 1.81853 3.5 0.928211 3.5 -0 
C 3.5 -0.928211 3.131218 -1.81853 2.474874 -2.474874 
C 1.81853 -3.131218 0.928211 -3.5 0 -3.5 
C -0.928211 -3.5 -1.81853 -3.131218 -2.474874 -2.474874 
C -3.131218 -1.81853 -3.5 -0.928211 -3.5 0 
C -3.5 0.928211 -3.131218 1.81853 -2.474874 2.474874 
C -1.81853 3.131218 -0.928211 3.5 0 3.5 
z
"/>
    </defs>
    <g clip-path="url(#p661b9a3dc6)">
     <use xlink:href="#C0_0_2aca5669a1" x="41.034756" y="51.99668" style="fill: #bc8f8f; fill-opacity: 0.7"/>
    </g>
    <g clip-path="url(#p661b9a3dc6)">
     <use xlink:href="#C0_0_2aca5669a1" x="41.069883" y="101.983635" style="fill: #bc8f8f; fill-opacity: 0.7"/>
    </g>
    <g clip-path="url(#p661b9a3dc6)">
     <use xlink:href="#C0_0_2aca5669a1" x="39.442239" y="55.699418" style="fill: #bc8f8f; fill-opacity: 0.7"/>
    </g>
    <g clip-path="url(#p661b9a3dc6)">
     <use xlink:href="#C0_0_2aca5669a1" x="40.809551" y="74.213104" style="fill: #bc8f8f; fill-opacity: 0.7"/>
    </g>
    <g clip-path="url(#p661b9a3dc6)">
     <use xlink:href="#C0_0_2aca5669a1" x="38.335118" y="74.213104" style="fill: #bc8f8f; fill-opacity: 0.7"/>
    </g>
    <g clip-path="url(#p661b9a3dc6)">
     <use xlink:href="#C0_0_2aca5669a1" x="39.032006" y="90.875423" style="fill: #bc8f8f; fill-opacity: 0.7"/>
    </g>
    <g clip-path="url(#p661b9a3dc6)">
     <use xlink:href="#C0_0_2aca5669a1" x="39.829458" y="51.99668" style="fill: #bc8f8f; fill-opacity: 0.7"/>
    </g>
    <g clip-path="url(#p661b9a3dc6)">
     <use xlink:href="#C0_0_2aca5669a1" x="36.836761" y="57.550786" style="fill: #bc8f8f; fill-opacity: 0.7"/>
    </g>
    <g clip-path="url(#p661b9a3dc6)">
     <use xlink:href="#C0_0_2aca5669a1" x="37.911285" y="85.321316" style="fill: #bc8f8f; fill-opacity: 0.7"/>
    </g>
    <g clip-path="url(#p661b9a3dc6)">
     <use xlink:href="#C0_0_2aca5669a1" x="39.542252" y="61.253524" style="fill: #bc8f8f; fill-opacity: 0.7"/>
    </g>
    <g clip-path="url(#p661b9a3dc6)">
     <use xlink:href="#C0_0_2aca5669a1" x="40.776788" y="59.402155" style="fill: #bc8f8f; fill-opacity: 0.7"/>
    </g>
    <g clip-path="url(#p661b9a3dc6)">
     <use xlink:href="#C0_0_2aca5669a1" x="39.419573" y="46.442574" style="fill: #bc8f8f; fill-opacity: 0.7"/>
    </g>
    <g clip-path="url(#p661b9a3dc6)">
     <use xlink:href="#C0_0_2aca5669a1" x="40.574494" y="72.361736" style="fill: #bc8f8f; fill-opacity: 0.7"/>
    </g>
    <g clip-path="url(#p661b9a3dc6)">
     <use xlink:href="#C0_0_2aca5669a1" x="39.565807" y="50.145312" style="fill: #bc8f8f; fill-opacity: 0.7"/>
    </g>
    <g clip-path="url(#p661b9a3dc6)">
     <use xlink:href="#C0_0_2aca5669a1" x="37.297921" y="72.361736" style="fill: #bc8f8f; fill-opacity: 0.7"/>
    </g>
    <g clip-path="url(#p661b9a3dc6)">
     <use xlink:href="#C0_0_2aca5669a1" x="40.860957" y="71.436051" style="fill: #bc8f8f; fill-opacity: 0.7"/>
    </g>
    <g clip-path="url(#p661b9a3dc6)">
     <use xlink:href="#C0_0_2aca5669a1" x="36.042833" y="68.658998" style="fill: #bc8f8f; fill-opacity: 0.7"/>
    </g>
    <g clip-path="url(#p661b9a3dc6)">
     <use xlink:href="#C0_0_2aca5669a1" x="40.17483" y="101.983635" style="fill: #bc8f8f; fill-opacity: 0.7"/>
    </g>
    <g clip-path="url(#p661b9a3dc6)">
     <use xlink:href="#C0_0_2aca5669a1" x="35.844225" y="50.145312" style="fill: #bc8f8f; fill-opacity: 0.7"/>
    </g>
    <g clip-path="url(#p661b9a3dc6)">
     <use xlink:href="#C0_0_2aca5669a1" x="38.135075" y="51.99668" style="fill: #bc8f8f; fill-opacity: 0.7"/>
    </g>
    <g clip-path="url(#p661b9a3dc6)">
     <use xlink:href="#C0_0_2aca5669a1" x="37.256907" y="72.361736" style="fill: #bc8f8f; fill-opacity: 0.7"/>
    </g>
    <g clip-path="url(#p661b9a3dc6)">
     <use xlink:href="#C0_0_2aca5669a1" x="37.136671" y="76.064473" style="fill: #bc8f8f; fill-opacity: 0.7"/>
    </g>
    <g clip-path="url(#p661b9a3dc6)">
     <use xlink:href="#C0_0_2aca5669a1" x="39.961269" y="66.80763" style="fill: #bc8f8f; fill-opacity: 0.7"/>
    </g>
    <g clip-path="url(#p661b9a3dc6)">
     <use xlink:href="#C0_0_2aca5669a1" x="39.777072" y="57.550786" style="fill: #bc8f8f; fill-opacity: 0.7"/>
    </g>
    <g clip-path="url(#p661b9a3dc6)">
     <use xlink:href="#C0_0_2aca5669a1" x="38.877667" y="77.915842" style="fill: #bc8f8f; fill-opacity: 0.7"/>
    </g>
    <g clip-path="url(#p661b9a3dc6)">
     <use xlink:href="#C0_0_2aca5669a1" x="40.104741" y="66.80763" style="fill: #bc8f8f; fill-opacity: 0.7"/>
    </g>
    <g clip-path="url(#p661b9a3dc6)">
     <use xlink:href="#C0_0_2aca5669a1" x="38.673274" y="68.658998" style="fill: #bc8f8f; fill-opacity: 0.7"/>
    </g>
    <g clip-path="url(#p661b9a3dc6)">
     <use xlink:href="#C0_0_2aca5669a1" x="36.326108" y="90.875423" style="fill: #bc8f8f; fill-opacity: 0.7"/>
    </g>
    <g clip-path="url(#p661b9a3dc6)">
     <use xlink:href="#C0_0_2aca5669a1" x="36.246541" y="55.699418" style="fill: #bc8f8f; fill-opacity: 0.7"/>
    </g>
    <g clip-path="url(#p661b9a3dc6)">
     <use xlink:href="#C0_0_2aca5669a1" x="37.535252" y="63.104892" style="fill: #bc8f8f; fill-opacity: 0.7"/>
    </g>
    <g clip-path="url(#p661b9a3dc6)">
     <use xlink:href="#C0_0_2aca5669a1" x="39.007493" y="89.024054" style="fill: #bc8f8f; fill-opacity: 0.7"/>
    </g>
    <g clip-path="url(#p661b9a3dc6)">
     <use xlink:href="#C0_0_2aca5669a1" x="38.17111" y="89.024054" style="fill: #bc8f8f; fill-opacity: 0.7"/>
    </g>
    <g clip-path="url(#p661b9a3dc6)">
     <use xlink:href="#C0_0_2aca5669a1" x="38.3335" y="64.956261" style="fill: #bc8f8f; fill-opacity: 0.7"/>
    </g>
    <g clip-path="url(#p661b9a3dc6)">
     <use xlink:href="#C0_0_2aca5669a1" x="36.312079" y="92.726791" style="fill: #bc8f8f; fill-opacity: 0.7"/>
    </g>
    <g clip-path="url(#p661b9a3dc6)">
     <use xlink:href="#C0_0_2aca5669a1" x="35.506868" y="90.875423" style="fill: #bc8f8f; fill-opacity: 0.7"/>
    </g>
    <g clip-path="url(#p661b9a3dc6)">
     <use xlink:href="#C0_0_2aca5669a1" x="38.100657" y="96.429529" style="fill: #bc8f8f; fill-opacity: 0.7"/>
    </g>
    <g clip-path="url(#p661b9a3dc6)">
     <use xlink:href="#C0_0_2aca5669a1" x="40.838613" y="90.875423" style="fill: #bc8f8f; fill-opacity: 0.7"/>
    </g>
    <g clip-path="url(#p661b9a3dc6)">
     <use xlink:href="#C0_0_2aca5669a1" x="36.687262" y="48.293943" style="fill: #bc8f8f; fill-opacity: 0.7"/>
    </g>
    <g clip-path="url(#p661b9a3dc6)">
     <use xlink:href="#C0_0_2aca5669a1" x="37.109154" y="89.024054" style="fill: #bc8f8f; fill-opacity: 0.7"/>
    </g>
   </g>
   <g id="PathCollection_2">
    <defs>
     <path id="C1_0_215dc1e148" d="M 0 3.5 
C 0.928211 3.5 1.81853 3.131218 2.474874 2.474874 
C 3.131218 1.81853 3.5 0.928211 3.5 -0 
C 3.5 -0.928211 3.131218 -1.81853 2.474874 -2.474874 
C 1.81853 -3.131218 0.928211 -3.5 0 -3.5 
C -0.928211 -3.5 -1.81853 -3.131218 -2.474874 -2.474874 
C -3.131218 -1.81853 -3.5 -0.928211 -3.5 0 
C -3.5 0.928211 -3.131218 1.81853 -2.474874 2.474874 
C -1.81853 3.131218 -0.928211 3.5 0 3.5 
z
"/>
    </defs>
    <g clip-path="url(#p661b9a3dc6)">
     <use xlink:href="#C1_0_215dc1e148" x="63.729288" y="55.699418" style="fill: #708090; fill-opacity: 0.7"/>
    </g>
    <g clip-path="url(#p661b9a3dc6)">
     <use xlink:href="#C1_0_215dc1e148" x="65.056046" y="50.145312" style="fill: #708090; fill-opacity: 0.7"/>
    </g>
    <g clip-path="url(#p661b9a3dc6)">
     <use xlink:href="#C1_0_215dc1e148" x="60.429381" y="83.469948" style="fill: #708090; fill-opacity: 0.7"/>
    </g>
    <g clip-path="url(#p661b9a3dc6)">
     <use xlink:href="#C1_0_215dc1e148" x="60.046245" y="89.024054" style="fill: #708090; fill-opacity: 0.7"/>
    </g>
    <g clip-path="url(#p661b9a3dc6)">
     <use xlink:href="#C1_0_215dc1e148" x="64.14019" y="92.726791" style="fill: #708090; fill-opacity: 0.7"/>
    </g>
    <g clip-path="url(#p661b9a3dc6)">
     <use xlink:href="#C1_0_215dc1e148" x="62.315322" y="101.983635" style="fill: #708090; fill-opacity: 0.7"/>
    </g>
    <g clip-path="url(#p661b9a3dc6)">
     <use xlink:href="#C1_0_215dc1e148" x="65.827548" y="109.389109" style="fill: #708090; fill-opacity: 0.7"/>
    </g>
    <g clip-path="url(#p661b9a3dc6)">
     <use xlink:href="#C1_0_215dc1e148" x="64.587981" y="89.024054" style="fill: #708090; fill-opacity: 0.7"/>
    </g>
    <g clip-path="url(#p661b9a3dc6)">
     <use xlink:href="#C1_0_215dc1e148" x="65.757511" y="70.510367" style="fill: #708090; fill-opacity: 0.7"/>
    </g>
    <g clip-path="url(#p661b9a3dc6)">
     <use xlink:href="#C1_0_215dc1e148" x="60.141086" y="55.699418" style="fill: #708090; fill-opacity: 0.7"/>
    </g>
    <g clip-path="url(#p661b9a3dc6)">
     <use xlink:href="#C1_0_215dc1e148" x="62.542081" y="77.915842" style="fill: #708090; fill-opacity: 0.7"/>
    </g>
    <g clip-path="url(#p661b9a3dc6)">
     <use xlink:href="#C1_0_215dc1e148" x="60.733152" y="87.172685" style="fill: #708090; fill-opacity: 0.7"/>
    </g>
    <g clip-path="url(#p661b9a3dc6)">
     <use xlink:href="#C1_0_215dc1e148" x="60.351512" y="70.510367" style="fill: #708090; fill-opacity: 0.7"/>
    </g>
    <g clip-path="url(#p661b9a3dc6)">
     <use xlink:href="#C1_0_215dc1e148" x="61.091968" y="72.361736" style="fill: #708090; fill-opacity: 0.7"/>
    </g>
    <g clip-path="url(#p661b9a3dc6)">
     <use xlink:href="#C1_0_215dc1e148" x="62.243043" y="72.361736" style="fill: #708090; fill-opacity: 0.7"/>
    </g>
    <g clip-path="url(#p661b9a3dc6)">
     <use xlink:href="#C1_0_215dc1e148" x="61.731472" y="66.80763" style="fill: #708090; fill-opacity: 0.7"/>
    </g>
    <g clip-path="url(#p661b9a3dc6)">
     <use xlink:href="#C1_0_215dc1e148" x="64.39751" y="94.57816" style="fill: #708090; fill-opacity: 0.7"/>
    </g>
    <g clip-path="url(#p661b9a3dc6)">
     <use xlink:href="#C1_0_215dc1e148" x="64.783869" y="92.726791" style="fill: #708090; fill-opacity: 0.7"/>
    </g>
    <g clip-path="url(#p661b9a3dc6)">
     <use xlink:href="#C1_0_215dc1e148" x="59.984723" y="96.429529" style="fill: #708090; fill-opacity: 0.7"/>
    </g>
    <g clip-path="url(#p661b9a3dc6)">
     <use xlink:href="#C1_0_215dc1e148" x="63.817048" y="77.915842" style="fill: #708090; fill-opacity: 0.7"/>
    </g>
    <g clip-path="url(#p661b9a3dc6)">
     <use xlink:href="#C1_0_215dc1e148" x="60.044951" y="76.064473" style="fill: #708090; fill-opacity: 0.7"/>
    </g>
    <g clip-path="url(#p661b9a3dc6)">
     <use xlink:href="#C1_0_215dc1e148" x="60.146064" y="77.915842" style="fill: #708090; fill-opacity: 0.7"/>
    </g>
    <g clip-path="url(#p661b9a3dc6)">
     <use xlink:href="#C1_0_215dc1e148" x="60.603639" y="63.104892" style="fill: #708090; fill-opacity: 0.7"/>
    </g>
    <g clip-path="url(#p661b9a3dc6)">
     <use xlink:href="#C1_0_215dc1e148" x="62.022846" y="59.402155" style="fill: #708090; fill-opacity: 0.7"/>
    </g>
    <g clip-path="url(#p661b9a3dc6)">
     <use xlink:href="#C1_0_215dc1e148" x="61.587106" y="55.699418" style="fill: #708090; fill-opacity: 0.7"/>
    </g>
    <g clip-path="url(#p661b9a3dc6)">
     <use xlink:href="#C1_0_215dc1e148" x="63.047439" y="81.618579" style="fill: #708090; fill-opacity: 0.7"/>
    </g>
    <g clip-path="url(#p661b9a3dc6)">
     <use xlink:href="#C1_0_215dc1e148" x="59.733297" y="74.213104" style="fill: #708090; fill-opacity: 0.7"/>
    </g>
    <g clip-path="url(#p661b9a3dc6)">
     <use xlink:href="#C1_0_215dc1e148" x="65.144786" y="79.76721" style="fill: #708090; fill-opacity: 0.7"/>
    </g>
    <g clip-path="url(#p661b9a3dc6)">
     <use xlink:href="#C1_0_215dc1e148" x="65.36188" y="83.469948" style="fill: #708090; fill-opacity: 0.7"/>
    </g>
    <g clip-path="url(#p661b9a3dc6)">
     <use xlink:href="#C1_0_215dc1e148" x="63.744021" y="74.213104" style="fill: #708090; fill-opacity: 0.7"/>
    </g>
    <g clip-path="url(#p661b9a3dc6)">
     <use xlink:href="#C1_0_215dc1e148" x="62.237209" y="81.618579" style="fill: #708090; fill-opacity: 0.7"/>
    </g>
    <g clip-path="url(#p661b9a3dc6)">
     <use xlink:href="#C1_0_215dc1e148" x="65.363299" y="92.726791" style="fill: #708090; fill-opacity: 0.7"/>
    </g>
    <g clip-path="url(#p661b9a3dc6)">
     <use xlink:href="#C1_0_215dc1e148" x="63.790007" y="90.875423" style="fill: #708090; fill-opacity: 0.7"/>
    </g>
    <g clip-path="url(#p661b9a3dc6)">
     <use xlink:href="#C1_0_215dc1e148" x="62.033848" y="68.658998" style="fill: #708090; fill-opacity: 0.7"/>
    </g>
    <g clip-path="url(#p661b9a3dc6)">
     <use xlink:href="#C1_0_215dc1e148" x="61.195962" y="50.145312" style="fill: #708090; fill-opacity: 0.7"/>
    </g>
    <g clip-path="url(#p661b9a3dc6)">
     <use xlink:href="#C1_0_215dc1e148" x="63.566259" y="68.658998" style="fill: #708090; fill-opacity: 0.7"/>
    </g>
    <g clip-path="url(#p661b9a3dc6)">
     <use xlink:href="#C1_0_215dc1e148" x="60.971877" y="85.321316" style="fill: #708090; fill-opacity: 0.7"/>
    </g>
    <g clip-path="url(#p661b9a3dc6)">
     <use xlink:href="#C1_0_215dc1e148" x="62.145274" y="79.76721" style="fill: #708090; fill-opacity: 0.7"/>
    </g>
    <g clip-path="url(#p661b9a3dc6)">
     <use xlink:href="#C1_0_215dc1e148" x="65.774358" y="53.848049" style="fill: #708090; fill-opacity: 0.7"/>
    </g>
    <g clip-path="url(#p661b9a3dc6)">
     <use xlink:href="#C1_0_215dc1e148" x="61.63096" y="83.469948" style="fill: #708090; fill-opacity: 0.7"/>
    </g>
    <g clip-path="url(#p661b9a3dc6)">
     <use xlink:href="#C1_0_215dc1e148" x="61.088735" y="57.550786" style="fill: #708090; fill-opacity: 0.7"/>
    </g>
    <g clip-path="url(#p661b9a3dc6)">
     <use xlink:href="#C1_0_215dc1e148" x="65.617415" y="85.321316" style="fill: #708090; fill-opacity: 0.7"/>
    </g>
   </g>
   <g id="PathCollection_3">
    <defs>
     <path id="C2_0_28d8fa792c" d="M 0 3.5 
C 0.928211 3.5 1.81853 3.131218 2.474874 2.474874 
C 3.131218 1.81853 3.5 0.928211 3.5 -0 
C 3.5 -0.928211 3.131218 -1.81853 2.474874 -2.474874 
C 1.81853 -3.131218 0.928211 -3.5 0 -3.5 
C -0.928211 -3.5 -1.81853 -3.131218 -2.474874 -2.474874 
C -3.131218 -1.81853 -3.5 -0.928211 -3.5 0 
C -3.5 0.928211 -3.131218 1.81853 -2.474874 2.474874 
C -1.81853 3.131218 -0.928211 3.5 0 3.5 
z
"/>
    </defs>
    <g clip-path="url(#p661b9a3dc6)">
     <use xlink:href="#C2_0_28d8fa792c" x="97.663808" y="39.0371" style="fill: #bc8f8f; fill-opacity: 0.7"/>
    </g>
    <g clip-path="url(#p661b9a3dc6)">
     <use xlink:href="#C2_0_28d8fa792c" x="99.70483" y="81.618579" style="fill: #bc8f8f; fill-opacity: 0.7"/>
    </g>
    <g clip-path="url(#p661b9a3dc6)">
     <use xlink:href="#C2_0_28d8fa792c" x="97.410775" y="103.835003" style="fill: #bc8f8f; fill-opacity: 0.7"/>
    </g>
    <g clip-path="url(#p661b9a3dc6)">
     <use xlink:href="#C2_0_28d8fa792c" x="98.129912" y="39.0371" style="fill: #bc8f8f; fill-opacity: 0.7"/>
    </g>
    <g clip-path="url(#p661b9a3dc6)">
     <use xlink:href="#C2_0_28d8fa792c" x="98.329691" y="44.591206" style="fill: #bc8f8f; fill-opacity: 0.7"/>
    </g>
    <g clip-path="url(#p661b9a3dc6)">
     <use xlink:href="#C2_0_28d8fa792c" x="101.929061" y="72.361736" style="fill: #bc8f8f; fill-opacity: 0.7"/>
    </g>
    <g clip-path="url(#p661b9a3dc6)">
     <use xlink:href="#C2_0_28d8fa792c" x="99.258422" y="57.550786" style="fill: #bc8f8f; fill-opacity: 0.7"/>
    </g>
    <g clip-path="url(#p661b9a3dc6)">
     <use xlink:href="#C2_0_28d8fa792c" x="101.423819" y="76.064473" style="fill: #bc8f8f; fill-opacity: 0.7"/>
    </g>
    <g clip-path="url(#p661b9a3dc6)">
     <use xlink:href="#C2_0_28d8fa792c" x="98.940688" y="51.99668" style="fill: #bc8f8f; fill-opacity: 0.7"/>
    </g>
    <g clip-path="url(#p661b9a3dc6)">
     <use xlink:href="#C2_0_28d8fa792c" x="100.248206" y="63.104892" style="fill: #bc8f8f; fill-opacity: 0.7"/>
    </g>
    <g clip-path="url(#p661b9a3dc6)">
     <use xlink:href="#C2_0_28d8fa792c" x="100.011458" y="55.699418" style="fill: #bc8f8f; fill-opacity: 0.7"/>
    </g>
    <g clip-path="url(#p661b9a3dc6)">
     <use xlink:href="#C2_0_28d8fa792c" x="97.096024" y="50.145312" style="fill: #bc8f8f; fill-opacity: 0.7"/>
    </g>
    <g clip-path="url(#p661b9a3dc6)">
     <use xlink:href="#C2_0_28d8fa792c" x="97.126837" y="61.253524" style="fill: #bc8f8f; fill-opacity: 0.7"/>
    </g>
    <g clip-path="url(#p661b9a3dc6)">
     <use xlink:href="#C2_0_28d8fa792c" x="96.674992" y="51.99668" style="fill: #bc8f8f; fill-opacity: 0.7"/>
    </g>
    <g clip-path="url(#p661b9a3dc6)">
     <use xlink:href="#C2_0_28d8fa792c" x="99.900634" y="77.915842" style="fill: #bc8f8f; fill-opacity: 0.7"/>
    </g>
    <g clip-path="url(#p661b9a3dc6)">
     <use xlink:href="#C2_0_28d8fa792c" x="97.077227" y="83.469948" style="fill: #bc8f8f; fill-opacity: 0.7"/>
    </g>
    <g clip-path="url(#p661b9a3dc6)">
     <use xlink:href="#C2_0_28d8fa792c" x="97.799492" y="63.104892" style="fill: #bc8f8f; fill-opacity: 0.7"/>
    </g>
    <g clip-path="url(#p661b9a3dc6)">
     <use xlink:href="#C2_0_28d8fa792c" x="98.273896" y="55.699418" style="fill: #bc8f8f; fill-opacity: 0.7"/>
    </g>
    <g clip-path="url(#p661b9a3dc6)">
     <use xlink:href="#C2_0_28d8fa792c" x="102.295634" y="55.699418" style="fill: #bc8f8f; fill-opacity: 0.7"/>
    </g>
    <g clip-path="url(#p661b9a3dc6)">
     <use xlink:href="#C2_0_28d8fa792c" x="102.546538" y="89.024054" style="fill: #bc8f8f; fill-opacity: 0.7"/>
    </g>
    <g clip-path="url(#p661b9a3dc6)">
     <use xlink:href="#C2_0_28d8fa792c" x="97.933767" y="79.76721" style="fill: #bc8f8f; fill-opacity: 0.7"/>
    </g>
    <g clip-path="url(#p661b9a3dc6)">
     <use xlink:href="#C2_0_28d8fa792c" x="99.611109" y="83.469948" style="fill: #bc8f8f; fill-opacity: 0.7"/>
    </g>
    <g clip-path="url(#p661b9a3dc6)">
     <use xlink:href="#C2_0_28d8fa792c" x="99.748988" y="70.510367" style="fill: #bc8f8f; fill-opacity: 0.7"/>
    </g>
    <g clip-path="url(#p661b9a3dc6)">
     <use xlink:href="#C2_0_28d8fa792c" x="97.933989" y="96.429529" style="fill: #bc8f8f; fill-opacity: 0.7"/>
    </g>
    <g clip-path="url(#p661b9a3dc6)">
     <use xlink:href="#C2_0_28d8fa792c" x="102.448271" y="96.429529" style="fill: #bc8f8f; fill-opacity: 0.7"/>
    </g>
    <g clip-path="url(#p661b9a3dc6)">
     <use xlink:href="#C2_0_28d8fa792c" x="97.162823" y="81.618579" style="fill: #bc8f8f; fill-opacity: 0.7"/>
    </g>
    <g clip-path="url(#p661b9a3dc6)">
     <use xlink:href="#C2_0_28d8fa792c" x="96.96807" y="74.213104" style="fill: #bc8f8f; fill-opacity: 0.7"/>
    </g>
    <g clip-path="url(#p661b9a3dc6)">
     <use xlink:href="#C2_0_28d8fa792c" x="101.172807" y="79.76721" style="fill: #bc8f8f; fill-opacity: 0.7"/>
    </g>
    <g clip-path="url(#p661b9a3dc6)">
     <use xlink:href="#C2_0_28d8fa792c" x="97.327932" y="44.591206" style="fill: #bc8f8f; fill-opacity: 0.7"/>
    </g>
    <g clip-path="url(#p661b9a3dc6)">
     <use xlink:href="#C2_0_28d8fa792c" x="97.928656" y="79.76721" style="fill: #bc8f8f; fill-opacity: 0.7"/>
    </g>
    <g clip-path="url(#p661b9a3dc6)">
     <use xlink:href="#C2_0_28d8fa792c" x="96.789588" y="85.321316" style="fill: #bc8f8f; fill-opacity: 0.7"/>
    </g>
    <g clip-path="url(#p661b9a3dc6)">
     <use xlink:href="#C2_0_28d8fa792c" x="97.503467" y="55.699418" style="fill: #bc8f8f; fill-opacity: 0.7"/>
    </g>
    <g clip-path="url(#p661b9a3dc6)">
     <use xlink:href="#C2_0_28d8fa792c" x="102.57842" y="51.99668" style="fill: #bc8f8f; fill-opacity: 0.7"/>
    </g>
    <g clip-path="url(#p661b9a3dc6)">
     <use xlink:href="#C2_0_28d8fa792c" x="97.359983" y="94.57816" style="fill: #bc8f8f; fill-opacity: 0.7"/>
    </g>
    <g clip-path="url(#p661b9a3dc6)">
     <use xlink:href="#C2_0_28d8fa792c" x="98.293021" y="92.726791" style="fill: #bc8f8f; fill-opacity: 0.7"/>
    </g>
    <g clip-path="url(#p661b9a3dc6)">
     <use xlink:href="#C2_0_28d8fa792c" x="99.301362" y="92.726791" style="fill: #bc8f8f; fill-opacity: 0.7"/>
    </g>
    <g clip-path="url(#p661b9a3dc6)">
     <use xlink:href="#C2_0_28d8fa792c" x="101.219392" y="59.402155" style="fill: #bc8f8f; fill-opacity: 0.7"/>
    </g>
    <g clip-path="url(#p661b9a3dc6)">
     <use xlink:href="#C2_0_28d8fa792c" x="98.90427" y="64.956261" style="fill: #bc8f8f; fill-opacity: 0.7"/>
    </g>
    <g clip-path="url(#p661b9a3dc6)">
     <use xlink:href="#C2_0_28d8fa792c" x="99.913709" y="48.293943" style="fill: #bc8f8f; fill-opacity: 0.7"/>
    </g>
    <g clip-path="url(#p661b9a3dc6)">
     <use xlink:href="#C2_0_28d8fa792c" x="98.918384" y="57.550786" style="fill: #bc8f8f; fill-opacity: 0.7"/>
    </g>
    <g clip-path="url(#p661b9a3dc6)">
     <use xlink:href="#C2_0_28d8fa792c" x="97.984532" y="77.915842" style="fill: #bc8f8f; fill-opacity: 0.7"/>
    </g>
   </g>
   <g id="PathCollection_4">
    <defs>
     <path id="C3_0_a83256829e" d="M 0 3.5 
C 0.928211 3.5 1.81853 3.131218 2.474874 2.474874 
C 3.131218 1.81853 3.5 0.928211 3.5 -0 
C 3.5 -0.928211 3.131218 -1.81853 2.474874 -2.474874 
C 1.81853 -3.131218 0.928211 -3.5 0 -3.5 
C -0.928211 -3.5 -1.81853 -3.131218 -2.474874 -2.474874 
C -3.131218 -1.81853 -3.5 -0.928211 -3.5 0 
C -3.5 0.928211 -3.131218 1.81853 -2.474874 2.474874 
C -1.81853 3.131218 -0.928211 3.5 0 3.5 
z
"/>
    </defs>
    <g clip-path="url(#p661b9a3dc6)">
     <use xlink:href="#C3_0_a83256829e" x="127.149015" y="59.402155" style="fill: #708090; fill-opacity: 0.7"/>
    </g>
    <g clip-path="url(#p661b9a3dc6)">
     <use xlink:href="#C3_0_a83256829e" x="126.908822" y="87.172685" style="fill: #708090; fill-opacity: 0.7"/>
    </g>
    <g clip-path="url(#p661b9a3dc6)">
     <use xlink:href="#C3_0_a83256829e" x="122.170044" y="72.361736" style="fill: #708090; fill-opacity: 0.7"/>
    </g>
    <g clip-path="url(#p661b9a3dc6)">
     <use xlink:href="#C3_0_a83256829e" x="125.980419" y="44.591206" style="fill: #708090; fill-opacity: 0.7"/>
    </g>
    <g clip-path="url(#p661b9a3dc6)">
     <use xlink:href="#C3_0_a83256829e" x="121.681556" y="83.469948" style="fill: #708090; fill-opacity: 0.7"/>
    </g>
    <g clip-path="url(#p661b9a3dc6)">
     <use xlink:href="#C3_0_a83256829e" x="124.558959" y="76.064473" style="fill: #708090; fill-opacity: 0.7"/>
    </g>
    <g clip-path="url(#p661b9a3dc6)">
     <use xlink:href="#C3_0_a83256829e" x="124.080454" y="68.658998" style="fill: #708090; fill-opacity: 0.7"/>
    </g>
    <g clip-path="url(#p661b9a3dc6)">
     <use xlink:href="#C3_0_a83256829e" x="122.468836" y="66.80763" style="fill: #708090; fill-opacity: 0.7"/>
    </g>
    <g clip-path="url(#p661b9a3dc6)">
     <use xlink:href="#C3_0_a83256829e" x="125.772005" y="89.024054" style="fill: #708090; fill-opacity: 0.7"/>
    </g>
    <g clip-path="url(#p661b9a3dc6)">
     <use xlink:href="#C3_0_a83256829e" x="124.467967" y="50.145312" style="fill: #708090; fill-opacity: 0.7"/>
    </g>
    <g clip-path="url(#p661b9a3dc6)">
     <use xlink:href="#C3_0_a83256829e" x="121.787677" y="66.80763" style="fill: #708090; fill-opacity: 0.7"/>
    </g>
    <g clip-path="url(#p661b9a3dc6)">
     <use xlink:href="#C3_0_a83256829e" x="124.131787" y="63.104892" style="fill: #708090; fill-opacity: 0.7"/>
    </g>
    <g clip-path="url(#p661b9a3dc6)">
     <use xlink:href="#C3_0_a83256829e" x="121.591116" y="96.429529" style="fill: #708090; fill-opacity: 0.7"/>
    </g>
    <g clip-path="url(#p661b9a3dc6)">
     <use xlink:href="#C3_0_a83256829e" x="121.905955" y="59.402155" style="fill: #708090; fill-opacity: 0.7"/>
    </g>
    <g clip-path="url(#p661b9a3dc6)">
     <use xlink:href="#C3_0_a83256829e" x="122.61621" y="77.915842" style="fill: #708090; fill-opacity: 0.7"/>
    </g>
    <g clip-path="url(#p661b9a3dc6)">
     <use xlink:href="#C3_0_a83256829e" x="125.065921" y="94.57816" style="fill: #708090; fill-opacity: 0.7"/>
    </g>
    <g clip-path="url(#p661b9a3dc6)">
     <use xlink:href="#C3_0_a83256829e" x="121.754313" y="98.280897" style="fill: #708090; fill-opacity: 0.7"/>
    </g>
    <g clip-path="url(#p661b9a3dc6)">
     <use xlink:href="#C3_0_a83256829e" x="127.156509" y="63.104892" style="fill: #708090; fill-opacity: 0.7"/>
    </g>
    <g clip-path="url(#p661b9a3dc6)">
     <use xlink:href="#C3_0_a83256829e" x="121.113386" y="87.172685" style="fill: #708090; fill-opacity: 0.7"/>
    </g>
    <g clip-path="url(#p661b9a3dc6)">
     <use xlink:href="#C3_0_a83256829e" x="124.145526" y="85.321316" style="fill: #708090; fill-opacity: 0.7"/>
    </g>
    <g clip-path="url(#p661b9a3dc6)">
     <use xlink:href="#C3_0_a83256829e" x="124.65922" y="57.550786" style="fill: #708090; fill-opacity: 0.7"/>
    </g>
    <g clip-path="url(#p661b9a3dc6)">
     <use xlink:href="#C3_0_a83256829e" x="124.559211" y="79.76721" style="fill: #708090; fill-opacity: 0.7"/>
    </g>
    <g clip-path="url(#p661b9a3dc6)">
     <use xlink:href="#C3_0_a83256829e" x="126.527609" y="89.024054" style="fill: #708090; fill-opacity: 0.7"/>
    </g>
    <g clip-path="url(#p661b9a3dc6)">
     <use xlink:href="#C3_0_a83256829e" x="123.581132" y="77.915842" style="fill: #708090; fill-opacity: 0.7"/>
    </g>
    <g clip-path="url(#p661b9a3dc6)">
     <use xlink:href="#C3_0_a83256829e" x="124.906968" y="53.848049" style="fill: #708090; fill-opacity: 0.7"/>
    </g>
    <g clip-path="url(#p661b9a3dc6)">
     <use xlink:href="#C3_0_a83256829e" x="123.741516" y="66.80763" style="fill: #708090; fill-opacity: 0.7"/>
    </g>
    <g clip-path="url(#p661b9a3dc6)">
     <use xlink:href="#C3_0_a83256829e" x="123.236595" y="68.658998" style="fill: #708090; fill-opacity: 0.7"/>
    </g>
    <g clip-path="url(#p661b9a3dc6)">
     <use xlink:href="#C3_0_a83256829e" x="123.354604" y="105.686372" style="fill: #708090; fill-opacity: 0.7"/>
    </g>
    <g clip-path="url(#p661b9a3dc6)">
     <use xlink:href="#C3_0_a83256829e" x="124.320145" y="92.726791" style="fill: #708090; fill-opacity: 0.7"/>
    </g>
    <g clip-path="url(#p661b9a3dc6)">
     <use xlink:href="#C3_0_a83256829e" x="122.901892" y="96.429529" style="fill: #708090; fill-opacity: 0.7"/>
    </g>
    <g clip-path="url(#p661b9a3dc6)">
     <use xlink:href="#C3_0_a83256829e" x="122.982761" y="51.99668" style="fill: #708090; fill-opacity: 0.7"/>
    </g>
    <g clip-path="url(#p661b9a3dc6)">
     <use xlink:href="#C3_0_a83256829e" x="125.144457" y="98.280897" style="fill: #708090; fill-opacity: 0.7"/>
    </g>
    <g clip-path="url(#p661b9a3dc6)">
     <use xlink:href="#C3_0_a83256829e" x="121.266655" y="83.469948" style="fill: #708090; fill-opacity: 0.7"/>
    </g>
    <g clip-path="url(#p661b9a3dc6)">
     <use xlink:href="#C3_0_a83256829e" x="123.289425" y="92.726791" style="fill: #708090; fill-opacity: 0.7"/>
    </g>
    <g clip-path="url(#p661b9a3dc6)">
     <use xlink:href="#C3_0_a83256829e" x="125.295871" y="90.875423" style="fill: #708090; fill-opacity: 0.7"/>
    </g>
    <g clip-path="url(#p661b9a3dc6)">
     <use xlink:href="#C3_0_a83256829e" x="123.174003" y="85.321316" style="fill: #708090; fill-opacity: 0.7"/>
    </g>
    <g clip-path="url(#p661b9a3dc6)">
     <use xlink:href="#C3_0_a83256829e" x="124.449495" y="77.915842" style="fill: #708090; fill-opacity: 0.7"/>
    </g>
    <g clip-path="url(#p661b9a3dc6)">
     <use xlink:href="#C3_0_a83256829e" x="126.654437" y="87.172685" style="fill: #708090; fill-opacity: 0.7"/>
    </g>
    <g clip-path="url(#p661b9a3dc6)">
     <use xlink:href="#C3_0_a83256829e" x="125.199393" y="66.80763" style="fill: #708090; fill-opacity: 0.7"/>
    </g>
    <g clip-path="url(#p661b9a3dc6)">
     <use xlink:href="#C3_0_a83256829e" x="121.658941" y="70.510367" style="fill: #708090; fill-opacity: 0.7"/>
    </g>
    <g clip-path="url(#p661b9a3dc6)">
     <use xlink:href="#C3_0_a83256829e" x="125.323797" y="72.361736" style="fill: #708090; fill-opacity: 0.7"/>
    </g>
    <g clip-path="url(#p661b9a3dc6)">
     <use xlink:href="#C3_0_a83256829e" x="124.755855" y="72.361736" style="fill: #708090; fill-opacity: 0.7"/>
    </g>
    <g clip-path="url(#p661b9a3dc6)">
     <use xlink:href="#C3_0_a83256829e" x="122.446458" y="63.104892" style="fill: #708090; fill-opacity: 0.7"/>
    </g>
    <g clip-path="url(#p661b9a3dc6)">
     <use xlink:href="#C3_0_a83256829e" x="121.918811" y="57.550786" style="fill: #708090; fill-opacity: 0.7"/>
    </g>
    <g clip-path="url(#p661b9a3dc6)">
     <use xlink:href="#C3_0_a83256829e" x="122.6364" y="68.658998" style="fill: #708090; fill-opacity: 0.7"/>
    </g>
   </g>
   <g id="line2d_8">
    <path d="M 36.52605 88.067797 
L 39.90195 88.067797 
M 38.214 88.067797 
L 38.214 55.373958 
M 36.52605 55.373958 
L 39.90195 55.373958 
" clip-path="url(#p661b9a3dc6)" style="fill: none; stroke: #333333; stroke-width: 2.5; stroke-linecap: square"/>
   </g>
   <g id="line2d_9">
    <path d="M 97.90605 86.857773 
L 101.28195 86.857773 
M 99.594 86.857773 
L 99.594 51.724573 
M 97.90605 51.724573 
L 101.28195 51.724573 
" clip-path="url(#p661b9a3dc6)" style="fill: none; stroke: #333333; stroke-width: 2.5; stroke-linecap: square"/>
   </g>
   <g id="line2d_10">
    <path d="M 61.07805 91.400347 
L 64.45395 91.400347 
M 62.766 91.400347 
L 62.766 62.403647 
M 61.07805 62.403647 
L 64.45395 62.403647 
" clip-path="url(#p661b9a3dc6)" style="fill: none; stroke: #333333; stroke-width: 2.5; stroke-linecap: square"/>
   </g>
   <g id="line2d_11">
    <path d="M 122.45805 90.926638 
L 125.83395 90.926638 
M 124.146 90.926638 
L 124.146 60.955459 
M 122.45805 60.955459 
L 125.83395 60.955459 
" clip-path="url(#p661b9a3dc6)" style="fill: none; stroke: #333333; stroke-width: 2.5; stroke-linecap: square"/>
   </g>
   <g id="patch_9">
    <path d="M 19.8 128.16 
L 19.8 17.28 
" style="fill: none; stroke: #000000; stroke-width: 1.5; stroke-linejoin: miter; stroke-linecap: square"/>
   </g>
   <g id="patch_10">
    <path d="M 19.8 128.16 
L 142.56 128.16 
" style="fill: none; stroke: #000000; stroke-width: 1.5; stroke-linejoin: miter; stroke-linecap: square"/>
   </g>
   <g id="PathCollection_5">
    <defs>
     <path id="m622cca7527" d="M 0 3 
C 0.795609 3 1.55874 2.683901 2.12132 2.12132 
C 2.683901 1.55874 3 0.795609 3 0 
C 3 -0.795609 2.683901 -1.55874 2.12132 -2.12132 
C 1.55874 -2.683901 0.795609 -3 0 -3 
C -0.795609 -3 -1.55874 -2.683901 -2.12132 -2.12132 
C -2.683901 -1.55874 -3 -0.795609 -3 0 
C -3 0.795609 -2.683901 1.55874 -2.12132 2.12132 
C -1.55874 2.683901 -0.795609 3 0 3 
z
"/>
    </defs>
    <g clip-path="url(#p661b9a3dc6)">
     <use xlink:href="#m622cca7527" x="38.214" y="71.720877" style="fill: #333333"/>
    </g>
   </g>
   <g id="PathCollection_6">
    <g clip-path="url(#p661b9a3dc6)">
     <use xlink:href="#m622cca7527" x="62.766" y="76.901997" style="fill: #333333"/>
    </g>
   </g>
   <g id="PathCollection_7">
    <g clip-path="url(#p661b9a3dc6)">
     <use xlink:href="#m622cca7527" x="99.594" y="69.291173" style="fill: #333333"/>
    </g>
   </g>
   <g id="PathCollection_8">
    <g clip-path="url(#p661b9a3dc6)">
     <use xlink:href="#m622cca7527" x="124.146" y="75.941049" style="fill: #333333"/>
    </g>
   </g>
   <g id="line2d_12"/>
   <g id="line2d_13"/>
  </g>
 </g>
 <defs>
  <clipPath id="p661b9a3dc6">
   <rect x="19.8" y="17.28" width="122.76" height="110.88"/>
  </clipPath>
 </defs>
</svg>
