<?xml version="1.0" encoding="utf-8" standalone="no"?>
<!DOCTYPE svg PUBLIC "-//W3C//DTD SVG 1.1//EN"
  "http://www.w3.org/Graphics/SVG/1.1/DTD/svg11.dtd">
<svg xmlns:xlink="http://www.w3.org/1999/xlink" width="158.4pt" height="144pt" viewBox="0 0 158.4 144" xmlns="http://www.w3.org/2000/svg" version="1.1">
 <metadata>
  <rdf:RDF xmlns:dc="http://purl.org/dc/elements/1.1/" xmlns:cc="http://creativecommons.org/ns#" xmlns:rdf="http://www.w3.org/1999/02/22-rdf-syntax-ns#">
   <cc:Work>
    <dc:type rdf:resource="http://purl.org/dc/dcmitype/StillImage"/>
    <dc:date>2024-09-14T02:30:53.969003</dc:date>
    <dc:format>image/svg+xml</dc:format>
    <dc:creator>
     <cc:Agent>
      <dc:title>Matplotlib v3.7.1, https://matplotlib.org/</dc:title>
     </cc:Agent>
    </dc:creator>
   </cc:Work>
  </rdf:RDF>
 </metadata>
 <defs>
  <style type="text/css">*{stroke-linejoin: round; stroke-linecap: butt}</style>
 </defs>
 <g id="figure_1">
  <g id="patch_1">
   <path d="M 0 144 
L 158.4 144 
L 158.4 0 
L 0 0 
L 0 144 
z
" style="fill: none"/>
  </g>
  <g id="axes_1">
   <g id="patch_2">
    <path d="M 19.8 128.16 
L 142.56 128.16 
L 142.56 17.28 
L 19.8 17.28 
L 19.8 128.16 
z
" style="fill: none"/>
   </g>
   <g id="PolyCollection_1">
    <path d="M 38.321252 117.463498 
L 38.106748 117.463498 
L 38.075863 116.601689 
L 38.038829 115.73988 
L 37.995236 114.878071 
L 37.944852 114.016261 
L 37.887644 113.154452 
L 37.823789 112.292643 
L 37.753643 111.430833 
L 37.677685 110.569024 
L 37.596425 109.707215 
L 37.510271 108.845406 
L 37.419391 107.983596 
L 37.323551 107.121787 
L 37.221975 106.259978 
L 37.113229 105.398168 
L 36.995161 104.536359 
L 36.864899 103.67455 
L 36.718933 102.812741 
L 36.553269 101.950931 
L 36.363649 101.089122 
L 36.145827 100.227313 
L 35.895865 99.365503 
L 35.610435 98.503694 
L 35.287079 97.641885 
L 34.924424 96.780076 
L 34.52232 95.918266 
L 34.081898 95.056457 
L 33.605558 94.194648 
L 33.096893 93.332839 
L 32.560565 92.471029 
L 32.002168 91.60922 
L 31.428082 90.747411 
L 30.845343 89.885601 
L 30.261515 89.023792 
L 29.684582 88.161983 
L 29.122819 87.300174 
L 28.584641 86.438364 
L 28.078412 85.576555 
L 27.612195 84.714746 
L 27.193453 83.852936 
L 26.828712 82.991127 
L 26.523219 82.129318 
L 26.28062 81.267509 
L 26.102703 80.405699 
L 25.98925 79.54389 
L 25.938 78.682081 
L 25.944752 77.820271 
L 26.003589 76.958462 
L 26.107201 76.096653 
L 26.247274 75.234844 
L 26.414906 74.373034 
L 26.601013 73.511225 
L 26.796703 72.649416 
L 26.993601 71.787606 
L 27.18412 70.925797 
L 27.361693 70.063988 
L 27.520974 69.202179 
L 27.658016 68.340369 
L 27.770435 67.47856 
L 27.857552 66.616751 
L 27.920496 65.754942 
L 27.962249 64.893132 
L 27.987598 64.031323 
L 28.002985 63.169514 
L 28.016231 62.307704 
L 28.03614 61.445895 
L 28.072004 60.584086 
L 28.133041 59.722277 
L 28.227802 58.860467 
L 28.363623 57.998658 
L 28.54614 57.136849 
L 28.778936 56.275039 
L 29.063343 55.41323 
L 29.398397 54.551421 
L 29.780967 53.689612 
L 30.206013 52.827802 
L 30.666956 51.965993 
L 31.156113 51.104184 
L 31.665151 50.242374 
L 32.185531 49.380565 
L 32.708899 48.518756 
L 33.227413 47.656947 
L 33.733987 46.795137 
L 34.222455 45.933328 
L 34.687662 45.071519 
L 35.125497 44.209709 
L 35.53287 43.3479 
L 35.907664 42.486091 
L 36.248664 41.624282 
L 36.555473 40.762472 
L 36.828417 39.900663 
L 37.068457 39.038854 
L 37.277086 38.177045 
L 37.456231 37.315235 
L 37.608153 36.453426 
L 37.735347 35.591617 
L 37.840441 34.729807 
L 37.926107 33.867998 
L 37.994971 33.006189 
L 38.049549 32.14438 
L 38.378451 32.14438 
L 38.378451 32.14438 
L 38.433029 33.006189 
L 38.501893 33.867998 
L 38.587559 34.729807 
L 38.692653 35.591617 
L 38.819847 36.453426 
L 38.971769 37.315235 
L 39.150914 38.177045 
L 39.359543 39.038854 
L 39.599583 39.900663 
L 39.872527 40.762472 
L 40.179336 41.624282 
L 40.520336 42.486091 
L 40.89513 43.3479 
L 41.302503 44.209709 
L 41.740338 45.071519 
L 42.205545 45.933328 
L 42.694013 46.795137 
L 43.200587 47.656947 
L 43.719101 48.518756 
L 44.242469 49.380565 
L 44.762849 50.242374 
L 45.271887 51.104184 
L 45.761044 51.965993 
L 46.221987 52.827802 
L 46.647033 53.689612 
L 47.029603 54.551421 
L 47.364657 55.41323 
L 47.649064 56.275039 
L 47.88186 57.136849 
L 48.064377 57.998658 
L 48.200198 58.860467 
L 48.294959 59.722277 
L 48.355996 60.584086 
L 48.39186 61.445895 
L 48.411769 62.307704 
L 48.425015 63.169514 
L 48.440402 64.031323 
L 48.465751 64.893132 
L 48.507504 65.754942 
L 48.570448 66.616751 
L 48.657565 67.47856 
L 48.769984 68.340369 
L 48.907026 69.202179 
L 49.066307 70.063988 
L 49.24388 70.925797 
L 49.434399 71.787606 
L 49.631297 72.649416 
L 49.826987 73.511225 
L 50.013094 74.373034 
L 50.180726 75.234844 
L 50.320799 76.096653 
L 50.424411 76.958462 
L 50.483248 77.820271 
L 50.49 78.682081 
L 50.43875 79.54389 
L 50.325297 80.405699 
L 50.14738 81.267509 
L 49.904781 82.129318 
L 49.599288 82.991127 
L 49.234547 83.852936 
L 48.815805 84.714746 
L 48.349588 85.576555 
L 47.843359 86.438364 
L 47.305181 87.300174 
L 46.743418 88.161983 
L 46.166485 89.023792 
L 45.582657 89.885601 
L 44.999918 90.747411 
L 44.425832 91.60922 
L 43.867435 92.471029 
L 43.331107 93.332839 
L 42.822442 94.194648 
L 42.346102 95.056457 
L 41.90568 95.918266 
L 41.503576 96.780076 
L 41.140921 97.641885 
L 40.817565 98.503694 
L 40.532135 99.365503 
L 40.282173 100.227313 
L 40.064351 101.089122 
L 39.874731 101.950931 
L 39.709067 102.812741 
L 39.563101 103.67455 
L 39.432839 104.536359 
L 39.314771 105.398168 
L 39.206025 106.259978 
L 39.104449 107.121787 
L 39.008609 107.983596 
L 38.917729 108.845406 
L 38.831575 109.707215 
L 38.750315 110.569024 
L 38.674357 111.430833 
L 38.604211 112.292643 
L 38.540356 113.154452 
L 38.483148 114.016261 
L 38.432764 114.878071 
L 38.389171 115.73988 
L 38.352137 116.601689 
L 38.321252 117.463498 
z
" clip-path="url(#p096b59821c)" style="fill: #b69595; fill-opacity: 0.35"/>
   </g>
   <g id="PolyCollection_2">
    <path d="M 62.871371 114.066704 
L 62.660629 114.066704 
L 62.625202 113.148101 
L 62.580669 112.229498 
L 62.525596 111.310895 
L 62.45856 110.392292 
L 62.378203 109.473689 
L 62.283284 108.555086 
L 62.172724 107.636482 
L 62.045637 106.717879 
L 61.901338 105.799276 
L 61.739336 104.880673 
L 61.559291 103.96207 
L 61.360961 103.043467 
L 61.14412 102.124864 
L 60.908467 101.206261 
L 60.653533 100.287658 
L 60.37859 99.369055 
L 60.082593 98.450452 
L 59.764147 97.531849 
L 59.421538 96.613246 
L 59.05282 95.694642 
L 58.65598 94.776039 
L 58.229184 93.857436 
L 57.771083 92.938833 
L 57.281185 92.02023 
L 56.760238 91.101627 
L 56.210599 90.183024 
L 55.636543 89.264421 
L 55.044452 88.345818 
L 54.442845 87.427215 
L 53.842223 86.508612 
L 53.25471 85.590009 
L 52.6935 84.671406 
L 52.172151 83.752802 
L 51.703789 82.834199 
L 51.300284 81.915596 
L 50.971486 80.996993 
L 50.724611 80.07839 
L 50.563811 79.159787 
L 50.49 78.241184 
L 50.500922 77.322581 
L 50.591453 76.403978 
L 50.754099 75.485375 
L 50.979615 74.566772 
L 51.257679 73.648169 
L 51.577561 72.729566 
L 51.928709 71.810962 
L 52.301219 70.892359 
L 52.686163 69.973756 
L 53.075775 69.055153 
L 53.463507 68.13655 
L 53.843988 67.217947 
L 54.212922 66.299344 
L 54.56696 65.380741 
L 54.903595 64.462138 
L 55.22108 63.543535 
L 55.518402 62.624932 
L 55.795291 61.706329 
L 56.052267 60.787726 
L 56.290684 59.869122 
L 56.512739 58.950519 
L 56.721436 58.031916 
L 56.920461 57.113313 
L 57.113974 56.19471 
L 57.306316 55.276107 
L 57.501661 54.357504 
L 57.703648 53.438901 
L 57.915036 52.520298 
L 58.137432 51.601695 
L 58.371129 50.683092 
L 58.615086 49.764489 
L 58.867043 48.845886 
L 59.123771 47.927282 
L 59.381415 47.008679 
L 59.635895 46.090076 
L 59.883299 45.171473 
L 60.120236 44.25287 
L 60.344104 43.334267 
L 60.553237 42.415664 
L 60.746945 41.497061 
L 60.925432 40.578458 
L 61.089636 39.659855 
L 61.240995 38.741252 
L 61.381207 37.822649 
L 61.511986 36.904046 
L 61.634863 35.985442 
L 61.751037 35.066839 
L 61.861299 34.148236 
L 61.966019 33.229633 
L 62.065189 32.31103 
L 62.15851 31.392427 
L 62.245507 30.473824 
L 62.325641 29.555221 
L 62.398426 28.636618 
L 62.463509 27.718015 
L 62.520734 26.799412 
L 62.570166 25.880809 
L 62.612089 24.962206 
L 62.646981 24.043602 
L 62.675471 23.124999 
L 62.856529 23.124999 
L 62.856529 23.124999 
L 62.885019 24.043602 
L 62.919911 24.962206 
L 62.961834 25.880809 
L 63.011266 26.799412 
L 63.068491 27.718015 
L 63.133574 28.636618 
L 63.206359 29.555221 
L 63.286493 30.473824 
L 63.37349 31.392427 
L 63.466811 32.31103 
L 63.565981 33.229633 
L 63.670701 34.148236 
L 63.780963 35.066839 
L 63.897137 35.985442 
L 64.020014 36.904046 
L 64.150793 37.822649 
L 64.291005 38.741252 
L 64.442364 39.659855 
L 64.606568 40.578458 
L 64.785055 41.497061 
L 64.978763 42.415664 
L 65.187896 43.334267 
L 65.411764 44.25287 
L 65.648701 45.171473 
L 65.896105 46.090076 
L 66.150585 47.008679 
L 66.408229 47.927282 
L 66.664957 48.845886 
L 66.916914 49.764489 
L 67.160871 50.683092 
L 67.394568 51.601695 
L 67.616964 52.520298 
L 67.828352 53.438901 
L 68.030339 54.357504 
L 68.225684 55.276107 
L 68.418026 56.19471 
L 68.611539 57.113313 
L 68.810564 58.031916 
L 69.019261 58.950519 
L 69.241316 59.869122 
L 69.479733 60.787726 
L 69.736709 61.706329 
L 70.013598 62.624932 
L 70.31092 63.543535 
L 70.628405 64.462138 
L 70.96504 65.380741 
L 71.319078 66.299344 
L 71.688012 67.217947 
L 72.068493 68.13655 
L 72.456225 69.055153 
L 72.845837 69.973756 
L 73.230781 70.892359 
L 73.603291 71.810962 
L 73.954439 72.729566 
L 74.274321 73.648169 
L 74.552385 74.566772 
L 74.777901 75.485375 
L 74.940547 76.403978 
L 75.031078 77.322581 
L 75.042 78.241184 
L 74.968189 79.159787 
L 74.807389 80.07839 
L 74.560514 80.996993 
L 74.231716 81.915596 
L 73.828211 82.834199 
L 73.359849 83.752802 
L 72.8385 84.671406 
L 72.27729 85.590009 
L 71.689777 86.508612 
L 71.089155 87.427215 
L 70.487548 88.345818 
L 69.895457 89.264421 
L 69.321401 90.183024 
L 68.771762 91.101627 
L 68.250815 92.02023 
L 67.760917 92.938833 
L 67.302816 93.857436 
L 66.87602 94.776039 
L 66.47918 95.694642 
L 66.110462 96.613246 
L 65.767853 97.531849 
L 65.449407 98.450452 
L 65.15341 99.369055 
L 64.878467 100.287658 
L 64.623533 101.206261 
L 64.38788 102.124864 
L 64.171039 103.043467 
L 63.972709 103.96207 
L 63.792664 104.880673 
L 63.630662 105.799276 
L 63.486363 106.717879 
L 63.359276 107.636482 
L 63.248716 108.555086 
L 63.153797 109.473689 
L 63.07344 110.392292 
L 63.006404 111.310895 
L 62.951331 112.229498 
L 62.906798 113.148101 
L 62.871371 114.066704 
z
" clip-path="url(#p096b59821c)" style="fill: #74808c; fill-opacity: 0.35"/>
   </g>
   <g id="PolyCollection_3">
    <path d="M 99.683734 123.12 
L 99.504266 123.12 
L 99.480355 122.28725 
L 99.452132 121.454501 
L 99.419418 120.621751 
L 99.382188 119.789002 
L 99.340594 118.956252 
L 99.294983 118.123503 
L 99.245887 117.290753 
L 99.193996 116.458003 
L 99.140099 115.625254 
L 99.085007 114.792504 
L 99.029436 113.959755 
L 98.973887 113.127005 
L 98.918493 112.294255 
L 98.862883 111.461506 
L 98.80604 110.628756 
L 98.746199 109.796007 
L 98.680771 108.963257 
L 98.606328 108.130508 
L 98.51865 107.297758 
L 98.412839 106.465008 
L 98.283515 105.632259 
L 98.125068 104.799509 
L 97.931995 103.96676 
L 97.699264 103.13401 
L 97.422725 102.301261 
L 97.099522 101.468511 
L 96.728481 100.635761 
L 96.31045 99.803012 
L 95.848554 98.970262 
L 95.348342 98.137513 
L 94.817785 97.304763 
L 94.267134 96.472013 
L 93.708606 95.639264 
L 93.155908 94.806514 
L 92.623629 93.973765 
L 92.126516 93.141015 
L 91.678678 92.308266 
L 91.292785 91.475516 
L 90.979298 90.642766 
L 90.745806 89.810017 
L 90.59651 88.977267 
L 90.531899 88.144518 
L 90.54865 87.311768 
L 90.639752 86.479018 
L 90.794856 85.646269 
L 91.000813 84.813519 
L 91.242368 83.98077 
L 91.502967 83.14802 
L 91.765594 82.315271 
L 92.013618 81.482521 
L 92.231569 80.649771 
L 92.405817 79.817022 
L 92.52511 78.984272 
L 92.580963 78.151523 
L 92.567878 77.318773 
L 92.483409 76.486024 
L 92.328083 75.653274 
L 92.105192 74.820524 
L 91.820495 73.987775 
L 91.481857 73.155025 
L 91.098847 72.322276 
L 90.682338 71.489526 
L 90.244114 70.656776 
L 89.796522 69.824027 
L 89.352161 68.991277 
L 88.923607 68.158528 
L 88.523188 67.325778 
L 88.162773 66.493029 
L 87.853571 65.660279 
L 87.605927 64.827529 
L 87.4291 63.99478 
L 87.331015 63.16203 
L 87.318 62.329281 
L 87.394522 61.496531 
L 87.562932 60.663782 
L 87.823255 59.831032 
L 88.173054 58.998282 
L 88.607389 58.165533 
L 89.118892 57.332783 
L 89.697972 56.500034 
L 90.333146 55.667284 
L 91.011474 54.834534 
L 91.71909 54.001785 
L 92.441774 53.169035 
L 93.165536 52.336286 
L 93.87718 51.503536 
L 94.56479 50.670787 
L 95.218127 49.838037 
L 95.828906 49.005287 
L 96.390952 48.172538 
L 96.90022 47.339788 
L 97.354718 46.507039 
L 97.754313 45.674289 
L 98.100484 44.84154 
L 98.396015 44.00879 
L 98.644675 43.17604 
L 98.850898 42.343291 
L 99.019485 41.510541 
L 99.155342 40.677792 
L 100.032658 40.677792 
L 100.032658 40.677792 
L 100.168515 41.510541 
L 100.337102 42.343291 
L 100.543325 43.17604 
L 100.791985 44.00879 
L 101.087516 44.84154 
L 101.433687 45.674289 
L 101.833282 46.507039 
L 102.28778 47.339788 
L 102.797048 48.172538 
L 103.359094 49.005287 
L 103.969873 49.838037 
L 104.62321 50.670787 
L 105.31082 51.503536 
L 106.022464 52.336286 
L 106.746226 53.169035 
L 107.46891 54.001785 
L 108.176526 54.834534 
L 108.854854 55.667284 
L 109.490028 56.500034 
L 110.069108 57.332783 
L 110.580611 58.165533 
L 111.014946 58.998282 
L 111.364745 59.831032 
L 111.625068 60.663782 
L 111.793478 61.496531 
L 111.87 62.329281 
L 111.856985 63.16203 
L 111.7589 63.99478 
L 111.582073 64.827529 
L 111.334429 65.660279 
L 111.025227 66.493029 
L 110.664812 67.325778 
L 110.264393 68.158528 
L 109.835839 68.991277 
L 109.391478 69.824027 
L 108.943886 70.656776 
L 108.505662 71.489526 
L 108.089153 72.322276 
L 107.706143 73.155025 
L 107.367505 73.987775 
L 107.082808 74.820524 
L 106.859917 75.653274 
L 106.704591 76.486024 
L 106.620122 77.318773 
L 106.607037 78.151523 
L 106.66289 78.984272 
L 106.782183 79.817022 
L 106.956431 80.649771 
L 107.174382 81.482521 
L 107.422406 82.315271 
L 107.685033 83.14802 
L 107.945632 83.98077 
L 108.187187 84.813519 
L 108.393144 85.646269 
L 108.548248 86.479018 
L 108.63935 87.311768 
L 108.656101 88.144518 
L 108.59149 88.977267 
L 108.442194 89.810017 
L 108.208702 90.642766 
L 107.895215 91.475516 
L 107.509322 92.308266 
L 107.061484 93.141015 
L 106.564371 93.973765 
L 106.032092 94.806514 
L 105.479394 95.639264 
L 104.920866 96.472013 
L 104.370215 97.304763 
L 103.839658 98.137513 
L 103.339446 98.970262 
L 102.87755 99.803012 
L 102.459519 100.635761 
L 102.088478 101.468511 
L 101.765275 102.301261 
L 101.488736 103.13401 
L 101.256005 103.96676 
L 101.062932 104.799509 
L 100.904485 105.632259 
L 100.775161 106.465008 
L 100.66935 107.297758 
L 100.581672 108.130508 
L 100.507229 108.963257 
L 100.441801 109.796007 
L 100.38196 110.628756 
L 100.325117 111.461506 
L 100.269507 112.294255 
L 100.214113 113.127005 
L 100.158564 113.959755 
L 100.102993 114.792504 
L 100.047901 115.625254 
L 99.994004 116.458003 
L 99.942113 117.290753 
L 99.893017 118.123503 
L 99.847406 118.956252 
L 99.805812 119.789002 
L 99.768582 120.621751 
L 99.735868 121.454501 
L 99.707645 122.28725 
L 99.683734 123.12 
z
" clip-path="url(#p096b59821c)" style="fill: #b69595; fill-opacity: 0.35"/>
   </g>
   <g id="PolyCollection_4">
    <path d="M 124.313179 114.871703 
L 123.978821 114.871703 
L 123.923459 113.936838 
L 123.853876 113.001972 
L 123.767734 112.067106 
L 123.662646 111.132241 
L 123.53626 110.197375 
L 123.386331 109.262509 
L 123.2108 108.327644 
L 123.007862 107.392778 
L 122.776022 106.457912 
L 122.514143 105.523047 
L 122.221482 104.588181 
L 121.897716 103.653315 
L 121.542975 102.718449 
L 121.157867 101.783584 
L 120.743516 100.848718 
L 120.301606 99.913852 
L 119.834424 98.978987 
L 119.344889 98.044121 
L 118.836577 97.109255 
L 118.313698 96.17439 
L 117.781041 95.239524 
L 117.243874 94.304658 
L 116.707793 93.369793 
L 116.178539 92.434927 
L 115.661803 91.500061 
L 115.163025 90.565195 
L 114.687227 89.63033 
L 114.238885 88.695464 
L 113.821868 87.760598 
L 113.439433 86.825733 
L 113.094273 85.890867 
L 112.788609 84.956001 
L 112.524292 84.021136 
L 112.302894 83.08627 
L 112.125766 82.151404 
L 111.99405 81.216539 
L 111.908623 80.281673 
L 111.87 79.346807 
L 111.878195 78.411941 
L 111.932564 77.477076 
L 112.031663 76.54221 
L 112.173137 75.607344 
L 112.353674 74.672479 
L 112.569019 73.737613 
L 112.814071 72.802747 
L 113.083044 71.867882 
L 113.369692 70.933016 
L 113.667567 69.99815 
L 113.970307 69.063285 
L 114.271918 68.128419 
L 114.567049 67.193553 
L 114.851232 66.258687 
L 115.121092 65.323822 
L 115.374489 64.388956 
L 115.610622 63.45409 
L 115.830042 62.519225 
L 116.034609 61.584359 
L 116.227356 60.649493 
L 116.412275 59.714628 
L 116.594029 58.779762 
L 116.777611 57.844896 
L 116.967954 56.910031 
L 117.16955 55.975165 
L 117.386093 55.040299 
L 117.620179 54.105434 
L 117.873109 53.170568 
L 118.144799 52.235702 
L 118.43381 51.300836 
L 118.737495 50.365971 
L 119.052243 49.431105 
L 119.373783 48.496239 
L 119.697534 47.561374 
L 120.018941 46.626508 
L 120.333787 45.691642 
L 120.63843 44.756777 
L 120.929985 43.821911 
L 121.206395 42.887045 
L 121.466447 41.95218 
L 121.709694 41.017314 
L 121.93634 40.082448 
L 122.147076 39.147582 
L 122.34291 38.212717 
L 122.524996 37.277851 
L 122.694485 36.342985 
L 122.852407 35.40812 
L 122.999598 34.473254 
L 123.136656 33.538388 
L 123.26395 32.603523 
L 123.381655 31.668657 
L 123.489803 30.733791 
L 123.58836 29.798926 
L 123.677291 28.86406 
L 123.756627 27.929194 
L 123.82651 26.994328 
L 123.887226 26.059463 
L 123.939209 25.124597 
L 123.983036 24.189731 
L 124.019403 23.254866 
L 124.049088 22.32 
L 124.242912 22.32 
L 124.242912 22.32 
L 124.272597 23.254866 
L 124.308964 24.189731 
L 124.352791 25.124597 
L 124.404774 26.059463 
L 124.46549 26.994328 
L 124.535373 27.929194 
L 124.614709 28.86406 
L 124.70364 29.798926 
L 124.802197 30.733791 
L 124.910345 31.668657 
L 125.02805 32.603523 
L 125.155344 33.538388 
L 125.292402 34.473254 
L 125.439593 35.40812 
L 125.597515 36.342985 
L 125.767004 37.277851 
L 125.94909 38.212717 
L 126.144924 39.147582 
L 126.35566 40.082448 
L 126.582306 41.017314 
L 126.825553 41.95218 
L 127.085605 42.887045 
L 127.362015 43.821911 
L 127.65357 44.756777 
L 127.958213 45.691642 
L 128.273059 46.626508 
L 128.594466 47.561374 
L 128.918217 48.496239 
L 129.239757 49.431105 
L 129.554505 50.365971 
L 129.85819 51.300836 
L 130.147201 52.235702 
L 130.418891 53.170568 
L 130.671821 54.105434 
L 130.905907 55.040299 
L 131.12245 55.975165 
L 131.324046 56.910031 
L 131.514389 57.844896 
L 131.697971 58.779762 
L 131.879725 59.714628 
L 132.064644 60.649493 
L 132.257391 61.584359 
L 132.461958 62.519225 
L 132.681378 63.45409 
L 132.917511 64.388956 
L 133.170908 65.323822 
L 133.440768 66.258687 
L 133.724951 67.193553 
L 134.020082 68.128419 
L 134.321693 69.063285 
L 134.624433 69.99815 
L 134.922308 70.933016 
L 135.208956 71.867882 
L 135.477929 72.802747 
L 135.722981 73.737613 
L 135.938326 74.672479 
L 136.118863 75.607344 
L 136.260337 76.54221 
L 136.359436 77.477076 
L 136.413805 78.411941 
L 136.422 79.346807 
L 136.383377 80.281673 
L 136.29795 81.216539 
L 136.166234 82.151404 
L 135.989106 83.08627 
L 135.767708 84.021136 
L 135.503391 84.956001 
L 135.197727 85.890867 
L 134.852567 86.825733 
L 134.470132 87.760598 
L 134.053115 88.695464 
L 133.604773 89.63033 
L 133.128975 90.565195 
L 132.630197 91.500061 
L 132.113461 92.434927 
L 131.584207 93.369793 
L 131.048126 94.304658 
L 130.510959 95.239524 
L 129.978302 96.17439 
L 129.455423 97.109255 
L 128.947111 98.044121 
L 128.457576 98.978987 
L 127.990394 99.913852 
L 127.548484 100.848718 
L 127.134133 101.783584 
L 126.749025 102.718449 
L 126.394284 103.653315 
L 126.070518 104.588181 
L 125.777857 105.523047 
L 125.515978 106.457912 
L 125.284138 107.392778 
L 125.0812 108.327644 
L 124.905669 109.262509 
L 124.75574 110.197375 
L 124.629354 111.132241 
L 124.524266 112.067106 
L 124.438124 113.001972 
L 124.368541 113.936838 
L 124.313179 114.871703 
z
" clip-path="url(#p096b59821c)" style="fill: #74808c; fill-opacity: 0.35"/>
   </g>
   <g id="patch_3">
    <path d="M 25.938 88.106983 
L 50.49 88.106983 
L 50.49 71.620304 
L 25.938 71.620304 
L 25.938 88.106983 
z
" clip-path="url(#p096b59821c)" style="fill: none"/>
   </g>
   <g id="patch_4">
    <path d="M 87.318 88.106983 
L 111.87 88.106983 
L 111.87 73.614236 
L 87.318 73.614236 
L 87.318 88.106983 
z
" clip-path="url(#p096b59821c)" style="fill: none"/>
   </g>
   <g id="patch_5">
    <path d="M 50.49 88.106983 
L 75.042 88.106983 
L 75.042 72.523417 
L 50.49 72.523417 
L 50.49 88.106983 
z
" clip-path="url(#p096b59821c)" style="fill: none"/>
   </g>
   <g id="patch_6">
    <path d="M 111.87 88.106983 
L 136.422 88.106983 
L 136.422 73.325823 
L 111.87 73.325823 
L 111.87 88.106983 
z
" clip-path="url(#p096b59821c)" style="fill: none"/>
   </g>
   <g id="patch_7">
    <path d="M 50.49 88.106983 
L 50.49 88.106983 
L 50.49 88.106983 
L 50.49 88.106983 
z
" clip-path="url(#p096b59821c)" style="fill: #3274a1"/>
   </g>
   <g id="patch_8">
    <path d="M 50.49 88.106983 
L 50.49 88.106983 
L 50.49 88.106983 
L 50.49 88.106983 
z
" clip-path="url(#p096b59821c)" style="fill: #e1812c"/>
   </g>
   <g id="matplotlib.axis_1">
    <g id="xtick_1">
     <g id="line2d_1">
      <defs>
       <path id="me75fa4fc9d" d="M 0 0 
L 0 3.5 
" style="stroke: #000000; stroke-width: 1.5"/>
      </defs>
      <g>
       <use xlink:href="#me75fa4fc9d" x="50.49" y="128.16" style="stroke: #000000; stroke-width: 1.5"/>
      </g>
     </g>
     <g id="text_1">
      <!-- HC -->
      <g transform="translate(43.268125 142.317813) scale(0.1 -0.1)">
       <defs>
        <path id="Arial-BoldMT-48" d="M 469 0 
L 469 4581 
L 1394 4581 
L 1394 2778 
L 3206 2778 
L 3206 4581 
L 4131 4581 
L 4131 0 
L 3206 0 
L 3206 2003 
L 1394 2003 
L 1394 0 
L 469 0 
z
" transform="scale(0.015625)"/>
        <path id="Arial-BoldMT-43" d="M 3397 1684 
L 4294 1400 
Q 4088 650 3608 286 
Q 3128 -78 2391 -78 
Q 1478 -78 890 545 
Q 303 1169 303 2250 
Q 303 3394 893 4026 
Q 1484 4659 2447 4659 
Q 3288 4659 3813 4163 
Q 4125 3869 4281 3319 
L 3366 3100 
Q 3284 3456 3026 3662 
Q 2769 3869 2400 3869 
Q 1891 3869 1573 3503 
Q 1256 3138 1256 2319 
Q 1256 1450 1568 1081 
Q 1881 713 2381 713 
Q 2750 713 3015 947 
Q 3281 1181 3397 1684 
z
" transform="scale(0.015625)"/>
       </defs>
       <use xlink:href="#Arial-BoldMT-48"/>
       <use xlink:href="#Arial-BoldMT-43" x="72.216797"/>
      </g>
     </g>
    </g>
    <g id="xtick_2">
     <g id="line2d_2">
      <g>
       <use xlink:href="#me75fa4fc9d" x="111.87" y="128.16" style="stroke: #000000; stroke-width: 1.5"/>
      </g>
     </g>
     <g id="text_2">
      <!-- ND -->
      <g transform="translate(104.648125 142.317813) scale(0.1 -0.1)">
       <defs>
        <path id="Arial-BoldMT-4e" d="M 475 0 
L 475 4581 
L 1375 4581 
L 3250 1522 
L 3250 4581 
L 4109 4581 
L 4109 0 
L 3181 0 
L 1334 2988 
L 1334 0 
L 475 0 
z
" transform="scale(0.015625)"/>
        <path id="Arial-BoldMT-44" d="M 463 4581 
L 2153 4581 
Q 2725 4581 3025 4494 
Q 3428 4375 3715 4072 
Q 4003 3769 4153 3330 
Q 4303 2891 4303 2247 
Q 4303 1681 4163 1272 
Q 3991 772 3672 463 
Q 3431 228 3022 97 
Q 2716 0 2203 0 
L 463 0 
L 463 4581 
z
M 1388 3806 
L 1388 772 
L 2078 772 
Q 2466 772 2638 816 
Q 2863 872 3011 1006 
Q 3159 1141 3253 1448 
Q 3347 1756 3347 2288 
Q 3347 2819 3253 3103 
Q 3159 3388 2990 3547 
Q 2822 3706 2563 3763 
Q 2369 3806 1803 3806 
L 1388 3806 
z
" transform="scale(0.015625)"/>
       </defs>
       <use xlink:href="#Arial-BoldMT-4e"/>
       <use xlink:href="#Arial-BoldMT-44" x="72.216797"/>
      </g>
     </g>
    </g>
   </g>
   <g id="matplotlib.axis_2">
    <g id="ytick_1">
     <g id="line2d_3">
      <defs>
       <path id="mc04d4d98be" d="M 0 0 
L -3.5 0 
" style="stroke: #000000; stroke-width: 1.5"/>
      </defs>
      <g>
       <use xlink:href="#mc04d4d98be" x="19.8" y="88.106983" style="stroke: #000000; stroke-width: 1.5"/>
      </g>
     </g>
     <g id="text_3">
      <!-- 0.0 -->
      <g transform="translate(-1.1 91.685889) scale(0.1 -0.1)">
       <defs>
        <path id="Arial-BoldMT-30" d="M 1756 4600 
Q 2422 4600 2797 4125 
Q 3244 3563 3244 2259 
Q 3244 959 2794 391 
Q 2422 -78 1756 -78 
Q 1088 -78 678 436 
Q 269 950 269 2269 
Q 269 3563 719 4131 
Q 1091 4600 1756 4600 
z
M 1756 3872 
Q 1597 3872 1472 3770 
Q 1347 3669 1278 3406 
Q 1188 3066 1188 2259 
Q 1188 1453 1269 1151 
Q 1350 850 1473 750 
Q 1597 650 1756 650 
Q 1916 650 2041 751 
Q 2166 853 2234 1116 
Q 2325 1453 2325 2259 
Q 2325 3066 2244 3367 
Q 2163 3669 2039 3770 
Q 1916 3872 1756 3872 
z
" transform="scale(0.015625)"/>
        <path id="Arial-BoldMT-2e" d="M 459 0 
L 459 878 
L 1338 878 
L 1338 0 
L 459 0 
z
" transform="scale(0.015625)"/>
       </defs>
       <use xlink:href="#Arial-BoldMT-30"/>
       <use xlink:href="#Arial-BoldMT-2e" x="55.615234"/>
       <use xlink:href="#Arial-BoldMT-30" x="83.398438"/>
      </g>
     </g>
    </g>
    <g id="ytick_2">
     <g id="line2d_4">
      <g>
       <use xlink:href="#mc04d4d98be" x="19.8" y="43.763503" style="stroke: #000000; stroke-width: 1.5"/>
      </g>
     </g>
     <g id="text_4">
      <!-- 0.5 -->
      <g transform="translate(-1.1 47.342409) scale(0.1 -0.1)">
       <defs>
        <path id="Arial-BoldMT-35" d="M 284 1178 
L 1159 1269 
Q 1197 972 1381 798 
Q 1566 625 1806 625 
Q 2081 625 2272 848 
Q 2463 1072 2463 1522 
Q 2463 1944 2273 2155 
Q 2084 2366 1781 2366 
Q 1403 2366 1103 2031 
L 391 2134 
L 841 4519 
L 3163 4519 
L 3163 3697 
L 1506 3697 
L 1369 2919 
Q 1663 3066 1969 3066 
Q 2553 3066 2959 2641 
Q 3366 2216 3366 1538 
Q 3366 972 3038 528 
Q 2591 -78 1797 -78 
Q 1163 -78 763 262 
Q 363 603 284 1178 
z
" transform="scale(0.015625)"/>
       </defs>
       <use xlink:href="#Arial-BoldMT-30"/>
       <use xlink:href="#Arial-BoldMT-2e" x="55.615234"/>
       <use xlink:href="#Arial-BoldMT-35" x="83.398438"/>
      </g>
     </g>
    </g>
    <g id="text_5">
     <!--  MB score (a.u.) -->
     <g transform="translate(-7.204688 109.946562) rotate(-90) scale(0.1 -0.1)">
      <defs>
       <path id="Arial-BoldMT-20" transform="scale(0.015625)"/>
       <path id="Arial-BoldMT-4d" d="M 453 0 
L 453 4581 
L 1838 4581 
L 2669 1456 
L 3491 4581 
L 4878 4581 
L 4878 0 
L 4019 0 
L 4019 3606 
L 3109 0 
L 2219 0 
L 1313 3606 
L 1313 0 
L 453 0 
z
" transform="scale(0.015625)"/>
       <path id="Arial-BoldMT-42" d="M 469 4581 
L 2300 4581 
Q 2844 4581 3111 4536 
Q 3378 4491 3589 4347 
Q 3800 4203 3940 3964 
Q 4081 3725 4081 3428 
Q 4081 3106 3907 2837 
Q 3734 2569 3438 2434 
Q 3856 2313 4081 2019 
Q 4306 1725 4306 1328 
Q 4306 1016 4161 720 
Q 4016 425 3764 248 
Q 3513 72 3144 31 
Q 2913 6 2028 0 
L 469 0 
L 469 4581 
z
M 1394 3819 
L 1394 2759 
L 2000 2759 
Q 2541 2759 2672 2775 
Q 2909 2803 3045 2939 
Q 3181 3075 3181 3297 
Q 3181 3509 3064 3642 
Q 2947 3775 2716 3803 
Q 2578 3819 1925 3819 
L 1394 3819 
z
M 1394 1997 
L 1394 772 
L 2250 772 
Q 2750 772 2884 800 
Q 3091 838 3220 983 
Q 3350 1128 3350 1372 
Q 3350 1578 3250 1722 
Q 3150 1866 2961 1931 
Q 2772 1997 2141 1997 
L 1394 1997 
z
" transform="scale(0.015625)"/>
       <path id="Arial-BoldMT-73" d="M 150 947 
L 1031 1081 
Q 1088 825 1259 692 
Q 1431 559 1741 559 
Q 2081 559 2253 684 
Q 2369 772 2369 919 
Q 2369 1019 2306 1084 
Q 2241 1147 2013 1200 
Q 950 1434 666 1628 
Q 272 1897 272 2375 
Q 272 2806 612 3100 
Q 953 3394 1669 3394 
Q 2350 3394 2681 3172 
Q 3013 2950 3138 2516 
L 2309 2363 
Q 2256 2556 2107 2659 
Q 1959 2763 1684 2763 
Q 1338 2763 1188 2666 
Q 1088 2597 1088 2488 
Q 1088 2394 1175 2328 
Q 1294 2241 1995 2081 
Q 2697 1922 2975 1691 
Q 3250 1456 3250 1038 
Q 3250 581 2869 253 
Q 2488 -75 1741 -75 
Q 1063 -75 667 200 
Q 272 475 150 947 
z
" transform="scale(0.015625)"/>
       <path id="Arial-BoldMT-63" d="M 3353 2338 
L 2488 2181 
Q 2444 2441 2289 2572 
Q 2134 2703 1888 2703 
Q 1559 2703 1364 2476 
Q 1169 2250 1169 1719 
Q 1169 1128 1367 884 
Q 1566 641 1900 641 
Q 2150 641 2309 783 
Q 2469 925 2534 1272 
L 3397 1125 
Q 3263 531 2881 228 
Q 2500 -75 1859 -75 
Q 1131 -75 698 384 
Q 266 844 266 1656 
Q 266 2478 700 2936 
Q 1134 3394 1875 3394 
Q 2481 3394 2839 3133 
Q 3197 2872 3353 2338 
z
" transform="scale(0.015625)"/>
       <path id="Arial-BoldMT-6f" d="M 256 1706 
Q 256 2144 472 2553 
Q 688 2963 1083 3178 
Q 1478 3394 1966 3394 
Q 2719 3394 3200 2905 
Q 3681 2416 3681 1669 
Q 3681 916 3195 420 
Q 2709 -75 1972 -75 
Q 1516 -75 1102 131 
Q 688 338 472 736 
Q 256 1134 256 1706 
z
M 1156 1659 
Q 1156 1166 1390 903 
Q 1625 641 1969 641 
Q 2313 641 2545 903 
Q 2778 1166 2778 1666 
Q 2778 2153 2545 2415 
Q 2313 2678 1969 2678 
Q 1625 2678 1390 2415 
Q 1156 2153 1156 1659 
z
" transform="scale(0.015625)"/>
       <path id="Arial-BoldMT-72" d="M 1300 0 
L 422 0 
L 422 3319 
L 1238 3319 
L 1238 2847 
Q 1447 3181 1614 3287 
Q 1781 3394 1994 3394 
Q 2294 3394 2572 3228 
L 2300 2463 
Q 2078 2606 1888 2606 
Q 1703 2606 1575 2504 
Q 1447 2403 1373 2137 
Q 1300 1872 1300 1025 
L 1300 0 
z
" transform="scale(0.015625)"/>
       <path id="Arial-BoldMT-65" d="M 2381 1056 
L 3256 909 
Q 3088 428 2723 176 
Q 2359 -75 1813 -75 
Q 947 -75 531 491 
Q 203 944 203 1634 
Q 203 2459 634 2926 
Q 1066 3394 1725 3394 
Q 2466 3394 2894 2905 
Q 3322 2416 3303 1406 
L 1103 1406 
Q 1113 1016 1316 798 
Q 1519 581 1822 581 
Q 2028 581 2168 693 
Q 2309 806 2381 1056 
z
M 2431 1944 
Q 2422 2325 2234 2523 
Q 2047 2722 1778 2722 
Q 1491 2722 1303 2513 
Q 1116 2303 1119 1944 
L 2431 1944 
z
" transform="scale(0.015625)"/>
       <path id="Arial-BoldMT-28" d="M 1916 -1347 
L 1313 -1347 
Q 834 -625 584 153 
Q 334 931 334 1659 
Q 334 2563 644 3369 
Q 913 4069 1325 4659 
L 1925 4659 
Q 1497 3713 1336 3048 
Q 1175 2384 1175 1641 
Q 1175 1128 1270 590 
Q 1366 53 1531 -431 
Q 1641 -750 1916 -1347 
z
" transform="scale(0.015625)"/>
       <path id="Arial-BoldMT-61" d="M 1116 2306 
L 319 2450 
Q 453 2931 781 3162 
Q 1109 3394 1756 3394 
Q 2344 3394 2631 3255 
Q 2919 3116 3036 2902 
Q 3153 2688 3153 2116 
L 3144 1091 
Q 3144 653 3186 445 
Q 3228 238 3344 0 
L 2475 0 
Q 2441 88 2391 259 
Q 2369 338 2359 363 
Q 2134 144 1878 34 
Q 1622 -75 1331 -75 
Q 819 -75 523 203 
Q 228 481 228 906 
Q 228 1188 362 1408 
Q 497 1628 739 1745 
Q 981 1863 1438 1950 
Q 2053 2066 2291 2166 
L 2291 2253 
Q 2291 2506 2166 2614 
Q 2041 2722 1694 2722 
Q 1459 2722 1328 2630 
Q 1197 2538 1116 2306 
z
M 2291 1594 
Q 2122 1538 1756 1459 
Q 1391 1381 1278 1306 
Q 1106 1184 1106 997 
Q 1106 813 1243 678 
Q 1381 544 1594 544 
Q 1831 544 2047 700 
Q 2206 819 2256 991 
Q 2291 1103 2291 1419 
L 2291 1594 
z
" transform="scale(0.015625)"/>
       <path id="Arial-BoldMT-75" d="M 2644 0 
L 2644 497 
Q 2463 231 2167 78 
Q 1872 -75 1544 -75 
Q 1209 -75 943 72 
Q 678 219 559 484 
Q 441 750 441 1219 
L 441 3319 
L 1319 3319 
L 1319 1794 
Q 1319 1094 1367 936 
Q 1416 778 1544 686 
Q 1672 594 1869 594 
Q 2094 594 2272 717 
Q 2450 841 2515 1023 
Q 2581 1206 2581 1919 
L 2581 3319 
L 3459 3319 
L 3459 0 
L 2644 0 
z
" transform="scale(0.015625)"/>
       <path id="Arial-BoldMT-29" d="M 216 -1347 
Q 475 -791 581 -494 
Q 688 -197 778 190 
Q 869 578 912 926 
Q 956 1275 956 1641 
Q 956 2384 797 3048 
Q 638 3713 209 4659 
L 806 4659 
Q 1278 3988 1539 3234 
Q 1800 2481 1800 1706 
Q 1800 1053 1594 306 
Q 1359 -531 822 -1347 
L 216 -1347 
z
" transform="scale(0.015625)"/>
      </defs>
      <use xlink:href="#Arial-BoldMT-20"/>
      <use xlink:href="#Arial-BoldMT-4d" x="27.783203"/>
      <use xlink:href="#Arial-BoldMT-42" x="111.083984"/>
      <use xlink:href="#Arial-BoldMT-20" x="183.300781"/>
      <use xlink:href="#Arial-BoldMT-73" x="211.083984"/>
      <use xlink:href="#Arial-BoldMT-63" x="266.699219"/>
      <use xlink:href="#Arial-BoldMT-6f" x="322.314453"/>
      <use xlink:href="#Arial-BoldMT-72" x="383.398438"/>
      <use xlink:href="#Arial-BoldMT-65" x="422.314453"/>
      <use xlink:href="#Arial-BoldMT-20" x="477.929688"/>
      <use xlink:href="#Arial-BoldMT-28" x="505.712891"/>
      <use xlink:href="#Arial-BoldMT-61" x="539.013672"/>
      <use xlink:href="#Arial-BoldMT-2e" x="594.628906"/>
      <use xlink:href="#Arial-BoldMT-75" x="622.412109"/>
      <use xlink:href="#Arial-BoldMT-2e" x="683.496094"/>
      <use xlink:href="#Arial-BoldMT-29" x="711.279297"/>
     </g>
    </g>
   </g>
   <g id="PathCollection_1">
    <defs>
     <path id="C0_0_3a99ec9c43" d="M 0 3.5 
C 0.928211 3.5 1.81853 3.131218 2.474874 2.474874 
C 3.131218 1.81853 3.5 0.928211 3.5 -0 
C 3.5 -0.928211 3.131218 -1.81853 2.474874 -2.474874 
C 1.81853 -3.131218 0.928211 -3.5 0 -3.5 
C -0.928211 -3.5 -1.81853 -3.131218 -2.474874 -2.474874 
C -3.131218 -1.81853 -3.5 -0.928211 -3.5 0 
C -3.5 0.928211 -3.131218 1.81853 -2.474874 2.474874 
C -1.81853 3.131218 -0.928211 3.5 0 3.5 
z
"/>
    </defs>
    <g clip-path="url(#p096b59821c)">
     <use xlink:href="#C0_0_3a99ec9c43" x="36.67963" y="72.14333" style="fill: #bc8f8f; fill-opacity: 0.7"/>
    </g>
    <g clip-path="url(#p096b59821c)">
     <use xlink:href="#C0_0_3a99ec9c43" x="41.1203" y="59.727156" style="fill: #bc8f8f; fill-opacity: 0.7"/>
    </g>
    <g clip-path="url(#p096b59821c)">
     <use xlink:href="#C0_0_3a99ec9c43" x="36.99265" y="88.106983" style="fill: #bc8f8f; fill-opacity: 0.7"/>
    </g>
    <g clip-path="url(#p096b59821c)">
     <use xlink:href="#C0_0_3a99ec9c43" x="38.818772" y="56.179677" style="fill: #bc8f8f; fill-opacity: 0.7"/>
    </g>
    <g clip-path="url(#p096b59821c)">
     <use xlink:href="#C0_0_3a99ec9c43" x="38.335057" y="70.369591" style="fill: #bc8f8f; fill-opacity: 0.7"/>
    </g>
    <g clip-path="url(#p096b59821c)">
     <use xlink:href="#C0_0_3a99ec9c43" x="40.957637" y="75.690809" style="fill: #bc8f8f; fill-opacity: 0.7"/>
    </g>
    <g clip-path="url(#p096b59821c)">
     <use xlink:href="#C0_0_3a99ec9c43" x="37.465307" y="59.727156" style="fill: #bc8f8f; fill-opacity: 0.7"/>
    </g>
    <g clip-path="url(#p096b59821c)">
     <use xlink:href="#C0_0_3a99ec9c43" x="39.61792" y="49.08472" style="fill: #bc8f8f; fill-opacity: 0.7"/>
    </g>
    <g clip-path="url(#p096b59821c)">
     <use xlink:href="#C0_0_3a99ec9c43" x="37.285861" y="50.85846" style="fill: #bc8f8f; fill-opacity: 0.7"/>
    </g>
    <g clip-path="url(#p096b59821c)">
     <use xlink:href="#C0_0_3a99ec9c43" x="39.381401" y="63.274634" style="fill: #bc8f8f; fill-opacity: 0.7"/>
    </g>
    <g clip-path="url(#p096b59821c)">
     <use xlink:href="#C0_0_3a99ec9c43" x="35.832039" y="82.785765" style="fill: #bc8f8f; fill-opacity: 0.7"/>
    </g>
    <g clip-path="url(#p096b59821c)">
     <use xlink:href="#C0_0_3a99ec9c43" x="39.703719" y="93.428201" style="fill: #bc8f8f; fill-opacity: 0.7"/>
    </g>
    <g clip-path="url(#p096b59821c)">
     <use xlink:href="#C0_0_3a99ec9c43" x="36.37043" y="56.179677" style="fill: #bc8f8f; fill-opacity: 0.7"/>
    </g>
    <g clip-path="url(#p096b59821c)">
     <use xlink:href="#C0_0_3a99ec9c43" x="40.220573" y="70.369591" style="fill: #bc8f8f; fill-opacity: 0.7"/>
    </g>
    <g clip-path="url(#p096b59821c)">
     <use xlink:href="#C0_0_3a99ec9c43" x="38.378984" y="70.369591" style="fill: #bc8f8f; fill-opacity: 0.7"/>
    </g>
    <g clip-path="url(#p096b59821c)">
     <use xlink:href="#C0_0_3a99ec9c43" x="39.646769" y="88.106983" style="fill: #bc8f8f; fill-opacity: 0.7"/>
    </g>
    <g clip-path="url(#p096b59821c)">
     <use xlink:href="#C0_0_3a99ec9c43" x="39.527843" y="59.727156" style="fill: #bc8f8f; fill-opacity: 0.7"/>
    </g>
    <g clip-path="url(#p096b59821c)">
     <use xlink:href="#C0_0_3a99ec9c43" x="36.222747" y="59.727156" style="fill: #bc8f8f; fill-opacity: 0.7"/>
    </g>
    <g clip-path="url(#p096b59821c)">
     <use xlink:href="#C0_0_3a99ec9c43" x="35.920189" y="54.405938" style="fill: #bc8f8f; fill-opacity: 0.7"/>
    </g>
    <g clip-path="url(#p096b59821c)">
     <use xlink:href="#C0_0_3a99ec9c43" x="35.436535" y="79.238287" style="fill: #bc8f8f; fill-opacity: 0.7"/>
    </g>
    <g clip-path="url(#p096b59821c)">
     <use xlink:href="#C0_0_3a99ec9c43" x="37.76675" y="84.559505" style="fill: #bc8f8f; fill-opacity: 0.7"/>
    </g>
    <g clip-path="url(#p096b59821c)">
     <use xlink:href="#C0_0_3a99ec9c43" x="39.099733" y="81.012026" style="fill: #bc8f8f; fill-opacity: 0.7"/>
    </g>
    <g clip-path="url(#p096b59821c)">
     <use xlink:href="#C0_0_3a99ec9c43" x="39.209396" y="54.405938" style="fill: #bc8f8f; fill-opacity: 0.7"/>
    </g>
    <g clip-path="url(#p096b59821c)">
     <use xlink:href="#C0_0_3a99ec9c43" x="36.453752" y="45.537242" style="fill: #bc8f8f; fill-opacity: 0.7"/>
    </g>
    <g clip-path="url(#p096b59821c)">
     <use xlink:href="#C0_0_3a99ec9c43" x="40.60807" y="55.292808" style="fill: #bc8f8f; fill-opacity: 0.7"/>
    </g>
    <g clip-path="url(#p096b59821c)">
     <use xlink:href="#C0_0_3a99ec9c43" x="39.63806" y="63.274634" style="fill: #bc8f8f; fill-opacity: 0.7"/>
    </g>
    <g clip-path="url(#p096b59821c)">
     <use xlink:href="#C0_0_3a99ec9c43" x="39.792085" y="81.012026" style="fill: #bc8f8f; fill-opacity: 0.7"/>
    </g>
    <g clip-path="url(#p096b59821c)">
     <use xlink:href="#C0_0_3a99ec9c43" x="36.986902" y="89.880722" style="fill: #bc8f8f; fill-opacity: 0.7"/>
    </g>
    <g clip-path="url(#p096b59821c)">
     <use xlink:href="#C0_0_3a99ec9c43" x="37.477071" y="66.822113" style="fill: #bc8f8f; fill-opacity: 0.7"/>
    </g>
    <g clip-path="url(#p096b59821c)">
     <use xlink:href="#C0_0_3a99ec9c43" x="36.593673" y="68.595852" style="fill: #bc8f8f; fill-opacity: 0.7"/>
    </g>
    <g clip-path="url(#p096b59821c)">
     <use xlink:href="#C0_0_3a99ec9c43" x="41.209709" y="72.14333" style="fill: #bc8f8f; fill-opacity: 0.7"/>
    </g>
    <g clip-path="url(#p096b59821c)">
     <use xlink:href="#C0_0_3a99ec9c43" x="40.214136" y="89.880722" style="fill: #bc8f8f; fill-opacity: 0.7"/>
    </g>
    <g clip-path="url(#p096b59821c)">
     <use xlink:href="#C0_0_3a99ec9c43" x="39.314953" y="79.238287" style="fill: #bc8f8f; fill-opacity: 0.7"/>
    </g>
    <g clip-path="url(#p096b59821c)">
     <use xlink:href="#C0_0_3a99ec9c43" x="35.980008" y="79.238287" style="fill: #bc8f8f; fill-opacity: 0.7"/>
    </g>
    <g clip-path="url(#p096b59821c)">
     <use xlink:href="#C0_0_3a99ec9c43" x="37.05315" y="77.464548" style="fill: #bc8f8f; fill-opacity: 0.7"/>
    </g>
    <g clip-path="url(#p096b59821c)">
     <use xlink:href="#C0_0_3a99ec9c43" x="39.010223" y="77.464548" style="fill: #bc8f8f; fill-opacity: 0.7"/>
    </g>
    <g clip-path="url(#p096b59821c)">
     <use xlink:href="#C0_0_3a99ec9c43" x="41.204698" y="82.785765" style="fill: #bc8f8f; fill-opacity: 0.7"/>
    </g>
    <g clip-path="url(#p096b59821c)">
     <use xlink:href="#C0_0_3a99ec9c43" x="37.342501" y="104.070636" style="fill: #bc8f8f; fill-opacity: 0.7"/>
    </g>
    <g clip-path="url(#p096b59821c)">
     <use xlink:href="#C0_0_3a99ec9c43" x="36.178806" y="81.012026" style="fill: #bc8f8f; fill-opacity: 0.7"/>
    </g>
   </g>
   <g id="PathCollection_2">
    <defs>
     <path id="C1_0_63d556bfe9" d="M 0 3.5 
C 0.928211 3.5 1.81853 3.131218 2.474874 2.474874 
C 3.131218 1.81853 3.5 0.928211 3.5 -0 
C 3.5 -0.928211 3.131218 -1.81853 2.474874 -2.474874 
C 1.81853 -3.131218 0.928211 -3.5 0 -3.5 
C -0.928211 -3.5 -1.81853 -3.131218 -2.474874 -2.474874 
C -3.131218 -1.81853 -3.5 -0.928211 -3.5 0 
C -3.5 0.928211 -3.131218 1.81853 -2.474874 2.474874 
C -1.81853 3.131218 -0.928211 3.5 0 3.5 
z
"/>
    </defs>
    <g clip-path="url(#p096b59821c)">
     <use xlink:href="#C1_0_63d556bfe9" x="60.020711" y="36.668546" style="fill: #708090; fill-opacity: 0.7"/>
    </g>
    <g clip-path="url(#p096b59821c)">
     <use xlink:href="#C1_0_63d556bfe9" x="65.467451" y="72.14333" style="fill: #708090; fill-opacity: 0.7"/>
    </g>
    <g clip-path="url(#p096b59821c)">
     <use xlink:href="#C1_0_63d556bfe9" x="60.565774" y="63.274634" style="fill: #708090; fill-opacity: 0.7"/>
    </g>
    <g clip-path="url(#p096b59821c)">
     <use xlink:href="#C1_0_63d556bfe9" x="60.744075" y="75.690809" style="fill: #708090; fill-opacity: 0.7"/>
    </g>
    <g clip-path="url(#p096b59821c)">
     <use xlink:href="#C1_0_63d556bfe9" x="63.471969" y="79.238287" style="fill: #708090; fill-opacity: 0.7"/>
    </g>
    <g clip-path="url(#p096b59821c)">
     <use xlink:href="#C1_0_63d556bfe9" x="61.687008" y="82.785765" style="fill: #708090; fill-opacity: 0.7"/>
    </g>
    <g clip-path="url(#p096b59821c)">
     <use xlink:href="#C1_0_63d556bfe9" x="60.177324" y="100.523158" style="fill: #708090; fill-opacity: 0.7"/>
    </g>
    <g clip-path="url(#p096b59821c)">
     <use xlink:href="#C1_0_63d556bfe9" x="61.108825" y="81.012026" style="fill: #708090; fill-opacity: 0.7"/>
    </g>
    <g clip-path="url(#p096b59821c)">
     <use xlink:href="#C1_0_63d556bfe9" x="64.951533" y="79.238287" style="fill: #708090; fill-opacity: 0.7"/>
    </g>
    <g clip-path="url(#p096b59821c)">
     <use xlink:href="#C1_0_63d556bfe9" x="61.691809" y="82.785765" style="fill: #708090; fill-opacity: 0.7"/>
    </g>
    <g clip-path="url(#p096b59821c)">
     <use xlink:href="#C1_0_63d556bfe9" x="63.449992" y="81.012026" style="fill: #708090; fill-opacity: 0.7"/>
    </g>
    <g clip-path="url(#p096b59821c)">
     <use xlink:href="#C1_0_63d556bfe9" x="64.41754" y="68.595852" style="fill: #708090; fill-opacity: 0.7"/>
    </g>
    <g clip-path="url(#p096b59821c)">
     <use xlink:href="#C1_0_63d556bfe9" x="61.887198" y="54.405938" style="fill: #708090; fill-opacity: 0.7"/>
    </g>
    <g clip-path="url(#p096b59821c)">
     <use xlink:href="#C1_0_63d556bfe9" x="62.381843" y="50.85846" style="fill: #708090; fill-opacity: 0.7"/>
    </g>
    <g clip-path="url(#p096b59821c)">
     <use xlink:href="#C1_0_63d556bfe9" x="61.165717" y="52.632199" style="fill: #708090; fill-opacity: 0.7"/>
    </g>
    <g clip-path="url(#p096b59821c)">
     <use xlink:href="#C1_0_63d556bfe9" x="65.074346" y="50.85846" style="fill: #708090; fill-opacity: 0.7"/>
    </g>
    <g clip-path="url(#p096b59821c)">
     <use xlink:href="#C1_0_63d556bfe9" x="65.498259" y="84.559505" style="fill: #708090; fill-opacity: 0.7"/>
    </g>
    <g clip-path="url(#p096b59821c)">
     <use xlink:href="#C1_0_63d556bfe9" x="63.49482" y="81.012026" style="fill: #708090; fill-opacity: 0.7"/>
    </g>
    <g clip-path="url(#p096b59821c)">
     <use xlink:href="#C1_0_63d556bfe9" x="64.381092" y="89.880722" style="fill: #708090; fill-opacity: 0.7"/>
    </g>
    <g clip-path="url(#p096b59821c)">
     <use xlink:href="#C1_0_63d556bfe9" x="64.629905" y="43.763503" style="fill: #708090; fill-opacity: 0.7"/>
    </g>
    <g clip-path="url(#p096b59821c)">
     <use xlink:href="#C1_0_63d556bfe9" x="61.537473" y="75.690809" style="fill: #708090; fill-opacity: 0.7"/>
    </g>
    <g clip-path="url(#p096b59821c)">
     <use xlink:href="#C1_0_63d556bfe9" x="63.117393" y="70.369591" style="fill: #708090; fill-opacity: 0.7"/>
    </g>
    <g clip-path="url(#p096b59821c)">
     <use xlink:href="#C1_0_63d556bfe9" x="63.041282" y="95.20194" style="fill: #708090; fill-opacity: 0.7"/>
    </g>
    <g clip-path="url(#p096b59821c)">
     <use xlink:href="#C1_0_63d556bfe9" x="62.090217" y="73.917069" style="fill: #708090; fill-opacity: 0.7"/>
    </g>
    <g clip-path="url(#p096b59821c)">
     <use xlink:href="#C1_0_63d556bfe9" x="61.003425" y="70.369591" style="fill: #708090; fill-opacity: 0.7"/>
    </g>
    <g clip-path="url(#p096b59821c)">
     <use xlink:href="#C1_0_63d556bfe9" x="63.266034" y="77.464548" style="fill: #708090; fill-opacity: 0.7"/>
    </g>
    <g clip-path="url(#p096b59821c)">
     <use xlink:href="#C1_0_63d556bfe9" x="63.572683" y="72.14333" style="fill: #708090; fill-opacity: 0.7"/>
    </g>
    <g clip-path="url(#p096b59821c)">
     <use xlink:href="#C1_0_63d556bfe9" x="62.425931" y="75.690809" style="fill: #708090; fill-opacity: 0.7"/>
    </g>
    <g clip-path="url(#p096b59821c)">
     <use xlink:href="#C1_0_63d556bfe9" x="60.54898" y="52.632199" style="fill: #708090; fill-opacity: 0.7"/>
    </g>
    <g clip-path="url(#p096b59821c)">
     <use xlink:href="#C1_0_63d556bfe9" x="59.950271" y="79.238287" style="fill: #708090; fill-opacity: 0.7"/>
    </g>
    <g clip-path="url(#p096b59821c)">
     <use xlink:href="#C1_0_63d556bfe9" x="62.925124" y="77.464548" style="fill: #708090; fill-opacity: 0.7"/>
    </g>
    <g clip-path="url(#p096b59821c)">
     <use xlink:href="#C1_0_63d556bfe9" x="63.751509" y="59.727156" style="fill: #708090; fill-opacity: 0.7"/>
    </g>
    <g clip-path="url(#p096b59821c)">
     <use xlink:href="#C1_0_63d556bfe9" x="63.426971" y="84.559505" style="fill: #708090; fill-opacity: 0.7"/>
    </g>
    <g clip-path="url(#p096b59821c)">
     <use xlink:href="#C1_0_63d556bfe9" x="62.037637" y="93.428201" style="fill: #708090; fill-opacity: 0.7"/>
    </g>
    <g clip-path="url(#p096b59821c)">
     <use xlink:href="#C1_0_63d556bfe9" x="64.087306" y="61.500895" style="fill: #708090; fill-opacity: 0.7"/>
    </g>
    <g clip-path="url(#p096b59821c)">
     <use xlink:href="#C1_0_63d556bfe9" x="62.347521" y="65.048373" style="fill: #708090; fill-opacity: 0.7"/>
    </g>
    <g clip-path="url(#p096b59821c)">
     <use xlink:href="#C1_0_63d556bfe9" x="60.012592" y="89.880722" style="fill: #708090; fill-opacity: 0.7"/>
    </g>
    <g clip-path="url(#p096b59821c)">
     <use xlink:href="#C1_0_63d556bfe9" x="65.829965" y="81.012026" style="fill: #708090; fill-opacity: 0.7"/>
    </g>
    <g clip-path="url(#p096b59821c)">
     <use xlink:href="#C1_0_63d556bfe9" x="61.169818" y="66.822113" style="fill: #708090; fill-opacity: 0.7"/>
    </g>
    <g clip-path="url(#p096b59821c)">
     <use xlink:href="#C1_0_63d556bfe9" x="63.027523" y="86.333244" style="fill: #708090; fill-opacity: 0.7"/>
    </g>
    <g clip-path="url(#p096b59821c)">
     <use xlink:href="#C1_0_63d556bfe9" x="63.440097" y="59.727156" style="fill: #708090; fill-opacity: 0.7"/>
    </g>
    <g clip-path="url(#p096b59821c)">
     <use xlink:href="#C1_0_63d556bfe9" x="61.354672" y="66.822113" style="fill: #708090; fill-opacity: 0.7"/>
    </g>
   </g>
   <g id="PathCollection_3">
    <defs>
     <path id="C2_0_20b6ef9ac8" d="M 0 3.5 
C 0.928211 3.5 1.81853 3.131218 2.474874 2.474874 
C 3.131218 1.81853 3.5 0.928211 3.5 -0 
C 3.5 -0.928211 3.131218 -1.81853 2.474874 -2.474874 
C 1.81853 -3.131218 0.928211 -3.5 0 -3.5 
C -0.928211 -3.5 -1.81853 -3.131218 -2.474874 -2.474874 
C -3.131218 -1.81853 -3.5 -0.928211 -3.5 0 
C -3.5 0.928211 -3.131218 1.81853 -2.474874 2.474874 
C -1.81853 3.131218 -0.928211 3.5 0 3.5 
z
"/>
    </defs>
    <g clip-path="url(#p096b59821c)">
     <use xlink:href="#C2_0_20b6ef9ac8" x="97.367281" y="66.822113" style="fill: #bc8f8f; fill-opacity: 0.7"/>
    </g>
    <g clip-path="url(#p096b59821c)">
     <use xlink:href="#C2_0_20b6ef9ac8" x="97.318673" y="68.595852" style="fill: #bc8f8f; fill-opacity: 0.7"/>
    </g>
    <g clip-path="url(#p096b59821c)">
     <use xlink:href="#C2_0_20b6ef9ac8" x="100.97967" y="109.391854" style="fill: #bc8f8f; fill-opacity: 0.7"/>
    </g>
    <g clip-path="url(#p096b59821c)">
     <use xlink:href="#C2_0_20b6ef9ac8" x="101.471667" y="54.405938" style="fill: #bc8f8f; fill-opacity: 0.7"/>
    </g>
    <g clip-path="url(#p096b59821c)">
     <use xlink:href="#C2_0_20b6ef9ac8" x="99.729015" y="70.369591" style="fill: #bc8f8f; fill-opacity: 0.7"/>
    </g>
    <g clip-path="url(#p096b59821c)">
     <use xlink:href="#C2_0_20b6ef9ac8" x="98.265249" y="93.428201" style="fill: #bc8f8f; fill-opacity: 0.7"/>
    </g>
    <g clip-path="url(#p096b59821c)">
     <use xlink:href="#C2_0_20b6ef9ac8" x="97.886201" y="57.953416" style="fill: #bc8f8f; fill-opacity: 0.7"/>
    </g>
    <g clip-path="url(#p096b59821c)">
     <use xlink:href="#C2_0_20b6ef9ac8" x="100.82864" y="61.500895" style="fill: #bc8f8f; fill-opacity: 0.7"/>
    </g>
    <g clip-path="url(#p096b59821c)">
     <use xlink:href="#C2_0_20b6ef9ac8" x="102.222812" y="54.405938" style="fill: #bc8f8f; fill-opacity: 0.7"/>
    </g>
    <g clip-path="url(#p096b59821c)">
     <use xlink:href="#C2_0_20b6ef9ac8" x="98.652569" y="82.785765" style="fill: #bc8f8f; fill-opacity: 0.7"/>
    </g>
    <g clip-path="url(#p096b59821c)">
     <use xlink:href="#C2_0_20b6ef9ac8" x="100.958631" y="75.690809" style="fill: #bc8f8f; fill-opacity: 0.7"/>
    </g>
    <g clip-path="url(#p096b59821c)">
     <use xlink:href="#C2_0_20b6ef9ac8" x="101.929681" y="57.953416" style="fill: #bc8f8f; fill-opacity: 0.7"/>
    </g>
    <g clip-path="url(#p096b59821c)">
     <use xlink:href="#C2_0_20b6ef9ac8" x="97.160709" y="59.727156" style="fill: #bc8f8f; fill-opacity: 0.7"/>
    </g>
    <g clip-path="url(#p096b59821c)">
     <use xlink:href="#C2_0_20b6ef9ac8" x="99.219376" y="61.500895" style="fill: #bc8f8f; fill-opacity: 0.7"/>
    </g>
    <g clip-path="url(#p096b59821c)">
     <use xlink:href="#C2_0_20b6ef9ac8" x="101.023048" y="57.953416" style="fill: #bc8f8f; fill-opacity: 0.7"/>
    </g>
    <g clip-path="url(#p096b59821c)">
     <use xlink:href="#C2_0_20b6ef9ac8" x="99.060563" y="84.559505" style="fill: #bc8f8f; fill-opacity: 0.7"/>
    </g>
    <g clip-path="url(#p096b59821c)">
     <use xlink:href="#C2_0_20b6ef9ac8" x="101.727273" y="86.333244" style="fill: #bc8f8f; fill-opacity: 0.7"/>
    </g>
    <g clip-path="url(#p096b59821c)">
     <use xlink:href="#C2_0_20b6ef9ac8" x="96.949119" y="59.727156" style="fill: #bc8f8f; fill-opacity: 0.7"/>
    </g>
    <g clip-path="url(#p096b59821c)">
     <use xlink:href="#C2_0_20b6ef9ac8" x="101.312657" y="65.048373" style="fill: #bc8f8f; fill-opacity: 0.7"/>
    </g>
    <g clip-path="url(#p096b59821c)">
     <use xlink:href="#C2_0_20b6ef9ac8" x="97.481712" y="59.727156" style="fill: #bc8f8f; fill-opacity: 0.7"/>
    </g>
    <g clip-path="url(#p096b59821c)">
     <use xlink:href="#C2_0_20b6ef9ac8" x="100.37895" y="88.106983" style="fill: #bc8f8f; fill-opacity: 0.7"/>
    </g>
    <g clip-path="url(#p096b59821c)">
     <use xlink:href="#C2_0_20b6ef9ac8" x="97.981726" y="89.880722" style="fill: #bc8f8f; fill-opacity: 0.7"/>
    </g>
    <g clip-path="url(#p096b59821c)">
     <use xlink:href="#C2_0_20b6ef9ac8" x="100.767074" y="61.500895" style="fill: #bc8f8f; fill-opacity: 0.7"/>
    </g>
    <g clip-path="url(#p096b59821c)">
     <use xlink:href="#C2_0_20b6ef9ac8" x="100.857768" y="59.727156" style="fill: #bc8f8f; fill-opacity: 0.7"/>
    </g>
    <g clip-path="url(#p096b59821c)">
     <use xlink:href="#C2_0_20b6ef9ac8" x="96.710998" y="95.20194" style="fill: #bc8f8f; fill-opacity: 0.7"/>
    </g>
    <g clip-path="url(#p096b59821c)">
     <use xlink:href="#C2_0_20b6ef9ac8" x="100.589393" y="89.880722" style="fill: #bc8f8f; fill-opacity: 0.7"/>
    </g>
    <g clip-path="url(#p096b59821c)">
     <use xlink:href="#C2_0_20b6ef9ac8" x="102.516847" y="70.369591" style="fill: #bc8f8f; fill-opacity: 0.7"/>
    </g>
    <g clip-path="url(#p096b59821c)">
     <use xlink:href="#C2_0_20b6ef9ac8" x="97.263088" y="68.595852" style="fill: #bc8f8f; fill-opacity: 0.7"/>
    </g>
    <g clip-path="url(#p096b59821c)">
     <use xlink:href="#C2_0_20b6ef9ac8" x="102.114492" y="66.822113" style="fill: #bc8f8f; fill-opacity: 0.7"/>
    </g>
    <g clip-path="url(#p096b59821c)">
     <use xlink:href="#C2_0_20b6ef9ac8" x="96.695736" y="88.106983" style="fill: #bc8f8f; fill-opacity: 0.7"/>
    </g>
    <g clip-path="url(#p096b59821c)">
     <use xlink:href="#C2_0_20b6ef9ac8" x="100.340403" y="88.106983" style="fill: #bc8f8f; fill-opacity: 0.7"/>
    </g>
    <g clip-path="url(#p096b59821c)">
     <use xlink:href="#C2_0_20b6ef9ac8" x="97.413272" y="54.405938" style="fill: #bc8f8f; fill-opacity: 0.7"/>
    </g>
    <g clip-path="url(#p096b59821c)">
     <use xlink:href="#C2_0_20b6ef9ac8" x="99.241111" y="81.012026" style="fill: #bc8f8f; fill-opacity: 0.7"/>
    </g>
    <g clip-path="url(#p096b59821c)">
     <use xlink:href="#C2_0_20b6ef9ac8" x="102.450179" y="89.880722" style="fill: #bc8f8f; fill-opacity: 0.7"/>
    </g>
    <g clip-path="url(#p096b59821c)">
     <use xlink:href="#C2_0_20b6ef9ac8" x="99.049169" y="91.654461" style="fill: #bc8f8f; fill-opacity: 0.7"/>
    </g>
    <g clip-path="url(#p096b59821c)">
     <use xlink:href="#C2_0_20b6ef9ac8" x="102.621157" y="88.106983" style="fill: #bc8f8f; fill-opacity: 0.7"/>
    </g>
    <g clip-path="url(#p096b59821c)">
     <use xlink:href="#C2_0_20b6ef9ac8" x="97.861011" y="65.048373" style="fill: #bc8f8f; fill-opacity: 0.7"/>
    </g>
    <g clip-path="url(#p096b59821c)">
     <use xlink:href="#C2_0_20b6ef9ac8" x="98.828986" y="73.917069" style="fill: #bc8f8f; fill-opacity: 0.7"/>
    </g>
    <g clip-path="url(#p096b59821c)">
     <use xlink:href="#C2_0_20b6ef9ac8" x="98.508924" y="68.595852" style="fill: #bc8f8f; fill-opacity: 0.7"/>
    </g>
    <g clip-path="url(#p096b59821c)">
     <use xlink:href="#C2_0_20b6ef9ac8" x="101.204206" y="61.500895" style="fill: #bc8f8f; fill-opacity: 0.7"/>
    </g>
    <g clip-path="url(#p096b59821c)">
     <use xlink:href="#C2_0_20b6ef9ac8" x="96.970943" y="89.880722" style="fill: #bc8f8f; fill-opacity: 0.7"/>
    </g>
   </g>
   <g id="PathCollection_4">
    <defs>
     <path id="C3_0_bdcc4f3cc6" d="M 0 3.5 
C 0.928211 3.5 1.81853 3.131218 2.474874 2.474874 
C 3.131218 1.81853 3.5 0.928211 3.5 -0 
C 3.5 -0.928211 3.131218 -1.81853 2.474874 -2.474874 
C 1.81853 -3.131218 0.928211 -3.5 0 -3.5 
C -0.928211 -3.5 -1.81853 -3.131218 -2.474874 -2.474874 
C -3.131218 -1.81853 -3.5 -0.928211 -3.5 0 
C -3.5 0.928211 -3.131218 1.81853 -2.474874 2.474874 
C -1.81853 3.131218 -0.928211 3.5 0 3.5 
z
"/>
    </defs>
    <g clip-path="url(#p096b59821c)">
     <use xlink:href="#C3_0_bdcc4f3cc6" x="126.792507" y="65.048373" style="fill: #708090; fill-opacity: 0.7"/>
    </g>
    <g clip-path="url(#p096b59821c)">
     <use xlink:href="#C3_0_bdcc4f3cc6" x="121.811323" y="81.012026" style="fill: #708090; fill-opacity: 0.7"/>
    </g>
    <g clip-path="url(#p096b59821c)">
     <use xlink:href="#C3_0_bdcc4f3cc6" x="121.663368" y="79.238287" style="fill: #708090; fill-opacity: 0.7"/>
    </g>
    <g clip-path="url(#p096b59821c)">
     <use xlink:href="#C3_0_bdcc4f3cc6" x="123.939017" y="56.179677" style="fill: #708090; fill-opacity: 0.7"/>
    </g>
    <g clip-path="url(#p096b59821c)">
     <use xlink:href="#C3_0_bdcc4f3cc6" x="124.785605" y="88.106983" style="fill: #708090; fill-opacity: 0.7"/>
    </g>
    <g clip-path="url(#p096b59821c)">
     <use xlink:href="#C3_0_bdcc4f3cc6" x="123.466608" y="91.654461" style="fill: #708090; fill-opacity: 0.7"/>
    </g>
    <g clip-path="url(#p096b59821c)">
     <use xlink:href="#C3_0_bdcc4f3cc6" x="122.996979" y="91.654461" style="fill: #708090; fill-opacity: 0.7"/>
    </g>
    <g clip-path="url(#p096b59821c)">
     <use xlink:href="#C3_0_bdcc4f3cc6" x="123.756675" y="63.274634" style="fill: #708090; fill-opacity: 0.7"/>
    </g>
    <g clip-path="url(#p096b59821c)">
     <use xlink:href="#C3_0_bdcc4f3cc6" x="123.617114" y="79.238287" style="fill: #708090; fill-opacity: 0.7"/>
    </g>
    <g clip-path="url(#p096b59821c)">
     <use xlink:href="#C3_0_bdcc4f3cc6" x="126.59335" y="54.405938" style="fill: #708090; fill-opacity: 0.7"/>
    </g>
    <g clip-path="url(#p096b59821c)">
     <use xlink:href="#C3_0_bdcc4f3cc6" x="124.506026" y="47.310981" style="fill: #708090; fill-opacity: 0.7"/>
    </g>
    <g clip-path="url(#p096b59821c)">
     <use xlink:href="#C3_0_bdcc4f3cc6" x="124.631091" y="70.369591" style="fill: #708090; fill-opacity: 0.7"/>
    </g>
    <g clip-path="url(#p096b59821c)">
     <use xlink:href="#C3_0_bdcc4f3cc6" x="121.359094" y="79.238287" style="fill: #708090; fill-opacity: 0.7"/>
    </g>
    <g clip-path="url(#p096b59821c)">
     <use xlink:href="#C3_0_bdcc4f3cc6" x="122.523104" y="36.668546" style="fill: #708090; fill-opacity: 0.7"/>
    </g>
    <g clip-path="url(#p096b59821c)">
     <use xlink:href="#C3_0_bdcc4f3cc6" x="121.178849" y="43.763503" style="fill: #708090; fill-opacity: 0.7"/>
    </g>
    <g clip-path="url(#p096b59821c)">
     <use xlink:href="#C3_0_bdcc4f3cc6" x="124.808222" y="75.690809" style="fill: #708090; fill-opacity: 0.7"/>
    </g>
    <g clip-path="url(#p096b59821c)">
     <use xlink:href="#C3_0_bdcc4f3cc6" x="123.518755" y="84.559505" style="fill: #708090; fill-opacity: 0.7"/>
    </g>
    <g clip-path="url(#p096b59821c)">
     <use xlink:href="#C3_0_bdcc4f3cc6" x="122.373561" y="54.405938" style="fill: #708090; fill-opacity: 0.7"/>
    </g>
    <g clip-path="url(#p096b59821c)">
     <use xlink:href="#C3_0_bdcc4f3cc6" x="122.57674" y="73.917069" style="fill: #708090; fill-opacity: 0.7"/>
    </g>
    <g clip-path="url(#p096b59821c)">
     <use xlink:href="#C3_0_bdcc4f3cc6" x="122.183215" y="73.917069" style="fill: #708090; fill-opacity: 0.7"/>
    </g>
    <g clip-path="url(#p096b59821c)">
     <use xlink:href="#C3_0_bdcc4f3cc6" x="126.976724" y="56.179677" style="fill: #708090; fill-opacity: 0.7"/>
    </g>
    <g clip-path="url(#p096b59821c)">
     <use xlink:href="#C3_0_bdcc4f3cc6" x="126.44602" y="61.500895" style="fill: #708090; fill-opacity: 0.7"/>
    </g>
    <g clip-path="url(#p096b59821c)">
     <use xlink:href="#C3_0_bdcc4f3cc6" x="122.775383" y="81.012026" style="fill: #708090; fill-opacity: 0.7"/>
    </g>
    <g clip-path="url(#p096b59821c)">
     <use xlink:href="#C3_0_bdcc4f3cc6" x="124.781559" y="84.559505" style="fill: #708090; fill-opacity: 0.7"/>
    </g>
    <g clip-path="url(#p096b59821c)">
     <use xlink:href="#C3_0_bdcc4f3cc6" x="125.493402" y="75.690809" style="fill: #708090; fill-opacity: 0.7"/>
    </g>
    <g clip-path="url(#p096b59821c)">
     <use xlink:href="#C3_0_bdcc4f3cc6" x="122.977159" y="100.523158" style="fill: #708090; fill-opacity: 0.7"/>
    </g>
    <g clip-path="url(#p096b59821c)">
     <use xlink:href="#C3_0_bdcc4f3cc6" x="122.021149" y="86.333244" style="fill: #708090; fill-opacity: 0.7"/>
    </g>
    <g clip-path="url(#p096b59821c)">
     <use xlink:href="#C3_0_bdcc4f3cc6" x="125.907291" y="95.20194" style="fill: #708090; fill-opacity: 0.7"/>
    </g>
    <g clip-path="url(#p096b59821c)">
     <use xlink:href="#C3_0_bdcc4f3cc6" x="125.106974" y="89.880722" style="fill: #708090; fill-opacity: 0.7"/>
    </g>
    <g clip-path="url(#p096b59821c)">
     <use xlink:href="#C3_0_bdcc4f3cc6" x="123.220433" y="89.880722" style="fill: #708090; fill-opacity: 0.7"/>
    </g>
    <g clip-path="url(#p096b59821c)">
     <use xlink:href="#C3_0_bdcc4f3cc6" x="123.209961" y="52.632199" style="fill: #708090; fill-opacity: 0.7"/>
    </g>
    <g clip-path="url(#p096b59821c)">
     <use xlink:href="#C3_0_bdcc4f3cc6" x="121.907134" y="75.690809" style="fill: #708090; fill-opacity: 0.7"/>
    </g>
    <g clip-path="url(#p096b59821c)">
     <use xlink:href="#C3_0_bdcc4f3cc6" x="122.680732" y="72.14333" style="fill: #708090; fill-opacity: 0.7"/>
    </g>
    <g clip-path="url(#p096b59821c)">
     <use xlink:href="#C3_0_bdcc4f3cc6" x="123.098882" y="98.749418" style="fill: #708090; fill-opacity: 0.7"/>
    </g>
    <g clip-path="url(#p096b59821c)">
     <use xlink:href="#C3_0_bdcc4f3cc6" x="121.108334" y="79.238287" style="fill: #708090; fill-opacity: 0.7"/>
    </g>
    <g clip-path="url(#p096b59821c)">
     <use xlink:href="#C3_0_bdcc4f3cc6" x="121.67151" y="89.880722" style="fill: #708090; fill-opacity: 0.7"/>
    </g>
    <g clip-path="url(#p096b59821c)">
     <use xlink:href="#C3_0_bdcc4f3cc6" x="126.24144" y="82.785765" style="fill: #708090; fill-opacity: 0.7"/>
    </g>
    <g clip-path="url(#p096b59821c)">
     <use xlink:href="#C3_0_bdcc4f3cc6" x="122.875562" y="86.333244" style="fill: #708090; fill-opacity: 0.7"/>
    </g>
    <g clip-path="url(#p096b59821c)">
     <use xlink:href="#C3_0_bdcc4f3cc6" x="124.878234" y="65.048373" style="fill: #708090; fill-opacity: 0.7"/>
    </g>
    <g clip-path="url(#p096b59821c)">
     <use xlink:href="#C3_0_bdcc4f3cc6" x="125.99873" y="70.369591" style="fill: #708090; fill-opacity: 0.7"/>
    </g>
    <g clip-path="url(#p096b59821c)">
     <use xlink:href="#C3_0_bdcc4f3cc6" x="122.766036" y="50.85846" style="fill: #708090; fill-opacity: 0.7"/>
    </g>
    <g clip-path="url(#p096b59821c)">
     <use xlink:href="#C3_0_bdcc4f3cc6" x="123.564637" y="66.822113" style="fill: #708090; fill-opacity: 0.7"/>
    </g>
    <g clip-path="url(#p096b59821c)">
     <use xlink:href="#C3_0_bdcc4f3cc6" x="121.422997" y="57.953416" style="fill: #708090; fill-opacity: 0.7"/>
    </g>
    <g clip-path="url(#p096b59821c)">
     <use xlink:href="#C3_0_bdcc4f3cc6" x="123.037126" y="66.822113" style="fill: #708090; fill-opacity: 0.7"/>
    </g>
    <g clip-path="url(#p096b59821c)">
     <use xlink:href="#C3_0_bdcc4f3cc6" x="123.886166" y="73.917069" style="fill: #708090; fill-opacity: 0.7"/>
    </g>
   </g>
   <g id="line2d_5">
    <path d="M 36.52605 85.55368 
L 39.90195 85.55368 
M 38.214 85.55368 
L 38.214 57.686929 
M 36.52605 57.686929 
L 39.90195 57.686929 
" clip-path="url(#p096b59821c)" style="fill: none; stroke: #333333; stroke-width: 2.5; stroke-linecap: square"/>
   </g>
   <g id="line2d_6">
    <path d="M 97.90605 88.039995 
L 101.28195 88.039995 
M 99.594 88.039995 
L 99.594 59.188477 
M 97.90605 59.188477 
L 101.28195 59.188477 
" clip-path="url(#p096b59821c)" style="fill: none; stroke: #333333; stroke-width: 2.5; stroke-linecap: square"/>
   </g>
   <g id="line2d_7">
    <path d="M 61.07805 86.823951 
L 64.45395 86.823951 
M 62.766 86.823951 
L 62.766 58.222883 
M 61.07805 58.222883 
L 64.45395 58.222883 
" clip-path="url(#p096b59821c)" style="fill: none; stroke: #333333; stroke-width: 2.5; stroke-linecap: square"/>
   </g>
   <g id="line2d_8">
    <path d="M 122.45805 88.686855 
L 125.83395 88.686855 
M 124.146 88.686855 
L 124.146 57.964791 
M 122.45805 57.964791 
L 125.83395 57.964791 
" clip-path="url(#p096b59821c)" style="fill: none; stroke: #333333; stroke-width: 2.5; stroke-linecap: square"/>
   </g>
   <g id="patch_9">
    <path d="M 19.8 128.16 
L 19.8 17.28 
" style="fill: none; stroke: #000000; stroke-width: 1.5; stroke-linejoin: miter; stroke-linecap: square"/>
   </g>
   <g id="patch_10">
    <path d="M 19.8 128.16 
L 142.56 128.16 
" style="fill: none; stroke: #000000; stroke-width: 1.5; stroke-linejoin: miter; stroke-linecap: square"/>
   </g>
   <g id="PathCollection_5">
    <defs>
     <path id="m01ffc11d12" d="M 0 3 
C 0.795609 3 1.55874 2.683901 2.12132 2.12132 
C 2.683901 1.55874 3 0.795609 3 0 
C 3 -0.795609 2.683901 -1.55874 2.12132 -2.12132 
C 1.55874 -2.683901 0.795609 -3 0 -3 
C -0.795609 -3 -1.55874 -2.683901 -2.12132 -2.12132 
C -2.683901 -1.55874 -3 -0.795609 -3 0 
C -3 0.795609 -2.683901 1.55874 -2.12132 2.12132 
C -1.55874 2.683901 -0.795609 3 0 3 
z
"/>
    </defs>
    <g clip-path="url(#p096b59821c)">
     <use xlink:href="#m01ffc11d12" x="38.214" y="71.620304" style="fill: #333333"/>
    </g>
   </g>
   <g id="PathCollection_6">
    <g clip-path="url(#p096b59821c)">
     <use xlink:href="#m01ffc11d12" x="62.766" y="72.523417" style="fill: #333333"/>
    </g>
   </g>
   <g id="PathCollection_7">
    <g clip-path="url(#p096b59821c)">
     <use xlink:href="#m01ffc11d12" x="99.594" y="73.614236" style="fill: #333333"/>
    </g>
   </g>
   <g id="PathCollection_8">
    <g clip-path="url(#p096b59821c)">
     <use xlink:href="#m01ffc11d12" x="124.146" y="73.325823" style="fill: #333333"/>
    </g>
   </g>
   <g id="line2d_9"/>
   <g id="line2d_10"/>
  </g>
 </g>
 <defs>
  <clipPath id="p096b59821c">
   <rect x="19.8" y="17.28" width="122.76" height="110.88"/>
  </clipPath>
 </defs>
</svg>
