<?xml version="1.0" encoding="utf-8" standalone="no"?>
<!DOCTYPE svg PUBLIC "-//W3C//DTD SVG 1.1//EN"
  "http://www.w3.org/Graphics/SVG/1.1/DTD/svg11.dtd">
<svg xmlns:xlink="http://www.w3.org/1999/xlink" width="158.4pt" height="144pt" viewBox="0 0 158.4 144" xmlns="http://www.w3.org/2000/svg" version="1.1">
 <metadata>
  <rdf:RDF xmlns:dc="http://purl.org/dc/elements/1.1/" xmlns:cc="http://creativecommons.org/ns#" xmlns:rdf="http://www.w3.org/1999/02/22-rdf-syntax-ns#">
   <cc:Work>
    <dc:type rdf:resource="http://purl.org/dc/dcmitype/StillImage"/>
    <dc:date>2024-09-14T02:30:33.799969</dc:date>
    <dc:format>image/svg+xml</dc:format>
    <dc:creator>
     <cc:Agent>
      <dc:title>Matplotlib v3.7.1, https://matplotlib.org/</dc:title>
     </cc:Agent>
    </dc:creator>
   </cc:Work>
  </rdf:RDF>
 </metadata>
 <defs>
  <style type="text/css">*{stroke-linejoin: round; stroke-linecap: butt}</style>
 </defs>
 <g id="figure_1">
  <g id="patch_1">
   <path d="M 0 144 
L 158.4 144 
L 158.4 0 
L 0 0 
L 0 144 
z
" style="fill: none"/>
  </g>
  <g id="axes_1">
   <g id="patch_2">
    <path d="M 19.8 128.16 
L 142.56 128.16 
L 142.56 17.28 
L 19.8 17.28 
L 19.8 128.16 
z
" style="fill: none"/>
   </g>
   <g id="PolyCollection_1">
    <path d="M 38.460261 107.097629 
L 37.967739 107.097629 
L 37.901249 106.301396 
L 37.821304 105.505163 
L 37.726429 104.708929 
L 37.615287 103.912696 
L 37.48675 103.116463 
L 37.339979 102.320229 
L 37.174482 101.523996 
L 36.990177 100.727762 
L 36.787417 99.931529 
L 36.567013 99.135296 
L 36.33022 98.339062 
L 36.0787 97.542829 
L 35.814457 96.746595 
L 35.539761 95.950362 
L 35.25704 95.154129 
L 34.968772 94.357895 
L 34.677374 93.561662 
L 34.385088 92.765429 
L 34.093893 91.969195 
L 33.805425 91.172962 
L 33.520925 90.376728 
L 33.241222 89.580495 
L 32.966734 88.784262 
L 32.697511 87.988028 
L 32.433289 87.191795 
L 32.173576 86.395561 
L 31.91775 85.599328 
L 31.665158 84.803095 
L 31.415222 84.006861 
L 31.167527 83.210628 
L 30.921894 82.414395 
L 30.67843 81.618161 
L 30.437541 80.821928 
L 30.199918 80.025694 
L 29.966484 79.229461 
L 29.73831 78.433228 
L 29.516512 77.636994 
L 29.302128 76.840761 
L 29.09599 76.044527 
L 28.898609 75.248294 
L 28.710086 74.452061 
L 28.530051 73.655827 
L 28.357658 72.859594 
L 28.191624 72.063361 
L 28.030326 71.267127 
L 27.871948 70.470894 
L 27.714662 69.67466 
L 27.556837 68.878427 
L 27.397257 68.082194 
L 27.235323 67.28596 
L 27.071218 66.489727 
L 26.906027 65.693493 
L 26.741787 64.89726 
L 26.581463 64.101027 
L 26.428846 63.304793 
L 26.288387 62.50856 
L 26.164958 61.712327 
L 26.06358 60.916093 
L 25.989126 60.11986 
L 25.946026 59.323626 
L 25.938 58.527393 
L 25.967842 57.73116 
L 26.037268 56.934926 
L 26.146853 56.138693 
L 26.29605 55.342459 
L 26.483292 54.546226 
L 26.70617 53.749993 
L 26.961668 52.953759 
L 27.246425 52.157526 
L 27.557001 51.361293 
L 27.890127 50.565059 
L 28.242893 49.768826 
L 28.612881 48.972592 
L 28.998209 48.176359 
L 29.397496 47.380126 
L 29.809752 46.583892 
L 30.234206 45.787659 
L 30.670102 44.991425 
L 31.11648 44.195192 
L 31.571987 43.398959 
L 32.034718 42.602725 
L 32.502132 41.806492 
L 32.971035 41.010259 
L 33.43765 40.214025 
L 33.897743 39.417792 
L 34.346818 38.621558 
L 34.780342 37.825325 
L 35.193982 37.029092 
L 35.58383 36.232858 
L 35.946603 35.436625 
L 36.279786 34.640391 
L 36.581726 33.844158 
L 36.85166 33.047925 
L 37.089688 32.251691 
L 37.296695 31.455458 
L 37.474238 30.659224 
L 37.624399 29.862991 
L 37.749638 29.066758 
L 37.852643 28.270524 
L 38.575357 28.270524 
L 38.575357 28.270524 
L 38.678362 29.066758 
L 38.803601 29.862991 
L 38.953762 30.659224 
L 39.131305 31.455458 
L 39.338312 32.251691 
L 39.57634 33.047925 
L 39.846274 33.844158 
L 40.148214 34.640391 
L 40.481397 35.436625 
L 40.84417 36.232858 
L 41.234018 37.029092 
L 41.647658 37.825325 
L 42.081182 38.621558 
L 42.530257 39.417792 
L 42.99035 40.214025 
L 43.456965 41.010259 
L 43.925868 41.806492 
L 44.393282 42.602725 
L 44.856013 43.398959 
L 45.31152 44.195192 
L 45.757898 44.991425 
L 46.193794 45.787659 
L 46.618248 46.583892 
L 47.030504 47.380126 
L 47.429791 48.176359 
L 47.815119 48.972592 
L 48.185107 49.768826 
L 48.537873 50.565059 
L 48.870999 51.361293 
L 49.181575 52.157526 
L 49.466332 52.953759 
L 49.72183 53.749993 
L 49.944708 54.546226 
L 50.13195 55.342459 
L 50.281147 56.138693 
L 50.390732 56.934926 
L 50.460158 57.73116 
L 50.49 58.527393 
L 50.481974 59.323626 
L 50.438874 60.11986 
L 50.36442 60.916093 
L 50.263042 61.712327 
L 50.139613 62.50856 
L 49.999154 63.304793 
L 49.846537 64.101027 
L 49.686213 64.89726 
L 49.521973 65.693493 
L 49.356782 66.489727 
L 49.192677 67.28596 
L 49.030743 68.082194 
L 48.871163 68.878427 
L 48.713338 69.67466 
L 48.556052 70.470894 
L 48.397674 71.267127 
L 48.236376 72.063361 
L 48.070342 72.859594 
L 47.897949 73.655827 
L 47.717914 74.452061 
L 47.529391 75.248294 
L 47.33201 76.044527 
L 47.125872 76.840761 
L 46.911488 77.636994 
L 46.68969 78.433228 
L 46.461516 79.229461 
L 46.228082 80.025694 
L 45.990459 80.821928 
L 45.74957 81.618161 
L 45.506106 82.414395 
L 45.260473 83.210628 
L 45.012778 84.006861 
L 44.762842 84.803095 
L 44.51025 85.599328 
L 44.254424 86.395561 
L 43.994711 87.191795 
L 43.730489 87.988028 
L 43.461266 88.784262 
L 43.186778 89.580495 
L 42.907075 90.376728 
L 42.622575 91.172962 
L 42.334107 91.969195 
L 42.042912 92.765429 
L 41.750626 93.561662 
L 41.459228 94.357895 
L 41.17096 95.154129 
L 40.888239 95.950362 
L 40.613543 96.746595 
L 40.3493 97.542829 
L 40.09778 98.339062 
L 39.860987 99.135296 
L 39.640583 99.931529 
L 39.437823 100.727762 
L 39.253518 101.523996 
L 39.088021 102.320229 
L 38.94125 103.116463 
L 38.812713 103.912696 
L 38.701571 104.708929 
L 38.606696 105.505163 
L 38.526751 106.301396 
L 38.460261 107.097629 
z
" clip-path="url(#p470a64d458)" style="fill: #b69595; fill-opacity: 0.35"/>
   </g>
   <g id="PolyCollection_2">
    <path d="M 63.052293 105.618327 
L 62.479707 105.618327 
L 62.396416 104.890115 
L 62.294432 104.161903 
L 62.171187 103.433691 
L 62.024171 102.705479 
L 61.851031 101.977267 
L 61.649685 101.249055 
L 61.418422 100.520843 
L 61.156005 99.792631 
L 60.861744 99.064419 
L 60.53555 98.336207 
L 60.177961 97.607995 
L 59.790133 96.879783 
L 59.373799 96.15157 
L 58.93121 95.423358 
L 58.465051 94.695146 
L 57.978355 93.966934 
L 57.474419 93.238722 
L 56.956738 92.51051 
L 56.428965 91.782298 
L 55.894895 91.054086 
L 55.358492 90.325874 
L 54.823933 89.597662 
L 54.295676 88.86945 
L 53.778532 88.141238 
L 53.277721 87.413026 
L 52.798897 86.684814 
L 52.348133 85.956602 
L 51.931829 85.22839 
L 51.556565 84.500178 
L 51.228873 83.771965 
L 50.954951 83.043753 
L 50.740326 82.315541 
L 50.589498 81.587329 
L 50.505583 80.859117 
L 50.49 80.130905 
L 50.542224 79.402693 
L 50.659641 78.674481 
L 50.837527 77.946269 
L 51.069157 77.218057 
L 51.346052 76.489845 
L 51.658354 75.761633 
L 51.995303 75.033421 
L 52.345775 74.305209 
L 52.698858 73.576997 
L 53.044411 72.848785 
L 53.373566 72.120573 
L 53.679135 71.39236 
L 53.955894 70.664148 
L 54.200738 69.935936 
L 54.412677 69.207724 
L 54.592708 68.479512 
L 54.743566 67.7513 
L 54.869386 67.023088 
L 54.975303 66.294876 
L 55.067037 65.566664 
L 55.150477 64.838452 
L 55.231308 64.11024 
L 55.314695 63.382028 
L 55.405037 62.653816 
L 55.505807 61.925604 
L 55.619466 61.197392 
L 55.747459 60.46918 
L 55.890274 59.740968 
L 56.047552 59.012755 
L 56.218246 58.284543 
L 56.400793 57.556331 
L 56.593313 56.828119 
L 56.793792 56.099907 
L 57.00026 55.371695 
L 57.210942 54.643483 
L 57.424372 53.915271 
L 57.639473 53.187059 
L 57.855584 52.458847 
L 58.072452 51.730635 
L 58.290172 51.002423 
L 58.509095 50.274211 
L 58.72971 49.545999 
L 58.95251 48.817787 
L 59.177857 48.089575 
L 59.405859 47.361363 
L 59.636274 46.63315 
L 59.868449 45.904938 
L 60.1013 45.176726 
L 60.333339 44.448514 
L 60.562732 43.720302 
L 60.787404 42.99209 
L 61.00516 42.263878 
L 61.213812 41.535666 
L 61.411317 40.807454 
L 61.595891 40.079242 
L 61.766104 39.35103 
L 61.920948 38.622818 
L 62.05986 37.894606 
L 62.182734 37.166394 
L 62.289881 36.438182 
L 62.38198 35.70997 
L 62.46001 34.981758 
L 62.52517 34.253546 
L 62.5788 33.525333 
L 62.9532 33.525333 
L 62.9532 33.525333 
L 63.00683 34.253546 
L 63.07199 34.981758 
L 63.15002 35.70997 
L 63.242119 36.438182 
L 63.349266 37.166394 
L 63.47214 37.894606 
L 63.611052 38.622818 
L 63.765896 39.35103 
L 63.936109 40.079242 
L 64.120683 40.807454 
L 64.318188 41.535666 
L 64.52684 42.263878 
L 64.744596 42.99209 
L 64.969268 43.720302 
L 65.198661 44.448514 
L 65.4307 45.176726 
L 65.663551 45.904938 
L 65.895726 46.63315 
L 66.126141 47.361363 
L 66.354143 48.089575 
L 66.57949 48.817787 
L 66.80229 49.545999 
L 67.022905 50.274211 
L 67.241828 51.002423 
L 67.459548 51.730635 
L 67.676416 52.458847 
L 67.892527 53.187059 
L 68.107628 53.915271 
L 68.321058 54.643483 
L 68.53174 55.371695 
L 68.738208 56.099907 
L 68.938687 56.828119 
L 69.131207 57.556331 
L 69.313754 58.284543 
L 69.484448 59.012755 
L 69.641726 59.740968 
L 69.784541 60.46918 
L 69.912534 61.197392 
L 70.026193 61.925604 
L 70.126963 62.653816 
L 70.217305 63.382028 
L 70.300692 64.11024 
L 70.381523 64.838452 
L 70.464963 65.566664 
L 70.556697 66.294876 
L 70.662614 67.023088 
L 70.788434 67.7513 
L 70.939292 68.479512 
L 71.119323 69.207724 
L 71.331262 69.935936 
L 71.576106 70.664148 
L 71.852865 71.39236 
L 72.158434 72.120573 
L 72.487589 72.848785 
L 72.833142 73.576997 
L 73.186225 74.305209 
L 73.536697 75.033421 
L 73.873646 75.761633 
L 74.185948 76.489845 
L 74.462843 77.218057 
L 74.694473 77.946269 
L 74.872359 78.674481 
L 74.989776 79.402693 
L 75.042 80.130905 
L 75.026417 80.859117 
L 74.942502 81.587329 
L 74.791674 82.315541 
L 74.577049 83.043753 
L 74.303127 83.771965 
L 73.975435 84.500178 
L 73.600171 85.22839 
L 73.183867 85.956602 
L 72.733103 86.684814 
L 72.254279 87.413026 
L 71.753468 88.141238 
L 71.236324 88.86945 
L 70.708067 89.597662 
L 70.173508 90.325874 
L 69.637105 91.054086 
L 69.103035 91.782298 
L 68.575262 92.51051 
L 68.057581 93.238722 
L 67.553645 93.966934 
L 67.066949 94.695146 
L 66.60079 95.423358 
L 66.158201 96.15157 
L 65.741867 96.879783 
L 65.354039 97.607995 
L 64.99645 98.336207 
L 64.670256 99.064419 
L 64.375995 99.792631 
L 64.113578 100.520843 
L 63.882315 101.249055 
L 63.680969 101.977267 
L 63.507829 102.705479 
L 63.360813 103.433691 
L 63.237568 104.161903 
L 63.135584 104.890115 
L 63.052293 105.618327 
z
" clip-path="url(#p470a64d458)" style="fill: #74808c; fill-opacity: 0.35"/>
   </g>
   <g id="PolyCollection_3">
    <path d="M 99.685646 123.12 
L 99.502354 123.12 
L 99.471173 122.13356 
L 99.433153 121.14712 
L 99.388186 120.16068 
L 99.336677 119.17424 
L 99.279639 118.187799 
L 99.218744 117.201359 
L 99.156292 116.214919 
L 99.095103 115.228479 
L 99.038319 114.242039 
L 98.989131 113.255599 
L 98.950467 112.269159 
L 98.924673 111.282719 
L 98.913227 110.296278 
L 98.916535 109.309838 
L 98.93383 108.323398 
L 98.963198 107.336958 
L 99.001719 106.350518 
L 99.045702 105.364078 
L 99.090995 104.377638 
L 99.133309 103.391198 
L 99.168532 102.404757 
L 99.192998 101.418317 
L 99.203669 100.431877 
L 99.198242 99.445437 
L 99.175142 98.458997 
L 99.133423 97.472557 
L 99.072586 96.486117 
L 98.992309 95.499677 
L 98.892139 94.513236 
L 98.771171 93.526796 
L 98.627751 92.540356 
L 98.459274 91.553916 
L 98.262117 90.567476 
L 98.031747 89.581036 
L 97.763038 88.594596 
L 97.45077 87.608156 
L 97.090287 86.621715 
L 96.678218 85.635275 
L 96.213166 84.648835 
L 95.696267 83.662395 
L 95.131503 82.675955 
L 94.525714 81.689515 
L 93.888298 80.703075 
L 93.230621 79.716635 
L 92.565221 78.730194 
L 91.904936 77.743754 
L 91.262065 76.757314 
L 90.64769 75.770874 
L 90.071227 74.784434 
L 89.54024 73.797994 
L 89.06048 72.811554 
L 88.63609 71.825114 
L 88.269874 70.838673 
L 87.963527 69.852233 
L 87.717767 68.865793 
L 87.532334 67.879353 
L 87.40587 66.892913 
L 87.335758 65.906473 
L 87.318 64.920033 
L 87.347244 63.933593 
L 87.417014 62.947152 
L 87.520192 61.960712 
L 87.649705 60.974272 
L 87.799345 59.987832 
L 87.964587 59.001392 
L 88.143262 58.014952 
L 88.335943 57.028512 
L 88.545951 56.042072 
L 88.77893 55.055631 
L 89.042034 54.069191 
L 89.342832 53.082751 
L 89.688067 52.096311 
L 90.082485 51.109871 
L 90.527887 50.123431 
L 91.022566 49.136991 
L 91.56121 48.150551 
L 92.13526 47.16411 
L 92.733684 46.17767 
L 93.344 45.19123 
L 93.95342 44.20479 
L 94.549911 43.21835 
L 95.123064 42.23191 
L 95.664655 41.24547 
L 96.168877 40.25903 
L 96.63227 39.27259 
L 97.053416 38.286149 
L 97.4325 37.299709 
L 97.770824 36.313269 
L 98.07038 35.326829 
L 98.333504 34.340389 
L 98.562658 33.353949 
L 98.760317 32.367509 
L 98.928941 31.381069 
L 99.070992 30.394628 
L 99.188964 29.408188 
L 99.285403 28.421748 
L 99.362888 27.435308 
L 99.424004 26.448868 
L 99.471273 25.462428 
L 99.716727 25.462428 
L 99.716727 25.462428 
L 99.763996 26.448868 
L 99.825112 27.435308 
L 99.902597 28.421748 
L 99.999036 29.408188 
L 100.117008 30.394628 
L 100.259059 31.381069 
L 100.427683 32.367509 
L 100.625342 33.353949 
L 100.854496 34.340389 
L 101.11762 35.326829 
L 101.417176 36.313269 
L 101.7555 37.299709 
L 102.134584 38.286149 
L 102.55573 39.27259 
L 103.019123 40.25903 
L 103.523345 41.24547 
L 104.064936 42.23191 
L 104.638089 43.21835 
L 105.23458 44.20479 
L 105.844 45.19123 
L 106.454316 46.17767 
L 107.05274 47.16411 
L 107.62679 48.150551 
L 108.165434 49.136991 
L 108.660113 50.123431 
L 109.105515 51.109871 
L 109.499933 52.096311 
L 109.845168 53.082751 
L 110.145966 54.069191 
L 110.40907 55.055631 
L 110.642049 56.042072 
L 110.852057 57.028512 
L 111.044738 58.014952 
L 111.223413 59.001392 
L 111.388655 59.987832 
L 111.538295 60.974272 
L 111.667808 61.960712 
L 111.770986 62.947152 
L 111.840756 63.933593 
L 111.87 64.920033 
L 111.852242 65.906473 
L 111.78213 66.892913 
L 111.655666 67.879353 
L 111.470233 68.865793 
L 111.224473 69.852233 
L 110.918126 70.838673 
L 110.55191 71.825114 
L 110.12752 72.811554 
L 109.64776 73.797994 
L 109.116773 74.784434 
L 108.54031 75.770874 
L 107.925935 76.757314 
L 107.283064 77.743754 
L 106.622779 78.730194 
L 105.957379 79.716635 
L 105.299702 80.703075 
L 104.662286 81.689515 
L 104.056497 82.675955 
L 103.491733 83.662395 
L 102.974834 84.648835 
L 102.509782 85.635275 
L 102.097713 86.621715 
L 101.73723 87.608156 
L 101.424962 88.594596 
L 101.156253 89.581036 
L 100.925883 90.567476 
L 100.728726 91.553916 
L 100.560249 92.540356 
L 100.416829 93.526796 
L 100.295861 94.513236 
L 100.195691 95.499677 
L 100.115414 96.486117 
L 100.054577 97.472557 
L 100.012858 98.458997 
L 99.989758 99.445437 
L 99.984331 100.431877 
L 99.995002 101.418317 
L 100.019468 102.404757 
L 100.054691 103.391198 
L 100.097005 104.377638 
L 100.142298 105.364078 
L 100.186281 106.350518 
L 100.224802 107.336958 
L 100.25417 108.323398 
L 100.271465 109.309838 
L 100.274773 110.296278 
L 100.263327 111.282719 
L 100.237533 112.269159 
L 100.198869 113.255599 
L 100.149681 114.242039 
L 100.092897 115.228479 
L 100.031708 116.214919 
L 99.969256 117.201359 
L 99.908361 118.187799 
L 99.851323 119.17424 
L 99.799814 120.16068 
L 99.754847 121.14712 
L 99.716827 122.13356 
L 99.685646 123.12 
z
" clip-path="url(#p470a64d458)" style="fill: #b69595; fill-opacity: 0.35"/>
   </g>
   <g id="PolyCollection_4">
    <path d="M 124.256831 109.272647 
L 124.035169 109.272647 
L 123.996462 108.394337 
L 123.947719 107.516028 
L 123.887518 106.637718 
L 123.814551 105.759409 
L 123.7277 104.881099 
L 123.626084 104.00279 
L 123.509082 103.12448 
L 123.376313 102.24617 
L 123.22757 101.367861 
L 123.062718 100.489551 
L 122.881556 99.611242 
L 122.683681 98.732932 
L 122.468361 97.854623 
L 122.234457 96.976313 
L 121.980412 96.098003 
L 121.704324 95.219694 
L 121.404108 94.341384 
L 121.077734 93.463075 
L 120.723518 92.584765 
L 120.340431 91.706456 
L 119.928397 90.828146 
L 119.488525 89.949837 
L 119.023266 89.071527 
L 118.536458 88.193217 
L 118.033261 87.314908 
L 117.519982 86.436598 
L 117.003804 85.558289 
L 116.492437 84.679979 
L 115.993712 83.80167 
L 115.515144 82.92336 
L 115.063482 82.04505 
L 114.644291 81.166741 
L 114.261584 80.288431 
L 113.917551 79.410122 
L 113.612426 78.531812 
L 113.344531 77.653503 
L 113.110513 76.775193 
L 112.905784 75.896883 
L 112.725137 75.018574 
L 112.563495 74.140264 
L 112.416687 73.261955 
L 112.282187 72.383645 
L 112.159677 71.505336 
L 112.051378 70.627026 
L 111.962061 69.748717 
L 111.89873 68.870407 
L 111.87 67.992097 
L 111.885228 67.113788 
L 111.95351 66.235478 
L 112.082652 65.357169 
L 112.278252 64.478859 
L 112.542986 63.60055 
L 112.876186 62.72224 
L 113.273758 61.84393 
L 113.728424 60.965621 
L 114.230268 60.087311 
L 114.767494 59.209002 
L 115.327335 58.330692 
L 115.896968 57.452383 
L 116.464386 56.574073 
L 117.019093 55.695763 
L 117.552611 54.817454 
L 118.058729 53.939144 
L 118.53352 53.060835 
L 118.975148 52.182525 
L 119.383515 51.304216 
L 119.759807 50.425906 
L 120.106026 49.547597 
L 120.424543 48.669287 
L 120.717742 47.790977 
L 120.987769 46.912668 
L 121.236412 46.034358 
L 121.465078 45.156049 
L 121.674875 44.277739 
L 121.866735 43.39943 
L 122.041573 42.52112 
L 122.200429 41.64281 
L 122.344568 40.764501 
L 122.475535 39.886191 
L 122.595141 39.007882 
L 122.705394 38.129572 
L 122.808377 37.251263 
L 122.906103 36.372953 
L 123.00036 35.494643 
L 123.092566 34.616334 
L 123.183671 33.738024 
L 123.274098 32.859715 
L 123.363748 31.981405 
L 123.45206 31.103096 
L 123.538121 30.224786 
L 123.6208 29.346477 
L 123.698902 28.468167 
L 123.771311 27.589857 
L 123.837108 26.711548 
L 123.895658 25.833238 
L 123.946646 24.954929 
L 123.990087 24.076619 
L 124.026286 23.19831 
L 124.055785 22.32 
L 124.236215 22.32 
L 124.236215 22.32 
L 124.265714 23.19831 
L 124.301913 24.076619 
L 124.345354 24.954929 
L 124.396342 25.833238 
L 124.454892 26.711548 
L 124.520689 27.589857 
L 124.593098 28.468167 
L 124.6712 29.346477 
L 124.753879 30.224786 
L 124.83994 31.103096 
L 124.928252 31.981405 
L 125.017902 32.859715 
L 125.108329 33.738024 
L 125.199434 34.616334 
L 125.29164 35.494643 
L 125.385897 36.372953 
L 125.483623 37.251263 
L 125.586606 38.129572 
L 125.696859 39.007882 
L 125.816465 39.886191 
L 125.947432 40.764501 
L 126.091571 41.64281 
L 126.250427 42.52112 
L 126.425265 43.39943 
L 126.617125 44.277739 
L 126.826922 45.156049 
L 127.055588 46.034358 
L 127.304231 46.912668 
L 127.574258 47.790977 
L 127.867457 48.669287 
L 128.185974 49.547597 
L 128.532193 50.425906 
L 128.908485 51.304216 
L 129.316852 52.182525 
L 129.75848 53.060835 
L 130.233271 53.939144 
L 130.739389 54.817454 
L 131.272907 55.695763 
L 131.827614 56.574073 
L 132.395032 57.452383 
L 132.964665 58.330692 
L 133.524506 59.209002 
L 134.061732 60.087311 
L 134.563576 60.965621 
L 135.018242 61.84393 
L 135.415814 62.72224 
L 135.749014 63.60055 
L 136.013748 64.478859 
L 136.209348 65.357169 
L 136.33849 66.235478 
L 136.406772 67.113788 
L 136.422 67.992097 
L 136.39327 68.870407 
L 136.329939 69.748717 
L 136.240622 70.627026 
L 136.132323 71.505336 
L 136.009813 72.383645 
L 135.875313 73.261955 
L 135.728505 74.140264 
L 135.566863 75.018574 
L 135.386216 75.896883 
L 135.181487 76.775193 
L 134.947469 77.653503 
L 134.679574 78.531812 
L 134.374449 79.410122 
L 134.030416 80.288431 
L 133.647709 81.166741 
L 133.228518 82.04505 
L 132.776856 82.92336 
L 132.298288 83.80167 
L 131.799563 84.679979 
L 131.288196 85.558289 
L 130.772018 86.436598 
L 130.258739 87.314908 
L 129.755542 88.193217 
L 129.268734 89.071527 
L 128.803475 89.949837 
L 128.363603 90.828146 
L 127.951569 91.706456 
L 127.568482 92.584765 
L 127.214266 93.463075 
L 126.887892 94.341384 
L 126.587676 95.219694 
L 126.311588 96.098003 
L 126.057543 96.976313 
L 125.823639 97.854623 
L 125.608319 98.732932 
L 125.410444 99.611242 
L 125.229282 100.489551 
L 125.06443 101.367861 
L 124.915687 102.24617 
L 124.782918 103.12448 
L 124.665916 104.00279 
L 124.5643 104.881099 
L 124.477449 105.759409 
L 124.404482 106.637718 
L 124.344281 107.516028 
L 124.295538 108.394337 
L 124.256831 109.272647 
z
" clip-path="url(#p470a64d458)" style="fill: #74808c; fill-opacity: 0.35"/>
   </g>
   <g id="patch_3">
    <path d="M 25.938 76.178967 
L 50.49 76.178967 
L 50.49 64.925053 
L 25.938 64.925053 
L 25.938 76.178967 
z
" clip-path="url(#p470a64d458)" style="fill: none"/>
   </g>
   <g id="patch_4">
    <path d="M 87.318 76.178967 
L 111.87 76.178967 
L 111.87 63.885549 
L 87.318 63.885549 
L 87.318 76.178967 
z
" clip-path="url(#p470a64d458)" style="fill: none"/>
   </g>
   <g id="patch_5">
    <path d="M 50.49 76.178967 
L 75.042 76.178967 
L 75.042 73.167551 
L 50.49 73.167551 
L 50.49 76.178967 
z
" clip-path="url(#p470a64d458)" style="fill: none"/>
   </g>
   <g id="patch_6">
    <path d="M 111.87 76.178967 
L 136.422 76.178967 
L 136.422 69.383055 
L 111.87 69.383055 
L 111.87 76.178967 
z
" clip-path="url(#p470a64d458)" style="fill: none"/>
   </g>
   <g id="patch_7">
    <path d="M 50.49 76.178967 
L 50.49 76.178967 
L 50.49 76.178967 
L 50.49 76.178967 
z
" clip-path="url(#p470a64d458)" style="fill: #3274a1"/>
   </g>
   <g id="patch_8">
    <path d="M 50.49 76.178967 
L 50.49 76.178967 
L 50.49 76.178967 
L 50.49 76.178967 
z
" clip-path="url(#p470a64d458)" style="fill: #e1812c"/>
   </g>
   <g id="matplotlib.axis_1">
    <g id="xtick_1">
     <g id="line2d_1">
      <defs>
       <path id="m90a5001785" d="M 0 0 
L 0 3.5 
" style="stroke: #000000; stroke-width: 1.5"/>
      </defs>
      <g>
       <use xlink:href="#m90a5001785" x="50.49" y="128.16" style="stroke: #000000; stroke-width: 1.5"/>
      </g>
     </g>
     <g id="text_1">
      <!-- HC -->
      <g transform="translate(43.268125 142.317813) scale(0.1 -0.1)">
       <defs>
        <path id="Arial-BoldMT-48" d="M 469 0 
L 469 4581 
L 1394 4581 
L 1394 2778 
L 3206 2778 
L 3206 4581 
L 4131 4581 
L 4131 0 
L 3206 0 
L 3206 2003 
L 1394 2003 
L 1394 0 
L 469 0 
z
" transform="scale(0.015625)"/>
        <path id="Arial-BoldMT-43" d="M 3397 1684 
L 4294 1400 
Q 4088 650 3608 286 
Q 3128 -78 2391 -78 
Q 1478 -78 890 545 
Q 303 1169 303 2250 
Q 303 3394 893 4026 
Q 1484 4659 2447 4659 
Q 3288 4659 3813 4163 
Q 4125 3869 4281 3319 
L 3366 3100 
Q 3284 3456 3026 3662 
Q 2769 3869 2400 3869 
Q 1891 3869 1573 3503 
Q 1256 3138 1256 2319 
Q 1256 1450 1568 1081 
Q 1881 713 2381 713 
Q 2750 713 3015 947 
Q 3281 1181 3397 1684 
z
" transform="scale(0.015625)"/>
       </defs>
       <use xlink:href="#Arial-BoldMT-48"/>
       <use xlink:href="#Arial-BoldMT-43" x="72.216797"/>
      </g>
     </g>
    </g>
    <g id="xtick_2">
     <g id="line2d_2">
      <g>
       <use xlink:href="#m90a5001785" x="111.87" y="128.16" style="stroke: #000000; stroke-width: 1.5"/>
      </g>
     </g>
     <g id="text_2">
      <!-- ND -->
      <g transform="translate(104.648125 142.317813) scale(0.1 -0.1)">
       <defs>
        <path id="Arial-BoldMT-4e" d="M 475 0 
L 475 4581 
L 1375 4581 
L 3250 1522 
L 3250 4581 
L 4109 4581 
L 4109 0 
L 3181 0 
L 1334 2988 
L 1334 0 
L 475 0 
z
" transform="scale(0.015625)"/>
        <path id="Arial-BoldMT-44" d="M 463 4581 
L 2153 4581 
Q 2725 4581 3025 4494 
Q 3428 4375 3715 4072 
Q 4003 3769 4153 3330 
Q 4303 2891 4303 2247 
Q 4303 1681 4163 1272 
Q 3991 772 3672 463 
Q 3431 228 3022 97 
Q 2716 0 2203 0 
L 463 0 
L 463 4581 
z
M 1388 3806 
L 1388 772 
L 2078 772 
Q 2466 772 2638 816 
Q 2863 872 3011 1006 
Q 3159 1141 3253 1448 
Q 3347 1756 3347 2288 
Q 3347 2819 3253 3103 
Q 3159 3388 2990 3547 
Q 2822 3706 2563 3763 
Q 2369 3806 1803 3806 
L 1388 3806 
z
" transform="scale(0.015625)"/>
       </defs>
       <use xlink:href="#Arial-BoldMT-4e"/>
       <use xlink:href="#Arial-BoldMT-44" x="72.216797"/>
      </g>
     </g>
    </g>
   </g>
   <g id="matplotlib.axis_2">
    <g id="ytick_1">
     <g id="line2d_3">
      <defs>
       <path id="m2c82a05f83" d="M 0 0 
L -3.5 0 
" style="stroke: #000000; stroke-width: 1.5"/>
      </defs>
      <g>
       <use xlink:href="#m2c82a05f83" x="19.8" y="123.372803" style="stroke: #000000; stroke-width: 1.5"/>
      </g>
     </g>
     <g id="text_3">
      <!-- −0.50 -->
      <g transform="translate(-12.501563 126.951709) scale(0.1 -0.1)">
       <defs>
        <path id="Arial-BoldMT-2212" d="M 266 1850 
L 266 2672 
L 3469 2672 
L 3469 1850 
L 266 1850 
z
" transform="scale(0.015625)"/>
        <path id="Arial-BoldMT-30" d="M 1756 4600 
Q 2422 4600 2797 4125 
Q 3244 3563 3244 2259 
Q 3244 959 2794 391 
Q 2422 -78 1756 -78 
Q 1088 -78 678 436 
Q 269 950 269 2269 
Q 269 3563 719 4131 
Q 1091 4600 1756 4600 
z
M 1756 3872 
Q 1597 3872 1472 3770 
Q 1347 3669 1278 3406 
Q 1188 3066 1188 2259 
Q 1188 1453 1269 1151 
Q 1350 850 1473 750 
Q 1597 650 1756 650 
Q 1916 650 2041 751 
Q 2166 853 2234 1116 
Q 2325 1453 2325 2259 
Q 2325 3066 2244 3367 
Q 2163 3669 2039 3770 
Q 1916 3872 1756 3872 
z
" transform="scale(0.015625)"/>
        <path id="Arial-BoldMT-2e" d="M 459 0 
L 459 878 
L 1338 878 
L 1338 0 
L 459 0 
z
" transform="scale(0.015625)"/>
        <path id="Arial-BoldMT-35" d="M 284 1178 
L 1159 1269 
Q 1197 972 1381 798 
Q 1566 625 1806 625 
Q 2081 625 2272 848 
Q 2463 1072 2463 1522 
Q 2463 1944 2273 2155 
Q 2084 2366 1781 2366 
Q 1403 2366 1103 2031 
L 391 2134 
L 841 4519 
L 3163 4519 
L 3163 3697 
L 1506 3697 
L 1369 2919 
Q 1663 3066 1969 3066 
Q 2553 3066 2959 2641 
Q 3366 2216 3366 1538 
Q 3366 972 3038 528 
Q 2591 -78 1797 -78 
Q 1163 -78 763 262 
Q 363 603 284 1178 
z
" transform="scale(0.015625)"/>
       </defs>
       <use xlink:href="#Arial-BoldMT-2212"/>
       <use xlink:href="#Arial-BoldMT-30" x="58.398438"/>
       <use xlink:href="#Arial-BoldMT-2e" x="114.013672"/>
       <use xlink:href="#Arial-BoldMT-35" x="141.796875"/>
       <use xlink:href="#Arial-BoldMT-30" x="197.412109"/>
      </g>
     </g>
    </g>
    <g id="ytick_2">
     <g id="line2d_4">
      <g>
       <use xlink:href="#m2c82a05f83" x="19.8" y="99.775885" style="stroke: #000000; stroke-width: 1.5"/>
      </g>
     </g>
     <g id="text_4">
      <!-- −0.25 -->
      <g transform="translate(-12.501563 103.354791) scale(0.1 -0.1)">
       <defs>
        <path id="Arial-BoldMT-32" d="M 3238 816 
L 3238 0 
L 159 0 
Q 209 463 459 877 
Q 709 1291 1447 1975 
Q 2041 2528 2175 2725 
Q 2356 2997 2356 3263 
Q 2356 3556 2198 3714 
Q 2041 3872 1763 3872 
Q 1488 3872 1325 3706 
Q 1163 3541 1138 3156 
L 263 3244 
Q 341 3969 753 4284 
Q 1166 4600 1784 4600 
Q 2463 4600 2850 4234 
Q 3238 3869 3238 3325 
Q 3238 3016 3127 2736 
Q 3016 2456 2775 2150 
Q 2616 1947 2200 1565 
Q 1784 1184 1673 1059 
Q 1563 934 1494 816 
L 3238 816 
z
" transform="scale(0.015625)"/>
       </defs>
       <use xlink:href="#Arial-BoldMT-2212"/>
       <use xlink:href="#Arial-BoldMT-30" x="58.398438"/>
       <use xlink:href="#Arial-BoldMT-2e" x="114.013672"/>
       <use xlink:href="#Arial-BoldMT-32" x="141.796875"/>
       <use xlink:href="#Arial-BoldMT-35" x="197.412109"/>
      </g>
     </g>
    </g>
    <g id="ytick_3">
     <g id="line2d_5">
      <g>
       <use xlink:href="#m2c82a05f83" x="19.8" y="76.178967" style="stroke: #000000; stroke-width: 1.5"/>
      </g>
     </g>
     <g id="text_5">
      <!-- 0.00 -->
      <g transform="translate(-6.660937 79.757874) scale(0.1 -0.1)">
       <use xlink:href="#Arial-BoldMT-30"/>
       <use xlink:href="#Arial-BoldMT-2e" x="55.615234"/>
       <use xlink:href="#Arial-BoldMT-30" x="83.398438"/>
       <use xlink:href="#Arial-BoldMT-30" x="139.013672"/>
      </g>
     </g>
    </g>
    <g id="ytick_4">
     <g id="line2d_6">
      <g>
       <use xlink:href="#m2c82a05f83" x="19.8" y="52.58205" style="stroke: #000000; stroke-width: 1.5"/>
      </g>
     </g>
     <g id="text_6">
      <!-- 0.25 -->
      <g transform="translate(-6.660937 56.160956) scale(0.1 -0.1)">
       <use xlink:href="#Arial-BoldMT-30"/>
       <use xlink:href="#Arial-BoldMT-2e" x="55.615234"/>
       <use xlink:href="#Arial-BoldMT-32" x="83.398438"/>
       <use xlink:href="#Arial-BoldMT-35" x="139.013672"/>
      </g>
     </g>
    </g>
    <g id="ytick_5">
     <g id="line2d_7">
      <g>
       <use xlink:href="#m2c82a05f83" x="19.8" y="28.985132" style="stroke: #000000; stroke-width: 1.5"/>
      </g>
     </g>
     <g id="text_7">
      <!-- 0.50 -->
      <g transform="translate(-6.660937 32.564038) scale(0.1 -0.1)">
       <use xlink:href="#Arial-BoldMT-30"/>
       <use xlink:href="#Arial-BoldMT-2e" x="55.615234"/>
       <use xlink:href="#Arial-BoldMT-35" x="83.398438"/>
       <use xlink:href="#Arial-BoldMT-30" x="139.013672"/>
      </g>
     </g>
    </g>
    <g id="text_8">
     <!--  MF score (a.u.) -->
     <g transform="translate(-18.60625 109.389531) rotate(-90) scale(0.1 -0.1)">
      <defs>
       <path id="Arial-BoldMT-20" transform="scale(0.015625)"/>
       <path id="Arial-BoldMT-4d" d="M 453 0 
L 453 4581 
L 1838 4581 
L 2669 1456 
L 3491 4581 
L 4878 4581 
L 4878 0 
L 4019 0 
L 4019 3606 
L 3109 0 
L 2219 0 
L 1313 3606 
L 1313 0 
L 453 0 
z
" transform="scale(0.015625)"/>
       <path id="Arial-BoldMT-46" d="M 472 0 
L 472 4581 
L 3613 4581 
L 3613 3806 
L 1397 3806 
L 1397 2722 
L 3309 2722 
L 3309 1947 
L 1397 1947 
L 1397 0 
L 472 0 
z
" transform="scale(0.015625)"/>
       <path id="Arial-BoldMT-73" d="M 150 947 
L 1031 1081 
Q 1088 825 1259 692 
Q 1431 559 1741 559 
Q 2081 559 2253 684 
Q 2369 772 2369 919 
Q 2369 1019 2306 1084 
Q 2241 1147 2013 1200 
Q 950 1434 666 1628 
Q 272 1897 272 2375 
Q 272 2806 612 3100 
Q 953 3394 1669 3394 
Q 2350 3394 2681 3172 
Q 3013 2950 3138 2516 
L 2309 2363 
Q 2256 2556 2107 2659 
Q 1959 2763 1684 2763 
Q 1338 2763 1188 2666 
Q 1088 2597 1088 2488 
Q 1088 2394 1175 2328 
Q 1294 2241 1995 2081 
Q 2697 1922 2975 1691 
Q 3250 1456 3250 1038 
Q 3250 581 2869 253 
Q 2488 -75 1741 -75 
Q 1063 -75 667 200 
Q 272 475 150 947 
z
" transform="scale(0.015625)"/>
       <path id="Arial-BoldMT-63" d="M 3353 2338 
L 2488 2181 
Q 2444 2441 2289 2572 
Q 2134 2703 1888 2703 
Q 1559 2703 1364 2476 
Q 1169 2250 1169 1719 
Q 1169 1128 1367 884 
Q 1566 641 1900 641 
Q 2150 641 2309 783 
Q 2469 925 2534 1272 
L 3397 1125 
Q 3263 531 2881 228 
Q 2500 -75 1859 -75 
Q 1131 -75 698 384 
Q 266 844 266 1656 
Q 266 2478 700 2936 
Q 1134 3394 1875 3394 
Q 2481 3394 2839 3133 
Q 3197 2872 3353 2338 
z
" transform="scale(0.015625)"/>
       <path id="Arial-BoldMT-6f" d="M 256 1706 
Q 256 2144 472 2553 
Q 688 2963 1083 3178 
Q 1478 3394 1966 3394 
Q 2719 3394 3200 2905 
Q 3681 2416 3681 1669 
Q 3681 916 3195 420 
Q 2709 -75 1972 -75 
Q 1516 -75 1102 131 
Q 688 338 472 736 
Q 256 1134 256 1706 
z
M 1156 1659 
Q 1156 1166 1390 903 
Q 1625 641 1969 641 
Q 2313 641 2545 903 
Q 2778 1166 2778 1666 
Q 2778 2153 2545 2415 
Q 2313 2678 1969 2678 
Q 1625 2678 1390 2415 
Q 1156 2153 1156 1659 
z
" transform="scale(0.015625)"/>
       <path id="Arial-BoldMT-72" d="M 1300 0 
L 422 0 
L 422 3319 
L 1238 3319 
L 1238 2847 
Q 1447 3181 1614 3287 
Q 1781 3394 1994 3394 
Q 2294 3394 2572 3228 
L 2300 2463 
Q 2078 2606 1888 2606 
Q 1703 2606 1575 2504 
Q 1447 2403 1373 2137 
Q 1300 1872 1300 1025 
L 1300 0 
z
" transform="scale(0.015625)"/>
       <path id="Arial-BoldMT-65" d="M 2381 1056 
L 3256 909 
Q 3088 428 2723 176 
Q 2359 -75 1813 -75 
Q 947 -75 531 491 
Q 203 944 203 1634 
Q 203 2459 634 2926 
Q 1066 3394 1725 3394 
Q 2466 3394 2894 2905 
Q 3322 2416 3303 1406 
L 1103 1406 
Q 1113 1016 1316 798 
Q 1519 581 1822 581 
Q 2028 581 2168 693 
Q 2309 806 2381 1056 
z
M 2431 1944 
Q 2422 2325 2234 2523 
Q 2047 2722 1778 2722 
Q 1491 2722 1303 2513 
Q 1116 2303 1119 1944 
L 2431 1944 
z
" transform="scale(0.015625)"/>
       <path id="Arial-BoldMT-28" d="M 1916 -1347 
L 1313 -1347 
Q 834 -625 584 153 
Q 334 931 334 1659 
Q 334 2563 644 3369 
Q 913 4069 1325 4659 
L 1925 4659 
Q 1497 3713 1336 3048 
Q 1175 2384 1175 1641 
Q 1175 1128 1270 590 
Q 1366 53 1531 -431 
Q 1641 -750 1916 -1347 
z
" transform="scale(0.015625)"/>
       <path id="Arial-BoldMT-61" d="M 1116 2306 
L 319 2450 
Q 453 2931 781 3162 
Q 1109 3394 1756 3394 
Q 2344 3394 2631 3255 
Q 2919 3116 3036 2902 
Q 3153 2688 3153 2116 
L 3144 1091 
Q 3144 653 3186 445 
Q 3228 238 3344 0 
L 2475 0 
Q 2441 88 2391 259 
Q 2369 338 2359 363 
Q 2134 144 1878 34 
Q 1622 -75 1331 -75 
Q 819 -75 523 203 
Q 228 481 228 906 
Q 228 1188 362 1408 
Q 497 1628 739 1745 
Q 981 1863 1438 1950 
Q 2053 2066 2291 2166 
L 2291 2253 
Q 2291 2506 2166 2614 
Q 2041 2722 1694 2722 
Q 1459 2722 1328 2630 
Q 1197 2538 1116 2306 
z
M 2291 1594 
Q 2122 1538 1756 1459 
Q 1391 1381 1278 1306 
Q 1106 1184 1106 997 
Q 1106 813 1243 678 
Q 1381 544 1594 544 
Q 1831 544 2047 700 
Q 2206 819 2256 991 
Q 2291 1103 2291 1419 
L 2291 1594 
z
" transform="scale(0.015625)"/>
       <path id="Arial-BoldMT-75" d="M 2644 0 
L 2644 497 
Q 2463 231 2167 78 
Q 1872 -75 1544 -75 
Q 1209 -75 943 72 
Q 678 219 559 484 
Q 441 750 441 1219 
L 441 3319 
L 1319 3319 
L 1319 1794 
Q 1319 1094 1367 936 
Q 1416 778 1544 686 
Q 1672 594 1869 594 
Q 2094 594 2272 717 
Q 2450 841 2515 1023 
Q 2581 1206 2581 1919 
L 2581 3319 
L 3459 3319 
L 3459 0 
L 2644 0 
z
" transform="scale(0.015625)"/>
       <path id="Arial-BoldMT-29" d="M 216 -1347 
Q 475 -791 581 -494 
Q 688 -197 778 190 
Q 869 578 912 926 
Q 956 1275 956 1641 
Q 956 2384 797 3048 
Q 638 3713 209 4659 
L 806 4659 
Q 1278 3988 1539 3234 
Q 1800 2481 1800 1706 
Q 1800 1053 1594 306 
Q 1359 -531 822 -1347 
L 216 -1347 
z
" transform="scale(0.015625)"/>
      </defs>
      <use xlink:href="#Arial-BoldMT-20"/>
      <use xlink:href="#Arial-BoldMT-4d" x="27.783203"/>
      <use xlink:href="#Arial-BoldMT-46" x="111.083984"/>
      <use xlink:href="#Arial-BoldMT-20" x="172.167969"/>
      <use xlink:href="#Arial-BoldMT-73" x="199.951172"/>
      <use xlink:href="#Arial-BoldMT-63" x="255.566406"/>
      <use xlink:href="#Arial-BoldMT-6f" x="311.181641"/>
      <use xlink:href="#Arial-BoldMT-72" x="372.265625"/>
      <use xlink:href="#Arial-BoldMT-65" x="411.181641"/>
      <use xlink:href="#Arial-BoldMT-20" x="466.796875"/>
      <use xlink:href="#Arial-BoldMT-28" x="494.580078"/>
      <use xlink:href="#Arial-BoldMT-61" x="527.880859"/>
      <use xlink:href="#Arial-BoldMT-2e" x="583.496094"/>
      <use xlink:href="#Arial-BoldMT-75" x="611.279297"/>
      <use xlink:href="#Arial-BoldMT-2e" x="672.363281"/>
      <use xlink:href="#Arial-BoldMT-29" x="700.146484"/>
     </g>
    </g>
   </g>
   <g id="PathCollection_1">
    <defs>
     <path id="C0_0_a299b2dd11" d="M 0 3.5 
C 0.928211 3.5 1.81853 3.131218 2.474874 2.474874 
C 3.131218 1.81853 3.5 0.928211 3.5 -0 
C 3.5 -0.928211 3.131218 -1.81853 2.474874 -2.474874 
C 1.81853 -3.131218 0.928211 -3.5 0 -3.5 
C -0.928211 -3.5 -1.81853 -3.131218 -2.474874 -2.474874 
C -3.131218 -1.81853 -3.5 -0.928211 -3.5 0 
C -3.5 0.928211 -3.131218 1.81853 -2.474874 2.474874 
C -1.81853 3.131218 -0.928211 3.5 0 3.5 
z
"/>
    </defs>
    <g clip-path="url(#p470a64d458)">
     <use xlink:href="#C0_0_a299b2dd11" x="40.187505" y="59.189187" style="fill: #bc8f8f; fill-opacity: 0.7"/>
    </g>
    <g clip-path="url(#p470a64d458)">
     <use xlink:href="#C0_0_a299b2dd11" x="39.430609" y="93.168748" style="fill: #bc8f8f; fill-opacity: 0.7"/>
    </g>
    <g clip-path="url(#p470a64d458)">
     <use xlink:href="#C0_0_a299b2dd11" x="39.851938" y="51.638173" style="fill: #bc8f8f; fill-opacity: 0.7"/>
    </g>
    <g clip-path="url(#p470a64d458)">
     <use xlink:href="#C0_0_a299b2dd11" x="35.801774" y="72.40346" style="fill: #bc8f8f; fill-opacity: 0.7"/>
    </g>
    <g clip-path="url(#p470a64d458)">
     <use xlink:href="#C0_0_a299b2dd11" x="41.052022" y="59.189187" style="fill: #bc8f8f; fill-opacity: 0.7"/>
    </g>
    <g clip-path="url(#p470a64d458)">
     <use xlink:href="#C0_0_a299b2dd11" x="39.895211" y="70.515707" style="fill: #bc8f8f; fill-opacity: 0.7"/>
    </g>
    <g clip-path="url(#p470a64d458)">
     <use xlink:href="#C0_0_a299b2dd11" x="37.191669" y="57.301433" style="fill: #bc8f8f; fill-opacity: 0.7"/>
    </g>
    <g clip-path="url(#p470a64d458)">
     <use xlink:href="#C0_0_a299b2dd11" x="38.252768" y="51.638173" style="fill: #bc8f8f; fill-opacity: 0.7"/>
    </g>
    <g clip-path="url(#p470a64d458)">
     <use xlink:href="#C0_0_a299b2dd11" x="40.89326" y="79.954474" style="fill: #bc8f8f; fill-opacity: 0.7"/>
    </g>
    <g clip-path="url(#p470a64d458)">
     <use xlink:href="#C0_0_a299b2dd11" x="38.381885" y="61.07694" style="fill: #bc8f8f; fill-opacity: 0.7"/>
    </g>
    <g clip-path="url(#p470a64d458)">
     <use xlink:href="#C0_0_a299b2dd11" x="40.385239" y="64.852447" style="fill: #bc8f8f; fill-opacity: 0.7"/>
    </g>
    <g clip-path="url(#p470a64d458)">
     <use xlink:href="#C0_0_a299b2dd11" x="35.59465" y="44.087159" style="fill: #bc8f8f; fill-opacity: 0.7"/>
    </g>
    <g clip-path="url(#p470a64d458)">
     <use xlink:href="#C0_0_a299b2dd11" x="35.808958" y="78.066721" style="fill: #bc8f8f; fill-opacity: 0.7"/>
    </g>
    <g clip-path="url(#p470a64d458)">
     <use xlink:href="#C0_0_a299b2dd11" x="38.641432" y="47.862666" style="fill: #bc8f8f; fill-opacity: 0.7"/>
    </g>
    <g clip-path="url(#p470a64d458)">
     <use xlink:href="#C0_0_a299b2dd11" x="39.309937" y="59.189187" style="fill: #bc8f8f; fill-opacity: 0.7"/>
    </g>
    <g clip-path="url(#p470a64d458)">
     <use xlink:href="#C0_0_a299b2dd11" x="38.690014" y="73.347337" style="fill: #bc8f8f; fill-opacity: 0.7"/>
    </g>
    <g clip-path="url(#p470a64d458)">
     <use xlink:href="#C0_0_a299b2dd11" x="35.410923" y="55.41368" style="fill: #bc8f8f; fill-opacity: 0.7"/>
    </g>
    <g clip-path="url(#p470a64d458)">
     <use xlink:href="#C0_0_a299b2dd11" x="40.725983" y="93.168748" style="fill: #bc8f8f; fill-opacity: 0.7"/>
    </g>
    <g clip-path="url(#p470a64d458)">
     <use xlink:href="#C0_0_a299b2dd11" x="35.257256" y="44.087159" style="fill: #bc8f8f; fill-opacity: 0.7"/>
    </g>
    <g clip-path="url(#p470a64d458)">
     <use xlink:href="#C0_0_a299b2dd11" x="38.279792" y="42.199406" style="fill: #bc8f8f; fill-opacity: 0.7"/>
    </g>
    <g clip-path="url(#p470a64d458)">
     <use xlink:href="#C0_0_a299b2dd11" x="39.154625" y="85.617734" style="fill: #bc8f8f; fill-opacity: 0.7"/>
    </g>
    <g clip-path="url(#p470a64d458)">
     <use xlink:href="#C0_0_a299b2dd11" x="35.191478" y="74.291214" style="fill: #bc8f8f; fill-opacity: 0.7"/>
    </g>
    <g clip-path="url(#p470a64d458)">
     <use xlink:href="#C0_0_a299b2dd11" x="35.242982" y="64.852447" style="fill: #bc8f8f; fill-opacity: 0.7"/>
    </g>
    <g clip-path="url(#p470a64d458)">
     <use xlink:href="#C0_0_a299b2dd11" x="35.455983" y="44.087159" style="fill: #bc8f8f; fill-opacity: 0.7"/>
    </g>
    <g clip-path="url(#p470a64d458)">
     <use xlink:href="#C0_0_a299b2dd11" x="35.280166" y="61.07694" style="fill: #bc8f8f; fill-opacity: 0.7"/>
    </g>
    <g clip-path="url(#p470a64d458)">
     <use xlink:href="#C0_0_a299b2dd11" x="35.476909" y="53.525926" style="fill: #bc8f8f; fill-opacity: 0.7"/>
    </g>
    <g clip-path="url(#p470a64d458)">
     <use xlink:href="#C0_0_a299b2dd11" x="40.854883" y="55.41368" style="fill: #bc8f8f; fill-opacity: 0.7"/>
    </g>
    <g clip-path="url(#p470a64d458)">
     <use xlink:href="#C0_0_a299b2dd11" x="39.666551" y="62.964693" style="fill: #bc8f8f; fill-opacity: 0.7"/>
    </g>
    <g clip-path="url(#p470a64d458)">
     <use xlink:href="#C0_0_a299b2dd11" x="37.680052" y="68.627954" style="fill: #bc8f8f; fill-opacity: 0.7"/>
    </g>
    <g clip-path="url(#p470a64d458)">
     <use xlink:href="#C0_0_a299b2dd11" x="38.807425" y="55.41368" style="fill: #bc8f8f; fill-opacity: 0.7"/>
    </g>
    <g clip-path="url(#p470a64d458)">
     <use xlink:href="#C0_0_a299b2dd11" x="39.523547" y="87.505488" style="fill: #bc8f8f; fill-opacity: 0.7"/>
    </g>
    <g clip-path="url(#p470a64d458)">
     <use xlink:href="#C0_0_a299b2dd11" x="38.221573" y="53.525926" style="fill: #bc8f8f; fill-opacity: 0.7"/>
    </g>
    <g clip-path="url(#p470a64d458)">
     <use xlink:href="#C0_0_a299b2dd11" x="35.472798" y="66.7402" style="fill: #bc8f8f; fill-opacity: 0.7"/>
    </g>
    <g clip-path="url(#p470a64d458)">
     <use xlink:href="#C0_0_a299b2dd11" x="37.190535" y="79.954474" style="fill: #bc8f8f; fill-opacity: 0.7"/>
    </g>
    <g clip-path="url(#p470a64d458)">
     <use xlink:href="#C0_0_a299b2dd11" x="35.852519" y="81.842228" style="fill: #bc8f8f; fill-opacity: 0.7"/>
    </g>
    <g clip-path="url(#p470a64d458)">
     <use xlink:href="#C0_0_a299b2dd11" x="39.255699" y="72.40346" style="fill: #bc8f8f; fill-opacity: 0.7"/>
    </g>
    <g clip-path="url(#p470a64d458)">
     <use xlink:href="#C0_0_a299b2dd11" x="41.179395" y="74.291214" style="fill: #bc8f8f; fill-opacity: 0.7"/>
    </g>
    <g clip-path="url(#p470a64d458)">
     <use xlink:href="#C0_0_a299b2dd11" x="40.747883" y="44.087159" style="fill: #bc8f8f; fill-opacity: 0.7"/>
    </g>
    <g clip-path="url(#p470a64d458)">
     <use xlink:href="#C0_0_a299b2dd11" x="38.058323" y="87.505488" style="fill: #bc8f8f; fill-opacity: 0.7"/>
    </g>
   </g>
   <g id="PathCollection_2">
    <defs>
     <path id="C1_0_8a6bfbf2c3" d="M 0 3.5 
C 0.928211 3.5 1.81853 3.131218 2.474874 2.474874 
C 3.131218 1.81853 3.5 0.928211 3.5 -0 
C 3.5 -0.928211 3.131218 -1.81853 2.474874 -2.474874 
C 1.81853 -3.131218 0.928211 -3.5 0 -3.5 
C -0.928211 -3.5 -1.81853 -3.131218 -2.474874 -2.474874 
C -3.131218 -1.81853 -3.5 -0.928211 -3.5 0 
C -3.5 0.928211 -3.131218 1.81853 -2.474874 2.474874 
C -1.81853 3.131218 -0.928211 3.5 0 3.5 
z
"/>
    </defs>
    <g clip-path="url(#p470a64d458)">
     <use xlink:href="#C1_0_8a6bfbf2c3" x="60.02294" y="45.974913" style="fill: #708090; fill-opacity: 0.7"/>
    </g>
    <g clip-path="url(#p470a64d458)">
     <use xlink:href="#C1_0_8a6bfbf2c3" x="61.762124" y="68.627954" style="fill: #708090; fill-opacity: 0.7"/>
    </g>
    <g clip-path="url(#p470a64d458)">
     <use xlink:href="#C1_0_8a6bfbf2c3" x="64.068859" y="81.842228" style="fill: #708090; fill-opacity: 0.7"/>
    </g>
    <g clip-path="url(#p470a64d458)">
     <use xlink:href="#C1_0_8a6bfbf2c3" x="62.964099" y="83.729981" style="fill: #708090; fill-opacity: 0.7"/>
    </g>
    <g clip-path="url(#p470a64d458)">
     <use xlink:href="#C1_0_8a6bfbf2c3" x="61.095243" y="91.280995" style="fill: #708090; fill-opacity: 0.7"/>
    </g>
    <g clip-path="url(#p470a64d458)">
     <use xlink:href="#C1_0_8a6bfbf2c3" x="63.156693" y="85.617734" style="fill: #708090; fill-opacity: 0.7"/>
    </g>
    <g clip-path="url(#p470a64d458)">
     <use xlink:href="#C1_0_8a6bfbf2c3" x="59.772741" y="89.393241" style="fill: #708090; fill-opacity: 0.7"/>
    </g>
    <g clip-path="url(#p470a64d458)">
     <use xlink:href="#C1_0_8a6bfbf2c3" x="64.565639" y="85.617734" style="fill: #708090; fill-opacity: 0.7"/>
    </g>
    <g clip-path="url(#p470a64d458)">
     <use xlink:href="#C1_0_8a6bfbf2c3" x="60.302597" y="57.301433" style="fill: #708090; fill-opacity: 0.7"/>
    </g>
    <g clip-path="url(#p470a64d458)">
     <use xlink:href="#C1_0_8a6bfbf2c3" x="62.891856" y="53.525926" style="fill: #708090; fill-opacity: 0.7"/>
    </g>
    <g clip-path="url(#p470a64d458)">
     <use xlink:href="#C1_0_8a6bfbf2c3" x="59.960022" y="83.729981" style="fill: #708090; fill-opacity: 0.7"/>
    </g>
    <g clip-path="url(#p470a64d458)">
     <use xlink:href="#C1_0_8a6bfbf2c3" x="64.445392" y="66.7402" style="fill: #708090; fill-opacity: 0.7"/>
    </g>
    <g clip-path="url(#p470a64d458)">
     <use xlink:href="#C1_0_8a6bfbf2c3" x="61.219516" y="64.852447" style="fill: #708090; fill-opacity: 0.7"/>
    </g>
    <g clip-path="url(#p470a64d458)">
     <use xlink:href="#C1_0_8a6bfbf2c3" x="61.378494" y="70.515707" style="fill: #708090; fill-opacity: 0.7"/>
    </g>
    <g clip-path="url(#p470a64d458)">
     <use xlink:href="#C1_0_8a6bfbf2c3" x="63.533502" y="93.168748" style="fill: #708090; fill-opacity: 0.7"/>
    </g>
    <g clip-path="url(#p470a64d458)">
     <use xlink:href="#C1_0_8a6bfbf2c3" x="60.492724" y="79.954474" style="fill: #708090; fill-opacity: 0.7"/>
    </g>
    <g clip-path="url(#p470a64d458)">
     <use xlink:href="#C1_0_8a6bfbf2c3" x="62.380656" y="78.066721" style="fill: #708090; fill-opacity: 0.7"/>
    </g>
    <g clip-path="url(#p470a64d458)">
     <use xlink:href="#C1_0_8a6bfbf2c3" x="60.459907" y="79.954474" style="fill: #708090; fill-opacity: 0.7"/>
    </g>
    <g clip-path="url(#p470a64d458)">
     <use xlink:href="#C1_0_8a6bfbf2c3" x="60.460234" y="76.178967" style="fill: #708090; fill-opacity: 0.7"/>
    </g>
    <g clip-path="url(#p470a64d458)">
     <use xlink:href="#C1_0_8a6bfbf2c3" x="61.578845" y="83.729981" style="fill: #708090; fill-opacity: 0.7"/>
    </g>
    <g clip-path="url(#p470a64d458)">
     <use xlink:href="#C1_0_8a6bfbf2c3" x="59.737621" y="74.291214" style="fill: #708090; fill-opacity: 0.7"/>
    </g>
    <g clip-path="url(#p470a64d458)">
     <use xlink:href="#C1_0_8a6bfbf2c3" x="63.303594" y="47.862666" style="fill: #708090; fill-opacity: 0.7"/>
    </g>
    <g clip-path="url(#p470a64d458)">
     <use xlink:href="#C1_0_8a6bfbf2c3" x="61.497731" y="76.178967" style="fill: #708090; fill-opacity: 0.7"/>
    </g>
    <g clip-path="url(#p470a64d458)">
     <use xlink:href="#C1_0_8a6bfbf2c3" x="64.042702" y="61.07694" style="fill: #708090; fill-opacity: 0.7"/>
    </g>
    <g clip-path="url(#p470a64d458)">
     <use xlink:href="#C1_0_8a6bfbf2c3" x="63.910613" y="61.07694" style="fill: #708090; fill-opacity: 0.7"/>
    </g>
    <g clip-path="url(#p470a64d458)">
     <use xlink:href="#C1_0_8a6bfbf2c3" x="63.520039" y="76.178967" style="fill: #708090; fill-opacity: 0.7"/>
    </g>
    <g clip-path="url(#p470a64d458)">
     <use xlink:href="#C1_0_8a6bfbf2c3" x="63.327289" y="57.301433" style="fill: #708090; fill-opacity: 0.7"/>
    </g>
    <g clip-path="url(#p470a64d458)">
     <use xlink:href="#C1_0_8a6bfbf2c3" x="62.207351" y="79.954474" style="fill: #708090; fill-opacity: 0.7"/>
    </g>
    <g clip-path="url(#p470a64d458)">
     <use xlink:href="#C1_0_8a6bfbf2c3" x="59.774498" y="93.168748" style="fill: #708090; fill-opacity: 0.7"/>
    </g>
    <g clip-path="url(#p470a64d458)">
     <use xlink:href="#C1_0_8a6bfbf2c3" x="60.489016" y="64.852447" style="fill: #708090; fill-opacity: 0.7"/>
    </g>
    <g clip-path="url(#p470a64d458)">
     <use xlink:href="#C1_0_8a6bfbf2c3" x="61.07991" y="79.954474" style="fill: #708090; fill-opacity: 0.7"/>
    </g>
    <g clip-path="url(#p470a64d458)">
     <use xlink:href="#C1_0_8a6bfbf2c3" x="64.684854" y="87.505488" style="fill: #708090; fill-opacity: 0.7"/>
    </g>
    <g clip-path="url(#p470a64d458)">
     <use xlink:href="#C1_0_8a6bfbf2c3" x="64.720034" y="89.393241" style="fill: #708090; fill-opacity: 0.7"/>
    </g>
    <g clip-path="url(#p470a64d458)">
     <use xlink:href="#C1_0_8a6bfbf2c3" x="60.919704" y="62.964693" style="fill: #708090; fill-opacity: 0.7"/>
    </g>
    <g clip-path="url(#p470a64d458)">
     <use xlink:href="#C1_0_8a6bfbf2c3" x="62.441655" y="53.525926" style="fill: #708090; fill-opacity: 0.7"/>
    </g>
    <g clip-path="url(#p470a64d458)">
     <use xlink:href="#C1_0_8a6bfbf2c3" x="64.490805" y="59.189187" style="fill: #708090; fill-opacity: 0.7"/>
    </g>
    <g clip-path="url(#p470a64d458)">
     <use xlink:href="#C1_0_8a6bfbf2c3" x="61.044396" y="78.066721" style="fill: #708090; fill-opacity: 0.7"/>
    </g>
    <g clip-path="url(#p470a64d458)">
     <use xlink:href="#C1_0_8a6bfbf2c3" x="62.004359" y="81.842228" style="fill: #708090; fill-opacity: 0.7"/>
    </g>
    <g clip-path="url(#p470a64d458)">
     <use xlink:href="#C1_0_8a6bfbf2c3" x="63.870032" y="66.7402" style="fill: #708090; fill-opacity: 0.7"/>
    </g>
    <g clip-path="url(#p470a64d458)">
     <use xlink:href="#C1_0_8a6bfbf2c3" x="64.174971" y="78.066721" style="fill: #708090; fill-opacity: 0.7"/>
    </g>
    <g clip-path="url(#p470a64d458)">
     <use xlink:href="#C1_0_8a6bfbf2c3" x="63.839295" y="47.862666" style="fill: #708090; fill-opacity: 0.7"/>
    </g>
    <g clip-path="url(#p470a64d458)">
     <use xlink:href="#C1_0_8a6bfbf2c3" x="63.390683" y="76.178967" style="fill: #708090; fill-opacity: 0.7"/>
    </g>
   </g>
   <g id="PathCollection_3">
    <defs>
     <path id="C2_0_e5a78cfb0d" d="M 0 3.5 
C 0.928211 3.5 1.81853 3.131218 2.474874 2.474874 
C 3.131218 1.81853 3.5 0.928211 3.5 -0 
C 3.5 -0.928211 3.131218 -1.81853 2.474874 -2.474874 
C 1.81853 -3.131218 0.928211 -3.5 0 -3.5 
C -0.928211 -3.5 -1.81853 -3.131218 -2.474874 -2.474874 
C -3.131218 -1.81853 -3.5 -0.928211 -3.5 0 
C -3.5 0.928211 -3.131218 1.81853 -2.474874 2.474874 
C -1.81853 3.131218 -0.928211 3.5 0 3.5 
z
"/>
    </defs>
    <g clip-path="url(#p470a64d458)">
     <use xlink:href="#C2_0_e5a78cfb0d" x="101.662259" y="51.638173" style="fill: #bc8f8f; fill-opacity: 0.7"/>
    </g>
    <g clip-path="url(#p470a64d458)">
     <use xlink:href="#C2_0_e5a78cfb0d" x="100.65236" y="68.627954" style="fill: #bc8f8f; fill-opacity: 0.7"/>
    </g>
    <g clip-path="url(#p470a64d458)">
     <use xlink:href="#C2_0_e5a78cfb0d" x="99.993653" y="110.158529" style="fill: #bc8f8f; fill-opacity: 0.7"/>
    </g>
    <g clip-path="url(#p470a64d458)">
     <use xlink:href="#C2_0_e5a78cfb0d" x="99.54515" y="47.862666" style="fill: #bc8f8f; fill-opacity: 0.7"/>
    </g>
    <g clip-path="url(#p470a64d458)">
     <use xlink:href="#C2_0_e5a78cfb0d" x="99.400322" y="38.423899" style="fill: #bc8f8f; fill-opacity: 0.7"/>
    </g>
    <g clip-path="url(#p470a64d458)">
     <use xlink:href="#C2_0_e5a78cfb0d" x="99.194083" y="72.40346" style="fill: #bc8f8f; fill-opacity: 0.7"/>
    </g>
    <g clip-path="url(#p470a64d458)">
     <use xlink:href="#C2_0_e5a78cfb0d" x="101.224546" y="59.189187" style="fill: #bc8f8f; fill-opacity: 0.7"/>
    </g>
    <g clip-path="url(#p470a64d458)">
     <use xlink:href="#C2_0_e5a78cfb0d" x="98.234338" y="79.954474" style="fill: #bc8f8f; fill-opacity: 0.7"/>
    </g>
    <g clip-path="url(#p470a64d458)">
     <use xlink:href="#C2_0_e5a78cfb0d" x="100.059318" y="53.525926" style="fill: #bc8f8f; fill-opacity: 0.7"/>
    </g>
    <g clip-path="url(#p470a64d458)">
     <use xlink:href="#C2_0_e5a78cfb0d" x="101.040965" y="53.525926" style="fill: #bc8f8f; fill-opacity: 0.7"/>
    </g>
    <g clip-path="url(#p470a64d458)">
     <use xlink:href="#C2_0_e5a78cfb0d" x="98.614842" y="47.862666" style="fill: #bc8f8f; fill-opacity: 0.7"/>
    </g>
    <g clip-path="url(#p470a64d458)">
     <use xlink:href="#C2_0_e5a78cfb0d" x="99.533271" y="62.964693" style="fill: #bc8f8f; fill-opacity: 0.7"/>
    </g>
    <g clip-path="url(#p470a64d458)">
     <use xlink:href="#C2_0_e5a78cfb0d" x="101.200898" y="51.638173" style="fill: #bc8f8f; fill-opacity: 0.7"/>
    </g>
    <g clip-path="url(#p470a64d458)">
     <use xlink:href="#C2_0_e5a78cfb0d" x="96.622866" y="59.189187" style="fill: #bc8f8f; fill-opacity: 0.7"/>
    </g>
    <g clip-path="url(#p470a64d458)">
     <use xlink:href="#C2_0_e5a78cfb0d" x="101.801888" y="72.40346" style="fill: #bc8f8f; fill-opacity: 0.7"/>
    </g>
    <g clip-path="url(#p470a64d458)">
     <use xlink:href="#C2_0_e5a78cfb0d" x="97.108821" y="57.301433" style="fill: #bc8f8f; fill-opacity: 0.7"/>
    </g>
    <g clip-path="url(#p470a64d458)">
     <use xlink:href="#C2_0_e5a78cfb0d" x="99.855355" y="42.199406" style="fill: #bc8f8f; fill-opacity: 0.7"/>
    </g>
    <g clip-path="url(#p470a64d458)">
     <use xlink:href="#C2_0_e5a78cfb0d" x="102.264505" y="47.862666" style="fill: #bc8f8f; fill-opacity: 0.7"/>
    </g>
    <g clip-path="url(#p470a64d458)">
     <use xlink:href="#C2_0_e5a78cfb0d" x="102.315913" y="66.7402" style="fill: #bc8f8f; fill-opacity: 0.7"/>
    </g>
    <g clip-path="url(#p470a64d458)">
     <use xlink:href="#C2_0_e5a78cfb0d" x="98.500084" y="76.178967" style="fill: #bc8f8f; fill-opacity: 0.7"/>
    </g>
    <g clip-path="url(#p470a64d458)">
     <use xlink:href="#C2_0_e5a78cfb0d" x="97.62662" y="70.515707" style="fill: #bc8f8f; fill-opacity: 0.7"/>
    </g>
    <g clip-path="url(#p470a64d458)">
     <use xlink:href="#C2_0_e5a78cfb0d" x="96.723002" y="76.178967" style="fill: #bc8f8f; fill-opacity: 0.7"/>
    </g>
    <g clip-path="url(#p470a64d458)">
     <use xlink:href="#C2_0_e5a78cfb0d" x="101.977001" y="64.852447" style="fill: #bc8f8f; fill-opacity: 0.7"/>
    </g>
    <g clip-path="url(#p470a64d458)">
     <use xlink:href="#C2_0_e5a78cfb0d" x="102.095629" y="89.393241" style="fill: #bc8f8f; fill-opacity: 0.7"/>
    </g>
    <g clip-path="url(#p470a64d458)">
     <use xlink:href="#C2_0_e5a78cfb0d" x="98.389757" y="76.178967" style="fill: #bc8f8f; fill-opacity: 0.7"/>
    </g>
    <g clip-path="url(#p470a64d458)">
     <use xlink:href="#C2_0_e5a78cfb0d" x="98.972624" y="70.515707" style="fill: #bc8f8f; fill-opacity: 0.7"/>
    </g>
    <g clip-path="url(#p470a64d458)">
     <use xlink:href="#C2_0_e5a78cfb0d" x="101.919795" y="53.525926" style="fill: #bc8f8f; fill-opacity: 0.7"/>
    </g>
    <g clip-path="url(#p470a64d458)">
     <use xlink:href="#C2_0_e5a78cfb0d" x="101.119589" y="64.852447" style="fill: #bc8f8f; fill-opacity: 0.7"/>
    </g>
    <g clip-path="url(#p470a64d458)">
     <use xlink:href="#C2_0_e5a78cfb0d" x="98.864327" y="49.750419" style="fill: #bc8f8f; fill-opacity: 0.7"/>
    </g>
    <g clip-path="url(#p470a64d458)">
     <use xlink:href="#C2_0_e5a78cfb0d" x="98.701126" y="59.189187" style="fill: #bc8f8f; fill-opacity: 0.7"/>
    </g>
    <g clip-path="url(#p470a64d458)">
     <use xlink:href="#C2_0_e5a78cfb0d" x="100.561835" y="76.178967" style="fill: #bc8f8f; fill-opacity: 0.7"/>
    </g>
    <g clip-path="url(#p470a64d458)">
     <use xlink:href="#C2_0_e5a78cfb0d" x="99.456701" y="64.852447" style="fill: #bc8f8f; fill-opacity: 0.7"/>
    </g>
    <g clip-path="url(#p470a64d458)">
     <use xlink:href="#C2_0_e5a78cfb0d" x="96.931591" y="68.627954" style="fill: #bc8f8f; fill-opacity: 0.7"/>
    </g>
    <g clip-path="url(#p470a64d458)">
     <use xlink:href="#C2_0_e5a78cfb0d" x="102.055767" y="66.7402" style="fill: #bc8f8f; fill-opacity: 0.7"/>
    </g>
    <g clip-path="url(#p470a64d458)">
     <use xlink:href="#C2_0_e5a78cfb0d" x="98.900198" y="79.954474" style="fill: #bc8f8f; fill-opacity: 0.7"/>
    </g>
    <g clip-path="url(#p470a64d458)">
     <use xlink:href="#C2_0_e5a78cfb0d" x="100.2491" y="64.852447" style="fill: #bc8f8f; fill-opacity: 0.7"/>
    </g>
    <g clip-path="url(#p470a64d458)">
     <use xlink:href="#C2_0_e5a78cfb0d" x="101.938875" y="55.41368" style="fill: #bc8f8f; fill-opacity: 0.7"/>
    </g>
    <g clip-path="url(#p470a64d458)">
     <use xlink:href="#C2_0_e5a78cfb0d" x="100.610161" y="61.07694" style="fill: #bc8f8f; fill-opacity: 0.7"/>
    </g>
    <g clip-path="url(#p470a64d458)">
     <use xlink:href="#C2_0_e5a78cfb0d" x="100.676028" y="49.750419" style="fill: #bc8f8f; fill-opacity: 0.7"/>
    </g>
    <g clip-path="url(#p470a64d458)">
     <use xlink:href="#C2_0_e5a78cfb0d" x="99.118426" y="62.964693" style="fill: #bc8f8f; fill-opacity: 0.7"/>
    </g>
    <g clip-path="url(#p470a64d458)">
     <use xlink:href="#C2_0_e5a78cfb0d" x="99.817134" y="74.291214" style="fill: #bc8f8f; fill-opacity: 0.7"/>
    </g>
   </g>
   <g id="PathCollection_4">
    <defs>
     <path id="C3_0_40b50ee8ad" d="M 0 3.5 
C 0.928211 3.5 1.81853 3.131218 2.474874 2.474874 
C 3.131218 1.81853 3.5 0.928211 3.5 -0 
C 3.5 -0.928211 3.131218 -1.81853 2.474874 -2.474874 
C 1.81853 -3.131218 0.928211 -3.5 0 -3.5 
C -0.928211 -3.5 -1.81853 -3.131218 -2.474874 -2.474874 
C -3.131218 -1.81853 -3.5 -0.928211 -3.5 0 
C -3.5 0.928211 -3.131218 1.81853 -2.474874 2.474874 
C -1.81853 3.131218 -0.928211 3.5 0 3.5 
z
"/>
    </defs>
    <g clip-path="url(#p470a64d458)">
     <use xlink:href="#C3_0_40b50ee8ad" x="124.571303" y="47.862666" style="fill: #708090; fill-opacity: 0.7"/>
    </g>
    <g clip-path="url(#p470a64d458)">
     <use xlink:href="#C3_0_40b50ee8ad" x="122.419665" y="74.291214" style="fill: #708090; fill-opacity: 0.7"/>
    </g>
    <g clip-path="url(#p470a64d458)">
     <use xlink:href="#C3_0_40b50ee8ad" x="125.292814" y="66.7402" style="fill: #708090; fill-opacity: 0.7"/>
    </g>
    <g clip-path="url(#p470a64d458)">
     <use xlink:href="#C3_0_40b50ee8ad" x="125.916835" y="66.7402" style="fill: #708090; fill-opacity: 0.7"/>
    </g>
    <g clip-path="url(#p470a64d458)">
     <use xlink:href="#C3_0_40b50ee8ad" x="123.075821" y="55.41368" style="fill: #708090; fill-opacity: 0.7"/>
    </g>
    <g clip-path="url(#p470a64d458)">
     <use xlink:href="#C3_0_40b50ee8ad" x="124.131623" y="87.505488" style="fill: #708090; fill-opacity: 0.7"/>
    </g>
    <g clip-path="url(#p470a64d458)">
     <use xlink:href="#C3_0_40b50ee8ad" x="125.338607" y="61.07694" style="fill: #708090; fill-opacity: 0.7"/>
    </g>
    <g clip-path="url(#p470a64d458)">
     <use xlink:href="#C3_0_40b50ee8ad" x="124.075724" y="55.41368" style="fill: #708090; fill-opacity: 0.7"/>
    </g>
    <g clip-path="url(#p470a64d458)">
     <use xlink:href="#C3_0_40b50ee8ad" x="125.20355" y="96.944255" style="fill: #708090; fill-opacity: 0.7"/>
    </g>
    <g clip-path="url(#p470a64d458)">
     <use xlink:href="#C3_0_40b50ee8ad" x="126.462655" y="59.189187" style="fill: #708090; fill-opacity: 0.7"/>
    </g>
    <g clip-path="url(#p470a64d458)">
     <use xlink:href="#C3_0_40b50ee8ad" x="123.524688" y="76.178967" style="fill: #708090; fill-opacity: 0.7"/>
    </g>
    <g clip-path="url(#p470a64d458)">
     <use xlink:href="#C3_0_40b50ee8ad" x="124.526345" y="34.648392" style="fill: #708090; fill-opacity: 0.7"/>
    </g>
    <g clip-path="url(#p470a64d458)">
     <use xlink:href="#C3_0_40b50ee8ad" x="126.96905" y="81.842228" style="fill: #708090; fill-opacity: 0.7"/>
    </g>
    <g clip-path="url(#p470a64d458)">
     <use xlink:href="#C3_0_40b50ee8ad" x="124.397976" y="64.852447" style="fill: #708090; fill-opacity: 0.7"/>
    </g>
    <g clip-path="url(#p470a64d458)">
     <use xlink:href="#C3_0_40b50ee8ad" x="126.393418" y="68.627954" style="fill: #708090; fill-opacity: 0.7"/>
    </g>
    <g clip-path="url(#p470a64d458)">
     <use xlink:href="#C3_0_40b50ee8ad" x="122.376972" y="68.627954" style="fill: #708090; fill-opacity: 0.7"/>
    </g>
    <g clip-path="url(#p470a64d458)">
     <use xlink:href="#C3_0_40b50ee8ad" x="122.588593" y="85.617734" style="fill: #708090; fill-opacity: 0.7"/>
    </g>
    <g clip-path="url(#p470a64d458)">
     <use xlink:href="#C3_0_40b50ee8ad" x="122.291583" y="62.964693" style="fill: #708090; fill-opacity: 0.7"/>
    </g>
    <g clip-path="url(#p470a64d458)">
     <use xlink:href="#C3_0_40b50ee8ad" x="124.494964" y="78.066721" style="fill: #708090; fill-opacity: 0.7"/>
    </g>
    <g clip-path="url(#p470a64d458)">
     <use xlink:href="#C3_0_40b50ee8ad" x="126.557742" y="83.729981" style="fill: #708090; fill-opacity: 0.7"/>
    </g>
    <g clip-path="url(#p470a64d458)">
     <use xlink:href="#C3_0_40b50ee8ad" x="124.255896" y="49.750419" style="fill: #708090; fill-opacity: 0.7"/>
    </g>
    <g clip-path="url(#p470a64d458)">
     <use xlink:href="#C3_0_40b50ee8ad" x="125.753342" y="64.852447" style="fill: #708090; fill-opacity: 0.7"/>
    </g>
    <g clip-path="url(#p470a64d458)">
     <use xlink:href="#C3_0_40b50ee8ad" x="124.98443" y="93.168748" style="fill: #708090; fill-opacity: 0.7"/>
    </g>
    <g clip-path="url(#p470a64d458)">
     <use xlink:href="#C3_0_40b50ee8ad" x="122.515948" y="66.7402" style="fill: #708090; fill-opacity: 0.7"/>
    </g>
    <g clip-path="url(#p470a64d458)">
     <use xlink:href="#C3_0_40b50ee8ad" x="124.43023" y="42.199406" style="fill: #708090; fill-opacity: 0.7"/>
    </g>
    <g clip-path="url(#p470a64d458)">
     <use xlink:href="#C3_0_40b50ee8ad" x="122.545201" y="74.291214" style="fill: #708090; fill-opacity: 0.7"/>
    </g>
    <g clip-path="url(#p470a64d458)">
     <use xlink:href="#C3_0_40b50ee8ad" x="125.298301" y="51.638173" style="fill: #708090; fill-opacity: 0.7"/>
    </g>
    <g clip-path="url(#p470a64d458)">
     <use xlink:href="#C3_0_40b50ee8ad" x="124.480565" y="78.066721" style="fill: #708090; fill-opacity: 0.7"/>
    </g>
    <g clip-path="url(#p470a64d458)">
     <use xlink:href="#C3_0_40b50ee8ad" x="121.606341" y="87.505488" style="fill: #708090; fill-opacity: 0.7"/>
    </g>
    <g clip-path="url(#p470a64d458)">
     <use xlink:href="#C3_0_40b50ee8ad" x="124.981716" y="78.066721" style="fill: #708090; fill-opacity: 0.7"/>
    </g>
    <g clip-path="url(#p470a64d458)">
     <use xlink:href="#C3_0_40b50ee8ad" x="125.194149" y="61.07694" style="fill: #708090; fill-opacity: 0.7"/>
    </g>
    <g clip-path="url(#p470a64d458)">
     <use xlink:href="#C3_0_40b50ee8ad" x="121.441813" y="83.729981" style="fill: #708090; fill-opacity: 0.7"/>
    </g>
    <g clip-path="url(#p470a64d458)">
     <use xlink:href="#C3_0_40b50ee8ad" x="126.377206" y="78.066721" style="fill: #708090; fill-opacity: 0.7"/>
    </g>
    <g clip-path="url(#p470a64d458)">
     <use xlink:href="#C3_0_40b50ee8ad" x="124.103774" y="74.291214" style="fill: #708090; fill-opacity: 0.7"/>
    </g>
    <g clip-path="url(#p470a64d458)">
     <use xlink:href="#C3_0_40b50ee8ad" x="124.618233" y="81.842228" style="fill: #708090; fill-opacity: 0.7"/>
    </g>
    <g clip-path="url(#p470a64d458)">
     <use xlink:href="#C3_0_40b50ee8ad" x="121.169032" y="79.954474" style="fill: #708090; fill-opacity: 0.7"/>
    </g>
    <g clip-path="url(#p470a64d458)">
     <use xlink:href="#C3_0_40b50ee8ad" x="126.210737" y="72.40346" style="fill: #708090; fill-opacity: 0.7"/>
    </g>
    <g clip-path="url(#p470a64d458)">
     <use xlink:href="#C3_0_40b50ee8ad" x="125.253452" y="66.7402" style="fill: #708090; fill-opacity: 0.7"/>
    </g>
    <g clip-path="url(#p470a64d458)">
     <use xlink:href="#C3_0_40b50ee8ad" x="121.424517" y="76.178967" style="fill: #708090; fill-opacity: 0.7"/>
    </g>
    <g clip-path="url(#p470a64d458)">
     <use xlink:href="#C3_0_40b50ee8ad" x="121.547008" y="62.964693" style="fill: #708090; fill-opacity: 0.7"/>
    </g>
    <g clip-path="url(#p470a64d458)">
     <use xlink:href="#C3_0_40b50ee8ad" x="126.531385" y="59.189187" style="fill: #708090; fill-opacity: 0.7"/>
    </g>
    <g clip-path="url(#p470a64d458)">
     <use xlink:href="#C3_0_40b50ee8ad" x="126.716715" y="61.07694" style="fill: #708090; fill-opacity: 0.7"/>
    </g>
    <g clip-path="url(#p470a64d458)">
     <use xlink:href="#C3_0_40b50ee8ad" x="122.603197" y="70.515707" style="fill: #708090; fill-opacity: 0.7"/>
    </g>
    <g clip-path="url(#p470a64d458)">
     <use xlink:href="#C3_0_40b50ee8ad" x="122.472395" y="68.627954" style="fill: #708090; fill-opacity: 0.7"/>
    </g>
    <g clip-path="url(#p470a64d458)">
     <use xlink:href="#C3_0_40b50ee8ad" x="121.342178" y="62.964693" style="fill: #708090; fill-opacity: 0.7"/>
    </g>
   </g>
   <g id="line2d_8">
    <path d="M 36.52605 79.41608 
L 39.90195 79.41608 
M 38.214 79.41608 
L 38.214 50.434026 
M 36.52605 50.434026 
L 39.90195 50.434026 
" clip-path="url(#p470a64d458)" style="fill: none; stroke: #333333; stroke-width: 2.5; stroke-linecap: square"/>
   </g>
   <g id="line2d_9">
    <path d="M 97.90605 77.505673 
L 101.28195 77.505673 
M 99.594 77.505673 
L 99.594 50.265424 
M 97.90605 50.265424 
L 101.28195 50.265424 
" clip-path="url(#p470a64d458)" style="fill: none; stroke: #333333; stroke-width: 2.5; stroke-linecap: square"/>
   </g>
   <g id="line2d_10">
    <path d="M 61.07805 86.312973 
L 64.45395 86.312973 
M 62.766 86.312973 
L 62.766 60.022129 
M 61.07805 60.022129 
L 64.45395 60.022129 
" clip-path="url(#p470a64d458)" style="fill: none; stroke: #333333; stroke-width: 2.5; stroke-linecap: square"/>
   </g>
   <g id="line2d_11">
    <path d="M 122.45805 82.581384 
L 125.83395 82.581384 
M 124.146 82.581384 
L 124.146 56.184726 
M 122.45805 56.184726 
L 125.83395 56.184726 
" clip-path="url(#p470a64d458)" style="fill: none; stroke: #333333; stroke-width: 2.5; stroke-linecap: square"/>
   </g>
   <g id="patch_9">
    <path d="M 19.8 128.16 
L 19.8 17.28 
" style="fill: none; stroke: #000000; stroke-width: 1.5; stroke-linejoin: miter; stroke-linecap: square"/>
   </g>
   <g id="patch_10">
    <path d="M 19.8 128.16 
L 142.56 128.16 
" style="fill: none; stroke: #000000; stroke-width: 1.5; stroke-linejoin: miter; stroke-linecap: square"/>
   </g>
   <g id="PathCollection_5">
    <defs>
     <path id="m15946af101" d="M 0 3 
C 0.795609 3 1.55874 2.683901 2.12132 2.12132 
C 2.683901 1.55874 3 0.795609 3 0 
C 3 -0.795609 2.683901 -1.55874 2.12132 -2.12132 
C 1.55874 -2.683901 0.795609 -3 0 -3 
C -0.795609 -3 -1.55874 -2.683901 -2.12132 -2.12132 
C -2.683901 -1.55874 -3 -0.795609 -3 0 
C -3 0.795609 -2.683901 1.55874 -2.12132 2.12132 
C -1.55874 2.683901 -0.795609 3 0 3 
z
"/>
    </defs>
    <g clip-path="url(#p470a64d458)">
     <use xlink:href="#m15946af101" x="38.214" y="64.925053" style="fill: #333333"/>
    </g>
   </g>
   <g id="PathCollection_6">
    <g clip-path="url(#p470a64d458)">
     <use xlink:href="#m15946af101" x="62.766" y="73.167551" style="fill: #333333"/>
    </g>
   </g>
   <g id="PathCollection_7">
    <g clip-path="url(#p470a64d458)">
     <use xlink:href="#m15946af101" x="99.594" y="63.885549" style="fill: #333333"/>
    </g>
   </g>
   <g id="PathCollection_8">
    <g clip-path="url(#p470a64d458)">
     <use xlink:href="#m15946af101" x="124.146" y="69.383055" style="fill: #333333"/>
    </g>
   </g>
   <g id="line2d_12"/>
   <g id="line2d_13"/>
  </g>
 </g>
 <defs>
  <clipPath id="p470a64d458">
   <rect x="19.8" y="17.28" width="122.76" height="110.88"/>
  </clipPath>
 </defs>
</svg>
