<?xml version="1.0" encoding="utf-8" standalone="no"?>
<!DOCTYPE svg PUBLIC "-//W3C//DTD SVG 1.1//EN"
  "http://www.w3.org/Graphics/SVG/1.1/DTD/svg11.dtd">
<svg xmlns:xlink="http://www.w3.org/1999/xlink" width="158.4pt" height="144pt" viewBox="0 0 158.4 144" xmlns="http://www.w3.org/2000/svg" version="1.1">
 <metadata>
  <rdf:RDF xmlns:dc="http://purl.org/dc/elements/1.1/" xmlns:cc="http://creativecommons.org/ns#" xmlns:rdf="http://www.w3.org/1999/02/22-rdf-syntax-ns#">
   <cc:Work>
    <dc:type rdf:resource="http://purl.org/dc/dcmitype/StillImage"/>
    <dc:date>2024-09-14T02:29:36.892406</dc:date>
    <dc:format>image/svg+xml</dc:format>
    <dc:creator>
     <cc:Agent>
      <dc:title>Matplotlib v3.7.1, https://matplotlib.org/</dc:title>
     </cc:Agent>
    </dc:creator>
   </cc:Work>
  </rdf:RDF>
 </metadata>
 <defs>
  <style type="text/css">*{stroke-linejoin: round; stroke-linecap: butt}</style>
 </defs>
 <g id="figure_1">
  <g id="patch_1">
   <path d="M 0 144 
L 158.4 144 
L 158.4 0 
L 0 0 
L 0 144 
z
" style="fill: none"/>
  </g>
  <g id="axes_1">
   <g id="patch_2">
    <path d="M 19.8 128.16 
L 142.56 128.16 
L 142.56 17.28 
L 19.8 17.28 
L 19.8 128.16 
z
" style="fill: none"/>
   </g>
   <g id="PolyCollection_1">
    <path d="M 38.424534 117.394859 
L 38.003466 117.394859 
L 37.938133 116.434507 
L 37.856869 115.474155 
L 37.757124 114.513803 
L 37.636292 113.553451 
L 37.491787 112.593099 
L 37.321141 111.632746 
L 37.122094 110.672394 
L 36.892691 109.712042 
L 36.631368 108.75169 
L 36.337019 107.791338 
L 36.009059 106.830986 
L 35.647452 105.870634 
L 35.25273 104.910282 
L 34.826001 103.94993 
L 34.368937 102.989577 
L 33.883767 102.029225 
L 33.373276 101.068873 
L 32.840805 100.108521 
L 32.290268 99.148169 
L 31.726169 98.187817 
L 31.15363 97.227465 
L 30.578399 96.267113 
L 30.006836 95.306761 
L 29.445867 94.346408 
L 28.902871 93.386056 
L 28.385523 92.425704 
L 27.901564 91.465352 
L 27.458515 90.505 
L 27.063351 89.544648 
L 26.722156 88.584296 
L 26.439785 87.623944 
L 26.219566 86.663592 
L 26.063066 85.703239 
L 25.96996 84.742887 
L 25.938 83.782535 
L 25.963098 82.822183 
L 26.039525 81.861831 
L 26.16019 80.901479 
L 26.317002 79.941127 
L 26.501261 78.980775 
L 26.704063 78.020423 
L 26.916696 77.06007 
L 27.130995 76.099718 
L 27.339646 75.139366 
L 27.536439 74.179014 
L 27.716456 73.218662 
L 27.876207 72.25831 
L 28.013711 71.297958 
L 28.128521 70.337606 
L 28.221711 69.377254 
L 28.295797 68.416901 
L 28.354615 67.456549 
L 28.403132 66.496197 
L 28.447202 65.535845 
L 28.493262 64.575493 
L 28.547985 63.615141 
L 28.617895 62.654789 
L 28.708982 61.694437 
L 28.826329 60.734084 
L 28.973797 59.773732 
L 29.153775 58.81338 
L 29.367049 57.853028 
L 29.612775 56.892676 
L 29.888583 55.932324 
L 30.190784 54.971972 
L 30.514685 54.01162 
L 30.854953 53.051268 
L 31.206015 52.090915 
L 31.562453 51.130563 
L 31.919338 50.170211 
L 32.272502 49.209859 
L 32.618709 48.249507 
L 32.955723 47.289155 
L 33.282273 46.328803 
L 33.597936 45.368451 
L 33.902956 44.408099 
L 34.198015 43.447746 
L 34.48401 42.487394 
L 34.761827 41.527042 
L 35.032169 40.56669 
L 35.295418 39.606338 
L 35.551569 38.645986 
L 35.800212 37.685634 
L 36.04057 36.725282 
L 36.271575 35.76493 
L 36.491978 34.804577 
L 36.700463 33.844225 
L 36.895769 32.883873 
L 37.076797 31.923521 
L 37.242696 30.963169 
L 37.392927 30.002817 
L 37.52729 29.042465 
L 37.645936 28.082113 
L 37.74934 27.121761 
L 37.838269 26.161408 
L 37.913722 25.201056 
L 37.976872 24.240704 
L 38.029 23.280352 
L 38.071436 22.32 
L 38.356564 22.32 
L 38.356564 22.32 
L 38.399 23.280352 
L 38.451128 24.240704 
L 38.514278 25.201056 
L 38.589731 26.161408 
L 38.67866 27.121761 
L 38.782064 28.082113 
L 38.90071 29.042465 
L 39.035073 30.002817 
L 39.185304 30.963169 
L 39.351203 31.923521 
L 39.532231 32.883873 
L 39.727537 33.844225 
L 39.936022 34.804577 
L 40.156425 35.76493 
L 40.38743 36.725282 
L 40.627788 37.685634 
L 40.876431 38.645986 
L 41.132582 39.606338 
L 41.395831 40.56669 
L 41.666173 41.527042 
L 41.94399 42.487394 
L 42.229985 43.447746 
L 42.525044 44.408099 
L 42.830064 45.368451 
L 43.145727 46.328803 
L 43.472277 47.289155 
L 43.809291 48.249507 
L 44.155498 49.209859 
L 44.508662 50.170211 
L 44.865547 51.130563 
L 45.221985 52.090915 
L 45.573047 53.051268 
L 45.913315 54.01162 
L 46.237216 54.971972 
L 46.539417 55.932324 
L 46.815225 56.892676 
L 47.060951 57.853028 
L 47.274225 58.81338 
L 47.454203 59.773732 
L 47.601671 60.734084 
L 47.719018 61.694437 
L 47.810105 62.654789 
L 47.880015 63.615141 
L 47.934738 64.575493 
L 47.980798 65.535845 
L 48.024868 66.496197 
L 48.073385 67.456549 
L 48.132203 68.416901 
L 48.206289 69.377254 
L 48.299479 70.337606 
L 48.414289 71.297958 
L 48.551793 72.25831 
L 48.711544 73.218662 
L 48.891561 74.179014 
L 49.088354 75.139366 
L 49.297005 76.099718 
L 49.511304 77.06007 
L 49.723937 78.020423 
L 49.926739 78.980775 
L 50.110998 79.941127 
L 50.26781 80.901479 
L 50.388475 81.861831 
L 50.464902 82.822183 
L 50.49 83.782535 
L 50.45804 84.742887 
L 50.364934 85.703239 
L 50.208434 86.663592 
L 49.988215 87.623944 
L 49.705844 88.584296 
L 49.364649 89.544648 
L 48.969485 90.505 
L 48.526436 91.465352 
L 48.042477 92.425704 
L 47.525129 93.386056 
L 46.982133 94.346408 
L 46.421164 95.306761 
L 45.849601 96.267113 
L 45.27437 97.227465 
L 44.701831 98.187817 
L 44.137732 99.148169 
L 43.587195 100.108521 
L 43.054724 101.068873 
L 42.544233 102.029225 
L 42.059063 102.989577 
L 41.601999 103.94993 
L 41.17527 104.910282 
L 40.780548 105.870634 
L 40.418941 106.830986 
L 40.090981 107.791338 
L 39.796632 108.75169 
L 39.535309 109.712042 
L 39.305906 110.672394 
L 39.106859 111.632746 
L 38.936213 112.593099 
L 38.791708 113.553451 
L 38.670876 114.513803 
L 38.571131 115.474155 
L 38.489867 116.434507 
L 38.424534 117.394859 
z
" clip-path="url(#pdfe8300d1a)" style="fill: #b69595; fill-opacity: 0.35"/>
   </g>
   <g id="PolyCollection_2">
    <path d="M 62.918149 123.12 
L 62.613851 123.12 
L 62.568581 122.233135 
L 62.513009 121.34627 
L 62.445718 120.459405 
L 62.365314 119.57254 
L 62.270475 118.685676 
L 62.159998 117.798811 
L 62.032832 116.911946 
L 61.888112 116.025081 
L 61.725176 115.138216 
L 61.543569 114.251351 
L 61.343043 113.364486 
L 61.123546 112.477621 
L 60.885216 111.590756 
L 60.628372 110.703891 
L 60.353532 109.817027 
L 60.061431 108.930162 
L 59.753073 108.043297 
L 59.429784 107.156432 
L 59.093288 106.269567 
L 58.745773 105.382702 
L 58.389947 104.495837 
L 58.02907 103.608972 
L 57.666932 102.722107 
L 57.307795 101.835242 
L 56.956267 100.948378 
L 56.617123 100.061513 
L 56.29507 99.174648 
L 55.994492 98.287783 
L 55.71916 97.400918 
L 55.471971 96.514053 
L 55.254705 95.627188 
L 55.067849 94.740323 
L 54.910495 93.853458 
L 54.780328 92.966593 
L 54.67371 92.079729 
L 54.585859 91.192864 
L 54.5111 90.305999 
L 54.443186 89.419134 
L 54.375651 88.532269 
L 54.302176 87.645404 
L 54.216936 86.758539 
L 54.114912 85.871674 
L 53.992134 84.984809 
L 53.84587 84.097944 
L 53.674724 83.21108 
L 53.478674 82.324215 
L 53.259036 81.43735 
L 53.018385 80.550485 
L 52.760429 79.66362 
L 52.489863 78.776755 
L 52.212209 77.88989 
L 51.933645 77.003025 
L 51.660833 76.11616 
L 51.400745 75.229296 
L 51.160486 74.342431 
L 50.947102 73.455566 
L 50.767385 72.568701 
L 50.627668 71.681836 
L 50.533614 70.794971 
L 50.49 69.908106 
L 50.500531 69.021241 
L 50.567665 68.134376 
L 50.692492 67.247511 
L 50.874659 66.360647 
L 51.112374 65.473782 
L 51.402473 64.586917 
L 51.74056 63.700052 
L 52.121217 62.813187 
L 52.538262 61.926322 
L 52.985042 61.039457 
L 53.454738 60.152592 
L 53.94065 59.265727 
L 54.436466 58.378862 
L 54.936459 57.491998 
L 55.435633 56.605133 
L 55.929796 55.718268 
L 56.415561 54.831403 
L 56.890286 53.944538 
L 57.351973 53.057673 
L 57.799124 52.170808 
L 58.2306 51.283943 
L 58.645471 50.397078 
L 59.042903 49.510213 
L 59.422068 48.623349 
L 59.782095 47.736484 
L 60.122069 46.849619 
L 60.441053 45.962754 
L 60.738155 45.075889 
L 61.012594 44.189024 
L 61.263783 43.302159 
L 61.491404 42.415294 
L 61.695459 41.528429 
L 61.876309 40.641564 
L 62.034676 39.7547 
L 62.171627 38.867835 
L 62.288533 37.98097 
L 62.387005 37.094105 
L 62.468826 36.20724 
L 62.535871 35.320375 
L 62.996129 35.320375 
L 62.996129 35.320375 
L 63.063174 36.20724 
L 63.144995 37.094105 
L 63.243467 37.98097 
L 63.360373 38.867835 
L 63.497324 39.7547 
L 63.655691 40.641564 
L 63.836541 41.528429 
L 64.040596 42.415294 
L 64.268217 43.302159 
L 64.519406 44.189024 
L 64.793845 45.075889 
L 65.090947 45.962754 
L 65.409931 46.849619 
L 65.749905 47.736484 
L 66.109932 48.623349 
L 66.489097 49.510213 
L 66.886529 50.397078 
L 67.3014 51.283943 
L 67.732876 52.170808 
L 68.180027 53.057673 
L 68.641714 53.944538 
L 69.116439 54.831403 
L 69.602204 55.718268 
L 70.096367 56.605133 
L 70.595541 57.491998 
L 71.095534 58.378862 
L 71.59135 59.265727 
L 72.077262 60.152592 
L 72.546958 61.039457 
L 72.993738 61.926322 
L 73.410783 62.813187 
L 73.79144 63.700052 
L 74.129527 64.586917 
L 74.419626 65.473782 
L 74.657341 66.360647 
L 74.839508 67.247511 
L 74.964335 68.134376 
L 75.031469 69.021241 
L 75.042 69.908106 
L 74.998386 70.794971 
L 74.904332 71.681836 
L 74.764615 72.568701 
L 74.584898 73.455566 
L 74.371514 74.342431 
L 74.131255 75.229296 
L 73.871167 76.11616 
L 73.598355 77.003025 
L 73.319791 77.88989 
L 73.042137 78.776755 
L 72.771571 79.66362 
L 72.513615 80.550485 
L 72.272964 81.43735 
L 72.053326 82.324215 
L 71.857276 83.21108 
L 71.68613 84.097944 
L 71.539866 84.984809 
L 71.417088 85.871674 
L 71.315064 86.758539 
L 71.229824 87.645404 
L 71.156349 88.532269 
L 71.088814 89.419134 
L 71.0209 90.305999 
L 70.946141 91.192864 
L 70.85829 92.079729 
L 70.751672 92.966593 
L 70.621505 93.853458 
L 70.464151 94.740323 
L 70.277295 95.627188 
L 70.060029 96.514053 
L 69.81284 97.400918 
L 69.537508 98.287783 
L 69.23693 99.174648 
L 68.914877 100.061513 
L 68.575733 100.948378 
L 68.224205 101.835242 
L 67.865068 102.722107 
L 67.50293 103.608972 
L 67.142053 104.495837 
L 66.786227 105.382702 
L 66.438712 106.269567 
L 66.102216 107.156432 
L 65.778927 108.043297 
L 65.470569 108.930162 
L 65.178468 109.817027 
L 64.903628 110.703891 
L 64.646784 111.590756 
L 64.408454 112.477621 
L 64.188957 113.364486 
L 63.988431 114.251351 
L 63.806824 115.138216 
L 63.643888 116.025081 
L 63.499168 116.911946 
L 63.372002 117.798811 
L 63.261525 118.685676 
L 63.166686 119.57254 
L 63.086282 120.459405 
L 63.018991 121.34627 
L 62.963419 122.233135 
L 62.918149 123.12 
z
" clip-path="url(#pdfe8300d1a)" style="fill: #74808c; fill-opacity: 0.35"/>
   </g>
   <g id="PolyCollection_3">
    <path d="M 99.911476 122.158387 
L 99.276524 122.158387 
L 99.188831 121.267305 
L 99.082795 120.376224 
L 98.956284 119.485142 
L 98.807355 118.59406 
L 98.634373 117.702979 
L 98.43613 116.811897 
L 98.211958 115.920815 
L 97.96182 115.029733 
L 97.686372 114.138652 
L 97.38699 113.24757 
L 97.065746 112.356488 
L 96.725336 111.465407 
L 96.368964 110.574325 
L 96.000181 109.683243 
L 95.622701 108.792162 
L 95.240191 107.90108 
L 94.856084 107.009998 
L 94.473402 106.118916 
L 94.094628 105.227835 
L 93.721633 104.336753 
L 93.35567 103.445671 
L 92.997429 102.55459 
L 92.647162 101.663508 
L 92.304839 100.772426 
L 91.970342 99.881345 
L 91.643652 98.990263 
L 91.32502 98.099181 
L 91.015084 97.208099 
L 90.714929 96.317018 
L 90.426074 95.425936 
L 90.150381 94.534854 
L 89.889898 93.643773 
L 89.646659 92.752691 
L 89.422453 91.861609 
L 89.218594 90.970527 
L 89.035726 90.079446 
L 88.873676 89.188364 
L 88.73139 88.297282 
L 88.606954 87.406201 
L 88.497702 86.515119 
L 88.400412 85.624037 
L 88.311569 84.732956 
L 88.227666 83.841874 
L 88.145526 82.950792 
L 88.062599 82.05971 
L 87.977219 81.168629 
L 87.888777 80.277547 
L 87.79781 79.386465 
L 87.705977 78.495384 
L 87.615929 77.604302 
L 87.53109 76.71322 
L 87.455356 75.822139 
L 87.392741 74.931057 
L 87.347011 74.039975 
L 87.321338 73.148893 
L 87.318 72.257812 
L 87.338166 71.36673 
L 87.381791 70.475648 
L 87.447625 69.584567 
L 87.533344 68.693485 
L 87.635792 67.802403 
L 87.751316 66.911322 
L 87.876155 66.02024 
L 88.00686 65.129158 
L 88.14069 64.238076 
L 88.275958 63.346995 
L 88.41228 62.455913 
L 88.550712 61.564831 
L 88.693751 60.67375 
L 88.845195 59.782668 
L 89.009881 58.891586 
L 89.193313 58.000504 
L 89.401217 57.109423 
L 89.639056 56.218341 
L 89.911555 55.327259 
L 90.222272 54.436178 
L 90.573243 53.545096 
L 90.964752 52.654014 
L 91.395213 51.762933 
L 91.861202 50.871851 
L 92.3576 49.980769 
L 92.877865 49.089687 
L 93.414376 48.198606 
L 93.958843 47.307524 
L 94.502737 46.416442 
L 95.03771 45.525361 
L 95.555977 44.634279 
L 96.050637 43.743197 
L 96.515916 42.852116 
L 96.947323 41.961034 
L 97.34172 41.069952 
L 97.697307 40.17887 
L 98.013546 39.287789 
L 98.291017 38.396707 
L 98.531243 37.505625 
L 98.736498 36.614544 
L 98.909593 35.723462 
L 99.053688 34.83238 
L 99.172107 33.941299 
L 100.015893 33.941299 
L 100.015893 33.941299 
L 100.134312 34.83238 
L 100.278407 35.723462 
L 100.451502 36.614544 
L 100.656757 37.505625 
L 100.896983 38.396707 
L 101.174454 39.287789 
L 101.490693 40.17887 
L 101.84628 41.069952 
L 102.240677 41.961034 
L 102.672084 42.852116 
L 103.137363 43.743197 
L 103.632023 44.634279 
L 104.15029 45.525361 
L 104.685263 46.416442 
L 105.229157 47.307524 
L 105.773624 48.198606 
L 106.310135 49.089687 
L 106.8304 49.980769 
L 107.326798 50.871851 
L 107.792787 51.762933 
L 108.223248 52.654014 
L 108.614757 53.545096 
L 108.965728 54.436178 
L 109.276445 55.327259 
L 109.548944 56.218341 
L 109.786783 57.109423 
L 109.994687 58.000504 
L 110.178119 58.891586 
L 110.342805 59.782668 
L 110.494249 60.67375 
L 110.637288 61.564831 
L 110.77572 62.455913 
L 110.912042 63.346995 
L 111.04731 64.238076 
L 111.18114 65.129158 
L 111.311845 66.02024 
L 111.436684 66.911322 
L 111.552208 67.802403 
L 111.654656 68.693485 
L 111.740375 69.584567 
L 111.806209 70.475648 
L 111.849834 71.36673 
L 111.87 72.257812 
L 111.866662 73.148893 
L 111.840989 74.039975 
L 111.795259 74.931057 
L 111.732644 75.822139 
L 111.65691 76.71322 
L 111.572071 77.604302 
L 111.482023 78.495384 
L 111.39019 79.386465 
L 111.299223 80.277547 
L 111.210781 81.168629 
L 111.125401 82.05971 
L 111.042474 82.950792 
L 110.960334 83.841874 
L 110.876431 84.732956 
L 110.787588 85.624037 
L 110.690298 86.515119 
L 110.581046 87.406201 
L 110.45661 88.297282 
L 110.314324 89.188364 
L 110.152274 90.079446 
L 109.969406 90.970527 
L 109.765547 91.861609 
L 109.541341 92.752691 
L 109.298102 93.643773 
L 109.037619 94.534854 
L 108.761926 95.425936 
L 108.473071 96.317018 
L 108.172916 97.208099 
L 107.86298 98.099181 
L 107.544348 98.990263 
L 107.217658 99.881345 
L 106.883161 100.772426 
L 106.540838 101.663508 
L 106.190571 102.55459 
L 105.83233 103.445671 
L 105.466367 104.336753 
L 105.093372 105.227835 
L 104.714598 106.118916 
L 104.331916 107.009998 
L 103.947809 107.90108 
L 103.565299 108.792162 
L 103.187819 109.683243 
L 102.819036 110.574325 
L 102.462664 111.465407 
L 102.122254 112.356488 
L 101.80101 113.24757 
L 101.501628 114.138652 
L 101.22618 115.029733 
L 100.976042 115.920815 
L 100.75187 116.811897 
L 100.553627 117.702979 
L 100.380645 118.59406 
L 100.231716 119.485142 
L 100.105205 120.376224 
L 99.999169 121.267305 
L 99.911476 122.158387 
z
" clip-path="url(#pdfe8300d1a)" style="fill: #b69595; fill-opacity: 0.35"/>
   </g>
   <g id="PolyCollection_4">
    <path d="M 124.242684 119.069723 
L 124.049316 119.069723 
L 124.017578 118.193752 
L 123.977962 117.317781 
L 123.929303 116.44181 
L 123.870452 115.565839 
L 123.800319 114.689868 
L 123.717905 113.813897 
L 123.622324 112.937926 
L 123.51282 112.061955 
L 123.388767 111.185983 
L 123.249662 110.310012 
L 123.095102 109.434041 
L 122.924762 108.55807 
L 122.738364 107.682099 
L 122.535644 106.806128 
L 122.316326 105.930157 
L 122.08009 105.054186 
L 121.826546 104.178215 
L 121.555214 103.302243 
L 121.265502 102.426272 
L 120.9567 101.550301 
L 120.627984 100.67433 
L 120.278448 99.798359 
L 119.907156 98.922388 
L 119.513238 98.046417 
L 119.096017 97.170446 
L 118.655178 96.294474 
L 118.190961 95.418503 
L 117.704377 94.542532 
L 117.197422 93.666561 
L 116.673279 92.79059 
L 116.136477 91.914619 
L 115.592993 91.038648 
L 115.050275 90.162677 
L 114.517163 89.286706 
L 114.003705 88.410734 
L 113.520854 87.534763 
L 113.080047 86.658792 
L 112.692687 85.782821 
L 112.369539 84.90685 
L 112.120088 84.030879 
L 111.951893 83.154908 
L 111.87 82.278937 
L 111.876454 81.402966 
L 111.969976 80.526994 
L 112.145824 79.651023 
L 112.39588 78.775052 
L 112.70896 77.899081 
L 113.071327 77.02311 
L 113.467387 76.147139 
L 113.880521 75.271168 
L 114.293984 74.395197 
L 114.691837 73.519226 
L 115.059837 72.643254 
L 115.386234 71.767283 
L 115.662443 70.891312 
L 115.883529 70.015341 
L 116.048488 69.13937 
L 116.160298 68.263399 
L 116.225718 67.387428 
L 116.25484 66.511457 
L 116.260416 65.635485 
L 116.256978 64.759514 
L 116.259818 63.883543 
L 116.283897 63.007572 
L 116.342769 62.131601 
L 116.447603 61.25563 
L 116.606403 60.379659 
L 116.823488 59.503688 
L 117.099274 58.627717 
L 117.430386 57.751745 
L 117.810073 56.875774 
L 118.228871 55.999803 
L 118.67546 55.123832 
L 119.137594 54.247861 
L 119.603039 53.37189 
L 120.06042 52.495919 
L 120.499902 51.619948 
L 120.913672 50.743977 
L 121.296183 49.868005 
L 121.644186 48.992034 
L 121.956558 48.116063 
L 122.233985 47.240092 
L 122.478539 46.364121 
L 122.693224 45.48815 
L 122.881527 44.612179 
L 123.047028 43.736208 
L 123.193087 42.860237 
L 123.322639 41.984265 
L 123.438087 41.108294 
L 123.541277 40.232323 
L 123.633557 39.356352 
L 123.715868 38.480381 
L 123.788867 37.60441 
L 123.853048 36.728439 
L 123.908842 35.852468 
L 123.956698 34.976496 
L 123.997126 34.100525 
L 124.030722 33.224554 
L 124.058157 32.348583 
L 124.233843 32.348583 
L 124.233843 32.348583 
L 124.261278 33.224554 
L 124.294874 34.100525 
L 124.335302 34.976496 
L 124.383158 35.852468 
L 124.438952 36.728439 
L 124.503133 37.60441 
L 124.576132 38.480381 
L 124.658443 39.356352 
L 124.750723 40.232323 
L 124.853913 41.108294 
L 124.969361 41.984265 
L 125.098913 42.860237 
L 125.244972 43.736208 
L 125.410473 44.612179 
L 125.598776 45.48815 
L 125.813461 46.364121 
L 126.058015 47.240092 
L 126.335442 48.116063 
L 126.647814 48.992034 
L 126.995817 49.868005 
L 127.378328 50.743977 
L 127.792098 51.619948 
L 128.23158 52.495919 
L 128.688961 53.37189 
L 129.154406 54.247861 
L 129.61654 55.123832 
L 130.063129 55.999803 
L 130.481927 56.875774 
L 130.861614 57.751745 
L 131.192726 58.627717 
L 131.468512 59.503688 
L 131.685597 60.379659 
L 131.844397 61.25563 
L 131.949231 62.131601 
L 132.008103 63.007572 
L 132.032182 63.883543 
L 132.035022 64.759514 
L 132.031584 65.635485 
L 132.03716 66.511457 
L 132.066282 67.387428 
L 132.131702 68.263399 
L 132.243512 69.13937 
L 132.408471 70.015341 
L 132.629557 70.891312 
L 132.905766 71.767283 
L 133.232163 72.643254 
L 133.600163 73.519226 
L 133.998016 74.395197 
L 134.411479 75.271168 
L 134.824613 76.147139 
L 135.220673 77.02311 
L 135.58304 77.899081 
L 135.89612 78.775052 
L 136.146176 79.651023 
L 136.322024 80.526994 
L 136.415546 81.402966 
L 136.422 82.278937 
L 136.340107 83.154908 
L 136.171912 84.030879 
L 135.922461 84.90685 
L 135.599313 85.782821 
L 135.211953 86.658792 
L 134.771146 87.534763 
L 134.288295 88.410734 
L 133.774837 89.286706 
L 133.241725 90.162677 
L 132.699007 91.038648 
L 132.155523 91.914619 
L 131.618721 92.79059 
L 131.094578 93.666561 
L 130.587623 94.542532 
L 130.101039 95.418503 
L 129.636822 96.294474 
L 129.195983 97.170446 
L 128.778762 98.046417 
L 128.384844 98.922388 
L 128.013552 99.798359 
L 127.664016 100.67433 
L 127.3353 101.550301 
L 127.026498 102.426272 
L 126.736786 103.302243 
L 126.465454 104.178215 
L 126.21191 105.054186 
L 125.975674 105.930157 
L 125.756356 106.806128 
L 125.553636 107.682099 
L 125.367238 108.55807 
L 125.196898 109.434041 
L 125.042338 110.310012 
L 124.903233 111.185983 
L 124.77918 112.061955 
L 124.669676 112.937926 
L 124.574095 113.813897 
L 124.491681 114.689868 
L 124.421548 115.565839 
L 124.362697 116.44181 
L 124.314038 117.317781 
L 124.274422 118.193752 
L 124.242684 119.069723 
z
" clip-path="url(#pdfe8300d1a)" style="fill: #74808c; fill-opacity: 0.35"/>
   </g>
   <g id="patch_3">
    <path d="M 25.938 92.09398 
L 50.49 92.09398 
L 50.49 73.578526 
L 25.938 73.578526 
L 25.938 92.09398 
z
" clip-path="url(#pdfe8300d1a)" style="fill: none"/>
   </g>
   <g id="patch_4">
    <path d="M 87.318 92.09398 
L 111.87 92.09398 
L 111.87 76.222963 
L 87.318 76.222963 
L 87.318 92.09398 
z
" clip-path="url(#pdfe8300d1a)" style="fill: none"/>
   </g>
   <g id="patch_5">
    <path d="M 50.49 92.09398 
L 75.042 92.09398 
L 75.042 76.879498 
L 50.49 76.879498 
L 50.49 92.09398 
z
" clip-path="url(#pdfe8300d1a)" style="fill: none"/>
   </g>
   <g id="patch_6">
    <path d="M 111.87 92.09398 
L 136.422 92.09398 
L 136.422 76.801475 
L 111.87 76.801475 
L 111.87 92.09398 
z
" clip-path="url(#pdfe8300d1a)" style="fill: none"/>
   </g>
   <g id="patch_7">
    <path d="M 50.49 92.09398 
L 50.49 92.09398 
L 50.49 92.09398 
L 50.49 92.09398 
z
" clip-path="url(#pdfe8300d1a)" style="fill: #3274a1"/>
   </g>
   <g id="patch_8">
    <path d="M 50.49 92.09398 
L 50.49 92.09398 
L 50.49 92.09398 
L 50.49 92.09398 
z
" clip-path="url(#pdfe8300d1a)" style="fill: #e1812c"/>
   </g>
   <g id="matplotlib.axis_1">
    <g id="xtick_1">
     <g id="line2d_1">
      <defs>
       <path id="m0a57aedd5f" d="M 0 0 
L 0 3.5 
" style="stroke: #000000; stroke-width: 1.5"/>
      </defs>
      <g>
       <use xlink:href="#m0a57aedd5f" x="50.49" y="128.16" style="stroke: #000000; stroke-width: 1.5"/>
      </g>
     </g>
     <g id="text_1">
      <!-- HC -->
      <g transform="translate(43.268125 142.317813) scale(0.1 -0.1)">
       <defs>
        <path id="Arial-BoldMT-48" d="M 469 0 
L 469 4581 
L 1394 4581 
L 1394 2778 
L 3206 2778 
L 3206 4581 
L 4131 4581 
L 4131 0 
L 3206 0 
L 3206 2003 
L 1394 2003 
L 1394 0 
L 469 0 
z
" transform="scale(0.015625)"/>
        <path id="Arial-BoldMT-43" d="M 3397 1684 
L 4294 1400 
Q 4088 650 3608 286 
Q 3128 -78 2391 -78 
Q 1478 -78 890 545 
Q 303 1169 303 2250 
Q 303 3394 893 4026 
Q 1484 4659 2447 4659 
Q 3288 4659 3813 4163 
Q 4125 3869 4281 3319 
L 3366 3100 
Q 3284 3456 3026 3662 
Q 2769 3869 2400 3869 
Q 1891 3869 1573 3503 
Q 1256 3138 1256 2319 
Q 1256 1450 1568 1081 
Q 1881 713 2381 713 
Q 2750 713 3015 947 
Q 3281 1181 3397 1684 
z
" transform="scale(0.015625)"/>
       </defs>
       <use xlink:href="#Arial-BoldMT-48"/>
       <use xlink:href="#Arial-BoldMT-43" x="72.216797"/>
      </g>
     </g>
    </g>
    <g id="xtick_2">
     <g id="line2d_2">
      <g>
       <use xlink:href="#m0a57aedd5f" x="111.87" y="128.16" style="stroke: #000000; stroke-width: 1.5"/>
      </g>
     </g>
     <g id="text_2">
      <!-- ND -->
      <g transform="translate(104.648125 142.317813) scale(0.1 -0.1)">
       <defs>
        <path id="Arial-BoldMT-4e" d="M 475 0 
L 475 4581 
L 1375 4581 
L 3250 1522 
L 3250 4581 
L 4109 4581 
L 4109 0 
L 3181 0 
L 1334 2988 
L 1334 0 
L 475 0 
z
" transform="scale(0.015625)"/>
        <path id="Arial-BoldMT-44" d="M 463 4581 
L 2153 4581 
Q 2725 4581 3025 4494 
Q 3428 4375 3715 4072 
Q 4003 3769 4153 3330 
Q 4303 2891 4303 2247 
Q 4303 1681 4163 1272 
Q 3991 772 3672 463 
Q 3431 228 3022 97 
Q 2716 0 2203 0 
L 463 0 
L 463 4581 
z
M 1388 3806 
L 1388 772 
L 2078 772 
Q 2466 772 2638 816 
Q 2863 872 3011 1006 
Q 3159 1141 3253 1448 
Q 3347 1756 3347 2288 
Q 3347 2819 3253 3103 
Q 3159 3388 2990 3547 
Q 2822 3706 2563 3763 
Q 2369 3806 1803 3806 
L 1388 3806 
z
" transform="scale(0.015625)"/>
       </defs>
       <use xlink:href="#Arial-BoldMT-4e"/>
       <use xlink:href="#Arial-BoldMT-44" x="72.216797"/>
      </g>
     </g>
    </g>
   </g>
   <g id="matplotlib.axis_2">
    <g id="ytick_1">
     <g id="line2d_3">
      <defs>
       <path id="m849c2e3c6e" d="M 0 0 
L -3.5 0 
" style="stroke: #000000; stroke-width: 1.5"/>
      </defs>
      <g>
       <use xlink:href="#m849c2e3c6e" x="19.8" y="115.500875" style="stroke: #000000; stroke-width: 1.5"/>
      </g>
     </g>
     <g id="text_3">
      <!-- −0.2 -->
      <g transform="translate(-6.940625 119.079781) scale(0.1 -0.1)">
       <defs>
        <path id="Arial-BoldMT-2212" d="M 266 1850 
L 266 2672 
L 3469 2672 
L 3469 1850 
L 266 1850 
z
" transform="scale(0.015625)"/>
        <path id="Arial-BoldMT-30" d="M 1756 4600 
Q 2422 4600 2797 4125 
Q 3244 3563 3244 2259 
Q 3244 959 2794 391 
Q 2422 -78 1756 -78 
Q 1088 -78 678 436 
Q 269 950 269 2269 
Q 269 3563 719 4131 
Q 1091 4600 1756 4600 
z
M 1756 3872 
Q 1597 3872 1472 3770 
Q 1347 3669 1278 3406 
Q 1188 3066 1188 2259 
Q 1188 1453 1269 1151 
Q 1350 850 1473 750 
Q 1597 650 1756 650 
Q 1916 650 2041 751 
Q 2166 853 2234 1116 
Q 2325 1453 2325 2259 
Q 2325 3066 2244 3367 
Q 2163 3669 2039 3770 
Q 1916 3872 1756 3872 
z
" transform="scale(0.015625)"/>
        <path id="Arial-BoldMT-2e" d="M 459 0 
L 459 878 
L 1338 878 
L 1338 0 
L 459 0 
z
" transform="scale(0.015625)"/>
        <path id="Arial-BoldMT-32" d="M 3238 816 
L 3238 0 
L 159 0 
Q 209 463 459 877 
Q 709 1291 1447 1975 
Q 2041 2528 2175 2725 
Q 2356 2997 2356 3263 
Q 2356 3556 2198 3714 
Q 2041 3872 1763 3872 
Q 1488 3872 1325 3706 
Q 1163 3541 1138 3156 
L 263 3244 
Q 341 3969 753 4284 
Q 1166 4600 1784 4600 
Q 2463 4600 2850 4234 
Q 3238 3869 3238 3325 
Q 3238 3016 3127 2736 
Q 3016 2456 2775 2150 
Q 2616 1947 2200 1565 
Q 1784 1184 1673 1059 
Q 1563 934 1494 816 
L 3238 816 
z
" transform="scale(0.015625)"/>
       </defs>
       <use xlink:href="#Arial-BoldMT-2212"/>
       <use xlink:href="#Arial-BoldMT-30" x="58.398438"/>
       <use xlink:href="#Arial-BoldMT-2e" x="114.013672"/>
       <use xlink:href="#Arial-BoldMT-32" x="141.796875"/>
      </g>
     </g>
    </g>
    <g id="ytick_2">
     <g id="line2d_4">
      <g>
       <use xlink:href="#m849c2e3c6e" x="19.8" y="92.09398" style="stroke: #000000; stroke-width: 1.5"/>
      </g>
     </g>
     <g id="text_4">
      <!-- 0.0 -->
      <g transform="translate(-1.1 95.672886) scale(0.1 -0.1)">
       <use xlink:href="#Arial-BoldMT-30"/>
       <use xlink:href="#Arial-BoldMT-2e" x="55.615234"/>
       <use xlink:href="#Arial-BoldMT-30" x="83.398438"/>
      </g>
     </g>
    </g>
    <g id="ytick_3">
     <g id="line2d_5">
      <g>
       <use xlink:href="#m849c2e3c6e" x="19.8" y="68.687085" style="stroke: #000000; stroke-width: 1.5"/>
      </g>
     </g>
     <g id="text_5">
      <!-- 0.2 -->
      <g transform="translate(-1.1 72.265991) scale(0.1 -0.1)">
       <use xlink:href="#Arial-BoldMT-30"/>
       <use xlink:href="#Arial-BoldMT-2e" x="55.615234"/>
       <use xlink:href="#Arial-BoldMT-32" x="83.398438"/>
      </g>
     </g>
    </g>
    <g id="ytick_4">
     <g id="line2d_6">
      <g>
       <use xlink:href="#m849c2e3c6e" x="19.8" y="45.28019" style="stroke: #000000; stroke-width: 1.5"/>
      </g>
     </g>
     <g id="text_6">
      <!-- 0.4 -->
      <g transform="translate(-1.1 48.859096) scale(0.1 -0.1)">
       <defs>
        <path id="Arial-BoldMT-34" d="M 1994 0 
L 1994 922 
L 119 922 
L 119 1691 
L 2106 4600 
L 2844 4600 
L 2844 1694 
L 3413 1694 
L 3413 922 
L 2844 922 
L 2844 0 
L 1994 0 
z
M 1994 1694 
L 1994 3259 
L 941 1694 
L 1994 1694 
z
" transform="scale(0.015625)"/>
       </defs>
       <use xlink:href="#Arial-BoldMT-30"/>
       <use xlink:href="#Arial-BoldMT-2e" x="55.615234"/>
       <use xlink:href="#Arial-BoldMT-34" x="83.398438"/>
      </g>
     </g>
    </g>
    <g id="ytick_5">
     <g id="line2d_7">
      <g>
       <use xlink:href="#m849c2e3c6e" x="19.8" y="21.873295" style="stroke: #000000; stroke-width: 1.5"/>
      </g>
     </g>
     <g id="text_7">
      <!-- 0.6 -->
      <g transform="translate(-1.1 25.452201) scale(0.1 -0.1)">
       <defs>
        <path id="Arial-BoldMT-36" d="M 3247 3459 
L 2397 3366 
Q 2366 3628 2234 3753 
Q 2103 3878 1894 3878 
Q 1616 3878 1423 3628 
Q 1231 3378 1181 2588 
Q 1509 2975 1997 2975 
Q 2547 2975 2939 2556 
Q 3331 2138 3331 1475 
Q 3331 772 2918 347 
Q 2506 -78 1859 -78 
Q 1166 -78 719 461 
Q 272 1000 272 2228 
Q 272 3488 737 4044 
Q 1203 4600 1947 4600 
Q 2469 4600 2811 4308 
Q 3153 4016 3247 3459 
z
M 1256 1544 
Q 1256 1116 1453 883 
Q 1650 650 1903 650 
Q 2147 650 2309 840 
Q 2472 1031 2472 1466 
Q 2472 1913 2297 2120 
Q 2122 2328 1859 2328 
Q 1606 2328 1431 2129 
Q 1256 1931 1256 1544 
z
" transform="scale(0.015625)"/>
       </defs>
       <use xlink:href="#Arial-BoldMT-30"/>
       <use xlink:href="#Arial-BoldMT-2e" x="55.615234"/>
       <use xlink:href="#Arial-BoldMT-36" x="83.398438"/>
      </g>
     </g>
    </g>
    <g id="text_8">
     <!--  MF score (a.u.) -->
     <g transform="translate(-13.045313 109.389531) rotate(-90) scale(0.1 -0.1)">
      <defs>
       <path id="Arial-BoldMT-20" transform="scale(0.015625)"/>
       <path id="Arial-BoldMT-4d" d="M 453 0 
L 453 4581 
L 1838 4581 
L 2669 1456 
L 3491 4581 
L 4878 4581 
L 4878 0 
L 4019 0 
L 4019 3606 
L 3109 0 
L 2219 0 
L 1313 3606 
L 1313 0 
L 453 0 
z
" transform="scale(0.015625)"/>
       <path id="Arial-BoldMT-46" d="M 472 0 
L 472 4581 
L 3613 4581 
L 3613 3806 
L 1397 3806 
L 1397 2722 
L 3309 2722 
L 3309 1947 
L 1397 1947 
L 1397 0 
L 472 0 
z
" transform="scale(0.015625)"/>
       <path id="Arial-BoldMT-73" d="M 150 947 
L 1031 1081 
Q 1088 825 1259 692 
Q 1431 559 1741 559 
Q 2081 559 2253 684 
Q 2369 772 2369 919 
Q 2369 1019 2306 1084 
Q 2241 1147 2013 1200 
Q 950 1434 666 1628 
Q 272 1897 272 2375 
Q 272 2806 612 3100 
Q 953 3394 1669 3394 
Q 2350 3394 2681 3172 
Q 3013 2950 3138 2516 
L 2309 2363 
Q 2256 2556 2107 2659 
Q 1959 2763 1684 2763 
Q 1338 2763 1188 2666 
Q 1088 2597 1088 2488 
Q 1088 2394 1175 2328 
Q 1294 2241 1995 2081 
Q 2697 1922 2975 1691 
Q 3250 1456 3250 1038 
Q 3250 581 2869 253 
Q 2488 -75 1741 -75 
Q 1063 -75 667 200 
Q 272 475 150 947 
z
" transform="scale(0.015625)"/>
       <path id="Arial-BoldMT-63" d="M 3353 2338 
L 2488 2181 
Q 2444 2441 2289 2572 
Q 2134 2703 1888 2703 
Q 1559 2703 1364 2476 
Q 1169 2250 1169 1719 
Q 1169 1128 1367 884 
Q 1566 641 1900 641 
Q 2150 641 2309 783 
Q 2469 925 2534 1272 
L 3397 1125 
Q 3263 531 2881 228 
Q 2500 -75 1859 -75 
Q 1131 -75 698 384 
Q 266 844 266 1656 
Q 266 2478 700 2936 
Q 1134 3394 1875 3394 
Q 2481 3394 2839 3133 
Q 3197 2872 3353 2338 
z
" transform="scale(0.015625)"/>
       <path id="Arial-BoldMT-6f" d="M 256 1706 
Q 256 2144 472 2553 
Q 688 2963 1083 3178 
Q 1478 3394 1966 3394 
Q 2719 3394 3200 2905 
Q 3681 2416 3681 1669 
Q 3681 916 3195 420 
Q 2709 -75 1972 -75 
Q 1516 -75 1102 131 
Q 688 338 472 736 
Q 256 1134 256 1706 
z
M 1156 1659 
Q 1156 1166 1390 903 
Q 1625 641 1969 641 
Q 2313 641 2545 903 
Q 2778 1166 2778 1666 
Q 2778 2153 2545 2415 
Q 2313 2678 1969 2678 
Q 1625 2678 1390 2415 
Q 1156 2153 1156 1659 
z
" transform="scale(0.015625)"/>
       <path id="Arial-BoldMT-72" d="M 1300 0 
L 422 0 
L 422 3319 
L 1238 3319 
L 1238 2847 
Q 1447 3181 1614 3287 
Q 1781 3394 1994 3394 
Q 2294 3394 2572 3228 
L 2300 2463 
Q 2078 2606 1888 2606 
Q 1703 2606 1575 2504 
Q 1447 2403 1373 2137 
Q 1300 1872 1300 1025 
L 1300 0 
z
" transform="scale(0.015625)"/>
       <path id="Arial-BoldMT-65" d="M 2381 1056 
L 3256 909 
Q 3088 428 2723 176 
Q 2359 -75 1813 -75 
Q 947 -75 531 491 
Q 203 944 203 1634 
Q 203 2459 634 2926 
Q 1066 3394 1725 3394 
Q 2466 3394 2894 2905 
Q 3322 2416 3303 1406 
L 1103 1406 
Q 1113 1016 1316 798 
Q 1519 581 1822 581 
Q 2028 581 2168 693 
Q 2309 806 2381 1056 
z
M 2431 1944 
Q 2422 2325 2234 2523 
Q 2047 2722 1778 2722 
Q 1491 2722 1303 2513 
Q 1116 2303 1119 1944 
L 2431 1944 
z
" transform="scale(0.015625)"/>
       <path id="Arial-BoldMT-28" d="M 1916 -1347 
L 1313 -1347 
Q 834 -625 584 153 
Q 334 931 334 1659 
Q 334 2563 644 3369 
Q 913 4069 1325 4659 
L 1925 4659 
Q 1497 3713 1336 3048 
Q 1175 2384 1175 1641 
Q 1175 1128 1270 590 
Q 1366 53 1531 -431 
Q 1641 -750 1916 -1347 
z
" transform="scale(0.015625)"/>
       <path id="Arial-BoldMT-61" d="M 1116 2306 
L 319 2450 
Q 453 2931 781 3162 
Q 1109 3394 1756 3394 
Q 2344 3394 2631 3255 
Q 2919 3116 3036 2902 
Q 3153 2688 3153 2116 
L 3144 1091 
Q 3144 653 3186 445 
Q 3228 238 3344 0 
L 2475 0 
Q 2441 88 2391 259 
Q 2369 338 2359 363 
Q 2134 144 1878 34 
Q 1622 -75 1331 -75 
Q 819 -75 523 203 
Q 228 481 228 906 
Q 228 1188 362 1408 
Q 497 1628 739 1745 
Q 981 1863 1438 1950 
Q 2053 2066 2291 2166 
L 2291 2253 
Q 2291 2506 2166 2614 
Q 2041 2722 1694 2722 
Q 1459 2722 1328 2630 
Q 1197 2538 1116 2306 
z
M 2291 1594 
Q 2122 1538 1756 1459 
Q 1391 1381 1278 1306 
Q 1106 1184 1106 997 
Q 1106 813 1243 678 
Q 1381 544 1594 544 
Q 1831 544 2047 700 
Q 2206 819 2256 991 
Q 2291 1103 2291 1419 
L 2291 1594 
z
" transform="scale(0.015625)"/>
       <path id="Arial-BoldMT-75" d="M 2644 0 
L 2644 497 
Q 2463 231 2167 78 
Q 1872 -75 1544 -75 
Q 1209 -75 943 72 
Q 678 219 559 484 
Q 441 750 441 1219 
L 441 3319 
L 1319 3319 
L 1319 1794 
Q 1319 1094 1367 936 
Q 1416 778 1544 686 
Q 1672 594 1869 594 
Q 2094 594 2272 717 
Q 2450 841 2515 1023 
Q 2581 1206 2581 1919 
L 2581 3319 
L 3459 3319 
L 3459 0 
L 2644 0 
z
" transform="scale(0.015625)"/>
       <path id="Arial-BoldMT-29" d="M 216 -1347 
Q 475 -791 581 -494 
Q 688 -197 778 190 
Q 869 578 912 926 
Q 956 1275 956 1641 
Q 956 2384 797 3048 
Q 638 3713 209 4659 
L 806 4659 
Q 1278 3988 1539 3234 
Q 1800 2481 1800 1706 
Q 1800 1053 1594 306 
Q 1359 -531 822 -1347 
L 216 -1347 
z
" transform="scale(0.015625)"/>
      </defs>
      <use xlink:href="#Arial-BoldMT-20"/>
      <use xlink:href="#Arial-BoldMT-4d" x="27.783203"/>
      <use xlink:href="#Arial-BoldMT-46" x="111.083984"/>
      <use xlink:href="#Arial-BoldMT-20" x="172.167969"/>
      <use xlink:href="#Arial-BoldMT-73" x="199.951172"/>
      <use xlink:href="#Arial-BoldMT-63" x="255.566406"/>
      <use xlink:href="#Arial-BoldMT-6f" x="311.181641"/>
      <use xlink:href="#Arial-BoldMT-72" x="372.265625"/>
      <use xlink:href="#Arial-BoldMT-65" x="411.181641"/>
      <use xlink:href="#Arial-BoldMT-20" x="466.796875"/>
      <use xlink:href="#Arial-BoldMT-28" x="494.580078"/>
      <use xlink:href="#Arial-BoldMT-61" x="527.880859"/>
      <use xlink:href="#Arial-BoldMT-2e" x="583.496094"/>
      <use xlink:href="#Arial-BoldMT-75" x="611.279297"/>
      <use xlink:href="#Arial-BoldMT-2e" x="672.363281"/>
      <use xlink:href="#Arial-BoldMT-29" x="700.146484"/>
     </g>
    </g>
   </g>
   <g id="PathCollection_1">
    <defs>
     <path id="C0_0_e091306bde" d="M 0 3.5 
C 0.928211 3.5 1.81853 3.131218 2.474874 2.474874 
C 3.131218 1.81853 3.5 0.928211 3.5 -0 
C 3.5 -0.928211 3.131218 -1.81853 2.474874 -2.474874 
C 1.81853 -3.131218 0.928211 -3.5 0 -3.5 
C -0.928211 -3.5 -1.81853 -3.131218 -2.474874 -2.474874 
C -3.131218 -1.81853 -3.5 -0.928211 -3.5 0 
C -3.5 0.928211 -3.131218 1.81853 -2.474874 2.474874 
C -1.81853 3.131218 -0.928211 3.5 0 3.5 
z
"/>
    </defs>
    <g clip-path="url(#pdfe8300d1a)">
     <use xlink:href="#C0_0_e091306bde" x="38.000416" y="73.368464" style="fill: #bc8f8f; fill-opacity: 0.7"/>
    </g>
    <g clip-path="url(#pdfe8300d1a)">
     <use xlink:href="#C0_0_e091306bde" x="39.174654" y="56.983637" style="fill: #bc8f8f; fill-opacity: 0.7"/>
    </g>
    <g clip-path="url(#pdfe8300d1a)">
     <use xlink:href="#C0_0_e091306bde" x="40.016329" y="82.731222" style="fill: #bc8f8f; fill-opacity: 0.7"/>
    </g>
    <g clip-path="url(#pdfe8300d1a)">
     <use xlink:href="#C0_0_e091306bde" x="40.645482" y="61.665016" style="fill: #bc8f8f; fill-opacity: 0.7"/>
    </g>
    <g clip-path="url(#pdfe8300d1a)">
     <use xlink:href="#C0_0_e091306bde" x="38.289041" y="73.368464" style="fill: #bc8f8f; fill-opacity: 0.7"/>
    </g>
    <g clip-path="url(#pdfe8300d1a)">
     <use xlink:href="#C0_0_e091306bde" x="39.734188" y="87.412601" style="fill: #bc8f8f; fill-opacity: 0.7"/>
    </g>
    <g clip-path="url(#pdfe8300d1a)">
     <use xlink:href="#C0_0_e091306bde" x="38.87049" y="56.983637" style="fill: #bc8f8f; fill-opacity: 0.7"/>
    </g>
    <g clip-path="url(#pdfe8300d1a)">
     <use xlink:href="#C0_0_e091306bde" x="36.273447" y="56.983637" style="fill: #bc8f8f; fill-opacity: 0.7"/>
    </g>
    <g clip-path="url(#pdfe8300d1a)">
     <use xlink:href="#C0_0_e091306bde" x="35.879355" y="68.687085" style="fill: #bc8f8f; fill-opacity: 0.7"/>
    </g>
    <g clip-path="url(#pdfe8300d1a)">
     <use xlink:href="#C0_0_e091306bde" x="37.92093" y="66.346395" style="fill: #bc8f8f; fill-opacity: 0.7"/>
    </g>
    <g clip-path="url(#pdfe8300d1a)">
     <use xlink:href="#C0_0_e091306bde" x="38.215598" y="85.071911" style="fill: #bc8f8f; fill-opacity: 0.7"/>
    </g>
    <g clip-path="url(#pdfe8300d1a)">
     <use xlink:href="#C0_0_e091306bde" x="37.269425" y="75.709153" style="fill: #bc8f8f; fill-opacity: 0.7"/>
    </g>
    <g clip-path="url(#pdfe8300d1a)">
     <use xlink:href="#C0_0_e091306bde" x="40.652826" y="47.620879" style="fill: #bc8f8f; fill-opacity: 0.7"/>
    </g>
    <g clip-path="url(#pdfe8300d1a)">
     <use xlink:href="#C0_0_e091306bde" x="35.651361" y="85.071911" style="fill: #bc8f8f; fill-opacity: 0.7"/>
    </g>
    <g clip-path="url(#pdfe8300d1a)">
     <use xlink:href="#C0_0_e091306bde" x="36.803345" y="66.346395" style="fill: #bc8f8f; fill-opacity: 0.7"/>
    </g>
    <g clip-path="url(#pdfe8300d1a)">
     <use xlink:href="#C0_0_e091306bde" x="35.52685" y="94.434669" style="fill: #bc8f8f; fill-opacity: 0.7"/>
    </g>
    <g clip-path="url(#pdfe8300d1a)">
     <use xlink:href="#C0_0_e091306bde" x="37.818504" y="38.258121" style="fill: #bc8f8f; fill-opacity: 0.7"/>
    </g>
    <g clip-path="url(#pdfe8300d1a)">
     <use xlink:href="#C0_0_e091306bde" x="38.499726" y="56.983637" style="fill: #bc8f8f; fill-opacity: 0.7"/>
    </g>
    <g clip-path="url(#pdfe8300d1a)">
     <use xlink:href="#C0_0_e091306bde" x="36.119872" y="54.642948" style="fill: #bc8f8f; fill-opacity: 0.7"/>
    </g>
    <g clip-path="url(#pdfe8300d1a)">
     <use xlink:href="#C0_0_e091306bde" x="39.483586" y="89.75329" style="fill: #bc8f8f; fill-opacity: 0.7"/>
    </g>
    <g clip-path="url(#pdfe8300d1a)">
     <use xlink:href="#C0_0_e091306bde" x="37.634218" y="73.368464" style="fill: #bc8f8f; fill-opacity: 0.7"/>
    </g>
    <g clip-path="url(#pdfe8300d1a)">
     <use xlink:href="#C0_0_e091306bde" x="38.708109" y="75.709153" style="fill: #bc8f8f; fill-opacity: 0.7"/>
    </g>
    <g clip-path="url(#pdfe8300d1a)">
     <use xlink:href="#C0_0_e091306bde" x="37.631758" y="59.324327" style="fill: #bc8f8f; fill-opacity: 0.7"/>
    </g>
    <g clip-path="url(#pdfe8300d1a)">
     <use xlink:href="#C0_0_e091306bde" x="40.44083" y="42.9395" style="fill: #bc8f8f; fill-opacity: 0.7"/>
    </g>
    <g clip-path="url(#pdfe8300d1a)">
     <use xlink:href="#C0_0_e091306bde" x="38.754457" y="46.450535" style="fill: #bc8f8f; fill-opacity: 0.7"/>
    </g>
    <g clip-path="url(#pdfe8300d1a)">
     <use xlink:href="#C0_0_e091306bde" x="37.946665" y="64.005706" style="fill: #bc8f8f; fill-opacity: 0.7"/>
    </g>
    <g clip-path="url(#pdfe8300d1a)">
     <use xlink:href="#C0_0_e091306bde" x="38.742557" y="92.09398" style="fill: #bc8f8f; fill-opacity: 0.7"/>
    </g>
    <g clip-path="url(#pdfe8300d1a)">
     <use xlink:href="#C0_0_e091306bde" x="38.458193" y="87.412601" style="fill: #bc8f8f; fill-opacity: 0.7"/>
    </g>
    <g clip-path="url(#pdfe8300d1a)">
     <use xlink:href="#C0_0_e091306bde" x="39.190537" y="78.049843" style="fill: #bc8f8f; fill-opacity: 0.7"/>
    </g>
    <g clip-path="url(#pdfe8300d1a)">
     <use xlink:href="#C0_0_e091306bde" x="41.161312" y="61.665016" style="fill: #bc8f8f; fill-opacity: 0.7"/>
    </g>
    <g clip-path="url(#pdfe8300d1a)">
     <use xlink:href="#C0_0_e091306bde" x="40.8873" y="92.09398" style="fill: #bc8f8f; fill-opacity: 0.7"/>
    </g>
    <g clip-path="url(#pdfe8300d1a)">
     <use xlink:href="#C0_0_e091306bde" x="41.166365" y="87.412601" style="fill: #bc8f8f; fill-opacity: 0.7"/>
    </g>
    <g clip-path="url(#pdfe8300d1a)">
     <use xlink:href="#C0_0_e091306bde" x="38.960405" y="82.731222" style="fill: #bc8f8f; fill-opacity: 0.7"/>
    </g>
    <g clip-path="url(#pdfe8300d1a)">
     <use xlink:href="#C0_0_e091306bde" x="40.121559" y="101.456738" style="fill: #bc8f8f; fill-opacity: 0.7"/>
    </g>
    <g clip-path="url(#pdfe8300d1a)">
     <use xlink:href="#C0_0_e091306bde" x="37.090176" y="99.116048" style="fill: #bc8f8f; fill-opacity: 0.7"/>
    </g>
    <g clip-path="url(#pdfe8300d1a)">
     <use xlink:href="#C0_0_e091306bde" x="36.294911" y="85.071911" style="fill: #bc8f8f; fill-opacity: 0.7"/>
    </g>
    <g clip-path="url(#pdfe8300d1a)">
     <use xlink:href="#C0_0_e091306bde" x="35.187056" y="96.775359" style="fill: #bc8f8f; fill-opacity: 0.7"/>
    </g>
    <g clip-path="url(#pdfe8300d1a)">
     <use xlink:href="#C0_0_e091306bde" x="36.634093" y="82.731222" style="fill: #bc8f8f; fill-opacity: 0.7"/>
    </g>
    <g clip-path="url(#pdfe8300d1a)">
     <use xlink:href="#C0_0_e091306bde" x="40.448937" y="82.731222" style="fill: #bc8f8f; fill-opacity: 0.7"/>
    </g>
   </g>
   <g id="PathCollection_2">
    <defs>
     <path id="C1_0_fa19d03802" d="M 0 3.5 
C 0.928211 3.5 1.81853 3.131218 2.474874 2.474874 
C 3.131218 1.81853 3.5 0.928211 3.5 -0 
C 3.5 -0.928211 3.131218 -1.81853 2.474874 -2.474874 
C 1.81853 -3.131218 0.928211 -3.5 0 -3.5 
C -0.928211 -3.5 -1.81853 -3.131218 -2.474874 -2.474874 
C -3.131218 -1.81853 -3.5 -0.928211 -3.5 0 
C -3.5 0.928211 -3.131218 1.81853 -2.474874 2.474874 
C -1.81853 3.131218 -0.928211 3.5 0 3.5 
z
"/>
    </defs>
    <g clip-path="url(#pdfe8300d1a)">
     <use xlink:href="#C1_0_fa19d03802" x="63.117489" y="61.665016" style="fill: #708090; fill-opacity: 0.7"/>
    </g>
    <g clip-path="url(#pdfe8300d1a)">
     <use xlink:href="#C1_0_fa19d03802" x="64.568244" y="68.687085" style="fill: #708090; fill-opacity: 0.7"/>
    </g>
    <g clip-path="url(#pdfe8300d1a)">
     <use xlink:href="#C1_0_fa19d03802" x="65.40185" y="73.368464" style="fill: #708090; fill-opacity: 0.7"/>
    </g>
    <g clip-path="url(#pdfe8300d1a)">
     <use xlink:href="#C1_0_fa19d03802" x="61.976412" y="66.346395" style="fill: #708090; fill-opacity: 0.7"/>
    </g>
    <g clip-path="url(#pdfe8300d1a)">
     <use xlink:href="#C1_0_fa19d03802" x="64.336381" y="99.116048" style="fill: #708090; fill-opacity: 0.7"/>
    </g>
    <g clip-path="url(#pdfe8300d1a)">
     <use xlink:href="#C1_0_fa19d03802" x="60.118544" y="80.390532" style="fill: #708090; fill-opacity: 0.7"/>
    </g>
    <g clip-path="url(#pdfe8300d1a)">
     <use xlink:href="#C1_0_fa19d03802" x="60.791868" y="94.434669" style="fill: #708090; fill-opacity: 0.7"/>
    </g>
    <g clip-path="url(#pdfe8300d1a)">
     <use xlink:href="#C1_0_fa19d03802" x="60.600396" y="73.368464" style="fill: #708090; fill-opacity: 0.7"/>
    </g>
    <g clip-path="url(#pdfe8300d1a)">
     <use xlink:href="#C1_0_fa19d03802" x="64.122452" y="80.390532" style="fill: #708090; fill-opacity: 0.7"/>
    </g>
    <g clip-path="url(#pdfe8300d1a)">
     <use xlink:href="#C1_0_fa19d03802" x="63.781813" y="94.434669" style="fill: #708090; fill-opacity: 0.7"/>
    </g>
    <g clip-path="url(#pdfe8300d1a)">
     <use xlink:href="#C1_0_fa19d03802" x="61.632961" y="82.731222" style="fill: #708090; fill-opacity: 0.7"/>
    </g>
    <g clip-path="url(#pdfe8300d1a)">
     <use xlink:href="#C1_0_fa19d03802" x="59.884831" y="61.665016" style="fill: #708090; fill-opacity: 0.7"/>
    </g>
    <g clip-path="url(#pdfe8300d1a)">
     <use xlink:href="#C1_0_fa19d03802" x="60.183757" y="66.346395" style="fill: #708090; fill-opacity: 0.7"/>
    </g>
    <g clip-path="url(#pdfe8300d1a)">
     <use xlink:href="#C1_0_fa19d03802" x="65.29674" y="56.983637" style="fill: #708090; fill-opacity: 0.7"/>
    </g>
    <g clip-path="url(#pdfe8300d1a)">
     <use xlink:href="#C1_0_fa19d03802" x="62.319936" y="54.642948" style="fill: #708090; fill-opacity: 0.7"/>
    </g>
    <g clip-path="url(#pdfe8300d1a)">
     <use xlink:href="#C1_0_fa19d03802" x="61.639115" y="66.346395" style="fill: #708090; fill-opacity: 0.7"/>
    </g>
    <g clip-path="url(#pdfe8300d1a)">
     <use xlink:href="#C1_0_fa19d03802" x="61.864627" y="87.412601" style="fill: #708090; fill-opacity: 0.7"/>
    </g>
    <g clip-path="url(#pdfe8300d1a)">
     <use xlink:href="#C1_0_fa19d03802" x="62.712895" y="92.09398" style="fill: #708090; fill-opacity: 0.7"/>
    </g>
    <g clip-path="url(#pdfe8300d1a)">
     <use xlink:href="#C1_0_fa19d03802" x="61.121693" y="99.116048" style="fill: #708090; fill-opacity: 0.7"/>
    </g>
    <g clip-path="url(#pdfe8300d1a)">
     <use xlink:href="#C1_0_fa19d03802" x="60.85443" y="61.665016" style="fill: #708090; fill-opacity: 0.7"/>
    </g>
    <g clip-path="url(#pdfe8300d1a)">
     <use xlink:href="#C1_0_fa19d03802" x="64.559301" y="71.027774" style="fill: #708090; fill-opacity: 0.7"/>
    </g>
    <g clip-path="url(#pdfe8300d1a)">
     <use xlink:href="#C1_0_fa19d03802" x="64.591685" y="64.005706" style="fill: #708090; fill-opacity: 0.7"/>
    </g>
    <g clip-path="url(#pdfe8300d1a)">
     <use xlink:href="#C1_0_fa19d03802" x="61.275702" y="96.775359" style="fill: #708090; fill-opacity: 0.7"/>
    </g>
    <g clip-path="url(#pdfe8300d1a)">
     <use xlink:href="#C1_0_fa19d03802" x="61.724177" y="75.709153" style="fill: #708090; fill-opacity: 0.7"/>
    </g>
    <g clip-path="url(#pdfe8300d1a)">
     <use xlink:href="#C1_0_fa19d03802" x="60.509254" y="64.005706" style="fill: #708090; fill-opacity: 0.7"/>
    </g>
    <g clip-path="url(#pdfe8300d1a)">
     <use xlink:href="#C1_0_fa19d03802" x="64.74711" y="68.687085" style="fill: #708090; fill-opacity: 0.7"/>
    </g>
    <g clip-path="url(#pdfe8300d1a)">
     <use xlink:href="#C1_0_fa19d03802" x="65.586801" y="82.731222" style="fill: #708090; fill-opacity: 0.7"/>
    </g>
    <g clip-path="url(#pdfe8300d1a)">
     <use xlink:href="#C1_0_fa19d03802" x="59.960825" y="99.116048" style="fill: #708090; fill-opacity: 0.7"/>
    </g>
    <g clip-path="url(#pdfe8300d1a)">
     <use xlink:href="#C1_0_fa19d03802" x="60.328017" y="49.961569" style="fill: #708090; fill-opacity: 0.7"/>
    </g>
    <g clip-path="url(#pdfe8300d1a)">
     <use xlink:href="#C1_0_fa19d03802" x="64.875311" y="89.75329" style="fill: #708090; fill-opacity: 0.7"/>
    </g>
    <g clip-path="url(#pdfe8300d1a)">
     <use xlink:href="#C1_0_fa19d03802" x="60.683383" y="68.687085" style="fill: #708090; fill-opacity: 0.7"/>
    </g>
    <g clip-path="url(#pdfe8300d1a)">
     <use xlink:href="#C1_0_fa19d03802" x="61.962523" y="49.961569" style="fill: #708090; fill-opacity: 0.7"/>
    </g>
    <g clip-path="url(#pdfe8300d1a)">
     <use xlink:href="#C1_0_fa19d03802" x="61.29881" y="106.138117" style="fill: #708090; fill-opacity: 0.7"/>
    </g>
    <g clip-path="url(#pdfe8300d1a)">
     <use xlink:href="#C1_0_fa19d03802" x="63.120789" y="108.478806" style="fill: #708090; fill-opacity: 0.7"/>
    </g>
    <g clip-path="url(#pdfe8300d1a)">
     <use xlink:href="#C1_0_fa19d03802" x="64.872265" y="75.709153" style="fill: #708090; fill-opacity: 0.7"/>
    </g>
    <g clip-path="url(#pdfe8300d1a)">
     <use xlink:href="#C1_0_fa19d03802" x="64.498452" y="68.687085" style="fill: #708090; fill-opacity: 0.7"/>
    </g>
    <g clip-path="url(#pdfe8300d1a)">
     <use xlink:href="#C1_0_fa19d03802" x="63.298812" y="75.709153" style="fill: #708090; fill-opacity: 0.7"/>
    </g>
    <g clip-path="url(#pdfe8300d1a)">
     <use xlink:href="#C1_0_fa19d03802" x="62.781948" y="92.09398" style="fill: #708090; fill-opacity: 0.7"/>
    </g>
    <g clip-path="url(#pdfe8300d1a)">
     <use xlink:href="#C1_0_fa19d03802" x="61.501976" y="73.368464" style="fill: #708090; fill-opacity: 0.7"/>
    </g>
    <g clip-path="url(#pdfe8300d1a)">
     <use xlink:href="#C1_0_fa19d03802" x="64.744098" y="80.390532" style="fill: #708090; fill-opacity: 0.7"/>
    </g>
    <g clip-path="url(#pdfe8300d1a)">
     <use xlink:href="#C1_0_fa19d03802" x="62.107702" y="56.983637" style="fill: #708090; fill-opacity: 0.7"/>
    </g>
    <g clip-path="url(#pdfe8300d1a)">
     <use xlink:href="#C1_0_fa19d03802" x="63.347651" y="89.75329" style="fill: #708090; fill-opacity: 0.7"/>
    </g>
   </g>
   <g id="PathCollection_3">
    <defs>
     <path id="C2_0_0baee63021" d="M 0 3.5 
C 0.928211 3.5 1.81853 3.131218 2.474874 2.474874 
C 3.131218 1.81853 3.5 0.928211 3.5 -0 
C 3.5 -0.928211 3.131218 -1.81853 2.474874 -2.474874 
C 1.81853 -3.131218 0.928211 -3.5 0 -3.5 
C -0.928211 -3.5 -1.81853 -3.131218 -2.474874 -2.474874 
C -3.131218 -1.81853 -3.5 -0.928211 -3.5 0 
C -3.5 0.928211 -3.131218 1.81853 -2.474874 2.474874 
C -1.81853 3.131218 -0.928211 3.5 0 3.5 
z
"/>
    </defs>
    <g clip-path="url(#pdfe8300d1a)">
     <use xlink:href="#C2_0_0baee63021" x="98.95903" y="64.005706" style="fill: #bc8f8f; fill-opacity: 0.7"/>
    </g>
    <g clip-path="url(#pdfe8300d1a)">
     <use xlink:href="#C2_0_0baee63021" x="100.257918" y="75.709153" style="fill: #bc8f8f; fill-opacity: 0.7"/>
    </g>
    <g clip-path="url(#pdfe8300d1a)">
     <use xlink:href="#C2_0_0baee63021" x="97.035439" y="106.138117" style="fill: #bc8f8f; fill-opacity: 0.7"/>
    </g>
    <g clip-path="url(#pdfe8300d1a)">
     <use xlink:href="#C2_0_0baee63021" x="98.251692" y="49.961569" style="fill: #bc8f8f; fill-opacity: 0.7"/>
    </g>
    <g clip-path="url(#pdfe8300d1a)">
     <use xlink:href="#C2_0_0baee63021" x="101.857052" y="68.687085" style="fill: #bc8f8f; fill-opacity: 0.7"/>
    </g>
    <g clip-path="url(#pdfe8300d1a)">
     <use xlink:href="#C2_0_0baee63021" x="98.474778" y="85.071911" style="fill: #bc8f8f; fill-opacity: 0.7"/>
    </g>
    <g clip-path="url(#pdfe8300d1a)">
     <use xlink:href="#C2_0_0baee63021" x="98.752882" y="49.961569" style="fill: #bc8f8f; fill-opacity: 0.7"/>
    </g>
    <g clip-path="url(#pdfe8300d1a)">
     <use xlink:href="#C2_0_0baee63021" x="102.098953" y="56.983637" style="fill: #bc8f8f; fill-opacity: 0.7"/>
    </g>
    <g clip-path="url(#pdfe8300d1a)">
     <use xlink:href="#C2_0_0baee63021" x="98.383757" y="73.368464" style="fill: #bc8f8f; fill-opacity: 0.7"/>
    </g>
    <g clip-path="url(#pdfe8300d1a)">
     <use xlink:href="#C2_0_0baee63021" x="98.784483" y="87.412601" style="fill: #bc8f8f; fill-opacity: 0.7"/>
    </g>
    <g clip-path="url(#pdfe8300d1a)">
     <use xlink:href="#C2_0_0baee63021" x="100.574757" y="71.027774" style="fill: #bc8f8f; fill-opacity: 0.7"/>
    </g>
    <g clip-path="url(#pdfe8300d1a)">
     <use xlink:href="#C2_0_0baee63021" x="98.060552" y="54.642948" style="fill: #bc8f8f; fill-opacity: 0.7"/>
    </g>
    <g clip-path="url(#pdfe8300d1a)">
     <use xlink:href="#C2_0_0baee63021" x="100.694943" y="54.642948" style="fill: #bc8f8f; fill-opacity: 0.7"/>
    </g>
    <g clip-path="url(#pdfe8300d1a)">
     <use xlink:href="#C2_0_0baee63021" x="101.395588" y="68.687085" style="fill: #bc8f8f; fill-opacity: 0.7"/>
    </g>
    <g clip-path="url(#pdfe8300d1a)">
     <use xlink:href="#C2_0_0baee63021" x="101.107075" y="68.687085" style="fill: #bc8f8f; fill-opacity: 0.7"/>
    </g>
    <g clip-path="url(#pdfe8300d1a)">
     <use xlink:href="#C2_0_0baee63021" x="100.919229" y="89.75329" style="fill: #bc8f8f; fill-opacity: 0.7"/>
    </g>
    <g clip-path="url(#pdfe8300d1a)">
     <use xlink:href="#C2_0_0baee63021" x="98.937067" y="89.75329" style="fill: #bc8f8f; fill-opacity: 0.7"/>
    </g>
    <g clip-path="url(#pdfe8300d1a)">
     <use xlink:href="#C2_0_0baee63021" x="96.913887" y="54.642948" style="fill: #bc8f8f; fill-opacity: 0.7"/>
    </g>
    <g clip-path="url(#pdfe8300d1a)">
     <use xlink:href="#C2_0_0baee63021" x="96.659016" y="59.324327" style="fill: #bc8f8f; fill-opacity: 0.7"/>
    </g>
    <g clip-path="url(#pdfe8300d1a)">
     <use xlink:href="#C2_0_0baee63021" x="97.436455" y="75.709153" style="fill: #bc8f8f; fill-opacity: 0.7"/>
    </g>
    <g clip-path="url(#pdfe8300d1a)">
     <use xlink:href="#C2_0_0baee63021" x="99.452259" y="89.75329" style="fill: #bc8f8f; fill-opacity: 0.7"/>
    </g>
    <g clip-path="url(#pdfe8300d1a)">
     <use xlink:href="#C2_0_0baee63021" x="99.081031" y="82.731222" style="fill: #bc8f8f; fill-opacity: 0.7"/>
    </g>
    <g clip-path="url(#pdfe8300d1a)">
     <use xlink:href="#C2_0_0baee63021" x="99.024388" y="54.642948" style="fill: #bc8f8f; fill-opacity: 0.7"/>
    </g>
    <g clip-path="url(#pdfe8300d1a)">
     <use xlink:href="#C2_0_0baee63021" x="97.60936" y="73.368464" style="fill: #bc8f8f; fill-opacity: 0.7"/>
    </g>
    <g clip-path="url(#pdfe8300d1a)">
     <use xlink:href="#C2_0_0baee63021" x="98.78984" y="103.797427" style="fill: #bc8f8f; fill-opacity: 0.7"/>
    </g>
    <g clip-path="url(#pdfe8300d1a)">
     <use xlink:href="#C2_0_0baee63021" x="100.173092" y="92.09398" style="fill: #bc8f8f; fill-opacity: 0.7"/>
    </g>
    <g clip-path="url(#pdfe8300d1a)">
     <use xlink:href="#C2_0_0baee63021" x="97.24096" y="75.709153" style="fill: #bc8f8f; fill-opacity: 0.7"/>
    </g>
    <g clip-path="url(#pdfe8300d1a)">
     <use xlink:href="#C2_0_0baee63021" x="99.633128" y="56.983637" style="fill: #bc8f8f; fill-opacity: 0.7"/>
    </g>
    <g clip-path="url(#pdfe8300d1a)">
     <use xlink:href="#C2_0_0baee63021" x="97.629244" y="78.049843" style="fill: #bc8f8f; fill-opacity: 0.7"/>
    </g>
    <g clip-path="url(#pdfe8300d1a)">
     <use xlink:href="#C2_0_0baee63021" x="100.809999" y="85.071911" style="fill: #bc8f8f; fill-opacity: 0.7"/>
    </g>
    <g clip-path="url(#pdfe8300d1a)">
     <use xlink:href="#C2_0_0baee63021" x="97.520199" y="94.434669" style="fill: #bc8f8f; fill-opacity: 0.7"/>
    </g>
    <g clip-path="url(#pdfe8300d1a)">
     <use xlink:href="#C2_0_0baee63021" x="99.12845" y="52.302258" style="fill: #bc8f8f; fill-opacity: 0.7"/>
    </g>
    <g clip-path="url(#pdfe8300d1a)">
     <use xlink:href="#C2_0_0baee63021" x="99.501261" y="92.09398" style="fill: #bc8f8f; fill-opacity: 0.7"/>
    </g>
    <g clip-path="url(#pdfe8300d1a)">
     <use xlink:href="#C2_0_0baee63021" x="102.538714" y="101.456738" style="fill: #bc8f8f; fill-opacity: 0.7"/>
    </g>
    <g clip-path="url(#pdfe8300d1a)">
     <use xlink:href="#C2_0_0baee63021" x="97.463109" y="103.797427" style="fill: #bc8f8f; fill-opacity: 0.7"/>
    </g>
    <g clip-path="url(#pdfe8300d1a)">
     <use xlink:href="#C2_0_0baee63021" x="101.723502" y="94.434669" style="fill: #bc8f8f; fill-opacity: 0.7"/>
    </g>
    <g clip-path="url(#pdfe8300d1a)">
     <use xlink:href="#C2_0_0baee63021" x="96.818901" y="82.731222" style="fill: #bc8f8f; fill-opacity: 0.7"/>
    </g>
    <g clip-path="url(#pdfe8300d1a)">
     <use xlink:href="#C2_0_0baee63021" x="100.08332" y="64.005706" style="fill: #bc8f8f; fill-opacity: 0.7"/>
    </g>
    <g clip-path="url(#pdfe8300d1a)">
     <use xlink:href="#C2_0_0baee63021" x="101.91623" y="68.687085" style="fill: #bc8f8f; fill-opacity: 0.7"/>
    </g>
    <g clip-path="url(#pdfe8300d1a)">
     <use xlink:href="#C2_0_0baee63021" x="98.28546" y="71.027774" style="fill: #bc8f8f; fill-opacity: 0.7"/>
    </g>
    <g clip-path="url(#pdfe8300d1a)">
     <use xlink:href="#C2_0_0baee63021" x="99.895042" y="103.797427" style="fill: #bc8f8f; fill-opacity: 0.7"/>
    </g>
   </g>
   <g id="PathCollection_4">
    <defs>
     <path id="C3_0_483740ae8e" d="M 0 3.5 
C 0.928211 3.5 1.81853 3.131218 2.474874 2.474874 
C 3.131218 1.81853 3.5 0.928211 3.5 -0 
C 3.5 -0.928211 3.131218 -1.81853 2.474874 -2.474874 
C 1.81853 -3.131218 0.928211 -3.5 0 -3.5 
C -0.928211 -3.5 -1.81853 -3.131218 -2.474874 -2.474874 
C -3.131218 -1.81853 -3.5 -0.928211 -3.5 0 
C -3.5 0.928211 -3.131218 1.81853 -2.474874 2.474874 
C -1.81853 3.131218 -0.928211 3.5 0 3.5 
z
"/>
    </defs>
    <g clip-path="url(#pdfe8300d1a)">
     <use xlink:href="#C3_0_483740ae8e" x="122.27407" y="61.665016" style="fill: #708090; fill-opacity: 0.7"/>
    </g>
    <g clip-path="url(#pdfe8300d1a)">
     <use xlink:href="#C3_0_483740ae8e" x="125.10595" y="59.324327" style="fill: #708090; fill-opacity: 0.7"/>
    </g>
    <g clip-path="url(#pdfe8300d1a)">
     <use xlink:href="#C3_0_483740ae8e" x="121.868739" y="61.665016" style="fill: #708090; fill-opacity: 0.7"/>
    </g>
    <g clip-path="url(#pdfe8300d1a)">
     <use xlink:href="#C3_0_483740ae8e" x="124.12393" y="59.324327" style="fill: #708090; fill-opacity: 0.7"/>
    </g>
    <g clip-path="url(#pdfe8300d1a)">
     <use xlink:href="#C3_0_483740ae8e" x="124.031706" y="82.731222" style="fill: #708090; fill-opacity: 0.7"/>
    </g>
    <g clip-path="url(#pdfe8300d1a)">
     <use xlink:href="#C3_0_483740ae8e" x="122.92641" y="85.071911" style="fill: #708090; fill-opacity: 0.7"/>
    </g>
    <g clip-path="url(#pdfe8300d1a)">
     <use xlink:href="#C3_0_483740ae8e" x="124.915046" y="87.412601" style="fill: #708090; fill-opacity: 0.7"/>
    </g>
    <g clip-path="url(#pdfe8300d1a)">
     <use xlink:href="#C3_0_483740ae8e" x="121.872864" y="80.390532" style="fill: #708090; fill-opacity: 0.7"/>
    </g>
    <g clip-path="url(#pdfe8300d1a)">
     <use xlink:href="#C3_0_483740ae8e" x="123.306708" y="82.731222" style="fill: #708090; fill-opacity: 0.7"/>
    </g>
    <g clip-path="url(#pdfe8300d1a)">
     <use xlink:href="#C3_0_483740ae8e" x="121.467271" y="68.687085" style="fill: #708090; fill-opacity: 0.7"/>
    </g>
    <g clip-path="url(#pdfe8300d1a)">
     <use xlink:href="#C3_0_483740ae8e" x="125.018715" y="71.027774" style="fill: #708090; fill-opacity: 0.7"/>
    </g>
    <g clip-path="url(#pdfe8300d1a)">
     <use xlink:href="#C3_0_483740ae8e" x="124.853153" y="71.027774" style="fill: #708090; fill-opacity: 0.7"/>
    </g>
    <g clip-path="url(#pdfe8300d1a)">
     <use xlink:href="#C3_0_483740ae8e" x="121.451665" y="82.731222" style="fill: #708090; fill-opacity: 0.7"/>
    </g>
    <g clip-path="url(#pdfe8300d1a)">
     <use xlink:href="#C3_0_483740ae8e" x="124.99535" y="45.28019" style="fill: #708090; fill-opacity: 0.7"/>
    </g>
    <g clip-path="url(#pdfe8300d1a)">
     <use xlink:href="#C3_0_483740ae8e" x="124.594424" y="59.324327" style="fill: #708090; fill-opacity: 0.7"/>
    </g>
    <g clip-path="url(#pdfe8300d1a)">
     <use xlink:href="#C3_0_483740ae8e" x="123.23713" y="75.709153" style="fill: #708090; fill-opacity: 0.7"/>
    </g>
    <g clip-path="url(#pdfe8300d1a)">
     <use xlink:href="#C3_0_483740ae8e" x="124.005085" y="87.412601" style="fill: #708090; fill-opacity: 0.7"/>
    </g>
    <g clip-path="url(#pdfe8300d1a)">
     <use xlink:href="#C3_0_483740ae8e" x="122.70669" y="54.642948" style="fill: #708090; fill-opacity: 0.7"/>
    </g>
    <g clip-path="url(#pdfe8300d1a)">
     <use xlink:href="#C3_0_483740ae8e" x="125.355928" y="78.049843" style="fill: #708090; fill-opacity: 0.7"/>
    </g>
    <g clip-path="url(#pdfe8300d1a)">
     <use xlink:href="#C3_0_483740ae8e" x="122.424992" y="78.049843" style="fill: #708090; fill-opacity: 0.7"/>
    </g>
    <g clip-path="url(#pdfe8300d1a)">
     <use xlink:href="#C3_0_483740ae8e" x="122.777904" y="82.731222" style="fill: #708090; fill-opacity: 0.7"/>
    </g>
    <g clip-path="url(#pdfe8300d1a)">
     <use xlink:href="#C3_0_483740ae8e" x="127.198753" y="59.324327" style="fill: #708090; fill-opacity: 0.7"/>
    </g>
    <g clip-path="url(#pdfe8300d1a)">
     <use xlink:href="#C3_0_483740ae8e" x="122.510008" y="92.09398" style="fill: #708090; fill-opacity: 0.7"/>
    </g>
    <g clip-path="url(#pdfe8300d1a)">
     <use xlink:href="#C3_0_483740ae8e" x="121.436243" y="99.116048" style="fill: #708090; fill-opacity: 0.7"/>
    </g>
    <g clip-path="url(#pdfe8300d1a)">
     <use xlink:href="#C3_0_483740ae8e" x="125.962169" y="54.642948" style="fill: #708090; fill-opacity: 0.7"/>
    </g>
    <g clip-path="url(#pdfe8300d1a)">
     <use xlink:href="#C3_0_483740ae8e" x="124.845973" y="87.412601" style="fill: #708090; fill-opacity: 0.7"/>
    </g>
    <g clip-path="url(#pdfe8300d1a)">
     <use xlink:href="#C3_0_483740ae8e" x="124.252932" y="82.731222" style="fill: #708090; fill-opacity: 0.7"/>
    </g>
    <g clip-path="url(#pdfe8300d1a)">
     <use xlink:href="#C3_0_483740ae8e" x="125.820815" y="96.775359" style="fill: #708090; fill-opacity: 0.7"/>
    </g>
    <g clip-path="url(#pdfe8300d1a)">
     <use xlink:href="#C3_0_483740ae8e" x="124.527365" y="92.09398" style="fill: #708090; fill-opacity: 0.7"/>
    </g>
    <g clip-path="url(#pdfe8300d1a)">
     <use xlink:href="#C3_0_483740ae8e" x="124.314585" y="99.116048" style="fill: #708090; fill-opacity: 0.7"/>
    </g>
    <g clip-path="url(#pdfe8300d1a)">
     <use xlink:href="#C3_0_483740ae8e" x="125.145514" y="61.665016" style="fill: #708090; fill-opacity: 0.7"/>
    </g>
    <g clip-path="url(#pdfe8300d1a)">
     <use xlink:href="#C3_0_483740ae8e" x="123.280671" y="64.005706" style="fill: #708090; fill-opacity: 0.7"/>
    </g>
    <g clip-path="url(#pdfe8300d1a)">
     <use xlink:href="#C3_0_483740ae8e" x="124.837197" y="61.665016" style="fill: #708090; fill-opacity: 0.7"/>
    </g>
    <g clip-path="url(#pdfe8300d1a)">
     <use xlink:href="#C3_0_483740ae8e" x="121.40821" y="106.138117" style="fill: #708090; fill-opacity: 0.7"/>
    </g>
    <g clip-path="url(#pdfe8300d1a)">
     <use xlink:href="#C3_0_483740ae8e" x="121.568895" y="78.049843" style="fill: #708090; fill-opacity: 0.7"/>
    </g>
    <g clip-path="url(#pdfe8300d1a)">
     <use xlink:href="#C3_0_483740ae8e" x="121.324519" y="78.049843" style="fill: #708090; fill-opacity: 0.7"/>
    </g>
    <g clip-path="url(#pdfe8300d1a)">
     <use xlink:href="#C3_0_483740ae8e" x="121.257741" y="82.731222" style="fill: #708090; fill-opacity: 0.7"/>
    </g>
    <g clip-path="url(#pdfe8300d1a)">
     <use xlink:href="#C3_0_483740ae8e" x="123.853722" y="89.75329" style="fill: #708090; fill-opacity: 0.7"/>
    </g>
    <g clip-path="url(#pdfe8300d1a)">
     <use xlink:href="#C3_0_483740ae8e" x="121.924222" y="80.390532" style="fill: #708090; fill-opacity: 0.7"/>
    </g>
    <g clip-path="url(#pdfe8300d1a)">
     <use xlink:href="#C3_0_483740ae8e" x="122.334922" y="92.09398" style="fill: #708090; fill-opacity: 0.7"/>
    </g>
    <g clip-path="url(#pdfe8300d1a)">
     <use xlink:href="#C3_0_483740ae8e" x="125.845384" y="75.709153" style="fill: #708090; fill-opacity: 0.7"/>
    </g>
    <g clip-path="url(#pdfe8300d1a)">
     <use xlink:href="#C3_0_483740ae8e" x="123.213523" y="66.346395" style="fill: #708090; fill-opacity: 0.7"/>
    </g>
    <g clip-path="url(#pdfe8300d1a)">
     <use xlink:href="#C3_0_483740ae8e" x="121.965583" y="73.368464" style="fill: #708090; fill-opacity: 0.7"/>
    </g>
    <g clip-path="url(#pdfe8300d1a)">
     <use xlink:href="#C3_0_483740ae8e" x="123.64643" y="87.412601" style="fill: #708090; fill-opacity: 0.7"/>
    </g>
    <g clip-path="url(#pdfe8300d1a)">
     <use xlink:href="#C3_0_483740ae8e" x="125.106832" y="80.390532" style="fill: #708090; fill-opacity: 0.7"/>
    </g>
   </g>
   <g id="line2d_8">
    <path d="M 36.52605 90.159882 
L 39.90195 90.159882 
M 38.214 90.159882 
L 38.214 56.997169 
M 36.52605 56.997169 
L 39.90195 56.997169 
" clip-path="url(#pdfe8300d1a)" style="fill: none; stroke: #333333; stroke-width: 2.5; stroke-linecap: square"/>
   </g>
   <g id="line2d_9">
    <path d="M 97.90605 93.057323 
L 101.28195 93.057323 
M 99.594 93.057323 
L 99.594 59.388603 
M 97.90605 59.388603 
L 101.28195 59.388603 
" clip-path="url(#pdfe8300d1a)" style="fill: none; stroke: #333333; stroke-width: 2.5; stroke-linecap: square"/>
   </g>
   <g id="line2d_10">
    <path d="M 61.07805 92.33903 
L 64.45395 92.33903 
M 62.766 92.33903 
L 62.766 61.419966 
M 61.07805 61.419966 
L 64.45395 61.419966 
" clip-path="url(#pdfe8300d1a)" style="fill: none; stroke: #333333; stroke-width: 2.5; stroke-linecap: square"/>
   </g>
   <g id="line2d_11">
    <path d="M 122.45805 90.645584 
L 125.83395 90.645584 
M 124.146 90.645584 
L 124.146 62.957367 
M 122.45805 62.957367 
L 125.83395 62.957367 
" clip-path="url(#pdfe8300d1a)" style="fill: none; stroke: #333333; stroke-width: 2.5; stroke-linecap: square"/>
   </g>
   <g id="patch_9">
    <path d="M 19.8 128.16 
L 19.8 17.28 
" style="fill: none; stroke: #000000; stroke-width: 1.5; stroke-linejoin: miter; stroke-linecap: square"/>
   </g>
   <g id="patch_10">
    <path d="M 19.8 128.16 
L 142.56 128.16 
" style="fill: none; stroke: #000000; stroke-width: 1.5; stroke-linejoin: miter; stroke-linecap: square"/>
   </g>
   <g id="PathCollection_5">
    <defs>
     <path id="mecca3e0ca1" d="M 0 3 
C 0.795609 3 1.55874 2.683901 2.12132 2.12132 
C 2.683901 1.55874 3 0.795609 3 0 
C 3 -0.795609 2.683901 -1.55874 2.12132 -2.12132 
C 1.55874 -2.683901 0.795609 -3 0 -3 
C -0.795609 -3 -1.55874 -2.683901 -2.12132 -2.12132 
C -2.683901 -1.55874 -3 -0.795609 -3 0 
C -3 0.795609 -2.683901 1.55874 -2.12132 2.12132 
C -1.55874 2.683901 -0.795609 3 0 3 
z
"/>
    </defs>
    <g clip-path="url(#pdfe8300d1a)">
     <use xlink:href="#mecca3e0ca1" x="38.214" y="73.578526" style="fill: #333333"/>
    </g>
   </g>
   <g id="PathCollection_6">
    <g clip-path="url(#pdfe8300d1a)">
     <use xlink:href="#mecca3e0ca1" x="62.766" y="76.879498" style="fill: #333333"/>
    </g>
   </g>
   <g id="PathCollection_7">
    <g clip-path="url(#pdfe8300d1a)">
     <use xlink:href="#mecca3e0ca1" x="99.594" y="76.222963" style="fill: #333333"/>
    </g>
   </g>
   <g id="PathCollection_8">
    <g clip-path="url(#pdfe8300d1a)">
     <use xlink:href="#mecca3e0ca1" x="124.146" y="76.801475" style="fill: #333333"/>
    </g>
   </g>
   <g id="line2d_12"/>
   <g id="line2d_13"/>
  </g>
 </g>
 <defs>
  <clipPath id="pdfe8300d1a">
   <rect x="19.8" y="17.28" width="122.76" height="110.88"/>
  </clipPath>
 </defs>
</svg>
