<?xml version="1.0" encoding="utf-8" standalone="no"?>
<!DOCTYPE svg PUBLIC "-//W3C//DTD SVG 1.1//EN"
  "http://www.w3.org/Graphics/SVG/1.1/DTD/svg11.dtd">
<svg xmlns:xlink="http://www.w3.org/1999/xlink" width="144pt" height="129.6pt" viewBox="0 0 144 129.6" xmlns="http://www.w3.org/2000/svg" version="1.1">
 <metadata>
  <rdf:RDF xmlns:dc="http://purl.org/dc/elements/1.1/" xmlns:cc="http://creativecommons.org/ns#" xmlns:rdf="http://www.w3.org/1999/02/22-rdf-syntax-ns#">
   <cc:Work>
    <dc:type rdf:resource="http://purl.org/dc/dcmitype/StillImage"/>
    <dc:date>2024-09-14T15:07:28.684715</dc:date>
    <dc:format>image/svg+xml</dc:format>
    <dc:creator>
     <cc:Agent>
      <dc:title>Matplotlib v3.7.1, https://matplotlib.org/</dc:title>
     </cc:Agent>
    </dc:creator>
   </cc:Work>
  </rdf:RDF>
 </metadata>
 <defs>
  <style type="text/css">*{stroke-linejoin: round; stroke-linecap: butt}</style>
 </defs>
 <g id="figure_1">
  <g id="patch_1">
   <path d="M 0 129.6 
L 144 129.6 
L 144 0 
L 0 0 
L 0 129.6 
z
" style="fill: none"/>
  </g>
  <g id="axes_1">
   <g id="patch_2">
    <path d="M 18 115.344 
L 129.6 115.344 
L 129.6 15.552 
L 18 15.552 
L 18 115.344 
z
" style="fill: none"/>
   </g>
   <g id="PolyCollection_1">
    <path d="M 34.823014 93.430148 
L 34.656986 93.430148 
L 34.630891 92.74437 
L 34.598933 92.058591 
L 34.560524 91.372813 
L 34.515206 90.687035 
L 34.462681 90.001256 
L 34.402843 89.315478 
L 34.335781 88.629699 
L 34.261771 87.943921 
L 34.181247 87.258143 
L 34.094762 86.572364 
L 34.002943 85.886586 
L 33.906451 85.200808 
L 33.805952 84.515029 
L 33.702111 83.829251 
L 33.5956 83.143472 
L 33.487127 82.457694 
L 33.377464 81.771916 
L 33.267465 81.086137 
L 33.158053 80.400359 
L 33.050159 79.714581 
L 32.944611 79.028802 
L 32.841965 78.343024 
L 32.742302 77.657245 
L 32.645017 76.971467 
L 32.548632 76.285689 
L 32.450679 75.59991 
L 32.347696 74.914132 
L 32.235352 74.228353 
L 32.108721 73.542575 
L 31.962684 72.856797 
L 31.792428 72.171018 
L 31.593985 71.48524 
L 31.364743 70.799462 
L 31.103853 70.113683 
L 30.812487 69.427905 
L 30.493877 68.742126 
L 30.15315 68.056348 
L 29.796944 67.37057 
L 29.432857 66.684791 
L 29.068785 65.999013 
L 28.712235 65.313235 
L 28.369664 64.627456 
L 28.045944 63.941678 
L 27.743981 63.255899 
L 27.464539 62.570121 
L 27.206271 61.884343 
L 26.965962 61.198564 
L 26.738935 60.512786 
L 26.519607 59.827007 
L 26.302123 59.141229 
L 26.081028 58.455451 
L 25.851917 57.769672 
L 25.612011 57.083894 
L 25.36062 56.398116 
L 25.099448 55.712337 
L 24.832721 55.026559 
L 24.567117 54.34078 
L 24.311512 53.655002 
L 24.076529 52.969224 
L 23.873944 52.283445 
L 23.715965 51.597667 
L 23.614431 50.911889 
L 23.58 50.22611 
L 23.621371 49.540332 
L 23.744601 48.854553 
L 23.952593 48.168775 
L 24.244774 47.482997 
L 24.617031 46.797218 
L 25.061898 46.11144 
L 25.568986 45.425662 
L 26.125636 44.739883 
L 26.717722 44.054105 
L 27.330548 43.368326 
L 27.949729 42.682548 
L 28.562012 41.99677 
L 29.155929 41.310991 
L 29.722257 40.625213 
L 30.254249 39.939434 
L 30.747641 39.253656 
L 31.200456 38.567878 
L 31.612661 37.882099 
L 31.985718 37.196321 
L 32.322106 36.510543 
L 32.624862 35.824764 
L 32.897181 35.138986 
L 33.142117 34.453207 
L 33.362382 33.767429 
L 33.560252 33.081651 
L 33.737561 32.395872 
L 33.895766 31.710094 
L 34.036038 31.024316 
L 34.159386 30.338537 
L 34.266757 29.652759 
L 34.359121 28.96698 
L 34.437532 28.281202 
L 34.503144 27.595424 
L 34.557205 26.909645 
L 34.601035 26.223867 
L 34.635976 25.538089 
L 34.844024 25.538089 
L 34.844024 25.538089 
L 34.878965 26.223867 
L 34.922795 26.909645 
L 34.976856 27.595424 
L 35.042468 28.281202 
L 35.120879 28.96698 
L 35.213243 29.652759 
L 35.320614 30.338537 
L 35.443962 31.024316 
L 35.584234 31.710094 
L 35.742439 32.395872 
L 35.919748 33.081651 
L 36.117618 33.767429 
L 36.337883 34.453207 
L 36.582819 35.138986 
L 36.855138 35.824764 
L 37.157894 36.510543 
L 37.494282 37.196321 
L 37.867339 37.882099 
L 38.279544 38.567878 
L 38.732359 39.253656 
L 39.225751 39.939434 
L 39.757743 40.625213 
L 40.324071 41.310991 
L 40.917988 41.99677 
L 41.530271 42.682548 
L 42.149452 43.368326 
L 42.762278 44.054105 
L 43.354364 44.739883 
L 43.911014 45.425662 
L 44.418102 46.11144 
L 44.862969 46.797218 
L 45.235226 47.482997 
L 45.527407 48.168775 
L 45.735399 48.854553 
L 45.858629 49.540332 
L 45.9 50.22611 
L 45.865569 50.911889 
L 45.764035 51.597667 
L 45.606056 52.283445 
L 45.403471 52.969224 
L 45.168488 53.655002 
L 44.912883 54.34078 
L 44.647279 55.026559 
L 44.380552 55.712337 
L 44.11938 56.398116 
L 43.867989 57.083894 
L 43.628083 57.769672 
L 43.398972 58.455451 
L 43.177877 59.141229 
L 42.960393 59.827007 
L 42.741065 60.512786 
L 42.514038 61.198564 
L 42.273729 61.884343 
L 42.015461 62.570121 
L 41.736019 63.255899 
L 41.434056 63.941678 
L 41.110336 64.627456 
L 40.767765 65.313235 
L 40.411215 65.999013 
L 40.047143 66.684791 
L 39.683056 67.37057 
L 39.32685 68.056348 
L 38.986123 68.742126 
L 38.667513 69.427905 
L 38.376147 70.113683 
L 38.115257 70.799462 
L 37.886015 71.48524 
L 37.687572 72.171018 
L 37.517316 72.856797 
L 37.371279 73.542575 
L 37.244648 74.228353 
L 37.132304 74.914132 
L 37.029321 75.59991 
L 36.931368 76.285689 
L 36.834983 76.971467 
L 36.737698 77.657245 
L 36.638035 78.343024 
L 36.535389 79.028802 
L 36.429841 79.714581 
L 36.321947 80.400359 
L 36.212535 81.086137 
L 36.102536 81.771916 
L 35.992873 82.457694 
L 35.8844 83.143472 
L 35.777889 83.829251 
L 35.674048 84.515029 
L 35.573549 85.200808 
L 35.477057 85.886586 
L 35.385238 86.572364 
L 35.298753 87.258143 
L 35.218229 87.943921 
L 35.144219 88.629699 
L 35.077157 89.315478 
L 35.017319 90.001256 
L 34.964794 90.687035 
L 34.919476 91.372813 
L 34.881067 92.058591 
L 34.849109 92.74437 
L 34.823014 93.430148 
z
" clip-path="url(#pddef149c40)" style="fill: #bfbcb3; fill-opacity: 0.35"/>
   </g>
   <g id="PolyCollection_2">
    <path d="M 57.219373 110.808 
L 56.900627 110.808 
L 56.858524 109.891636 
L 56.808548 108.975273 
L 56.750123 108.058909 
L 56.682837 107.142545 
L 56.606489 106.226182 
L 56.521112 105.309818 
L 56.426984 104.393455 
L 56.324624 103.477091 
L 56.214764 102.560727 
L 56.0983 101.644364 
L 55.976239 100.728 
L 55.849626 99.811636 
L 55.719476 98.895273 
L 55.586713 97.978909 
L 55.452126 97.062545 
L 55.316339 96.146182 
L 55.179818 95.229818 
L 55.042887 94.313455 
L 54.905767 93.397091 
L 54.768622 92.480727 
L 54.631603 91.564364 
L 54.494876 90.648 
L 54.358627 89.731636 
L 54.223043 88.815273 
L 54.088259 87.898909 
L 53.95429 86.982545 
L 53.820949 86.066182 
L 53.687774 85.149818 
L 53.553978 84.233455 
L 53.418436 83.317091 
L 53.279729 82.400727 
L 53.136231 81.484364 
L 52.986261 80.568 
L 52.828257 79.651636 
L 52.660982 78.735273 
L 52.483708 77.818909 
L 52.296379 76.902545 
L 52.099707 75.986182 
L 51.895196 75.069818 
L 51.685078 74.153455 
L 51.472163 73.237091 
L 51.259621 72.320727 
L 51.050705 71.404364 
L 50.84845 70.488 
L 50.65538 69.571636 
L 50.473245 68.655273 
L 50.302825 67.738909 
L 50.143809 66.822545 
L 49.99478 65.906182 
L 49.85328 64.989818 
L 49.715978 64.073455 
L 49.578905 63.157091 
L 49.437751 62.240727 
L 49.288187 61.324364 
L 49.126208 60.408 
L 48.948454 59.491636 
L 48.752506 58.575273 
L 48.537134 57.658909 
L 48.302486 56.742545 
L 48.050213 55.826182 
L 47.783529 54.909818 
L 47.507194 53.993455 
L 47.227426 53.077091 
L 46.951747 52.160727 
L 46.688759 51.244364 
L 46.447854 50.328 
L 46.23887 49.411636 
L 46.071695 48.495273 
L 45.955841 47.578909 
L 45.9 46.662545 
L 45.911602 45.746182 
L 45.996408 44.829818 
L 46.158161 43.913455 
L 46.398314 42.997091 
L 46.715866 42.080727 
L 47.107325 41.164364 
L 47.56679 40.248 
L 48.086178 39.331636 
L 48.655556 38.415273 
L 49.263582 37.498909 
L 49.898009 36.582545 
L 50.54623 35.666182 
L 51.195821 34.749818 
L 51.835049 33.833455 
L 52.453312 32.917091 
L 53.041495 32.000727 
L 53.592208 31.084364 
L 54.099923 30.168 
L 54.560992 29.251636 
L 54.973566 28.335273 
L 55.337438 27.418909 
L 55.653815 26.502545 
L 55.925056 25.586182 
L 56.154393 24.669818 
L 56.345652 23.753455 
L 56.502998 22.837091 
L 56.630706 21.920727 
L 56.732976 21.004364 
L 56.813789 20.088 
L 57.306211 20.088 
L 57.306211 20.088 
L 57.387024 21.004364 
L 57.489294 21.920727 
L 57.617002 22.837091 
L 57.774348 23.753455 
L 57.965607 24.669818 
L 58.194944 25.586182 
L 58.466185 26.502545 
L 58.782562 27.418909 
L 59.146434 28.335273 
L 59.559008 29.251636 
L 60.020077 30.168 
L 60.527792 31.084364 
L 61.078505 32.000727 
L 61.666688 32.917091 
L 62.284951 33.833455 
L 62.924179 34.749818 
L 63.57377 35.666182 
L 64.221991 36.582545 
L 64.856418 37.498909 
L 65.464444 38.415273 
L 66.033822 39.331636 
L 66.55321 40.248 
L 67.012675 41.164364 
L 67.404134 42.080727 
L 67.721686 42.997091 
L 67.961839 43.913455 
L 68.123592 44.829818 
L 68.208398 45.746182 
L 68.22 46.662545 
L 68.164159 47.578909 
L 68.048305 48.495273 
L 67.88113 49.411636 
L 67.672146 50.328 
L 67.431241 51.244364 
L 67.168253 52.160727 
L 66.892574 53.077091 
L 66.612806 53.993455 
L 66.336471 54.909818 
L 66.069787 55.826182 
L 65.817514 56.742545 
L 65.582866 57.658909 
L 65.367494 58.575273 
L 65.171546 59.491636 
L 64.993792 60.408 
L 64.831813 61.324364 
L 64.682249 62.240727 
L 64.541095 63.157091 
L 64.404022 64.073455 
L 64.26672 64.989818 
L 64.12522 65.906182 
L 63.976191 66.822545 
L 63.817175 67.738909 
L 63.646755 68.655273 
L 63.46462 69.571636 
L 63.27155 70.488 
L 63.069295 71.404364 
L 62.860379 72.320727 
L 62.647837 73.237091 
L 62.434922 74.153455 
L 62.224804 75.069818 
L 62.020293 75.986182 
L 61.823621 76.902545 
L 61.636292 77.818909 
L 61.459018 78.735273 
L 61.291743 79.651636 
L 61.133739 80.568 
L 60.983769 81.484364 
L 60.840271 82.400727 
L 60.701564 83.317091 
L 60.566022 84.233455 
L 60.432226 85.149818 
L 60.299051 86.066182 
L 60.16571 86.982545 
L 60.031741 87.898909 
L 59.896957 88.815273 
L 59.761373 89.731636 
L 59.625124 90.648 
L 59.488397 91.564364 
L 59.351378 92.480727 
L 59.214233 93.397091 
L 59.077113 94.313455 
L 58.940182 95.229818 
L 58.803661 96.146182 
L 58.667874 97.062545 
L 58.533287 97.978909 
L 58.400524 98.895273 
L 58.270374 99.811636 
L 58.143761 100.728 
L 58.0217 101.644364 
L 57.905236 102.560727 
L 57.795376 103.477091 
L 57.693016 104.393455 
L 57.598888 105.309818 
L 57.513511 106.226182 
L 57.437163 107.142545 
L 57.369877 108.058909 
L 57.311452 108.975273 
L 57.261476 109.891636 
L 57.219373 110.808 
z
" clip-path="url(#pddef149c40)" style="fill: #41544f; fill-opacity: 0.35"/>
   </g>
   <g id="PolyCollection_3">
    <path d="M 90.794411 87.104724 
L 90.285589 87.104724 
L 90.211809 86.48649 
L 90.123042 85.868257 
L 90.018228 85.250024 
L 89.896797 84.631791 
L 89.7588 84.013557 
L 89.605024 83.395324 
L 89.437056 82.777091 
L 89.25729 82.158858 
L 89.068864 81.540624 
L 88.875525 80.922391 
L 88.68142 80.304158 
L 88.490828 79.685925 
L 88.307848 79.067691 
L 88.136079 78.449458 
L 87.978305 77.831225 
L 87.836236 77.212992 
L 87.710312 76.594758 
L 87.599604 75.976525 
L 87.501819 75.358292 
L 87.41341 74.740059 
L 87.329779 74.121825 
L 87.245566 73.503592 
L 87.154982 72.885359 
L 87.052184 72.267126 
L 86.931627 71.648892 
L 86.788413 71.030659 
L 86.61857 70.412426 
L 86.419283 69.794192 
L 86.189041 69.175959 
L 85.927714 68.557726 
L 85.636547 67.939493 
L 85.318086 67.321259 
L 84.976035 66.703026 
L 84.615056 66.084793 
L 84.240521 65.46656 
L 83.858224 64.848326 
L 83.474079 64.230093 
L 83.093808 63.61186 
L 82.722651 62.993627 
L 82.365108 62.375393 
L 82.024751 61.75716 
L 81.704113 61.138927 
L 81.404674 60.520694 
L 81.126943 59.90246 
L 80.870641 59.284227 
L 80.634951 58.665994 
L 80.418823 58.047761 
L 80.221288 57.429527 
L 80.041742 56.811294 
L 79.880181 56.193061 
L 79.737346 55.574828 
L 79.614764 54.956594 
L 79.5147 54.338361 
L 79.440017 53.720128 
L 79.393976 53.101895 
L 79.38 52.483661 
L 79.40143 51.865428 
L 79.461294 51.247195 
L 79.562105 50.628962 
L 79.705702 50.010728 
L 79.893116 49.392495 
L 80.12448 48.774262 
L 80.39896 48.156028 
L 80.714711 47.537795 
L 81.068871 46.919562 
L 81.457578 46.301329 
L 81.876039 45.683095 
L 82.318657 45.064862 
L 82.779209 44.446629 
L 83.251084 43.828396 
L 83.727569 43.210162 
L 84.202155 42.591929 
L 84.668845 41.973696 
L 85.122423 41.355463 
L 85.558663 40.737229 
L 85.974459 40.118996 
L 86.36785 39.500763 
L 86.737952 38.88253 
L 87.084806 38.264296 
L 87.409165 37.646063 
L 87.712247 37.02783 
L 87.995486 36.409597 
L 88.260311 35.791363 
L 88.507974 35.17313 
L 88.73944 34.554897 
L 88.955346 33.936664 
L 89.156011 33.31843 
L 89.341512 32.700197 
L 89.51177 32.081964 
L 89.666667 31.463731 
L 89.806143 30.845497 
L 89.930291 30.227264 
L 90.039409 29.609031 
L 90.134034 28.990797 
L 90.214937 28.372564 
L 90.283101 27.754331 
L 90.339671 27.136098 
L 90.385902 26.517864 
L 90.423097 25.899631 
L 90.656903 25.899631 
L 90.656903 25.899631 
L 90.694098 26.517864 
L 90.740329 27.136098 
L 90.796899 27.754331 
L 90.865063 28.372564 
L 90.945966 28.990797 
L 91.040591 29.609031 
L 91.149709 30.227264 
L 91.273857 30.845497 
L 91.413333 31.463731 
L 91.56823 32.081964 
L 91.738488 32.700197 
L 91.923989 33.31843 
L 92.124654 33.936664 
L 92.34056 34.554897 
L 92.572026 35.17313 
L 92.819689 35.791363 
L 93.084514 36.409597 
L 93.367753 37.02783 
L 93.670835 37.646063 
L 93.995194 38.264296 
L 94.342048 38.88253 
L 94.71215 39.500763 
L 95.105541 40.118996 
L 95.521337 40.737229 
L 95.957577 41.355463 
L 96.411155 41.973696 
L 96.877845 42.591929 
L 97.352431 43.210162 
L 97.828916 43.828396 
L 98.300791 44.446629 
L 98.761343 45.064862 
L 99.203961 45.683095 
L 99.622422 46.301329 
L 100.011129 46.919562 
L 100.365289 47.537795 
L 100.68104 48.156028 
L 100.95552 48.774262 
L 101.186884 49.392495 
L 101.374298 50.010728 
L 101.517895 50.628962 
L 101.618706 51.247195 
L 101.67857 51.865428 
L 101.7 52.483661 
L 101.686024 53.101895 
L 101.639983 53.720128 
L 101.5653 54.338361 
L 101.465236 54.956594 
L 101.342654 55.574828 
L 101.199819 56.193061 
L 101.038258 56.811294 
L 100.858712 57.429527 
L 100.661177 58.047761 
L 100.445049 58.665994 
L 100.209359 59.284227 
L 99.953057 59.90246 
L 99.675326 60.520694 
L 99.375887 61.138927 
L 99.055249 61.75716 
L 98.714892 62.375393 
L 98.357349 62.993627 
L 97.986192 63.61186 
L 97.605921 64.230093 
L 97.221776 64.848326 
L 96.839479 65.46656 
L 96.464944 66.084793 
L 96.103965 66.703026 
L 95.761914 67.321259 
L 95.443453 67.939493 
L 95.152286 68.557726 
L 94.890959 69.175959 
L 94.660717 69.794192 
L 94.46143 70.412426 
L 94.291587 71.030659 
L 94.148373 71.648892 
L 94.027816 72.267126 
L 93.925018 72.885359 
L 93.834434 73.503592 
L 93.750221 74.121825 
L 93.66659 74.740059 
L 93.578181 75.358292 
L 93.480396 75.976525 
L 93.369688 76.594758 
L 93.243764 77.212992 
L 93.101695 77.831225 
L 92.943921 78.449458 
L 92.772152 79.067691 
L 92.589172 79.685925 
L 92.39858 80.304158 
L 92.204475 80.922391 
L 92.011136 81.540624 
L 91.82271 82.158858 
L 91.642944 82.777091 
L 91.474976 83.395324 
L 91.3212 84.013557 
L 91.183203 84.631791 
L 91.061772 85.250024 
L 90.956958 85.868257 
L 90.868191 86.48649 
L 90.794411 87.104724 
z
" clip-path="url(#pddef149c40)" style="fill: #bfbcb3; fill-opacity: 0.35"/>
   </g>
   <g id="PolyCollection_4">
    <path d="M 113.005766 109.908163 
L 112.714234 109.908163 
L 112.66869 109.009978 
L 112.612101 108.111793 
L 112.542791 107.213608 
L 112.459106 106.315423 
L 112.359487 105.417238 
L 112.242555 104.519052 
L 112.107196 103.620867 
L 111.952648 102.722682 
L 111.778564 101.824497 
L 111.585077 100.926312 
L 111.372825 100.028127 
L 111.142962 99.129942 
L 110.897134 98.231757 
L 110.63743 97.333572 
L 110.366305 96.435386 
L 110.08649 95.537201 
L 109.800881 94.639016 
L 109.512421 93.740831 
L 109.223982 92.842646 
L 108.938255 91.944461 
L 108.657639 91.046276 
L 108.384148 90.148091 
L 108.11933 89.249906 
L 107.864201 88.35172 
L 107.619193 87.453535 
L 107.384127 86.55535 
L 107.158202 85.657165 
L 106.940019 84.75898 
L 106.727626 83.860795 
L 106.518609 82.96261 
L 106.310209 82.064425 
L 106.099482 81.16624 
L 105.883488 80.268054 
L 105.6595 79.369869 
L 105.425226 78.471684 
L 105.179026 77.573499 
L 104.92011 76.675314 
L 104.648691 75.777129 
L 104.366096 74.878944 
L 104.074799 73.980759 
L 103.778385 73.082573 
L 103.481443 72.184388 
L 103.189374 71.286203 
L 102.908145 70.388018 
L 102.643988 69.489833 
L 102.403062 68.591648 
L 102.191116 67.693463 
L 102.013148 66.795278 
L 101.873117 65.897093 
L 101.773692 64.998907 
L 101.716092 64.100722 
L 101.7 63.202537 
L 101.723582 62.304352 
L 101.783597 61.406167 
L 101.875597 60.507982 
L 101.994214 59.609797 
L 102.133497 58.711612 
L 102.287305 57.813427 
L 102.449697 56.915241 
L 102.61533 56.017056 
L 102.7798 55.118871 
L 102.93994 54.220686 
L 103.094021 53.322501 
L 103.241861 52.424316 
L 103.384832 51.526131 
L 103.525748 50.627946 
L 103.668657 49.72976 
L 103.818545 48.831575 
L 103.980956 47.93339 
L 104.161582 47.035205 
L 104.365827 46.13702 
L 104.598385 45.238835 
L 104.862867 44.34065 
L 105.1615 43.442465 
L 105.494914 42.54428 
L 105.862051 41.646094 
L 106.260175 40.747909 
L 106.685009 39.849724 
L 107.130959 38.951539 
L 107.591428 38.053354 
L 108.05918 37.155169 
L 108.526727 36.256984 
L 108.986715 35.358799 
L 109.432269 34.460614 
L 109.857298 33.562428 
L 110.256709 32.664243 
L 110.626561 31.766058 
L 110.964121 30.867873 
L 111.267854 29.969688 
L 111.537348 29.071503 
L 111.773183 28.173318 
L 111.976765 27.275133 
L 112.150152 26.376948 
L 112.295864 25.478762 
L 112.416706 24.580577 
L 112.515613 23.682392 
L 112.595513 22.784207 
L 112.659221 21.886022 
L 112.709361 20.987837 
L 113.010639 20.987837 
L 113.010639 20.987837 
L 113.060779 21.886022 
L 113.124487 22.784207 
L 113.204387 23.682392 
L 113.303294 24.580577 
L 113.424136 25.478762 
L 113.569848 26.376948 
L 113.743235 27.275133 
L 113.946817 28.173318 
L 114.182652 29.071503 
L 114.452146 29.969688 
L 114.755879 30.867873 
L 115.093439 31.766058 
L 115.463291 32.664243 
L 115.862702 33.562428 
L 116.287731 34.460614 
L 116.733285 35.358799 
L 117.193273 36.256984 
L 117.66082 37.155169 
L 118.128572 38.053354 
L 118.589041 38.951539 
L 119.034991 39.849724 
L 119.459825 40.747909 
L 119.857949 41.646094 
L 120.225086 42.54428 
L 120.5585 43.442465 
L 120.857133 44.34065 
L 121.121615 45.238835 
L 121.354173 46.13702 
L 121.558418 47.035205 
L 121.739044 47.93339 
L 121.901455 48.831575 
L 122.051343 49.72976 
L 122.194252 50.627946 
L 122.335168 51.526131 
L 122.478139 52.424316 
L 122.625979 53.322501 
L 122.78006 54.220686 
L 122.9402 55.118871 
L 123.10467 56.017056 
L 123.270303 56.915241 
L 123.432695 57.813427 
L 123.586503 58.711612 
L 123.725786 59.609797 
L 123.844403 60.507982 
L 123.936403 61.406167 
L 123.996418 62.304352 
L 124.02 63.202537 
L 124.003908 64.100722 
L 123.946308 64.998907 
L 123.846883 65.897093 
L 123.706852 66.795278 
L 123.528884 67.693463 
L 123.316938 68.591648 
L 123.076012 69.489833 
L 122.811855 70.388018 
L 122.530626 71.286203 
L 122.238557 72.184388 
L 121.941615 73.082573 
L 121.645201 73.980759 
L 121.353904 74.878944 
L 121.071309 75.777129 
L 120.79989 76.675314 
L 120.540974 77.573499 
L 120.294774 78.471684 
L 120.0605 79.369869 
L 119.836512 80.268054 
L 119.620518 81.16624 
L 119.409791 82.064425 
L 119.201391 82.96261 
L 118.992374 83.860795 
L 118.779981 84.75898 
L 118.561798 85.657165 
L 118.335873 86.55535 
L 118.100807 87.453535 
L 117.855799 88.35172 
L 117.60067 89.249906 
L 117.335852 90.148091 
L 117.062361 91.046276 
L 116.781745 91.944461 
L 116.496018 92.842646 
L 116.207579 93.740831 
L 115.919119 94.639016 
L 115.63351 95.537201 
L 115.353695 96.435386 
L 115.08257 97.333572 
L 114.822866 98.231757 
L 114.577038 99.129942 
L 114.347175 100.028127 
L 114.134923 100.926312 
L 113.941436 101.824497 
L 113.767352 102.722682 
L 113.612804 103.620867 
L 113.477445 104.519052 
L 113.360513 105.417238 
L 113.260894 106.315423 
L 113.177209 107.213608 
L 113.107899 108.111793 
L 113.05131 109.009978 
L 113.005766 109.908163 
z
" clip-path="url(#pddef149c40)" style="fill: #41544f; fill-opacity: 0.35"/>
   </g>
   <g id="patch_3">
    <path d="M 23.58 95.267408 
L 45.9 95.267408 
L 45.9 55.338493 
L 23.58 55.338493 
L 23.58 95.267408 
z
" clip-path="url(#pddef149c40)" style="fill: none"/>
   </g>
   <g id="patch_4">
    <path d="M 79.38 95.267408 
L 101.7 95.267408 
L 101.7 55.706993 
L 79.38 55.706993 
L 79.38 95.267408 
z
" clip-path="url(#pddef149c40)" style="fill: none"/>
   </g>
   <g id="patch_5">
    <path d="M 45.9 95.267408 
L 68.22 95.267408 
L 68.22 57.680408 
L 45.9 57.680408 
L 45.9 95.267408 
z
" clip-path="url(#pddef149c40)" style="fill: none"/>
   </g>
   <g id="patch_6">
    <path d="M 101.7 95.267408 
L 124.02 95.267408 
L 124.02 63.393774 
L 101.7 63.393774 
L 101.7 95.267408 
z
" clip-path="url(#pddef149c40)" style="fill: none"/>
   </g>
   <g id="patch_7">
    <path d="M 45.9 95.267408 
L 45.9 95.267408 
L 45.9 95.267408 
L 45.9 95.267408 
z
" clip-path="url(#pddef149c40)" style="fill: #3274a1"/>
   </g>
   <g id="patch_8">
    <path d="M 45.9 95.267408 
L 45.9 95.267408 
L 45.9 95.267408 
L 45.9 95.267408 
z
" clip-path="url(#pddef149c40)" style="fill: #e1812c"/>
   </g>
   <g id="matplotlib.axis_1">
    <g id="xtick_1">
     <g id="line2d_1">
      <defs>
       <path id="mf419de3528" d="M 0 0 
L 0 3.5 
" style="stroke: #000000; stroke-width: 1.5"/>
      </defs>
      <g>
       <use xlink:href="#mf419de3528" x="45.9" y="115.344" style="stroke: #000000; stroke-width: 1.5"/>
      </g>
     </g>
     <g id="text_1">
      <!-- neutral -->
      <g transform="translate(29.23125 129.501812) scale(0.1 -0.1)">
       <defs>
        <path id="Arial-BoldMT-6e" d="M 3478 0 
L 2600 0 
L 2600 1694 
Q 2600 2231 2544 2389 
Q 2488 2547 2361 2634 
Q 2234 2722 2056 2722 
Q 1828 2722 1647 2597 
Q 1466 2472 1398 2265 
Q 1331 2059 1331 1503 
L 1331 0 
L 453 0 
L 453 3319 
L 1269 3319 
L 1269 2831 
Q 1703 3394 2363 3394 
Q 2653 3394 2893 3289 
Q 3134 3184 3257 3021 
Q 3381 2859 3429 2653 
Q 3478 2447 3478 2063 
L 3478 0 
z
" transform="scale(0.015625)"/>
        <path id="Arial-BoldMT-65" d="M 2381 1056 
L 3256 909 
Q 3088 428 2723 176 
Q 2359 -75 1813 -75 
Q 947 -75 531 491 
Q 203 944 203 1634 
Q 203 2459 634 2926 
Q 1066 3394 1725 3394 
Q 2466 3394 2894 2905 
Q 3322 2416 3303 1406 
L 1103 1406 
Q 1113 1016 1316 798 
Q 1519 581 1822 581 
Q 2028 581 2168 693 
Q 2309 806 2381 1056 
z
M 2431 1944 
Q 2422 2325 2234 2523 
Q 2047 2722 1778 2722 
Q 1491 2722 1303 2513 
Q 1116 2303 1119 1944 
L 2431 1944 
z
" transform="scale(0.015625)"/>
        <path id="Arial-BoldMT-75" d="M 2644 0 
L 2644 497 
Q 2463 231 2167 78 
Q 1872 -75 1544 -75 
Q 1209 -75 943 72 
Q 678 219 559 484 
Q 441 750 441 1219 
L 441 3319 
L 1319 3319 
L 1319 1794 
Q 1319 1094 1367 936 
Q 1416 778 1544 686 
Q 1672 594 1869 594 
Q 2094 594 2272 717 
Q 2450 841 2515 1023 
Q 2581 1206 2581 1919 
L 2581 3319 
L 3459 3319 
L 3459 0 
L 2644 0 
z
" transform="scale(0.015625)"/>
        <path id="Arial-BoldMT-74" d="M 1981 3319 
L 1981 2619 
L 1381 2619 
L 1381 1281 
Q 1381 875 1398 808 
Q 1416 741 1477 697 
Q 1538 653 1625 653 
Q 1747 653 1978 738 
L 2053 56 
Q 1747 -75 1359 -75 
Q 1122 -75 931 4 
Q 741 84 652 211 
Q 563 338 528 553 
Q 500 706 500 1172 
L 500 2619 
L 97 2619 
L 97 3319 
L 500 3319 
L 500 3978 
L 1381 4491 
L 1381 3319 
L 1981 3319 
z
" transform="scale(0.015625)"/>
        <path id="Arial-BoldMT-72" d="M 1300 0 
L 422 0 
L 422 3319 
L 1238 3319 
L 1238 2847 
Q 1447 3181 1614 3287 
Q 1781 3394 1994 3394 
Q 2294 3394 2572 3228 
L 2300 2463 
Q 2078 2606 1888 2606 
Q 1703 2606 1575 2504 
Q 1447 2403 1373 2137 
Q 1300 1872 1300 1025 
L 1300 0 
z
" transform="scale(0.015625)"/>
        <path id="Arial-BoldMT-61" d="M 1116 2306 
L 319 2450 
Q 453 2931 781 3162 
Q 1109 3394 1756 3394 
Q 2344 3394 2631 3255 
Q 2919 3116 3036 2902 
Q 3153 2688 3153 2116 
L 3144 1091 
Q 3144 653 3186 445 
Q 3228 238 3344 0 
L 2475 0 
Q 2441 88 2391 259 
Q 2369 338 2359 363 
Q 2134 144 1878 34 
Q 1622 -75 1331 -75 
Q 819 -75 523 203 
Q 228 481 228 906 
Q 228 1188 362 1408 
Q 497 1628 739 1745 
Q 981 1863 1438 1950 
Q 2053 2066 2291 2166 
L 2291 2253 
Q 2291 2506 2166 2614 
Q 2041 2722 1694 2722 
Q 1459 2722 1328 2630 
Q 1197 2538 1116 2306 
z
M 2291 1594 
Q 2122 1538 1756 1459 
Q 1391 1381 1278 1306 
Q 1106 1184 1106 997 
Q 1106 813 1243 678 
Q 1381 544 1594 544 
Q 1831 544 2047 700 
Q 2206 819 2256 991 
Q 2291 1103 2291 1419 
L 2291 1594 
z
" transform="scale(0.015625)"/>
        <path id="Arial-BoldMT-6c" d="M 459 0 
L 459 4581 
L 1338 4581 
L 1338 0 
L 459 0 
z
" transform="scale(0.015625)"/>
       </defs>
       <use xlink:href="#Arial-BoldMT-6e"/>
       <use xlink:href="#Arial-BoldMT-65" x="61.083984"/>
       <use xlink:href="#Arial-BoldMT-75" x="116.699219"/>
       <use xlink:href="#Arial-BoldMT-74" x="177.783203"/>
       <use xlink:href="#Arial-BoldMT-72" x="211.083984"/>
       <use xlink:href="#Arial-BoldMT-61" x="250"/>
       <use xlink:href="#Arial-BoldMT-6c" x="305.615234"/>
      </g>
     </g>
    </g>
    <g id="xtick_2">
     <g id="line2d_2">
      <g>
       <use xlink:href="#mf419de3528" x="101.7" y="115.344" style="stroke: #000000; stroke-width: 1.5"/>
      </g>
     </g>
     <g id="text_2">
      <!-- adversive -->
      <g transform="translate(78.628125 129.501812) scale(0.1 -0.1)">
       <defs>
        <path id="Arial-BoldMT-64" d="M 3503 0 
L 2688 0 
L 2688 488 
Q 2484 203 2207 64 
Q 1931 -75 1650 -75 
Q 1078 -75 670 386 
Q 263 847 263 1672 
Q 263 2516 659 2955 
Q 1056 3394 1663 3394 
Q 2219 3394 2625 2931 
L 2625 4581 
L 3503 4581 
L 3503 0 
z
M 1159 1731 
Q 1159 1200 1306 963 
Q 1519 619 1900 619 
Q 2203 619 2415 876 
Q 2628 1134 2628 1647 
Q 2628 2219 2422 2470 
Q 2216 2722 1894 2722 
Q 1581 2722 1370 2473 
Q 1159 2225 1159 1731 
z
" transform="scale(0.015625)"/>
        <path id="Arial-BoldMT-76" d="M 1372 0 
L 34 3319 
L 956 3319 
L 1581 1625 
L 1763 1059 
Q 1834 1275 1853 1344 
Q 1897 1484 1947 1625 
L 2578 3319 
L 3481 3319 
L 2163 0 
L 1372 0 
z
" transform="scale(0.015625)"/>
        <path id="Arial-BoldMT-73" d="M 150 947 
L 1031 1081 
Q 1088 825 1259 692 
Q 1431 559 1741 559 
Q 2081 559 2253 684 
Q 2369 772 2369 919 
Q 2369 1019 2306 1084 
Q 2241 1147 2013 1200 
Q 950 1434 666 1628 
Q 272 1897 272 2375 
Q 272 2806 612 3100 
Q 953 3394 1669 3394 
Q 2350 3394 2681 3172 
Q 3013 2950 3138 2516 
L 2309 2363 
Q 2256 2556 2107 2659 
Q 1959 2763 1684 2763 
Q 1338 2763 1188 2666 
Q 1088 2597 1088 2488 
Q 1088 2394 1175 2328 
Q 1294 2241 1995 2081 
Q 2697 1922 2975 1691 
Q 3250 1456 3250 1038 
Q 3250 581 2869 253 
Q 2488 -75 1741 -75 
Q 1063 -75 667 200 
Q 272 475 150 947 
z
" transform="scale(0.015625)"/>
        <path id="Arial-BoldMT-69" d="M 459 3769 
L 459 4581 
L 1338 4581 
L 1338 3769 
L 459 3769 
z
M 459 0 
L 459 3319 
L 1338 3319 
L 1338 0 
L 459 0 
z
" transform="scale(0.015625)"/>
       </defs>
       <use xlink:href="#Arial-BoldMT-61"/>
       <use xlink:href="#Arial-BoldMT-64" x="55.615234"/>
       <use xlink:href="#Arial-BoldMT-76" x="116.699219"/>
       <use xlink:href="#Arial-BoldMT-65" x="172.314453"/>
       <use xlink:href="#Arial-BoldMT-72" x="227.929688"/>
       <use xlink:href="#Arial-BoldMT-73" x="266.845703"/>
       <use xlink:href="#Arial-BoldMT-69" x="322.460938"/>
       <use xlink:href="#Arial-BoldMT-76" x="350.244141"/>
       <use xlink:href="#Arial-BoldMT-65" x="405.859375"/>
      </g>
     </g>
    </g>
   </g>
   <g id="matplotlib.axis_2">
    <g id="ytick_1">
     <g id="line2d_3">
      <defs>
       <path id="mfc420a0c24" d="M 0 0 
L -3.5 0 
" style="stroke: #000000; stroke-width: 1.5"/>
      </defs>
      <g>
       <use xlink:href="#mfc420a0c24" x="18" y="95.267408" style="stroke: #000000; stroke-width: 1.5"/>
      </g>
     </g>
     <g id="text_3">
      <!-- 0 -->
      <g transform="translate(5.439062 98.846315) scale(0.1 -0.1)">
       <defs>
        <path id="Arial-BoldMT-30" d="M 1756 4600 
Q 2422 4600 2797 4125 
Q 3244 3563 3244 2259 
Q 3244 959 2794 391 
Q 2422 -78 1756 -78 
Q 1088 -78 678 436 
Q 269 950 269 2269 
Q 269 3563 719 4131 
Q 1091 4600 1756 4600 
z
M 1756 3872 
Q 1597 3872 1472 3770 
Q 1347 3669 1278 3406 
Q 1188 3066 1188 2259 
Q 1188 1453 1269 1151 
Q 1350 850 1473 750 
Q 1597 650 1756 650 
Q 1916 650 2041 751 
Q 2166 853 2234 1116 
Q 2325 1453 2325 2259 
Q 2325 3066 2244 3367 
Q 2163 3669 2039 3770 
Q 1916 3872 1756 3872 
z
" transform="scale(0.015625)"/>
       </defs>
       <use xlink:href="#Arial-BoldMT-30"/>
      </g>
     </g>
    </g>
    <g id="ytick_2">
     <g id="line2d_4">
      <g>
       <use xlink:href="#mfc420a0c24" x="18" y="65.448" style="stroke: #000000; stroke-width: 1.5"/>
      </g>
     </g>
     <g id="text_4">
      <!-- 50 -->
      <g transform="translate(-0.121875 69.026906) scale(0.1 -0.1)">
       <defs>
        <path id="Arial-BoldMT-35" d="M 284 1178 
L 1159 1269 
Q 1197 972 1381 798 
Q 1566 625 1806 625 
Q 2081 625 2272 848 
Q 2463 1072 2463 1522 
Q 2463 1944 2273 2155 
Q 2084 2366 1781 2366 
Q 1403 2366 1103 2031 
L 391 2134 
L 841 4519 
L 3163 4519 
L 3163 3697 
L 1506 3697 
L 1369 2919 
Q 1663 3066 1969 3066 
Q 2553 3066 2959 2641 
Q 3366 2216 3366 1538 
Q 3366 972 3038 528 
Q 2591 -78 1797 -78 
Q 1163 -78 763 262 
Q 363 603 284 1178 
z
" transform="scale(0.015625)"/>
       </defs>
       <use xlink:href="#Arial-BoldMT-35"/>
       <use xlink:href="#Arial-BoldMT-30" x="55.615234"/>
      </g>
     </g>
    </g>
    <g id="ytick_3">
     <g id="line2d_5">
      <g>
       <use xlink:href="#mfc420a0c24" x="18" y="35.628592" style="stroke: #000000; stroke-width: 1.5"/>
      </g>
     </g>
     <g id="text_5">
      <!-- 100 -->
      <g transform="translate(-5.682813 39.207498) scale(0.1 -0.1)">
       <defs>
        <path id="Arial-BoldMT-31" d="M 2519 0 
L 1641 0 
L 1641 3309 
Q 1159 2859 506 2644 
L 506 3441 
Q 850 3553 1253 3867 
Q 1656 4181 1806 4600 
L 2519 4600 
L 2519 0 
z
" transform="scale(0.015625)"/>
       </defs>
       <use xlink:href="#Arial-BoldMT-31"/>
       <use xlink:href="#Arial-BoldMT-30" x="55.615234"/>
       <use xlink:href="#Arial-BoldMT-30" x="111.230469"/>
      </g>
     </g>
    </g>
    <g id="text_6">
     <!-- craving score (a.u.) -->
     <g transform="translate(-11.7875 111.294094) rotate(-90) scale(0.1 -0.1)">
      <defs>
       <path id="Arial-BoldMT-63" d="M 3353 2338 
L 2488 2181 
Q 2444 2441 2289 2572 
Q 2134 2703 1888 2703 
Q 1559 2703 1364 2476 
Q 1169 2250 1169 1719 
Q 1169 1128 1367 884 
Q 1566 641 1900 641 
Q 2150 641 2309 783 
Q 2469 925 2534 1272 
L 3397 1125 
Q 3263 531 2881 228 
Q 2500 -75 1859 -75 
Q 1131 -75 698 384 
Q 266 844 266 1656 
Q 266 2478 700 2936 
Q 1134 3394 1875 3394 
Q 2481 3394 2839 3133 
Q 3197 2872 3353 2338 
z
" transform="scale(0.015625)"/>
       <path id="Arial-BoldMT-67" d="M 378 -219 
L 1381 -341 
Q 1406 -516 1497 -581 
Q 1622 -675 1891 -675 
Q 2234 -675 2406 -572 
Q 2522 -503 2581 -350 
Q 2622 -241 2622 53 
L 2622 538 
Q 2228 0 1628 0 
Q 959 0 569 566 
Q 263 1013 263 1678 
Q 263 2513 664 2953 
Q 1066 3394 1663 3394 
Q 2278 3394 2678 2853 
L 2678 3319 
L 3500 3319 
L 3500 341 
Q 3500 -247 3403 -537 
Q 3306 -828 3131 -993 
Q 2956 -1159 2664 -1253 
Q 2372 -1347 1925 -1347 
Q 1081 -1347 728 -1058 
Q 375 -769 375 -325 
Q 375 -281 378 -219 
z
M 1163 1728 
Q 1163 1200 1367 954 
Q 1572 709 1872 709 
Q 2194 709 2416 961 
Q 2638 1213 2638 1706 
Q 2638 2222 2425 2472 
Q 2213 2722 1888 2722 
Q 1572 2722 1367 2476 
Q 1163 2231 1163 1728 
z
" transform="scale(0.015625)"/>
       <path id="Arial-BoldMT-20" transform="scale(0.015625)"/>
       <path id="Arial-BoldMT-6f" d="M 256 1706 
Q 256 2144 472 2553 
Q 688 2963 1083 3178 
Q 1478 3394 1966 3394 
Q 2719 3394 3200 2905 
Q 3681 2416 3681 1669 
Q 3681 916 3195 420 
Q 2709 -75 1972 -75 
Q 1516 -75 1102 131 
Q 688 338 472 736 
Q 256 1134 256 1706 
z
M 1156 1659 
Q 1156 1166 1390 903 
Q 1625 641 1969 641 
Q 2313 641 2545 903 
Q 2778 1166 2778 1666 
Q 2778 2153 2545 2415 
Q 2313 2678 1969 2678 
Q 1625 2678 1390 2415 
Q 1156 2153 1156 1659 
z
" transform="scale(0.015625)"/>
       <path id="Arial-BoldMT-28" d="M 1916 -1347 
L 1313 -1347 
Q 834 -625 584 153 
Q 334 931 334 1659 
Q 334 2563 644 3369 
Q 913 4069 1325 4659 
L 1925 4659 
Q 1497 3713 1336 3048 
Q 1175 2384 1175 1641 
Q 1175 1128 1270 590 
Q 1366 53 1531 -431 
Q 1641 -750 1916 -1347 
z
" transform="scale(0.015625)"/>
       <path id="Arial-BoldMT-2e" d="M 459 0 
L 459 878 
L 1338 878 
L 1338 0 
L 459 0 
z
" transform="scale(0.015625)"/>
       <path id="Arial-BoldMT-29" d="M 216 -1347 
Q 475 -791 581 -494 
Q 688 -197 778 190 
Q 869 578 912 926 
Q 956 1275 956 1641 
Q 956 2384 797 3048 
Q 638 3713 209 4659 
L 806 4659 
Q 1278 3988 1539 3234 
Q 1800 2481 1800 1706 
Q 1800 1053 1594 306 
Q 1359 -531 822 -1347 
L 216 -1347 
z
" transform="scale(0.015625)"/>
      </defs>
      <use xlink:href="#Arial-BoldMT-63"/>
      <use xlink:href="#Arial-BoldMT-72" x="55.615234"/>
      <use xlink:href="#Arial-BoldMT-61" x="94.53125"/>
      <use xlink:href="#Arial-BoldMT-76" x="150.146484"/>
      <use xlink:href="#Arial-BoldMT-69" x="205.761719"/>
      <use xlink:href="#Arial-BoldMT-6e" x="233.544922"/>
      <use xlink:href="#Arial-BoldMT-67" x="294.628906"/>
      <use xlink:href="#Arial-BoldMT-20" x="355.712891"/>
      <use xlink:href="#Arial-BoldMT-73" x="383.496094"/>
      <use xlink:href="#Arial-BoldMT-63" x="439.111328"/>
      <use xlink:href="#Arial-BoldMT-6f" x="494.726562"/>
      <use xlink:href="#Arial-BoldMT-72" x="555.810547"/>
      <use xlink:href="#Arial-BoldMT-65" x="594.726562"/>
      <use xlink:href="#Arial-BoldMT-20" x="650.341797"/>
      <use xlink:href="#Arial-BoldMT-28" x="678.125"/>
      <use xlink:href="#Arial-BoldMT-61" x="711.425781"/>
      <use xlink:href="#Arial-BoldMT-2e" x="767.041016"/>
      <use xlink:href="#Arial-BoldMT-75" x="794.824219"/>
      <use xlink:href="#Arial-BoldMT-2e" x="855.908203"/>
      <use xlink:href="#Arial-BoldMT-29" x="883.691406"/>
     </g>
    </g>
   </g>
   <g id="PathCollection_1">
    <defs>
     <path id="C0_0_8027448827" d="M 0 2.5 
C 0.663008 2.5 1.29895 2.236584 1.767767 1.767767 
C 2.236584 1.29895 2.5 0.663008 2.5 -0 
C 2.5 -0.663008 2.236584 -1.29895 1.767767 -1.767767 
C 1.29895 -2.236584 0.663008 -2.5 0 -2.5 
C -0.663008 -2.5 -1.29895 -2.236584 -1.767767 -1.767767 
C -2.236584 -1.29895 -2.5 -0.663008 -2.5 0 
C -2.5 0.663008 -2.236584 1.29895 -1.767767 1.767767 
C -1.29895 2.236584 -0.663008 2.5 0 2.5 
z
"/>
    </defs>
    <g clip-path="url(#pddef149c40)">
     <use xlink:href="#C0_0_8027448827" x="32.971426" y="65.448" style="fill: #c1bdb1; fill-opacity: 0.7"/>
    </g>
    <g clip-path="url(#pddef149c40)">
     <use xlink:href="#C0_0_8027448827" x="33.200175" y="50.538296" style="fill: #c1bdb1; fill-opacity: 0.7"/>
    </g>
    <g clip-path="url(#pddef149c40)">
     <use xlink:href="#C0_0_8027448827" x="33.739735" y="53.520237" style="fill: #c1bdb1; fill-opacity: 0.7"/>
    </g>
    <g clip-path="url(#pddef149c40)">
     <use xlink:href="#C0_0_8027448827" x="35.102163" y="50.538296" style="fill: #c1bdb1; fill-opacity: 0.7"/>
    </g>
    <g clip-path="url(#pddef149c40)">
     <use xlink:href="#C0_0_8027448827" x="35.054886" y="53.520237" style="fill: #c1bdb1; fill-opacity: 0.7"/>
    </g>
    <g clip-path="url(#pddef149c40)">
     <use xlink:href="#C0_0_8027448827" x="37.476758" y="50.538296" style="fill: #c1bdb1; fill-opacity: 0.7"/>
    </g>
    <g clip-path="url(#pddef149c40)">
     <use xlink:href="#C0_0_8027448827" x="34.425795" y="47.556355" style="fill: #c1bdb1; fill-opacity: 0.7"/>
    </g>
    <g clip-path="url(#pddef149c40)">
     <use xlink:href="#C0_0_8027448827" x="34.66331" y="59.484118" style="fill: #c1bdb1; fill-opacity: 0.7"/>
    </g>
    <g clip-path="url(#pddef149c40)">
     <use xlink:href="#C0_0_8027448827" x="35.154899" y="65.448" style="fill: #c1bdb1; fill-opacity: 0.7"/>
    </g>
    <g clip-path="url(#pddef149c40)">
     <use xlink:href="#C0_0_8027448827" x="34.305463" y="47.556355" style="fill: #c1bdb1; fill-opacity: 0.7"/>
    </g>
    <g clip-path="url(#pddef149c40)">
     <use xlink:href="#C0_0_8027448827" x="31.999995" y="47.556355" style="fill: #c1bdb1; fill-opacity: 0.7"/>
    </g>
    <g clip-path="url(#pddef149c40)">
     <use xlink:href="#C0_0_8027448827" x="34.989697" y="35.628592" style="fill: #c1bdb1; fill-opacity: 0.7"/>
    </g>
    <g clip-path="url(#pddef149c40)">
     <use xlink:href="#C0_0_8027448827" x="34.909616" y="44.574414" style="fill: #c1bdb1; fill-opacity: 0.7"/>
    </g>
    <g clip-path="url(#pddef149c40)">
     <use xlink:href="#C0_0_8027448827" x="34.431366" y="77.375763" style="fill: #c1bdb1; fill-opacity: 0.7"/>
    </g>
    <g clip-path="url(#pddef149c40)">
     <use xlink:href="#C0_0_8027448827" x="33.818495" y="38.610532" style="fill: #c1bdb1; fill-opacity: 0.7"/>
    </g>
    <g clip-path="url(#pddef149c40)">
     <use xlink:href="#C0_0_8027448827" x="32.081601" y="53.520237" style="fill: #c1bdb1; fill-opacity: 0.7"/>
    </g>
    <g clip-path="url(#pddef149c40)">
     <use xlink:href="#C0_0_8027448827" x="33.330376" y="62.466059" style="fill: #c1bdb1; fill-opacity: 0.7"/>
    </g>
    <g clip-path="url(#pddef149c40)">
     <use xlink:href="#C0_0_8027448827" x="36.516197" y="62.466059" style="fill: #c1bdb1; fill-opacity: 0.7"/>
    </g>
    <g clip-path="url(#pddef149c40)">
     <use xlink:href="#C0_0_8027448827" x="36.770709" y="59.484118" style="fill: #c1bdb1; fill-opacity: 0.7"/>
    </g>
    <g clip-path="url(#pddef149c40)">
     <use xlink:href="#C0_0_8027448827" x="32.873783" y="47.556355" style="fill: #c1bdb1; fill-opacity: 0.7"/>
    </g>
    <g clip-path="url(#pddef149c40)">
     <use xlink:href="#C0_0_8027448827" x="33.26368" y="59.484118" style="fill: #c1bdb1; fill-opacity: 0.7"/>
    </g>
    <g clip-path="url(#pddef149c40)">
     <use xlink:href="#C0_0_8027448827" x="34.876804" y="44.574414" style="fill: #c1bdb1; fill-opacity: 0.7"/>
    </g>
    <g clip-path="url(#pddef149c40)">
     <use xlink:href="#C0_0_8027448827" x="32.685179" y="47.556355" style="fill: #c1bdb1; fill-opacity: 0.7"/>
    </g>
    <g clip-path="url(#pddef149c40)">
     <use xlink:href="#C0_0_8027448827" x="33.967894" y="53.520237" style="fill: #c1bdb1; fill-opacity: 0.7"/>
    </g>
    <g clip-path="url(#pddef149c40)">
     <use xlink:href="#C0_0_8027448827" x="33.605817" y="53.520237" style="fill: #c1bdb1; fill-opacity: 0.7"/>
    </g>
    <g clip-path="url(#pddef149c40)">
     <use xlink:href="#C0_0_8027448827" x="33.694517" y="83.339645" style="fill: #c1bdb1; fill-opacity: 0.7"/>
    </g>
    <g clip-path="url(#pddef149c40)">
     <use xlink:href="#C0_0_8027448827" x="33.054808" y="47.556355" style="fill: #c1bdb1; fill-opacity: 0.7"/>
    </g>
    <g clip-path="url(#pddef149c40)">
     <use xlink:href="#C0_0_8027448827" x="34.318568" y="59.484118" style="fill: #c1bdb1; fill-opacity: 0.7"/>
    </g>
    <g clip-path="url(#pddef149c40)">
     <use xlink:href="#C0_0_8027448827" x="31.995594" y="44.574414" style="fill: #c1bdb1; fill-opacity: 0.7"/>
    </g>
    <g clip-path="url(#pddef149c40)">
     <use xlink:href="#C0_0_8027448827" x="33.934137" y="50.538296" style="fill: #c1bdb1; fill-opacity: 0.7"/>
    </g>
    <g clip-path="url(#pddef149c40)">
     <use xlink:href="#C0_0_8027448827" x="37.157595" y="41.592473" style="fill: #c1bdb1; fill-opacity: 0.7"/>
    </g>
    <g clip-path="url(#pddef149c40)">
     <use xlink:href="#C0_0_8027448827" x="32.059993" y="65.448" style="fill: #c1bdb1; fill-opacity: 0.7"/>
    </g>
    <g clip-path="url(#pddef149c40)">
     <use xlink:href="#C0_0_8027448827" x="36.793565" y="47.556355" style="fill: #c1bdb1; fill-opacity: 0.7"/>
    </g>
    <g clip-path="url(#pddef149c40)">
     <use xlink:href="#C0_0_8027448827" x="36.728642" y="74.393823" style="fill: #c1bdb1; fill-opacity: 0.7"/>
    </g>
    <g clip-path="url(#pddef149c40)">
     <use xlink:href="#C0_0_8027448827" x="36.86031" y="59.484118" style="fill: #c1bdb1; fill-opacity: 0.7"/>
    </g>
    <g clip-path="url(#pddef149c40)">
     <use xlink:href="#C0_0_8027448827" x="35.380584" y="56.502177" style="fill: #c1bdb1; fill-opacity: 0.7"/>
    </g>
    <g clip-path="url(#pddef149c40)">
     <use xlink:href="#C0_0_8027448827" x="35.981528" y="65.448" style="fill: #c1bdb1; fill-opacity: 0.7"/>
    </g>
    <g clip-path="url(#pddef149c40)">
     <use xlink:href="#C0_0_8027448827" x="32.898766" y="53.520237" style="fill: #c1bdb1; fill-opacity: 0.7"/>
    </g>
    <g clip-path="url(#pddef149c40)">
     <use xlink:href="#C0_0_8027448827" x="35.982213" y="47.556355" style="fill: #c1bdb1; fill-opacity: 0.7"/>
    </g>
    <g clip-path="url(#pddef149c40)">
     <use xlink:href="#C0_0_8027448827" x="33.959005" y="65.448" style="fill: #c1bdb1; fill-opacity: 0.7"/>
    </g>
    <g clip-path="url(#pddef149c40)">
     <use xlink:href="#C0_0_8027448827" x="36.250964" y="74.393823" style="fill: #c1bdb1; fill-opacity: 0.7"/>
    </g>
   </g>
   <g id="PathCollection_2">
    <defs>
     <path id="C1_0_bf9f8ba5da" d="M 0 2.5 
C 0.663008 2.5 1.29895 2.236584 1.767767 1.767767 
C 2.236584 1.29895 2.5 0.663008 2.5 -0 
C 2.5 -0.663008 2.236584 -1.29895 1.767767 -1.767767 
C 1.29895 -2.236584 0.663008 -2.5 0 -2.5 
C -0.663008 -2.5 -1.29895 -2.236584 -1.767767 -1.767767 
C -2.236584 -1.29895 -2.5 -0.663008 -2.5 0 
C -2.5 0.663008 -2.236584 1.29895 -1.767767 1.767767 
C -1.29895 2.236584 -0.663008 2.5 0 2.5 
z
"/>
    </defs>
    <g clip-path="url(#pddef149c40)">
     <use xlink:href="#C1_0_bf9f8ba5da" x="58.673693" y="83.339645" style="fill: #3e5751; fill-opacity: 0.7"/>
    </g>
    <g clip-path="url(#pddef149c40)">
     <use xlink:href="#C1_0_bf9f8ba5da" x="54.688649" y="83.339645" style="fill: #3e5751; fill-opacity: 0.7"/>
    </g>
    <g clip-path="url(#pddef149c40)">
     <use xlink:href="#C1_0_bf9f8ba5da" x="55.517596" y="95.267408" style="fill: #3e5751; fill-opacity: 0.7"/>
    </g>
    <g clip-path="url(#pddef149c40)">
     <use xlink:href="#C1_0_bf9f8ba5da" x="58.624442" y="47.556355" style="fill: #3e5751; fill-opacity: 0.7"/>
    </g>
    <g clip-path="url(#pddef149c40)">
     <use xlink:href="#C1_0_bf9f8ba5da" x="56.938807" y="41.592473" style="fill: #3e5751; fill-opacity: 0.7"/>
    </g>
    <g clip-path="url(#pddef149c40)">
     <use xlink:href="#C1_0_bf9f8ba5da" x="54.869676" y="71.411882" style="fill: #3e5751; fill-opacity: 0.7"/>
    </g>
    <g clip-path="url(#pddef149c40)">
     <use xlink:href="#C1_0_bf9f8ba5da" x="57.68496" y="59.484118" style="fill: #3e5751; fill-opacity: 0.7"/>
    </g>
    <g clip-path="url(#pddef149c40)">
     <use xlink:href="#C1_0_bf9f8ba5da" x="54.706958" y="65.448" style="fill: #3e5751; fill-opacity: 0.7"/>
    </g>
    <g clip-path="url(#pddef149c40)">
     <use xlink:href="#C1_0_bf9f8ba5da" x="57.596355" y="59.484118" style="fill: #3e5751; fill-opacity: 0.7"/>
    </g>
    <g clip-path="url(#pddef149c40)">
     <use xlink:href="#C1_0_bf9f8ba5da" x="57.294069" y="41.592473" style="fill: #3e5751; fill-opacity: 0.7"/>
    </g>
    <g clip-path="url(#pddef149c40)">
     <use xlink:href="#C1_0_bf9f8ba5da" x="55.672909" y="47.556355" style="fill: #3e5751; fill-opacity: 0.7"/>
    </g>
    <g clip-path="url(#pddef149c40)">
     <use xlink:href="#C1_0_bf9f8ba5da" x="58.614022" y="95.267408" style="fill: #3e5751; fill-opacity: 0.7"/>
    </g>
    <g clip-path="url(#pddef149c40)">
     <use xlink:href="#C1_0_bf9f8ba5da" x="58.330852" y="53.520237" style="fill: #3e5751; fill-opacity: 0.7"/>
    </g>
    <g clip-path="url(#pddef149c40)">
     <use xlink:href="#C1_0_bf9f8ba5da" x="58.664549" y="47.556355" style="fill: #3e5751; fill-opacity: 0.7"/>
    </g>
    <g clip-path="url(#pddef149c40)">
     <use xlink:href="#C1_0_bf9f8ba5da" x="59.501302" y="41.592473" style="fill: #3e5751; fill-opacity: 0.7"/>
    </g>
    <g clip-path="url(#pddef149c40)">
     <use xlink:href="#C1_0_bf9f8ba5da" x="58.252325" y="41.592473" style="fill: #3e5751; fill-opacity: 0.7"/>
    </g>
    <g clip-path="url(#pddef149c40)">
     <use xlink:href="#C1_0_bf9f8ba5da" x="54.546814" y="65.448" style="fill: #3e5751; fill-opacity: 0.7"/>
    </g>
    <g clip-path="url(#pddef149c40)">
     <use xlink:href="#C1_0_bf9f8ba5da" x="58.489457" y="53.520237" style="fill: #3e5751; fill-opacity: 0.7"/>
    </g>
    <g clip-path="url(#pddef149c40)">
     <use xlink:href="#C1_0_bf9f8ba5da" x="55.116769" y="83.339645" style="fill: #3e5751; fill-opacity: 0.7"/>
    </g>
    <g clip-path="url(#pddef149c40)">
     <use xlink:href="#C1_0_bf9f8ba5da" x="58.584453" y="65.448" style="fill: #3e5751; fill-opacity: 0.7"/>
    </g>
    <g clip-path="url(#pddef149c40)">
     <use xlink:href="#C1_0_bf9f8ba5da" x="55.848866" y="83.339645" style="fill: #3e5751; fill-opacity: 0.7"/>
    </g>
    <g clip-path="url(#pddef149c40)">
     <use xlink:href="#C1_0_bf9f8ba5da" x="57.043198" y="53.520237" style="fill: #3e5751; fill-opacity: 0.7"/>
    </g>
    <g clip-path="url(#pddef149c40)">
     <use xlink:href="#C1_0_bf9f8ba5da" x="54.842446" y="47.556355" style="fill: #3e5751; fill-opacity: 0.7"/>
    </g>
    <g clip-path="url(#pddef149c40)">
     <use xlink:href="#C1_0_bf9f8ba5da" x="56.205923" y="41.592473" style="fill: #3e5751; fill-opacity: 0.7"/>
    </g>
    <g clip-path="url(#pddef149c40)">
     <use xlink:href="#C1_0_bf9f8ba5da" x="56.635707" y="47.556355" style="fill: #3e5751; fill-opacity: 0.7"/>
    </g>
    <g clip-path="url(#pddef149c40)">
     <use xlink:href="#C1_0_bf9f8ba5da" x="55.031719" y="71.411882" style="fill: #3e5751; fill-opacity: 0.7"/>
    </g>
    <g clip-path="url(#pddef149c40)">
     <use xlink:href="#C1_0_bf9f8ba5da" x="59.450197" y="68.429941" style="fill: #3e5751; fill-opacity: 0.7"/>
    </g>
    <g clip-path="url(#pddef149c40)">
     <use xlink:href="#C1_0_bf9f8ba5da" x="55.778791" y="41.592473" style="fill: #3e5751; fill-opacity: 0.7"/>
    </g>
    <g clip-path="url(#pddef149c40)">
     <use xlink:href="#C1_0_bf9f8ba5da" x="54.417566" y="35.628592" style="fill: #3e5751; fill-opacity: 0.7"/>
    </g>
    <g clip-path="url(#pddef149c40)">
     <use xlink:href="#C1_0_bf9f8ba5da" x="57.418808" y="65.448" style="fill: #3e5751; fill-opacity: 0.7"/>
    </g>
    <g clip-path="url(#pddef149c40)">
     <use xlink:href="#C1_0_bf9f8ba5da" x="54.80781" y="44.574414" style="fill: #3e5751; fill-opacity: 0.7"/>
    </g>
    <g clip-path="url(#pddef149c40)">
     <use xlink:href="#C1_0_bf9f8ba5da" x="57.772463" y="41.592473" style="fill: #3e5751; fill-opacity: 0.7"/>
    </g>
    <g clip-path="url(#pddef149c40)">
     <use xlink:href="#C1_0_bf9f8ba5da" x="54.430157" y="38.610532" style="fill: #3e5751; fill-opacity: 0.7"/>
    </g>
    <g clip-path="url(#pddef149c40)">
     <use xlink:href="#C1_0_bf9f8ba5da" x="54.743085" y="59.484118" style="fill: #3e5751; fill-opacity: 0.7"/>
    </g>
    <g clip-path="url(#pddef149c40)">
     <use xlink:href="#C1_0_bf9f8ba5da" x="57.128397" y="47.556355" style="fill: #3e5751; fill-opacity: 0.7"/>
    </g>
    <g clip-path="url(#pddef149c40)">
     <use xlink:href="#C1_0_bf9f8ba5da" x="56.494982" y="72.00827" style="fill: #3e5751; fill-opacity: 0.7"/>
    </g>
    <g clip-path="url(#pddef149c40)">
     <use xlink:href="#C1_0_bf9f8ba5da" x="55.710847" y="53.520237" style="fill: #3e5751; fill-opacity: 0.7"/>
    </g>
    <g clip-path="url(#pddef149c40)">
     <use xlink:href="#C1_0_bf9f8ba5da" x="59.082843" y="44.574414" style="fill: #3e5751; fill-opacity: 0.7"/>
    </g>
    <g clip-path="url(#pddef149c40)">
     <use xlink:href="#C1_0_bf9f8ba5da" x="58.524565" y="38.610532" style="fill: #3e5751; fill-opacity: 0.7"/>
    </g>
    <g clip-path="url(#pddef149c40)">
     <use xlink:href="#C1_0_bf9f8ba5da" x="58.168129" y="71.411882" style="fill: #3e5751; fill-opacity: 0.7"/>
    </g>
    <g clip-path="url(#pddef149c40)">
     <use xlink:href="#C1_0_bf9f8ba5da" x="57.880428" y="53.520237" style="fill: #3e5751; fill-opacity: 0.7"/>
    </g>
   </g>
   <g id="PathCollection_3">
    <defs>
     <path id="C2_0_7b735fb600" d="M 0 2.5 
C 0.663008 2.5 1.29895 2.236584 1.767767 1.767767 
C 2.236584 1.29895 2.5 0.663008 2.5 -0 
C 2.5 -0.663008 2.236584 -1.29895 1.767767 -1.767767 
C 1.29895 -2.236584 0.663008 -2.5 0 -2.5 
C -0.663008 -2.5 -1.29895 -2.236584 -1.767767 -1.767767 
C -2.236584 -1.29895 -2.5 -0.663008 -2.5 0 
C -2.5 0.663008 -2.236584 1.29895 -1.767767 1.767767 
C -1.29895 2.236584 -0.663008 2.5 0 2.5 
z
"/>
    </defs>
    <g clip-path="url(#pddef149c40)">
     <use xlink:href="#C2_0_7b735fb600" x="90.298297" y="65.448" style="fill: #c1bdb1; fill-opacity: 0.7"/>
    </g>
    <g clip-path="url(#pddef149c40)">
     <use xlink:href="#C2_0_7b735fb600" x="90.802098" y="50.538296" style="fill: #c1bdb1; fill-opacity: 0.7"/>
    </g>
    <g clip-path="url(#pddef149c40)">
     <use xlink:href="#C2_0_7b735fb600" x="90.256531" y="50.538296" style="fill: #c1bdb1; fill-opacity: 0.7"/>
    </g>
    <g clip-path="url(#pddef149c40)">
     <use xlink:href="#C2_0_7b735fb600" x="91.488535" y="53.520237" style="fill: #c1bdb1; fill-opacity: 0.7"/>
    </g>
    <g clip-path="url(#pddef149c40)">
     <use xlink:href="#C2_0_7b735fb600" x="91.70096" y="50.538296" style="fill: #c1bdb1; fill-opacity: 0.7"/>
    </g>
    <g clip-path="url(#pddef149c40)">
     <use xlink:href="#C2_0_7b735fb600" x="90.117191" y="65.448" style="fill: #c1bdb1; fill-opacity: 0.7"/>
    </g>
    <g clip-path="url(#pddef149c40)">
     <use xlink:href="#C2_0_7b735fb600" x="90.850298" y="59.484118" style="fill: #c1bdb1; fill-opacity: 0.7"/>
    </g>
    <g clip-path="url(#pddef149c40)">
     <use xlink:href="#C2_0_7b735fb600" x="88.547719" y="65.448" style="fill: #c1bdb1; fill-opacity: 0.7"/>
    </g>
    <g clip-path="url(#pddef149c40)">
     <use xlink:href="#C2_0_7b735fb600" x="92.322137" y="47.556355" style="fill: #c1bdb1; fill-opacity: 0.7"/>
    </g>
    <g clip-path="url(#pddef149c40)">
     <use xlink:href="#C2_0_7b735fb600" x="90.112098" y="47.556355" style="fill: #c1bdb1; fill-opacity: 0.7"/>
    </g>
    <g clip-path="url(#pddef149c40)">
     <use xlink:href="#C2_0_7b735fb600" x="88.698243" y="35.628592" style="fill: #c1bdb1; fill-opacity: 0.7"/>
    </g>
    <g clip-path="url(#pddef149c40)">
     <use xlink:href="#C2_0_7b735fb600" x="93.26572" y="44.574414" style="fill: #c1bdb1; fill-opacity: 0.7"/>
    </g>
    <g clip-path="url(#pddef149c40)">
     <use xlink:href="#C2_0_7b735fb600" x="91.748765" y="77.375763" style="fill: #c1bdb1; fill-opacity: 0.7"/>
    </g>
    <g clip-path="url(#pddef149c40)">
     <use xlink:href="#C2_0_7b735fb600" x="89.289777" y="38.610532" style="fill: #c1bdb1; fill-opacity: 0.7"/>
    </g>
    <g clip-path="url(#pddef149c40)">
     <use xlink:href="#C2_0_7b735fb600" x="88.097645" y="53.520237" style="fill: #c1bdb1; fill-opacity: 0.7"/>
    </g>
    <g clip-path="url(#pddef149c40)">
     <use xlink:href="#C2_0_7b735fb600" x="90.376432" y="62.466059" style="fill: #c1bdb1; fill-opacity: 0.7"/>
    </g>
    <g clip-path="url(#pddef149c40)">
     <use xlink:href="#C2_0_7b735fb600" x="89.61116" y="47.556355" style="fill: #c1bdb1; fill-opacity: 0.7"/>
    </g>
    <g clip-path="url(#pddef149c40)">
     <use xlink:href="#C2_0_7b735fb600" x="90.305355" y="62.466059" style="fill: #c1bdb1; fill-opacity: 0.7"/>
    </g>
    <g clip-path="url(#pddef149c40)">
     <use xlink:href="#C2_0_7b735fb600" x="88.304407" y="59.484118" style="fill: #c1bdb1; fill-opacity: 0.7"/>
    </g>
    <g clip-path="url(#pddef149c40)">
     <use xlink:href="#C2_0_7b735fb600" x="92.685215" y="47.556355" style="fill: #c1bdb1; fill-opacity: 0.7"/>
    </g>
    <g clip-path="url(#pddef149c40)">
     <use xlink:href="#C2_0_7b735fb600" x="89.866953" y="59.484118" style="fill: #c1bdb1; fill-opacity: 0.7"/>
    </g>
    <g clip-path="url(#pddef149c40)">
     <use xlink:href="#C2_0_7b735fb600" x="92.064213" y="44.574414" style="fill: #c1bdb1; fill-opacity: 0.7"/>
    </g>
    <g clip-path="url(#pddef149c40)">
     <use xlink:href="#C2_0_7b735fb600" x="89.953765" y="53.520237" style="fill: #c1bdb1; fill-opacity: 0.7"/>
    </g>
    <g clip-path="url(#pddef149c40)">
     <use xlink:href="#C2_0_7b735fb600" x="88.090288" y="47.556355" style="fill: #c1bdb1; fill-opacity: 0.7"/>
    </g>
    <g clip-path="url(#pddef149c40)">
     <use xlink:href="#C2_0_7b735fb600" x="93.302534" y="53.520237" style="fill: #c1bdb1; fill-opacity: 0.7"/>
    </g>
    <g clip-path="url(#pddef149c40)">
     <use xlink:href="#C2_0_7b735fb600" x="90.747547" y="59.484118" style="fill: #c1bdb1; fill-opacity: 0.7"/>
    </g>
    <g clip-path="url(#pddef149c40)">
     <use xlink:href="#C2_0_7b735fb600" x="90.434835" y="44.574414" style="fill: #c1bdb1; fill-opacity: 0.7"/>
    </g>
    <g clip-path="url(#pddef149c40)">
     <use xlink:href="#C2_0_7b735fb600" x="91.83749" y="53.520237" style="fill: #c1bdb1; fill-opacity: 0.7"/>
    </g>
    <g clip-path="url(#pddef149c40)">
     <use xlink:href="#C2_0_7b735fb600" x="88.292338" y="50.538296" style="fill: #c1bdb1; fill-opacity: 0.7"/>
    </g>
    <g clip-path="url(#pddef149c40)">
     <use xlink:href="#C2_0_7b735fb600" x="90.771693" y="71.411882" style="fill: #c1bdb1; fill-opacity: 0.7"/>
    </g>
    <g clip-path="url(#pddef149c40)">
     <use xlink:href="#C2_0_7b735fb600" x="90.753763" y="77.375763" style="fill: #c1bdb1; fill-opacity: 0.7"/>
    </g>
    <g clip-path="url(#pddef149c40)">
     <use xlink:href="#C2_0_7b735fb600" x="92.339287" y="38.610532" style="fill: #c1bdb1; fill-opacity: 0.7"/>
    </g>
    <g clip-path="url(#pddef149c40)">
     <use xlink:href="#C2_0_7b735fb600" x="91.117464" y="56.502177" style="fill: #c1bdb1; fill-opacity: 0.7"/>
    </g>
    <g clip-path="url(#pddef149c40)">
     <use xlink:href="#C2_0_7b735fb600" x="91.346468" y="59.484118" style="fill: #c1bdb1; fill-opacity: 0.7"/>
    </g>
    <g clip-path="url(#pddef149c40)">
     <use xlink:href="#C2_0_7b735fb600" x="90.222354" y="59.484118" style="fill: #c1bdb1; fill-opacity: 0.7"/>
    </g>
    <g clip-path="url(#pddef149c40)">
     <use xlink:href="#C2_0_7b735fb600" x="89.380844" y="68.429941" style="fill: #c1bdb1; fill-opacity: 0.7"/>
    </g>
    <g clip-path="url(#pddef149c40)">
     <use xlink:href="#C2_0_7b735fb600" x="89.091198" y="59.484118" style="fill: #c1bdb1; fill-opacity: 0.7"/>
    </g>
    <g clip-path="url(#pddef149c40)">
     <use xlink:href="#C2_0_7b735fb600" x="89.452248" y="53.520237" style="fill: #c1bdb1; fill-opacity: 0.7"/>
    </g>
    <g clip-path="url(#pddef149c40)">
     <use xlink:href="#C2_0_7b735fb600" x="90.717823" y="53.520237" style="fill: #c1bdb1; fill-opacity: 0.7"/>
    </g>
    <g clip-path="url(#pddef149c40)">
     <use xlink:href="#C2_0_7b735fb600" x="90.844726" y="74.393823" style="fill: #c1bdb1; fill-opacity: 0.7"/>
    </g>
    <g clip-path="url(#pddef149c40)">
     <use xlink:href="#C2_0_7b735fb600" x="92.093065" y="53.520237" style="fill: #c1bdb1; fill-opacity: 0.7"/>
    </g>
    <g clip-path="url(#pddef149c40)">
     <use xlink:href="#C2_0_7b735fb600" x="91.985422" y="44.574414" style="fill: #c1bdb1; fill-opacity: 0.7"/>
    </g>
    <g clip-path="url(#pddef149c40)">
     <use xlink:href="#C2_0_7b735fb600" x="89.070093" y="77.375763" style="fill: #c1bdb1; fill-opacity: 0.7"/>
    </g>
    <g clip-path="url(#pddef149c40)">
     <use xlink:href="#C2_0_7b735fb600" x="89.167518" y="62.466059" style="fill: #c1bdb1; fill-opacity: 0.7"/>
    </g>
    <g clip-path="url(#pddef149c40)">
     <use xlink:href="#C2_0_7b735fb600" x="89.274821" y="44.574414" style="fill: #c1bdb1; fill-opacity: 0.7"/>
    </g>
   </g>
   <g id="PathCollection_4">
    <defs>
     <path id="C3_0_e55224cafa" d="M 0 2.5 
C 0.663008 2.5 1.29895 2.236584 1.767767 1.767767 
C 2.236584 1.29895 2.5 0.663008 2.5 -0 
C 2.5 -0.663008 2.236584 -1.29895 1.767767 -1.767767 
C 1.29895 -2.236584 0.663008 -2.5 0 -2.5 
C -0.663008 -2.5 -1.29895 -2.236584 -1.767767 -1.767767 
C -2.236584 -1.29895 -2.5 -0.663008 -2.5 0 
C -2.5 0.663008 -2.236584 1.29895 -1.767767 1.767767 
C -1.29895 2.236584 -0.663008 2.5 0 2.5 
z
"/>
    </defs>
    <g clip-path="url(#pddef149c40)">
     <use xlink:href="#C3_0_e55224cafa" x="114.585981" y="83.339645" style="fill: #3e5751; fill-opacity: 0.7"/>
    </g>
    <g clip-path="url(#pddef149c40)">
     <use xlink:href="#C3_0_e55224cafa" x="115.452188" y="83.339645" style="fill: #3e5751; fill-opacity: 0.7"/>
    </g>
    <g clip-path="url(#pddef149c40)">
     <use xlink:href="#C3_0_e55224cafa" x="114.263871" y="47.556355" style="fill: #3e5751; fill-opacity: 0.7"/>
    </g>
    <g clip-path="url(#pddef149c40)">
     <use xlink:href="#C3_0_e55224cafa" x="112.881639" y="41.592473" style="fill: #3e5751; fill-opacity: 0.7"/>
    </g>
    <g clip-path="url(#pddef149c40)">
     <use xlink:href="#C3_0_e55224cafa" x="112.265976" y="71.411882" style="fill: #3e5751; fill-opacity: 0.7"/>
    </g>
    <g clip-path="url(#pddef149c40)">
     <use xlink:href="#C3_0_e55224cafa" x="112.035744" y="65.448" style="fill: #3e5751; fill-opacity: 0.7"/>
    </g>
    <g clip-path="url(#pddef149c40)">
     <use xlink:href="#C3_0_e55224cafa" x="110.078845" y="65.448" style="fill: #3e5751; fill-opacity: 0.7"/>
    </g>
    <g clip-path="url(#pddef149c40)">
     <use xlink:href="#C3_0_e55224cafa" x="113.794369" y="59.484118" style="fill: #3e5751; fill-opacity: 0.7"/>
    </g>
    <g clip-path="url(#pddef149c40)">
     <use xlink:href="#C3_0_e55224cafa" x="115.17921" y="41.592473" style="fill: #3e5751; fill-opacity: 0.7"/>
    </g>
    <g clip-path="url(#pddef149c40)">
     <use xlink:href="#C3_0_e55224cafa" x="114.33519" y="47.556355" style="fill: #3e5751; fill-opacity: 0.7"/>
    </g>
    <g clip-path="url(#pddef149c40)">
     <use xlink:href="#C3_0_e55224cafa" x="113.747234" y="95.267408" style="fill: #3e5751; fill-opacity: 0.7"/>
    </g>
    <g clip-path="url(#pddef149c40)">
     <use xlink:href="#C3_0_e55224cafa" x="112.836551" y="53.520237" style="fill: #3e5751; fill-opacity: 0.7"/>
    </g>
    <g clip-path="url(#pddef149c40)">
     <use xlink:href="#C3_0_e55224cafa" x="114.708337" y="47.556355" style="fill: #3e5751; fill-opacity: 0.7"/>
    </g>
    <g clip-path="url(#pddef149c40)">
     <use xlink:href="#C3_0_e55224cafa" x="112.853809" y="41.592473" style="fill: #3e5751; fill-opacity: 0.7"/>
    </g>
    <g clip-path="url(#pddef149c40)">
     <use xlink:href="#C3_0_e55224cafa" x="111.869699" y="41.592473" style="fill: #3e5751; fill-opacity: 0.7"/>
    </g>
    <g clip-path="url(#pddef149c40)">
     <use xlink:href="#C3_0_e55224cafa" x="113.514913" y="65.448" style="fill: #3e5751; fill-opacity: 0.7"/>
    </g>
    <g clip-path="url(#pddef149c40)">
     <use xlink:href="#C3_0_e55224cafa" x="112.630991" y="59.484118" style="fill: #3e5751; fill-opacity: 0.7"/>
    </g>
    <g clip-path="url(#pddef149c40)">
     <use xlink:href="#C3_0_e55224cafa" x="113.502947" y="53.520237" style="fill: #3e5751; fill-opacity: 0.7"/>
    </g>
    <g clip-path="url(#pddef149c40)">
     <use xlink:href="#C3_0_e55224cafa" x="113.774655" y="83.339645" style="fill: #3e5751; fill-opacity: 0.7"/>
    </g>
    <g clip-path="url(#pddef149c40)">
     <use xlink:href="#C3_0_e55224cafa" x="111.551068" y="65.448" style="fill: #3e5751; fill-opacity: 0.7"/>
    </g>
    <g clip-path="url(#pddef149c40)">
     <use xlink:href="#C3_0_e55224cafa" x="114.565645" y="83.339645" style="fill: #3e5751; fill-opacity: 0.7"/>
    </g>
    <g clip-path="url(#pddef149c40)">
     <use xlink:href="#C3_0_e55224cafa" x="113.41251" y="53.520237" style="fill: #3e5751; fill-opacity: 0.7"/>
    </g>
    <g clip-path="url(#pddef149c40)">
     <use xlink:href="#C3_0_e55224cafa" x="110.66456" y="89.303527" style="fill: #3e5751; fill-opacity: 0.7"/>
    </g>
    <g clip-path="url(#pddef149c40)">
     <use xlink:href="#C3_0_e55224cafa" x="114.322626" y="47.556355" style="fill: #3e5751; fill-opacity: 0.7"/>
    </g>
    <g clip-path="url(#pddef149c40)">
     <use xlink:href="#C3_0_e55224cafa" x="112.07732" y="41.592473" style="fill: #3e5751; fill-opacity: 0.7"/>
    </g>
    <g clip-path="url(#pddef149c40)">
     <use xlink:href="#C3_0_e55224cafa" x="113.595099" y="77.375763" style="fill: #3e5751; fill-opacity: 0.7"/>
    </g>
    <g clip-path="url(#pddef149c40)">
     <use xlink:href="#C3_0_e55224cafa" x="115.136257" y="59.484118" style="fill: #3e5751; fill-opacity: 0.7"/>
    </g>
    <g clip-path="url(#pddef149c40)">
     <use xlink:href="#C3_0_e55224cafa" x="112.879085" y="77.375763" style="fill: #3e5751; fill-opacity: 0.7"/>
    </g>
    <g clip-path="url(#pddef149c40)">
     <use xlink:href="#C3_0_e55224cafa" x="113.781933" y="71.411882" style="fill: #3e5751; fill-opacity: 0.7"/>
    </g>
    <g clip-path="url(#pddef149c40)">
     <use xlink:href="#C3_0_e55224cafa" x="110.845922" y="92.285468" style="fill: #3e5751; fill-opacity: 0.7"/>
    </g>
    <g clip-path="url(#pddef149c40)">
     <use xlink:href="#C3_0_e55224cafa" x="111.469756" y="59.484118" style="fill: #3e5751; fill-opacity: 0.7"/>
    </g>
    <g clip-path="url(#pddef149c40)">
     <use xlink:href="#C3_0_e55224cafa" x="113.131319" y="44.574414" style="fill: #3e5751; fill-opacity: 0.7"/>
    </g>
    <g clip-path="url(#pddef149c40)">
     <use xlink:href="#C3_0_e55224cafa" x="113.382394" y="59.484118" style="fill: #3e5751; fill-opacity: 0.7"/>
    </g>
    <g clip-path="url(#pddef149c40)">
     <use xlink:href="#C3_0_e55224cafa" x="112.029049" y="71.411882" style="fill: #3e5751; fill-opacity: 0.7"/>
    </g>
    <g clip-path="url(#pddef149c40)">
     <use xlink:href="#C3_0_e55224cafa" x="110.72407" y="65.448" style="fill: #3e5751; fill-opacity: 0.7"/>
    </g>
    <g clip-path="url(#pddef149c40)">
     <use xlink:href="#C3_0_e55224cafa" x="115.491315" y="89.303527" style="fill: #3e5751; fill-opacity: 0.7"/>
    </g>
    <g clip-path="url(#pddef149c40)">
     <use xlink:href="#C3_0_e55224cafa" x="115.482411" y="77.375763" style="fill: #3e5751; fill-opacity: 0.7"/>
    </g>
    <g clip-path="url(#pddef149c40)">
     <use xlink:href="#C3_0_e55224cafa" x="111.121938" y="50.538296" style="fill: #3e5751; fill-opacity: 0.7"/>
    </g>
    <g clip-path="url(#pddef149c40)">
     <use xlink:href="#C3_0_e55224cafa" x="114.750082" y="71.411882" style="fill: #3e5751; fill-opacity: 0.7"/>
    </g>
    <g clip-path="url(#pddef149c40)">
     <use xlink:href="#C3_0_e55224cafa" x="111.547442" y="71.411882" style="fill: #3e5751; fill-opacity: 0.7"/>
    </g>
    <g clip-path="url(#pddef149c40)">
     <use xlink:href="#C3_0_e55224cafa" x="111.227746" y="65.448" style="fill: #3e5751; fill-opacity: 0.7"/>
    </g>
    <g clip-path="url(#pddef149c40)">
     <use xlink:href="#C3_0_e55224cafa" x="114.749001" y="35.628592" style="fill: #3e5751; fill-opacity: 0.7"/>
    </g>
    <g clip-path="url(#pddef149c40)">
     <use xlink:href="#C3_0_e55224cafa" x="112.343823" y="65.448" style="fill: #3e5751; fill-opacity: 0.7"/>
    </g>
    <g clip-path="url(#pddef149c40)">
     <use xlink:href="#C3_0_e55224cafa" x="113.175649" y="62.466059" style="fill: #3e5751; fill-opacity: 0.7"/>
    </g>
    <g clip-path="url(#pddef149c40)">
     <use xlink:href="#C3_0_e55224cafa" x="110.959305" y="56.502177" style="fill: #3e5751; fill-opacity: 0.7"/>
    </g>
   </g>
   <g id="line2d_6">
    <path d="M 33.2055 65.941758 
L 36.2745 65.941758 
M 34.74 65.941758 
L 34.74 44.735229 
M 33.2055 44.735229 
L 36.2745 44.735229 
" clip-path="url(#pddef149c40)" style="fill: none; stroke: #333333; stroke-width: 2.5; stroke-linecap: square"/>
   </g>
   <g id="line2d_7">
    <path d="M 89.0055 66.122465 
L 92.0745 66.122465 
M 90.54 66.122465 
L 90.54 45.291522 
M 89.0055 45.291522 
L 92.0745 45.291522 
" clip-path="url(#pddef149c40)" style="fill: none; stroke: #333333; stroke-width: 2.5; stroke-linecap: square"/>
   </g>
   <g id="line2d_8">
    <path d="M 55.5255 74.010714 
L 58.5945 74.010714 
M 57.06 74.010714 
L 57.06 41.350102 
M 55.5255 41.350102 
L 58.5945 41.350102 
" clip-path="url(#pddef149c40)" style="fill: none; stroke: #333333; stroke-width: 2.5; stroke-linecap: square"/>
   </g>
   <g id="line2d_9">
    <path d="M 111.3255 79.067634 
L 114.3945 79.067634 
M 112.86 79.067634 
L 112.86 47.719914 
M 111.3255 47.719914 
L 114.3945 47.719914 
" clip-path="url(#pddef149c40)" style="fill: none; stroke: #333333; stroke-width: 2.5; stroke-linecap: square"/>
   </g>
   <g id="patch_9">
    <path d="M 18 115.344 
L 18 15.552 
" style="fill: none; stroke: #000000; stroke-width: 1.5; stroke-linejoin: miter; stroke-linecap: square"/>
   </g>
   <g id="patch_10">
    <path d="M 18 115.344 
L 129.6 115.344 
" style="fill: none; stroke: #000000; stroke-width: 1.5; stroke-linejoin: miter; stroke-linecap: square"/>
   </g>
   <g id="PathCollection_5">
    <defs>
     <path id="mcb2d684e07" d="M 0 3 
C 0.795609 3 1.55874 2.683901 2.12132 2.12132 
C 2.683901 1.55874 3 0.795609 3 0 
C 3 -0.795609 2.683901 -1.55874 2.12132 -2.12132 
C 1.55874 -2.683901 0.795609 -3 0 -3 
C -0.795609 -3 -1.55874 -2.683901 -2.12132 -2.12132 
C -2.683901 -1.55874 -3 -0.795609 -3 0 
C -3 0.795609 -2.683901 1.55874 -2.12132 2.12132 
C -1.55874 2.683901 -0.795609 3 0 3 
z
"/>
    </defs>
    <g clip-path="url(#pddef149c40)">
     <use xlink:href="#mcb2d684e07" x="34.74" y="55.338493" style="fill: #333333"/>
    </g>
   </g>
   <g id="PathCollection_6">
    <g clip-path="url(#pddef149c40)">
     <use xlink:href="#mcb2d684e07" x="57.06" y="57.680408" style="fill: #333333"/>
    </g>
   </g>
   <g id="PathCollection_7">
    <g clip-path="url(#pddef149c40)">
     <use xlink:href="#mcb2d684e07" x="90.54" y="55.706993" style="fill: #333333"/>
    </g>
   </g>
   <g id="PathCollection_8">
    <g clip-path="url(#pddef149c40)">
     <use xlink:href="#mcb2d684e07" x="112.86" y="63.393774" style="fill: #333333"/>
    </g>
   </g>
   <g id="line2d_10"/>
   <g id="line2d_11"/>
  </g>
 </g>
 <defs>
  <clipPath id="pddef149c40">
   <rect x="18" y="15.552" width="111.6" height="99.792"/>
  </clipPath>
 </defs>
</svg>
