<?xml version="1.0" encoding="utf-8" standalone="no"?>
<!DOCTYPE svg PUBLIC "-//W3C//DTD SVG 1.1//EN"
  "http://www.w3.org/Graphics/SVG/1.1/DTD/svg11.dtd">
<svg xmlns:xlink="http://www.w3.org/1999/xlink" width="158.4pt" height="144pt" viewBox="0 0 158.4 144" xmlns="http://www.w3.org/2000/svg" version="1.1">
 <metadata>
  <rdf:RDF xmlns:dc="http://purl.org/dc/elements/1.1/" xmlns:cc="http://creativecommons.org/ns#" xmlns:rdf="http://www.w3.org/1999/02/22-rdf-syntax-ns#">
   <cc:Work>
    <dc:type rdf:resource="http://purl.org/dc/dcmitype/StillImage"/>
    <dc:date>2024-09-14T12:54:11.227928</dc:date>
    <dc:format>image/svg+xml</dc:format>
    <dc:creator>
     <cc:Agent>
      <dc:title>Matplotlib v3.7.1, https://matplotlib.org/</dc:title>
     </cc:Agent>
    </dc:creator>
   </cc:Work>
  </rdf:RDF>
 </metadata>
 <defs>
  <style type="text/css">*{stroke-linejoin: round; stroke-linecap: butt}</style>
 </defs>
 <g id="figure_1">
  <g id="patch_1">
   <path d="M 0 144 
L 158.4 144 
L 158.4 0 
L 0 0 
L 0 144 
z
" style="fill: none"/>
  </g>
  <g id="axes_1">
   <g id="patch_2">
    <path d="M 19.8 128.16 
L 142.56 128.16 
L 142.56 17.28 
L 19.8 17.28 
L 19.8 128.16 
z
" style="fill: none"/>
   </g>
   <g id="PolyCollection_1">
    <path d="M 38.418937 116.656699 
L 38.009063 116.656699 
L 37.947542 115.730029 
L 37.872194 114.803359 
L 37.781344 113.876689 
L 37.673499 112.950019 
L 37.547455 112.023349 
L 37.402395 111.096679 
L 37.237979 110.170009 
L 37.0544 109.243339 
L 36.852408 108.316669 
L 36.633283 107.389999 
L 36.398758 106.463329 
L 36.15089 105.536659 
L 35.891885 104.609989 
L 35.623892 103.683319 
L 35.348778 102.756649 
L 35.067916 101.829979 
L 34.782002 100.903309 
L 34.490929 99.976639 
L 34.193742 99.049969 
L 33.888681 98.123299 
L 33.573325 97.196629 
L 33.244826 96.269959 
L 32.900223 95.343289 
L 32.536807 94.416619 
L 32.152504 93.489949 
L 31.746244 92.56328 
L 31.318266 91.63661 
L 30.870344 90.70994 
L 30.405881 89.78327 
L 29.929886 88.8566 
L 29.4488 87.92993 
L 28.970212 87.00326 
L 28.502459 86.07659 
L 28.054177 85.14992 
L 27.633811 84.22325 
L 27.249153 83.29658 
L 26.906942 82.36991 
L 26.61255 81.44324 
L 26.369803 80.51657 
L 26.180919 79.5899 
L 26.046593 78.66323 
L 25.966185 77.73656 
L 25.938 76.80989 
L 25.959625 75.88322 
L 26.028272 74.95655 
L 26.141094 74.02988 
L 26.295438 73.10321 
L 26.489007 72.17654 
L 26.719917 71.24987 
L 26.986646 70.3232 
L 27.287888 69.39653 
L 27.622332 68.46986 
L 27.988407 67.54319 
L 28.384018 66.61652 
L 28.806307 65.68985 
L 29.251492 64.76318 
L 29.714776 63.83651 
L 30.190368 62.90984 
L 30.671596 61.98317 
L 31.151127 61.0565 
L 31.621254 60.12983 
L 32.074247 59.20316 
L 32.502727 58.27649 
L 32.900044 57.34982 
L 33.260627 56.42315 
L 33.580286 55.49648 
L 33.856444 54.56981 
L 34.088284 53.64314 
L 34.276802 52.71647 
L 34.424763 51.7898 
L 34.536559 50.863131 
L 34.617977 49.936461 
L 34.675886 49.009791 
L 34.717861 48.083121 
L 34.75177 47.156451 
L 34.785338 46.229781 
L 34.825731 45.303111 
L 34.87917 44.376441 
L 34.950613 43.449771 
L 35.04353 42.523101 
L 35.159766 41.596431 
L 35.299529 40.669761 
L 35.461476 39.743091 
L 35.642901 38.816421 
L 35.839999 37.889751 
L 36.04819 36.963081 
L 36.262463 36.036411 
L 36.477726 35.109741 
L 36.689115 34.183071 
L 36.892269 33.256401 
L 37.083523 32.329731 
L 37.26004 31.403061 
L 37.419864 30.476391 
L 37.561906 29.549721 
L 37.685874 28.623051 
L 37.792165 27.696381 
L 37.881727 26.769711 
L 37.955912 25.843041 
L 38.016331 24.916371 
L 38.411669 24.916371 
L 38.411669 24.916371 
L 38.472088 25.843041 
L 38.546273 26.769711 
L 38.635835 27.696381 
L 38.742126 28.623051 
L 38.866094 29.549721 
L 39.008136 30.476391 
L 39.16796 31.403061 
L 39.344477 32.329731 
L 39.535731 33.256401 
L 39.738885 34.183071 
L 39.950274 35.109741 
L 40.165537 36.036411 
L 40.37981 36.963081 
L 40.588001 37.889751 
L 40.785099 38.816421 
L 40.966524 39.743091 
L 41.128471 40.669761 
L 41.268234 41.596431 
L 41.38447 42.523101 
L 41.477387 43.449771 
L 41.54883 44.376441 
L 41.602269 45.303111 
L 41.642662 46.229781 
L 41.67623 47.156451 
L 41.710139 48.083121 
L 41.752114 49.009791 
L 41.810023 49.936461 
L 41.891441 50.863131 
L 42.003237 51.7898 
L 42.151198 52.71647 
L 42.339716 53.64314 
L 42.571556 54.56981 
L 42.847714 55.49648 
L 43.167373 56.42315 
L 43.527956 57.34982 
L 43.925273 58.27649 
L 44.353753 59.20316 
L 44.806746 60.12983 
L 45.276873 61.0565 
L 45.756404 61.98317 
L 46.237632 62.90984 
L 46.713224 63.83651 
L 47.176508 64.76318 
L 47.621693 65.68985 
L 48.043982 66.61652 
L 48.439593 67.54319 
L 48.805668 68.46986 
L 49.140112 69.39653 
L 49.441354 70.3232 
L 49.708083 71.24987 
L 49.938993 72.17654 
L 50.132562 73.10321 
L 50.286906 74.02988 
L 50.399728 74.95655 
L 50.468375 75.88322 
L 50.49 76.80989 
L 50.461815 77.73656 
L 50.381407 78.66323 
L 50.247081 79.5899 
L 50.058197 80.51657 
L 49.81545 81.44324 
L 49.521058 82.36991 
L 49.178847 83.29658 
L 48.794189 84.22325 
L 48.373823 85.14992 
L 47.925541 86.07659 
L 47.457788 87.00326 
L 46.9792 87.92993 
L 46.498114 88.8566 
L 46.022119 89.78327 
L 45.557656 90.70994 
L 45.109734 91.63661 
L 44.681756 92.56328 
L 44.275496 93.489949 
L 43.891193 94.416619 
L 43.527777 95.343289 
L 43.183174 96.269959 
L 42.854675 97.196629 
L 42.539319 98.123299 
L 42.234258 99.049969 
L 41.937071 99.976639 
L 41.645998 100.903309 
L 41.360084 101.829979 
L 41.079222 102.756649 
L 40.804108 103.683319 
L 40.536115 104.609989 
L 40.27711 105.536659 
L 40.029242 106.463329 
L 39.794717 107.389999 
L 39.575592 108.316669 
L 39.3736 109.243339 
L 39.190021 110.170009 
L 39.025605 111.096679 
L 38.880545 112.023349 
L 38.754501 112.950019 
L 38.646656 113.876689 
L 38.555806 114.803359 
L 38.480458 115.730029 
L 38.418937 116.656699 
z
" clip-path="url(#p68b0aba0db)" style="fill: #b69595; fill-opacity: 0.35"/>
   </g>
   <g id="PolyCollection_2">
    <path d="M 63.017775 119.443096 
L 62.514225 119.443096 
L 62.433226 118.49468 
L 62.331259 117.546263 
L 62.204599 116.597847 
L 62.049363 115.649431 
L 61.861665 114.701014 
L 61.637793 113.752598 
L 61.374426 112.804181 
L 61.068876 111.855765 
L 60.719323 110.907349 
L 60.325057 109.958932 
L 59.886672 109.010516 
L 59.406215 108.0621 
L 58.887259 107.113683 
L 58.334877 106.165267 
L 57.755527 105.216851 
L 57.156828 104.268434 
L 56.547245 103.320018 
L 55.935708 102.371601 
L 55.331183 101.423185 
L 54.742249 100.474769 
L 54.176707 99.526352 
L 53.641263 98.577936 
L 53.141326 97.62952 
L 52.680925 96.681103 
L 52.262757 95.732687 
L 51.888368 94.78427 
L 51.558407 93.835854 
L 51.272941 92.887438 
L 51.031774 91.939021 
L 50.834711 90.990605 
L 50.681734 90.042189 
L 50.573058 89.093772 
L 50.509045 88.145356 
L 50.49 87.196939 
L 50.515853 86.248523 
L 50.585799 85.300107 
L 50.697931 84.35169 
L 50.848929 83.403274 
L 51.033874 82.454858 
L 51.246204 81.506441 
L 51.477861 80.558025 
L 51.719609 79.609609 
L 51.961513 78.661192 
L 52.193538 77.712776 
L 52.406204 76.764359 
L 52.591236 75.815943 
L 52.742152 74.867527 
L 52.854718 73.91911 
L 52.927245 72.970694 
L 52.960686 72.022278 
L 52.958546 71.073861 
L 52.926611 70.125445 
L 52.872522 69.177028 
L 52.805252 68.228612 
L 52.734522 67.280196 
L 52.670209 66.331779 
L 52.621792 65.383363 
L 52.597869 64.434947 
L 52.605776 63.48653 
L 52.651311 62.538114 
L 52.738577 61.589697 
L 52.869928 60.641281 
L 53.046011 59.692865 
L 53.265884 58.744448 
L 53.527193 57.796032 
L 53.82639 56.847616 
L 54.158972 55.899199 
L 54.519737 54.950783 
L 54.903042 54.002366 
L 55.303045 53.05395 
L 55.713946 52.105534 
L 56.130195 51.157117 
L 56.546675 50.208701 
L 56.958854 49.260285 
L 57.362889 48.311868 
L 57.755689 47.363452 
L 58.134925 46.415036 
L 58.498997 45.466619 
L 58.846961 44.518203 
L 59.178409 43.569786 
L 59.493349 42.62137 
L 59.792052 41.672954 
L 60.074926 40.724537 
L 60.342391 39.776121 
L 60.594795 38.827705 
L 60.832357 37.879288 
L 61.055148 36.930872 
L 61.263103 35.982455 
L 61.456067 35.034039 
L 61.633849 34.085623 
L 61.796292 33.137206 
L 61.943337 32.18879 
L 62.075077 31.240374 
L 62.191796 30.291957 
L 62.293987 29.343541 
L 62.382352 28.395124 
L 62.457777 27.446708 
L 62.521305 26.498292 
L 62.574087 25.549875 
L 62.957913 25.549875 
L 62.957913 25.549875 
L 63.010695 26.498292 
L 63.074223 27.446708 
L 63.149648 28.395124 
L 63.238013 29.343541 
L 63.340204 30.291957 
L 63.456923 31.240374 
L 63.588663 32.18879 
L 63.735708 33.137206 
L 63.898151 34.085623 
L 64.075933 35.034039 
L 64.268897 35.982455 
L 64.476852 36.930872 
L 64.699643 37.879288 
L 64.937205 38.827705 
L 65.189609 39.776121 
L 65.457074 40.724537 
L 65.739948 41.672954 
L 66.038651 42.62137 
L 66.353591 43.569786 
L 66.685039 44.518203 
L 67.033003 45.466619 
L 67.397075 46.415036 
L 67.776311 47.363452 
L 68.169111 48.311868 
L 68.573146 49.260285 
L 68.985325 50.208701 
L 69.401805 51.157117 
L 69.818054 52.105534 
L 70.228955 53.05395 
L 70.628958 54.002366 
L 71.012263 54.950783 
L 71.373028 55.899199 
L 71.70561 56.847616 
L 72.004807 57.796032 
L 72.266116 58.744448 
L 72.485989 59.692865 
L 72.662072 60.641281 
L 72.793423 61.589697 
L 72.880689 62.538114 
L 72.926224 63.48653 
L 72.934131 64.434947 
L 72.910208 65.383363 
L 72.861791 66.331779 
L 72.797478 67.280196 
L 72.726748 68.228612 
L 72.659478 69.177028 
L 72.605389 70.125445 
L 72.573454 71.073861 
L 72.571314 72.022278 
L 72.604755 72.970694 
L 72.677282 73.91911 
L 72.789848 74.867527 
L 72.940764 75.815943 
L 73.125796 76.764359 
L 73.338462 77.712776 
L 73.570487 78.661192 
L 73.812391 79.609609 
L 74.054139 80.558025 
L 74.285796 81.506441 
L 74.498126 82.454858 
L 74.683071 83.403274 
L 74.834069 84.35169 
L 74.946201 85.300107 
L 75.016147 86.248523 
L 75.042 87.196939 
L 75.022955 88.145356 
L 74.958942 89.093772 
L 74.850266 90.042189 
L 74.697289 90.990605 
L 74.500226 91.939021 
L 74.259059 92.887438 
L 73.973593 93.835854 
L 73.643632 94.78427 
L 73.269243 95.732687 
L 72.851075 96.681103 
L 72.390674 97.62952 
L 71.890737 98.577936 
L 71.355293 99.526352 
L 70.789751 100.474769 
L 70.200817 101.423185 
L 69.596292 102.371601 
L 68.984755 103.320018 
L 68.375172 104.268434 
L 67.776473 105.216851 
L 67.197123 106.165267 
L 66.644741 107.113683 
L 66.125785 108.0621 
L 65.645328 109.010516 
L 65.206943 109.958932 
L 64.812677 110.907349 
L 64.463124 111.855765 
L 64.157574 112.804181 
L 63.894207 113.752598 
L 63.670335 114.701014 
L 63.482637 115.649431 
L 63.327401 116.597847 
L 63.200741 117.546263 
L 63.098774 118.49468 
L 63.017775 119.443096 
z
" clip-path="url(#p68b0aba0db)" style="fill: #74808c; fill-opacity: 0.35"/>
   </g>
   <g id="PolyCollection_3">
    <path d="M 99.954011 111.558292 
L 99.233989 111.558292 
L 99.121598 110.656895 
L 98.98327 109.755498 
L 98.815987 108.854101 
L 98.617226 107.952704 
L 98.385208 107.051307 
L 98.119121 106.149911 
L 97.819311 105.248514 
L 97.487389 104.347117 
L 97.12625 103.44572 
L 96.739968 102.544323 
L 96.333577 101.642926 
L 95.912737 100.741529 
L 95.483315 99.840132 
L 95.050925 98.938735 
L 94.620468 98.037339 
L 94.195743 97.135942 
L 93.779168 96.234545 
L 93.371659 95.333148 
L 92.972695 94.431751 
L 92.580563 93.530354 
L 92.192761 92.628957 
L 91.80652 91.72756 
L 91.419374 90.826163 
L 91.029715 89.924767 
L 90.637249 89.02337 
L 90.243316 88.121973 
L 89.851007 87.220576 
L 89.465082 86.319179 
L 89.091685 85.417782 
L 88.73789 84.516385 
L 88.411137 83.614988 
L 88.118606 82.713591 
L 87.86661 81.812195 
L 87.660052 80.910798 
L 87.502007 80.009401 
L 87.393463 79.108004 
L 87.333227 78.206607 
L 87.318 77.30521 
L 87.342604 76.403813 
L 87.400335 75.502416 
L 87.483404 74.601019 
L 87.583428 73.699623 
L 87.691944 72.798226 
L 87.800916 71.896829 
L 87.903199 70.995432 
L 87.992962 70.094035 
L 88.066031 69.192638 
L 88.120169 68.291241 
L 88.155247 67.389844 
L 88.17333 66.488447 
L 88.178636 65.587051 
L 88.177378 64.685654 
L 88.177477 63.784257 
L 88.188151 62.88286 
L 88.219387 61.981463 
L 88.281331 61.080066 
L 88.383628 60.178669 
L 88.534754 59.277272 
L 88.741405 58.375876 
L 89.007982 57.474479 
L 89.336228 56.573082 
L 89.725046 55.671685 
L 90.170512 54.770288 
L 90.666091 53.868891 
L 91.203029 52.967494 
L 91.770878 52.066097 
L 92.358121 51.1647 
L 92.952833 50.263304 
L 93.543325 49.361907 
L 94.118736 48.46051 
L 94.669521 47.559113 
L 95.187817 46.657716 
L 95.667685 45.756319 
L 96.105203 44.854922 
L 96.498442 43.953525 
L 96.84733 43.052128 
L 97.153425 42.150732 
L 97.419615 41.249335 
L 97.649791 40.347938 
L 97.848484 39.446541 
L 98.020519 38.545144 
L 98.170694 37.643747 
L 98.303504 36.74235 
L 98.42292 35.840953 
L 98.532244 34.939556 
L 98.634028 34.03816 
L 98.730066 33.136763 
L 98.821447 32.235366 
L 98.90865 31.333969 
L 98.991681 30.432572 
L 99.070218 29.531175 
L 99.143755 28.629778 
L 99.211741 27.728381 
L 99.273683 26.826984 
L 99.329228 25.925588 
L 99.378206 25.024191 
L 99.42065 24.122794 
L 99.456787 23.221397 
L 99.487007 22.32 
L 99.700993 22.32 
L 99.700993 22.32 
L 99.731213 23.221397 
L 99.76735 24.122794 
L 99.809794 25.024191 
L 99.858772 25.925588 
L 99.914317 26.826984 
L 99.976259 27.728381 
L 100.044245 28.629778 
L 100.117782 29.531175 
L 100.196319 30.432572 
L 100.27935 31.333969 
L 100.366553 32.235366 
L 100.457934 33.136763 
L 100.553972 34.03816 
L 100.655756 34.939556 
L 100.76508 35.840953 
L 100.884496 36.74235 
L 101.017306 37.643747 
L 101.167481 38.545144 
L 101.339516 39.446541 
L 101.538209 40.347938 
L 101.768385 41.249335 
L 102.034575 42.150732 
L 102.34067 43.052128 
L 102.689558 43.953525 
L 103.082797 44.854922 
L 103.520315 45.756319 
L 104.000183 46.657716 
L 104.518479 47.559113 
L 105.069264 48.46051 
L 105.644675 49.361907 
L 106.235167 50.263304 
L 106.829879 51.1647 
L 107.417122 52.066097 
L 107.984971 52.967494 
L 108.521909 53.868891 
L 109.017488 54.770288 
L 109.462954 55.671685 
L 109.851772 56.573082 
L 110.180018 57.474479 
L 110.446595 58.375876 
L 110.653246 59.277272 
L 110.804372 60.178669 
L 110.906669 61.080066 
L 110.968613 61.981463 
L 110.999849 62.88286 
L 111.010523 63.784257 
L 111.010622 64.685654 
L 111.009364 65.587051 
L 111.01467 66.488447 
L 111.032753 67.389844 
L 111.067831 68.291241 
L 111.121969 69.192638 
L 111.195038 70.094035 
L 111.284801 70.995432 
L 111.387084 71.896829 
L 111.496056 72.798226 
L 111.604572 73.699623 
L 111.704596 74.601019 
L 111.787665 75.502416 
L 111.845396 76.403813 
L 111.87 77.30521 
L 111.854773 78.206607 
L 111.794537 79.108004 
L 111.685993 80.009401 
L 111.527948 80.910798 
L 111.32139 81.812195 
L 111.069394 82.713591 
L 110.776863 83.614988 
L 110.45011 84.516385 
L 110.096315 85.417782 
L 109.722918 86.319179 
L 109.336993 87.220576 
L 108.944684 88.121973 
L 108.550751 89.02337 
L 108.158285 89.924767 
L 107.768626 90.826163 
L 107.38148 91.72756 
L 106.995239 92.628957 
L 106.607437 93.530354 
L 106.215305 94.431751 
L 105.816341 95.333148 
L 105.408832 96.234545 
L 104.992257 97.135942 
L 104.567532 98.037339 
L 104.137075 98.938735 
L 103.704685 99.840132 
L 103.275263 100.741529 
L 102.854423 101.642926 
L 102.448032 102.544323 
L 102.06175 103.44572 
L 101.700611 104.347117 
L 101.368689 105.248514 
L 101.068879 106.149911 
L 100.802792 107.051307 
L 100.570774 107.952704 
L 100.372013 108.854101 
L 100.20473 109.755498 
L 100.066402 110.656895 
L 99.954011 111.558292 
z
" clip-path="url(#p68b0aba0db)" style="fill: #b69595; fill-opacity: 0.35"/>
   </g>
   <g id="PolyCollection_4">
    <path d="M 124.396244 123.12 
L 123.895756 123.12 
L 123.817947 122.114575 
L 123.720768 121.10915 
L 123.60091 120.103725 
L 123.454907 119.0983 
L 123.279243 118.092875 
L 123.07047 117.08745 
L 122.825358 116.082025 
L 122.541051 115.0766 
L 122.215232 114.071175 
L 121.846294 113.06575 
L 121.433498 112.060325 
L 120.977119 111.0549 
L 120.478559 110.049475 
L 119.940437 109.04405 
L 119.366637 108.038625 
L 118.762315 107.0332 
L 118.133859 106.027775 
L 117.488809 105.022349 
L 116.835726 104.016924 
L 116.184021 103.011499 
L 115.543745 102.006074 
L 114.925337 101.000649 
L 114.339348 99.995224 
L 113.796133 98.989799 
L 113.305522 97.984374 
L 112.876496 96.978949 
L 112.51685 95.973524 
L 112.232883 94.968099 
L 112.029112 93.962674 
L 111.908044 92.957249 
L 111.87 91.951824 
L 111.913024 90.946399 
L 112.032885 89.940974 
L 112.223174 88.935549 
L 112.47551 87.930124 
L 112.779838 86.924699 
L 113.124828 85.919274 
L 113.498343 84.913849 
L 113.887956 83.908424 
L 114.281497 82.902999 
L 114.667587 81.897574 
L 115.036136 80.892149 
L 115.378767 79.886724 
L 115.689141 78.881299 
L 115.963163 77.875874 
L 116.199054 76.870449 
L 116.397285 75.865024 
L 116.560376 74.859599 
L 116.692586 73.854174 
L 116.799502 72.848749 
L 116.88757 71.843324 
L 116.963599 70.837899 
L 117.034273 69.832473 
L 117.105701 68.827048 
L 117.183046 67.821623 
L 117.270247 66.816198 
L 117.369851 65.810773 
L 117.482966 64.805348 
L 117.609327 63.799923 
L 117.747465 62.794498 
L 117.894967 61.789073 
L 118.048786 60.783648 
L 118.205595 59.778223 
L 118.362135 58.772798 
L 118.515538 57.767373 
L 118.663607 56.761948 
L 118.805012 55.756523 
L 118.939409 54.751098 
L 119.067462 53.745673 
L 119.190776 52.740248 
L 119.311749 51.734823 
L 119.433349 50.729398 
L 119.558854 49.723973 
L 119.691564 48.718548 
L 119.834514 47.713123 
L 119.990216 46.707698 
L 120.160447 45.702273 
L 120.346092 44.696848 
L 120.547074 43.691423 
L 120.762345 42.685998 
L 120.989953 41.680573 
L 121.22718 40.675148 
L 121.470711 39.669723 
L 121.716856 38.664298 
L 121.961761 37.658873 
L 122.201638 36.653448 
L 122.432954 35.648023 
L 122.652599 34.642597 
L 122.858007 33.637172 
L 123.047233 32.631747 
L 123.218983 31.626322 
L 123.372604 30.620897 
L 123.508033 29.615472 
L 123.625728 28.610047 
L 123.726572 27.604622 
L 123.811772 26.599197 
L 123.882761 25.593772 
L 123.941097 24.588347 
L 123.988382 23.582922 
L 124.303618 23.582922 
L 124.303618 23.582922 
L 124.350903 24.588347 
L 124.409239 25.593772 
L 124.480228 26.599197 
L 124.565428 27.604622 
L 124.666272 28.610047 
L 124.783967 29.615472 
L 124.919396 30.620897 
L 125.073017 31.626322 
L 125.244767 32.631747 
L 125.433993 33.637172 
L 125.639401 34.642597 
L 125.859046 35.648023 
L 126.090362 36.653448 
L 126.330239 37.658873 
L 126.575144 38.664298 
L 126.821289 39.669723 
L 127.06482 40.675148 
L 127.302047 41.680573 
L 127.529655 42.685998 
L 127.744926 43.691423 
L 127.945908 44.696848 
L 128.131553 45.702273 
L 128.301784 46.707698 
L 128.457486 47.713123 
L 128.600436 48.718548 
L 128.733146 49.723973 
L 128.858651 50.729398 
L 128.980251 51.734823 
L 129.101224 52.740248 
L 129.224538 53.745673 
L 129.352591 54.751098 
L 129.486988 55.756523 
L 129.628393 56.761948 
L 129.776462 57.767373 
L 129.929865 58.772798 
L 130.086405 59.778223 
L 130.243214 60.783648 
L 130.397033 61.789073 
L 130.544535 62.794498 
L 130.682673 63.799923 
L 130.809034 64.805348 
L 130.922149 65.810773 
L 131.021753 66.816198 
L 131.108954 67.821623 
L 131.186299 68.827048 
L 131.257727 69.832473 
L 131.328401 70.837899 
L 131.40443 71.843324 
L 131.492498 72.848749 
L 131.599414 73.854174 
L 131.731624 74.859599 
L 131.894715 75.865024 
L 132.092946 76.870449 
L 132.328837 77.875874 
L 132.602859 78.881299 
L 132.913233 79.886724 
L 133.255864 80.892149 
L 133.624413 81.897574 
L 134.010503 82.902999 
L 134.404044 83.908424 
L 134.793657 84.913849 
L 135.167172 85.919274 
L 135.512162 86.924699 
L 135.81649 87.930124 
L 136.068826 88.935549 
L 136.259115 89.940974 
L 136.378976 90.946399 
L 136.422 91.951824 
L 136.383956 92.957249 
L 136.262888 93.962674 
L 136.059117 94.968099 
L 135.77515 95.973524 
L 135.415504 96.978949 
L 134.986478 97.984374 
L 134.495867 98.989799 
L 133.952652 99.995224 
L 133.366663 101.000649 
L 132.748255 102.006074 
L 132.107979 103.011499 
L 131.456274 104.016924 
L 130.803191 105.022349 
L 130.158141 106.027775 
L 129.529685 107.0332 
L 128.925363 108.038625 
L 128.351563 109.04405 
L 127.813441 110.049475 
L 127.314881 111.0549 
L 126.858502 112.060325 
L 126.445706 113.06575 
L 126.076768 114.071175 
L 125.750949 115.0766 
L 125.466642 116.082025 
L 125.22153 117.08745 
L 125.012757 118.092875 
L 124.837093 119.0983 
L 124.69109 120.103725 
L 124.571232 121.10915 
L 124.474053 122.114575 
L 124.396244 123.12 
z
" clip-path="url(#p68b0aba0db)" style="fill: #74808c; fill-opacity: 0.35"/>
   </g>
   <g id="patch_3">
    <path d="M 25.938 113.535303 
L 50.49 113.535303 
L 50.49 73.592608 
L 25.938 73.592608 
L 25.938 113.535303 
z
" clip-path="url(#p68b0aba0db)" style="fill: none"/>
   </g>
   <g id="patch_4">
    <path d="M 87.318 113.535303 
L 111.87 113.535303 
L 111.87 71.996012 
L 87.318 71.996012 
L 87.318 113.535303 
z
" clip-path="url(#p68b0aba0db)" style="fill: none"/>
   </g>
   <g id="patch_5">
    <path d="M 50.49 113.535303 
L 75.042 113.535303 
L 75.042 76.221735 
L 50.49 76.221735 
L 50.49 113.535303 
z
" clip-path="url(#p68b0aba0db)" style="fill: none"/>
   </g>
   <g id="patch_6">
    <path d="M 111.87 113.535303 
L 136.422 113.535303 
L 136.422 79.545283 
L 111.87 79.545283 
L 111.87 113.535303 
z
" clip-path="url(#p68b0aba0db)" style="fill: none"/>
   </g>
   <g id="patch_7">
    <path d="M 50.49 113.535303 
L 50.49 113.535303 
L 50.49 113.535303 
L 50.49 113.535303 
z
" clip-path="url(#p68b0aba0db)" style="fill: #3274a1"/>
   </g>
   <g id="patch_8">
    <path d="M 50.49 113.535303 
L 50.49 113.535303 
L 50.49 113.535303 
L 50.49 113.535303 
z
" clip-path="url(#p68b0aba0db)" style="fill: #e1812c"/>
   </g>
   <g id="matplotlib.axis_1">
    <g id="xtick_1">
     <g id="line2d_1">
      <defs>
       <path id="m8bad5f8cf1" d="M 0 0 
L 0 3.5 
" style="stroke: #000000; stroke-width: 1.5"/>
      </defs>
      <g>
       <use xlink:href="#m8bad5f8cf1" x="50.49" y="128.16" style="stroke: #000000; stroke-width: 1.5"/>
      </g>
     </g>
     <g id="text_1">
      <!-- HC -->
      <g transform="translate(43.268125 142.317813) scale(0.1 -0.1)">
       <defs>
        <path id="Arial-BoldMT-48" d="M 469 0 
L 469 4581 
L 1394 4581 
L 1394 2778 
L 3206 2778 
L 3206 4581 
L 4131 4581 
L 4131 0 
L 3206 0 
L 3206 2003 
L 1394 2003 
L 1394 0 
L 469 0 
z
" transform="scale(0.015625)"/>
        <path id="Arial-BoldMT-43" d="M 3397 1684 
L 4294 1400 
Q 4088 650 3608 286 
Q 3128 -78 2391 -78 
Q 1478 -78 890 545 
Q 303 1169 303 2250 
Q 303 3394 893 4026 
Q 1484 4659 2447 4659 
Q 3288 4659 3813 4163 
Q 4125 3869 4281 3319 
L 3366 3100 
Q 3284 3456 3026 3662 
Q 2769 3869 2400 3869 
Q 1891 3869 1573 3503 
Q 1256 3138 1256 2319 
Q 1256 1450 1568 1081 
Q 1881 713 2381 713 
Q 2750 713 3015 947 
Q 3281 1181 3397 1684 
z
" transform="scale(0.015625)"/>
       </defs>
       <use xlink:href="#Arial-BoldMT-48"/>
       <use xlink:href="#Arial-BoldMT-43" x="72.216797"/>
      </g>
     </g>
    </g>
    <g id="xtick_2">
     <g id="line2d_2">
      <g>
       <use xlink:href="#m8bad5f8cf1" x="111.87" y="128.16" style="stroke: #000000; stroke-width: 1.5"/>
      </g>
     </g>
     <g id="text_2">
      <!-- ND -->
      <g transform="translate(104.648125 142.317813) scale(0.1 -0.1)">
       <defs>
        <path id="Arial-BoldMT-4e" d="M 475 0 
L 475 4581 
L 1375 4581 
L 3250 1522 
L 3250 4581 
L 4109 4581 
L 4109 0 
L 3181 0 
L 1334 2988 
L 1334 0 
L 475 0 
z
" transform="scale(0.015625)"/>
        <path id="Arial-BoldMT-44" d="M 463 4581 
L 2153 4581 
Q 2725 4581 3025 4494 
Q 3428 4375 3715 4072 
Q 4003 3769 4153 3330 
Q 4303 2891 4303 2247 
Q 4303 1681 4163 1272 
Q 3991 772 3672 463 
Q 3431 228 3022 97 
Q 2716 0 2203 0 
L 463 0 
L 463 4581 
z
M 1388 3806 
L 1388 772 
L 2078 772 
Q 2466 772 2638 816 
Q 2863 872 3011 1006 
Q 3159 1141 3253 1448 
Q 3347 1756 3347 2288 
Q 3347 2819 3253 3103 
Q 3159 3388 2990 3547 
Q 2822 3706 2563 3763 
Q 2369 3806 1803 3806 
L 1388 3806 
z
" transform="scale(0.015625)"/>
       </defs>
       <use xlink:href="#Arial-BoldMT-4e"/>
       <use xlink:href="#Arial-BoldMT-44" x="72.216797"/>
      </g>
     </g>
    </g>
   </g>
   <g id="matplotlib.axis_2">
    <g id="ytick_1">
     <g id="line2d_3">
      <defs>
       <path id="mdb5a487a58" d="M 0 0 
L -3.5 0 
" style="stroke: #000000; stroke-width: 1.5"/>
      </defs>
      <g>
       <use xlink:href="#mdb5a487a58" x="19.8" y="113.535303" style="stroke: #000000; stroke-width: 1.5"/>
      </g>
     </g>
     <g id="text_3">
      <!-- 0.0 -->
      <g transform="translate(-1.1 117.114209) scale(0.1 -0.1)">
       <defs>
        <path id="Arial-BoldMT-30" d="M 1756 4600 
Q 2422 4600 2797 4125 
Q 3244 3563 3244 2259 
Q 3244 959 2794 391 
Q 2422 -78 1756 -78 
Q 1088 -78 678 436 
Q 269 950 269 2269 
Q 269 3563 719 4131 
Q 1091 4600 1756 4600 
z
M 1756 3872 
Q 1597 3872 1472 3770 
Q 1347 3669 1278 3406 
Q 1188 3066 1188 2259 
Q 1188 1453 1269 1151 
Q 1350 850 1473 750 
Q 1597 650 1756 650 
Q 1916 650 2041 751 
Q 2166 853 2234 1116 
Q 2325 1453 2325 2259 
Q 2325 3066 2244 3367 
Q 2163 3669 2039 3770 
Q 1916 3872 1756 3872 
z
" transform="scale(0.015625)"/>
        <path id="Arial-BoldMT-2e" d="M 459 0 
L 459 878 
L 1338 878 
L 1338 0 
L 459 0 
z
" transform="scale(0.015625)"/>
       </defs>
       <use xlink:href="#Arial-BoldMT-30"/>
       <use xlink:href="#Arial-BoldMT-2e" x="55.615234"/>
       <use xlink:href="#Arial-BoldMT-30" x="83.398438"/>
      </g>
     </g>
    </g>
    <g id="ytick_2">
     <g id="line2d_4">
      <g>
       <use xlink:href="#mdb5a487a58" x="19.8" y="70.786535" style="stroke: #000000; stroke-width: 1.5"/>
      </g>
     </g>
     <g id="text_4">
      <!-- 0.5 -->
      <g transform="translate(-1.1 74.365441) scale(0.1 -0.1)">
       <defs>
        <path id="Arial-BoldMT-35" d="M 284 1178 
L 1159 1269 
Q 1197 972 1381 798 
Q 1566 625 1806 625 
Q 2081 625 2272 848 
Q 2463 1072 2463 1522 
Q 2463 1944 2273 2155 
Q 2084 2366 1781 2366 
Q 1403 2366 1103 2031 
L 391 2134 
L 841 4519 
L 3163 4519 
L 3163 3697 
L 1506 3697 
L 1369 2919 
Q 1663 3066 1969 3066 
Q 2553 3066 2959 2641 
Q 3366 2216 3366 1538 
Q 3366 972 3038 528 
Q 2591 -78 1797 -78 
Q 1163 -78 763 262 
Q 363 603 284 1178 
z
" transform="scale(0.015625)"/>
       </defs>
       <use xlink:href="#Arial-BoldMT-30"/>
       <use xlink:href="#Arial-BoldMT-2e" x="55.615234"/>
       <use xlink:href="#Arial-BoldMT-35" x="83.398438"/>
      </g>
     </g>
    </g>
    <g id="ytick_3">
     <g id="line2d_5">
      <g>
       <use xlink:href="#mdb5a487a58" x="19.8" y="28.037767" style="stroke: #000000; stroke-width: 1.5"/>
      </g>
     </g>
     <g id="text_5">
      <!-- 1.0 -->
      <g transform="translate(-1.1 31.616674) scale(0.1 -0.1)">
       <defs>
        <path id="Arial-BoldMT-31" d="M 2519 0 
L 1641 0 
L 1641 3309 
Q 1159 2859 506 2644 
L 506 3441 
Q 850 3553 1253 3867 
Q 1656 4181 1806 4600 
L 2519 4600 
L 2519 0 
z
" transform="scale(0.015625)"/>
       </defs>
       <use xlink:href="#Arial-BoldMT-31"/>
       <use xlink:href="#Arial-BoldMT-2e" x="55.615234"/>
       <use xlink:href="#Arial-BoldMT-30" x="83.398438"/>
      </g>
     </g>
    </g>
    <g id="text_6">
     <!--  MB weight (w) -->
     <g transform="translate(-18.045 107.712969) rotate(-90) scale(0.1 -0.1)">
      <defs>
       <path id="Arial-BoldMT-20" transform="scale(0.015625)"/>
       <path id="Arial-BoldMT-4d" d="M 453 0 
L 453 4581 
L 1838 4581 
L 2669 1456 
L 3491 4581 
L 4878 4581 
L 4878 0 
L 4019 0 
L 4019 3606 
L 3109 0 
L 2219 0 
L 1313 3606 
L 1313 0 
L 453 0 
z
" transform="scale(0.015625)"/>
       <path id="Arial-BoldMT-42" d="M 469 4581 
L 2300 4581 
Q 2844 4581 3111 4536 
Q 3378 4491 3589 4347 
Q 3800 4203 3940 3964 
Q 4081 3725 4081 3428 
Q 4081 3106 3907 2837 
Q 3734 2569 3438 2434 
Q 3856 2313 4081 2019 
Q 4306 1725 4306 1328 
Q 4306 1016 4161 720 
Q 4016 425 3764 248 
Q 3513 72 3144 31 
Q 2913 6 2028 0 
L 469 0 
L 469 4581 
z
M 1394 3819 
L 1394 2759 
L 2000 2759 
Q 2541 2759 2672 2775 
Q 2909 2803 3045 2939 
Q 3181 3075 3181 3297 
Q 3181 3509 3064 3642 
Q 2947 3775 2716 3803 
Q 2578 3819 1925 3819 
L 1394 3819 
z
M 1394 1997 
L 1394 772 
L 2250 772 
Q 2750 772 2884 800 
Q 3091 838 3220 983 
Q 3350 1128 3350 1372 
Q 3350 1578 3250 1722 
Q 3150 1866 2961 1931 
Q 2772 1997 2141 1997 
L 1394 1997 
z
" transform="scale(0.015625)"/>
       <path id="Arial-BoldMT-77" d="M 1078 0 
L 28 3319 
L 881 3319 
L 1503 1144 
L 2075 3319 
L 2922 3319 
L 3475 1144 
L 4109 3319 
L 4975 3319 
L 3909 0 
L 3066 0 
L 2494 2134 
L 1931 0 
L 1078 0 
z
" transform="scale(0.015625)"/>
       <path id="Arial-BoldMT-65" d="M 2381 1056 
L 3256 909 
Q 3088 428 2723 176 
Q 2359 -75 1813 -75 
Q 947 -75 531 491 
Q 203 944 203 1634 
Q 203 2459 634 2926 
Q 1066 3394 1725 3394 
Q 2466 3394 2894 2905 
Q 3322 2416 3303 1406 
L 1103 1406 
Q 1113 1016 1316 798 
Q 1519 581 1822 581 
Q 2028 581 2168 693 
Q 2309 806 2381 1056 
z
M 2431 1944 
Q 2422 2325 2234 2523 
Q 2047 2722 1778 2722 
Q 1491 2722 1303 2513 
Q 1116 2303 1119 1944 
L 2431 1944 
z
" transform="scale(0.015625)"/>
       <path id="Arial-BoldMT-69" d="M 459 3769 
L 459 4581 
L 1338 4581 
L 1338 3769 
L 459 3769 
z
M 459 0 
L 459 3319 
L 1338 3319 
L 1338 0 
L 459 0 
z
" transform="scale(0.015625)"/>
       <path id="Arial-BoldMT-67" d="M 378 -219 
L 1381 -341 
Q 1406 -516 1497 -581 
Q 1622 -675 1891 -675 
Q 2234 -675 2406 -572 
Q 2522 -503 2581 -350 
Q 2622 -241 2622 53 
L 2622 538 
Q 2228 0 1628 0 
Q 959 0 569 566 
Q 263 1013 263 1678 
Q 263 2513 664 2953 
Q 1066 3394 1663 3394 
Q 2278 3394 2678 2853 
L 2678 3319 
L 3500 3319 
L 3500 341 
Q 3500 -247 3403 -537 
Q 3306 -828 3131 -993 
Q 2956 -1159 2664 -1253 
Q 2372 -1347 1925 -1347 
Q 1081 -1347 728 -1058 
Q 375 -769 375 -325 
Q 375 -281 378 -219 
z
M 1163 1728 
Q 1163 1200 1367 954 
Q 1572 709 1872 709 
Q 2194 709 2416 961 
Q 2638 1213 2638 1706 
Q 2638 2222 2425 2472 
Q 2213 2722 1888 2722 
Q 1572 2722 1367 2476 
Q 1163 2231 1163 1728 
z
" transform="scale(0.015625)"/>
       <path id="Arial-BoldMT-68" d="M 1334 4581 
L 1334 2897 
Q 1759 3394 2350 3394 
Q 2653 3394 2897 3281 
Q 3141 3169 3264 2994 
Q 3388 2819 3433 2606 
Q 3478 2394 3478 1947 
L 3478 0 
L 2600 0 
L 2600 1753 
Q 2600 2275 2550 2415 
Q 2500 2556 2373 2639 
Q 2247 2722 2056 2722 
Q 1838 2722 1666 2615 
Q 1494 2509 1414 2295 
Q 1334 2081 1334 1663 
L 1334 0 
L 456 0 
L 456 4581 
L 1334 4581 
z
" transform="scale(0.015625)"/>
       <path id="Arial-BoldMT-74" d="M 1981 3319 
L 1981 2619 
L 1381 2619 
L 1381 1281 
Q 1381 875 1398 808 
Q 1416 741 1477 697 
Q 1538 653 1625 653 
Q 1747 653 1978 738 
L 2053 56 
Q 1747 -75 1359 -75 
Q 1122 -75 931 4 
Q 741 84 652 211 
Q 563 338 528 553 
Q 500 706 500 1172 
L 500 2619 
L 97 2619 
L 97 3319 
L 500 3319 
L 500 3978 
L 1381 4491 
L 1381 3319 
L 1981 3319 
z
" transform="scale(0.015625)"/>
       <path id="Arial-BoldMT-28" d="M 1916 -1347 
L 1313 -1347 
Q 834 -625 584 153 
Q 334 931 334 1659 
Q 334 2563 644 3369 
Q 913 4069 1325 4659 
L 1925 4659 
Q 1497 3713 1336 3048 
Q 1175 2384 1175 1641 
Q 1175 1128 1270 590 
Q 1366 53 1531 -431 
Q 1641 -750 1916 -1347 
z
" transform="scale(0.015625)"/>
       <path id="Arial-BoldMT-29" d="M 216 -1347 
Q 475 -791 581 -494 
Q 688 -197 778 190 
Q 869 578 912 926 
Q 956 1275 956 1641 
Q 956 2384 797 3048 
Q 638 3713 209 4659 
L 806 4659 
Q 1278 3988 1539 3234 
Q 1800 2481 1800 1706 
Q 1800 1053 1594 306 
Q 1359 -531 822 -1347 
L 216 -1347 
z
" transform="scale(0.015625)"/>
      </defs>
      <use xlink:href="#Arial-BoldMT-20"/>
      <use xlink:href="#Arial-BoldMT-4d" x="27.783203"/>
      <use xlink:href="#Arial-BoldMT-42" x="111.083984"/>
      <use xlink:href="#Arial-BoldMT-20" x="183.300781"/>
      <use xlink:href="#Arial-BoldMT-77" x="211.083984"/>
      <use xlink:href="#Arial-BoldMT-65" x="288.867188"/>
      <use xlink:href="#Arial-BoldMT-69" x="344.482422"/>
      <use xlink:href="#Arial-BoldMT-67" x="372.265625"/>
      <use xlink:href="#Arial-BoldMT-68" x="433.349609"/>
      <use xlink:href="#Arial-BoldMT-74" x="494.433594"/>
      <use xlink:href="#Arial-BoldMT-20" x="527.734375"/>
      <use xlink:href="#Arial-BoldMT-28" x="555.517578"/>
      <use xlink:href="#Arial-BoldMT-77" x="588.818359"/>
      <use xlink:href="#Arial-BoldMT-29" x="666.601562"/>
     </g>
     <!--   (a.u.) -->
     <g transform="translate(-7.204688 87.440313) rotate(-90) scale(0.1 -0.1)">
      <defs>
       <path id="Arial-BoldMT-61" d="M 1116 2306 
L 319 2450 
Q 453 2931 781 3162 
Q 1109 3394 1756 3394 
Q 2344 3394 2631 3255 
Q 2919 3116 3036 2902 
Q 3153 2688 3153 2116 
L 3144 1091 
Q 3144 653 3186 445 
Q 3228 238 3344 0 
L 2475 0 
Q 2441 88 2391 259 
Q 2369 338 2359 363 
Q 2134 144 1878 34 
Q 1622 -75 1331 -75 
Q 819 -75 523 203 
Q 228 481 228 906 
Q 228 1188 362 1408 
Q 497 1628 739 1745 
Q 981 1863 1438 1950 
Q 2053 2066 2291 2166 
L 2291 2253 
Q 2291 2506 2166 2614 
Q 2041 2722 1694 2722 
Q 1459 2722 1328 2630 
Q 1197 2538 1116 2306 
z
M 2291 1594 
Q 2122 1538 1756 1459 
Q 1391 1381 1278 1306 
Q 1106 1184 1106 997 
Q 1106 813 1243 678 
Q 1381 544 1594 544 
Q 1831 544 2047 700 
Q 2206 819 2256 991 
Q 2291 1103 2291 1419 
L 2291 1594 
z
" transform="scale(0.015625)"/>
       <path id="Arial-BoldMT-75" d="M 2644 0 
L 2644 497 
Q 2463 231 2167 78 
Q 1872 -75 1544 -75 
Q 1209 -75 943 72 
Q 678 219 559 484 
Q 441 750 441 1219 
L 441 3319 
L 1319 3319 
L 1319 1794 
Q 1319 1094 1367 936 
Q 1416 778 1544 686 
Q 1672 594 1869 594 
Q 2094 594 2272 717 
Q 2450 841 2515 1023 
Q 2581 1206 2581 1919 
L 2581 3319 
L 3459 3319 
L 3459 0 
L 2644 0 
z
" transform="scale(0.015625)"/>
      </defs>
      <use xlink:href="#Arial-BoldMT-20"/>
      <use xlink:href="#Arial-BoldMT-20" x="27.783203"/>
      <use xlink:href="#Arial-BoldMT-28" x="55.566406"/>
      <use xlink:href="#Arial-BoldMT-61" x="88.867188"/>
      <use xlink:href="#Arial-BoldMT-2e" x="144.482422"/>
      <use xlink:href="#Arial-BoldMT-75" x="172.265625"/>
      <use xlink:href="#Arial-BoldMT-2e" x="233.349609"/>
      <use xlink:href="#Arial-BoldMT-29" x="261.132812"/>
     </g>
    </g>
   </g>
   <g id="PathCollection_1">
    <defs>
     <path id="C0_0_cb51420294" d="M 0 3.5 
C 0.928211 3.5 1.81853 3.131218 2.474874 2.474874 
C 3.131218 1.81853 3.5 0.928211 3.5 -0 
C 3.5 -0.928211 3.131218 -1.81853 2.474874 -2.474874 
C 1.81853 -3.131218 0.928211 -3.5 0 -3.5 
C -0.928211 -3.5 -1.81853 -3.131218 -2.474874 -2.474874 
C -3.131218 -1.81853 -3.5 -0.928211 -3.5 0 
C -3.5 0.928211 -3.131218 1.81853 -2.474874 2.474874 
C -1.81853 3.131218 -0.928211 3.5 0 3.5 
z
"/>
    </defs>
    <g clip-path="url(#p68b0aba0db)">
     <use xlink:href="#C0_0_cb51420294" x="40.064487" y="82.75619" style="fill: #bc8f8f; fill-opacity: 0.7"/>
    </g>
    <g clip-path="url(#p68b0aba0db)">
     <use xlink:href="#C0_0_cb51420294" x="39.947135" y="42.572348" style="fill: #bc8f8f; fill-opacity: 0.7"/>
    </g>
    <g clip-path="url(#p68b0aba0db)">
     <use xlink:href="#C0_0_cb51420294" x="37.16795" y="63.946732" style="fill: #bc8f8f; fill-opacity: 0.7"/>
    </g>
    <g clip-path="url(#p68b0aba0db)">
     <use xlink:href="#C0_0_cb51420294" x="38.202851" y="79.336289" style="fill: #bc8f8f; fill-opacity: 0.7"/>
    </g>
    <g clip-path="url(#p68b0aba0db)">
     <use xlink:href="#C0_0_cb51420294" x="35.38684" y="69.076584" style="fill: #bc8f8f; fill-opacity: 0.7"/>
    </g>
    <g clip-path="url(#p68b0aba0db)">
     <use xlink:href="#C0_0_cb51420294" x="36.782592" y="76.771362" style="fill: #bc8f8f; fill-opacity: 0.7"/>
    </g>
    <g clip-path="url(#p68b0aba0db)">
     <use xlink:href="#C0_0_cb51420294" x="35.903055" y="66.511658" style="fill: #bc8f8f; fill-opacity: 0.7"/>
    </g>
    <g clip-path="url(#p68b0aba0db)">
     <use xlink:href="#C0_0_cb51420294" x="37.185593" y="71.64151" style="fill: #bc8f8f; fill-opacity: 0.7"/>
    </g>
    <g clip-path="url(#p68b0aba0db)">
     <use xlink:href="#C0_0_cb51420294" x="36.56376" y="50.267127" style="fill: #bc8f8f; fill-opacity: 0.7"/>
    </g>
    <g clip-path="url(#p68b0aba0db)">
     <use xlink:href="#C0_0_cb51420294" x="38.264563" y="45.137274" style="fill: #bc8f8f; fill-opacity: 0.7"/>
    </g>
    <g clip-path="url(#p68b0aba0db)">
     <use xlink:href="#C0_0_cb51420294" x="36.219475" y="69.93156" style="fill: #bc8f8f; fill-opacity: 0.7"/>
    </g>
    <g clip-path="url(#p68b0aba0db)">
     <use xlink:href="#C0_0_cb51420294" x="38.158739" y="97.290771" style="fill: #bc8f8f; fill-opacity: 0.7"/>
    </g>
    <g clip-path="url(#p68b0aba0db)">
     <use xlink:href="#C0_0_cb51420294" x="37.27253" y="74.206436" style="fill: #bc8f8f; fill-opacity: 0.7"/>
    </g>
    <g clip-path="url(#p68b0aba0db)">
     <use xlink:href="#C0_0_cb51420294" x="40.693309" y="84.466141" style="fill: #bc8f8f; fill-opacity: 0.7"/>
    </g>
    <g clip-path="url(#p68b0aba0db)">
     <use xlink:href="#C0_0_cb51420294" x="36.329477" y="58.81688" style="fill: #bc8f8f; fill-opacity: 0.7"/>
    </g>
    <g clip-path="url(#p68b0aba0db)">
     <use xlink:href="#C0_0_cb51420294" x="39.002098" y="65.656683" style="fill: #bc8f8f; fill-opacity: 0.7"/>
    </g>
    <g clip-path="url(#p68b0aba0db)">
     <use xlink:href="#C0_0_cb51420294" x="40.800428" y="100.710672" style="fill: #bc8f8f; fill-opacity: 0.7"/>
    </g>
    <g clip-path="url(#p68b0aba0db)">
     <use xlink:href="#C0_0_cb51420294" x="40.951213" y="42.572348" style="fill: #bc8f8f; fill-opacity: 0.7"/>
    </g>
    <g clip-path="url(#p68b0aba0db)">
     <use xlink:href="#C0_0_cb51420294" x="37.652768" y="77.626338" style="fill: #bc8f8f; fill-opacity: 0.7"/>
    </g>
    <g clip-path="url(#p68b0aba0db)">
     <use xlink:href="#C0_0_cb51420294" x="39.998694" y="76.771362" style="fill: #bc8f8f; fill-opacity: 0.7"/>
    </g>
    <g clip-path="url(#p68b0aba0db)">
     <use xlink:href="#C0_0_cb51420294" x="40.476234" y="69.076584" style="fill: #bc8f8f; fill-opacity: 0.7"/>
    </g>
    <g clip-path="url(#p68b0aba0db)">
     <use xlink:href="#C0_0_cb51420294" x="39.949266" y="92.160919" style="fill: #bc8f8f; fill-opacity: 0.7"/>
    </g>
    <g clip-path="url(#p68b0aba0db)">
     <use xlink:href="#C0_0_cb51420294" x="39.80256" y="58.81688" style="fill: #bc8f8f; fill-opacity: 0.7"/>
    </g>
    <g clip-path="url(#p68b0aba0db)">
     <use xlink:href="#C0_0_cb51420294" x="37.926794" y="83.611165" style="fill: #bc8f8f; fill-opacity: 0.7"/>
    </g>
    <g clip-path="url(#p68b0aba0db)">
     <use xlink:href="#C0_0_cb51420294" x="39.749522" y="67.366634" style="fill: #bc8f8f; fill-opacity: 0.7"/>
    </g>
    <g clip-path="url(#p68b0aba0db)">
     <use xlink:href="#C0_0_cb51420294" x="38.089575" y="86.176091" style="fill: #bc8f8f; fill-opacity: 0.7"/>
    </g>
    <g clip-path="url(#p68b0aba0db)">
     <use xlink:href="#C0_0_cb51420294" x="37.902977" y="83.611165" style="fill: #bc8f8f; fill-opacity: 0.7"/>
    </g>
    <g clip-path="url(#p68b0aba0db)">
     <use xlink:href="#C0_0_cb51420294" x="38.637016" y="101.565648" style="fill: #bc8f8f; fill-opacity: 0.7"/>
    </g>
    <g clip-path="url(#p68b0aba0db)">
     <use xlink:href="#C0_0_cb51420294" x="37.72561" y="79.336289" style="fill: #bc8f8f; fill-opacity: 0.7"/>
    </g>
    <g clip-path="url(#p68b0aba0db)">
     <use xlink:href="#C0_0_cb51420294" x="36.1745" y="40.007422" style="fill: #bc8f8f; fill-opacity: 0.7"/>
    </g>
    <g clip-path="url(#p68b0aba0db)">
     <use xlink:href="#C0_0_cb51420294" x="36.177025" y="78.481313" style="fill: #bc8f8f; fill-opacity: 0.7"/>
    </g>
    <g clip-path="url(#p68b0aba0db)">
     <use xlink:href="#C0_0_cb51420294" x="35.308233" y="95.58082" style="fill: #bc8f8f; fill-opacity: 0.7"/>
    </g>
    <g clip-path="url(#p68b0aba0db)">
     <use xlink:href="#C0_0_cb51420294" x="40.786489" y="63.091757" style="fill: #bc8f8f; fill-opacity: 0.7"/>
    </g>
    <g clip-path="url(#p68b0aba0db)">
     <use xlink:href="#C0_0_cb51420294" x="39.314732" y="83.611165" style="fill: #bc8f8f; fill-opacity: 0.7"/>
    </g>
    <g clip-path="url(#p68b0aba0db)">
     <use xlink:href="#C0_0_cb51420294" x="38.374853" y="74.206436" style="fill: #bc8f8f; fill-opacity: 0.7"/>
    </g>
    <g clip-path="url(#p68b0aba0db)">
     <use xlink:href="#C0_0_cb51420294" x="38.293515" y="66.511658" style="fill: #bc8f8f; fill-opacity: 0.7"/>
    </g>
    <g clip-path="url(#p68b0aba0db)">
     <use xlink:href="#C0_0_cb51420294" x="35.522323" y="84.466141" style="fill: #bc8f8f; fill-opacity: 0.7"/>
    </g>
    <g clip-path="url(#p68b0aba0db)">
     <use xlink:href="#C0_0_cb51420294" x="41.139636" y="77.626338" style="fill: #bc8f8f; fill-opacity: 0.7"/>
    </g>
    <g clip-path="url(#p68b0aba0db)">
     <use xlink:href="#C0_0_cb51420294" x="39.133327" y="88.741017" style="fill: #bc8f8f; fill-opacity: 0.7"/>
    </g>
   </g>
   <g id="PathCollection_2">
    <defs>
     <path id="C1_0_028f78c1df" d="M 0 3.5 
C 0.928211 3.5 1.81853 3.131218 2.474874 2.474874 
C 3.131218 1.81853 3.5 0.928211 3.5 -0 
C 3.5 -0.928211 3.131218 -1.81853 2.474874 -2.474874 
C 1.81853 -3.131218 0.928211 -3.5 0 -3.5 
C -0.928211 -3.5 -1.81853 -3.131218 -2.474874 -2.474874 
C -3.131218 -1.81853 -3.5 -0.928211 -3.5 0 
C -3.5 0.928211 -3.131218 1.81853 -2.474874 2.474874 
C -1.81853 3.131218 -0.928211 3.5 0 3.5 
z
"/>
    </defs>
    <g clip-path="url(#p68b0aba0db)">
     <use xlink:href="#C1_0_028f78c1df" x="60.44189" y="93.87087" style="fill: #708090; fill-opacity: 0.7"/>
    </g>
    <g clip-path="url(#p68b0aba0db)">
     <use xlink:href="#C1_0_028f78c1df" x="62.409287" y="41.717373" style="fill: #708090; fill-opacity: 0.7"/>
    </g>
    <g clip-path="url(#p68b0aba0db)">
     <use xlink:href="#C1_0_028f78c1df" x="60.099856" y="99.000722" style="fill: #708090; fill-opacity: 0.7"/>
    </g>
    <g clip-path="url(#p68b0aba0db)">
     <use xlink:href="#C1_0_028f78c1df" x="65.435836" y="96.435796" style="fill: #708090; fill-opacity: 0.7"/>
    </g>
    <g clip-path="url(#p68b0aba0db)">
     <use xlink:href="#C1_0_028f78c1df" x="62.658027" y="62.236782" style="fill: #708090; fill-opacity: 0.7"/>
    </g>
    <g clip-path="url(#p68b0aba0db)">
     <use xlink:href="#C1_0_028f78c1df" x="63.417244" y="90.450968" style="fill: #708090; fill-opacity: 0.7"/>
    </g>
    <g clip-path="url(#p68b0aba0db)">
     <use xlink:href="#C1_0_028f78c1df" x="63.399926" y="55.396979" style="fill: #708090; fill-opacity: 0.7"/>
    </g>
    <g clip-path="url(#p68b0aba0db)">
     <use xlink:href="#C1_0_028f78c1df" x="61.407907" y="53.687028" style="fill: #708090; fill-opacity: 0.7"/>
    </g>
    <g clip-path="url(#p68b0aba0db)">
     <use xlink:href="#C1_0_028f78c1df" x="64.124651" y="85.321116" style="fill: #708090; fill-opacity: 0.7"/>
    </g>
    <g clip-path="url(#p68b0aba0db)">
     <use xlink:href="#C1_0_028f78c1df" x="59.868228" y="65.656683" style="fill: #708090; fill-opacity: 0.7"/>
    </g>
    <g clip-path="url(#p68b0aba0db)">
     <use xlink:href="#C1_0_028f78c1df" x="59.706763" y="84.466141" style="fill: #708090; fill-opacity: 0.7"/>
    </g>
    <g clip-path="url(#p68b0aba0db)">
     <use xlink:href="#C1_0_028f78c1df" x="64.668609" y="55.396979" style="fill: #708090; fill-opacity: 0.7"/>
    </g>
    <g clip-path="url(#p68b0aba0db)">
     <use xlink:href="#C1_0_028f78c1df" x="62.747872" y="81.046239" style="fill: #708090; fill-opacity: 0.7"/>
    </g>
    <g clip-path="url(#p68b0aba0db)">
     <use xlink:href="#C1_0_028f78c1df" x="60.526843" y="103.275598" style="fill: #708090; fill-opacity: 0.7"/>
    </g>
    <g clip-path="url(#p68b0aba0db)">
     <use xlink:href="#C1_0_028f78c1df" x="65.33925" y="96.435796" style="fill: #708090; fill-opacity: 0.7"/>
    </g>
    <g clip-path="url(#p68b0aba0db)">
     <use xlink:href="#C1_0_028f78c1df" x="60.747277" y="81.046239" style="fill: #708090; fill-opacity: 0.7"/>
    </g>
    <g clip-path="url(#p68b0aba0db)">
     <use xlink:href="#C1_0_028f78c1df" x="61.712981" y="64.801708" style="fill: #708090; fill-opacity: 0.7"/>
    </g>
    <g clip-path="url(#p68b0aba0db)">
     <use xlink:href="#C1_0_028f78c1df" x="61.576363" y="80.191264" style="fill: #708090; fill-opacity: 0.7"/>
    </g>
    <g clip-path="url(#p68b0aba0db)">
     <use xlink:href="#C1_0_028f78c1df" x="64.235185" y="96.435796" style="fill: #708090; fill-opacity: 0.7"/>
    </g>
    <g clip-path="url(#p68b0aba0db)">
     <use xlink:href="#C1_0_028f78c1df" x="63.930309" y="81.901215" style="fill: #708090; fill-opacity: 0.7"/>
    </g>
    <g clip-path="url(#p68b0aba0db)">
     <use xlink:href="#C1_0_028f78c1df" x="62.563398" y="87.886042" style="fill: #708090; fill-opacity: 0.7"/>
    </g>
    <g clip-path="url(#p68b0aba0db)">
     <use xlink:href="#C1_0_028f78c1df" x="63.732122" y="98.145746" style="fill: #708090; fill-opacity: 0.7"/>
    </g>
    <g clip-path="url(#p68b0aba0db)">
     <use xlink:href="#C1_0_028f78c1df" x="65.324493" y="68.221609" style="fill: #708090; fill-opacity: 0.7"/>
    </g>
    <g clip-path="url(#p68b0aba0db)">
     <use xlink:href="#C1_0_028f78c1df" x="61.933838" y="42.572348" style="fill: #708090; fill-opacity: 0.7"/>
    </g>
    <g clip-path="url(#p68b0aba0db)">
     <use xlink:href="#C1_0_028f78c1df" x="60.78045" y="83.611165" style="fill: #708090; fill-opacity: 0.7"/>
    </g>
    <g clip-path="url(#p68b0aba0db)">
     <use xlink:href="#C1_0_028f78c1df" x="62.210292" y="61.381806" style="fill: #708090; fill-opacity: 0.7"/>
    </g>
    <g clip-path="url(#p68b0aba0db)">
     <use xlink:href="#C1_0_028f78c1df" x="62.944729" y="86.176091" style="fill: #708090; fill-opacity: 0.7"/>
    </g>
    <g clip-path="url(#p68b0aba0db)">
     <use xlink:href="#C1_0_028f78c1df" x="62.480681" y="66.511658" style="fill: #708090; fill-opacity: 0.7"/>
    </g>
    <g clip-path="url(#p68b0aba0db)">
     <use xlink:href="#C1_0_028f78c1df" x="63.721827" y="84.466141" style="fill: #708090; fill-opacity: 0.7"/>
    </g>
    <g clip-path="url(#p68b0aba0db)">
     <use xlink:href="#C1_0_028f78c1df" x="61.619618" y="93.87087" style="fill: #708090; fill-opacity: 0.7"/>
    </g>
    <g clip-path="url(#p68b0aba0db)">
     <use xlink:href="#C1_0_028f78c1df" x="61.127455" y="84.466141" style="fill: #708090; fill-opacity: 0.7"/>
    </g>
    <g clip-path="url(#p68b0aba0db)">
     <use xlink:href="#C1_0_028f78c1df" x="62.532134" y="60.526831" style="fill: #708090; fill-opacity: 0.7"/>
    </g>
    <g clip-path="url(#p68b0aba0db)">
     <use xlink:href="#C1_0_028f78c1df" x="61.632321" y="62.236782" style="fill: #708090; fill-opacity: 0.7"/>
    </g>
    <g clip-path="url(#p68b0aba0db)">
     <use xlink:href="#C1_0_028f78c1df" x="60.635864" y="52.832053" style="fill: #708090; fill-opacity: 0.7"/>
    </g>
    <g clip-path="url(#p68b0aba0db)">
     <use xlink:href="#C1_0_028f78c1df" x="60.538901" y="69.076584" style="fill: #708090; fill-opacity: 0.7"/>
    </g>
    <g clip-path="url(#p68b0aba0db)">
     <use xlink:href="#C1_0_028f78c1df" x="60.363834" y="99.000722" style="fill: #708090; fill-opacity: 0.7"/>
    </g>
    <g clip-path="url(#p68b0aba0db)">
     <use xlink:href="#C1_0_028f78c1df" x="60.280126" y="97.290771" style="fill: #708090; fill-opacity: 0.7"/>
    </g>
    <g clip-path="url(#p68b0aba0db)">
     <use xlink:href="#C1_0_028f78c1df" x="61.791796" y="51.122102" style="fill: #708090; fill-opacity: 0.7"/>
    </g>
    <g clip-path="url(#p68b0aba0db)">
     <use xlink:href="#C1_0_028f78c1df" x="63.057232" y="81.046239" style="fill: #708090; fill-opacity: 0.7"/>
    </g>
    <g clip-path="url(#p68b0aba0db)">
     <use xlink:href="#C1_0_028f78c1df" x="60.760333" y="71.64151" style="fill: #708090; fill-opacity: 0.7"/>
    </g>
    <g clip-path="url(#p68b0aba0db)">
     <use xlink:href="#C1_0_028f78c1df" x="63.024096" y="59.671855" style="fill: #708090; fill-opacity: 0.7"/>
    </g>
    <g clip-path="url(#p68b0aba0db)">
     <use xlink:href="#C1_0_028f78c1df" x="64.881916" y="70.786535" style="fill: #708090; fill-opacity: 0.7"/>
    </g>
   </g>
   <g id="PathCollection_3">
    <defs>
     <path id="C2_0_e98f3f99f9" d="M 0 3.5 
C 0.928211 3.5 1.81853 3.131218 2.474874 2.474874 
C 3.131218 1.81853 3.5 0.928211 3.5 -0 
C 3.5 -0.928211 3.131218 -1.81853 2.474874 -2.474874 
C 1.81853 -3.131218 0.928211 -3.5 0 -3.5 
C -0.928211 -3.5 -1.81853 -3.131218 -2.474874 -2.474874 
C -3.131218 -1.81853 -3.5 -0.928211 -3.5 0 
C -3.5 0.928211 -3.131218 1.81853 -2.474874 2.474874 
C -1.81853 3.131218 -0.928211 3.5 0 3.5 
z
"/>
    </defs>
    <g clip-path="url(#p68b0aba0db)">
     <use xlink:href="#C2_0_e98f3f99f9" x="96.996195" y="36.587521" style="fill: #bc8f8f; fill-opacity: 0.7"/>
    </g>
    <g clip-path="url(#p68b0aba0db)">
     <use xlink:href="#C2_0_e98f3f99f9" x="98.434321" y="85.321116" style="fill: #bc8f8f; fill-opacity: 0.7"/>
    </g>
    <g clip-path="url(#p68b0aba0db)">
     <use xlink:href="#C2_0_e98f3f99f9" x="102.528101" y="94.725845" style="fill: #bc8f8f; fill-opacity: 0.7"/>
    </g>
    <g clip-path="url(#p68b0aba0db)">
     <use xlink:href="#C2_0_e98f3f99f9" x="96.791128" y="81.901215" style="fill: #bc8f8f; fill-opacity: 0.7"/>
    </g>
    <g clip-path="url(#p68b0aba0db)">
     <use xlink:href="#C2_0_e98f3f99f9" x="98.628126" y="68.221609" style="fill: #bc8f8f; fill-opacity: 0.7"/>
    </g>
    <g clip-path="url(#p68b0aba0db)">
     <use xlink:href="#C2_0_e98f3f99f9" x="101.43459" y="77.626338" style="fill: #bc8f8f; fill-opacity: 0.7"/>
    </g>
    <g clip-path="url(#p68b0aba0db)">
     <use xlink:href="#C2_0_e98f3f99f9" x="99.68033" y="69.076584" style="fill: #bc8f8f; fill-opacity: 0.7"/>
    </g>
    <g clip-path="url(#p68b0aba0db)">
     <use xlink:href="#C2_0_e98f3f99f9" x="102.064093" y="63.946732" style="fill: #bc8f8f; fill-opacity: 0.7"/>
    </g>
    <g clip-path="url(#p68b0aba0db)">
     <use xlink:href="#C2_0_e98f3f99f9" x="100.715197" y="79.336289" style="fill: #bc8f8f; fill-opacity: 0.7"/>
    </g>
    <g clip-path="url(#p68b0aba0db)">
     <use xlink:href="#C2_0_e98f3f99f9" x="99.808626" y="55.396979" style="fill: #bc8f8f; fill-opacity: 0.7"/>
    </g>
    <g clip-path="url(#p68b0aba0db)">
     <use xlink:href="#C2_0_e98f3f99f9" x="97.149669" y="97.290771" style="fill: #bc8f8f; fill-opacity: 0.7"/>
    </g>
    <g clip-path="url(#p68b0aba0db)">
     <use xlink:href="#C2_0_e98f3f99f9" x="100.826221" y="58.81688" style="fill: #bc8f8f; fill-opacity: 0.7"/>
    </g>
    <g clip-path="url(#p68b0aba0db)">
     <use xlink:href="#C2_0_e98f3f99f9" x="98.692259" y="59.671855" style="fill: #bc8f8f; fill-opacity: 0.7"/>
    </g>
    <g clip-path="url(#p68b0aba0db)">
     <use xlink:href="#C2_0_e98f3f99f9" x="96.56511" y="60.526831" style="fill: #bc8f8f; fill-opacity: 0.7"/>
    </g>
    <g clip-path="url(#p68b0aba0db)">
     <use xlink:href="#C2_0_e98f3f99f9" x="100.883876" y="84.466141" style="fill: #bc8f8f; fill-opacity: 0.7"/>
    </g>
    <g clip-path="url(#p68b0aba0db)">
     <use xlink:href="#C2_0_e98f3f99f9" x="97.2067" y="74.206436" style="fill: #bc8f8f; fill-opacity: 0.7"/>
    </g>
    <g clip-path="url(#p68b0aba0db)">
     <use xlink:href="#C2_0_e98f3f99f9" x="99.969167" y="78.481313" style="fill: #bc8f8f; fill-opacity: 0.7"/>
    </g>
    <g clip-path="url(#p68b0aba0db)">
     <use xlink:href="#C2_0_e98f3f99f9" x="101.889622" y="68.221609" style="fill: #bc8f8f; fill-opacity: 0.7"/>
    </g>
    <g clip-path="url(#p68b0aba0db)">
     <use xlink:href="#C2_0_e98f3f99f9" x="100.398022" y="54.542003" style="fill: #bc8f8f; fill-opacity: 0.7"/>
    </g>
    <g clip-path="url(#p68b0aba0db)">
     <use xlink:href="#C2_0_e98f3f99f9" x="99.927983" y="57.106929" style="fill: #bc8f8f; fill-opacity: 0.7"/>
    </g>
    <g clip-path="url(#p68b0aba0db)">
     <use xlink:href="#C2_0_e98f3f99f9" x="99.240309" y="78.481313" style="fill: #bc8f8f; fill-opacity: 0.7"/>
    </g>
    <g clip-path="url(#p68b0aba0db)">
     <use xlink:href="#C2_0_e98f3f99f9" x="101.510611" y="75.916387" style="fill: #bc8f8f; fill-opacity: 0.7"/>
    </g>
    <g clip-path="url(#p68b0aba0db)">
     <use xlink:href="#C2_0_e98f3f99f9" x="99.453392" y="50.267127" style="fill: #bc8f8f; fill-opacity: 0.7"/>
    </g>
    <g clip-path="url(#p68b0aba0db)">
     <use xlink:href="#C2_0_e98f3f99f9" x="99.223404" y="56.251954" style="fill: #bc8f8f; fill-opacity: 0.7"/>
    </g>
    <g clip-path="url(#p68b0aba0db)">
     <use xlink:href="#C2_0_e98f3f99f9" x="96.558157" y="84.466141" style="fill: #bc8f8f; fill-opacity: 0.7"/>
    </g>
    <g clip-path="url(#p68b0aba0db)">
     <use xlink:href="#C2_0_e98f3f99f9" x="96.65495" y="83.611165" style="fill: #bc8f8f; fill-opacity: 0.7"/>
    </g>
    <g clip-path="url(#p68b0aba0db)">
     <use xlink:href="#C2_0_e98f3f99f9" x="100.386247" y="96.435796" style="fill: #bc8f8f; fill-opacity: 0.7"/>
    </g>
    <g clip-path="url(#p68b0aba0db)">
     <use xlink:href="#C2_0_e98f3f99f9" x="97.435824" y="85.321116" style="fill: #bc8f8f; fill-opacity: 0.7"/>
    </g>
    <g clip-path="url(#p68b0aba0db)">
     <use xlink:href="#C2_0_e98f3f99f9" x="101.896693" y="63.091757" style="fill: #bc8f8f; fill-opacity: 0.7"/>
    </g>
    <g clip-path="url(#p68b0aba0db)">
     <use xlink:href="#C2_0_e98f3f99f9" x="99.334309" y="90.450968" style="fill: #bc8f8f; fill-opacity: 0.7"/>
    </g>
    <g clip-path="url(#p68b0aba0db)">
     <use xlink:href="#C2_0_e98f3f99f9" x="101.571126" y="70.786535" style="fill: #bc8f8f; fill-opacity: 0.7"/>
    </g>
    <g clip-path="url(#p68b0aba0db)">
     <use xlink:href="#C2_0_e98f3f99f9" x="98.087355" y="56.251954" style="fill: #bc8f8f; fill-opacity: 0.7"/>
    </g>
    <g clip-path="url(#p68b0aba0db)">
     <use xlink:href="#C2_0_e98f3f99f9" x="100.879885" y="61.381806" style="fill: #bc8f8f; fill-opacity: 0.7"/>
    </g>
    <g clip-path="url(#p68b0aba0db)">
     <use xlink:href="#C2_0_e98f3f99f9" x="102.414275" y="68.221609" style="fill: #bc8f8f; fill-opacity: 0.7"/>
    </g>
    <g clip-path="url(#p68b0aba0db)">
     <use xlink:href="#C2_0_e98f3f99f9" x="98.556125" y="95.58082" style="fill: #bc8f8f; fill-opacity: 0.7"/>
    </g>
    <g clip-path="url(#p68b0aba0db)">
     <use xlink:href="#C2_0_e98f3f99f9" x="96.995195" y="76.771362" style="fill: #bc8f8f; fill-opacity: 0.7"/>
    </g>
    <g clip-path="url(#p68b0aba0db)">
     <use xlink:href="#C2_0_e98f3f99f9" x="97.416255" y="81.046239" style="fill: #bc8f8f; fill-opacity: 0.7"/>
    </g>
    <g clip-path="url(#p68b0aba0db)">
     <use xlink:href="#C2_0_e98f3f99f9" x="100.695745" y="94.725845" style="fill: #bc8f8f; fill-opacity: 0.7"/>
    </g>
    <g clip-path="url(#p68b0aba0db)">
     <use xlink:href="#C2_0_e98f3f99f9" x="99.274761" y="56.251954" style="fill: #bc8f8f; fill-opacity: 0.7"/>
    </g>
    <g clip-path="url(#p68b0aba0db)">
     <use xlink:href="#C2_0_e98f3f99f9" x="100.009435" y="73.351461" style="fill: #bc8f8f; fill-opacity: 0.7"/>
    </g>
    <g clip-path="url(#p68b0aba0db)">
     <use xlink:href="#C2_0_e98f3f99f9" x="99.308697" y="47.702201" style="fill: #bc8f8f; fill-opacity: 0.7"/>
    </g>
   </g>
   <g id="PathCollection_4">
    <defs>
     <path id="C3_0_0e13220bbb" d="M 0 3.5 
C 0.928211 3.5 1.81853 3.131218 2.474874 2.474874 
C 3.131218 1.81853 3.5 0.928211 3.5 -0 
C 3.5 -0.928211 3.131218 -1.81853 2.474874 -2.474874 
C 1.81853 -3.131218 0.928211 -3.5 0 -3.5 
C -0.928211 -3.5 -1.81853 -3.131218 -2.474874 -2.474874 
C -3.131218 -1.81853 -3.5 -0.928211 -3.5 0 
C -3.5 0.928211 -3.131218 1.81853 -2.474874 2.474874 
C -1.81853 3.131218 -0.928211 3.5 0 3.5 
z
"/>
    </defs>
    <g clip-path="url(#p68b0aba0db)">
     <use xlink:href="#C3_0_0e13220bbb" x="123.148705" y="91.305943" style="fill: #708090; fill-opacity: 0.7"/>
    </g>
    <g clip-path="url(#p68b0aba0db)">
     <use xlink:href="#C3_0_0e13220bbb" x="121.078846" y="100.710672" style="fill: #708090; fill-opacity: 0.7"/>
    </g>
    <g clip-path="url(#p68b0aba0db)">
     <use xlink:href="#C3_0_0e13220bbb" x="124.292271" y="47.702201" style="fill: #708090; fill-opacity: 0.7"/>
    </g>
    <g clip-path="url(#p68b0aba0db)">
     <use xlink:href="#C3_0_0e13220bbb" x="126.95699" y="89.595993" style="fill: #708090; fill-opacity: 0.7"/>
    </g>
    <g clip-path="url(#p68b0aba0db)">
     <use xlink:href="#C3_0_0e13220bbb" x="121.360472" y="104.130574" style="fill: #708090; fill-opacity: 0.7"/>
    </g>
    <g clip-path="url(#p68b0aba0db)">
     <use xlink:href="#C3_0_0e13220bbb" x="124.102139" y="67.366634" style="fill: #708090; fill-opacity: 0.7"/>
    </g>
    <g clip-path="url(#p68b0aba0db)">
     <use xlink:href="#C3_0_0e13220bbb" x="125.001834" y="63.946732" style="fill: #708090; fill-opacity: 0.7"/>
    </g>
    <g clip-path="url(#p68b0aba0db)">
     <use xlink:href="#C3_0_0e13220bbb" x="123.997442" y="83.611165" style="fill: #708090; fill-opacity: 0.7"/>
    </g>
    <g clip-path="url(#p68b0aba0db)">
     <use xlink:href="#C3_0_0e13220bbb" x="125.063658" y="86.176091" style="fill: #708090; fill-opacity: 0.7"/>
    </g>
    <g clip-path="url(#p68b0aba0db)">
     <use xlink:href="#C3_0_0e13220bbb" x="125.402975" y="105.840524" style="fill: #708090; fill-opacity: 0.7"/>
    </g>
    <g clip-path="url(#p68b0aba0db)">
     <use xlink:href="#C3_0_0e13220bbb" x="123.891441" y="93.87087" style="fill: #708090; fill-opacity: 0.7"/>
    </g>
    <g clip-path="url(#p68b0aba0db)">
     <use xlink:href="#C3_0_0e13220bbb" x="124.369683" y="93.87087" style="fill: #708090; fill-opacity: 0.7"/>
    </g>
    <g clip-path="url(#p68b0aba0db)">
     <use xlink:href="#C3_0_0e13220bbb" x="127.039802" y="40.862398" style="fill: #708090; fill-opacity: 0.7"/>
    </g>
    <g clip-path="url(#p68b0aba0db)">
     <use xlink:href="#C3_0_0e13220bbb" x="121.133737" y="92.160919" style="fill: #708090; fill-opacity: 0.7"/>
    </g>
    <g clip-path="url(#p68b0aba0db)">
     <use xlink:href="#C3_0_0e13220bbb" x="123.709376" y="87.031067" style="fill: #708090; fill-opacity: 0.7"/>
    </g>
    <g clip-path="url(#p68b0aba0db)">
     <use xlink:href="#C3_0_0e13220bbb" x="123.00915" y="73.351461" style="fill: #708090; fill-opacity: 0.7"/>
    </g>
    <g clip-path="url(#p68b0aba0db)">
     <use xlink:href="#C3_0_0e13220bbb" x="126.389884" y="63.946732" style="fill: #708090; fill-opacity: 0.7"/>
    </g>
    <g clip-path="url(#p68b0aba0db)">
     <use xlink:href="#C3_0_0e13220bbb" x="123.438099" y="99.000722" style="fill: #708090; fill-opacity: 0.7"/>
    </g>
    <g clip-path="url(#p68b0aba0db)">
     <use xlink:href="#C3_0_0e13220bbb" x="126.031151" y="79.336289" style="fill: #708090; fill-opacity: 0.7"/>
    </g>
    <g clip-path="url(#p68b0aba0db)">
     <use xlink:href="#C3_0_0e13220bbb" x="122.687796" y="70.786535" style="fill: #708090; fill-opacity: 0.7"/>
    </g>
    <g clip-path="url(#p68b0aba0db)">
     <use xlink:href="#C3_0_0e13220bbb" x="126.46539" y="85.321116" style="fill: #708090; fill-opacity: 0.7"/>
    </g>
    <g clip-path="url(#p68b0aba0db)">
     <use xlink:href="#C3_0_0e13220bbb" x="123.559626" y="97.290771" style="fill: #708090; fill-opacity: 0.7"/>
    </g>
    <g clip-path="url(#p68b0aba0db)">
     <use xlink:href="#C3_0_0e13220bbb" x="121.83975" y="86.176091" style="fill: #708090; fill-opacity: 0.7"/>
    </g>
    <g clip-path="url(#p68b0aba0db)">
     <use xlink:href="#C3_0_0e13220bbb" x="126.144813" y="47.702201" style="fill: #708090; fill-opacity: 0.7"/>
    </g>
    <g clip-path="url(#p68b0aba0db)">
     <use xlink:href="#C3_0_0e13220bbb" x="122.352335" y="101.565648" style="fill: #708090; fill-opacity: 0.7"/>
    </g>
    <g clip-path="url(#p68b0aba0db)">
     <use xlink:href="#C3_0_0e13220bbb" x="122.985104" y="44.282299" style="fill: #708090; fill-opacity: 0.7"/>
    </g>
    <g clip-path="url(#p68b0aba0db)">
     <use xlink:href="#C3_0_0e13220bbb" x="126.270043" y="91.305943" style="fill: #708090; fill-opacity: 0.7"/>
    </g>
    <g clip-path="url(#p68b0aba0db)">
     <use xlink:href="#C3_0_0e13220bbb" x="125.258881" y="92.160919" style="fill: #708090; fill-opacity: 0.7"/>
    </g>
    <g clip-path="url(#p68b0aba0db)">
     <use xlink:href="#C3_0_0e13220bbb" x="124.771627" y="92.160919" style="fill: #708090; fill-opacity: 0.7"/>
    </g>
    <g clip-path="url(#p68b0aba0db)">
     <use xlink:href="#C3_0_0e13220bbb" x="123.817557" y="82.75619" style="fill: #708090; fill-opacity: 0.7"/>
    </g>
    <g clip-path="url(#p68b0aba0db)">
     <use xlink:href="#C3_0_0e13220bbb" x="123.079864" y="72.496486" style="fill: #708090; fill-opacity: 0.7"/>
    </g>
    <g clip-path="url(#p68b0aba0db)">
     <use xlink:href="#C3_0_0e13220bbb" x="123.097961" y="51.977077" style="fill: #708090; fill-opacity: 0.7"/>
    </g>
    <g clip-path="url(#p68b0aba0db)">
     <use xlink:href="#C3_0_0e13220bbb" x="123.966514" y="59.671855" style="fill: #708090; fill-opacity: 0.7"/>
    </g>
    <g clip-path="url(#p68b0aba0db)">
     <use xlink:href="#C3_0_0e13220bbb" x="121.512812" y="102.420623" style="fill: #708090; fill-opacity: 0.7"/>
    </g>
    <g clip-path="url(#p68b0aba0db)">
     <use xlink:href="#C3_0_0e13220bbb" x="126.808488" y="91.305943" style="fill: #708090; fill-opacity: 0.7"/>
    </g>
    <g clip-path="url(#p68b0aba0db)">
     <use xlink:href="#C3_0_0e13220bbb" x="123.289337" y="45.99225" style="fill: #708090; fill-opacity: 0.7"/>
    </g>
    <g clip-path="url(#p68b0aba0db)">
     <use xlink:href="#C3_0_0e13220bbb" x="126.760024" y="71.64151" style="fill: #708090; fill-opacity: 0.7"/>
    </g>
    <g clip-path="url(#p68b0aba0db)">
     <use xlink:href="#C3_0_0e13220bbb" x="124.696578" y="96.435796" style="fill: #708090; fill-opacity: 0.7"/>
    </g>
    <g clip-path="url(#p68b0aba0db)">
     <use xlink:href="#C3_0_0e13220bbb" x="124.333652" y="55.396979" style="fill: #708090; fill-opacity: 0.7"/>
    </g>
    <g clip-path="url(#p68b0aba0db)">
     <use xlink:href="#C3_0_0e13220bbb" x="122.82739" y="87.031067" style="fill: #708090; fill-opacity: 0.7"/>
    </g>
    <g clip-path="url(#p68b0aba0db)">
     <use xlink:href="#C3_0_0e13220bbb" x="126.017468" y="96.435796" style="fill: #708090; fill-opacity: 0.7"/>
    </g>
    <g clip-path="url(#p68b0aba0db)">
     <use xlink:href="#C3_0_0e13220bbb" x="121.179486" y="96.435796" style="fill: #708090; fill-opacity: 0.7"/>
    </g>
    <g clip-path="url(#p68b0aba0db)">
     <use xlink:href="#C3_0_0e13220bbb" x="124.946779" y="62.236782" style="fill: #708090; fill-opacity: 0.7"/>
    </g>
    <g clip-path="url(#p68b0aba0db)">
     <use xlink:href="#C3_0_0e13220bbb" x="121.948718" y="68.221609" style="fill: #708090; fill-opacity: 0.7"/>
    </g>
    <g clip-path="url(#p68b0aba0db)">
     <use xlink:href="#C3_0_0e13220bbb" x="126.673678" y="66.511658" style="fill: #708090; fill-opacity: 0.7"/>
    </g>
   </g>
   <g id="line2d_6">
    <path d="M 36.52605 89.292708 
L 39.90195 89.292708 
M 38.214 89.292708 
L 38.214 57.892508 
M 36.52605 57.892508 
L 39.90195 57.892508 
" clip-path="url(#p68b0aba0db)" style="fill: none; stroke: #333333; stroke-width: 2.5; stroke-linecap: square"/>
   </g>
   <g id="line2d_7">
    <path d="M 97.90605 86.988555 
L 101.28195 86.988555 
M 99.594 86.988555 
L 99.594 57.00347 
M 97.90605 57.00347 
L 101.28195 57.00347 
" clip-path="url(#p68b0aba0db)" style="fill: none; stroke: #333333; stroke-width: 2.5; stroke-linecap: square"/>
   </g>
   <g id="line2d_8">
    <path d="M 61.07805 93.292881 
L 64.45395 93.292881 
M 62.766 93.292881 
L 62.766 59.15059 
M 61.07805 59.15059 
L 64.45395 59.15059 
" clip-path="url(#p68b0aba0db)" style="fill: none; stroke: #333333; stroke-width: 2.5; stroke-linecap: square"/>
   </g>
   <g id="line2d_9">
    <path d="M 122.45805 98.044061 
L 125.83395 98.044061 
M 124.146 98.044061 
L 124.146 61.046504 
M 122.45805 61.046504 
L 125.83395 61.046504 
" clip-path="url(#p68b0aba0db)" style="fill: none; stroke: #333333; stroke-width: 2.5; stroke-linecap: square"/>
   </g>
   <g id="patch_9">
    <path d="M 19.8 128.16 
L 19.8 17.28 
" style="fill: none; stroke: #000000; stroke-width: 1.5; stroke-linejoin: miter; stroke-linecap: square"/>
   </g>
   <g id="patch_10">
    <path d="M 19.8 128.16 
L 142.56 128.16 
" style="fill: none; stroke: #000000; stroke-width: 1.5; stroke-linejoin: miter; stroke-linecap: square"/>
   </g>
   <g id="PathCollection_5">
    <defs>
     <path id="m64a2ba18c7" d="M 0 3 
C 0.795609 3 1.55874 2.683901 2.12132 2.12132 
C 2.683901 1.55874 3 0.795609 3 0 
C 3 -0.795609 2.683901 -1.55874 2.12132 -2.12132 
C 1.55874 -2.683901 0.795609 -3 0 -3 
C -0.795609 -3 -1.55874 -2.683901 -2.12132 -2.12132 
C -2.683901 -1.55874 -3 -0.795609 -3 0 
C -3 0.795609 -2.683901 1.55874 -2.12132 2.12132 
C -1.55874 2.683901 -0.795609 3 0 3 
z
"/>
    </defs>
    <g clip-path="url(#p68b0aba0db)">
     <use xlink:href="#m64a2ba18c7" x="38.214" y="73.592608" style="fill: #333333"/>
    </g>
   </g>
   <g id="PathCollection_6">
    <g clip-path="url(#p68b0aba0db)">
     <use xlink:href="#m64a2ba18c7" x="62.766" y="76.221735" style="fill: #333333"/>
    </g>
   </g>
   <g id="PathCollection_7">
    <g clip-path="url(#p68b0aba0db)">
     <use xlink:href="#m64a2ba18c7" x="99.594" y="71.996012" style="fill: #333333"/>
    </g>
   </g>
   <g id="PathCollection_8">
    <g clip-path="url(#p68b0aba0db)">
     <use xlink:href="#m64a2ba18c7" x="124.146" y="79.545283" style="fill: #333333"/>
    </g>
   </g>
   <g id="line2d_10"/>
   <g id="line2d_11"/>
  </g>
 </g>
 <defs>
  <clipPath id="p68b0aba0db">
   <rect x="19.8" y="17.28" width="122.76" height="110.88"/>
  </clipPath>
 </defs>
</svg>
