<?xml version="1.0" encoding="utf-8" standalone="no"?>
<!DOCTYPE svg PUBLIC "-//W3C//DTD SVG 1.1//EN"
  "http://www.w3.org/Graphics/SVG/1.1/DTD/svg11.dtd">
<svg xmlns:xlink="http://www.w3.org/1999/xlink" width="158.4pt" height="144pt" viewBox="0 0 158.4 144" xmlns="http://www.w3.org/2000/svg" version="1.1">
 <metadata>
  <rdf:RDF xmlns:dc="http://purl.org/dc/elements/1.1/" xmlns:cc="http://creativecommons.org/ns#" xmlns:rdf="http://www.w3.org/1999/02/22-rdf-syntax-ns#">
   <cc:Work>
    <dc:type rdf:resource="http://purl.org/dc/dcmitype/StillImage"/>
    <dc:date>2024-09-14T02:53:51.290098</dc:date>
    <dc:format>image/svg+xml</dc:format>
    <dc:creator>
     <cc:Agent>
      <dc:title>Matplotlib v3.7.1, https://matplotlib.org/</dc:title>
     </cc:Agent>
    </dc:creator>
   </cc:Work>
  </rdf:RDF>
 </metadata>
 <defs>
  <style type="text/css">*{stroke-linejoin: round; stroke-linecap: butt}</style>
 </defs>
 <g id="figure_1">
  <g id="patch_1">
   <path d="M 0 144 
L 158.4 144 
L 158.4 0 
L 0 0 
L 0 144 
z
" style="fill: none"/>
  </g>
  <g id="axes_1">
   <g id="patch_2">
    <path d="M 19.8 128.16 
L 142.56 128.16 
L 142.56 17.28 
L 19.8 17.28 
L 19.8 128.16 
z
" style="fill: none"/>
   </g>
   <g id="PolyCollection_1">
    <path d="M 38.490863 120.482972 
L 37.937137 120.482972 
L 37.859454 119.617729 
L 37.765178 118.752487 
L 37.652219 117.887245 
L 37.518567 117.022003 
L 37.362364 116.156761 
L 37.181979 115.291519 
L 36.976078 114.426276 
L 36.743675 113.561034 
L 36.484173 112.695792 
L 36.19738 111.83055 
L 35.883508 110.965308 
L 35.543155 110.100066 
L 35.177271 109.234824 
L 34.787112 108.369581 
L 34.374208 107.504339 
L 33.94032 106.639097 
L 33.48742 105.773855 
L 33.017691 104.908613 
L 32.53354 104.043371 
L 32.037635 103.178128 
L 31.532953 102.312886 
L 31.022839 101.447644 
L 30.511053 100.582402 
L 30.001816 99.71716 
L 29.499817 98.851918 
L 29.010194 97.986675 
L 28.538467 97.121433 
L 28.090417 96.256191 
L 27.671925 95.390949 
L 27.288758 94.525707 
L 26.94632 93.660465 
L 26.649383 92.795223 
L 26.401811 91.92998 
L 26.206312 91.064738 
L 26.064221 90.199496 
L 25.975365 89.334254 
L 25.938 88.469012 
L 25.948861 87.60377 
L 26.003313 86.738527 
L 26.095607 85.873285 
L 26.219227 85.008043 
L 26.367291 84.142801 
L 26.533001 83.277559 
L 26.710063 82.412317 
L 26.893075 81.547075 
L 27.077825 80.681832 
L 27.261476 79.81659 
L 27.442619 78.951348 
L 27.62119 78.086106 
L 27.79827 77.220864 
L 27.97577 76.355622 
L 28.156063 75.490379 
L 28.341587 74.625137 
L 28.534462 73.759895 
L 28.736175 72.894653 
L 28.947349 72.029411 
L 29.167633 71.164169 
L 29.395701 70.298926 
L 29.629379 69.433684 
L 29.865862 68.568442 
L 30.101995 67.7032 
L 30.334603 66.837958 
L 30.560805 65.972716 
L 30.77831 65.107474 
L 30.985636 64.242231 
L 31.182267 63.376989 
L 31.368701 62.511747 
L 31.546424 61.646505 
L 31.717789 60.781263 
L 31.885827 59.916021 
L 32.054017 59.050778 
L 32.226016 58.185536 
L 32.40539 57.320294 
L 32.595359 56.455052 
L 32.798566 55.58981 
L 33.016904 54.724568 
L 33.251386 53.859326 
L 33.502079 52.994083 
L 33.768105 52.128841 
L 34.047686 51.263599 
L 34.338255 50.398357 
L 34.636598 49.533115 
L 34.939033 48.667873 
L 35.241604 47.80263 
L 35.54028 46.937388 
L 35.83115 46.072146 
L 36.110596 45.206904 
L 36.37544 44.341662 
L 36.623055 43.47642 
L 36.851441 42.611177 
L 37.059252 41.745935 
L 37.2458 40.880693 
L 37.411011 40.015451 
L 37.555363 39.150209 
L 37.679797 38.284967 
L 37.785625 37.419725 
L 37.874421 36.554482 
L 37.947929 35.68924 
L 38.007965 34.823998 
L 38.420035 34.823998 
L 38.420035 34.823998 
L 38.480071 35.68924 
L 38.553579 36.554482 
L 38.642375 37.419725 
L 38.748203 38.284967 
L 38.872637 39.150209 
L 39.016989 40.015451 
L 39.1822 40.880693 
L 39.368748 41.745935 
L 39.576559 42.611177 
L 39.804945 43.47642 
L 40.05256 44.341662 
L 40.317404 45.206904 
L 40.59685 46.072146 
L 40.88772 46.937388 
L 41.186396 47.80263 
L 41.488967 48.667873 
L 41.791402 49.533115 
L 42.089745 50.398357 
L 42.380314 51.263599 
L 42.659895 52.128841 
L 42.925921 52.994083 
L 43.176614 53.859326 
L 43.411096 54.724568 
L 43.629434 55.58981 
L 43.832641 56.455052 
L 44.02261 57.320294 
L 44.201984 58.185536 
L 44.373983 59.050778 
L 44.542173 59.916021 
L 44.710211 60.781263 
L 44.881576 61.646505 
L 45.059299 62.511747 
L 45.245733 63.376989 
L 45.442364 64.242231 
L 45.64969 65.107474 
L 45.867195 65.972716 
L 46.093397 66.837958 
L 46.326005 67.7032 
L 46.562138 68.568442 
L 46.798621 69.433684 
L 47.032299 70.298926 
L 47.260367 71.164169 
L 47.480651 72.029411 
L 47.691825 72.894653 
L 47.893538 73.759895 
L 48.086413 74.625137 
L 48.271937 75.490379 
L 48.45223 76.355622 
L 48.62973 77.220864 
L 48.80681 78.086106 
L 48.985381 78.951348 
L 49.166524 79.81659 
L 49.350175 80.681832 
L 49.534925 81.547075 
L 49.717937 82.412317 
L 49.894999 83.277559 
L 50.060709 84.142801 
L 50.208773 85.008043 
L 50.332393 85.873285 
L 50.424687 86.738527 
L 50.479139 87.60377 
L 50.49 88.469012 
L 50.452635 89.334254 
L 50.363779 90.199496 
L 50.221688 91.064738 
L 50.026189 91.92998 
L 49.778617 92.795223 
L 49.48168 93.660465 
L 49.139242 94.525707 
L 48.756075 95.390949 
L 48.337583 96.256191 
L 47.889533 97.121433 
L 47.417806 97.986675 
L 46.928183 98.851918 
L 46.426184 99.71716 
L 45.916947 100.582402 
L 45.405161 101.447644 
L 44.895047 102.312886 
L 44.390365 103.178128 
L 43.89446 104.043371 
L 43.410309 104.908613 
L 42.94058 105.773855 
L 42.48768 106.639097 
L 42.053792 107.504339 
L 41.640888 108.369581 
L 41.250729 109.234824 
L 40.884845 110.100066 
L 40.544492 110.965308 
L 40.23062 111.83055 
L 39.943827 112.695792 
L 39.684325 113.561034 
L 39.451922 114.426276 
L 39.246021 115.291519 
L 39.065636 116.156761 
L 38.909433 117.022003 
L 38.775781 117.887245 
L 38.662822 118.752487 
L 38.568546 119.617729 
L 38.490863 120.482972 
z
" clip-path="url(#pe33921e00e)" style="fill: #b69595; fill-opacity: 0.35"/>
   </g>
   <g id="PolyCollection_2">
    <path d="M 63.200447 123.12 
L 62.331553 123.12 
L 62.200215 122.101818 
L 62.037715 121.083636 
L 61.83934 120.065455 
L 61.60042 119.047273 
L 61.316553 118.029091 
L 60.98388 117.010909 
L 60.599378 115.992727 
L 60.161176 114.974545 
L 59.668852 113.956364 
L 59.123714 112.938182 
L 58.529016 111.92 
L 57.8901 110.901818 
L 57.214442 109.883636 
L 56.511568 108.865455 
L 55.792856 107.847273 
L 55.071197 106.829091 
L 54.360538 105.810909 
L 53.67533 104.792727 
L 53.029892 103.774545 
L 52.43775 102.756364 
L 51.910978 101.738182 
L 51.459602 100.72 
L 51.091091 99.701818 
L 50.809996 98.683636 
L 50.617747 97.665455 
L 50.512639 96.647273 
L 50.49 95.629091 
L 50.542537 94.610909 
L 50.660825 93.592727 
L 50.833913 92.574545 
L 51.049994 91.556364 
L 51.297095 90.538182 
L 51.563732 89.52 
L 51.839497 88.501818 
L 52.115534 87.483636 
L 52.384874 86.465455 
L 52.64263 85.447273 
L 52.88604 84.429091 
L 53.11437 83.410909 
L 53.328696 82.392727 
L 53.531591 81.374545 
L 53.726749 80.356364 
L 53.918564 79.338182 
L 54.111711 78.32 
L 54.310744 77.301818 
L 54.519733 76.283636 
L 54.741968 75.265455 
L 54.97973 74.247273 
L 55.234149 73.229091 
L 55.505142 72.210909 
L 55.791435 71.192727 
L 56.090654 70.174545 
L 56.399489 69.156364 
L 56.713893 68.138182 
L 57.029333 67.12 
L 57.341035 66.101818 
L 57.644249 65.083636 
L 57.934482 64.065455 
L 58.207706 63.047273 
L 58.460531 62.029091 
L 58.690329 61.010909 
L 58.895311 59.992727 
L 59.074565 58.974545 
L 59.228047 57.956364 
L 59.35655 56.938182 
L 59.461633 55.92 
L 59.545542 54.901818 
L 59.611109 53.883636 
L 59.661645 52.865455 
L 59.700814 51.847273 
L 59.732514 50.829091 
L 59.760735 49.810909 
L 59.789423 48.792727 
L 59.82233 47.774545 
L 59.862877 46.756364 
L 59.914009 45.738182 
L 59.978081 44.72 
L 60.056749 43.701818 
L 60.150908 42.683636 
L 60.260658 41.665455 
L 60.385312 40.647273 
L 60.523452 39.629091 
L 60.673019 38.610909 
L 60.831444 37.592727 
L 60.995796 36.574545 
L 61.162955 35.556364 
L 61.329776 34.538182 
L 61.493254 33.52 
L 61.650658 32.501818 
L 61.799646 31.483636 
L 61.938339 30.465455 
L 62.065367 29.447273 
L 62.179871 28.429091 
L 62.281484 27.410909 
L 62.370278 26.392727 
L 62.446701 25.374545 
L 62.511496 24.356364 
L 62.565623 23.338182 
L 62.610179 22.32 
L 62.921821 22.32 
L 62.921821 22.32 
L 62.966377 23.338182 
L 63.020504 24.356364 
L 63.085299 25.374545 
L 63.161722 26.392727 
L 63.250516 27.410909 
L 63.352129 28.429091 
L 63.466633 29.447273 
L 63.593661 30.465455 
L 63.732354 31.483636 
L 63.881342 32.501818 
L 64.038746 33.52 
L 64.202224 34.538182 
L 64.369045 35.556364 
L 64.536204 36.574545 
L 64.700556 37.592727 
L 64.858981 38.610909 
L 65.008548 39.629091 
L 65.146688 40.647273 
L 65.271342 41.665455 
L 65.381092 42.683636 
L 65.475251 43.701818 
L 65.553919 44.72 
L 65.617991 45.738182 
L 65.669123 46.756364 
L 65.70967 47.774545 
L 65.742577 48.792727 
L 65.771265 49.810909 
L 65.799486 50.829091 
L 65.831186 51.847273 
L 65.870355 52.865455 
L 65.920891 53.883636 
L 65.986458 54.901818 
L 66.070367 55.92 
L 66.17545 56.938182 
L 66.303953 57.956364 
L 66.457435 58.974545 
L 66.636689 59.992727 
L 66.841671 61.010909 
L 67.071469 62.029091 
L 67.324294 63.047273 
L 67.597518 64.065455 
L 67.887751 65.083636 
L 68.190965 66.101818 
L 68.502667 67.12 
L 68.818107 68.138182 
L 69.132511 69.156364 
L 69.441346 70.174545 
L 69.740565 71.192727 
L 70.026858 72.210909 
L 70.297851 73.229091 
L 70.55227 74.247273 
L 70.790032 75.265455 
L 71.012267 76.283636 
L 71.221256 77.301818 
L 71.420289 78.32 
L 71.613436 79.338182 
L 71.805251 80.356364 
L 72.000409 81.374545 
L 72.203304 82.392727 
L 72.41763 83.410909 
L 72.64596 84.429091 
L 72.88937 85.447273 
L 73.147126 86.465455 
L 73.416466 87.483636 
L 73.692503 88.501818 
L 73.968268 89.52 
L 74.234905 90.538182 
L 74.482006 91.556364 
L 74.698087 92.574545 
L 74.871175 93.592727 
L 74.989463 94.610909 
L 75.042 95.629091 
L 75.019361 96.647273 
L 74.914253 97.665455 
L 74.722004 98.683636 
L 74.440909 99.701818 
L 74.072398 100.72 
L 73.621022 101.738182 
L 73.09425 102.756364 
L 72.502108 103.774545 
L 71.85667 104.792727 
L 71.171462 105.810909 
L 70.460803 106.829091 
L 69.739144 107.847273 
L 69.020432 108.865455 
L 68.317558 109.883636 
L 67.6419 110.901818 
L 67.002984 111.92 
L 66.408286 112.938182 
L 65.863148 113.956364 
L 65.370824 114.974545 
L 64.932622 115.992727 
L 64.54812 117.010909 
L 64.215447 118.029091 
L 63.93158 119.047273 
L 63.69266 120.065455 
L 63.494285 121.083636 
L 63.331785 122.101818 
L 63.200447 123.12 
z
" clip-path="url(#pe33921e00e)" style="fill: #74808c; fill-opacity: 0.35"/>
   </g>
   <g id="PolyCollection_3">
    <path d="M 99.821501 119.956487 
L 99.366499 119.956487 
L 99.291903 119.110186 
L 99.197252 118.263886 
L 99.078641 117.417585 
L 98.931864 116.571284 
L 98.752523 115.724984 
L 98.53619 114.878683 
L 98.27861 114.032383 
L 97.975949 113.186082 
L 97.625067 112.339782 
L 97.223823 111.493481 
L 96.771375 110.64718 
L 96.268457 109.80088 
L 95.717617 108.954579 
L 95.123373 108.108279 
L 94.492273 107.261978 
L 93.832838 106.415678 
L 93.155359 105.569377 
L 92.471564 104.723076 
L 91.794157 103.876776 
L 91.136236 103.030475 
L 90.510647 102.184175 
L 89.929295 101.337874 
L 89.402482 100.491574 
L 88.938306 99.645273 
L 88.542189 98.798973 
L 88.216563 97.952672 
L 87.960757 97.106371 
L 87.771084 96.260071 
L 87.641151 95.41377 
L 87.562342 94.56747 
L 87.524466 93.721169 
L 87.516497 92.874869 
L 87.527364 92.028568 
L 87.546719 91.182267 
L 87.565628 90.335967 
L 87.577118 89.489666 
L 87.576562 88.643366 
L 87.561848 87.797065 
L 87.533351 86.950765 
L 87.493693 86.104464 
L 87.447345 85.258163 
L 87.400095 84.411863 
L 87.358452 83.565562 
L 87.329033 82.719262 
L 87.318 81.872961 
L 87.330597 81.026661 
L 87.370819 80.18036 
L 87.441244 79.334059 
L 87.543025 78.487759 
L 87.676021 77.641458 
L 87.839046 76.795158 
L 88.030191 75.948857 
L 88.247156 75.102557 
L 88.48756 74.256256 
L 88.749183 73.409955 
L 89.030108 72.563655 
L 89.328752 71.717354 
L 89.643795 70.871054 
L 89.974018 70.024753 
L 90.318097 69.178453 
L 90.674373 68.332152 
L 91.040665 67.485851 
L 91.414137 66.639551 
L 91.791268 65.79325 
L 92.167924 64.94695 
L 92.539545 64.100649 
L 92.901411 63.254349 
L 93.248981 62.408048 
L 93.578251 61.561747 
L 93.886088 60.715447 
L 94.170517 59.869146 
L 94.430903 59.022846 
L 94.668023 58.176545 
L 94.884013 57.330245 
L 95.082184 56.483944 
L 95.266744 55.637643 
L 95.442435 54.791343 
L 95.61413 53.945042 
L 95.786438 53.098742 
L 95.963332 52.252441 
L 96.147853 51.406141 
L 96.341912 50.55984 
L 96.546188 49.713539 
L 96.76014 48.867239 
L 96.982122 48.020938 
L 97.209576 47.174638 
L 97.439278 46.328337 
L 97.667627 45.482037 
L 97.890928 44.635736 
L 98.105652 43.789435 
L 98.30866 42.943135 
L 98.497373 42.096834 
L 98.66987 41.250534 
L 98.824939 40.404233 
L 98.962059 39.557933 
L 99.081345 38.711632 
L 99.183457 37.865331 
L 99.269482 37.019031 
L 99.340819 36.17273 
L 99.847181 36.17273 
L 99.847181 36.17273 
L 99.918518 37.019031 
L 100.004543 37.865331 
L 100.106655 38.711632 
L 100.225941 39.557933 
L 100.363061 40.404233 
L 100.51813 41.250534 
L 100.690627 42.096834 
L 100.87934 42.943135 
L 101.082348 43.789435 
L 101.297072 44.635736 
L 101.520373 45.482037 
L 101.748722 46.328337 
L 101.978424 47.174638 
L 102.205878 48.020938 
L 102.42786 48.867239 
L 102.641812 49.713539 
L 102.846088 50.55984 
L 103.040147 51.406141 
L 103.224668 52.252441 
L 103.401562 53.098742 
L 103.57387 53.945042 
L 103.745565 54.791343 
L 103.921256 55.637643 
L 104.105816 56.483944 
L 104.303987 57.330245 
L 104.519977 58.176545 
L 104.757097 59.022846 
L 105.017483 59.869146 
L 105.301912 60.715447 
L 105.609749 61.561747 
L 105.939019 62.408048 
L 106.286589 63.254349 
L 106.648455 64.100649 
L 107.020076 64.94695 
L 107.396732 65.79325 
L 107.773863 66.639551 
L 108.147335 67.485851 
L 108.513627 68.332152 
L 108.869903 69.178453 
L 109.213982 70.024753 
L 109.544205 70.871054 
L 109.859248 71.717354 
L 110.157892 72.563655 
L 110.438817 73.409955 
L 110.70044 74.256256 
L 110.940844 75.102557 
L 111.157809 75.948857 
L 111.348954 76.795158 
L 111.511979 77.641458 
L 111.644975 78.487759 
L 111.746756 79.334059 
L 111.817181 80.18036 
L 111.857403 81.026661 
L 111.87 81.872961 
L 111.858967 82.719262 
L 111.829548 83.565562 
L 111.787905 84.411863 
L 111.740655 85.258163 
L 111.694307 86.104464 
L 111.654649 86.950765 
L 111.626152 87.797065 
L 111.611438 88.643366 
L 111.610882 89.489666 
L 111.622372 90.335967 
L 111.641281 91.182267 
L 111.660636 92.028568 
L 111.671503 92.874869 
L 111.663534 93.721169 
L 111.625658 94.56747 
L 111.546849 95.41377 
L 111.416916 96.260071 
L 111.227243 97.106371 
L 110.971437 97.952672 
L 110.645811 98.798973 
L 110.249694 99.645273 
L 109.785518 100.491574 
L 109.258705 101.337874 
L 108.677353 102.184175 
L 108.051764 103.030475 
L 107.393843 103.876776 
L 106.716436 104.723076 
L 106.032641 105.569377 
L 105.355162 106.415678 
L 104.695727 107.261978 
L 104.064627 108.108279 
L 103.470383 108.954579 
L 102.919543 109.80088 
L 102.416625 110.64718 
L 101.964177 111.493481 
L 101.562933 112.339782 
L 101.212051 113.186082 
L 100.90939 114.032383 
L 100.65181 114.878683 
L 100.435477 115.724984 
L 100.256136 116.571284 
L 100.109359 117.417585 
L 99.990748 118.263886 
L 99.896097 119.110186 
L 99.821501 119.956487 
z
" clip-path="url(#pe33921e00e)" style="fill: #b69595; fill-opacity: 0.35"/>
   </g>
   <g id="PolyCollection_4">
    <path d="M 124.493107 118.096563 
L 123.798893 118.096563 
L 123.6791 117.196476 
L 123.526815 116.296389 
L 123.336334 115.396302 
L 123.101915 114.496214 
L 122.818087 113.596127 
L 122.480013 112.69604 
L 122.083896 111.795953 
L 121.627396 110.895866 
L 121.110025 109.995779 
L 120.53349 109.095691 
L 119.901938 108.195604 
L 119.222085 107.295517 
L 118.503188 106.39543 
L 117.756863 105.495343 
L 116.996742 104.595255 
L 116.237976 103.695168 
L 115.496641 102.795081 
L 114.789051 101.894994 
L 114.131051 100.994907 
L 113.537332 100.094819 
L 113.020806 99.194732 
L 112.592092 98.294645 
L 112.259126 97.394558 
L 112.026933 96.494471 
L 111.897532 95.594384 
L 111.87 94.694296 
L 111.940651 93.794209 
L 112.103323 92.894122 
L 112.349745 91.994035 
L 112.66995 91.093948 
L 113.052722 90.19386 
L 113.486058 89.293773 
L 113.95762 88.393686 
L 114.455164 87.493599 
L 114.966956 86.593512 
L 115.482132 85.693424 
L 115.991019 84.793337 
L 116.485394 83.89325 
L 116.958675 82.993163 
L 117.406035 82.093076 
L 117.824424 81.192989 
L 118.212514 80.292901 
L 118.570547 79.392814 
L 118.900112 78.492727 
L 119.203858 77.59264 
L 119.485158 76.692553 
L 119.747761 75.792465 
L 119.995443 74.892378 
L 120.23169 73.992291 
L 120.459436 73.092204 
L 120.680865 72.192117 
L 120.897297 71.292029 
L 121.109149 70.391942 
L 121.315984 69.491855 
L 121.516617 68.591768 
L 121.70928 67.691681 
L 121.891827 66.791594 
L 122.061942 65.891506 
L 122.217357 64.991419 
L 122.356047 64.091332 
L 122.476393 63.191245 
L 122.577308 62.291158 
L 122.658311 61.39107 
L 122.719567 60.490983 
L 122.761877 59.590896 
L 122.786637 58.690809 
L 122.795766 57.790722 
L 122.79162 56.890635 
L 122.776891 55.990547 
L 122.754501 55.09046 
L 122.727495 54.190373 
L 122.69894 53.290286 
L 122.671823 52.390199 
L 122.648953 51.490111 
L 122.632875 50.590024 
L 122.625786 49.689937 
L 122.629455 48.78985 
L 122.645168 47.889763 
L 122.673677 46.989675 
L 122.715177 46.089588 
L 122.769307 45.189501 
L 122.835174 44.289414 
L 122.911408 43.389327 
L 122.996246 42.48924 
L 123.087622 41.589152 
L 123.183292 40.689065 
L 123.280949 39.788978 
L 123.37834 38.888891 
L 123.47338 37.988804 
L 123.564236 37.088716 
L 123.649399 36.188629 
L 123.727719 35.288542 
L 123.798427 34.388455 
L 123.861116 33.488368 
L 123.915717 32.58828 
L 123.962447 31.688193 
L 124.001754 30.788106 
L 124.034254 29.888019 
L 124.060673 28.987932 
L 124.231327 28.987932 
L 124.231327 28.987932 
L 124.257746 29.888019 
L 124.290246 30.788106 
L 124.329553 31.688193 
L 124.376283 32.58828 
L 124.430884 33.488368 
L 124.493573 34.388455 
L 124.564281 35.288542 
L 124.642601 36.188629 
L 124.727764 37.088716 
L 124.81862 37.988804 
L 124.91366 38.888891 
L 125.011051 39.788978 
L 125.108708 40.689065 
L 125.204378 41.589152 
L 125.295754 42.48924 
L 125.380592 43.389327 
L 125.456826 44.289414 
L 125.522693 45.189501 
L 125.576823 46.089588 
L 125.618323 46.989675 
L 125.646832 47.889763 
L 125.662545 48.78985 
L 125.666214 49.689937 
L 125.659125 50.590024 
L 125.643047 51.490111 
L 125.620177 52.390199 
L 125.59306 53.290286 
L 125.564505 54.190373 
L 125.537499 55.09046 
L 125.515109 55.990547 
L 125.50038 56.890635 
L 125.496234 57.790722 
L 125.505363 58.690809 
L 125.530123 59.590896 
L 125.572433 60.490983 
L 125.633689 61.39107 
L 125.714692 62.291158 
L 125.815607 63.191245 
L 125.935953 64.091332 
L 126.074643 64.991419 
L 126.230058 65.891506 
L 126.400173 66.791594 
L 126.58272 67.691681 
L 126.775383 68.591768 
L 126.976016 69.491855 
L 127.182851 70.391942 
L 127.394703 71.292029 
L 127.611135 72.192117 
L 127.832564 73.092204 
L 128.06031 73.992291 
L 128.296557 74.892378 
L 128.544239 75.792465 
L 128.806842 76.692553 
L 129.088142 77.59264 
L 129.391888 78.492727 
L 129.721453 79.392814 
L 130.079486 80.292901 
L 130.467576 81.192989 
L 130.885965 82.093076 
L 131.333325 82.993163 
L 131.806606 83.89325 
L 132.300981 84.793337 
L 132.809868 85.693424 
L 133.325044 86.593512 
L 133.836836 87.493599 
L 134.33438 88.393686 
L 134.805942 89.293773 
L 135.239278 90.19386 
L 135.62205 91.093948 
L 135.942255 91.994035 
L 136.188677 92.894122 
L 136.351349 93.794209 
L 136.422 94.694296 
L 136.394468 95.594384 
L 136.265067 96.494471 
L 136.032874 97.394558 
L 135.699908 98.294645 
L 135.271194 99.194732 
L 134.754668 100.094819 
L 134.160949 100.994907 
L 133.502949 101.894994 
L 132.795359 102.795081 
L 132.054024 103.695168 
L 131.295258 104.595255 
L 130.535137 105.495343 
L 129.788812 106.39543 
L 129.069915 107.295517 
L 128.390062 108.195604 
L 127.75851 109.095691 
L 127.181975 109.995779 
L 126.664604 110.895866 
L 126.208104 111.795953 
L 125.811987 112.69604 
L 125.473913 113.596127 
L 125.190085 114.496214 
L 124.955666 115.396302 
L 124.765185 116.296389 
L 124.6129 117.196476 
L 124.493107 118.096563 
z
" clip-path="url(#pe33921e00e)" style="fill: #74808c; fill-opacity: 0.35"/>
   </g>
   <g id="patch_3">
    <path d="M 25.938 112.187878 
L 50.49 112.187878 
L 50.49 80.309977 
L 25.938 80.309977 
L 25.938 112.187878 
z
" clip-path="url(#pe33921e00e)" style="fill: none"/>
   </g>
   <g id="patch_4">
    <path d="M 87.318 112.187878 
L 111.87 112.187878 
L 111.87 81.864996 
L 87.318 81.864996 
L 87.318 112.187878 
z
" clip-path="url(#pe33921e00e)" style="fill: none"/>
   </g>
   <g id="patch_5">
    <path d="M 50.49 112.187878 
L 75.042 112.187878 
L 75.042 83.272176 
L 50.49 83.272176 
L 50.49 112.187878 
z
" clip-path="url(#pe33921e00e)" style="fill: none"/>
   </g>
   <g id="patch_6">
    <path d="M 111.87 112.187878 
L 136.422 112.187878 
L 136.422 87.374277 
L 111.87 87.374277 
L 111.87 112.187878 
z
" clip-path="url(#pe33921e00e)" style="fill: none"/>
   </g>
   <g id="patch_7">
    <path d="M 50.49 112.187878 
L 50.49 112.187878 
L 50.49 112.187878 
L 50.49 112.187878 
z
" clip-path="url(#pe33921e00e)" style="fill: #3274a1"/>
   </g>
   <g id="patch_8">
    <path d="M 50.49 112.187878 
L 50.49 112.187878 
L 50.49 112.187878 
L 50.49 112.187878 
z
" clip-path="url(#pe33921e00e)" style="fill: #e1812c"/>
   </g>
   <g id="matplotlib.axis_1">
    <g id="xtick_1">
     <g id="line2d_1">
      <defs>
       <path id="m08aca91204" d="M 0 0 
L 0 3.5 
" style="stroke: #000000; stroke-width: 1.5"/>
      </defs>
      <g>
       <use xlink:href="#m08aca91204" x="50.49" y="128.16" style="stroke: #000000; stroke-width: 1.5"/>
      </g>
     </g>
     <g id="text_1">
      <!-- HC -->
      <g transform="translate(43.268125 142.317813) scale(0.1 -0.1)">
       <defs>
        <path id="Arial-BoldMT-48" d="M 469 0 
L 469 4581 
L 1394 4581 
L 1394 2778 
L 3206 2778 
L 3206 4581 
L 4131 4581 
L 4131 0 
L 3206 0 
L 3206 2003 
L 1394 2003 
L 1394 0 
L 469 0 
z
" transform="scale(0.015625)"/>
        <path id="Arial-BoldMT-43" d="M 3397 1684 
L 4294 1400 
Q 4088 650 3608 286 
Q 3128 -78 2391 -78 
Q 1478 -78 890 545 
Q 303 1169 303 2250 
Q 303 3394 893 4026 
Q 1484 4659 2447 4659 
Q 3288 4659 3813 4163 
Q 4125 3869 4281 3319 
L 3366 3100 
Q 3284 3456 3026 3662 
Q 2769 3869 2400 3869 
Q 1891 3869 1573 3503 
Q 1256 3138 1256 2319 
Q 1256 1450 1568 1081 
Q 1881 713 2381 713 
Q 2750 713 3015 947 
Q 3281 1181 3397 1684 
z
" transform="scale(0.015625)"/>
       </defs>
       <use xlink:href="#Arial-BoldMT-48"/>
       <use xlink:href="#Arial-BoldMT-43" x="72.216797"/>
      </g>
     </g>
    </g>
    <g id="xtick_2">
     <g id="line2d_2">
      <g>
       <use xlink:href="#m08aca91204" x="111.87" y="128.16" style="stroke: #000000; stroke-width: 1.5"/>
      </g>
     </g>
     <g id="text_2">
      <!-- ND -->
      <g transform="translate(104.648125 142.317813) scale(0.1 -0.1)">
       <defs>
        <path id="Arial-BoldMT-4e" d="M 475 0 
L 475 4581 
L 1375 4581 
L 3250 1522 
L 3250 4581 
L 4109 4581 
L 4109 0 
L 3181 0 
L 1334 2988 
L 1334 0 
L 475 0 
z
" transform="scale(0.015625)"/>
        <path id="Arial-BoldMT-44" d="M 463 4581 
L 2153 4581 
Q 2725 4581 3025 4494 
Q 3428 4375 3715 4072 
Q 4003 3769 4153 3330 
Q 4303 2891 4303 2247 
Q 4303 1681 4163 1272 
Q 3991 772 3672 463 
Q 3431 228 3022 97 
Q 2716 0 2203 0 
L 463 0 
L 463 4581 
z
M 1388 3806 
L 1388 772 
L 2078 772 
Q 2466 772 2638 816 
Q 2863 872 3011 1006 
Q 3159 1141 3253 1448 
Q 3347 1756 3347 2288 
Q 3347 2819 3253 3103 
Q 3159 3388 2990 3547 
Q 2822 3706 2563 3763 
Q 2369 3806 1803 3806 
L 1388 3806 
z
" transform="scale(0.015625)"/>
       </defs>
       <use xlink:href="#Arial-BoldMT-4e"/>
       <use xlink:href="#Arial-BoldMT-44" x="72.216797"/>
      </g>
     </g>
    </g>
   </g>
   <g id="matplotlib.axis_2">
    <g id="ytick_1">
     <g id="line2d_3">
      <defs>
       <path id="ma20e7dd36f" d="M 0 0 
L -3.5 0 
" style="stroke: #000000; stroke-width: 1.5"/>
      </defs>
      <g>
       <use xlink:href="#ma20e7dd36f" x="19.8" y="112.187878" style="stroke: #000000; stroke-width: 1.5"/>
      </g>
     </g>
     <g id="text_3">
      <!-- 0.0 -->
      <g transform="translate(-1.1 115.766785) scale(0.1 -0.1)">
       <defs>
        <path id="Arial-BoldMT-30" d="M 1756 4600 
Q 2422 4600 2797 4125 
Q 3244 3563 3244 2259 
Q 3244 959 2794 391 
Q 2422 -78 1756 -78 
Q 1088 -78 678 436 
Q 269 950 269 2269 
Q 269 3563 719 4131 
Q 1091 4600 1756 4600 
z
M 1756 3872 
Q 1597 3872 1472 3770 
Q 1347 3669 1278 3406 
Q 1188 3066 1188 2259 
Q 1188 1453 1269 1151 
Q 1350 850 1473 750 
Q 1597 650 1756 650 
Q 1916 650 2041 751 
Q 2166 853 2234 1116 
Q 2325 1453 2325 2259 
Q 2325 3066 2244 3367 
Q 2163 3669 2039 3770 
Q 1916 3872 1756 3872 
z
" transform="scale(0.015625)"/>
        <path id="Arial-BoldMT-2e" d="M 459 0 
L 459 878 
L 1338 878 
L 1338 0 
L 459 0 
z
" transform="scale(0.015625)"/>
       </defs>
       <use xlink:href="#Arial-BoldMT-30"/>
       <use xlink:href="#Arial-BoldMT-2e" x="55.615234"/>
       <use xlink:href="#Arial-BoldMT-30" x="83.398438"/>
      </g>
     </g>
    </g>
    <g id="ytick_2">
     <g id="line2d_4">
      <g>
       <use xlink:href="#ma20e7dd36f" x="19.8" y="71.075505" style="stroke: #000000; stroke-width: 1.5"/>
      </g>
     </g>
     <g id="text_4">
      <!-- 0.5 -->
      <g transform="translate(-1.1 74.654411) scale(0.1 -0.1)">
       <defs>
        <path id="Arial-BoldMT-35" d="M 284 1178 
L 1159 1269 
Q 1197 972 1381 798 
Q 1566 625 1806 625 
Q 2081 625 2272 848 
Q 2463 1072 2463 1522 
Q 2463 1944 2273 2155 
Q 2084 2366 1781 2366 
Q 1403 2366 1103 2031 
L 391 2134 
L 841 4519 
L 3163 4519 
L 3163 3697 
L 1506 3697 
L 1369 2919 
Q 1663 3066 1969 3066 
Q 2553 3066 2959 2641 
Q 3366 2216 3366 1538 
Q 3366 972 3038 528 
Q 2591 -78 1797 -78 
Q 1163 -78 763 262 
Q 363 603 284 1178 
z
" transform="scale(0.015625)"/>
       </defs>
       <use xlink:href="#Arial-BoldMT-30"/>
       <use xlink:href="#Arial-BoldMT-2e" x="55.615234"/>
       <use xlink:href="#Arial-BoldMT-35" x="83.398438"/>
      </g>
     </g>
    </g>
    <g id="ytick_3">
     <g id="line2d_5">
      <g>
       <use xlink:href="#ma20e7dd36f" x="19.8" y="29.963132" style="stroke: #000000; stroke-width: 1.5"/>
      </g>
     </g>
     <g id="text_5">
      <!-- 1.0 -->
      <g transform="translate(-1.1 33.542038) scale(0.1 -0.1)">
       <defs>
        <path id="Arial-BoldMT-31" d="M 2519 0 
L 1641 0 
L 1641 3309 
Q 1159 2859 506 2644 
L 506 3441 
Q 850 3553 1253 3867 
Q 1656 4181 1806 4600 
L 2519 4600 
L 2519 0 
z
" transform="scale(0.015625)"/>
       </defs>
       <use xlink:href="#Arial-BoldMT-31"/>
       <use xlink:href="#Arial-BoldMT-2e" x="55.615234"/>
       <use xlink:href="#Arial-BoldMT-30" x="83.398438"/>
      </g>
     </g>
    </g>
    <g id="text_6">
     <!--  MB weight (w) -->
     <g transform="translate(-18.045 107.712969) rotate(-90) scale(0.1 -0.1)">
      <defs>
       <path id="Arial-BoldMT-20" transform="scale(0.015625)"/>
       <path id="Arial-BoldMT-4d" d="M 453 0 
L 453 4581 
L 1838 4581 
L 2669 1456 
L 3491 4581 
L 4878 4581 
L 4878 0 
L 4019 0 
L 4019 3606 
L 3109 0 
L 2219 0 
L 1313 3606 
L 1313 0 
L 453 0 
z
" transform="scale(0.015625)"/>
       <path id="Arial-BoldMT-42" d="M 469 4581 
L 2300 4581 
Q 2844 4581 3111 4536 
Q 3378 4491 3589 4347 
Q 3800 4203 3940 3964 
Q 4081 3725 4081 3428 
Q 4081 3106 3907 2837 
Q 3734 2569 3438 2434 
Q 3856 2313 4081 2019 
Q 4306 1725 4306 1328 
Q 4306 1016 4161 720 
Q 4016 425 3764 248 
Q 3513 72 3144 31 
Q 2913 6 2028 0 
L 469 0 
L 469 4581 
z
M 1394 3819 
L 1394 2759 
L 2000 2759 
Q 2541 2759 2672 2775 
Q 2909 2803 3045 2939 
Q 3181 3075 3181 3297 
Q 3181 3509 3064 3642 
Q 2947 3775 2716 3803 
Q 2578 3819 1925 3819 
L 1394 3819 
z
M 1394 1997 
L 1394 772 
L 2250 772 
Q 2750 772 2884 800 
Q 3091 838 3220 983 
Q 3350 1128 3350 1372 
Q 3350 1578 3250 1722 
Q 3150 1866 2961 1931 
Q 2772 1997 2141 1997 
L 1394 1997 
z
" transform="scale(0.015625)"/>
       <path id="Arial-BoldMT-77" d="M 1078 0 
L 28 3319 
L 881 3319 
L 1503 1144 
L 2075 3319 
L 2922 3319 
L 3475 1144 
L 4109 3319 
L 4975 3319 
L 3909 0 
L 3066 0 
L 2494 2134 
L 1931 0 
L 1078 0 
z
" transform="scale(0.015625)"/>
       <path id="Arial-BoldMT-65" d="M 2381 1056 
L 3256 909 
Q 3088 428 2723 176 
Q 2359 -75 1813 -75 
Q 947 -75 531 491 
Q 203 944 203 1634 
Q 203 2459 634 2926 
Q 1066 3394 1725 3394 
Q 2466 3394 2894 2905 
Q 3322 2416 3303 1406 
L 1103 1406 
Q 1113 1016 1316 798 
Q 1519 581 1822 581 
Q 2028 581 2168 693 
Q 2309 806 2381 1056 
z
M 2431 1944 
Q 2422 2325 2234 2523 
Q 2047 2722 1778 2722 
Q 1491 2722 1303 2513 
Q 1116 2303 1119 1944 
L 2431 1944 
z
" transform="scale(0.015625)"/>
       <path id="Arial-BoldMT-69" d="M 459 3769 
L 459 4581 
L 1338 4581 
L 1338 3769 
L 459 3769 
z
M 459 0 
L 459 3319 
L 1338 3319 
L 1338 0 
L 459 0 
z
" transform="scale(0.015625)"/>
       <path id="Arial-BoldMT-67" d="M 378 -219 
L 1381 -341 
Q 1406 -516 1497 -581 
Q 1622 -675 1891 -675 
Q 2234 -675 2406 -572 
Q 2522 -503 2581 -350 
Q 2622 -241 2622 53 
L 2622 538 
Q 2228 0 1628 0 
Q 959 0 569 566 
Q 263 1013 263 1678 
Q 263 2513 664 2953 
Q 1066 3394 1663 3394 
Q 2278 3394 2678 2853 
L 2678 3319 
L 3500 3319 
L 3500 341 
Q 3500 -247 3403 -537 
Q 3306 -828 3131 -993 
Q 2956 -1159 2664 -1253 
Q 2372 -1347 1925 -1347 
Q 1081 -1347 728 -1058 
Q 375 -769 375 -325 
Q 375 -281 378 -219 
z
M 1163 1728 
Q 1163 1200 1367 954 
Q 1572 709 1872 709 
Q 2194 709 2416 961 
Q 2638 1213 2638 1706 
Q 2638 2222 2425 2472 
Q 2213 2722 1888 2722 
Q 1572 2722 1367 2476 
Q 1163 2231 1163 1728 
z
" transform="scale(0.015625)"/>
       <path id="Arial-BoldMT-68" d="M 1334 4581 
L 1334 2897 
Q 1759 3394 2350 3394 
Q 2653 3394 2897 3281 
Q 3141 3169 3264 2994 
Q 3388 2819 3433 2606 
Q 3478 2394 3478 1947 
L 3478 0 
L 2600 0 
L 2600 1753 
Q 2600 2275 2550 2415 
Q 2500 2556 2373 2639 
Q 2247 2722 2056 2722 
Q 1838 2722 1666 2615 
Q 1494 2509 1414 2295 
Q 1334 2081 1334 1663 
L 1334 0 
L 456 0 
L 456 4581 
L 1334 4581 
z
" transform="scale(0.015625)"/>
       <path id="Arial-BoldMT-74" d="M 1981 3319 
L 1981 2619 
L 1381 2619 
L 1381 1281 
Q 1381 875 1398 808 
Q 1416 741 1477 697 
Q 1538 653 1625 653 
Q 1747 653 1978 738 
L 2053 56 
Q 1747 -75 1359 -75 
Q 1122 -75 931 4 
Q 741 84 652 211 
Q 563 338 528 553 
Q 500 706 500 1172 
L 500 2619 
L 97 2619 
L 97 3319 
L 500 3319 
L 500 3978 
L 1381 4491 
L 1381 3319 
L 1981 3319 
z
" transform="scale(0.015625)"/>
       <path id="Arial-BoldMT-28" d="M 1916 -1347 
L 1313 -1347 
Q 834 -625 584 153 
Q 334 931 334 1659 
Q 334 2563 644 3369 
Q 913 4069 1325 4659 
L 1925 4659 
Q 1497 3713 1336 3048 
Q 1175 2384 1175 1641 
Q 1175 1128 1270 590 
Q 1366 53 1531 -431 
Q 1641 -750 1916 -1347 
z
" transform="scale(0.015625)"/>
       <path id="Arial-BoldMT-29" d="M 216 -1347 
Q 475 -791 581 -494 
Q 688 -197 778 190 
Q 869 578 912 926 
Q 956 1275 956 1641 
Q 956 2384 797 3048 
Q 638 3713 209 4659 
L 806 4659 
Q 1278 3988 1539 3234 
Q 1800 2481 1800 1706 
Q 1800 1053 1594 306 
Q 1359 -531 822 -1347 
L 216 -1347 
z
" transform="scale(0.015625)"/>
      </defs>
      <use xlink:href="#Arial-BoldMT-20"/>
      <use xlink:href="#Arial-BoldMT-4d" x="27.783203"/>
      <use xlink:href="#Arial-BoldMT-42" x="111.083984"/>
      <use xlink:href="#Arial-BoldMT-20" x="183.300781"/>
      <use xlink:href="#Arial-BoldMT-77" x="211.083984"/>
      <use xlink:href="#Arial-BoldMT-65" x="288.867188"/>
      <use xlink:href="#Arial-BoldMT-69" x="344.482422"/>
      <use xlink:href="#Arial-BoldMT-67" x="372.265625"/>
      <use xlink:href="#Arial-BoldMT-68" x="433.349609"/>
      <use xlink:href="#Arial-BoldMT-74" x="494.433594"/>
      <use xlink:href="#Arial-BoldMT-20" x="527.734375"/>
      <use xlink:href="#Arial-BoldMT-28" x="555.517578"/>
      <use xlink:href="#Arial-BoldMT-77" x="588.818359"/>
      <use xlink:href="#Arial-BoldMT-29" x="666.601562"/>
     </g>
     <!--   (a.u.) -->
     <g transform="translate(-7.204688 87.440313) rotate(-90) scale(0.1 -0.1)">
      <defs>
       <path id="Arial-BoldMT-61" d="M 1116 2306 
L 319 2450 
Q 453 2931 781 3162 
Q 1109 3394 1756 3394 
Q 2344 3394 2631 3255 
Q 2919 3116 3036 2902 
Q 3153 2688 3153 2116 
L 3144 1091 
Q 3144 653 3186 445 
Q 3228 238 3344 0 
L 2475 0 
Q 2441 88 2391 259 
Q 2369 338 2359 363 
Q 2134 144 1878 34 
Q 1622 -75 1331 -75 
Q 819 -75 523 203 
Q 228 481 228 906 
Q 228 1188 362 1408 
Q 497 1628 739 1745 
Q 981 1863 1438 1950 
Q 2053 2066 2291 2166 
L 2291 2253 
Q 2291 2506 2166 2614 
Q 2041 2722 1694 2722 
Q 1459 2722 1328 2630 
Q 1197 2538 1116 2306 
z
M 2291 1594 
Q 2122 1538 1756 1459 
Q 1391 1381 1278 1306 
Q 1106 1184 1106 997 
Q 1106 813 1243 678 
Q 1381 544 1594 544 
Q 1831 544 2047 700 
Q 2206 819 2256 991 
Q 2291 1103 2291 1419 
L 2291 1594 
z
" transform="scale(0.015625)"/>
       <path id="Arial-BoldMT-75" d="M 2644 0 
L 2644 497 
Q 2463 231 2167 78 
Q 1872 -75 1544 -75 
Q 1209 -75 943 72 
Q 678 219 559 484 
Q 441 750 441 1219 
L 441 3319 
L 1319 3319 
L 1319 1794 
Q 1319 1094 1367 936 
Q 1416 778 1544 686 
Q 1672 594 1869 594 
Q 2094 594 2272 717 
Q 2450 841 2515 1023 
Q 2581 1206 2581 1919 
L 2581 3319 
L 3459 3319 
L 3459 0 
L 2644 0 
z
" transform="scale(0.015625)"/>
      </defs>
      <use xlink:href="#Arial-BoldMT-20"/>
      <use xlink:href="#Arial-BoldMT-20" x="27.783203"/>
      <use xlink:href="#Arial-BoldMT-28" x="55.566406"/>
      <use xlink:href="#Arial-BoldMT-61" x="88.867188"/>
      <use xlink:href="#Arial-BoldMT-2e" x="144.482422"/>
      <use xlink:href="#Arial-BoldMT-75" x="172.265625"/>
      <use xlink:href="#Arial-BoldMT-2e" x="233.349609"/>
      <use xlink:href="#Arial-BoldMT-29" x="261.132812"/>
     </g>
    </g>
   </g>
   <g id="PathCollection_1">
    <defs>
     <path id="C0_0_65a38e1c9c" d="M 0 3.5 
C 0.928211 3.5 1.81853 3.131218 2.474874 2.474874 
C 3.131218 1.81853 3.5 0.928211 3.5 -0 
C 3.5 -0.928211 3.131218 -1.81853 2.474874 -2.474874 
C 1.81853 -3.131218 0.928211 -3.5 0 -3.5 
C -0.928211 -3.5 -1.81853 -3.131218 -2.474874 -2.474874 
C -3.131218 -1.81853 -3.5 -0.928211 -3.5 0 
C -3.5 0.928211 -3.131218 1.81853 -2.474874 2.474874 
C -1.81853 3.131218 -0.928211 3.5 0 3.5 
z
"/>
    </defs>
    <g clip-path="url(#pe33921e00e)">
     <use xlink:href="#C0_0_65a38e1c9c" x="38.370762" y="88.342702" style="fill: #bc8f8f; fill-opacity: 0.7"/>
    </g>
    <g clip-path="url(#pe33921e00e)">
     <use xlink:href="#C0_0_65a38e1c9c" x="40.091006" y="75.186742" style="fill: #bc8f8f; fill-opacity: 0.7"/>
    </g>
    <g clip-path="url(#pe33921e00e)">
     <use xlink:href="#C0_0_65a38e1c9c" x="40.773298" y="63.675278" style="fill: #bc8f8f; fill-opacity: 0.7"/>
    </g>
    <g clip-path="url(#pe33921e00e)">
     <use xlink:href="#C0_0_65a38e1c9c" x="40.147661" y="91.631692" style="fill: #bc8f8f; fill-opacity: 0.7"/>
    </g>
    <g clip-path="url(#pe33921e00e)">
     <use xlink:href="#C0_0_65a38e1c9c" x="35.521939" y="74.364495" style="fill: #bc8f8f; fill-opacity: 0.7"/>
    </g>
    <g clip-path="url(#pe33921e00e)">
     <use xlink:href="#C0_0_65a38e1c9c" x="37.85768" y="72.72" style="fill: #bc8f8f; fill-opacity: 0.7"/>
    </g>
    <g clip-path="url(#pe33921e00e)">
     <use xlink:href="#C0_0_65a38e1c9c" x="41.263647" y="49.697071" style="fill: #bc8f8f; fill-opacity: 0.7"/>
    </g>
    <g clip-path="url(#pe33921e00e)">
     <use xlink:href="#C0_0_65a38e1c9c" x="40.249276" y="51.341566" style="fill: #bc8f8f; fill-opacity: 0.7"/>
    </g>
    <g clip-path="url(#pe33921e00e)">
     <use xlink:href="#C0_0_65a38e1c9c" x="35.662904" y="89.164949" style="fill: #bc8f8f; fill-opacity: 0.7"/>
    </g>
    <g clip-path="url(#pe33921e00e)">
     <use xlink:href="#C0_0_65a38e1c9c" x="35.862221" y="57.097298" style="fill: #bc8f8f; fill-opacity: 0.7"/>
    </g>
    <g clip-path="url(#pe33921e00e)">
     <use xlink:href="#C0_0_65a38e1c9c" x="36.86003" y="88.342702" style="fill: #bc8f8f; fill-opacity: 0.7"/>
    </g>
    <g clip-path="url(#pe33921e00e)">
     <use xlink:href="#C0_0_65a38e1c9c" x="41.145331" y="96.565177" style="fill: #bc8f8f; fill-opacity: 0.7"/>
    </g>
    <g clip-path="url(#pe33921e00e)">
     <use xlink:href="#C0_0_65a38e1c9c" x="36.048796" y="68.608763" style="fill: #bc8f8f; fill-opacity: 0.7"/>
    </g>
    <g clip-path="url(#pe33921e00e)">
     <use xlink:href="#C0_0_65a38e1c9c" x="37.865785" y="85.875959" style="fill: #bc8f8f; fill-opacity: 0.7"/>
    </g>
    <g clip-path="url(#pe33921e00e)">
     <use xlink:href="#C0_0_65a38e1c9c" x="39.779927" y="81.764722" style="fill: #bc8f8f; fill-opacity: 0.7"/>
    </g>
    <g clip-path="url(#pe33921e00e)">
     <use xlink:href="#C0_0_65a38e1c9c" x="36.282712" y="55.452803" style="fill: #bc8f8f; fill-opacity: 0.7"/>
    </g>
    <g clip-path="url(#pe33921e00e)">
     <use xlink:href="#C0_0_65a38e1c9c" x="36.899155" y="73.542247" style="fill: #bc8f8f; fill-opacity: 0.7"/>
    </g>
    <g clip-path="url(#pe33921e00e)">
     <use xlink:href="#C0_0_65a38e1c9c" x="38.117086" y="75.186742" style="fill: #bc8f8f; fill-opacity: 0.7"/>
    </g>
    <g clip-path="url(#pe33921e00e)">
     <use xlink:href="#C0_0_65a38e1c9c" x="35.915804" y="81.764722" style="fill: #bc8f8f; fill-opacity: 0.7"/>
    </g>
    <g clip-path="url(#pe33921e00e)">
     <use xlink:href="#C0_0_65a38e1c9c" x="39.352578" y="94.920682" style="fill: #bc8f8f; fill-opacity: 0.7"/>
    </g>
    <g clip-path="url(#pe33921e00e)">
     <use xlink:href="#C0_0_65a38e1c9c" x="39.680184" y="71.897753" style="fill: #bc8f8f; fill-opacity: 0.7"/>
    </g>
    <g clip-path="url(#pe33921e00e)">
     <use xlink:href="#C0_0_65a38e1c9c" x="37.147186" y="97.387424" style="fill: #bc8f8f; fill-opacity: 0.7"/>
    </g>
    <g clip-path="url(#pe33921e00e)">
     <use xlink:href="#C0_0_65a38e1c9c" x="39.7788" y="88.342702" style="fill: #bc8f8f; fill-opacity: 0.7"/>
    </g>
    <g clip-path="url(#pe33921e00e)">
     <use xlink:href="#C0_0_65a38e1c9c" x="39.960425" y="86.698207" style="fill: #bc8f8f; fill-opacity: 0.7"/>
    </g>
    <g clip-path="url(#pe33921e00e)">
     <use xlink:href="#C0_0_65a38e1c9c" x="41.272957" y="61.208535" style="fill: #bc8f8f; fill-opacity: 0.7"/>
    </g>
    <g clip-path="url(#pe33921e00e)">
     <use xlink:href="#C0_0_65a38e1c9c" x="35.464419" y="96.565177" style="fill: #bc8f8f; fill-opacity: 0.7"/>
    </g>
    <g clip-path="url(#pe33921e00e)">
     <use xlink:href="#C0_0_65a38e1c9c" x="36.125208" y="62.030783" style="fill: #bc8f8f; fill-opacity: 0.7"/>
    </g>
    <g clip-path="url(#pe33921e00e)">
     <use xlink:href="#C0_0_65a38e1c9c" x="39.621386" y="69.43101" style="fill: #bc8f8f; fill-opacity: 0.7"/>
    </g>
    <g clip-path="url(#pe33921e00e)">
     <use xlink:href="#C0_0_65a38e1c9c" x="38.715489" y="55.452803" style="fill: #bc8f8f; fill-opacity: 0.7"/>
    </g>
    <g clip-path="url(#pe33921e00e)">
     <use xlink:href="#C0_0_65a38e1c9c" x="35.992571" y="88.342702" style="fill: #bc8f8f; fill-opacity: 0.7"/>
    </g>
    <g clip-path="url(#pe33921e00e)">
     <use xlink:href="#C0_0_65a38e1c9c" x="40.523552" y="98.209671" style="fill: #bc8f8f; fill-opacity: 0.7"/>
    </g>
    <g clip-path="url(#pe33921e00e)">
     <use xlink:href="#C0_0_65a38e1c9c" x="35.841288" y="80.942475" style="fill: #bc8f8f; fill-opacity: 0.7"/>
    </g>
    <g clip-path="url(#pe33921e00e)">
     <use xlink:href="#C0_0_65a38e1c9c" x="38.828892" y="90.809444" style="fill: #bc8f8f; fill-opacity: 0.7"/>
    </g>
    <g clip-path="url(#pe33921e00e)">
     <use xlink:href="#C0_0_65a38e1c9c" x="39.839501" y="105.609899" style="fill: #bc8f8f; fill-opacity: 0.7"/>
    </g>
    <g clip-path="url(#pe33921e00e)">
     <use xlink:href="#C0_0_65a38e1c9c" x="40.151682" y="105.609899" style="fill: #bc8f8f; fill-opacity: 0.7"/>
    </g>
    <g clip-path="url(#pe33921e00e)">
     <use xlink:href="#C0_0_65a38e1c9c" x="37.762761" y="94.098434" style="fill: #bc8f8f; fill-opacity: 0.7"/>
    </g>
    <g clip-path="url(#pe33921e00e)">
     <use xlink:href="#C0_0_65a38e1c9c" x="37.144565" y="103.143156" style="fill: #bc8f8f; fill-opacity: 0.7"/>
    </g>
    <g clip-path="url(#pe33921e00e)">
     <use xlink:href="#C0_0_65a38e1c9c" x="35.577338" y="85.875959" style="fill: #bc8f8f; fill-opacity: 0.7"/>
    </g>
    <g clip-path="url(#pe33921e00e)">
     <use xlink:href="#C0_0_65a38e1c9c" x="35.783948" y="75.186742" style="fill: #bc8f8f; fill-opacity: 0.7"/>
    </g>
   </g>
   <g id="PathCollection_2">
    <defs>
     <path id="C1_0_dd65520759" d="M 0 3.5 
C 0.928211 3.5 1.81853 3.131218 2.474874 2.474874 
C 3.131218 1.81853 3.5 0.928211 3.5 -0 
C 3.5 -0.928211 3.131218 -1.81853 2.474874 -2.474874 
C 1.81853 -3.131218 0.928211 -3.5 0 -3.5 
C -0.928211 -3.5 -1.81853 -3.131218 -2.474874 -2.474874 
C -3.131218 -1.81853 -3.5 -0.928211 -3.5 0 
C -3.5 0.928211 -3.131218 1.81853 -2.474874 2.474874 
C -1.81853 3.131218 -0.928211 3.5 0 3.5 
z
"/>
    </defs>
    <g clip-path="url(#pe33921e00e)">
     <use xlink:href="#C1_0_dd65520759" x="64.310037" y="94.920682" style="fill: #708090; fill-opacity: 0.7"/>
    </g>
    <g clip-path="url(#pe33921e00e)">
     <use xlink:href="#C1_0_dd65520759" x="60.827712" y="84.231465" style="fill: #708090; fill-opacity: 0.7"/>
    </g>
    <g clip-path="url(#pe33921e00e)">
     <use xlink:href="#C1_0_dd65520759" x="62.062585" y="95.742929" style="fill: #708090; fill-opacity: 0.7"/>
    </g>
    <g clip-path="url(#pe33921e00e)">
     <use xlink:href="#C1_0_dd65520759" x="61.162908" y="89.987197" style="fill: #708090; fill-opacity: 0.7"/>
    </g>
    <g clip-path="url(#pe33921e00e)">
     <use xlink:href="#C1_0_dd65520759" x="64.691144" y="92.453939" style="fill: #708090; fill-opacity: 0.7"/>
    </g>
    <g clip-path="url(#pe33921e00e)">
     <use xlink:href="#C1_0_dd65520759" x="61.986291" y="96.565177" style="fill: #708090; fill-opacity: 0.7"/>
    </g>
    <g clip-path="url(#pe33921e00e)">
     <use xlink:href="#C1_0_dd65520759" x="60.729926" y="102.320909" style="fill: #708090; fill-opacity: 0.7"/>
    </g>
    <g clip-path="url(#pe33921e00e)">
     <use xlink:href="#C1_0_dd65520759" x="62.277461" y="85.053712" style="fill: #708090; fill-opacity: 0.7"/>
    </g>
    <g clip-path="url(#pe33921e00e)">
     <use xlink:href="#C1_0_dd65520759" x="65.109204" y="81.764722" style="fill: #708090; fill-opacity: 0.7"/>
    </g>
    <g clip-path="url(#pe33921e00e)">
     <use xlink:href="#C1_0_dd65520759" x="65.33773" y="78.475732" style="fill: #708090; fill-opacity: 0.7"/>
    </g>
    <g clip-path="url(#pe33921e00e)">
     <use xlink:href="#C1_0_dd65520759" x="63.962404" y="102.320909" style="fill: #708090; fill-opacity: 0.7"/>
    </g>
    <g clip-path="url(#pe33921e00e)">
     <use xlink:href="#C1_0_dd65520759" x="64.326892" y="39.830101" style="fill: #708090; fill-opacity: 0.7"/>
    </g>
    <g clip-path="url(#pe33921e00e)">
     <use xlink:href="#C1_0_dd65520759" x="64.001067" y="93.276187" style="fill: #708090; fill-opacity: 0.7"/>
    </g>
    <g clip-path="url(#pe33921e00e)">
     <use xlink:href="#C1_0_dd65520759" x="64.477779" y="76.00899" style="fill: #708090; fill-opacity: 0.7"/>
    </g>
    <g clip-path="url(#pe33921e00e)">
     <use xlink:href="#C1_0_dd65520759" x="63.314493" y="104.787651" style="fill: #708090; fill-opacity: 0.7"/>
    </g>
    <g clip-path="url(#pe33921e00e)">
     <use xlink:href="#C1_0_dd65520759" x="61.661215" y="99.031919" style="fill: #708090; fill-opacity: 0.7"/>
    </g>
    <g clip-path="url(#pe33921e00e)">
     <use xlink:href="#C1_0_dd65520759" x="61.851586" y="105.609899" style="fill: #708090; fill-opacity: 0.7"/>
    </g>
    <g clip-path="url(#pe33921e00e)">
     <use xlink:href="#C1_0_dd65520759" x="64.852387" y="55.452803" style="fill: #708090; fill-opacity: 0.7"/>
    </g>
    <g clip-path="url(#pe33921e00e)">
     <use xlink:href="#C1_0_dd65520759" x="63.032287" y="78.475732" style="fill: #708090; fill-opacity: 0.7"/>
    </g>
    <g clip-path="url(#pe33921e00e)">
     <use xlink:href="#C1_0_dd65520759" x="61.415401" y="98.209671" style="fill: #708090; fill-opacity: 0.7"/>
    </g>
    <g clip-path="url(#pe33921e00e)">
     <use xlink:href="#C1_0_dd65520759" x="62.309073" y="75.186742" style="fill: #708090; fill-opacity: 0.7"/>
    </g>
    <g clip-path="url(#pe33921e00e)">
     <use xlink:href="#C1_0_dd65520759" x="60.979734" y="99.854166" style="fill: #708090; fill-opacity: 0.7"/>
    </g>
    <g clip-path="url(#pe33921e00e)">
     <use xlink:href="#C1_0_dd65520759" x="64.281962" y="73.542247" style="fill: #708090; fill-opacity: 0.7"/>
    </g>
    <g clip-path="url(#pe33921e00e)">
     <use xlink:href="#C1_0_dd65520759" x="62.488009" y="82.58697" style="fill: #708090; fill-opacity: 0.7"/>
    </g>
    <g clip-path="url(#pe33921e00e)">
     <use xlink:href="#C1_0_dd65520759" x="60.547172" y="48.052576" style="fill: #708090; fill-opacity: 0.7"/>
    </g>
    <g clip-path="url(#pe33921e00e)">
     <use xlink:href="#C1_0_dd65520759" x="61.05809" y="90.809444" style="fill: #708090; fill-opacity: 0.7"/>
    </g>
    <g clip-path="url(#pe33921e00e)">
     <use xlink:href="#C1_0_dd65520759" x="65.183213" y="97.387424" style="fill: #708090; fill-opacity: 0.7"/>
    </g>
    <g clip-path="url(#pe33921e00e)">
     <use xlink:href="#C1_0_dd65520759" x="60.991274" y="72.72" style="fill: #708090; fill-opacity: 0.7"/>
    </g>
    <g clip-path="url(#pe33921e00e)">
     <use xlink:href="#C1_0_dd65520759" x="61.849106" y="84.231465" style="fill: #708090; fill-opacity: 0.7"/>
    </g>
    <g clip-path="url(#pe33921e00e)">
     <use xlink:href="#C1_0_dd65520759" x="61.885146" y="105.609899" style="fill: #708090; fill-opacity: 0.7"/>
    </g>
    <g clip-path="url(#pe33921e00e)">
     <use xlink:href="#C1_0_dd65520759" x="65.821489" y="99.854166" style="fill: #708090; fill-opacity: 0.7"/>
    </g>
    <g clip-path="url(#pe33921e00e)">
     <use xlink:href="#C1_0_dd65520759" x="62.313372" y="95.742929" style="fill: #708090; fill-opacity: 0.7"/>
    </g>
    <g clip-path="url(#pe33921e00e)">
     <use xlink:href="#C1_0_dd65520759" x="63.071062" y="96.565177" style="fill: #708090; fill-opacity: 0.7"/>
    </g>
    <g clip-path="url(#pe33921e00e)">
     <use xlink:href="#C1_0_dd65520759" x="62.870147" y="42.296844" style="fill: #708090; fill-opacity: 0.7"/>
    </g>
    <g clip-path="url(#pe33921e00e)">
     <use xlink:href="#C1_0_dd65520759" x="63.16667" y="71.075505" style="fill: #708090; fill-opacity: 0.7"/>
    </g>
    <g clip-path="url(#pe33921e00e)">
     <use xlink:href="#C1_0_dd65520759" x="60.155397" y="57.919546" style="fill: #708090; fill-opacity: 0.7"/>
    </g>
    <g clip-path="url(#pe33921e00e)">
     <use xlink:href="#C1_0_dd65520759" x="60.782222" y="71.075505" style="fill: #708090; fill-opacity: 0.7"/>
    </g>
    <g clip-path="url(#pe33921e00e)">
     <use xlink:href="#C1_0_dd65520759" x="63.400102" y="65.319773" style="fill: #708090; fill-opacity: 0.7"/>
    </g>
    <g clip-path="url(#pe33921e00e)">
     <use xlink:href="#C1_0_dd65520759" x="60.78512" y="44.763586" style="fill: #708090; fill-opacity: 0.7"/>
    </g>
    <g clip-path="url(#pe33921e00e)">
     <use xlink:href="#C1_0_dd65520759" x="60.079217" y="99.854166" style="fill: #708090; fill-opacity: 0.7"/>
    </g>
    <g clip-path="url(#pe33921e00e)">
     <use xlink:href="#C1_0_dd65520759" x="65.331078" y="100.676414" style="fill: #708090; fill-opacity: 0.7"/>
    </g>
    <g clip-path="url(#pe33921e00e)">
     <use xlink:href="#C1_0_dd65520759" x="65.598916" y="67.786515" style="fill: #708090; fill-opacity: 0.7"/>
    </g>
   </g>
   <g id="PathCollection_3">
    <defs>
     <path id="C2_0_2c56c9b554" d="M 0 3.5 
C 0.928211 3.5 1.81853 3.131218 2.474874 2.474874 
C 3.131218 1.81853 3.5 0.928211 3.5 -0 
C 3.5 -0.928211 3.131218 -1.81853 2.474874 -2.474874 
C 1.81853 -3.131218 0.928211 -3.5 0 -3.5 
C -0.928211 -3.5 -1.81853 -3.131218 -2.474874 -2.474874 
C -3.131218 -1.81853 -3.5 -0.928211 -3.5 0 
C -3.5 0.928211 -3.131218 1.81853 -2.474874 2.474874 
C -1.81853 3.131218 -0.928211 3.5 0 3.5 
z
"/>
    </defs>
    <g clip-path="url(#pe33921e00e)">
     <use xlink:href="#C2_0_2c56c9b554" x="102.638968" y="71.897753" style="fill: #bc8f8f; fill-opacity: 0.7"/>
    </g>
    <g clip-path="url(#pe33921e00e)">
     <use xlink:href="#C2_0_2c56c9b554" x="100.739405" y="84.231465" style="fill: #bc8f8f; fill-opacity: 0.7"/>
    </g>
    <g clip-path="url(#pe33921e00e)">
     <use xlink:href="#C2_0_2c56c9b554" x="101.975917" y="76.00899" style="fill: #bc8f8f; fill-opacity: 0.7"/>
    </g>
    <g clip-path="url(#pe33921e00e)">
     <use xlink:href="#C2_0_2c56c9b554" x="100.605596" y="74.364495" style="fill: #bc8f8f; fill-opacity: 0.7"/>
    </g>
    <g clip-path="url(#pe33921e00e)">
     <use xlink:href="#C2_0_2c56c9b554" x="100.290904" y="93.276187" style="fill: #bc8f8f; fill-opacity: 0.7"/>
    </g>
    <g clip-path="url(#pe33921e00e)">
     <use xlink:href="#C2_0_2c56c9b554" x="100.094491" y="100.676414" style="fill: #bc8f8f; fill-opacity: 0.7"/>
    </g>
    <g clip-path="url(#pe33921e00e)">
     <use xlink:href="#C2_0_2c56c9b554" x="97.011107" y="51.341566" style="fill: #bc8f8f; fill-opacity: 0.7"/>
    </g>
    <g clip-path="url(#pe33921e00e)">
     <use xlink:href="#C2_0_2c56c9b554" x="98.406062" y="83.409217" style="fill: #bc8f8f; fill-opacity: 0.7"/>
    </g>
    <g clip-path="url(#pe33921e00e)">
     <use xlink:href="#C2_0_2c56c9b554" x="101.288163" y="82.58697" style="fill: #bc8f8f; fill-opacity: 0.7"/>
    </g>
    <g clip-path="url(#pe33921e00e)">
     <use xlink:href="#C2_0_2c56c9b554" x="99.75844" y="67.786515" style="fill: #bc8f8f; fill-opacity: 0.7"/>
    </g>
    <g clip-path="url(#pe33921e00e)">
     <use xlink:href="#C2_0_2c56c9b554" x="100.446026" y="99.031919" style="fill: #bc8f8f; fill-opacity: 0.7"/>
    </g>
    <g clip-path="url(#pe33921e00e)">
     <use xlink:href="#C2_0_2c56c9b554" x="99.812584" y="80.120227" style="fill: #bc8f8f; fill-opacity: 0.7"/>
    </g>
    <g clip-path="url(#pe33921e00e)">
     <use xlink:href="#C2_0_2c56c9b554" x="101.008945" y="86.698207" style="fill: #bc8f8f; fill-opacity: 0.7"/>
    </g>
    <g clip-path="url(#pe33921e00e)">
     <use xlink:href="#C2_0_2c56c9b554" x="99.05122" y="80.942475" style="fill: #bc8f8f; fill-opacity: 0.7"/>
    </g>
    <g clip-path="url(#pe33921e00e)">
     <use xlink:href="#C2_0_2c56c9b554" x="97.341735" y="80.120227" style="fill: #bc8f8f; fill-opacity: 0.7"/>
    </g>
    <g clip-path="url(#pe33921e00e)">
     <use xlink:href="#C2_0_2c56c9b554" x="99.115194" y="94.920682" style="fill: #bc8f8f; fill-opacity: 0.7"/>
    </g>
    <g clip-path="url(#pe33921e00e)">
     <use xlink:href="#C2_0_2c56c9b554" x="100.279111" y="98.209671" style="fill: #bc8f8f; fill-opacity: 0.7"/>
    </g>
    <g clip-path="url(#pe33921e00e)">
     <use xlink:href="#C2_0_2c56c9b554" x="99.777994" y="69.43101" style="fill: #bc8f8f; fill-opacity: 0.7"/>
    </g>
    <g clip-path="url(#pe33921e00e)">
     <use xlink:href="#C2_0_2c56c9b554" x="99.688381" y="56.275051" style="fill: #bc8f8f; fill-opacity: 0.7"/>
    </g>
    <g clip-path="url(#pe33921e00e)">
     <use xlink:href="#C2_0_2c56c9b554" x="101.561251" y="77.653485" style="fill: #bc8f8f; fill-opacity: 0.7"/>
    </g>
    <g clip-path="url(#pe33921e00e)">
     <use xlink:href="#C2_0_2c56c9b554" x="100.938463" y="98.209671" style="fill: #bc8f8f; fill-opacity: 0.7"/>
    </g>
    <g clip-path="url(#pe33921e00e)">
     <use xlink:href="#C2_0_2c56c9b554" x="101.770757" y="79.29798" style="fill: #bc8f8f; fill-opacity: 0.7"/>
    </g>
    <g clip-path="url(#pe33921e00e)">
     <use xlink:href="#C2_0_2c56c9b554" x="101.947198" y="81.764722" style="fill: #bc8f8f; fill-opacity: 0.7"/>
    </g>
    <g clip-path="url(#pe33921e00e)">
     <use xlink:href="#C2_0_2c56c9b554" x="98.377046" y="105.609899" style="fill: #bc8f8f; fill-opacity: 0.7"/>
    </g>
    <g clip-path="url(#pe33921e00e)">
     <use xlink:href="#C2_0_2c56c9b554" x="102.170266" y="99.031919" style="fill: #bc8f8f; fill-opacity: 0.7"/>
    </g>
    <g clip-path="url(#pe33921e00e)">
     <use xlink:href="#C2_0_2c56c9b554" x="99.27946" y="99.854166" style="fill: #bc8f8f; fill-opacity: 0.7"/>
    </g>
    <g clip-path="url(#pe33921e00e)">
     <use xlink:href="#C2_0_2c56c9b554" x="97.459014" y="89.164949" style="fill: #bc8f8f; fill-opacity: 0.7"/>
    </g>
    <g clip-path="url(#pe33921e00e)">
     <use xlink:href="#C2_0_2c56c9b554" x="100.182303" y="52.986061" style="fill: #bc8f8f; fill-opacity: 0.7"/>
    </g>
    <g clip-path="url(#pe33921e00e)">
     <use xlink:href="#C2_0_2c56c9b554" x="101.137386" y="50.519318" style="fill: #bc8f8f; fill-opacity: 0.7"/>
    </g>
    <g clip-path="url(#pe33921e00e)">
     <use xlink:href="#C2_0_2c56c9b554" x="96.710678" y="89.987197" style="fill: #bc8f8f; fill-opacity: 0.7"/>
    </g>
    <g clip-path="url(#pe33921e00e)">
     <use xlink:href="#C2_0_2c56c9b554" x="101.304939" y="93.276187" style="fill: #bc8f8f; fill-opacity: 0.7"/>
    </g>
    <g clip-path="url(#pe33921e00e)">
     <use xlink:href="#C2_0_2c56c9b554" x="101.618679" y="66.14202" style="fill: #bc8f8f; fill-opacity: 0.7"/>
    </g>
    <g clip-path="url(#pe33921e00e)">
     <use xlink:href="#C2_0_2c56c9b554" x="100.629408" y="93.276187" style="fill: #bc8f8f; fill-opacity: 0.7"/>
    </g>
    <g clip-path="url(#pe33921e00e)">
     <use xlink:href="#C2_0_2c56c9b554" x="98.603732" y="99.031919" style="fill: #bc8f8f; fill-opacity: 0.7"/>
    </g>
    <g clip-path="url(#pe33921e00e)">
     <use xlink:href="#C2_0_2c56c9b554" x="100.043298" y="66.964268" style="fill: #bc8f8f; fill-opacity: 0.7"/>
    </g>
    <g clip-path="url(#pe33921e00e)">
     <use xlink:href="#C2_0_2c56c9b554" x="102.104776" y="97.387424" style="fill: #bc8f8f; fill-opacity: 0.7"/>
    </g>
    <g clip-path="url(#pe33921e00e)">
     <use xlink:href="#C2_0_2c56c9b554" x="99.672823" y="63.675278" style="fill: #bc8f8f; fill-opacity: 0.7"/>
    </g>
    <g clip-path="url(#pe33921e00e)">
     <use xlink:href="#C2_0_2c56c9b554" x="97.339877" y="71.075505" style="fill: #bc8f8f; fill-opacity: 0.7"/>
    </g>
    <g clip-path="url(#pe33921e00e)">
     <use xlink:href="#C2_0_2c56c9b554" x="100.645864" y="80.942475" style="fill: #bc8f8f; fill-opacity: 0.7"/>
    </g>
    <g clip-path="url(#pe33921e00e)">
     <use xlink:href="#C2_0_2c56c9b554" x="101.089985" y="67.786515" style="fill: #bc8f8f; fill-opacity: 0.7"/>
    </g>
    <g clip-path="url(#pe33921e00e)">
     <use xlink:href="#C2_0_2c56c9b554" x="100.595442" y="101.498661" style="fill: #bc8f8f; fill-opacity: 0.7"/>
    </g>
   </g>
   <g id="PathCollection_4">
    <defs>
     <path id="C3_0_ab32ed9ca7" d="M 0 3.5 
C 0.928211 3.5 1.81853 3.131218 2.474874 2.474874 
C 3.131218 1.81853 3.5 0.928211 3.5 -0 
C 3.5 -0.928211 3.131218 -1.81853 2.474874 -2.474874 
C 1.81853 -3.131218 0.928211 -3.5 0 -3.5 
C -0.928211 -3.5 -1.81853 -3.131218 -2.474874 -2.474874 
C -3.131218 -1.81853 -3.5 -0.928211 -3.5 0 
C -3.5 0.928211 -3.131218 1.81853 -2.474874 2.474874 
C -1.81853 3.131218 -0.928211 3.5 0 3.5 
z
"/>
    </defs>
    <g clip-path="url(#pe33921e00e)">
     <use xlink:href="#C3_0_ab32ed9ca7" x="122.798877" y="69.43101" style="fill: #708090; fill-opacity: 0.7"/>
    </g>
    <g clip-path="url(#pe33921e00e)">
     <use xlink:href="#C3_0_ab32ed9ca7" x="124.864165" y="99.854166" style="fill: #708090; fill-opacity: 0.7"/>
    </g>
    <g clip-path="url(#pe33921e00e)">
     <use xlink:href="#C3_0_ab32ed9ca7" x="124.543155" y="93.276187" style="fill: #708090; fill-opacity: 0.7"/>
    </g>
    <g clip-path="url(#pe33921e00e)">
     <use xlink:href="#C3_0_ab32ed9ca7" x="122.972822" y="89.164949" style="fill: #708090; fill-opacity: 0.7"/>
    </g>
    <g clip-path="url(#pe33921e00e)">
     <use xlink:href="#C3_0_ab32ed9ca7" x="126.897058" y="95.742929" style="fill: #708090; fill-opacity: 0.7"/>
    </g>
    <g clip-path="url(#pe33921e00e)">
     <use xlink:href="#C3_0_ab32ed9ca7" x="122.556767" y="76.831237" style="fill: #708090; fill-opacity: 0.7"/>
    </g>
    <g clip-path="url(#pe33921e00e)">
     <use xlink:href="#C3_0_ab32ed9ca7" x="123.679524" y="85.053712" style="fill: #708090; fill-opacity: 0.7"/>
    </g>
    <g clip-path="url(#pe33921e00e)">
     <use xlink:href="#C3_0_ab32ed9ca7" x="126.48743" y="57.097298" style="fill: #708090; fill-opacity: 0.7"/>
    </g>
    <g clip-path="url(#pe33921e00e)">
     <use xlink:href="#C3_0_ab32ed9ca7" x="121.863017" y="89.164949" style="fill: #708090; fill-opacity: 0.7"/>
    </g>
    <g clip-path="url(#pe33921e00e)">
     <use xlink:href="#C3_0_ab32ed9ca7" x="124.019615" y="99.031919" style="fill: #708090; fill-opacity: 0.7"/>
    </g>
    <g clip-path="url(#pe33921e00e)">
     <use xlink:href="#C3_0_ab32ed9ca7" x="125.460795" y="101.498661" style="fill: #708090; fill-opacity: 0.7"/>
    </g>
    <g clip-path="url(#pe33921e00e)">
     <use xlink:href="#C3_0_ab32ed9ca7" x="121.763225" y="103.143156" style="fill: #708090; fill-opacity: 0.7"/>
    </g>
    <g clip-path="url(#pe33921e00e)">
     <use xlink:href="#C3_0_ab32ed9ca7" x="125.880657" y="99.031919" style="fill: #708090; fill-opacity: 0.7"/>
    </g>
    <g clip-path="url(#pe33921e00e)">
     <use xlink:href="#C3_0_ab32ed9ca7" x="126.846995" y="102.320909" style="fill: #708090; fill-opacity: 0.7"/>
    </g>
    <g clip-path="url(#pe33921e00e)">
     <use xlink:href="#C3_0_ab32ed9ca7" x="123.284198" y="74.364495" style="fill: #708090; fill-opacity: 0.7"/>
    </g>
    <g clip-path="url(#pe33921e00e)">
     <use xlink:href="#C3_0_ab32ed9ca7" x="124.066965" y="87.520454" style="fill: #708090; fill-opacity: 0.7"/>
    </g>
    <g clip-path="url(#pe33921e00e)">
     <use xlink:href="#C3_0_ab32ed9ca7" x="126.114364" y="101.498661" style="fill: #708090; fill-opacity: 0.7"/>
    </g>
    <g clip-path="url(#pe33921e00e)">
     <use xlink:href="#C3_0_ab32ed9ca7" x="123.511369" y="93.276187" style="fill: #708090; fill-opacity: 0.7"/>
    </g>
    <g clip-path="url(#pe33921e00e)">
     <use xlink:href="#C3_0_ab32ed9ca7" x="125.249423" y="95.742929" style="fill: #708090; fill-opacity: 0.7"/>
    </g>
    <g clip-path="url(#pe33921e00e)">
     <use xlink:href="#C3_0_ab32ed9ca7" x="122.928512" y="90.809444" style="fill: #708090; fill-opacity: 0.7"/>
    </g>
    <g clip-path="url(#pe33921e00e)">
     <use xlink:href="#C3_0_ab32ed9ca7" x="124.076557" y="94.920682" style="fill: #708090; fill-opacity: 0.7"/>
    </g>
    <g clip-path="url(#pe33921e00e)">
     <use xlink:href="#C3_0_ab32ed9ca7" x="125.291035" y="100.676414" style="fill: #708090; fill-opacity: 0.7"/>
    </g>
    <g clip-path="url(#pe33921e00e)">
     <use xlink:href="#C3_0_ab32ed9ca7" x="122.940023" y="95.742929" style="fill: #708090; fill-opacity: 0.7"/>
    </g>
    <g clip-path="url(#pe33921e00e)">
     <use xlink:href="#C3_0_ab32ed9ca7" x="127.132847" y="94.920682" style="fill: #708090; fill-opacity: 0.7"/>
    </g>
    <g clip-path="url(#pe33921e00e)">
     <use xlink:href="#C3_0_ab32ed9ca7" x="123.539553" y="94.098434" style="fill: #708090; fill-opacity: 0.7"/>
    </g>
    <g clip-path="url(#pe33921e00e)">
     <use xlink:href="#C3_0_ab32ed9ca7" x="121.476192" y="89.164949" style="fill: #708090; fill-opacity: 0.7"/>
    </g>
    <g clip-path="url(#pe33921e00e)">
     <use xlink:href="#C3_0_ab32ed9ca7" x="122.502352" y="94.098434" style="fill: #708090; fill-opacity: 0.7"/>
    </g>
    <g clip-path="url(#pe33921e00e)">
     <use xlink:href="#C3_0_ab32ed9ca7" x="123.414111" y="85.053712" style="fill: #708090; fill-opacity: 0.7"/>
    </g>
    <g clip-path="url(#pe33921e00e)">
     <use xlink:href="#C3_0_ab32ed9ca7" x="125.03923" y="90.809444" style="fill: #708090; fill-opacity: 0.7"/>
    </g>
    <g clip-path="url(#pe33921e00e)">
     <use xlink:href="#C3_0_ab32ed9ca7" x="124.659831" y="103.965404" style="fill: #708090; fill-opacity: 0.7"/>
    </g>
    <g clip-path="url(#pe33921e00e)">
     <use xlink:href="#C3_0_ab32ed9ca7" x="124.131344" y="75.186742" style="fill: #708090; fill-opacity: 0.7"/>
    </g>
    <g clip-path="url(#pe33921e00e)">
     <use xlink:href="#C3_0_ab32ed9ca7" x="125.064964" y="98.209671" style="fill: #708090; fill-opacity: 0.7"/>
    </g>
    <g clip-path="url(#pe33921e00e)">
     <use xlink:href="#C3_0_ab32ed9ca7" x="122.585654" y="100.676414" style="fill: #708090; fill-opacity: 0.7"/>
    </g>
    <g clip-path="url(#pe33921e00e)">
     <use xlink:href="#C3_0_ab32ed9ca7" x="126.034651" y="98.209671" style="fill: #708090; fill-opacity: 0.7"/>
    </g>
    <g clip-path="url(#pe33921e00e)">
     <use xlink:href="#C3_0_ab32ed9ca7" x="123.369187" y="80.942475" style="fill: #708090; fill-opacity: 0.7"/>
    </g>
    <g clip-path="url(#pe33921e00e)">
     <use xlink:href="#C3_0_ab32ed9ca7" x="124.515874" y="85.875959" style="fill: #708090; fill-opacity: 0.7"/>
    </g>
    <g clip-path="url(#pe33921e00e)">
     <use xlink:href="#C3_0_ab32ed9ca7" x="121.6911" y="74.364495" style="fill: #708090; fill-opacity: 0.7"/>
    </g>
    <g clip-path="url(#pe33921e00e)">
     <use xlink:href="#C3_0_ab32ed9ca7" x="124.199679" y="93.276187" style="fill: #708090; fill-opacity: 0.7"/>
    </g>
    <g clip-path="url(#pe33921e00e)">
     <use xlink:href="#C3_0_ab32ed9ca7" x="126.884055" y="67.786515" style="fill: #708090; fill-opacity: 0.7"/>
    </g>
    <g clip-path="url(#pe33921e00e)">
     <use xlink:href="#C3_0_ab32ed9ca7" x="124.043582" y="43.119091" style="fill: #708090; fill-opacity: 0.7"/>
    </g>
    <g clip-path="url(#pe33921e00e)">
     <use xlink:href="#C3_0_ab32ed9ca7" x="123.670411" y="98.209671" style="fill: #708090; fill-opacity: 0.7"/>
    </g>
    <g clip-path="url(#pe33921e00e)">
     <use xlink:href="#C3_0_ab32ed9ca7" x="125.484915" y="81.764722" style="fill: #708090; fill-opacity: 0.7"/>
    </g>
    <g clip-path="url(#pe33921e00e)">
     <use xlink:href="#C3_0_ab32ed9ca7" x="122.363397" y="50.519318" style="fill: #708090; fill-opacity: 0.7"/>
    </g>
    <g clip-path="url(#pe33921e00e)">
     <use xlink:href="#C3_0_ab32ed9ca7" x="123.307527" y="47.230329" style="fill: #708090; fill-opacity: 0.7"/>
    </g>
    <g clip-path="url(#pe33921e00e)">
     <use xlink:href="#C3_0_ab32ed9ca7" x="126.625953" y="89.164949" style="fill: #708090; fill-opacity: 0.7"/>
    </g>
   </g>
   <g id="line2d_6">
    <path d="M 36.52605 95.783301 
L 39.90195 95.783301 
M 38.214 95.783301 
L 38.214 64.836652 
M 36.52605 64.836652 
L 39.90195 64.836652 
" clip-path="url(#pe33921e00e)" style="fill: none; stroke: #333333; stroke-width: 2.5; stroke-linecap: square"/>
   </g>
   <g id="line2d_7">
    <path d="M 97.90605 96.940624 
L 101.28195 96.940624 
M 99.594 96.940624 
L 99.594 66.789369 
M 97.90605 66.789369 
L 101.28195 66.789369 
" clip-path="url(#pe33921e00e)" style="fill: none; stroke: #333333; stroke-width: 2.5; stroke-linecap: square"/>
   </g>
   <g id="line2d_8">
    <path d="M 61.07805 101.760967 
L 64.45395 101.760967 
M 62.766 101.760967 
L 62.766 64.783384 
M 61.07805 64.783384 
L 64.45395 64.783384 
" clip-path="url(#pe33921e00e)" style="fill: none; stroke: #333333; stroke-width: 2.5; stroke-linecap: square"/>
   </g>
   <g id="line2d_9">
    <path d="M 122.45805 102.502583 
L 125.83395 102.502583 
M 124.146 102.502583 
L 124.146 72.245971 
M 122.45805 72.245971 
L 125.83395 72.245971 
" clip-path="url(#pe33921e00e)" style="fill: none; stroke: #333333; stroke-width: 2.5; stroke-linecap: square"/>
   </g>
   <g id="patch_9">
    <path d="M 19.8 128.16 
L 19.8 17.28 
" style="fill: none; stroke: #000000; stroke-width: 1.5; stroke-linejoin: miter; stroke-linecap: square"/>
   </g>
   <g id="patch_10">
    <path d="M 19.8 128.16 
L 142.56 128.16 
" style="fill: none; stroke: #000000; stroke-width: 1.5; stroke-linejoin: miter; stroke-linecap: square"/>
   </g>
   <g id="PathCollection_5">
    <defs>
     <path id="m0a1480e078" d="M 0 3 
C 0.795609 3 1.55874 2.683901 2.12132 2.12132 
C 2.683901 1.55874 3 0.795609 3 0 
C 3 -0.795609 2.683901 -1.55874 2.12132 -2.12132 
C 1.55874 -2.683901 0.795609 -3 0 -3 
C -0.795609 -3 -1.55874 -2.683901 -2.12132 -2.12132 
C -2.683901 -1.55874 -3 -0.795609 -3 0 
C -3 0.795609 -2.683901 1.55874 -2.12132 2.12132 
C -1.55874 2.683901 -0.795609 3 0 3 
z
"/>
    </defs>
    <g clip-path="url(#pe33921e00e)">
     <use xlink:href="#m0a1480e078" x="38.214" y="80.309977" style="fill: #333333"/>
    </g>
   </g>
   <g id="PathCollection_6">
    <g clip-path="url(#pe33921e00e)">
     <use xlink:href="#m0a1480e078" x="62.766" y="83.272176" style="fill: #333333"/>
    </g>
   </g>
   <g id="PathCollection_7">
    <g clip-path="url(#pe33921e00e)">
     <use xlink:href="#m0a1480e078" x="99.594" y="81.864996" style="fill: #333333"/>
    </g>
   </g>
   <g id="PathCollection_8">
    <g clip-path="url(#pe33921e00e)">
     <use xlink:href="#m0a1480e078" x="124.146" y="87.374277" style="fill: #333333"/>
    </g>
   </g>
   <g id="line2d_10"/>
   <g id="line2d_11"/>
  </g>
 </g>
 <defs>
  <clipPath id="pe33921e00e">
   <rect x="19.8" y="17.28" width="122.76" height="110.88"/>
  </clipPath>
 </defs>
</svg>
